G04 DipTrace 3.0.0.2*
G04 Bottom.gbr*
%MOMM*%
G04 #@! TF.FileFunction,Copper,L2,Bot*
G04 #@! TF.Part,Single*
G04 #@! TA.AperFunction,Conductor*
%ADD13C,0.4*%
G04 #@! TA.AperFunction,CopperBalancing*
%ADD15C,0.33*%
%ADD16C,0.635*%
G04 #@! TA.AperFunction,ComponentPad*
%ADD20R,1.7X1.7*%
%ADD21C,1.7*%
%ADD23C,1.5*%
G04 #@! TA.AperFunction,ViaPad*
%ADD27C,1.016*%
%FSLAX35Y35*%
G04*
G71*
G90*
G75*
G01*
G04 Bottom*
%LPD*%
X5472833Y2347478D2*
D13*
X5450889Y2369422D1*
Y2720529D1*
X3950000Y3600000D2*
Y2968570D1*
Y2550000D1*
X4200000Y2300000D1*
X4650000Y3350000D2*
X4400000Y3600000D1*
X4200000Y2300000D2*
X4550000D1*
X4900000Y2650000D1*
X1850000Y5600000D2*
X2100000D1*
X2200000Y5500000D1*
X2500000D1*
X2550000Y5450000D1*
X2850000D1*
X2900000Y5400000D1*
X1800000Y4800000D2*
X1850000D1*
X2050000Y4600000D1*
X2550000D1*
X2900000D1*
X3000000Y4500000D1*
X2560333Y2276833D2*
X2512057Y2228557D1*
X2169720D1*
X2560333Y2276833D2*
X2656890Y2180277D1*
X2915833D1*
X3295603Y2560047D1*
Y2998447D1*
X3325480Y2968570D1*
X3950000D1*
X3334923Y3657233D2*
X3313553Y3635863D1*
X1828083D1*
X3334923Y3657233D2*
X3365627Y3687937D1*
X3892230D1*
X3950000Y3630167D1*
Y3600000D1*
X2550000Y5450000D2*
Y4600000D1*
X4921920Y3596040D2*
X4924947Y3599067D1*
X5218937D1*
X5342870Y3723000D1*
X5968000D1*
X1900000Y4100000D2*
X2850000D1*
X3200000Y4450000D1*
X3450000Y4700000D1*
X3200000Y4450000D2*
D3*
X1750000Y3900000D2*
X3166463D1*
Y3874297D1*
X4325703D1*
X4800000Y3400000D1*
Y3150000D1*
X2900000Y3400000D2*
X3605623D1*
X3696387Y3490763D1*
X3702813Y4350000D2*
X3750000D1*
Y4600000D1*
X3100000Y5250000D1*
X3150000D1*
Y5451580D1*
X2109580Y6492000D1*
X1200000D1*
X4150000Y3750000D2*
Y3200000D1*
X4400000Y2950000D1*
X5725000D1*
X5968000Y2707000D1*
X4732130Y3730723D2*
X5039383D1*
X5539660Y4231000D1*
X5968000D1*
X4041007Y4867987D2*
Y4901077D1*
X3877097Y5064987D1*
X4584233Y4685733D2*
X4223260D1*
X4041007Y4867987D1*
X5400000Y3500000D2*
X5450000D1*
X5700000Y3250000D1*
X5933000D1*
X5968000Y3215000D1*
X5701727Y4726380D2*
X5476380D1*
X5264757Y4514757D1*
X4772890Y4022890D1*
X3350000D1*
X3034337D1*
X3350000Y4000000D2*
Y4022890D1*
X5693090Y4452127D2*
X5630460Y4514757D1*
X5264757D1*
X2100000Y3350000D2*
Y3250000D1*
X1900000D1*
X1650000Y3500000D1*
Y4900000D1*
X1950000Y5200000D1*
X3765574Y2742473D2*
X3844573Y2663474D1*
Y2496698D1*
X4327222Y2014049D1*
X4849016D1*
D27*
X4200000Y2300000D3*
X3100000Y5250000D3*
X3877097Y5064987D3*
X4041007Y4867987D3*
X4584233Y4685733D3*
X1750000Y3900000D3*
X3166463Y3874297D3*
X4800000Y3150000D3*
X2900000Y3400000D3*
X1950000Y5200000D3*
X2100000Y3350000D3*
X3702813Y4350000D3*
X3696387Y3490763D3*
X4732130Y3730723D3*
X3034337Y4022890D3*
X5701727Y4726380D3*
X1900000Y4100000D3*
X3450000Y4700000D3*
X4150000Y3750000D3*
X5400000Y3500000D3*
X3950000Y3600000D3*
X4400000D3*
X4650000Y3350000D3*
X4900000Y2650000D3*
X3200000Y4450000D3*
X2200000Y5500000D3*
X1850000Y5600000D3*
X2550000Y5450000D3*
X2900000Y5400000D3*
X3000000Y4500000D3*
X2050000Y4600000D3*
X1800000Y4800000D3*
X3350000Y4000000D3*
X2169720Y2228557D3*
X2560333Y2276833D3*
X2915833Y2180277D3*
X3334923Y3657233D3*
X1828083Y3635863D3*
X4921920Y3596040D3*
X5450889Y2720529D3*
X3765574Y2742473D3*
X5472833Y2347478D3*
X1104100Y7439083D2*
D16*
X6095932D1*
X1104100Y7375917D2*
X6095932D1*
X1104100Y7312750D2*
X6095932D1*
X1104100Y7249583D2*
X6095932D1*
X1104100Y7186417D2*
X6095932D1*
X1358658Y7123250D2*
X6095932D1*
X1358658Y7060083D2*
X6095932D1*
X1358658Y6996917D2*
X6095932D1*
X1358658Y6933750D2*
X6095932D1*
X1358658Y6870583D2*
X6095932D1*
X1345760Y6807417D2*
X6095932D1*
X1358658Y6744250D2*
X6095932D1*
X1344147Y6681083D2*
X6095932D1*
X1292058Y6617917D2*
X6095932D1*
X2176593Y6554750D2*
X6095932D1*
X2239721Y6491583D2*
X6095932D1*
X2302973Y6428417D2*
X6095932D1*
X1290817Y6365250D2*
X2106594D1*
X2366100D2*
X6095932D1*
X1344519Y6302083D2*
X2169722D1*
X2429228D2*
X6095932D1*
X1358658Y6238917D2*
X2232974D1*
X2492356D2*
X6095932D1*
X1345388Y6175750D2*
X2296102D1*
X2555608D2*
X6095932D1*
X1292678Y6112583D2*
X2359230D1*
X2618736D2*
X6095932D1*
X1343899Y6049417D2*
X2422358D1*
X2681864D2*
X6095932D1*
X1358658Y5986250D2*
X2485609D1*
X2745116D2*
X6095932D1*
X1345884Y5923083D2*
X2548737D1*
X2808244D2*
X6095932D1*
X1294662Y5859917D2*
X2611865D1*
X2871372D2*
X6095932D1*
X1104100Y5796750D2*
X2675117D1*
X2934624D2*
X6095932D1*
X1104100Y5733583D2*
X2738245D1*
X2997752D2*
X6095932D1*
X1104100Y5670417D2*
X2801373D1*
X3060880D2*
X6095932D1*
X1104100Y5607250D2*
X2864625D1*
X3124132D2*
X6095932D1*
X1104100Y5544083D2*
X2927753D1*
X3187260D2*
X6095932D1*
X1104100Y5480917D2*
X2990881D1*
X3238481D2*
X3658871D1*
X3811470D2*
X6095932D1*
X1104100Y5417750D2*
X3054133D1*
X3243566D2*
X3600208D1*
X3870133D2*
X6095932D1*
X1104100Y5354583D2*
X3038754D1*
X3243566D2*
X3586566D1*
X3883775D2*
X6095932D1*
X1104100Y5291417D2*
X1868841D1*
X2031113D2*
X2983067D1*
X3243566D2*
X3602565D1*
X3867776D2*
X6095932D1*
X1104100Y5228250D2*
X1829029D1*
X2071049D2*
X2977610D1*
X3251504D2*
X3668173D1*
X3802168D2*
X6095932D1*
X1104100Y5165083D2*
X1785373D1*
X2069188D2*
X3011593D1*
X3314632D2*
X3808071D1*
X3946159D2*
X6095932D1*
X1344767Y5101917D2*
X1722121D1*
X2022059D2*
X3118377D1*
X3377884D2*
X3758586D1*
X3995644D2*
X5809314D1*
X1383587Y5038750D2*
X1658993D1*
X1918500D2*
X3181505D1*
X3441012D2*
X3755609D1*
X4033100D2*
X5809314D1*
X1389664Y4975583D2*
X1595865D1*
X1855372D2*
X3244633D1*
X3504140D2*
X3793561D1*
X4096227D2*
X5809314D1*
X1367588Y4912417D2*
X1557294D1*
X1792120D2*
X3307885D1*
X3567392D2*
X3899973D1*
X4156751D2*
X5809314D1*
X1343403Y4849250D2*
X1556426D1*
X1743627D2*
X3371013D1*
X3630519D2*
X3918080D1*
X4189493D2*
X5809314D1*
X1383215Y4786083D2*
X1556426D1*
X1743627D2*
X3362827D1*
X3693647D2*
X3949582D1*
X4252621D2*
X4515625D1*
X4652845D2*
X5406361D1*
X1389788Y4722917D2*
X1556426D1*
X1743627D2*
X3327853D1*
X3756775D2*
X4056366D1*
X4702702D2*
X5343109D1*
X1368456Y4659750D2*
X1556426D1*
X1743627D2*
X3279980D1*
X3819903D2*
X4119494D1*
X4705803D2*
X5279982D1*
X1342039Y4596583D2*
X1556426D1*
X1743627D2*
X3216852D1*
X3513317D2*
X3623649D1*
X3843592D2*
X4500494D1*
X4667975D2*
X5216854D1*
X5667108D2*
X5858055D1*
X1382719Y4533417D2*
X1556426D1*
X1743627D2*
X3110067D1*
X3413106D2*
X3656391D1*
X3843592D2*
X5153726D1*
X1389912Y4470250D2*
X1556426D1*
X1743627D2*
X3077325D1*
X3349978D2*
X3656391D1*
X3843592D2*
X5090474D1*
X1369200Y4407083D2*
X1556426D1*
X1743627D2*
X3027344D1*
X3316368D2*
X3593139D1*
X3843592D2*
X5027346D1*
X1340551Y4343917D2*
X1556426D1*
X1743627D2*
X2964216D1*
X3258201D2*
X3578504D1*
X3843344D2*
X4964218D1*
X1382223Y4280750D2*
X1556426D1*
X1743627D2*
X2900964D1*
X3160471D2*
X3600828D1*
X3809485D2*
X4900966D1*
X1390036Y4217583D2*
X1556426D1*
X1743627D2*
X1882732D1*
X1917254D2*
X2837836D1*
X3097343D2*
X4837838D1*
X1369944Y4154417D2*
X1556426D1*
X1743627D2*
X1788863D1*
X3034215D2*
X4774710D1*
X1339062Y4091250D2*
X1556426D1*
X1743627D2*
X1775963D1*
X5529690D2*
X5860907D1*
X1381850Y4028083D2*
X1556426D1*
X1743627D2*
X1800008D1*
X5466438D2*
X5818243D1*
X1390160Y3964917D2*
X1556426D1*
X5403310D2*
X5809810D1*
X1370688Y3901750D2*
X1556426D1*
X5340183D2*
X5829281D1*
X1337450Y3838583D2*
X1556426D1*
X5277055D2*
X5862520D1*
X1381354Y3775417D2*
X1556426D1*
X1743627D2*
X3095557D1*
X3237365D2*
X4028337D1*
X5213803D2*
X5818615D1*
X1390284Y3712250D2*
X1556426D1*
X1743627D2*
X4031810D1*
X4268248D2*
X4357991D1*
X5150675D2*
X5809686D1*
X1371557Y3649083D2*
X1556426D1*
X1743627D2*
X4056366D1*
X4243567D2*
X4421119D1*
X5076509D2*
X5828537D1*
X1335962Y3585917D2*
X1556426D1*
X1743627D2*
X3620052D1*
X3772650D2*
X4056366D1*
X4243567D2*
X4484371D1*
X4743878D2*
X5312600D1*
X5487398D2*
X5864008D1*
X1380858Y3522750D2*
X1556426D1*
X1757021D2*
X3576396D1*
X3816431D2*
X4056366D1*
X4243567D2*
X4547499D1*
X4807006D2*
X5277749D1*
X5556975D2*
X5819111D1*
X1390408Y3459583D2*
X1566348D1*
X1820149D2*
X2049667D1*
X2150300D2*
X2791699D1*
X3816679D2*
X4056366D1*
X4243567D2*
X4610627D1*
X4870134D2*
X5282710D1*
X5620227D2*
X5809686D1*
X1372177Y3396417D2*
X1623895D1*
X1883277D2*
X1985051D1*
X2214916D2*
X2775576D1*
X3773767D2*
X4056366D1*
X4243567D2*
X4673879D1*
X4893574D2*
X5336908D1*
X5683355D2*
X5827793D1*
X1334350Y3333250D2*
X1687023D1*
X2223225D2*
X2796288D1*
X3668223D2*
X4056366D1*
X4243567D2*
X4706373D1*
X4893574D2*
X5486977D1*
X1380362Y3270083D2*
X1750150D1*
X2193584D2*
X4056366D1*
X4243567D2*
X4706373D1*
X4893574D2*
X5550229D1*
X1390408Y3206917D2*
X1813278D1*
X2182174D2*
X4056366D1*
X4272837D2*
X4690126D1*
X4909821D2*
X5613357D1*
X1372921Y3143750D2*
X4076954D1*
X4335965D2*
X4675739D1*
X4924332D2*
X5827049D1*
X1332613Y3080583D2*
X4139710D1*
X4399217D2*
X4698064D1*
X4901884D2*
X5867357D1*
X1379866Y3017417D2*
X4202838D1*
X5786791D2*
X5820179D1*
X1390532Y2954250D2*
X4265966D1*
X1373665Y2891083D2*
X4329218D1*
X1390656Y2827917D2*
X3677723D1*
X3853390D2*
X5395447D1*
X5506374D2*
X5717288D1*
X1390656Y2764750D2*
X3643244D1*
X3887868D2*
X5335048D1*
X5566773D2*
X5780540D1*
X1390656Y2701583D2*
X3648453D1*
X3929416D2*
X5327979D1*
X5573843D2*
X5809438D1*
X1390656Y2638417D2*
X3703396D1*
X3938222D2*
X5357248D1*
X5544449D2*
X5825685D1*
X1390656Y2575250D2*
X3751021D1*
X3938222D2*
X5357248D1*
X5544449D2*
X5885216D1*
X6050713D2*
X6095932D1*
X1104100Y2512083D2*
X3586566D1*
X3958933D2*
X5357248D1*
X5544449D2*
X6095932D1*
X1104100Y2448917D2*
X3549234D1*
X4022061D2*
X5357248D1*
X5544449D2*
X6095932D1*
X1104100Y2385750D2*
X3546010D1*
X4085313D2*
X5354768D1*
X5590958D2*
X6095932D1*
X1104100Y2322583D2*
X3574287D1*
X3810850D2*
X3888935D1*
X4148441D2*
X5351047D1*
X5594679D2*
X6095932D1*
X1104100Y2259417D2*
X3766896D1*
X4211569D2*
X5387758D1*
X5557844D2*
X6095932D1*
X1104100Y2196250D2*
X3738494D1*
X4274821D2*
X6095932D1*
X1104100Y2133083D2*
X3741595D1*
X4028387D2*
X4078442D1*
X4337949D2*
X4690374D1*
X5204377D2*
X6095932D1*
X1104100Y2069917D2*
X3778802D1*
X3991056D2*
X4141570D1*
X5251010D2*
X6095932D1*
X1104100Y2006750D2*
X4097666D1*
X5261428D2*
X6095932D1*
X1104100Y1943583D2*
X4023500D1*
X5244312D2*
X6095932D1*
X1104100Y1880417D2*
X4005145D1*
X4302106D2*
X4690374D1*
X5182425D2*
X6095932D1*
X1104100Y1817250D2*
X4016555D1*
X4374288D2*
X6095932D1*
X1104100Y1754083D2*
X4069761D1*
X4442749D2*
X6095932D1*
X1104100Y1690917D2*
X4162406D1*
X4459616D2*
X6095932D1*
X1104100Y1627750D2*
X4175181D1*
X4446842D2*
X6095932D1*
X1104100Y1564583D2*
X4231859D1*
X4390163D2*
X6095932D1*
X1104100Y1501417D2*
X6095932D1*
X1104100Y1438250D2*
X6095932D1*
X1104100Y1375083D2*
X6095932D1*
X1104100Y1311917D2*
X6095932D1*
X1104100Y1248750D2*
X6095932D1*
X1104100Y1185583D2*
X6095932D1*
X1104100Y1122417D2*
X6095932D1*
X1345244Y2859290D2*
X1384290D1*
Y2554710D1*
X1097731D1*
X1097750Y1097750D1*
X6102250D1*
Y2635021D1*
X6091205Y2617486D1*
X6075685Y2599315D1*
X6057514Y2583795D1*
X6037138Y2571309D1*
X6015060Y2562164D1*
X5991823Y2556585D1*
X5968000Y2554710D1*
X5944177Y2556585D1*
X5920940Y2562164D1*
X5898862Y2571309D1*
X5878486Y2583795D1*
X5860315Y2599315D1*
X5844795Y2617486D1*
X5832309Y2637862D1*
X5823164Y2659940D1*
X5817585Y2683177D1*
X5815710Y2707000D1*
X5818123Y2733526D1*
X5688874Y2862679D1*
X4393151Y2862979D1*
X4379623Y2865122D1*
X4366596Y2869354D1*
X4354391Y2875573D1*
X4343310Y2883624D1*
X4158671Y3067882D1*
X4083624Y3143310D1*
X4075573Y3154391D1*
X4069354Y3166596D1*
X4065122Y3179623D1*
X4062979Y3193151D1*
X4062710Y3454000D1*
Y3670421D1*
X4049312Y3688298D1*
X4040899Y3704809D1*
X4035173Y3722432D1*
X4032274Y3740735D1*
Y3759265D1*
X4035173Y3777568D1*
X4037903Y3787070D1*
X3246079Y3787006D1*
X3228165Y3773608D1*
X3211654Y3765196D1*
X3194031Y3759470D1*
X3175729Y3756571D1*
X3157198D1*
X3138896Y3759470D1*
X3121272Y3765196D1*
X3104761Y3773608D1*
X3089770Y3784500D1*
X3076667Y3797603D1*
X3065687Y3812753D1*
X1829615Y3812710D1*
X1811702Y3799312D1*
X1795191Y3790899D1*
X1777568Y3785173D1*
X1759265Y3782274D1*
X1737246Y3782687D1*
X1737290Y3536114D1*
X1936142Y3337305D1*
X1982476Y3337290D1*
X1982274Y3359265D1*
X1985173Y3377568D1*
X1990899Y3395191D1*
X1999312Y3411702D1*
X2010204Y3426693D1*
X2023307Y3439796D1*
X2038298Y3450688D1*
X2054809Y3459101D1*
X2072432Y3464827D1*
X2090735Y3467726D1*
X2109265D1*
X2127568Y3464827D1*
X2145191Y3459101D1*
X2161702Y3450688D1*
X2176693Y3439796D1*
X2189796Y3426693D1*
X2200688Y3411702D1*
X2209101Y3395191D1*
X2214827Y3377568D1*
X2217726Y3359265D1*
Y3340735D1*
X2214827Y3322432D1*
X2209101Y3304809D1*
X2200688Y3288298D1*
X2187264Y3270567D1*
X2187021Y3243151D1*
X2184878Y3229623D1*
X2180646Y3216596D1*
X2174427Y3204391D1*
X2166376Y3193310D1*
X2156690Y3183624D1*
X2145609Y3175573D1*
X2133404Y3169354D1*
X2120377Y3165122D1*
X2106849Y3162979D1*
X1900000Y3162710D1*
X1886345Y3163785D1*
X1873026Y3166982D1*
X1860371Y3172224D1*
X1848692Y3179381D1*
X1838277Y3188277D1*
X1583624Y3443310D1*
X1575573Y3454391D1*
X1569354Y3466596D1*
X1565122Y3479623D1*
X1562979Y3493151D1*
X1562710Y3754000D1*
X1562979Y4906849D1*
X1565122Y4920377D1*
X1569354Y4933404D1*
X1575573Y4945609D1*
X1583624Y4956690D1*
X1767882Y5141329D1*
X1831989Y5205436D1*
X1835173Y5227568D1*
X1840899Y5245191D1*
X1849312Y5261702D1*
X1860204Y5276693D1*
X1873307Y5289796D1*
X1888298Y5300688D1*
X1904809Y5309101D1*
X1922432Y5314827D1*
X1940735Y5317726D1*
X1959265D1*
X1977568Y5314827D1*
X1995191Y5309101D1*
X2011702Y5300688D1*
X2026693Y5289796D1*
X2039796Y5276693D1*
X2050688Y5261702D1*
X2059101Y5245191D1*
X2064827Y5227568D1*
X2067726Y5209265D1*
Y5190735D1*
X2064827Y5172432D1*
X2059101Y5154809D1*
X2050688Y5138298D1*
X2039796Y5123307D1*
X2026693Y5110204D1*
X2011702Y5099312D1*
X1995191Y5090899D1*
X1977568Y5085173D1*
X1955537Y5082128D1*
X1737317Y4863870D1*
X1737290Y4017325D1*
X1759265Y4017726D1*
X1777568Y4014827D1*
X1795191Y4009101D1*
X1811702Y4000688D1*
X1829433Y3987264D1*
X1838298Y3999312D1*
X1823307Y4010204D1*
X1810204Y4023307D1*
X1799312Y4038298D1*
X1790899Y4054809D1*
X1785173Y4072432D1*
X1782274Y4090735D1*
Y4109265D1*
X1785173Y4127568D1*
X1790899Y4145191D1*
X1799312Y4161702D1*
X1810204Y4176693D1*
X1823307Y4189796D1*
X1838298Y4200688D1*
X1854809Y4209101D1*
X1872432Y4214827D1*
X1890735Y4217726D1*
X1909265D1*
X1927568Y4214827D1*
X1945191Y4209101D1*
X1961702Y4200688D1*
X1979433Y4187264D1*
X2813929Y4187290D1*
X3081977Y4455423D1*
X3085173Y4477568D1*
X3090899Y4495191D1*
X3099312Y4511702D1*
X3110204Y4526693D1*
X3123307Y4539796D1*
X3138298Y4550688D1*
X3154809Y4559101D1*
X3172432Y4564827D1*
X3194463Y4567872D1*
X3332001Y4705448D1*
X3335173Y4727568D1*
X3340899Y4745191D1*
X3349312Y4761702D1*
X3360204Y4776693D1*
X3373307Y4789796D1*
X3388298Y4800688D1*
X3404809Y4809101D1*
X3414101Y4812477D1*
X3094474Y5132078D1*
X3072432Y5135173D1*
X3054809Y5140899D1*
X3038298Y5149312D1*
X3023307Y5160204D1*
X3010204Y5173307D1*
X2999312Y5188298D1*
X2990899Y5204809D1*
X2985173Y5222432D1*
X2982274Y5240735D1*
Y5259265D1*
X2985173Y5277568D1*
X2990899Y5295191D1*
X2999312Y5311702D1*
X3010204Y5326693D1*
X3023307Y5339796D1*
X3038298Y5350688D1*
X3054809Y5359101D1*
X3062727Y5362022D1*
X3062710Y5415571D1*
X2073350Y6404783D1*
X1324884Y6404710D1*
X1307685Y6384315D1*
X1289514Y6368795D1*
X1283960Y6365084D1*
X1298904Y6353802D1*
X1315802Y6336904D1*
X1329849Y6317571D1*
X1340698Y6296279D1*
X1348082Y6273551D1*
X1351821Y6249949D1*
Y6226051D1*
X1348082Y6202449D1*
X1340698Y6179721D1*
X1329849Y6158429D1*
X1315802Y6139096D1*
X1298904Y6122198D1*
X1283960Y6111084D1*
X1298904Y6099802D1*
X1315802Y6082904D1*
X1329849Y6063571D1*
X1340698Y6042279D1*
X1348082Y6019551D1*
X1351821Y5995949D1*
Y5972051D1*
X1348082Y5948449D1*
X1340698Y5925721D1*
X1329849Y5904429D1*
X1315802Y5885096D1*
X1298904Y5868198D1*
X1279571Y5854151D1*
X1258279Y5843302D1*
X1235551Y5835918D1*
X1211949Y5832179D1*
X1188051D1*
X1164449Y5835918D1*
X1141721Y5843302D1*
X1120429Y5854151D1*
X1101096Y5868198D1*
X1097700Y5871337D1*
X1097750Y5064817D1*
X1108795Y5082514D1*
X1124315Y5100685D1*
X1142486Y5116205D1*
X1162862Y5128691D1*
X1184940Y5137836D1*
X1208177Y5143415D1*
X1232000Y5145290D1*
X1255823Y5143415D1*
X1279060Y5137836D1*
X1301138Y5128691D1*
X1321514Y5116205D1*
X1339685Y5100685D1*
X1355205Y5082514D1*
X1367691Y5062138D1*
X1376836Y5040060D1*
X1382415Y5016823D1*
X1384290Y4993000D1*
X1382415Y4969177D1*
X1376836Y4945940D1*
X1367691Y4923862D1*
X1355205Y4903486D1*
X1339685Y4885315D1*
X1321514Y4869795D1*
X1315960Y4866084D1*
X1330904Y4854802D1*
X1347802Y4837904D1*
X1361849Y4818571D1*
X1372698Y4797279D1*
X1380082Y4774551D1*
X1383821Y4750949D1*
Y4727051D1*
X1380082Y4703449D1*
X1372698Y4680721D1*
X1361849Y4659429D1*
X1347802Y4640096D1*
X1330904Y4623198D1*
X1315960Y4612084D1*
X1330904Y4600802D1*
X1347802Y4583904D1*
X1361849Y4564571D1*
X1372698Y4543279D1*
X1380082Y4520551D1*
X1383821Y4496949D1*
Y4473051D1*
X1380082Y4449449D1*
X1372698Y4426721D1*
X1361849Y4405429D1*
X1347802Y4386096D1*
X1330904Y4369198D1*
X1315960Y4358084D1*
X1330904Y4346802D1*
X1347802Y4329904D1*
X1361849Y4310571D1*
X1372698Y4289279D1*
X1380082Y4266551D1*
X1383821Y4242949D1*
Y4219051D1*
X1380082Y4195449D1*
X1372698Y4172721D1*
X1361849Y4151429D1*
X1347802Y4132096D1*
X1330904Y4115198D1*
X1315960Y4104084D1*
X1330904Y4092802D1*
X1347802Y4075904D1*
X1361849Y4056571D1*
X1372698Y4035279D1*
X1380082Y4012551D1*
X1383821Y3988949D1*
Y3965051D1*
X1380082Y3941449D1*
X1372698Y3918721D1*
X1361849Y3897429D1*
X1347802Y3878096D1*
X1330904Y3861198D1*
X1315960Y3850084D1*
X1330904Y3838802D1*
X1347802Y3821904D1*
X1361849Y3802571D1*
X1372698Y3781279D1*
X1380082Y3758551D1*
X1383821Y3734949D1*
Y3711051D1*
X1380082Y3687449D1*
X1372698Y3664721D1*
X1361849Y3643429D1*
X1347802Y3624096D1*
X1330904Y3607198D1*
X1315960Y3596084D1*
X1330904Y3584802D1*
X1347802Y3567904D1*
X1361849Y3548571D1*
X1372698Y3527279D1*
X1380082Y3504551D1*
X1383821Y3480949D1*
Y3457051D1*
X1380082Y3433449D1*
X1372698Y3410721D1*
X1361849Y3389429D1*
X1347802Y3370096D1*
X1330904Y3353198D1*
X1315960Y3342084D1*
X1330904Y3330802D1*
X1347802Y3313904D1*
X1361849Y3294571D1*
X1372698Y3273279D1*
X1380082Y3250551D1*
X1383821Y3226949D1*
Y3203051D1*
X1380082Y3179449D1*
X1372698Y3156721D1*
X1361849Y3135429D1*
X1347802Y3116096D1*
X1330904Y3099198D1*
X1315960Y3088084D1*
X1330904Y3076802D1*
X1347802Y3059904D1*
X1361849Y3040571D1*
X1372698Y3019279D1*
X1380082Y2996551D1*
X1383821Y2972949D1*
Y2949051D1*
X1380082Y2925449D1*
X1372698Y2902721D1*
X1361849Y2881429D1*
X1347802Y2862096D1*
X1345234Y2859317D1*
X5847460Y5145290D2*
X6102269D1*
X6102250Y7502250D1*
X1097750D1*
X1098510Y7152290D1*
X1352290D1*
Y6847710D1*
X1313322D1*
X1329849Y6825571D1*
X1340698Y6804279D1*
X1348082Y6781551D1*
X1351821Y6757949D1*
Y6734051D1*
X1348082Y6710449D1*
X1340698Y6687721D1*
X1329849Y6666429D1*
X1315802Y6647096D1*
X1298904Y6630198D1*
X1283960Y6619084D1*
X1298904Y6607802D1*
X1315802Y6590904D1*
X1324736Y6579222D1*
X2116429Y6579021D1*
X2129957Y6576878D1*
X2142984Y6572645D1*
X2155189Y6566427D1*
X2166270Y6558376D1*
X2350908Y6374118D1*
X3216376Y5508270D1*
X3224427Y5497189D1*
X3230645Y5484984D1*
X3234878Y5471957D1*
X3237021Y5458429D1*
X3237290Y5250000D1*
X3236905Y5242168D1*
X3251526Y5221921D1*
X3816376Y4656691D1*
X3824427Y4645609D1*
X3830646Y4633405D1*
X3834879Y4620378D1*
X3837021Y4606849D1*
X3837290Y4350000D1*
X3836216Y4336345D1*
X3833018Y4323026D1*
X3827776Y4310371D1*
X3820619Y4298692D1*
X3811724Y4288276D1*
X3801308Y4279381D1*
X3792610Y4273307D1*
X3779507Y4260204D1*
X3764515Y4249312D1*
X3748004Y4240899D1*
X3730381Y4235173D1*
X3712079Y4232274D1*
X3693548D1*
X3675246Y4235173D1*
X3657622Y4240899D1*
X3641111Y4249312D1*
X3626120Y4260204D1*
X3613017Y4273307D1*
X3602125Y4288298D1*
X3593712Y4304809D1*
X3587986Y4322432D1*
X3585087Y4340735D1*
Y4359265D1*
X3587986Y4377568D1*
X3593712Y4395191D1*
X3602125Y4411702D1*
X3613017Y4426693D1*
X3626120Y4439796D1*
X3641111Y4450688D1*
X3657622Y4459101D1*
X3662753Y4460994D1*
X3662710Y4563940D1*
X3562310Y4663508D1*
X3555219Y4646388D1*
X3545537Y4630588D1*
X3533502Y4616498D1*
X3519412Y4604463D1*
X3503612Y4594781D1*
X3486492Y4587690D1*
X3468473Y4583364D1*
X3455537Y4582128D1*
X3317999Y4444552D1*
X3314827Y4422432D1*
X3309101Y4404809D1*
X3300688Y4388298D1*
X3289796Y4373307D1*
X3276693Y4360204D1*
X3261702Y4349312D1*
X3245191Y4340899D1*
X3227568Y4335173D1*
X3205537Y4332128D1*
X3012399Y4138952D1*
X3034337Y4140980D1*
X3052810Y4139526D1*
X3070828Y4135200D1*
X3087948Y4128109D1*
X3103748Y4118427D1*
X3113770Y4110154D1*
X3307560Y4110180D1*
X3322432Y4114827D1*
X3340735Y4117726D1*
X3359265D1*
X3377568Y4114827D1*
X3392371Y4110141D1*
X4736706Y4110180D1*
X5419689Y4792756D1*
X5430771Y4800807D1*
X5442975Y4807026D1*
X5456002Y4811259D1*
X5469531Y4813401D1*
X5622108Y4813670D1*
X5640025Y4827068D1*
X5656536Y4835481D1*
X5674159Y4841207D1*
X5692461Y4844106D1*
X5710992D1*
X5729294Y4841207D1*
X5746918Y4835481D1*
X5763429Y4827068D1*
X5778420Y4816176D1*
X5791523Y4803073D1*
X5802415Y4788082D1*
X5810828Y4771571D1*
X5816465Y4754261D1*
X5819918Y4774551D1*
X5827302Y4797279D1*
X5838151Y4818571D1*
X5852198Y4837904D1*
X5854766Y4840683D1*
X5815710Y4840710D1*
Y5145290D1*
X5847460D1*
X5884040Y4612084D2*
X5869096Y4623198D1*
X5852198Y4640096D1*
X5838151Y4659429D1*
X5827302Y4680721D1*
X5819918Y4703449D1*
X5818651Y4709817D1*
X5814037Y4689888D1*
X5806946Y4672768D1*
X5797263Y4656968D1*
X5785229Y4642878D1*
X5771138Y4630843D1*
X5755338Y4621161D1*
X5738218Y4614070D1*
X5720200Y4609744D1*
X5701727Y4608290D1*
X5683253Y4609744D1*
X5665235Y4614070D1*
X5648115Y4621161D1*
X5632315Y4630843D1*
X5622294Y4639116D1*
X5512591Y4639090D1*
X5475400Y4601952D1*
X5637309Y4601778D1*
X5650837Y4599635D1*
X5664764Y4594987D1*
X5670831Y4592665D1*
X5693090Y4594417D1*
X5715349Y4592665D1*
X5737060Y4587452D1*
X5757688Y4578908D1*
X5776726Y4567242D1*
X5793704Y4552741D1*
X5808205Y4535763D1*
X5819296Y4517753D1*
X5827302Y4543279D1*
X5838151Y4564571D1*
X5852198Y4583904D1*
X5869096Y4600802D1*
X5884040Y4611916D1*
Y4104084D2*
X5869096Y4115198D1*
X5852198Y4132096D1*
X5843264Y4143778D1*
X5575714Y4143710D1*
X5096074Y3664347D1*
X5084992Y3656296D1*
X5072788Y3650078D1*
X5059761Y3645845D1*
X5046232Y3643702D1*
X4811552Y3643433D1*
X4793832Y3630035D1*
X4777321Y3621622D1*
X4759698Y3615896D1*
X4741395Y3612997D1*
X4722865D1*
X4708221Y3615168D1*
X4866376Y3456690D1*
X4874427Y3445609D1*
X4880646Y3433405D1*
X4884878Y3420378D1*
X4887021Y3406849D1*
X4887290Y3229468D1*
X4900688Y3211702D1*
X4909101Y3195191D1*
X4914827Y3177568D1*
X4917726Y3159265D1*
Y3140735D1*
X4914827Y3122432D1*
X4909101Y3104809D1*
X4900688Y3088298D1*
X4889796Y3073307D1*
X4876693Y3060204D1*
X4861702Y3049312D1*
X4845191Y3040899D1*
X4834923Y3037247D1*
X5731849Y3037021D1*
X5745377Y3034878D1*
X5758404Y3030646D1*
X5770609Y3024427D1*
X5781690Y3016376D1*
X5817155Y2981292D1*
X5819918Y2996551D1*
X5827302Y3019279D1*
X5838151Y3040571D1*
X5852198Y3059904D1*
X5869096Y3076802D1*
X5884040Y3087916D1*
X5869096Y3099198D1*
X5852198Y3116096D1*
X5838151Y3135429D1*
X5827302Y3156721D1*
X5825087Y3162725D1*
X5693151Y3162979D1*
X5679622Y3165122D1*
X5666595Y3169354D1*
X5654391Y3175573D1*
X5643309Y3183624D1*
X5458671Y3367882D1*
X5438238Y3388315D1*
X5418473Y3383364D1*
X5400000Y3381910D1*
X5381527Y3383364D1*
X5363508Y3387690D1*
X5346388Y3394781D1*
X5330588Y3404463D1*
X5316498Y3416498D1*
X5304463Y3430588D1*
X5294781Y3446388D1*
X5287690Y3463508D1*
X5283364Y3481527D1*
X5281910Y3500000D1*
X5283364Y3518473D1*
X5287690Y3536492D1*
X5294781Y3553612D1*
X5304463Y3569412D1*
X5316498Y3583502D1*
X5330588Y3595537D1*
X5346388Y3605219D1*
X5363508Y3612310D1*
X5381527Y3616636D1*
X5400000Y3618090D1*
X5418473Y3616636D1*
X5436492Y3612310D1*
X5453612Y3605219D1*
X5469412Y3595537D1*
X5483502Y3583502D1*
X5489629Y3577776D1*
X5501308Y3570619D1*
X5511724Y3561724D1*
X5736142Y3337305D1*
X5877229Y3337290D1*
X5884040Y3341916D1*
X5869096Y3353198D1*
X5852198Y3370096D1*
X5838151Y3389429D1*
X5827302Y3410721D1*
X5819918Y3433449D1*
X5816179Y3457051D1*
Y3480949D1*
X5819918Y3504551D1*
X5827302Y3527279D1*
X5838151Y3548571D1*
X5852198Y3567904D1*
X5869096Y3584802D1*
X5884040Y3595916D1*
X5867293Y3608761D1*
X5853827Y3622219D1*
X5842146Y3637251D1*
X5832431Y3653623D1*
X5824834Y3671079D1*
X5819475Y3689347D1*
X5816437Y3708141D1*
X5815767Y3727166D1*
X5817476Y3746127D1*
X5821538Y3764726D1*
X5827888Y3782674D1*
X5836428Y3799688D1*
X5847024Y3815504D1*
X5859511Y3829875D1*
X5873693Y3842576D1*
X5883960Y3850002D1*
X5869096Y3861198D1*
X5852198Y3878096D1*
X5838151Y3897429D1*
X5827302Y3918721D1*
X5819918Y3941449D1*
X5816179Y3965051D1*
Y3988949D1*
X5819918Y4012551D1*
X5827302Y4035279D1*
X5838151Y4056571D1*
X5852198Y4075904D1*
X5869096Y4092802D1*
X5884040Y4103916D1*
X4728476Y2166339D2*
X5001306D1*
Y2127271D1*
X5013502Y2137254D1*
X5033878Y2149740D1*
X5055956Y2158885D1*
X5079193Y2164464D1*
X5103016Y2166339D1*
X5126840Y2164464D1*
X5150076Y2158885D1*
X5172154Y2149740D1*
X5192530Y2137254D1*
X5210702Y2121734D1*
X5226221Y2103563D1*
X5238708Y2083187D1*
X5247853Y2061109D1*
X5253431Y2037872D1*
X5255306Y2014049D1*
X5253431Y1990226D1*
X5247853Y1966989D1*
X5238708Y1944911D1*
X5226221Y1924535D1*
X5210702Y1906364D1*
X5192530Y1890844D1*
X5172154Y1878358D1*
X5150076Y1869213D1*
X5126840Y1863634D1*
X5103016Y1861759D1*
X5079193Y1863634D1*
X5055956Y1869213D1*
X5033878Y1878358D1*
X5013502Y1890844D1*
X5001333Y1900815D1*
X5001306Y1861759D1*
X4696726D1*
Y1926871D1*
X4320373Y1927028D1*
X4306845Y1929171D1*
X4293817Y1933403D1*
X4280789Y1940172D1*
X4280441Y1937998D1*
X4288986Y1917370D1*
X4294198Y1895659D1*
X4295950Y1873400D1*
X4294198Y1851141D1*
X4288185Y1827260D1*
X4311020Y1829113D1*
X4333279Y1827362D1*
X4354990Y1822149D1*
X4375618Y1813605D1*
X4394656Y1801938D1*
X4411634Y1787438D1*
X4426135Y1770459D1*
X4437801Y1751422D1*
X4446346Y1730793D1*
X4451558Y1709082D1*
X4453310Y1686823D1*
X4451558Y1664564D1*
X4446346Y1642853D1*
X4437801Y1622225D1*
X4426135Y1603187D1*
X4411634Y1586209D1*
X4394656Y1571708D1*
X4375618Y1560042D1*
X4354990Y1551498D1*
X4333279Y1546285D1*
X4311020Y1544533D1*
X4288761Y1546285D1*
X4267050Y1551498D1*
X4246422Y1560042D1*
X4227384Y1571708D1*
X4210406Y1586209D1*
X4195905Y1603187D1*
X4184239Y1622225D1*
X4175694Y1642853D1*
X4170482Y1664564D1*
X4168730Y1686823D1*
X4170482Y1709082D1*
X4176495Y1732963D1*
X4153660Y1731110D1*
X4131401Y1732862D1*
X4109690Y1738074D1*
X4089062Y1746619D1*
X4070024Y1758285D1*
X4053046Y1772786D1*
X4038545Y1789764D1*
X4026879Y1808802D1*
X4018334Y1829430D1*
X4013122Y1851141D1*
X4011370Y1873400D1*
X4013122Y1895659D1*
X4018334Y1917370D1*
X4026879Y1937998D1*
X4038545Y1957036D1*
X4053046Y1974014D1*
X4070024Y1988515D1*
X4089062Y2000181D1*
X4109690Y2008726D1*
X4131401Y2013938D1*
X4153660Y2015690D1*
X4175919Y2013938D1*
X4197630Y2008726D1*
X4217188Y2000675D1*
X4025645Y2192179D1*
X4027233Y2171317D1*
X4025482Y2149058D1*
X4020269Y2127347D1*
X4011725Y2106718D1*
X4000058Y2087681D1*
X3985558Y2070702D1*
X3968579Y2056202D1*
X3949542Y2044535D1*
X3928913Y2035991D1*
X3907202Y2030778D1*
X3884943Y2029027D1*
X3862684Y2030778D1*
X3840973Y2035991D1*
X3820345Y2044535D1*
X3801307Y2056202D1*
X3784329Y2070702D1*
X3769828Y2087681D1*
X3758162Y2106718D1*
X3749618Y2127347D1*
X3744405Y2149058D1*
X3742653Y2171317D1*
X3744405Y2193576D1*
X3749618Y2215287D1*
X3758162Y2235915D1*
X3769828Y2254953D1*
X3784329Y2271931D1*
X3801307Y2286432D1*
X3820345Y2298098D1*
X3840973Y2306642D1*
X3862684Y2311855D1*
X3884943Y2313607D1*
X3905859Y2312014D1*
X3832534Y2385290D1*
X3827856Y2366493D1*
X3819311Y2345865D1*
X3807645Y2326827D1*
X3793144Y2309849D1*
X3776166Y2295348D1*
X3757128Y2283682D1*
X3736500Y2275138D1*
X3714789Y2269925D1*
X3692530Y2268173D1*
X3670271Y2269925D1*
X3648560Y2275138D1*
X3627932Y2283682D1*
X3608894Y2295348D1*
X3591916Y2309849D1*
X3577415Y2326827D1*
X3565749Y2345865D1*
X3557204Y2366493D1*
X3551992Y2388204D1*
X3550240Y2410463D1*
X3551992Y2432722D1*
X3557204Y2454433D1*
X3565749Y2475062D1*
X3577415Y2494099D1*
X3591916Y2511078D1*
X3608894Y2525578D1*
X3627932Y2537245D1*
X3648560Y2545789D1*
X3670271Y2551002D1*
X3692530Y2552753D1*
X3714789Y2551002D1*
X3736500Y2545789D1*
X3757319Y2537138D1*
X3757282Y2624566D1*
X3738006Y2627646D1*
X3720382Y2633372D1*
X3703872Y2641785D1*
X3688880Y2652677D1*
X3675777Y2665780D1*
X3664885Y2680772D1*
X3656473Y2697282D1*
X3650746Y2714906D1*
X3647848Y2733208D1*
Y2751739D1*
X3650746Y2770041D1*
X3656473Y2787664D1*
X3664885Y2804175D1*
X3675777Y2819167D1*
X3688880Y2832270D1*
X3703872Y2843162D1*
X3720382Y2851574D1*
X3738006Y2857301D1*
X3756308Y2860199D1*
X3774839D1*
X3793141Y2857301D1*
X3810765Y2851574D1*
X3827275Y2843162D1*
X3842267Y2832270D1*
X3855370Y2819167D1*
X3866262Y2804175D1*
X3874675Y2787664D1*
X3880401Y2770041D1*
X3883446Y2748011D1*
X3910949Y2720165D1*
X3919000Y2709083D1*
X3925218Y2696879D1*
X3929451Y2683852D1*
X3931594Y2670323D1*
X3931863Y2532878D1*
X4363465Y2101253D1*
X4696688Y2101339D1*
X4696726Y2166339D1*
X4728476D1*
X3871559Y4947114D2*
X3849529Y4950160D1*
X3831906Y4955886D1*
X3815395Y4964298D1*
X3800403Y4975190D1*
X3787300Y4988293D1*
X3776408Y5003285D1*
X3767996Y5019796D1*
X3762270Y5037419D1*
X3759371Y5055721D1*
Y5074252D1*
X3762270Y5092554D1*
X3767996Y5110178D1*
X3776408Y5126689D1*
X3787300Y5141680D1*
X3800403Y5154783D1*
X3815395Y5165675D1*
X3831906Y5174088D1*
X3849529Y5179814D1*
X3867831Y5182713D1*
X3886362D1*
X3904664Y5179814D1*
X3922288Y5174088D1*
X3938799Y5165675D1*
X3953790Y5154783D1*
X3966893Y5141680D1*
X3977785Y5126689D1*
X3986198Y5110178D1*
X3991924Y5092554D1*
X3994969Y5070524D1*
X4090099Y4975431D1*
X4110418Y4963523D1*
X4124509Y4951489D1*
X4136543Y4937398D1*
X4146226Y4921598D1*
X4153317Y4904478D1*
X4157643Y4886460D1*
X4158879Y4873524D1*
X4259446Y4772994D1*
X4504669Y4773024D1*
X4522531Y4786422D1*
X4539042Y4794834D1*
X4556666Y4800560D1*
X4574968Y4803459D1*
X4593499D1*
X4611801Y4800560D1*
X4629424Y4794834D1*
X4645935Y4786422D1*
X4660927Y4775530D1*
X4674030Y4762427D1*
X4684922Y4747435D1*
X4693334Y4730924D1*
X4699060Y4713301D1*
X4701959Y4694999D1*
Y4676468D1*
X4699060Y4658166D1*
X4693334Y4640542D1*
X4684922Y4624031D1*
X4674030Y4609040D1*
X4660927Y4595937D1*
X4645935Y4585045D1*
X4629424Y4576632D1*
X4611801Y4570906D1*
X4593499Y4568007D1*
X4574968D1*
X4556666Y4570906D1*
X4539042Y4576632D1*
X4522531Y4585045D1*
X4504800Y4598469D1*
X4216411Y4598712D1*
X4202882Y4600855D1*
X4189855Y4605088D1*
X4177651Y4611306D1*
X4166570Y4619357D1*
X4035515Y4750032D1*
X4013439Y4753160D1*
X3995816Y4758886D1*
X3979305Y4767298D1*
X3964313Y4778190D1*
X3951210Y4791293D1*
X3940318Y4806285D1*
X3931906Y4822796D1*
X3926180Y4840419D1*
X3923281Y4858721D1*
Y4877252D1*
X3925678Y4893032D1*
X3871678Y4946958D1*
X4765077Y3037247D2*
X4746388Y3044781D1*
X4730588Y3054463D1*
X4716498Y3066498D1*
X4704463Y3080588D1*
X4694781Y3096388D1*
X4687690Y3113508D1*
X4683364Y3131527D1*
X4681910Y3150000D1*
X4683364Y3168473D1*
X4687690Y3186492D1*
X4694781Y3203612D1*
X4704463Y3219412D1*
X4712736Y3229433D1*
X4712710Y3363940D1*
X4289527Y3787026D1*
X4264827Y3777568D1*
X4267726Y3759265D1*
Y3740735D1*
X4264827Y3722432D1*
X4259101Y3704809D1*
X4250688Y3688298D1*
X4237264Y3670567D1*
X4237290Y3236171D1*
X4436142Y3037305D1*
X4764753Y3037290D1*
X2979433Y3312736D2*
X2961702Y3299312D1*
X2945191Y3290899D1*
X2927568Y3285173D1*
X2909265Y3282274D1*
X2890735D1*
X2872432Y3285173D1*
X2854809Y3290899D1*
X2838298Y3299312D1*
X2823307Y3310204D1*
X2810204Y3323307D1*
X2799312Y3338298D1*
X2790899Y3354809D1*
X2785173Y3372432D1*
X2782274Y3390735D1*
Y3409265D1*
X2785173Y3427568D1*
X2790899Y3445191D1*
X2799312Y3461702D1*
X2810204Y3476693D1*
X2823307Y3489796D1*
X2838298Y3500688D1*
X2854809Y3509101D1*
X2872432Y3514827D1*
X2890735Y3517726D1*
X2909265D1*
X2927568Y3514827D1*
X2945191Y3509101D1*
X2961702Y3500688D1*
X2979433Y3487264D1*
X3569603Y3487290D1*
X3578661Y3500029D1*
X3581560Y3518331D1*
X3587286Y3535954D1*
X3595698Y3552465D1*
X3606590Y3567457D1*
X3619693Y3580560D1*
X3634685Y3591452D1*
X3651196Y3599864D1*
X3668819Y3605590D1*
X3687121Y3608489D1*
X3705652D1*
X3723954Y3605590D1*
X3741578Y3599864D1*
X3758089Y3591452D1*
X3773080Y3580560D1*
X3786183Y3567457D1*
X3797075Y3552465D1*
X3805488Y3535954D1*
X3811214Y3518331D1*
X3814113Y3500029D1*
Y3481498D1*
X3811214Y3463196D1*
X3805488Y3445572D1*
X3797075Y3429061D1*
X3786183Y3414070D1*
X3773080Y3400967D1*
X3758089Y3390075D1*
X3741578Y3381662D1*
X3723954Y3375936D1*
X3701924Y3372891D1*
X3662314Y3333624D1*
X3651232Y3325573D1*
X3639028Y3319354D1*
X3626001Y3315122D1*
X3612472Y3312979D1*
X3351623Y3312710D1*
X2979429D1*
X3877028Y5345816D2*
X3873535Y5323763D1*
X3866635Y5302528D1*
X3856499Y5282634D1*
X3843375Y5264570D1*
X3827587Y5248782D1*
X3809523Y5235658D1*
X3789629Y5225521D1*
X3768394Y5218621D1*
X3746341Y5215129D1*
X3724013D1*
X3701960Y5218621D1*
X3680725Y5225521D1*
X3660830Y5235658D1*
X3642767Y5248782D1*
X3626979Y5264570D1*
X3613854Y5282634D1*
X3603718Y5302528D1*
X3596818Y5323763D1*
X3593325Y5345816D1*
Y5368144D1*
X3596818Y5390197D1*
X3603718Y5411432D1*
X3613854Y5431326D1*
X3626979Y5449390D1*
X3642767Y5465178D1*
X3660830Y5478302D1*
X3680725Y5488439D1*
X3701960Y5495339D1*
X3724013Y5498831D1*
X3746341D1*
X3768394Y5495339D1*
X3789629Y5488439D1*
X3809523Y5478302D1*
X3827587Y5465178D1*
X3843375Y5449390D1*
X3856499Y5431326D1*
X3866635Y5411432D1*
X3873535Y5390197D1*
X3877028Y5368144D1*
Y5345816D1*
X5568615Y2711264D2*
X5565716Y2692962D1*
X5559990Y2675338D1*
X5551577Y2658827D1*
X5538153Y2641096D1*
X5538179Y2445817D1*
X5556335Y2430980D1*
X5568370Y2416889D1*
X5578052Y2401089D1*
X5585143Y2383969D1*
X5589469Y2365951D1*
X5590923Y2347478D1*
X5589469Y2329004D1*
X5585143Y2310986D1*
X5578052Y2293866D1*
X5568370Y2278066D1*
X5556335Y2263975D1*
X5542244Y2251941D1*
X5526445Y2242259D1*
X5509325Y2235167D1*
X5491306Y2230842D1*
X5472833Y2229388D1*
X5454360Y2230842D1*
X5436341Y2235167D1*
X5419221Y2242259D1*
X5403421Y2251941D1*
X5389331Y2263975D1*
X5377296Y2278066D1*
X5367614Y2293866D1*
X5360523Y2310986D1*
X5356197Y2329004D1*
X5354743Y2347478D1*
X5356197Y2365951D1*
X5360523Y2383969D1*
X5363644Y2392431D1*
X5363599Y2640909D1*
X5350200Y2658827D1*
X5341788Y2675338D1*
X5336062Y2692962D1*
X5333163Y2711264D1*
Y2729794D1*
X5336062Y2748097D1*
X5341788Y2765720D1*
X5350200Y2782231D1*
X5361092Y2797222D1*
X5374195Y2810326D1*
X5389187Y2821217D1*
X5405698Y2829630D1*
X5423321Y2835356D1*
X5441623Y2838255D1*
X5460154D1*
X5478456Y2835356D1*
X5496080Y2829630D1*
X5512591Y2821217D1*
X5527582Y2810326D1*
X5540685Y2797222D1*
X5551577Y2782231D1*
X5559990Y2765720D1*
X5565716Y2748097D1*
X5568615Y2729794D1*
Y2711264D1*
X5815834Y3723000D2*
D15*
X5968000D1*
X1200000Y7000000D2*
X1352166D1*
D20*
X1232000Y2707000D3*
D21*
Y2961000D3*
Y3215000D3*
Y3469000D3*
Y3723000D3*
Y3977000D3*
Y4231000D3*
Y4485000D3*
Y4739000D3*
Y4993000D3*
D20*
X5968000D3*
D21*
Y4739000D3*
Y4485000D3*
Y4231000D3*
Y3977000D3*
Y3723000D3*
Y3469000D3*
Y3215000D3*
Y2961000D3*
Y2707000D3*
D20*
X4849016Y2014049D3*
D21*
X5103016D3*
D23*
X4311020Y1686823D3*
X4153660Y1873400D3*
X3884943Y2171317D3*
X3692530Y2410463D3*
X3735177Y5356980D3*
X5693090Y4452127D3*
D20*
X1200000Y7000000D3*
D21*
Y6746000D3*
Y6492000D3*
Y6238000D3*
Y5984000D3*
M02*
