G04 DipTrace 3.0.0.2*
G04 TopPaste.gbr*
%MOMM*%
G04 #@! TF.FileFunction,Paste,Top*
G04 #@! TF.Part,Single*
%ADD35R,1.4X2.5*%
%ADD37R,1.4X0.1*%
%ADD39R,0.5X0.7*%
%ADD43R,1.8X0.4*%
%ADD49R,0.2X1.6*%
%ADD51R,1.1X1.3*%
%ADD53R,1.3X1.1*%
%FSLAX35Y35*%
G04*
G71*
G90*
G75*
G01*
G04 TopPaste*
%LPD*%
D53*
X5091220Y4684040D3*
Y4494040D3*
D51*
X4344003Y4467027D3*
X4154003D3*
X3360643Y1900000D3*
X3170643D3*
D53*
X3471243Y2730217D3*
Y2540217D3*
D51*
X2022090Y1893163D3*
X2212090D3*
D53*
X2132717Y2425513D3*
Y2615513D3*
D51*
X4664307Y5554797D3*
X4474307D3*
D53*
X5000000Y3100000D3*
Y3290000D3*
X3800000Y3050000D3*
Y3240000D3*
D49*
X4050000Y2800000D3*
X4115000D3*
X4180000D3*
X4245000D3*
X4310000D3*
X4375000D3*
X4440000D3*
X4505000D3*
Y3380000D3*
X4440000D3*
X4375000D3*
X4310000D3*
X4245000D3*
X4180000D3*
X4115000D3*
X4050000D3*
D43*
X2250000Y4300000D3*
Y4173000D3*
Y4046000D3*
Y3919000D3*
Y3792000D3*
Y3665000D3*
Y3538000D3*
X2790000D3*
Y3665000D3*
Y3792000D3*
Y3919000D3*
Y4046000D3*
Y4173000D3*
Y4300000D3*
D51*
X5420263Y5202677D3*
X5230263D3*
X3550000Y4950000D3*
X3740000D3*
D53*
X3350000Y4300000D3*
Y4110000D3*
D39*
X4894300Y4504740D3*
Y4634740D3*
D53*
X2750000Y2950000D3*
Y3140000D3*
Y4860000D3*
Y5050000D3*
X5297010Y4557897D3*
Y4367897D3*
X3923623Y4116230D3*
Y4306230D3*
X3100000Y2950000D3*
Y3140000D3*
Y4850000D3*
Y5040000D3*
X2405000Y2955000D3*
Y3145000D3*
X2400000Y4860000D3*
Y5050000D3*
X2050000Y2950000D3*
Y3140000D3*
Y4850000D3*
Y5040000D3*
X5390239Y2000603D3*
Y2190603D3*
X5200000Y3300000D3*
Y3110000D3*
Y2950000D3*
Y2760000D3*
X2960643Y1750000D3*
Y1940000D3*
X3100000Y2350000D3*
Y2540000D3*
X2422090Y1699590D3*
Y1889590D3*
X1786113Y2383760D3*
Y2573760D3*
X5298293Y4932210D3*
Y4742210D3*
X3894547Y4513013D3*
Y4703013D3*
D37*
X4804980Y4844320D3*
Y4894320D3*
Y4944320D3*
Y4994320D3*
Y5044320D3*
Y5094320D3*
Y5144320D3*
Y5194320D3*
X4364980D3*
Y5144320D3*
Y5094320D3*
Y5044320D3*
Y4994320D3*
Y4944320D3*
Y4894320D3*
Y4844320D3*
D35*
X4584980Y5019320D3*
D53*
X4000000Y5200000D3*
Y5390000D3*
X5023297Y5389620D3*
Y5199620D3*
M02*
