G04 DipTrace 3.0.0.2*
G04 BottomMask.gbr*
%MOMM*%
G04 #@! TF.FileFunction,Soldermask,Bot*
G04 #@! TF.Part,Single*
%ADD19R,1.7X1.7*%
%ADD20C,1.7*%
%ADD29R,2.0X2.0*%
%ADD35R,1.9X1.9*%
%ADD36C,1.9*%
%ADD39C,2.3*%
%ADD40C,1.1*%
%ADD48C,2.1*%
%ADD49R,2.1X2.1*%
%ADD50C,1.7*%
%ADD60C,2.0*%
%ADD63C,1.55*%
%ADD67C,4.7*%
%FSLAX35Y35*%
G04*
G71*
G90*
G75*
G01*
G04 BotMask*
%LPD*%
D35*
X1300000Y1950000D3*
D36*
Y2204000D3*
Y2458000D3*
Y2712000D3*
Y2966000D3*
Y3220000D3*
Y3474000D3*
Y3728000D3*
Y3982000D3*
Y4236000D3*
D35*
X1282000Y4907000D3*
D36*
Y5161000D3*
Y5415000D3*
Y5669000D3*
Y5923000D3*
Y6177000D3*
Y6431000D3*
Y6685000D3*
Y6939000D3*
Y7193000D3*
D35*
X6050000Y8150000D3*
D36*
Y7896000D3*
Y7642000D3*
D35*
X3200000Y5700000D3*
D36*
X2946000D3*
D35*
X6050000Y9350000D3*
D36*
Y9096000D3*
Y8842000D3*
D35*
X6018000Y7193000D3*
D36*
Y6939000D3*
Y6685000D3*
Y6431000D3*
Y6177000D3*
Y5923000D3*
Y5669000D3*
Y5415000D3*
Y5161000D3*
Y4907000D3*
D35*
X4450000Y3150000D3*
D36*
Y3404000D3*
D35*
X5509700Y3085343D3*
D36*
Y2831343D3*
D67*
X5450000Y10450000D3*
X5095000Y9950000D3*
X4790000Y10450000D3*
D39*
X5845000D3*
D63*
X3350000Y9050000D3*
Y8800000D3*
X3000000Y10350000D3*
Y10100000D3*
D29*
X2650000Y8600000D3*
D60*
Y9108000D3*
Y8854000D3*
D29*
X4909593Y9107980D3*
D60*
Y8599980D3*
Y8853980D3*
D63*
X4925000Y7675000D3*
X5175000D3*
D19*
X1450000Y8850000D3*
D20*
X1950000D3*
D19*
X2900000Y6600000D3*
D20*
X2400000D3*
D50*
X1900000Y10000000D3*
X1646000D3*
X1392000D3*
D40*
X1900000Y10508000D3*
X1392000D3*
D49*
X4050000Y8600000D3*
D48*
Y8854000D3*
Y9108000D3*
M02*
