G04 DipTrace 3.0.0.2*
G04 Bottom.gbr*
%MOMM*%
G04 #@! TF.FileFunction,Copper,L2,Bot*
G04 #@! TF.Part,Single*
G04 #@! TA.AperFunction,Conductor*
%ADD13C,0.4*%
G04 #@! TA.AperFunction,CopperBalancing*
%ADD14C,0.33*%
%ADD16C,0.635*%
G04 #@! TA.AperFunction,ComponentPad*
%ADD19R,1.7X1.7*%
%ADD20C,1.7*%
%ADD28C,1.5*%
G04 #@! TA.AperFunction,ViaPad*
%ADD29C,1.016*%
%FSLAX35Y35*%
G04*
G71*
G90*
G75*
G01*
G04 Bottom*
%LPD*%
X3950000Y3600000D2*
D13*
Y2968570D1*
Y2550000D1*
X4200000Y2300000D1*
X4650000Y3350000D2*
X4400000Y3600000D1*
X4200000Y2300000D2*
X4550000D1*
X4900000Y2650000D1*
X1850000Y5600000D2*
X2100000D1*
X2200000Y5500000D1*
X2500000D1*
X2550000Y5450000D1*
X2850000D1*
X2900000Y5400000D1*
X1800000Y4800000D2*
X1850000D1*
X2050000Y4600000D1*
X2550000D1*
X2900000D1*
X3000000Y4500000D1*
X2560333Y2276833D2*
X2512057Y2228557D1*
X2169720D1*
X2560333Y2276833D2*
X2656890Y2180277D1*
X2915833D1*
X3295603Y2560047D1*
Y2998447D1*
X3325480Y2968570D1*
X3950000D1*
X3334923Y3657233D2*
X3313553Y3635863D1*
X1828083D1*
X3334923Y3657233D2*
X3365627Y3687937D1*
X3892230D1*
X3950000Y3630167D1*
Y3600000D1*
X2550000Y5450000D2*
Y4600000D1*
X4921920Y3596040D2*
X4924947Y3599067D1*
X5218937D1*
X5342870Y3723000D1*
X5968000D1*
X1900000Y4100000D2*
X2850000D1*
X3200000Y4450000D1*
X3450000Y4700000D1*
X3200000Y4450000D2*
D3*
X1750000Y3900000D2*
X3166463D1*
Y3874297D1*
X4325703D1*
X4800000Y3400000D1*
Y3150000D1*
X2900000Y3400000D2*
X3605623D1*
X3696387Y3490763D1*
X3702813Y4350000D2*
X3750000D1*
Y4600000D1*
X3100000Y5250000D1*
X3150000D1*
Y5451580D1*
X2109580Y6492000D1*
X1200000D1*
X4150000Y3750000D2*
Y3200000D1*
X4400000Y2950000D1*
X5725000D1*
X5968000Y2707000D1*
X4732130Y3730723D2*
X5039383D1*
X5539660Y4231000D1*
X5968000D1*
X4050000Y4850000D2*
Y5000000D1*
X4000000Y5050000D1*
X4500000Y4600000D2*
X4300000D1*
X4050000Y4850000D1*
X5400000Y3500000D2*
X5450000D1*
X5700000Y3250000D1*
X5933000D1*
X5968000Y3215000D1*
X5596210Y4700000D2*
X5450000D1*
X5264757Y4514757D1*
X4772890Y4022890D1*
X3350000D1*
X3034337D1*
X3350000Y4000000D2*
Y4022890D1*
X5393027Y4405963D2*
X5284233Y4514757D1*
X5264757D1*
X2100000Y3350000D2*
Y3250000D1*
X1900000D1*
X1650000Y3500000D1*
Y4900000D1*
X1950000Y5200000D1*
D29*
X4200000Y2300000D3*
X3100000Y5250000D3*
X4000000Y5050000D3*
X4050000Y4850000D3*
X4500000Y4600000D3*
X1750000Y3900000D3*
X3166463Y3874297D3*
X4800000Y3150000D3*
X2900000Y3400000D3*
X1950000Y5200000D3*
X2100000Y3350000D3*
X3702813Y4350000D3*
X3696387Y3490763D3*
X4732130Y3730723D3*
X3034337Y4022890D3*
X5596210Y4700000D3*
X1900000Y4100000D3*
X3450000Y4700000D3*
X4150000Y3750000D3*
X5400000Y3500000D3*
X3950000Y3600000D3*
X4400000D3*
X4650000Y3350000D3*
X4900000Y2650000D3*
X3200000Y4450000D3*
X2200000Y5500000D3*
X1850000Y5600000D3*
X2550000Y5450000D3*
X2900000Y5400000D3*
X3000000Y4500000D3*
X2050000Y4600000D3*
X1800000Y4800000D3*
X3350000Y4000000D3*
X2169720Y2228557D3*
X2560333Y2276833D3*
X2915833Y2180277D3*
X3334923Y3657233D3*
X1828083Y3635863D3*
X4921920Y3596040D3*
X1104100Y7439083D2*
D16*
X6095933D1*
X1104100Y7375917D2*
X6095933D1*
X1104100Y7312750D2*
X6095933D1*
X1104100Y7249583D2*
X6095933D1*
X1104100Y7186417D2*
X6095933D1*
X1358657Y7123250D2*
X6095933D1*
X1358657Y7060083D2*
X6095933D1*
X1358657Y6996917D2*
X6095933D1*
X1358657Y6933750D2*
X6095933D1*
X1358657Y6870583D2*
X6095933D1*
X1345760Y6807417D2*
X6095933D1*
X1358657Y6744250D2*
X6095933D1*
X1344147Y6681083D2*
X6095933D1*
X1292057Y6617917D2*
X6095933D1*
X2176593Y6554750D2*
X6095933D1*
X2239720Y6491583D2*
X6095933D1*
X2302973Y6428417D2*
X6095933D1*
X1290817Y6365250D2*
X2106593D1*
X2366100D2*
X6095933D1*
X1344520Y6302083D2*
X2169723D1*
X2429230D2*
X6095933D1*
X1358657Y6238917D2*
X2232973D1*
X2492357D2*
X6095933D1*
X1345387Y6175750D2*
X2296100D1*
X2555607D2*
X6095933D1*
X1292677Y6112583D2*
X2359230D1*
X2618737D2*
X6095933D1*
X1343900Y6049417D2*
X2422357D1*
X2681863D2*
X6095933D1*
X1358657Y5986250D2*
X2485610D1*
X2745117D2*
X6095933D1*
X1345883Y5923083D2*
X2548737D1*
X2808243D2*
X6095933D1*
X1294663Y5859917D2*
X2611867D1*
X2871373D2*
X6095933D1*
X1104100Y5796750D2*
X2675117D1*
X2934623D2*
X6095933D1*
X1104100Y5733583D2*
X2738247D1*
X2997753D2*
X6095933D1*
X1104100Y5670417D2*
X2801373D1*
X3060880D2*
X6095933D1*
X1104100Y5607250D2*
X2864627D1*
X3124133D2*
X6095933D1*
X1104100Y5544083D2*
X2927753D1*
X3187260D2*
X6095933D1*
X1104100Y5480917D2*
X2990880D1*
X3238480D2*
X3658870D1*
X3811470D2*
X6095933D1*
X1104100Y5417750D2*
X3054133D1*
X3243567D2*
X3600207D1*
X3870133D2*
X6095933D1*
X1104100Y5354583D2*
X3038753D1*
X3243567D2*
X3586567D1*
X3883777D2*
X6095933D1*
X1104100Y5291417D2*
X1868840D1*
X2031113D2*
X2983067D1*
X3243567D2*
X3602563D1*
X3867777D2*
X6095933D1*
X1104100Y5228250D2*
X1829030D1*
X2071050D2*
X2977610D1*
X3251503D2*
X3668173D1*
X3802167D2*
X6095933D1*
X1104100Y5165083D2*
X1785373D1*
X2069187D2*
X3011593D1*
X3314633D2*
X3967193D1*
X4032850D2*
X6095933D1*
X1344767Y5101917D2*
X1722120D1*
X2022060D2*
X3118377D1*
X3377883D2*
X3887570D1*
X4112473D2*
X5809313D1*
X1383587Y5038750D2*
X1658993D1*
X1918500D2*
X3181503D1*
X3441010D2*
X3876037D1*
X4134550D2*
X5809313D1*
X1389663Y4975583D2*
X1595867D1*
X1855373D2*
X3244633D1*
X3504140D2*
X3901957D1*
X4143603D2*
X5809313D1*
X1367587Y4912417D2*
X1557293D1*
X1792120D2*
X3307883D1*
X3567390D2*
X3943380D1*
X4156627D2*
X5809313D1*
X1343403Y4849250D2*
X1556427D1*
X1743627D2*
X3371013D1*
X3630520D2*
X3925520D1*
X4180440D2*
X5809313D1*
X1383213Y4786083D2*
X1556427D1*
X1743627D2*
X3362827D1*
X3693647D2*
X3944373D1*
X4243690D2*
X5429430D1*
X5683357D2*
X5816880D1*
X1389787Y4722917D2*
X1556427D1*
X1743627D2*
X3327853D1*
X3756777D2*
X4047313D1*
X4306820D2*
X5343110D1*
X5718453D2*
X5810183D1*
X1368457Y4659750D2*
X1556427D1*
X1743627D2*
X3279980D1*
X3819903D2*
X4110440D1*
X4608197D2*
X5279980D1*
X5713617D2*
X5831637D1*
X1342040Y4596583D2*
X1556427D1*
X1743627D2*
X3216850D1*
X3513317D2*
X3623650D1*
X3843590D2*
X4173693D1*
X4624443D2*
X5216853D1*
X5476360D2*
X5532867D1*
X5659543D2*
X5858053D1*
X1382720Y4533417D2*
X1556427D1*
X1743627D2*
X3110067D1*
X3413107D2*
X3656390D1*
X3843590D2*
X4237317D1*
X4603857D2*
X5153727D1*
X5462593D2*
X5817250D1*
X1389913Y4470250D2*
X1556427D1*
X1743627D2*
X3077327D1*
X3349980D2*
X3656390D1*
X3843590D2*
X5090473D1*
X5526340D2*
X5810057D1*
X1369200Y4407083D2*
X1556427D1*
X1743627D2*
X3027343D1*
X3316367D2*
X3593140D1*
X3843590D2*
X5027347D1*
X5541720D2*
X5830770D1*
X1340550Y4343917D2*
X1556427D1*
X1743627D2*
X2964217D1*
X3258200D2*
X3578503D1*
X3843343D2*
X4964217D1*
X5223723D2*
X5258650D1*
X5527457D2*
X5859420D1*
X1382223Y4280750D2*
X1556427D1*
X1743627D2*
X2900963D1*
X3160470D2*
X3600827D1*
X3809487D2*
X4900967D1*
X5160473D2*
X5319050D1*
X1390037Y4217583D2*
X1556427D1*
X1743627D2*
X1882730D1*
X1917253D2*
X2837837D1*
X3097343D2*
X4837837D1*
X5097343D2*
X5396440D1*
X1369943Y4154417D2*
X1556427D1*
X1743627D2*
X1788863D1*
X3034213D2*
X4774710D1*
X5034217D2*
X5333310D1*
X1339063Y4091250D2*
X1556427D1*
X1743627D2*
X1775963D1*
X4970963D2*
X5270183D1*
X5529690D2*
X5860907D1*
X1381850Y4028083D2*
X1556427D1*
X1743627D2*
X1800007D1*
X4907837D2*
X5206933D1*
X5466437D2*
X5818243D1*
X1390160Y3964917D2*
X1556427D1*
X4844710D2*
X5143803D1*
X5403310D2*
X5809810D1*
X1370687Y3901750D2*
X1556427D1*
X4427990D2*
X5080677D1*
X5340183D2*
X5829280D1*
X1337450Y3838583D2*
X1556427D1*
X4491117D2*
X4677723D1*
X4786543D2*
X5017547D1*
X5276930D2*
X5862520D1*
X1381353Y3775417D2*
X1556427D1*
X1743627D2*
X3095557D1*
X3237367D2*
X4028337D1*
X4554370D2*
X4616457D1*
X5213803D2*
X5818617D1*
X1390283Y3712250D2*
X1556427D1*
X1743627D2*
X4031810D1*
X4268247D2*
X4357990D1*
X5150673D2*
X5809687D1*
X1371557Y3649083D2*
X1556427D1*
X1743627D2*
X4056367D1*
X4243567D2*
X4421120D1*
X5076510D2*
X5828537D1*
X1335963Y3585917D2*
X1556427D1*
X1743627D2*
X3620053D1*
X3772650D2*
X4056367D1*
X4243567D2*
X4484370D1*
X4743877D2*
X5312600D1*
X5487397D2*
X5864007D1*
X1380857Y3522750D2*
X1556427D1*
X1757020D2*
X3576397D1*
X3816430D2*
X4056367D1*
X4243567D2*
X4547500D1*
X4807007D2*
X5277750D1*
X5556977D2*
X5819110D1*
X1390407Y3459583D2*
X1566347D1*
X1820150D2*
X2049667D1*
X2150300D2*
X2791700D1*
X3816680D2*
X4056367D1*
X4243567D2*
X4610627D1*
X4870133D2*
X5282710D1*
X5620227D2*
X5809687D1*
X1372177Y3396417D2*
X1623893D1*
X1883277D2*
X1985050D1*
X2214917D2*
X2775577D1*
X3773767D2*
X4056367D1*
X4243567D2*
X4673880D1*
X4893573D2*
X5336907D1*
X5683357D2*
X5827793D1*
X1334350Y3333250D2*
X1687023D1*
X2223227D2*
X2796287D1*
X3668223D2*
X4056367D1*
X4243567D2*
X4706373D1*
X4893573D2*
X5486977D1*
X1380363Y3270083D2*
X1750150D1*
X2193583D2*
X4056367D1*
X4243567D2*
X4706373D1*
X4893573D2*
X5550230D1*
X1390407Y3206917D2*
X1813280D1*
X2182173D2*
X4056367D1*
X4272837D2*
X4690127D1*
X4909820D2*
X5613357D1*
X1372920Y3143750D2*
X4076953D1*
X4335963D2*
X4675740D1*
X4924333D2*
X5827050D1*
X1332613Y3080583D2*
X4139710D1*
X4399217D2*
X4698063D1*
X4901883D2*
X5867357D1*
X1379867Y3017417D2*
X4202837D1*
X5786790D2*
X5820180D1*
X1390533Y2954250D2*
X4265967D1*
X1373663Y2891083D2*
X4329217D1*
X1390657Y2827917D2*
X5717287D1*
X1390657Y2764750D2*
X5780540D1*
X1390657Y2701583D2*
X5809437D1*
X1390657Y2638417D2*
X5825683D1*
X1390657Y2575250D2*
X5885217D1*
X6050713D2*
X6095933D1*
X1104100Y2512083D2*
X3586567D1*
X3798447D2*
X6095933D1*
X1104100Y2448917D2*
X3549233D1*
X3835903D2*
X6095933D1*
X1104100Y2385750D2*
X3546010D1*
X3839003D2*
X6095933D1*
X1104100Y2322583D2*
X3574287D1*
X3810850D2*
X6095933D1*
X1104100Y2259417D2*
X3766897D1*
X4003087D2*
X6095933D1*
X1104100Y2196250D2*
X3738493D1*
X4031363D2*
X6095933D1*
X1104100Y2133083D2*
X3741593D1*
X4028387D2*
X6095933D1*
X1104100Y2069917D2*
X3778803D1*
X3991057D2*
X6095933D1*
X1104100Y2006750D2*
X4097667D1*
X4209710D2*
X6095933D1*
X1104100Y1943583D2*
X4023500D1*
X4283750D2*
X6095933D1*
X1104100Y1880417D2*
X4005143D1*
X4302107D2*
X6095933D1*
X1104100Y1817250D2*
X4016553D1*
X4374287D2*
X6095933D1*
X1104100Y1754083D2*
X4069760D1*
X4442750D2*
X6095933D1*
X1104100Y1690917D2*
X4162407D1*
X4459617D2*
X6095933D1*
X1104100Y1627750D2*
X4175180D1*
X4446840D2*
X6095933D1*
X1104100Y1564583D2*
X4231860D1*
X4390163D2*
X6095933D1*
X1104100Y1501417D2*
X6095933D1*
X1104100Y1438250D2*
X6095933D1*
X1104100Y1375083D2*
X6095933D1*
X1104100Y1311917D2*
X6095933D1*
X1104100Y1248750D2*
X6095933D1*
X1104100Y1185583D2*
X6095933D1*
X1104100Y1122417D2*
X6095933D1*
X1345243Y2859290D2*
X1384290D1*
Y2554710D1*
X1097730D1*
X1097750Y1097750D1*
X6102250D1*
Y2635020D1*
X6091207Y2617487D1*
X6075687Y2599313D1*
X6057513Y2583793D1*
X6037137Y2571310D1*
X6015060Y2562163D1*
X5991823Y2556583D1*
X5968000Y2554710D1*
X5944177Y2556583D1*
X5920940Y2562163D1*
X5898863Y2571310D1*
X5878487Y2583793D1*
X5860313Y2599313D1*
X5844793Y2617487D1*
X5832310Y2637863D1*
X5823163Y2659940D1*
X5817583Y2683177D1*
X5815710Y2707000D1*
X5818123Y2733527D1*
X5688873Y2862680D1*
X4393150Y2862980D1*
X4379623Y2865123D1*
X4366597Y2869353D1*
X4354390Y2875573D1*
X4343310Y2883623D1*
X4158670Y3067883D1*
X4083623Y3143310D1*
X4075573Y3154390D1*
X4069353Y3166597D1*
X4065123Y3179623D1*
X4062980Y3193150D1*
X4062710Y3454000D1*
Y3670420D1*
X4049313Y3688297D1*
X4040900Y3704810D1*
X4035173Y3722433D1*
X4032273Y3740733D1*
Y3759267D1*
X4035173Y3777567D1*
X4037903Y3787070D1*
X3246080Y3787007D1*
X3228167Y3773610D1*
X3211653Y3765197D1*
X3194030Y3759470D1*
X3175730Y3756570D1*
X3157197D1*
X3138897Y3759470D1*
X3121273Y3765197D1*
X3104760Y3773610D1*
X3089770Y3784500D1*
X3076667Y3797603D1*
X3065687Y3812753D1*
X1829613Y3812710D1*
X1811703Y3799313D1*
X1795190Y3790900D1*
X1777567Y3785173D1*
X1759267Y3782273D1*
X1737247Y3782687D1*
X1737290Y3536113D1*
X1936143Y3337303D1*
X1982477Y3337290D1*
X1982273Y3359267D1*
X1985173Y3377567D1*
X1990900Y3395190D1*
X1999313Y3411703D1*
X2010203Y3426693D1*
X2023307Y3439797D1*
X2038297Y3450687D1*
X2054810Y3459100D1*
X2072433Y3464827D1*
X2090733Y3467727D1*
X2109267D1*
X2127567Y3464827D1*
X2145190Y3459100D1*
X2161703Y3450687D1*
X2176693Y3439797D1*
X2189797Y3426693D1*
X2200687Y3411703D1*
X2209100Y3395190D1*
X2214827Y3377567D1*
X2217727Y3359267D1*
Y3340733D1*
X2214827Y3322433D1*
X2209100Y3304810D1*
X2200687Y3288297D1*
X2187263Y3270567D1*
X2187020Y3243150D1*
X2184877Y3229623D1*
X2180647Y3216597D1*
X2174427Y3204390D1*
X2166377Y3193310D1*
X2156690Y3183623D1*
X2145610Y3175573D1*
X2133403Y3169353D1*
X2120377Y3165123D1*
X2106850Y3162980D1*
X1900000Y3162710D1*
X1886343Y3163783D1*
X1873027Y3166983D1*
X1860370Y3172223D1*
X1848693Y3179380D1*
X1838277Y3188277D1*
X1583623Y3443310D1*
X1575573Y3454390D1*
X1569353Y3466597D1*
X1565123Y3479623D1*
X1562980Y3493150D1*
X1562710Y3754000D1*
X1562980Y4906850D1*
X1565123Y4920377D1*
X1569353Y4933403D1*
X1575573Y4945610D1*
X1583623Y4956690D1*
X1767883Y5141330D1*
X1831990Y5205437D1*
X1835173Y5227567D1*
X1840900Y5245190D1*
X1849313Y5261703D1*
X1860203Y5276693D1*
X1873307Y5289797D1*
X1888297Y5300687D1*
X1904810Y5309100D1*
X1922433Y5314827D1*
X1940733Y5317727D1*
X1959267D1*
X1977567Y5314827D1*
X1995190Y5309100D1*
X2011703Y5300687D1*
X2026693Y5289797D1*
X2039797Y5276693D1*
X2050687Y5261703D1*
X2059100Y5245190D1*
X2064827Y5227567D1*
X2067727Y5209267D1*
Y5190733D1*
X2064827Y5172433D1*
X2059100Y5154810D1*
X2050687Y5138297D1*
X2039797Y5123307D1*
X2026693Y5110203D1*
X2011703Y5099313D1*
X1995190Y5090900D1*
X1977567Y5085173D1*
X1955537Y5082127D1*
X1737317Y4863870D1*
X1737290Y4017327D1*
X1759267Y4017727D1*
X1777567Y4014827D1*
X1795190Y4009100D1*
X1811703Y4000687D1*
X1829433Y3987263D1*
X1838297Y3999313D1*
X1823307Y4010203D1*
X1810203Y4023307D1*
X1799313Y4038297D1*
X1790900Y4054810D1*
X1785173Y4072433D1*
X1782273Y4090733D1*
Y4109267D1*
X1785173Y4127567D1*
X1790900Y4145190D1*
X1799313Y4161703D1*
X1810203Y4176693D1*
X1823307Y4189797D1*
X1838297Y4200687D1*
X1854810Y4209100D1*
X1872433Y4214827D1*
X1890733Y4217727D1*
X1909267D1*
X1927567Y4214827D1*
X1945190Y4209100D1*
X1961703Y4200687D1*
X1979433Y4187263D1*
X2813930Y4187290D1*
X3081977Y4455423D1*
X3085173Y4477567D1*
X3090900Y4495190D1*
X3099313Y4511703D1*
X3110203Y4526693D1*
X3123307Y4539797D1*
X3138297Y4550687D1*
X3154810Y4559100D1*
X3172433Y4564827D1*
X3194463Y4567873D1*
X3332000Y4705447D1*
X3335173Y4727567D1*
X3340900Y4745190D1*
X3349313Y4761703D1*
X3360203Y4776693D1*
X3373307Y4789797D1*
X3388297Y4800687D1*
X3404810Y4809100D1*
X3414100Y4812477D1*
X3094473Y5132077D1*
X3072433Y5135173D1*
X3054810Y5140900D1*
X3038297Y5149313D1*
X3023307Y5160203D1*
X3010203Y5173307D1*
X2999313Y5188297D1*
X2990900Y5204810D1*
X2985173Y5222433D1*
X2982273Y5240733D1*
Y5259267D1*
X2985173Y5277567D1*
X2990900Y5295190D1*
X2999313Y5311703D1*
X3010203Y5326693D1*
X3023307Y5339797D1*
X3038297Y5350687D1*
X3054810Y5359100D1*
X3062727Y5362023D1*
X3062710Y5415570D1*
X2073350Y6404783D1*
X1324883Y6404710D1*
X1307687Y6384313D1*
X1289513Y6368793D1*
X1283960Y6365083D1*
X1298903Y6353803D1*
X1315803Y6336903D1*
X1329850Y6317570D1*
X1340697Y6296280D1*
X1348083Y6273550D1*
X1351820Y6249950D1*
Y6226050D1*
X1348083Y6202450D1*
X1340697Y6179720D1*
X1329850Y6158430D1*
X1315803Y6139097D1*
X1298903Y6122197D1*
X1283960Y6111083D1*
X1298903Y6099803D1*
X1315803Y6082903D1*
X1329850Y6063570D1*
X1340697Y6042280D1*
X1348083Y6019550D1*
X1351820Y5995950D1*
Y5972050D1*
X1348083Y5948450D1*
X1340697Y5925720D1*
X1329850Y5904430D1*
X1315803Y5885097D1*
X1298903Y5868197D1*
X1279570Y5854150D1*
X1258280Y5843303D1*
X1235550Y5835917D1*
X1211950Y5832180D1*
X1188050D1*
X1164450Y5835917D1*
X1141720Y5843303D1*
X1120430Y5854150D1*
X1101097Y5868197D1*
X1097700Y5871337D1*
X1097750Y5064817D1*
X1108793Y5082513D1*
X1124313Y5100687D1*
X1142487Y5116207D1*
X1162863Y5128690D1*
X1184940Y5137837D1*
X1208177Y5143417D1*
X1232000Y5145290D1*
X1255823Y5143417D1*
X1279060Y5137837D1*
X1301137Y5128690D1*
X1321513Y5116207D1*
X1339687Y5100687D1*
X1355207Y5082513D1*
X1367690Y5062137D1*
X1376837Y5040060D1*
X1382417Y5016823D1*
X1384290Y4993000D1*
X1382417Y4969177D1*
X1376837Y4945940D1*
X1367690Y4923863D1*
X1355207Y4903487D1*
X1339687Y4885313D1*
X1321513Y4869793D1*
X1315960Y4866083D1*
X1330903Y4854803D1*
X1347803Y4837903D1*
X1361850Y4818570D1*
X1372697Y4797280D1*
X1380083Y4774550D1*
X1383820Y4750950D1*
Y4727050D1*
X1380083Y4703450D1*
X1372697Y4680720D1*
X1361850Y4659430D1*
X1347803Y4640097D1*
X1330903Y4623197D1*
X1315960Y4612083D1*
X1330903Y4600803D1*
X1347803Y4583903D1*
X1361850Y4564570D1*
X1372697Y4543280D1*
X1380083Y4520550D1*
X1383820Y4496950D1*
Y4473050D1*
X1380083Y4449450D1*
X1372697Y4426720D1*
X1361850Y4405430D1*
X1347803Y4386097D1*
X1330903Y4369197D1*
X1315960Y4358083D1*
X1330903Y4346803D1*
X1347803Y4329903D1*
X1361850Y4310570D1*
X1372697Y4289280D1*
X1380083Y4266550D1*
X1383820Y4242950D1*
Y4219050D1*
X1380083Y4195450D1*
X1372697Y4172720D1*
X1361850Y4151430D1*
X1347803Y4132097D1*
X1330903Y4115197D1*
X1315960Y4104083D1*
X1330903Y4092803D1*
X1347803Y4075903D1*
X1361850Y4056570D1*
X1372697Y4035280D1*
X1380083Y4012550D1*
X1383820Y3988950D1*
Y3965050D1*
X1380083Y3941450D1*
X1372697Y3918720D1*
X1361850Y3897430D1*
X1347803Y3878097D1*
X1330903Y3861197D1*
X1315960Y3850083D1*
X1330903Y3838803D1*
X1347803Y3821903D1*
X1361850Y3802570D1*
X1372697Y3781280D1*
X1380083Y3758550D1*
X1383820Y3734950D1*
Y3711050D1*
X1380083Y3687450D1*
X1372697Y3664720D1*
X1361850Y3643430D1*
X1347803Y3624097D1*
X1330903Y3607197D1*
X1315960Y3596083D1*
X1330903Y3584803D1*
X1347803Y3567903D1*
X1361850Y3548570D1*
X1372697Y3527280D1*
X1380083Y3504550D1*
X1383820Y3480950D1*
Y3457050D1*
X1380083Y3433450D1*
X1372697Y3410720D1*
X1361850Y3389430D1*
X1347803Y3370097D1*
X1330903Y3353197D1*
X1315960Y3342083D1*
X1330903Y3330803D1*
X1347803Y3313903D1*
X1361850Y3294570D1*
X1372697Y3273280D1*
X1380083Y3250550D1*
X1383820Y3226950D1*
Y3203050D1*
X1380083Y3179450D1*
X1372697Y3156720D1*
X1361850Y3135430D1*
X1347803Y3116097D1*
X1330903Y3099197D1*
X1315960Y3088083D1*
X1330903Y3076803D1*
X1347803Y3059903D1*
X1361850Y3040570D1*
X1372697Y3019280D1*
X1380083Y2996550D1*
X1383820Y2972950D1*
Y2949050D1*
X1380083Y2925450D1*
X1372697Y2902720D1*
X1361850Y2881430D1*
X1347803Y2862097D1*
X1345233Y2859317D1*
X5847460Y5145290D2*
X6102270D1*
X6102250Y7502250D1*
X1097750D1*
X1098510Y7152290D1*
X1352290D1*
Y6847710D1*
X1313323D1*
X1329850Y6825570D1*
X1340697Y6804280D1*
X1348083Y6781550D1*
X1351820Y6757950D1*
Y6734050D1*
X1348083Y6710450D1*
X1340697Y6687720D1*
X1329850Y6666430D1*
X1315803Y6647097D1*
X1298903Y6630197D1*
X1283960Y6619083D1*
X1298903Y6607803D1*
X1315803Y6590903D1*
X1324737Y6579223D1*
X2116430Y6579020D1*
X2129957Y6576880D1*
X2142983Y6572647D1*
X2155190Y6566427D1*
X2166270Y6558377D1*
X2350910Y6374120D1*
X3216377Y5508270D1*
X3224427Y5497190D1*
X3230647Y5484983D1*
X3234880Y5471957D1*
X3237020Y5458430D1*
X3237290Y5250000D1*
X3236903Y5242167D1*
X3251527Y5221920D1*
X3816377Y4656690D1*
X3824427Y4645610D1*
X3830647Y4633403D1*
X3834880Y4620377D1*
X3837020Y4606850D1*
X3837290Y4350000D1*
X3836217Y4336343D1*
X3833017Y4323027D1*
X3827777Y4310370D1*
X3820620Y4298693D1*
X3811723Y4288277D1*
X3801307Y4279380D1*
X3792610Y4273307D1*
X3779507Y4260203D1*
X3764517Y4249313D1*
X3748003Y4240900D1*
X3730380Y4235173D1*
X3712080Y4232273D1*
X3693547D1*
X3675247Y4235173D1*
X3657623Y4240900D1*
X3641110Y4249313D1*
X3626120Y4260203D1*
X3613017Y4273307D1*
X3602127Y4288297D1*
X3593713Y4304810D1*
X3587987Y4322433D1*
X3585087Y4340733D1*
Y4359267D1*
X3587987Y4377567D1*
X3593713Y4395190D1*
X3602127Y4411703D1*
X3613017Y4426693D1*
X3626120Y4439797D1*
X3641110Y4450687D1*
X3657623Y4459100D1*
X3662753Y4460993D1*
X3662710Y4563940D1*
X3562310Y4663507D1*
X3555220Y4646387D1*
X3545537Y4630590D1*
X3533503Y4616497D1*
X3519410Y4604463D1*
X3503613Y4594780D1*
X3486493Y4587690D1*
X3468473Y4583363D1*
X3455537Y4582127D1*
X3318000Y4444553D1*
X3314827Y4422433D1*
X3309100Y4404810D1*
X3300687Y4388297D1*
X3289797Y4373307D1*
X3276693Y4360203D1*
X3261703Y4349313D1*
X3245190Y4340900D1*
X3227567Y4335173D1*
X3205537Y4332127D1*
X3012400Y4138953D1*
X3034337Y4140980D1*
X3052810Y4139527D1*
X3070830Y4135200D1*
X3087950Y4128110D1*
X3103747Y4118427D1*
X3113770Y4110153D1*
X3307560Y4110180D1*
X3322433Y4114827D1*
X3340733Y4117727D1*
X3359267D1*
X3377567Y4114827D1*
X3392370Y4110140D1*
X4736707Y4110180D1*
X5393310Y4766377D1*
X5404390Y4774427D1*
X5416597Y4780647D1*
X5429623Y4784880D1*
X5443150Y4787020D1*
X5516600Y4787290D1*
X5534507Y4800687D1*
X5551020Y4809100D1*
X5568643Y4814827D1*
X5586943Y4817727D1*
X5605477D1*
X5623777Y4814827D1*
X5641400Y4809100D1*
X5657913Y4800687D1*
X5672903Y4789797D1*
X5686007Y4776693D1*
X5696897Y4761703D1*
X5705310Y4745190D1*
X5711037Y4727567D1*
X5713937Y4709267D1*
Y4690733D1*
X5711037Y4672433D1*
X5705310Y4654810D1*
X5696897Y4638297D1*
X5686007Y4623307D1*
X5672903Y4610203D1*
X5657913Y4599313D1*
X5641400Y4590900D1*
X5623777Y4585173D1*
X5605477Y4582273D1*
X5586943D1*
X5568643Y4585173D1*
X5551020Y4590900D1*
X5534507Y4599313D1*
X5516777Y4612737D1*
X5486200Y4612710D1*
X5419203Y4545757D1*
X5436997Y4541290D1*
X5457623Y4532743D1*
X5476663Y4521080D1*
X5493640Y4506577D1*
X5508143Y4489600D1*
X5519807Y4470560D1*
X5528353Y4449933D1*
X5533563Y4428223D1*
X5535317Y4405963D1*
X5533563Y4383703D1*
X5528353Y4361993D1*
X5519807Y4341367D1*
X5508143Y4322327D1*
X5492903Y4304667D1*
X5506257Y4311647D1*
X5519283Y4315877D1*
X5532810Y4318020D1*
X5843147Y4318290D1*
X5860313Y4338687D1*
X5878487Y4354207D1*
X5884040Y4357917D1*
X5869097Y4369197D1*
X5852197Y4386097D1*
X5838150Y4405430D1*
X5827303Y4426720D1*
X5819917Y4449450D1*
X5816180Y4473050D1*
Y4496950D1*
X5819917Y4520550D1*
X5827303Y4543280D1*
X5838150Y4564570D1*
X5852197Y4583903D1*
X5869097Y4600803D1*
X5884040Y4611917D1*
X5869097Y4623197D1*
X5852197Y4640097D1*
X5838150Y4659430D1*
X5827303Y4680720D1*
X5819917Y4703450D1*
X5816180Y4727050D1*
Y4750950D1*
X5819917Y4774550D1*
X5827303Y4797280D1*
X5838150Y4818570D1*
X5852197Y4837903D1*
X5854767Y4840683D1*
X5815710Y4840710D1*
Y5145290D1*
X5847460D1*
X5884040Y4104083D2*
X5869097Y4115197D1*
X5852197Y4132097D1*
X5843263Y4143777D1*
X5575713Y4143710D1*
X5096070Y3664347D1*
X5084990Y3656297D1*
X5072783Y3650077D1*
X5059757Y3645843D1*
X5046230Y3643703D1*
X4811550Y3643433D1*
X4793833Y3630037D1*
X4777320Y3621623D1*
X4759697Y3615897D1*
X4741397Y3612997D1*
X4722863D1*
X4708220Y3615170D1*
X4866377Y3456690D1*
X4874427Y3445610D1*
X4880647Y3433403D1*
X4884880Y3420377D1*
X4887020Y3406850D1*
X4887290Y3229467D1*
X4900687Y3211703D1*
X4909100Y3195190D1*
X4914827Y3177567D1*
X4917727Y3159267D1*
Y3140733D1*
X4914827Y3122433D1*
X4909100Y3104810D1*
X4900687Y3088297D1*
X4889797Y3073307D1*
X4876693Y3060203D1*
X4861703Y3049313D1*
X4845190Y3040900D1*
X4834923Y3037247D1*
X5731850Y3037020D1*
X5745377Y3034877D1*
X5758403Y3030647D1*
X5770610Y3024427D1*
X5781690Y3016377D1*
X5817153Y2981293D1*
X5819917Y2996550D1*
X5827303Y3019280D1*
X5838150Y3040570D1*
X5852197Y3059903D1*
X5869097Y3076803D1*
X5884040Y3087917D1*
X5869097Y3099197D1*
X5852197Y3116097D1*
X5838150Y3135430D1*
X5827303Y3156720D1*
X5825087Y3162723D1*
X5693150Y3162980D1*
X5679623Y3165120D1*
X5666597Y3169353D1*
X5654390Y3175573D1*
X5643310Y3183623D1*
X5458670Y3367880D1*
X5438237Y3388317D1*
X5418473Y3383363D1*
X5400000Y3381910D1*
X5381527Y3383363D1*
X5363507Y3387690D1*
X5346387Y3394780D1*
X5330590Y3404463D1*
X5316497Y3416497D1*
X5304463Y3430590D1*
X5294780Y3446387D1*
X5287690Y3463507D1*
X5283363Y3481527D1*
X5281910Y3500000D1*
X5283363Y3518473D1*
X5287690Y3536493D1*
X5294780Y3553613D1*
X5304463Y3569410D1*
X5316497Y3583503D1*
X5330590Y3595537D1*
X5346387Y3605220D1*
X5363507Y3612310D1*
X5381527Y3616637D1*
X5400000Y3618090D1*
X5418473Y3616637D1*
X5436493Y3612310D1*
X5453613Y3605220D1*
X5469410Y3595537D1*
X5483503Y3583503D1*
X5489630Y3577777D1*
X5501307Y3570620D1*
X5511723Y3561723D1*
X5736143Y3337303D1*
X5877230Y3337290D1*
X5884040Y3341917D1*
X5869097Y3353197D1*
X5852197Y3370097D1*
X5838150Y3389430D1*
X5827303Y3410720D1*
X5819917Y3433450D1*
X5816180Y3457050D1*
Y3480950D1*
X5819917Y3504550D1*
X5827303Y3527280D1*
X5838150Y3548570D1*
X5852197Y3567903D1*
X5869097Y3584803D1*
X5884040Y3595917D1*
X5867293Y3608760D1*
X5853827Y3622220D1*
X5842147Y3637250D1*
X5832430Y3653623D1*
X5824833Y3671080D1*
X5819473Y3689347D1*
X5816437Y3708140D1*
X5815767Y3727167D1*
X5817477Y3746127D1*
X5821537Y3764727D1*
X5827887Y3782673D1*
X5836427Y3799687D1*
X5847023Y3815503D1*
X5859510Y3829877D1*
X5873693Y3842577D1*
X5883960Y3850000D1*
X5869097Y3861197D1*
X5852197Y3878097D1*
X5838150Y3897430D1*
X5827303Y3918720D1*
X5819917Y3941450D1*
X5816180Y3965050D1*
Y3988950D1*
X5819917Y4012550D1*
X5827303Y4035280D1*
X5838150Y4056570D1*
X5852197Y4075903D1*
X5869097Y4092803D1*
X5884040Y4103917D1*
X3962727Y4937977D2*
X3946387Y4944780D1*
X3930590Y4954463D1*
X3916497Y4966497D1*
X3904463Y4980590D1*
X3894780Y4996387D1*
X3887690Y5013507D1*
X3883363Y5031527D1*
X3881910Y5050000D1*
X3883363Y5068473D1*
X3887690Y5086493D1*
X3894780Y5103613D1*
X3904463Y5119410D1*
X3916497Y5133503D1*
X3930590Y5145537D1*
X3946387Y5155220D1*
X3963507Y5162310D1*
X3981527Y5166637D1*
X4000000Y5168090D1*
X4018473Y5166637D1*
X4036493Y5162310D1*
X4053613Y5155220D1*
X4069410Y5145537D1*
X4083503Y5133503D1*
X4095537Y5119410D1*
X4105220Y5103613D1*
X4112310Y5086493D1*
X4116637Y5068473D1*
X4117900Y5054813D1*
X4127777Y5039630D1*
X4133017Y5026973D1*
X4136217Y5013657D1*
X4137290Y5000000D1*
Y4929430D1*
X4150687Y4911703D1*
X4159100Y4895190D1*
X4164827Y4877567D1*
X4167873Y4855537D1*
X4336143Y4687303D1*
X4420427Y4687290D1*
X4438297Y4700687D1*
X4454810Y4709100D1*
X4472433Y4714827D1*
X4490733Y4717727D1*
X4509267D1*
X4527567Y4714827D1*
X4545190Y4709100D1*
X4561703Y4700687D1*
X4576693Y4689797D1*
X4589797Y4676693D1*
X4600687Y4661703D1*
X4609100Y4645190D1*
X4614827Y4627567D1*
X4617727Y4609267D1*
Y4590733D1*
X4614827Y4572433D1*
X4609100Y4554810D1*
X4600687Y4538297D1*
X4589797Y4523307D1*
X4576693Y4510203D1*
X4561703Y4499313D1*
X4545190Y4490900D1*
X4527567Y4485173D1*
X4509267Y4482273D1*
X4490733D1*
X4472433Y4485173D1*
X4454810Y4490900D1*
X4438297Y4499313D1*
X4420567Y4512737D1*
X4293150Y4512980D1*
X4279623Y4515120D1*
X4266597Y4519353D1*
X4254390Y4525573D1*
X4243310Y4533623D1*
X4058670Y4717880D1*
X4044553Y4732000D1*
X4022433Y4735173D1*
X4004810Y4740900D1*
X3988297Y4749313D1*
X3973307Y4760203D1*
X3960203Y4773307D1*
X3949313Y4788297D1*
X3940900Y4804810D1*
X3935173Y4822433D1*
X3932273Y4840733D1*
Y4859267D1*
X3935173Y4877567D1*
X3940900Y4895190D1*
X3949313Y4911703D1*
X3962737Y4929433D1*
X4765077Y3037247D2*
X4746387Y3044780D1*
X4730590Y3054463D1*
X4716497Y3066497D1*
X4704463Y3080590D1*
X4694780Y3096387D1*
X4687690Y3113507D1*
X4683363Y3131527D1*
X4681910Y3150000D1*
X4683363Y3168473D1*
X4687690Y3186493D1*
X4694780Y3203613D1*
X4704463Y3219410D1*
X4712737Y3229433D1*
X4712710Y3363940D1*
X4289527Y3787027D1*
X4264827Y3777567D1*
X4267727Y3759267D1*
Y3740733D1*
X4264827Y3722433D1*
X4259100Y3704810D1*
X4250687Y3688297D1*
X4237263Y3670567D1*
X4237290Y3236170D1*
X4436143Y3037303D1*
X4764753Y3037290D1*
X2979433Y3312737D2*
X2961703Y3299313D1*
X2945190Y3290900D1*
X2927567Y3285173D1*
X2909267Y3282273D1*
X2890733D1*
X2872433Y3285173D1*
X2854810Y3290900D1*
X2838297Y3299313D1*
X2823307Y3310203D1*
X2810203Y3323307D1*
X2799313Y3338297D1*
X2790900Y3354810D1*
X2785173Y3372433D1*
X2782273Y3390733D1*
Y3409267D1*
X2785173Y3427567D1*
X2790900Y3445190D1*
X2799313Y3461703D1*
X2810203Y3476693D1*
X2823307Y3489797D1*
X2838297Y3500687D1*
X2854810Y3509100D1*
X2872433Y3514827D1*
X2890733Y3517727D1*
X2909267D1*
X2927567Y3514827D1*
X2945190Y3509100D1*
X2961703Y3500687D1*
X2979433Y3487263D1*
X3569603Y3487290D1*
X3578660Y3500030D1*
X3581560Y3518330D1*
X3587287Y3535953D1*
X3595700Y3552467D1*
X3606590Y3567457D1*
X3619693Y3580560D1*
X3634683Y3591450D1*
X3651197Y3599863D1*
X3668820Y3605590D1*
X3687120Y3608490D1*
X3705653D1*
X3723953Y3605590D1*
X3741577Y3599863D1*
X3758090Y3591450D1*
X3773080Y3580560D1*
X3786183Y3567457D1*
X3797073Y3552467D1*
X3805487Y3535953D1*
X3811213Y3518330D1*
X3814113Y3500030D1*
Y3481497D1*
X3811213Y3463197D1*
X3805487Y3445573D1*
X3797073Y3429060D1*
X3786183Y3414070D1*
X3773080Y3400967D1*
X3758090Y3390077D1*
X3741577Y3381663D1*
X3723953Y3375937D1*
X3701923Y3372890D1*
X3662313Y3333623D1*
X3651233Y3325573D1*
X3639027Y3319353D1*
X3626000Y3315120D1*
X3612473Y3312980D1*
X3351623Y3312710D1*
X2979430D1*
X4616577Y3706813D2*
X4614403Y3721457D1*
Y3739990D1*
X4617303Y3758290D1*
X4623030Y3775913D1*
X4631443Y3792427D1*
X4642333Y3807417D1*
X4655437Y3820520D1*
X4670427Y3831410D1*
X4686940Y3839823D1*
X4704563Y3845550D1*
X4722863Y3848450D1*
X4741397D1*
X4759697Y3845550D1*
X4777320Y3839823D1*
X4793833Y3831410D1*
X4811563Y3817987D1*
X5003370Y3818013D1*
X5474580Y4289367D1*
X5457623Y4279183D1*
X5436997Y4270637D1*
X5415287Y4265427D1*
X5393027Y4263673D1*
X5370767Y4265427D1*
X5349057Y4270637D1*
X5328430Y4279183D1*
X5309390Y4290847D1*
X5292413Y4305350D1*
X5277910Y4322327D1*
X5266247Y4341367D1*
X5257700Y4361993D1*
X5253247Y4379893D1*
X4829580Y3956513D1*
X4818500Y3948463D1*
X4806293Y3942243D1*
X4793267Y3938010D1*
X4779740Y3935870D1*
X4518890Y3935600D1*
X4387797D1*
X4616407Y3707040D1*
X4452870Y1675660D2*
X4449380Y1653607D1*
X4442480Y1632370D1*
X4432343Y1612477D1*
X4419217Y1594413D1*
X4403430Y1578627D1*
X4385367Y1565500D1*
X4365473Y1555363D1*
X4344237Y1548463D1*
X4322183Y1544973D1*
X4299857D1*
X4277803Y1548463D1*
X4256567Y1555363D1*
X4236673Y1565500D1*
X4218610Y1578627D1*
X4202823Y1594413D1*
X4189697Y1612477D1*
X4179560Y1632370D1*
X4172660Y1653607D1*
X4169170Y1675660D1*
Y1697987D1*
X4172660Y1720040D1*
X4175920Y1732863D1*
X4153660Y1731110D1*
X4131400Y1732863D1*
X4109690Y1738073D1*
X4089063Y1746620D1*
X4070023Y1758283D1*
X4053047Y1772787D1*
X4038543Y1789763D1*
X4026880Y1808803D1*
X4018333Y1829430D1*
X4013123Y1851140D1*
X4011370Y1873400D1*
X4013123Y1895660D1*
X4018333Y1917370D1*
X4026880Y1937997D1*
X4038543Y1957037D1*
X4053047Y1974013D1*
X4070023Y1988517D1*
X4089063Y2000180D1*
X4109690Y2008727D1*
X4131400Y2013937D1*
X4153660Y2015690D1*
X4175920Y2013937D1*
X4197630Y2008727D1*
X4218257Y2000180D1*
X4237297Y1988517D1*
X4254273Y1974013D1*
X4268777Y1957037D1*
X4280440Y1937997D1*
X4288987Y1917370D1*
X4294197Y1895660D1*
X4295950Y1873400D1*
X4294197Y1851140D1*
X4288187Y1827260D1*
X4311020Y1829113D1*
X4333280Y1827360D1*
X4354990Y1822150D1*
X4375617Y1813603D1*
X4394657Y1801940D1*
X4411633Y1787437D1*
X4426137Y1770460D1*
X4437800Y1751420D1*
X4446347Y1730793D1*
X4451557Y1709083D1*
X4453310Y1686823D1*
X4452870Y1675660D1*
X4026793Y2160153D2*
X4023303Y2138100D1*
X4016403Y2116863D1*
X4006267Y2096970D1*
X3993140Y2078907D1*
X3977353Y2063120D1*
X3959290Y2049993D1*
X3939397Y2039857D1*
X3918160Y2032957D1*
X3896107Y2029467D1*
X3873780D1*
X3851727Y2032957D1*
X3830490Y2039857D1*
X3810597Y2049993D1*
X3792533Y2063120D1*
X3776747Y2078907D1*
X3763620Y2096970D1*
X3753483Y2116863D1*
X3746583Y2138100D1*
X3743093Y2160153D1*
Y2182480D1*
X3746583Y2204533D1*
X3753483Y2225770D1*
X3763620Y2245663D1*
X3776747Y2263727D1*
X3792533Y2279513D1*
X3810597Y2292640D1*
X3830490Y2302777D1*
X3851727Y2309677D1*
X3873780Y2313167D1*
X3896107D1*
X3918160Y2309677D1*
X3939397Y2302777D1*
X3959290Y2292640D1*
X3977353Y2279513D1*
X3993140Y2263727D1*
X4006267Y2245663D1*
X4016403Y2225770D1*
X4023303Y2204533D1*
X4026793Y2182480D1*
Y2160153D1*
X3834380Y2399300D2*
X3830890Y2377247D1*
X3823990Y2356010D1*
X3813853Y2336117D1*
X3800727Y2318053D1*
X3784940Y2302267D1*
X3766877Y2289140D1*
X3746983Y2279003D1*
X3725747Y2272103D1*
X3703693Y2268613D1*
X3681367D1*
X3659313Y2272103D1*
X3638077Y2279003D1*
X3618183Y2289140D1*
X3600120Y2302267D1*
X3584333Y2318053D1*
X3571207Y2336117D1*
X3561070Y2356010D1*
X3554170Y2377247D1*
X3550680Y2399300D1*
Y2421627D1*
X3554170Y2443680D1*
X3561070Y2464917D1*
X3571207Y2484810D1*
X3584333Y2502873D1*
X3600120Y2518660D1*
X3618183Y2531787D1*
X3638077Y2541923D1*
X3659313Y2548823D1*
X3681367Y2552313D1*
X3703693D1*
X3725747Y2548823D1*
X3746983Y2541923D1*
X3766877Y2531787D1*
X3784940Y2518660D1*
X3800727Y2502873D1*
X3813853Y2484810D1*
X3823990Y2464917D1*
X3830890Y2443680D1*
X3834380Y2421627D1*
Y2399300D1*
X3877027Y5345817D2*
X3873537Y5323763D1*
X3866637Y5302527D1*
X3856500Y5282633D1*
X3843373Y5264570D1*
X3827587Y5248783D1*
X3809523Y5235657D1*
X3789630Y5225520D1*
X3768393Y5218620D1*
X3746340Y5215130D1*
X3724013D1*
X3701960Y5218620D1*
X3680723Y5225520D1*
X3660830Y5235657D1*
X3642767Y5248783D1*
X3626980Y5264570D1*
X3613853Y5282633D1*
X3603717Y5302527D1*
X3596817Y5323763D1*
X3593327Y5345817D1*
Y5368143D1*
X3596817Y5390197D1*
X3603717Y5411433D1*
X3613853Y5431327D1*
X3626980Y5449390D1*
X3642767Y5465177D1*
X3660830Y5478303D1*
X3680723Y5488440D1*
X3701960Y5495340D1*
X3724013Y5498830D1*
X3746340D1*
X3768393Y5495340D1*
X3789630Y5488440D1*
X3809523Y5478303D1*
X3827587Y5465177D1*
X3843373Y5449390D1*
X3856500Y5431327D1*
X3866637Y5411433D1*
X3873537Y5390197D1*
X3877027Y5368143D1*
Y5345817D1*
X5815833Y3723000D2*
D14*
X5968000D1*
X1200000Y7000000D2*
X1352167D1*
D19*
X1232000Y2707000D3*
D20*
Y2961000D3*
Y3215000D3*
Y3469000D3*
Y3723000D3*
Y3977000D3*
Y4231000D3*
Y4485000D3*
Y4739000D3*
Y4993000D3*
D19*
X5968000D3*
D20*
Y4739000D3*
Y4485000D3*
Y4231000D3*
Y3977000D3*
Y3723000D3*
Y3469000D3*
Y3215000D3*
Y2961000D3*
Y2707000D3*
D19*
X1200000Y7000000D3*
D20*
Y6746000D3*
Y6492000D3*
Y6238000D3*
Y5984000D3*
D28*
X4311020Y1686823D3*
X4153660Y1873400D3*
X3884943Y2171317D3*
X3692530Y2410463D3*
X3735177Y5356980D3*
X5393027Y4405963D3*
M02*
