G04 DipTrace 3.0.0.2*
G04 Bottom.gbr*
%MOMM*%
G04 #@! TF.FileFunction,Copper,L2,Bot*
G04 #@! TF.Part,Single*
G04 #@! TA.AperFunction,Conductor*
%ADD13C,0.75*%
G04 #@! TA.AperFunction,CopperBalancing*
%ADD14C,0.33*%
%ADD16C,0.635*%
G04 #@! TA.AperFunction,ComponentPad*
%ADD17R,1.7X1.7*%
%ADD18C,1.7*%
%ADD23C,4.5*%
%ADD25C,1.35*%
%ADD26R,1.8X1.8*%
%ADD27C,1.8*%
%ADD30R,1.5X1.5*%
%ADD31C,1.5*%
%ADD34C,1.5*%
%ADD35R,1.9X1.9*%
%ADD36C,1.9*%
G04 #@! TA.AperFunction,ViaPad*
%ADD37C,1.016*%
%FSLAX35Y35*%
G04*
G71*
G90*
G75*
G01*
G04 Bottom*
%LPD*%
X4054820Y4250000D2*
D14*
Y2168870D1*
X4268513Y1955177D1*
X4250000D1*
Y1730217D1*
X3350000Y8452510D2*
D13*
X2400000Y7502510D1*
Y6600000D1*
X1474347Y4631863D2*
D14*
Y3648347D1*
X1300000Y3474000D1*
X5175000Y7675000D2*
D13*
X5186363D1*
Y7242260D1*
X5042000Y7097897D1*
Y6100000D1*
X3350000Y8800000D2*
X3608430Y8541570D1*
Y8304720D1*
X4250000Y1730217D2*
D14*
Y1950000D1*
X4300000D1*
X5205970Y4080083D2*
X5433790Y4307903D1*
X5626560D1*
X3000000Y10350000D2*
D13*
X1996000D1*
X1646000Y10000000D1*
X4418800Y10380000D2*
Y5481000D1*
X4484800Y5415000D1*
X6018000D1*
X1646000Y10000000D2*
Y9046000D1*
X1450000Y8850000D1*
X4909593Y9107980D2*
X4648080Y8846467D1*
Y6870073D1*
X4874747Y6643407D1*
X1801400Y1825130D2*
D14*
Y6365000D1*
X1735400Y6431000D1*
X1282000D1*
X3978507Y1195513D2*
X2005927D1*
X1984970Y1216470D1*
Y6619000D1*
X1918970Y6685000D1*
X1282000D1*
X4600000Y1200000D2*
X4303163Y1496837D1*
X3945290D1*
Y5846270D1*
X3584890Y6206670D1*
Y6895300D1*
X3518890Y6961300D1*
X2725420D1*
X2659417Y6895297D1*
Y6475500D1*
X2593417Y6409500D1*
X2116970D1*
X2050970Y6475500D1*
Y6873000D1*
X1984970Y6939000D1*
X1282000D1*
X3450000Y2550000D2*
X2150000Y3850000D1*
Y6250000D1*
X4250000Y2450000D2*
X4500000Y2200000D1*
Y1950000D1*
X1700000Y2350000D2*
Y5096100D1*
X1635100Y5161000D1*
X1282000D1*
X1500000Y2250000D2*
Y2738340D1*
X1590443Y2828783D1*
Y4785357D1*
X1468800Y4907000D1*
X1282000D1*
X1550000Y6050000D2*
Y5683000D1*
X1282000Y5415000D1*
X2441563Y5773297D2*
X2582927Y5631933D1*
Y4070880D1*
X3373610Y3280197D1*
Y3103170D1*
X4224583Y3114310D2*
X4241163Y3097730D1*
Y2760840D1*
X4417870Y2584133D1*
X4898513D1*
X5296187Y2186460D1*
Y1314893D1*
X1550000Y2100000D2*
Y1749500D1*
X1182170D1*
X1116170Y1815500D1*
Y5503170D1*
X1282000Y5669000D1*
X6018000D2*
D13*
X5548600Y6138400D1*
Y8083990D1*
X5647237Y8182627D1*
Y8947237D1*
X6050000Y9350000D1*
X4925000Y7675000D2*
Y8083990D1*
X4909593Y8099397D1*
Y8599980D1*
X6050000Y8150000D2*
X5647237Y8182627D1*
X4925000Y8083990D2*
X4991000Y8149990D1*
X5482600D1*
X5548600Y8083990D1*
X4042820Y1667587D2*
D14*
X4131177Y1579230D1*
X4810467D1*
X5084453Y1853217D1*
Y2168697D1*
X3723400Y4250000D2*
Y1458220D1*
X3789400Y1392220D1*
X4042677D1*
X4200000Y1234897D1*
X3357190Y6779070D2*
Y5700000D1*
X3200000D1*
X3845000Y6456200D2*
D13*
X3806407D1*
Y8749407D1*
X3911000Y8854000D1*
X4050000D1*
X2900000Y6600000D2*
D14*
Y6123833D1*
X2946000Y6077833D1*
Y5700000D1*
X4550300Y4250000D2*
Y4050000D1*
X4550000D1*
X3600000D2*
Y1930680D1*
X3264500Y1595180D1*
X2946000Y5700000D2*
Y4704000D1*
X3600000Y4050000D1*
X5450000Y10450000D2*
D13*
X5100000Y10800000D1*
X4323560D1*
X4248060Y10724500D1*
Y10217000D1*
X3317000D1*
X3200000Y10100000D1*
X3000000D1*
X4248060Y10217000D2*
X4250000Y6850000D1*
X3000000Y10100000D2*
X1950000Y9050000D1*
Y8850000D1*
X3900000Y10000000D2*
X3167000Y9267000D1*
Y8985530D1*
X2781470Y8600000D1*
X2650000D1*
X5509700Y3085343D2*
D14*
X5300000Y3295043D1*
Y3730510D1*
X5319200D1*
X6018000Y4429310D1*
Y4907000D1*
X4450000Y3404000D2*
Y3593000D1*
X6018000Y5161000D1*
X4844190Y3743283D2*
Y3016810D1*
X5270800Y2590200D1*
X5731200D1*
X6152500Y3011500D1*
Y6296500D1*
X6018000Y6431000D1*
X5883800Y8485100D2*
Y8929800D1*
X6050000Y9096000D1*
X5749200Y8009000D2*
Y7207800D1*
X6018000Y6939000D1*
Y7193000D2*
X5883500Y7327500D1*
Y7729500D1*
X6050000Y7896000D1*
D37*
X4500000Y1950000D3*
X2150000Y6250000D3*
X4250000Y2450000D3*
X3450000Y2550000D3*
X4042820Y1667587D3*
X5084453Y2168697D3*
X2441563Y5773297D3*
X3373610Y3103170D3*
X4224583Y3114310D3*
X5296187Y1314893D3*
X5205970Y4080083D3*
X5626560Y4307903D3*
X5679907Y1986357D3*
X2481230Y2776617D3*
X2387150Y5100360D3*
X3393793Y5354373D3*
X5762547Y6589083D3*
X1473470Y1364220D3*
X6085497Y8470273D3*
X1668577Y5425670D3*
X2141967Y3564057D3*
X4020683Y8128270D3*
X4300000Y1950000D3*
X1474347Y4631863D3*
X5042000Y6100000D3*
X3608430Y8304720D3*
X4054820Y4250000D3*
X3350000Y8452510D3*
X4250000Y1730217D3*
X4418800Y10380000D3*
X4874747Y6643407D3*
X1801400Y1825130D3*
X3978507Y1195513D3*
X4600000Y1200000D3*
X1700000Y2350000D3*
X1500000Y2250000D3*
X1550000Y6050000D3*
Y2100000D3*
X4200000Y1234897D3*
X3723400Y4250000D3*
X3357190Y6779070D3*
X3845000Y6456200D3*
X3264500Y1595180D3*
X4550000Y4050000D3*
X3600000D3*
X4550300Y4250000D3*
X4250000Y6850000D3*
X3900000Y10000000D3*
X5319200Y3730510D3*
X4844190Y3743283D3*
X5883800Y8485100D3*
X5749200Y8009000D3*
X1104100Y10889083D2*
D16*
X4262120D1*
X5161463D2*
X6145913D1*
X1104100Y10825917D2*
X4195023D1*
X5228560D2*
X6145913D1*
X1104100Y10762750D2*
X4144173D1*
X5291690D2*
X6145913D1*
X1104100Y10699583D2*
X4136980D1*
X5608447D2*
X6145913D1*
X1104100Y10636417D2*
X1354763D1*
X1429227D2*
X1862763D1*
X1937227D2*
X4136980D1*
X5021443D2*
X5109077D1*
X5681493D2*
X6145913D1*
X1104100Y10573250D2*
X1270800D1*
X1513190D2*
X1778800D1*
X2021190D2*
X4136980D1*
X5061377D2*
X5172207D1*
X5985600D2*
X6145913D1*
X1104100Y10510083D2*
X1253560D1*
X1530430D2*
X1761560D1*
X2038430D2*
X4136980D1*
X5082337D2*
X5157570D1*
X6023427D2*
X6145913D1*
X1104100Y10446917D2*
X1268567D1*
X1515423D2*
X1776567D1*
X3100070D2*
X4136980D1*
X5088663D2*
X5151370D1*
X6033597D2*
X6145913D1*
X1104100Y10383750D2*
X1340873D1*
X1443117D2*
X1848873D1*
X3136907D2*
X4136980D1*
X5080973D2*
X5158933D1*
X6021197D2*
X6145913D1*
X1104100Y10320583D2*
X1812037D1*
X3137897D2*
X3294987D1*
X5058400D2*
X5181630D1*
X5979770D2*
X6145913D1*
X1104100Y10257417D2*
X1748910D1*
X3104287D2*
X3202960D1*
X4529937D2*
X4563747D1*
X5016233D2*
X5223800D1*
X5676287D2*
X6145913D1*
X1104100Y10194250D2*
X1685783D1*
X1994773D2*
X2897243D1*
X4529937D2*
X4642130D1*
X5261923D2*
X5302183D1*
X5597903D2*
X6145913D1*
X1104100Y10131083D2*
X1330330D1*
X1453660D2*
X1584330D1*
X1961660D2*
X2862517D1*
X4529937D2*
X4859170D1*
X5330757D2*
X6145913D1*
X1104100Y10067917D2*
X1260630D1*
X2031360D2*
X2813403D1*
X3322447D2*
X3797033D1*
X4002963D2*
X4136980D1*
X4529937D2*
X4821220D1*
X5368833D2*
X6145913D1*
X1104100Y10004750D2*
X1243390D1*
X2048600D2*
X2750277D1*
X3250017D2*
X3750277D1*
X4024293D2*
X4137107D1*
X4529937D2*
X4801500D1*
X5388427D2*
X6145913D1*
X1104100Y9941583D2*
X1255917D1*
X2036073D2*
X2687023D1*
X2996140D2*
X3687023D1*
X4009040D2*
X4137107D1*
X4529937D2*
X4796537D1*
X5393513D2*
X6145913D1*
X1104100Y9878417D2*
X1311727D1*
X1472263D2*
X1534847D1*
X1757147D2*
X1819727D1*
X1980263D2*
X2623897D1*
X2932887D2*
X3623897D1*
X3932890D2*
X4137107D1*
X4529937D2*
X4805220D1*
X5384707D2*
X6145913D1*
X1104100Y9815250D2*
X1534847D1*
X1757147D2*
X2560767D1*
X2869760D2*
X3560770D1*
X3869760D2*
X4137230D1*
X4529937D2*
X4829280D1*
X5360770D2*
X6145913D1*
X1104100Y9752083D2*
X1534847D1*
X1757147D2*
X2497640D1*
X2806633D2*
X3497640D1*
X3806633D2*
X4137230D1*
X4529937D2*
X4873557D1*
X5316493D2*
X6145913D1*
X1104100Y9688917D2*
X1534847D1*
X1757147D2*
X2434387D1*
X2743380D2*
X3434390D1*
X3743380D2*
X4137230D1*
X4529937D2*
X4957273D1*
X5232777D2*
X6145913D1*
X1104100Y9625750D2*
X1534847D1*
X1757147D2*
X2371260D1*
X2680253D2*
X3371260D1*
X3680253D2*
X4137353D1*
X4529937D2*
X6145913D1*
X1104100Y9562583D2*
X1534847D1*
X1757147D2*
X2308133D1*
X2617123D2*
X3308133D1*
X3617123D2*
X4137353D1*
X4529937D2*
X6145913D1*
X1104100Y9499417D2*
X1534847D1*
X1757147D2*
X2244880D1*
X2553873D2*
X3244880D1*
X3553873D2*
X4137353D1*
X4529937D2*
X5891417D1*
X1104100Y9436250D2*
X1534847D1*
X1757147D2*
X2181753D1*
X2490743D2*
X3181753D1*
X3490743D2*
X4137353D1*
X4529937D2*
X5891417D1*
X1104100Y9373083D2*
X1534847D1*
X1757147D2*
X2118623D1*
X2427617D2*
X3118627D1*
X3427617D2*
X4137477D1*
X4529937D2*
X5891417D1*
X1104100Y9309917D2*
X1534847D1*
X1757147D2*
X2055373D1*
X2364363D2*
X3065047D1*
X3364367D2*
X4137477D1*
X4529937D2*
X5855450D1*
X1104100Y9246750D2*
X1534847D1*
X1757147D2*
X1992243D1*
X2301237D2*
X2569573D1*
X2730480D2*
X3055870D1*
X3301237D2*
X3959503D1*
X4529937D2*
X4745937D1*
X5073283D2*
X5792197D1*
X1104100Y9183583D2*
X1534847D1*
X1757147D2*
X1929117D1*
X2238107D2*
X2505700D1*
X2794230D2*
X3055870D1*
X3278170D2*
X3325620D1*
X3374423D2*
X3900097D1*
X4529937D2*
X4745937D1*
X5073283D2*
X5729070D1*
X1104100Y9120417D2*
X1534847D1*
X1757147D2*
X1866113D1*
X2174857D2*
X2486850D1*
X2813203D2*
X3055870D1*
X3471273D2*
X3881867D1*
X4529937D2*
X4745937D1*
X5073283D2*
X5665943D1*
X1104100Y9057250D2*
X1502723D1*
X1757147D2*
X1839200D1*
X2111730D2*
X2494787D1*
X2805267D2*
X3055870D1*
X3490993D2*
X3889553D1*
X4529937D2*
X4704390D1*
X5073283D2*
X5602690D1*
X1104100Y8994083D2*
X1439597D1*
X1743380D2*
X1838950D1*
X2061127D2*
X2535220D1*
X2764837D2*
X3021020D1*
X3478963D2*
X3928003D1*
X4529937D2*
X4641137D1*
X5073283D2*
X5547127D1*
X1104100Y8930917D2*
X1301310D1*
X1685460D2*
X1826550D1*
X2073407D2*
X2506447D1*
X2793610D2*
X2957890D1*
X3419557D2*
X3833497D1*
X4529937D2*
X4578010D1*
X5053193D2*
X5536090D1*
X1104100Y8867750D2*
X1301310D1*
X1622207D2*
X1802487D1*
X2097590D2*
X2486973D1*
X2813080D2*
X2894763D1*
X3472887D2*
X3770243D1*
X5072663D2*
X5536090D1*
X5758390D2*
X5793687D1*
X1104100Y8804583D2*
X1301310D1*
X1598643D2*
X1808813D1*
X2091140D2*
X2494290D1*
X3140503D2*
X3208913D1*
X3491117D2*
X3710960D1*
X5065223D2*
X5536090D1*
X5758390D2*
X5793687D1*
X1104100Y8741417D2*
X1301310D1*
X1598643D2*
X1851727D1*
X2048353D2*
X2486353D1*
X3077373D2*
X3222310D1*
X3477723D2*
X3695333D1*
X4759133D2*
X4793437D1*
X5025783D2*
X5536090D1*
X5758390D2*
X5793687D1*
X1104100Y8678250D2*
X2486353D1*
X3014247D2*
X3285810D1*
X3414223D2*
X3695333D1*
X5052323D2*
X5536090D1*
X5758390D2*
X5793687D1*
X5973943D2*
X6145913D1*
X1104100Y8615083D2*
X2486353D1*
X2950993D2*
X3695333D1*
X5072540D2*
X5536090D1*
X5758390D2*
X5793687D1*
X5973943D2*
X6145913D1*
X1104100Y8551917D2*
X2486353D1*
X2887867D2*
X3695333D1*
X5065720D2*
X5536090D1*
X5987460D2*
X6145913D1*
X1104100Y8488750D2*
X2486353D1*
X2813700D2*
X3695333D1*
X4759133D2*
X4792037D1*
X5027147D2*
X5536090D1*
X6008173D2*
X6145913D1*
X1104100Y8425583D2*
X3695333D1*
X3917510D2*
X4137973D1*
X4759133D2*
X4798570D1*
X5020697D2*
X5536090D1*
X5992173D2*
X6145913D1*
X1104100Y8362417D2*
X3695333D1*
X3917510D2*
X4137973D1*
X4759133D2*
X4798570D1*
X5020697D2*
X5536090D1*
X5758390D2*
X6145913D1*
X1104100Y8299250D2*
X3695333D1*
X3917510D2*
X4138097D1*
X4759133D2*
X4798570D1*
X5020697D2*
X5536090D1*
X5758390D2*
X5891417D1*
X1104100Y8236083D2*
X3695333D1*
X3917510D2*
X4138097D1*
X4759133D2*
X4798570D1*
X1104100Y8172917D2*
X3695333D1*
X3917510D2*
X4138097D1*
X4759133D2*
X4798570D1*
X1104100Y8109750D2*
X3695333D1*
X3917510D2*
X4138223D1*
X4759133D2*
X4798570D1*
X1104100Y8046583D2*
X3695333D1*
X3917510D2*
X4138223D1*
X4759133D2*
X4812787D1*
X1104100Y7983417D2*
X3695333D1*
X3917510D2*
X4138223D1*
X4759133D2*
X4813900D1*
X5036077D2*
X5437490D1*
X1104100Y7920250D2*
X3695333D1*
X3917510D2*
X4138223D1*
X4759133D2*
X4813900D1*
X5036077D2*
X5437490D1*
X1104100Y7857083D2*
X3695333D1*
X3917510D2*
X4138347D1*
X4759133D2*
X4813900D1*
X5036077D2*
X5437490D1*
X1104100Y7793917D2*
X3695333D1*
X3917510D2*
X4138347D1*
X4759133D2*
X4813900D1*
X5036077D2*
X5105233D1*
X5244810D2*
X5437490D1*
X1104100Y7730750D2*
X3695333D1*
X3917510D2*
X4138347D1*
X4759133D2*
X4796003D1*
X5304090D2*
X5437490D1*
X1104100Y7667583D2*
X3695333D1*
X3917510D2*
X4138470D1*
X5315873D2*
X5437490D1*
X1104100Y7604417D2*
X3695333D1*
X3917510D2*
X4138470D1*
X4759133D2*
X4803933D1*
X5296153D2*
X5437490D1*
X1104100Y7541250D2*
X3695333D1*
X3917510D2*
X4138470D1*
X4759133D2*
X4901957D1*
X4947973D2*
X5151990D1*
X5197997D2*
X5437490D1*
X1104100Y7478083D2*
X3695333D1*
X3917510D2*
X4138470D1*
X4759133D2*
X5437490D1*
X1104100Y7414917D2*
X3695333D1*
X3917510D2*
X4138593D1*
X4759133D2*
X5437490D1*
X1104100Y7351750D2*
X3695333D1*
X3917510D2*
X4138593D1*
X4759133D2*
X5437490D1*
X1104100Y7288583D2*
X1157070D1*
X1406903D2*
X3695333D1*
X3917510D2*
X4138593D1*
X4759133D2*
X5437490D1*
X1437163Y7225417D2*
X3695333D1*
X3917510D2*
X4138717D1*
X4759133D2*
X5437490D1*
X1437537Y7162250D2*
X3695333D1*
X3917510D2*
X4138717D1*
X4759133D2*
X5437490D1*
X1104100Y7099083D2*
X1155707D1*
X1408267D2*
X3695333D1*
X3917510D2*
X4138717D1*
X4759133D2*
X5437490D1*
X5659667D2*
X5733163D1*
X1104100Y7035917D2*
X1158187D1*
X1405787D2*
X2681070D1*
X3563300D2*
X3695333D1*
X3917510D2*
X4138843D1*
X4759133D2*
X5437490D1*
X5659667D2*
X5796290D1*
X2076010Y6972750D2*
X2612113D1*
X3632257D2*
X3695333D1*
X3917510D2*
X4138843D1*
X4759133D2*
X5437490D1*
X5659667D2*
X5859420D1*
X2132687Y6909583D2*
X2570567D1*
X3917510D2*
X4138843D1*
X4763100D2*
X5437490D1*
X5659667D2*
X5862270D1*
X1104100Y6846417D2*
X1154713D1*
X2141123D2*
X2569327D1*
X2749580D2*
X3253810D1*
X3460483D2*
X3494780D1*
X3917510D2*
X4125570D1*
X4826230D2*
X5437490D1*
X5659667D2*
X5890673D1*
X1104100Y6783250D2*
X1159303D1*
X2141123D2*
X2569327D1*
X2749580D2*
X3232850D1*
X3917510D2*
X4146283D1*
X4529937D2*
X4580367D1*
X4889357D2*
X5437490D1*
X5659667D2*
X5895263D1*
X2141123Y6720083D2*
X2317310D1*
X2482683D2*
X2569327D1*
X3048600D2*
X3248477D1*
X3917510D2*
X4307637D1*
X4529937D2*
X4643617D1*
X4970963D2*
X5437490D1*
X5659667D2*
X5863513D1*
X2141123Y6656917D2*
X2263237D1*
X2536757D2*
X2569333D1*
X3048600D2*
X3267080D1*
X3447337D2*
X3494787D1*
X3917510D2*
X4307637D1*
X4529937D2*
X4706747D1*
X4998373D2*
X5437490D1*
X5659667D2*
X5862023D1*
X1104100Y6593750D2*
X1153723D1*
X2141123D2*
X2251453D1*
X3048600D2*
X3267080D1*
X3447337D2*
X3494787D1*
X3917510D2*
X4307637D1*
X4529937D2*
X4761317D1*
X4988203D2*
X5437490D1*
X5659667D2*
X5889680D1*
X1104100Y6530583D2*
X1160420D1*
X2141123D2*
X2269437D1*
X2530557D2*
X2569327D1*
X3048600D2*
X3267080D1*
X3447337D2*
X3494787D1*
X3943060D2*
X4307637D1*
X4529937D2*
X4833497D1*
X4916023D2*
X5437490D1*
X5659667D2*
X5896377D1*
X3048600Y6467417D2*
X3267080D1*
X3447337D2*
X3494787D1*
X3968857D2*
X4307637D1*
X4529937D2*
X5437490D1*
X5659667D2*
X5863760D1*
X2712993Y6404250D2*
X2809930D1*
X2990063D2*
X3267080D1*
X3447337D2*
X3494787D1*
X3675043D2*
X3709100D1*
X3957447D2*
X4307637D1*
X4529937D2*
X5437490D1*
X5659667D2*
X5861777D1*
X1104100Y6341083D2*
X1152730D1*
X1411243D2*
X1700540D1*
X2648130D2*
X2809930D1*
X2990063D2*
X3267080D1*
X3447337D2*
X3494787D1*
X3675043D2*
X3812287D1*
X3877697D2*
X4307637D1*
X4529937D2*
X5437490D1*
X5659667D2*
X5888690D1*
X1104100Y6277917D2*
X1161660D1*
X1402437D2*
X1711330D1*
X2271100D2*
X2809930D1*
X2990063D2*
X3267080D1*
X3447337D2*
X3494787D1*
X3675043D2*
X4307637D1*
X4529937D2*
X5437490D1*
X5659667D2*
X5897617D1*
X1435923Y6214750D2*
X1711330D1*
X2269113D2*
X2809930D1*
X2990063D2*
X3267080D1*
X3447337D2*
X3494787D1*
X3701583D2*
X4307637D1*
X4529937D2*
X5437490D1*
X5659667D2*
X5864133D1*
X1438530Y6151583D2*
X1483377D1*
X1616627D2*
X1711330D1*
X2240093D2*
X2809930D1*
X2997007D2*
X3267080D1*
X3447337D2*
X3515500D1*
X3764837D2*
X4307637D1*
X4529937D2*
X5437490D1*
X5689930D2*
X5861527D1*
X1104100Y6088417D2*
X1151737D1*
X1667973D2*
X1711330D1*
X2240093D2*
X2817743D1*
X3035453D2*
X3267080D1*
X3447337D2*
X3578380D1*
X3827963D2*
X4307637D1*
X4529937D2*
X5450140D1*
X5753057D2*
X5887820D1*
X1104100Y6025250D2*
X1162777D1*
X1671817D2*
X1711330D1*
X2240093D2*
X2855943D1*
X3036077D2*
X3267080D1*
X3447337D2*
X3641507D1*
X3891093D2*
X4307637D1*
X4529937D2*
X5507193D1*
X5816310D2*
X5898733D1*
X1640067Y5962083D2*
X1711330D1*
X2240093D2*
X2855943D1*
X3036077D2*
X3267080D1*
X3447337D2*
X3704637D1*
X3954220D2*
X4307637D1*
X4529937D2*
X5570443D1*
X1640067Y5898917D2*
X1711330D1*
X2240093D2*
X2855943D1*
X3036077D2*
X3267080D1*
X3447337D2*
X3767887D1*
X4016730D2*
X4307637D1*
X4529937D2*
X5633573D1*
X1104100Y5835750D2*
X1150870D1*
X1413230D2*
X1459937D1*
X1640067D2*
X1711330D1*
X2240093D2*
X2335043D1*
X2548167D2*
X2855943D1*
X3447337D2*
X3831017D1*
X4035457D2*
X4307637D1*
X4529937D2*
X5696700D1*
X1104100Y5772583D2*
X1164017D1*
X1399957D2*
X1459937D1*
X1640067D2*
X1711330D1*
X2240093D2*
X2317187D1*
X2567020D2*
X2805713D1*
X3447337D2*
X3855200D1*
X4035457D2*
X4307637D1*
X4529937D2*
X5759953D1*
X1640067Y5709417D2*
X1711330D1*
X2240093D2*
X2335913D1*
X2630270D2*
X2787607D1*
X3447337D2*
X3855200D1*
X4035457D2*
X4307637D1*
X4529937D2*
X5823080D1*
X1631633Y5646250D2*
X1711330D1*
X2240093D2*
X2443813D1*
X2671817D2*
X2797157D1*
X3427740D2*
X3855200D1*
X4035457D2*
X4307637D1*
X4529937D2*
X5861030D1*
X1574830Y5583083D2*
X1711330D1*
X2240093D2*
X2492803D1*
X2673060D2*
X2842053D1*
X3358660D2*
X3855200D1*
X4035457D2*
X4307637D1*
X4529937D2*
X5885960D1*
X1511703Y5519917D2*
X1711330D1*
X2240093D2*
X2492803D1*
X2673060D2*
X2855943D1*
X3036077D2*
X3855200D1*
X4035457D2*
X4307637D1*
X4534403D2*
X5901213D1*
X1448577Y5456750D2*
X1711330D1*
X2240093D2*
X2492803D1*
X2673060D2*
X2855943D1*
X3036077D2*
X3855200D1*
X4035457D2*
X4310490D1*
X1439150Y5393583D2*
X1711330D1*
X2240093D2*
X2492803D1*
X2673060D2*
X2855943D1*
X3036077D2*
X3855200D1*
X4035457D2*
X4351667D1*
X1414963Y5330417D2*
X1711330D1*
X2240093D2*
X2492803D1*
X2673060D2*
X2855943D1*
X3036077D2*
X3855200D1*
X4035457D2*
X4416653D1*
X1397477Y5267250D2*
X1711330D1*
X2240093D2*
X2492803D1*
X2673060D2*
X2855943D1*
X3036077D2*
X3855200D1*
X4035457D2*
X5902580D1*
X2240093Y5204083D2*
X2492803D1*
X2673060D2*
X2855943D1*
X3036077D2*
X3855200D1*
X4035457D2*
X5865620D1*
X2240093Y5140917D2*
X2492803D1*
X2673060D2*
X2855943D1*
X3036077D2*
X3855200D1*
X4035457D2*
X5860660D1*
X2240093Y5077750D2*
X2492803D1*
X2673060D2*
X2855943D1*
X3036077D2*
X3855200D1*
X4035457D2*
X5809933D1*
X2240093Y5014583D2*
X2492803D1*
X2673060D2*
X2855943D1*
X3036077D2*
X3855200D1*
X4035457D2*
X5746807D1*
X2240093Y4951417D2*
X2492803D1*
X2673060D2*
X2855943D1*
X3036077D2*
X3855200D1*
X4035457D2*
X5683677D1*
X2240093Y4888250D2*
X2492803D1*
X2673060D2*
X2855943D1*
X3036077D2*
X3855200D1*
X4035457D2*
X5620427D1*
X2240093Y4825083D2*
X2492803D1*
X2673060D2*
X2855943D1*
X3036077D2*
X3855200D1*
X4035457D2*
X5557297D1*
X5806883D2*
X5883230D1*
X1440637Y4761917D2*
X1489080D1*
X2240093D2*
X2492803D1*
X2673060D2*
X2855943D1*
X3036077D2*
X3855200D1*
X4035457D2*
X5494170D1*
X5743753D2*
X5927880D1*
X1206233Y4698750D2*
X1500367D1*
X2240093D2*
X2492803D1*
X2673060D2*
X2856067D1*
X3076010D2*
X3855200D1*
X4035457D2*
X5430917D1*
X5680503D2*
X5927880D1*
X1206233Y4635583D2*
X1500367D1*
X2240093D2*
X2492803D1*
X2673060D2*
X2889677D1*
X3139263D2*
X3855200D1*
X4035457D2*
X5367790D1*
X5617373D2*
X5927880D1*
X1206233Y4572417D2*
X1500367D1*
X2240093D2*
X2492803D1*
X2673060D2*
X2952807D1*
X3202390D2*
X3855200D1*
X4035457D2*
X5304663D1*
X5554247D2*
X5927880D1*
X1206233Y4509250D2*
X1500367D1*
X2240093D2*
X2492803D1*
X2673060D2*
X3015933D1*
X3265520D2*
X3855200D1*
X4035457D2*
X5241410D1*
X5490993D2*
X5927880D1*
X1206233Y4446083D2*
X1500367D1*
X2240093D2*
X2492803D1*
X2673060D2*
X3079060D1*
X3328770D2*
X3855200D1*
X4035457D2*
X5178283D1*
X5427867D2*
X5910020D1*
X1206233Y4382917D2*
X1253560D1*
X1346503D2*
X1500367D1*
X2240093D2*
X2492803D1*
X2673060D2*
X3142313D1*
X3391897D2*
X3855200D1*
X4035457D2*
X5115153D1*
X5364740D2*
X5846770D1*
X1433567Y4319750D2*
X1500367D1*
X2240093D2*
X2492803D1*
X2673060D2*
X3205440D1*
X3455027D2*
X3621787D1*
X4035457D2*
X4448653D1*
X4651977D2*
X5051903D1*
X5301610D2*
X5783640D1*
X1457257Y4256583D2*
X1500310D1*
X2240093D2*
X2492803D1*
X2673060D2*
X3268570D1*
X3518277D2*
X3599093D1*
X4035457D2*
X4426080D1*
X4674550D2*
X4988773D1*
X5238360D2*
X5720513D1*
X5970097D2*
X6062447D1*
X1452543Y4193417D2*
X1500367D1*
X2240093D2*
X2492803D1*
X2673060D2*
X3331820D1*
X3581407D2*
X3613400D1*
X4035457D2*
X4440343D1*
X4660287D2*
X4925647D1*
X5175230D2*
X5657260D1*
X5906847D2*
X6062447D1*
X1415957Y4130250D2*
X1500367D1*
X2240093D2*
X2492803D1*
X2673060D2*
X3394950D1*
X3813453D2*
X3855200D1*
X4035457D2*
X4456963D1*
X4642923D2*
X4862393D1*
X5112103D2*
X5594133D1*
X5843717D2*
X6062447D1*
X1432700Y4067083D2*
X1500367D1*
X2240093D2*
X2492927D1*
X2711507D2*
X3458077D1*
X3813453D2*
X3855200D1*
X4035457D2*
X4426823D1*
X4673183D2*
X4799267D1*
X5048850D2*
X5531003D1*
X5780590D2*
X6062447D1*
X1457010Y4003917D2*
X1500293D1*
X2240093D2*
X2525050D1*
X2774633D2*
X3484867D1*
X3813453D2*
X3855200D1*
X4035457D2*
X4434887D1*
X4665123D2*
X4736140D1*
X4985723D2*
X5467753D1*
X5717463D2*
X6062447D1*
X1452917Y3940750D2*
X1500367D1*
X2240093D2*
X2588300D1*
X2837887D2*
X3509920D1*
X3813453D2*
X3855200D1*
X4035457D2*
X4498883D1*
X4601127D2*
X4673010D1*
X4922597D2*
X5404627D1*
X5654210D2*
X6062447D1*
X1417197Y3877583D2*
X1500367D1*
X2247163D2*
X2651430D1*
X2901013D2*
X3509920D1*
X3813453D2*
X3855200D1*
X4035457D2*
X4609760D1*
X4859343D2*
X5341497D1*
X5591083D2*
X6062447D1*
X1431707Y3814417D2*
X1500367D1*
X2310413D2*
X2714557D1*
X2964140D2*
X3509920D1*
X3813453D2*
X3855200D1*
X4035457D2*
X4546630D1*
X4944797D2*
X5229753D1*
X5527953D2*
X6062447D1*
X1456883Y3751250D2*
X1500283D1*
X2075017D2*
X2123957D1*
X2373543D2*
X2777810D1*
X3027393D2*
X3509920D1*
X3813453D2*
X3855200D1*
X4035457D2*
X4483503D1*
X4968360D2*
X5196637D1*
X5464703D2*
X6062447D1*
X1453287Y3688083D2*
X1500367D1*
X2075017D2*
X2187083D1*
X2436670D2*
X2840937D1*
X3090520D2*
X3509920D1*
X3813453D2*
X3855200D1*
X4035457D2*
X4420250D1*
X4669837D2*
X4733410D1*
X4954967D2*
X5202590D1*
X5435803D2*
X6062447D1*
X1418437Y3624917D2*
X1500367D1*
X2075017D2*
X2250337D1*
X2499923D2*
X2904063D1*
X3153650D2*
X3509920D1*
X3813453D2*
X3855200D1*
X4035457D2*
X4366177D1*
X4606707D2*
X4754123D1*
X4934253D2*
X5209907D1*
X5390163D2*
X6062447D1*
X1430840Y3561750D2*
X1500367D1*
X2075017D2*
X2313463D1*
X2563050D2*
X2967317D1*
X3216900D2*
X3509920D1*
X3813453D2*
X3855200D1*
X4035457D2*
X4359850D1*
X4543580D2*
X4754123D1*
X4934253D2*
X5209907D1*
X5390163D2*
X6062447D1*
X1456637Y3498583D2*
X1500270D1*
X2075017D2*
X2376593D1*
X2626177D2*
X3030443D1*
X3280030D2*
X3509920D1*
X3813453D2*
X3855200D1*
X4035457D2*
X4324257D1*
X4575703D2*
X4754123D1*
X4934253D2*
X5209907D1*
X5390163D2*
X6062447D1*
X1453660Y3435417D2*
X1500323D1*
X2075017D2*
X2439843D1*
X2689430D2*
X3093573D1*
X3343157D2*
X3509920D1*
X3813453D2*
X3855200D1*
X4035457D2*
X4294617D1*
X4605343D2*
X4754123D1*
X4934253D2*
X5209907D1*
X5390163D2*
X6062447D1*
X1419677Y3372250D2*
X1500367D1*
X2075017D2*
X2502973D1*
X2752557D2*
X3156700D1*
X3406410D2*
X3509920D1*
X3813453D2*
X3855200D1*
X4035457D2*
X4294740D1*
X4605343D2*
X4754123D1*
X4934253D2*
X5209907D1*
X5390163D2*
X6062447D1*
X1429847Y3309083D2*
X1500367D1*
X2075017D2*
X2566100D1*
X2815687D2*
X3219953D1*
X3458623D2*
X3509920D1*
X3813453D2*
X3855200D1*
X4035457D2*
X4324503D1*
X4575453D2*
X4754123D1*
X4934253D2*
X5209907D1*
X5410753D2*
X6062447D1*
X1456390Y3245917D2*
X1500253D1*
X2075017D2*
X2629230D1*
X2878937D2*
X3283080D1*
X3463707D2*
X3509920D1*
X3813453D2*
X3855200D1*
X4035457D2*
X4291390D1*
X4608693D2*
X4754123D1*
X4934253D2*
X5225783D1*
X5473880D2*
X6062447D1*
X1454033Y3182750D2*
X1500347D1*
X2075017D2*
X2692480D1*
X2942067D2*
X3279980D1*
X3467180D2*
X3509920D1*
X3813453D2*
X3855200D1*
X4035457D2*
X4121973D1*
X4608693D2*
X4754123D1*
X4934253D2*
X5287547D1*
X5668350D2*
X6062447D1*
X1420793Y3119583D2*
X1500367D1*
X2075017D2*
X2755610D1*
X3005193D2*
X3250337D1*
X3813453D2*
X3855200D1*
X4035457D2*
X4100270D1*
X4608693D2*
X4754123D1*
X4934253D2*
X5350673D1*
X5668350D2*
X6062447D1*
X1428857Y3056417D2*
X1500367D1*
X2075017D2*
X2818737D1*
X3068447D2*
X3258770D1*
X3813453D2*
X3855200D1*
X4035457D2*
X4115277D1*
X4608693D2*
X4754123D1*
X4934253D2*
X5351047D1*
X5668350D2*
X6062447D1*
X1456140Y2993250D2*
X1500237D1*
X2075017D2*
X2881987D1*
X3131573D2*
X3324133D1*
X3423153D2*
X3509920D1*
X3813453D2*
X3855200D1*
X4035457D2*
X4150997D1*
X4331253D2*
X4757470D1*
X4992543D2*
X5351047D1*
X5668350D2*
X6009487D1*
X1454403Y2930083D2*
X1500370D1*
X2075017D2*
X2945117D1*
X3194700D2*
X3509920D1*
X3813453D2*
X3855200D1*
X4035457D2*
X4150997D1*
X4331253D2*
X4806087D1*
X5055673D2*
X5387387D1*
X5632010D2*
X5946237D1*
X1422033Y2866917D2*
X1500367D1*
X2075017D2*
X3008243D1*
X3257830D2*
X3509920D1*
X3813453D2*
X3855200D1*
X4035457D2*
X4150997D1*
X4331253D2*
X4869340D1*
X5118923D2*
X5355263D1*
X5664133D2*
X5883107D1*
X2075017Y2803750D2*
X3071497D1*
X3321080D2*
X3509920D1*
X3813453D2*
X3855200D1*
X4035457D2*
X4150997D1*
X4331253D2*
X4932467D1*
X5182053D2*
X5353527D1*
X5665867D2*
X5819980D1*
X6069563D2*
X6145913D1*
X2075017Y2740583D2*
X3134623D1*
X3384210D2*
X3509920D1*
X3813453D2*
X3855200D1*
X4035457D2*
X4153600D1*
X4386193D2*
X4995597D1*
X5245180D2*
X5381060D1*
X5638333D2*
X5756727D1*
X6006437D2*
X6145913D1*
X2075017Y2677417D2*
X3197753D1*
X3447337D2*
X3509920D1*
X3813453D2*
X3855200D1*
X4035457D2*
X4199737D1*
X4449447D2*
X5058723D1*
X5308433D2*
X5693600D1*
X5943183D2*
X6145913D1*
X2075017Y2614250D2*
X3261003D1*
X3813453D2*
X3855200D1*
X4035457D2*
X4262990D1*
X4993163D2*
X5121977D1*
X5880057D2*
X6145913D1*
X2075017Y2551083D2*
X3324133D1*
X3813453D2*
X3855200D1*
X4035457D2*
X4182623D1*
X5056417D2*
X5185103D1*
X5816930D2*
X6145913D1*
X2075017Y2487917D2*
X3343230D1*
X3813453D2*
X3855200D1*
X4035457D2*
X4131773D1*
X4368210D2*
X4869960D1*
X5119543D2*
X6145913D1*
X2075017Y2424750D2*
X3509920D1*
X3813453D2*
X3855200D1*
X4035457D2*
X4128300D1*
X4400083D2*
X4933087D1*
X5182673D2*
X6145913D1*
X2075017Y2361583D2*
X3509920D1*
X3813453D2*
X3855200D1*
X4035457D2*
X4165383D1*
X4463213D2*
X4996217D1*
X5245923D2*
X6145913D1*
X2075017Y2298417D2*
X3509920D1*
X3813453D2*
X3855200D1*
X4035457D2*
X4276757D1*
X4526340D2*
X5059467D1*
X5309053D2*
X6145913D1*
X1623573Y2235250D2*
X1665813D1*
X2075017D2*
X3509920D1*
X3813453D2*
X3855200D1*
X4035457D2*
X4340007D1*
X4582277D2*
X4980590D1*
X5370567D2*
X6145913D1*
X1649867Y2172083D2*
X1711330D1*
X2075017D2*
X3509920D1*
X3813453D2*
X3855200D1*
X4035457D2*
X4403137D1*
X4590090D2*
X4960000D1*
X5386320D2*
X6145913D1*
X1674050Y2108917D2*
X1711330D1*
X2075017D2*
X3509920D1*
X3813453D2*
X3855200D1*
X4035457D2*
X4409833D1*
X4590090D2*
X4976247D1*
X5386320D2*
X6145913D1*
X1661277Y2045750D2*
X1711330D1*
X2075017D2*
X3509920D1*
X3813453D2*
X3855200D1*
X4035457D2*
X4409833D1*
X4590090D2*
X4994357D1*
X5386320D2*
X6145913D1*
X1640067Y1982583D2*
X1711330D1*
X2075017D2*
X3509920D1*
X3813453D2*
X3855200D1*
X4035457D2*
X4380190D1*
X4619853D2*
X4994357D1*
X5386320D2*
X6145913D1*
X1640067Y1919417D2*
X1711330D1*
X2075017D2*
X3463907D1*
X3813453D2*
X3855200D1*
X4035457D2*
X4379570D1*
X4620350D2*
X4994357D1*
X5386320D2*
X6145913D1*
X1640067Y1856250D2*
X1681193D1*
X2075017D2*
X3400780D1*
X3813453D2*
X3855200D1*
X4035457D2*
X4421863D1*
X4578183D2*
X4962730D1*
X5386320D2*
X6145913D1*
X1640067Y1793083D2*
X1681440D1*
X2075017D2*
X3337650D1*
X3587237D2*
X3633323D1*
X3813453D2*
X3855200D1*
X4035457D2*
X4899477D1*
X5149063D2*
X5206063D1*
X5386320D2*
X6145913D1*
X1637833Y1729917D2*
X1725223D1*
X2075017D2*
X3274400D1*
X3523983D2*
X3633323D1*
X3813453D2*
X3855200D1*
X4149433D2*
X4836350D1*
X5085933D2*
X5206063D1*
X5386320D2*
X6145913D1*
X1104100Y1666750D2*
X1162900D1*
X1569250D2*
X1894887D1*
X2075017D2*
X3164267D1*
X3460857D2*
X3633323D1*
X3813453D2*
X3855200D1*
X4168410D2*
X4773223D1*
X5022807D2*
X5206063D1*
X5386320D2*
X6145913D1*
X1104100Y1603583D2*
X1894887D1*
X2075017D2*
X3140330D1*
X3397727D2*
X3633323D1*
X3813453D2*
X3855200D1*
X4959680D2*
X5206063D1*
X5386320D2*
X6145913D1*
X1104100Y1540417D2*
X1894887D1*
X2075017D2*
X3153477D1*
X3375527D2*
X3633323D1*
X3813453D2*
X3855200D1*
X4896427D2*
X5206063D1*
X5386320D2*
X6145913D1*
X1104100Y1477250D2*
X1894887D1*
X2075017D2*
X3633323D1*
X4447587D2*
X5206063D1*
X5386320D2*
X6145913D1*
X1104100Y1414083D2*
X1894887D1*
X2075017D2*
X3645850D1*
X4510713D2*
X5206063D1*
X5386320D2*
X6145913D1*
X1104100Y1350917D2*
X1894887D1*
X2075017D2*
X3705877D1*
X4573840D2*
X5177413D1*
X5414970D2*
X6145913D1*
X1104100Y1287750D2*
X1894887D1*
X2075017D2*
X3898360D1*
X4685340D2*
X5174933D1*
X5417450D2*
X6145913D1*
X1104100Y1224583D2*
X1894887D1*
X4721800D2*
X5213753D1*
X5378630D2*
X6145913D1*
X1104100Y1161417D2*
X1915473D1*
X4717957D2*
X6145913D1*
X1104100Y1098250D2*
X3905183D1*
X4666240D2*
X6145913D1*
X1383960Y2838917D2*
X1398903Y2827803D1*
X1415803Y2810903D1*
X1429850Y2791570D1*
X1432213Y2787590D1*
X1440750Y2797590D1*
X1506613Y2863450D1*
X1506653Y4750773D1*
X1434290Y4823013D1*
Y4754710D1*
X1200010D1*
X1199960Y4350867D1*
X1220430Y4365850D1*
X1241720Y4376697D1*
X1264450Y4384083D1*
X1288050Y4387820D1*
X1311950D1*
X1335550Y4384083D1*
X1358280Y4376697D1*
X1379570Y4365850D1*
X1398903Y4351803D1*
X1415803Y4334903D1*
X1429850Y4315570D1*
X1440697Y4294280D1*
X1448083Y4271550D1*
X1451820Y4247950D1*
Y4224050D1*
X1448083Y4200450D1*
X1440697Y4177720D1*
X1429850Y4156430D1*
X1415803Y4137097D1*
X1398903Y4120197D1*
X1383960Y4109083D1*
X1398903Y4097803D1*
X1415803Y4080903D1*
X1429850Y4061570D1*
X1440697Y4040280D1*
X1448083Y4017550D1*
X1451820Y3993950D1*
Y3970050D1*
X1448083Y3946450D1*
X1440697Y3923720D1*
X1429850Y3902430D1*
X1415803Y3883097D1*
X1398903Y3866197D1*
X1383960Y3855083D1*
X1398903Y3843803D1*
X1415803Y3826903D1*
X1429850Y3807570D1*
X1440697Y3786280D1*
X1448083Y3763550D1*
X1451820Y3739950D1*
Y3716050D1*
X1448083Y3692450D1*
X1440697Y3669720D1*
X1429850Y3648430D1*
X1415803Y3629097D1*
X1398903Y3612197D1*
X1383960Y3601083D1*
X1403793Y3585440D1*
X1416887Y3571620D1*
X1428153Y3556273D1*
X1437417Y3539643D1*
X1444533Y3521983D1*
X1449390Y3503577D1*
X1451913Y3484707D1*
X1451760Y3461313D1*
X1448993Y3442480D1*
X1443897Y3424137D1*
X1436550Y3406573D1*
X1427070Y3390063D1*
X1415607Y3374867D1*
X1402333Y3361217D1*
X1384023Y3347023D1*
X1398903Y3335803D1*
X1415803Y3318903D1*
X1429850Y3299570D1*
X1440697Y3278280D1*
X1448083Y3255550D1*
X1451820Y3231950D1*
Y3208050D1*
X1448083Y3184450D1*
X1440697Y3161720D1*
X1429850Y3140430D1*
X1415803Y3121097D1*
X1398903Y3104197D1*
X1383960Y3093083D1*
X1398903Y3081803D1*
X1415803Y3064903D1*
X1429850Y3045570D1*
X1440697Y3024280D1*
X1448083Y3001550D1*
X1451820Y2977950D1*
Y2954050D1*
X1448083Y2930450D1*
X1440697Y2907720D1*
X1429850Y2886430D1*
X1415803Y2867097D1*
X1398903Y2850197D1*
X1383960Y2839083D1*
X1433820Y5403050D2*
X1430083Y5379450D1*
X1422697Y5356720D1*
X1411850Y5335430D1*
X1397803Y5316097D1*
X1380903Y5299197D1*
X1365960Y5287917D1*
X1380903Y5276803D1*
X1397803Y5259903D1*
X1409073Y5244727D1*
X1641673Y5244533D1*
X1660993Y5240690D1*
X1678880Y5232443D1*
X1694350Y5220250D1*
X1694923Y5219627D1*
X1717590Y5197010D1*
X1717610Y6330280D1*
X1700797Y6347210D1*
X1409073Y6347273D1*
X1397803Y6332097D1*
X1380903Y6315197D1*
X1365960Y6303917D1*
X1380903Y6292803D1*
X1397803Y6275903D1*
X1411850Y6256570D1*
X1422697Y6235280D1*
X1430083Y6212550D1*
X1433820Y6188950D1*
Y6165050D1*
X1430083Y6141450D1*
X1422697Y6118720D1*
X1411850Y6097430D1*
X1397803Y6078097D1*
X1380903Y6061197D1*
X1365960Y6049917D1*
X1380903Y6038803D1*
X1397803Y6021903D1*
X1411850Y6002570D1*
X1422697Y5981280D1*
X1430083Y5958550D1*
X1433820Y5934950D1*
Y5911050D1*
X1430083Y5887450D1*
X1422697Y5864720D1*
X1411850Y5843430D1*
X1397803Y5824097D1*
X1380903Y5807197D1*
X1365960Y5795917D1*
X1380903Y5784803D1*
X1397803Y5767903D1*
X1411850Y5748570D1*
X1422697Y5727280D1*
X1430083Y5704550D1*
X1433363Y5684800D1*
X1466287Y5717787D1*
X1466210Y5966890D1*
X1454463Y5980590D1*
X1444780Y5996387D1*
X1437690Y6013507D1*
X1433363Y6031527D1*
X1431910Y6050000D1*
X1433363Y6068473D1*
X1437690Y6086493D1*
X1444780Y6103613D1*
X1454463Y6119410D1*
X1466497Y6133503D1*
X1480590Y6145537D1*
X1496387Y6155220D1*
X1513507Y6162310D1*
X1531527Y6166637D1*
X1550000Y6168090D1*
X1568473Y6166637D1*
X1586493Y6162310D1*
X1603613Y6155220D1*
X1619410Y6145537D1*
X1633503Y6133503D1*
X1645537Y6119410D1*
X1655220Y6103613D1*
X1662310Y6086493D1*
X1666637Y6068473D1*
X1668090Y6050000D1*
X1666637Y6031527D1*
X1662310Y6013507D1*
X1655220Y5996387D1*
X1645537Y5980590D1*
X1633773Y5966790D1*
X1633533Y5676427D1*
X1629690Y5657107D1*
X1621443Y5639220D1*
X1609250Y5623750D1*
X1608627Y5623177D1*
X1431057Y5445650D1*
X1433820Y5426950D1*
Y5403050D1*
X5929460Y8302290D2*
X6152330D1*
X6152250Y8729037D1*
X6132190Y8713793D1*
X6115553Y8704540D1*
X6097890Y8697437D1*
X6079480Y8692590D1*
X6060607Y8690080D1*
X6041570Y8689943D1*
X6022667Y8692183D1*
X6004187Y8696763D1*
X5986427Y8703613D1*
X5967557Y8713993D1*
X5967590Y8568273D1*
X5979337Y8554510D1*
X5989020Y8538713D1*
X5996110Y8521593D1*
X6000437Y8503573D1*
X6001890Y8485100D1*
X6000437Y8466627D1*
X5996110Y8448607D1*
X5989020Y8431487D1*
X5979337Y8415690D1*
X5967303Y8401597D1*
X5953210Y8389563D1*
X5937413Y8379880D1*
X5920293Y8372790D1*
X5902273Y8368463D1*
X5883800Y8367010D1*
X5865327Y8368463D1*
X5847307Y8372790D1*
X5830187Y8379880D1*
X5814390Y8389563D1*
X5800297Y8401597D1*
X5788263Y8415690D1*
X5778580Y8431487D1*
X5771490Y8448607D1*
X5767163Y8466627D1*
X5765710Y8485100D1*
X5767163Y8503573D1*
X5771490Y8521593D1*
X5778580Y8538713D1*
X5788263Y8554510D1*
X5800027Y8568310D1*
X5800267Y8936373D1*
X5804110Y8955693D1*
X5751997Y8903800D1*
X5752027Y8279123D1*
X5897620Y8267477D1*
X5897710Y8302290D1*
X5929460D1*
X5934040Y6812083D2*
X5919097Y6823197D1*
X5902197Y6840097D1*
X5888150Y6859430D1*
X5877303Y6880720D1*
X5869917Y6903450D1*
X5866180Y6927050D1*
Y6950950D1*
X5868943Y6969650D1*
X5685487Y7153383D1*
X5674543Y7169760D1*
X5667723Y7188240D1*
X5665410Y7207800D1*
X5665443Y7208647D1*
X5665410Y7925773D1*
X5653360Y7940040D1*
X5653390Y6181843D1*
X5871320Y5963873D1*
X5877887Y5982673D1*
X5886427Y5999687D1*
X5897023Y6015503D1*
X5909510Y6029877D1*
X5923693Y6042577D1*
X5933960Y6050000D1*
X5919097Y6061197D1*
X5902197Y6078097D1*
X5888150Y6097430D1*
X5877303Y6118720D1*
X5869917Y6141450D1*
X5866180Y6165050D1*
Y6188950D1*
X5869917Y6212550D1*
X5877303Y6235280D1*
X5888150Y6256570D1*
X5902197Y6275903D1*
X5919097Y6292803D1*
X5934040Y6303917D1*
X5919097Y6315197D1*
X5902197Y6332097D1*
X5888150Y6351430D1*
X5877303Y6372720D1*
X5869917Y6395450D1*
X5866180Y6419050D1*
Y6442950D1*
X5869917Y6466550D1*
X5877303Y6489280D1*
X5888150Y6510570D1*
X5902197Y6529903D1*
X5919097Y6546803D1*
X5934040Y6557917D1*
X5919097Y6569197D1*
X5902197Y6586097D1*
X5888150Y6605430D1*
X5877303Y6626720D1*
X5869917Y6649450D1*
X5866180Y6673050D1*
Y6696950D1*
X5869917Y6720550D1*
X5877303Y6743280D1*
X5888150Y6764570D1*
X5902197Y6783903D1*
X5919097Y6800803D1*
X5934040Y6811917D1*
X5934273Y4779927D2*
X5919097Y4791197D1*
X5902197Y4808097D1*
X5888150Y4827430D1*
X5877303Y4848720D1*
X5869917Y4871450D1*
X5866637Y4891200D1*
X4836587Y3861090D1*
X4853457Y3861010D1*
X4871757Y3858110D1*
X4889380Y3852383D1*
X4905893Y3843970D1*
X4920883Y3833080D1*
X4933987Y3819977D1*
X4944877Y3804987D1*
X4953290Y3788473D1*
X4959017Y3770850D1*
X4961917Y3752550D1*
Y3734017D1*
X4959017Y3715717D1*
X4953290Y3698093D1*
X4944877Y3681580D1*
X4933987Y3666590D1*
X4927963Y3660073D1*
X4927980Y3051357D1*
X5305533Y2673963D1*
X5696573Y2673990D1*
X6068783Y3046280D1*
X6068710Y4361497D1*
X5437317Y3730130D1*
X5435837Y3712037D1*
X5431510Y3694017D1*
X5424420Y3676897D1*
X5414737Y3661100D1*
X5402703Y3647007D1*
X5388610Y3634973D1*
X5383763Y3631733D1*
X5383790Y3329790D1*
X5475973Y3237567D1*
X5661990Y3237633D1*
Y2933053D1*
X5622923D1*
X5632907Y2920857D1*
X5645390Y2900480D1*
X5654537Y2878403D1*
X5660117Y2855167D1*
X5661990Y2831343D1*
X5660117Y2807520D1*
X5654537Y2784283D1*
X5645390Y2762207D1*
X5632907Y2741830D1*
X5617387Y2723657D1*
X5599213Y2708137D1*
X5578837Y2695653D1*
X5556760Y2686507D1*
X5533523Y2680927D1*
X5509700Y2679053D1*
X5485877Y2680927D1*
X5462640Y2686507D1*
X5440563Y2695653D1*
X5420187Y2708137D1*
X5402013Y2723657D1*
X5386493Y2741830D1*
X5374010Y2762207D1*
X5364863Y2784283D1*
X5359283Y2807520D1*
X5357410Y2831343D1*
X5359283Y2855167D1*
X5364863Y2878403D1*
X5374010Y2900480D1*
X5386493Y2920857D1*
X5396467Y2933027D1*
X5357410Y2933053D1*
Y3119213D1*
X5236287Y3240627D1*
X5225343Y3257003D1*
X5218523Y3275483D1*
X5216210Y3295043D1*
X5216243Y3295890D1*
X5216210Y3672693D1*
X5206890Y3694017D1*
X5202563Y3712037D1*
X5201110Y3730510D1*
X5202563Y3748983D1*
X5206890Y3767003D1*
X5213980Y3784123D1*
X5223663Y3799920D1*
X5235697Y3814013D1*
X5249790Y3826047D1*
X5265587Y3835730D1*
X5282707Y3842820D1*
X5300727Y3847147D1*
X5318803Y3848583D1*
X5934260Y4464067D1*
X5934210Y4779923D1*
X4563243Y3302290D2*
X4602290D1*
Y2997710D1*
X4324850D1*
X4324953Y2795483D1*
X4452567Y2667933D1*
X4905087Y2667667D1*
X4924407Y2663823D1*
X4942293Y2655577D1*
X4957763Y2643383D1*
X4958337Y2642760D1*
X5359900Y2240877D1*
X5370843Y2224500D1*
X5377663Y2206020D1*
X5379977Y2186460D1*
X5379943Y2185613D1*
X5379977Y1398043D1*
X5391723Y1384303D1*
X5401407Y1368507D1*
X5408497Y1351387D1*
X5412823Y1333367D1*
X5414277Y1314893D1*
X5412823Y1296420D1*
X5408497Y1278400D1*
X5401407Y1261280D1*
X5391723Y1245483D1*
X5379690Y1231390D1*
X5365597Y1219357D1*
X5349800Y1209673D1*
X5332680Y1202583D1*
X5314660Y1198257D1*
X5296187Y1196803D1*
X5277713Y1198257D1*
X5259693Y1202583D1*
X5242573Y1209673D1*
X5226777Y1219357D1*
X5212683Y1231390D1*
X5200650Y1245483D1*
X5190967Y1261280D1*
X5183877Y1278400D1*
X5179550Y1296420D1*
X5178097Y1314893D1*
X5179550Y1333367D1*
X5183877Y1351387D1*
X5190967Y1368507D1*
X5200650Y1384303D1*
X5212413Y1398103D1*
X5212397Y2151680D1*
X5201090Y2150223D1*
X5196763Y2132203D1*
X5189673Y2115083D1*
X5179990Y2099287D1*
X5168227Y2085487D1*
X5167987Y1846643D1*
X5164143Y1827323D1*
X5155897Y1809437D1*
X5143703Y1793967D1*
X5143080Y1793393D1*
X4864883Y1515517D1*
X4848507Y1504573D1*
X4830027Y1497753D1*
X4810467Y1495440D1*
X4809620Y1495473D1*
X4422893Y1495440D1*
X4600337Y1318160D1*
X4618473Y1316637D1*
X4636493Y1312310D1*
X4653613Y1305220D1*
X4669410Y1295537D1*
X4683503Y1283503D1*
X4695537Y1269410D1*
X4705220Y1253613D1*
X4712310Y1236493D1*
X4716637Y1218473D1*
X4718090Y1200000D1*
X4716637Y1181527D1*
X4712310Y1163507D1*
X4705220Y1146387D1*
X4695537Y1130590D1*
X4683503Y1116497D1*
X4669410Y1104463D1*
X4658827Y1097700D1*
X6152250Y1097750D1*
Y2892740D1*
X5785617Y2526487D1*
X5769240Y2515543D1*
X5750760Y2508727D1*
X5731200Y2506410D1*
X5730353Y2506443D1*
X5264227Y2506667D1*
X5244907Y2510510D1*
X5227020Y2518757D1*
X5211550Y2530950D1*
X5210977Y2531573D1*
X4780477Y2962393D1*
X4769533Y2978770D1*
X4762717Y2997250D1*
X4760400Y3016810D1*
X4760433Y3017657D1*
X4760400Y3660120D1*
X4748653Y3673873D1*
X4738970Y3689670D1*
X4731880Y3706790D1*
X4727553Y3724810D1*
X4726100Y3743283D1*
X4726400Y3750920D1*
X4533680Y3558183D1*
X4539513Y3527207D1*
X4557687Y3511687D1*
X4573207Y3493513D1*
X4585690Y3473137D1*
X4594837Y3451060D1*
X4600417Y3427823D1*
X4602290Y3404000D1*
X4600417Y3380177D1*
X4594837Y3356940D1*
X4585690Y3334863D1*
X4573207Y3314487D1*
X4563233Y3302317D1*
X4617727Y1940733D2*
X4614827Y1922433D1*
X4609100Y1904810D1*
X4600687Y1888297D1*
X4589797Y1873307D1*
X4576693Y1860203D1*
X4561703Y1849313D1*
X4545190Y1840900D1*
X4527567Y1835173D1*
X4509267Y1832273D1*
X4490733D1*
X4472433Y1835173D1*
X4454810Y1840900D1*
X4438297Y1849313D1*
X4423307Y1860203D1*
X4410203Y1873307D1*
X4399313Y1888297D1*
X4390900Y1904810D1*
X4385173Y1922433D1*
X4382273Y1940733D1*
Y1959267D1*
X4385173Y1977567D1*
X4390900Y1995190D1*
X4399313Y2011703D1*
X4410203Y2026693D1*
X4416227Y2033210D1*
X4416210Y2165430D1*
X4249657Y2331843D1*
X4231527Y2333363D1*
X4213507Y2337690D1*
X4196387Y2344780D1*
X4180590Y2354463D1*
X4166497Y2366497D1*
X4154463Y2380590D1*
X4144780Y2396387D1*
X4137690Y2413507D1*
X4133363Y2431527D1*
X4131910Y2450000D1*
X4133363Y2468473D1*
X4137690Y2486493D1*
X4144780Y2503613D1*
X4154463Y2519410D1*
X4166497Y2533503D1*
X4180590Y2545537D1*
X4196387Y2555220D1*
X4213507Y2562310D1*
X4231527Y2566637D1*
X4250000Y2568090D1*
X4268473Y2566637D1*
X4286493Y2562310D1*
X4303613Y2555220D1*
X4319410Y2545537D1*
X4333503Y2533503D1*
X4345537Y2519410D1*
X4355220Y2503613D1*
X4362310Y2486493D1*
X4366637Y2468473D1*
X4368073Y2450397D1*
X4563713Y2254417D1*
X4574657Y2238040D1*
X4581477Y2219560D1*
X4583790Y2200000D1*
X4583757Y2199153D1*
X4583790Y2033190D1*
X4595537Y2019410D1*
X4605220Y2003613D1*
X4612310Y1986493D1*
X4616637Y1968473D1*
X4618090Y1950000D1*
X4617727Y1940733D1*
X2240537Y6325753D2*
X2250687Y6311703D1*
X2259100Y6295190D1*
X2264827Y6277567D1*
X2267727Y6259267D1*
Y6240733D1*
X2264827Y6222433D1*
X2259100Y6204810D1*
X2250687Y6188297D1*
X2239797Y6173307D1*
X2233773Y6166790D1*
X2233790Y3884750D1*
X3450437Y2668060D1*
X3468473Y2666637D1*
X3486493Y2662310D1*
X3503613Y2655220D1*
X3516250Y2647650D1*
X3516210Y3966773D1*
X3504463Y3980590D1*
X3494780Y3996387D1*
X3487690Y4013507D1*
X3483363Y4031527D1*
X3481927Y4049603D1*
X2882287Y4649583D1*
X2871343Y4665960D1*
X2864523Y4684440D1*
X2862210Y4704000D1*
X2862243Y4704847D1*
X2862273Y5572927D1*
X2847097Y5584197D1*
X2830197Y5601097D1*
X2816150Y5620430D1*
X2805303Y5641720D1*
X2797917Y5664450D1*
X2794180Y5688050D1*
Y5711950D1*
X2797917Y5735550D1*
X2805303Y5758280D1*
X2816150Y5779570D1*
X2830197Y5798903D1*
X2847097Y5815803D1*
X2862273Y5827073D1*
X2862210Y6043173D1*
X2836287Y6069417D1*
X2825343Y6085793D1*
X2818523Y6104273D1*
X2816210Y6123833D1*
X2816243Y6124680D1*
X2816210Y6457830D1*
X2757710Y6457710D1*
Y6742290D1*
X3042290D1*
Y6457710D1*
X2983877D1*
X2983790Y6158600D1*
X3009713Y6132250D1*
X3020657Y6115873D1*
X3027477Y6097393D1*
X3029790Y6077833D1*
X3029757Y6076987D1*
X3029790Y5827183D1*
X3047710Y5813243D1*
Y5852290D1*
X3273557D1*
X3273400Y6695783D1*
X3261653Y6709660D1*
X3251970Y6725457D1*
X3244880Y6742577D1*
X3240553Y6760597D1*
X3239100Y6779070D1*
X3240553Y6797543D1*
X3244880Y6815563D1*
X3251970Y6832683D1*
X3261653Y6848480D1*
X3273687Y6862573D1*
X3287780Y6874607D1*
X3292147Y6877523D1*
X2759990Y6877510D1*
X2743207Y6860693D1*
X2742950Y6468927D1*
X2739107Y6449607D1*
X2730860Y6431720D1*
X2718667Y6416250D1*
X2718043Y6415677D1*
X2647833Y6345787D1*
X2631457Y6334843D1*
X2612977Y6328023D1*
X2593417Y6325710D1*
X2592570Y6325743D1*
X2240570Y6325710D1*
X3516250Y2452350D2*
X3503613Y2444780D1*
X3486493Y2437690D1*
X3468473Y2433363D1*
X3450000Y2431910D1*
X3431527Y2433363D1*
X3413507Y2437690D1*
X3396387Y2444780D1*
X3380590Y2454463D1*
X3366497Y2466497D1*
X3354463Y2480590D1*
X3344780Y2496387D1*
X3337690Y2513507D1*
X3333363Y2531527D1*
X3331927Y2549603D1*
X2086287Y3795583D1*
X2075343Y3811960D1*
X2070040Y3825073D1*
X2068760Y3825000D1*
X2069427Y1279303D1*
X3895177D1*
X3909097Y1291050D1*
X3924893Y1300733D1*
X3944280Y1308463D1*
X3782827Y1308687D1*
X3763507Y1312530D1*
X3745620Y1320777D1*
X3730150Y1332970D1*
X3729577Y1333593D1*
X3659687Y1403803D1*
X3648743Y1420180D1*
X3641923Y1438660D1*
X3639610Y1458220D1*
X3639643Y1459067D1*
X3639610Y1851747D1*
X3382563Y1594743D1*
X3381137Y1576707D1*
X3376810Y1558687D1*
X3369720Y1541567D1*
X3360037Y1525770D1*
X3348003Y1511677D1*
X3333910Y1499643D1*
X3318113Y1489960D1*
X3300993Y1482870D1*
X3282973Y1478543D1*
X3264500Y1477090D1*
X3246027Y1478543D1*
X3228007Y1482870D1*
X3210887Y1489960D1*
X3195090Y1499643D1*
X3180997Y1511677D1*
X3168963Y1525770D1*
X3159280Y1541567D1*
X3152190Y1558687D1*
X3147863Y1576707D1*
X3146410Y1595180D1*
X3147863Y1613653D1*
X3152190Y1631673D1*
X3159280Y1648793D1*
X3168963Y1664590D1*
X3180997Y1678683D1*
X3195090Y1690717D1*
X3210887Y1700400D1*
X3228007Y1707490D1*
X3246027Y1711817D1*
X3264103Y1713253D1*
X3516317Y1965493D1*
X3516210Y2452200D1*
X2441167Y5655223D2*
X2423090Y5656660D1*
X2405070Y5660987D1*
X2387950Y5668077D1*
X2372153Y5677760D1*
X2358060Y5689793D1*
X2346027Y5703887D1*
X2336343Y5719683D1*
X2329253Y5736803D1*
X2324927Y5754823D1*
X2323473Y5773297D1*
X2324927Y5791770D1*
X2329253Y5809790D1*
X2336343Y5826910D1*
X2346027Y5842707D1*
X2358060Y5856800D1*
X2372153Y5868833D1*
X2387950Y5878517D1*
X2405070Y5885607D1*
X2423090Y5889933D1*
X2441563Y5891387D1*
X2460037Y5889933D1*
X2478057Y5885607D1*
X2495177Y5878517D1*
X2510973Y5868833D1*
X2525067Y5856800D1*
X2537100Y5842707D1*
X2546783Y5826910D1*
X2553873Y5809790D1*
X2558200Y5791770D1*
X2559637Y5773693D1*
X2646640Y5686350D1*
X2657583Y5669973D1*
X2664403Y5651493D1*
X2666717Y5631933D1*
X2666683Y5631087D1*
X2666717Y4105577D1*
X3437323Y3334613D1*
X3448267Y3318237D1*
X3455087Y3299757D1*
X3457400Y3280197D1*
X3457367Y3279350D1*
X3457400Y3186310D1*
X3469147Y3172580D1*
X3478830Y3156783D1*
X3485920Y3139663D1*
X3490247Y3121643D1*
X3491700Y3103170D1*
X3490247Y3084697D1*
X3485920Y3066677D1*
X3478830Y3049557D1*
X3469147Y3033760D1*
X3457113Y3019667D1*
X3443020Y3007633D1*
X3427223Y2997950D1*
X3410103Y2990860D1*
X3392083Y2986533D1*
X3373610Y2985080D1*
X3355137Y2986533D1*
X3337117Y2990860D1*
X3319997Y2997950D1*
X3304200Y3007633D1*
X3290107Y3019667D1*
X3278073Y3033760D1*
X3268390Y3049557D1*
X3261300Y3066677D1*
X3256973Y3084697D1*
X3255520Y3103170D1*
X3256973Y3121643D1*
X3261300Y3139663D1*
X3268390Y3156783D1*
X3278073Y3172580D1*
X3289837Y3186380D1*
X3289820Y3245423D1*
X2519213Y4016463D1*
X2508270Y4032840D1*
X2501450Y4051320D1*
X2499137Y4070880D1*
X2499170Y4071727D1*
X2499137Y5597237D1*
X2441153Y5655210D1*
X5386390Y9927067D2*
X5383690Y9904277D1*
X5379213Y9881767D1*
X5372983Y9859677D1*
X5365040Y9838147D1*
X5355433Y9817303D1*
X5344217Y9797280D1*
X5331467Y9778197D1*
X5317260Y9760173D1*
X5301680Y9743320D1*
X5284827Y9727740D1*
X5266803Y9713533D1*
X5247720Y9700783D1*
X5227697Y9689567D1*
X5206853Y9679960D1*
X5185323Y9672017D1*
X5163233Y9665787D1*
X5140723Y9661310D1*
X5117933Y9658610D1*
X5095000Y9657710D1*
X5072067Y9658610D1*
X5049277Y9661310D1*
X5026767Y9665787D1*
X5004677Y9672017D1*
X4983147Y9679960D1*
X4962303Y9689567D1*
X4942280Y9700783D1*
X4923197Y9713533D1*
X4905173Y9727740D1*
X4888320Y9743320D1*
X4872740Y9760173D1*
X4858533Y9778197D1*
X4845783Y9797280D1*
X4834567Y9817303D1*
X4824960Y9838147D1*
X4817017Y9859677D1*
X4810787Y9881767D1*
X4806310Y9904277D1*
X4803610Y9927067D1*
X4802710Y9950000D1*
X4803610Y9972933D1*
X4806310Y9995723D1*
X4810787Y10018233D1*
X4817017Y10040323D1*
X4824960Y10061853D1*
X4834567Y10082697D1*
X4845783Y10102720D1*
X4858533Y10121803D1*
X4872740Y10139827D1*
X4888320Y10156680D1*
X4905173Y10172260D1*
X4923197Y10186467D1*
X4942280Y10199217D1*
X4962303Y10210433D1*
X4983147Y10220040D1*
X5004677Y10227983D1*
X5026767Y10234213D1*
X5049277Y10238690D1*
X5072067Y10241390D1*
X5095000Y10242290D1*
X5117933Y10241390D1*
X5140723Y10238690D1*
X5163233Y10234213D1*
X5185323Y10227983D1*
X5206853Y10220040D1*
X5227697Y10210433D1*
X5247720Y10199217D1*
X5266803Y10186467D1*
X5284827Y10172260D1*
X5301680Y10156680D1*
X5317260Y10139827D1*
X5331467Y10121803D1*
X5344217Y10102720D1*
X5355433Y10082697D1*
X5365040Y10061853D1*
X5372983Y10040323D1*
X5379213Y10018233D1*
X5383690Y9995723D1*
X5386390Y9972933D1*
X5387290Y9950000D1*
X5386390Y9927067D1*
X4752840Y8612753D2*
X4756650Y8636700D1*
X4764277Y8660173D1*
X4775480Y8682163D1*
X4789990Y8702133D1*
X4807440Y8719583D1*
X4816800Y8726960D1*
X4800013Y8741140D1*
X4783297Y8760227D1*
X4769867Y8781753D1*
X4760073Y8805160D1*
X4758867Y8809120D1*
X4752870Y8782967D1*
Y8613427D1*
X2305973Y6493247D2*
X2289997Y6509747D1*
X2278933Y6525237D1*
X2270037Y6542067D1*
X2263467Y6559933D1*
X2259340Y6578517D1*
X2257733Y6597483D1*
X2258670Y6616497D1*
X2262137Y6635213D1*
X2268070Y6653300D1*
X2276367Y6670433D1*
X2286873Y6686307D1*
X2299407Y6700633D1*
X2313740Y6713160D1*
X2329617Y6723663D1*
X2346753Y6731950D1*
X2364843Y6737877D1*
X2383560Y6741337D1*
X2402573Y6742267D1*
X2421540Y6740650D1*
X2440123Y6736517D1*
X2457987Y6729940D1*
X2474810Y6721037D1*
X2490297Y6709967D1*
X2504170Y6696930D1*
X2516173Y6682157D1*
X2526103Y6665917D1*
X2533773Y6648493D1*
X2539047Y6630203D1*
X2541833Y6611373D1*
X2541723Y6587317D1*
X2538763Y6568513D1*
X2533317Y6550273D1*
X2525487Y6532923D1*
X2515410Y6516773D1*
X2503267Y6502110D1*
X2494073Y6493247D1*
X2558867Y6493290D1*
X2575627Y6510103D1*
X2575883Y6901870D1*
X2579727Y6921190D1*
X2587973Y6939077D1*
X2600167Y6954547D1*
X2600790Y6955120D1*
X2671003Y7025013D1*
X2687380Y7035957D1*
X2705860Y7042773D1*
X2725420Y7045090D1*
X2726267Y7045057D1*
X3525463Y7044833D1*
X3544783Y7040990D1*
X3562670Y7032743D1*
X3578140Y7020550D1*
X3578713Y7019927D1*
X3648603Y6949717D1*
X3659547Y6933340D1*
X3666363Y6914860D1*
X3668680Y6895300D1*
X3668647Y6894453D1*
X3668607Y6241450D1*
X4009003Y5900687D1*
X4019947Y5884310D1*
X4026763Y5865830D1*
X4029080Y5846270D1*
X4029047Y5845423D1*
X4029060Y1784780D1*
X4042820Y1785677D1*
X4061293Y1784223D1*
X4079313Y1779897D1*
X4096433Y1772807D1*
X4112230Y1763123D1*
X4126323Y1751090D1*
X4138357Y1736997D1*
X4148040Y1721200D1*
X4155130Y1704080D1*
X4159457Y1686060D1*
X4160893Y1667983D1*
X4194677Y1663020D1*
X4775727D1*
X5000717Y1887980D1*
X5000663Y2085513D1*
X4988917Y2099287D1*
X4979233Y2115083D1*
X4972143Y2132203D1*
X4967817Y2150223D1*
X4966363Y2168697D1*
X4967817Y2187170D1*
X4972143Y2205190D1*
X4979233Y2222310D1*
X4988917Y2238107D1*
X5000950Y2252200D1*
X5015043Y2264233D1*
X5030840Y2273917D1*
X5047960Y2281007D1*
X5065980Y2285333D1*
X5077687Y2286520D1*
X4863783Y2500367D1*
X4411297Y2500600D1*
X4391977Y2504443D1*
X4374090Y2512690D1*
X4358620Y2524883D1*
X4358047Y2525507D1*
X4177450Y2706423D1*
X4166507Y2722800D1*
X4159687Y2741280D1*
X4157373Y2760840D1*
X4157407Y2761687D1*
X4157373Y3017197D1*
X4141080Y3030807D1*
X4129047Y3044900D1*
X4119363Y3060697D1*
X4112273Y3077817D1*
X4107947Y3095837D1*
X4106493Y3114310D1*
X4107947Y3132783D1*
X4112273Y3150803D1*
X4119363Y3167923D1*
X4129047Y3183720D1*
X4141080Y3197813D1*
X4155173Y3209847D1*
X4170970Y3219530D1*
X4188090Y3226620D1*
X4206110Y3230947D1*
X4224583Y3232400D1*
X4243057Y3230947D1*
X4261077Y3226620D1*
X4278197Y3219530D1*
X4293993Y3209847D1*
X4297710Y3206937D1*
Y3302290D1*
X4336777D1*
X4326793Y3314487D1*
X4314310Y3334863D1*
X4305163Y3356940D1*
X4299583Y3380177D1*
X4297710Y3404000D1*
X4299583Y3427823D1*
X4305163Y3451060D1*
X4314310Y3473137D1*
X4326793Y3493513D1*
X4342313Y3511687D1*
X4360487Y3527207D1*
X4366273Y3531073D1*
X4366467Y3599573D1*
X4370310Y3618893D1*
X4378557Y3636780D1*
X4390750Y3652250D1*
X4391373Y3652823D1*
X5868943Y5130350D1*
X5866180Y5149050D1*
Y5172950D1*
X5869917Y5196550D1*
X5877303Y5219280D1*
X5888150Y5240570D1*
X5902197Y5259903D1*
X5919097Y5276803D1*
X5934040Y5288083D1*
X5919097Y5299197D1*
X5907620Y5310230D1*
X4476577Y5310533D1*
X4460337Y5313107D1*
X4444700Y5318187D1*
X4430047Y5325653D1*
X4416743Y5335317D1*
X4344703Y5406903D1*
X4334023Y5419407D1*
X4325430Y5433427D1*
X4319140Y5448617D1*
X4315300Y5464607D1*
X4314010Y5481000D1*
Y6750877D1*
X4295190Y6740900D1*
X4277567Y6735173D1*
X4259267Y6732273D1*
X4240733D1*
X4222433Y6735173D1*
X4204810Y6740900D1*
X4188297Y6749313D1*
X4173307Y6760203D1*
X4160203Y6773307D1*
X4149313Y6788297D1*
X4140900Y6804810D1*
X4135173Y6822433D1*
X4132273Y6840733D1*
Y6859267D1*
X4135173Y6877567D1*
X4140900Y6895190D1*
X4145223Y6904403D1*
X4144297Y8437810D1*
X3911287Y8437710D1*
X3911197Y6554067D1*
X3928503Y6539703D1*
X3940537Y6525610D1*
X3950220Y6509813D1*
X3957310Y6492693D1*
X3961637Y6474673D1*
X3963090Y6456200D1*
X3961637Y6437727D1*
X3957310Y6419707D1*
X3950220Y6402587D1*
X3940537Y6386790D1*
X3928503Y6372697D1*
X3914410Y6360663D1*
X3898613Y6350980D1*
X3881493Y6343890D1*
X3863473Y6339563D1*
X3845000Y6338110D1*
X3826527Y6339563D1*
X3808507Y6343890D1*
X3787500Y6353157D1*
X3774023Y6356540D1*
X3758833Y6362830D1*
X3744813Y6371423D1*
X3732310Y6382103D1*
X3721630Y6394607D1*
X3713037Y6408627D1*
X3706747Y6423817D1*
X3702907Y6439807D1*
X3701617Y6456200D1*
X3701940Y8757630D1*
X3704513Y8773870D1*
X3709593Y8789507D1*
X3717060Y8804160D1*
X3726723Y8817463D1*
X3836903Y8928097D1*
X3849407Y8938777D1*
X3863427Y8947370D1*
X3878617Y8953660D1*
X3894607Y8957500D1*
X3911000Y8958790D1*
X3926593Y8959400D1*
X3944600Y8977407D1*
X3949097Y8980950D1*
X3935243Y8993243D1*
X3918703Y9012607D1*
X3905400Y9034323D1*
X3895653Y9057850D1*
X3889707Y9082613D1*
X3887710Y9108000D1*
X3889707Y9133387D1*
X3895653Y9158150D1*
X3905400Y9181677D1*
X3918703Y9203393D1*
X3935243Y9222757D1*
X3954607Y9239297D1*
X3976323Y9252600D1*
X3999850Y9262347D1*
X4024613Y9268293D1*
X4050000Y9270290D1*
X4075387Y9268293D1*
X4100150Y9262347D1*
X4123677Y9252600D1*
X4143860Y9240320D1*
X4143330Y10112127D1*
X3936887Y10112210D1*
X3953613Y10105220D1*
X3969410Y10095537D1*
X3983503Y10083503D1*
X3995537Y10069410D1*
X4005220Y10053613D1*
X4012310Y10036493D1*
X4016637Y10018473D1*
X4018090Y10000000D1*
X4016637Y9981527D1*
X4012310Y9963507D1*
X4005220Y9946387D1*
X3995537Y9930590D1*
X3983503Y9916497D1*
X3969410Y9904463D1*
X3953613Y9894780D1*
X3935550Y9887423D1*
X3271727Y9223530D1*
X3271790Y9159720D1*
X3288807Y9170100D1*
X3308347Y9178193D1*
X3328913Y9183130D1*
X3350000Y9184790D1*
X3371087Y9183130D1*
X3391653Y9178193D1*
X3411193Y9170100D1*
X3429227Y9159047D1*
X3445310Y9145310D1*
X3459047Y9129227D1*
X3470100Y9111193D1*
X3478193Y9091653D1*
X3483130Y9071087D1*
X3484790Y9050000D1*
X3483130Y9028913D1*
X3478193Y9008347D1*
X3470100Y8988807D1*
X3459047Y8970773D1*
X3445310Y8954690D1*
X3429227Y8940953D1*
X3411193Y8929900D1*
X3400380Y8925027D1*
X3416607Y8917183D1*
X3432450Y8906633D1*
X3446647Y8893957D1*
X3458917Y8879407D1*
X3469017Y8863270D1*
X3476743Y8845877D1*
X3481940Y8827563D1*
X3484510Y8808703D1*
X3484193Y8787320D1*
X3481067Y8768543D1*
X3475330Y8750393D1*
X3467093Y8733233D1*
X3456520Y8717407D1*
X3443823Y8703227D1*
X3429257Y8690973D1*
X3413110Y8680897D1*
X3395703Y8673193D1*
X3377387Y8668020D1*
X3358523Y8665480D1*
X3339487Y8665620D1*
X3320663Y8668440D1*
X3302427Y8673887D1*
X3285133Y8681843D1*
X3269137Y8692160D1*
X3254753Y8704623D1*
X3242270Y8718993D1*
X3231933Y8734973D1*
X3223950Y8752253D1*
X3218480Y8770487D1*
X3215633Y8789307D1*
X3215467Y8808340D1*
X3217983Y8827207D1*
X3223133Y8845530D1*
X3230810Y8862947D1*
X3240867Y8879110D1*
X3253097Y8893693D1*
X3267263Y8906410D1*
X3283077Y8917003D1*
X3299607Y8925000D1*
X3279573Y8935073D1*
X3264117Y8946200D1*
X3256350Y8930777D1*
X3246683Y8917473D1*
X3128843Y8799180D1*
X2849527Y8520317D1*
X2836223Y8510650D1*
X2821570Y8503187D1*
X2812953Y8500087D1*
X2807290Y8471540D1*
Y8442710D1*
X2492710D1*
Y8757290D1*
X2526073D1*
X2513303Y8776193D1*
X2502570Y8799183D1*
X2495677Y8823600D1*
X2492797Y8848810D1*
X2494007Y8874153D1*
X2499277Y8898973D1*
X2508467Y8922620D1*
X2521343Y8944483D1*
X2537567Y8963993D1*
X2556713Y8980640D1*
X2538780Y8996780D1*
X2522750Y9015547D1*
X2509853Y9036593D1*
X2500407Y9059393D1*
X2494647Y9083393D1*
X2492710Y9108000D1*
X2494647Y9132607D1*
X2500407Y9156607D1*
X2509853Y9179407D1*
X2522750Y9200453D1*
X2538780Y9219220D1*
X2557547Y9235250D1*
X2578593Y9248147D1*
X2601393Y9257593D1*
X2625393Y9263353D1*
X2650000Y9265290D1*
X2674607Y9263353D1*
X2698607Y9257593D1*
X2721407Y9248147D1*
X2742453Y9235250D1*
X2761220Y9219220D1*
X2777250Y9200453D1*
X2790147Y9179407D1*
X2799593Y9156607D1*
X2805353Y9132607D1*
X2807290Y9108000D1*
X2805353Y9083393D1*
X2799593Y9059393D1*
X2790147Y9036593D1*
X2777250Y9015547D1*
X2761220Y8996780D1*
X2742793Y8981020D1*
X2760407Y8966030D1*
X2776983Y8946820D1*
X2790253Y8925197D1*
X2799877Y8901717D1*
X2805600Y8877000D1*
X2807290Y8854000D1*
X2805243Y8828710D1*
X2799157Y8804080D1*
X2789190Y8780747D1*
X2775600Y8759320D1*
X2773993Y8757273D1*
X2790510Y8757290D1*
X3062287Y9029010D1*
X3062533Y9275223D1*
X3065107Y9291463D1*
X3070187Y9307100D1*
X3077650Y9321753D1*
X3087317Y9335057D1*
X3205157Y9453350D1*
X3787690Y10036493D1*
X3794780Y10053613D1*
X3804463Y10069410D1*
X3816497Y10083503D1*
X3830590Y10095537D1*
X3846387Y10105220D1*
X3863337Y10112247D1*
X3360423Y10112210D1*
X3268057Y10020317D1*
X3254753Y10010653D1*
X3240100Y10003187D1*
X3224463Y9998107D1*
X3208223Y9995533D1*
X3084783Y9995210D1*
X3070427Y9985073D1*
X3051583Y9975470D1*
X3031467Y9968933D1*
X3014230Y9966057D1*
X2054787Y9006590D1*
X2054790Y8946193D1*
X2065117Y8933637D1*
X2076780Y8914597D1*
X2085327Y8893970D1*
X2090537Y8872260D1*
X2092290Y8850000D1*
X2090537Y8827740D1*
X2085327Y8806030D1*
X2076780Y8785403D1*
X2065117Y8766363D1*
X2050613Y8749387D1*
X2033637Y8734883D1*
X2014597Y8723220D1*
X1993970Y8714673D1*
X1972260Y8709463D1*
X1950000Y8707710D1*
X1927740Y8709463D1*
X1906030Y8714673D1*
X1885403Y8723220D1*
X1866363Y8734883D1*
X1849387Y8749387D1*
X1834883Y8766363D1*
X1823220Y8785403D1*
X1814673Y8806030D1*
X1809463Y8827740D1*
X1807710Y8850000D1*
X1809463Y8872260D1*
X1814673Y8893970D1*
X1823220Y8914597D1*
X1834883Y8933637D1*
X1845267Y8946160D1*
X1845533Y9058223D1*
X1848107Y9074463D1*
X1853187Y9090100D1*
X1860653Y9104753D1*
X1870317Y9118057D1*
X1988157Y9236350D1*
X2865923Y10114120D1*
X2868933Y10131467D1*
X2875470Y10151583D1*
X2885073Y10170427D1*
X2897503Y10187540D1*
X2912460Y10202497D1*
X2929573Y10214927D1*
X2949620Y10224973D1*
X2929573Y10235073D1*
X2915350Y10245227D1*
X2039440Y10245210D1*
X1933217Y10138360D1*
X1954453Y10131460D1*
X1974347Y10121323D1*
X1992410Y10108197D1*
X2008197Y10092410D1*
X2021323Y10074347D1*
X2031460Y10054453D1*
X2038360Y10033217D1*
X2041850Y10011163D1*
Y9988837D1*
X2038360Y9966783D1*
X2031460Y9945547D1*
X2021323Y9925653D1*
X2008197Y9907590D1*
X1992410Y9891803D1*
X1974347Y9878677D1*
X1954453Y9868540D1*
X1933217Y9861640D1*
X1911163Y9858150D1*
X1888837D1*
X1866783Y9861640D1*
X1845547Y9868540D1*
X1825653Y9878677D1*
X1807590Y9891803D1*
X1791803Y9907590D1*
X1778677Y9925653D1*
X1772780Y9935403D1*
X1761117Y9916363D1*
X1750733Y9903840D1*
X1750467Y9037777D1*
X1747893Y9021537D1*
X1742813Y9005900D1*
X1735350Y8991247D1*
X1725683Y8977943D1*
X1607843Y8859650D1*
X1592323Y8844127D1*
X1592290Y8707710D1*
X1307710D1*
Y8992290D1*
X1444260D1*
X1541213Y9089407D1*
X1541210Y9903623D1*
X1524677Y9925653D1*
X1518780Y9935403D1*
X1507117Y9916363D1*
X1492613Y9899387D1*
X1475637Y9884883D1*
X1456597Y9873220D1*
X1435970Y9864673D1*
X1414260Y9859463D1*
X1392000Y9857710D1*
X1369740Y9859463D1*
X1348030Y9864673D1*
X1327403Y9873220D1*
X1308363Y9884883D1*
X1291387Y9899387D1*
X1276883Y9916363D1*
X1265220Y9935403D1*
X1256673Y9956030D1*
X1251463Y9977740D1*
X1249710Y10000000D1*
X1251463Y10022260D1*
X1256673Y10043970D1*
X1265220Y10064597D1*
X1276883Y10083637D1*
X1291387Y10100613D1*
X1308363Y10115117D1*
X1327403Y10126780D1*
X1348030Y10135327D1*
X1369740Y10140537D1*
X1392000Y10142290D1*
X1414260Y10140537D1*
X1435970Y10135327D1*
X1456597Y10126780D1*
X1475637Y10115117D1*
X1492613Y10100613D1*
X1507117Y10083637D1*
X1518983Y10064163D1*
X1530883Y10083637D1*
X1545387Y10100613D1*
X1562363Y10115117D1*
X1581403Y10126780D1*
X1602030Y10135327D1*
X1623740Y10140537D1*
X1639937Y10142053D1*
X1875950Y10378147D1*
X1859183Y10382380D1*
X1840037Y10390313D1*
X1822363Y10401143D1*
X1806603Y10414603D1*
X1793143Y10430363D1*
X1782313Y10448037D1*
X1774380Y10467183D1*
X1769543Y10487337D1*
X1767917Y10508000D1*
X1769543Y10528663D1*
X1774380Y10548817D1*
X1782313Y10567963D1*
X1793143Y10585637D1*
X1806603Y10601397D1*
X1822363Y10614857D1*
X1840037Y10625687D1*
X1859183Y10633620D1*
X1879337Y10638457D1*
X1900000Y10640083D1*
X1920663Y10638457D1*
X1940817Y10633620D1*
X1959963Y10625687D1*
X1977637Y10614857D1*
X1993397Y10601397D1*
X2006857Y10585637D1*
X2017687Y10567963D1*
X2025620Y10548817D1*
X2030457Y10528663D1*
X2032083Y10508000D1*
X2030457Y10487337D1*
X2025620Y10467183D1*
X2020790Y10454767D1*
X2915137Y10454790D1*
X2929573Y10464927D1*
X2948417Y10474530D1*
X2968533Y10481067D1*
X2989423Y10484373D1*
X3010577D1*
X3031467Y10481067D1*
X3051583Y10474530D1*
X3070427Y10464927D1*
X3087540Y10452497D1*
X3102497Y10437540D1*
X3114927Y10420427D1*
X3124530Y10401583D1*
X3131067Y10381467D1*
X3134373Y10360577D1*
Y10339423D1*
X3131067Y10318533D1*
X3124530Y10298417D1*
X3114927Y10279573D1*
X3102497Y10262460D1*
X3087540Y10247503D1*
X3070427Y10235073D1*
X3050380Y10225027D1*
X3070427Y10214927D1*
X3084650Y10204773D1*
X3156640Y10204790D1*
X3248943Y10296683D1*
X3262247Y10306347D1*
X3276900Y10313813D1*
X3292537Y10318893D1*
X3308777Y10321467D1*
X3475750Y10321790D1*
X4143367D1*
X4143593Y10732723D1*
X4146163Y10748963D1*
X4151247Y10764600D1*
X4158710Y10779253D1*
X4168377Y10792557D1*
X4249463Y10874097D1*
X4261967Y10884777D1*
X4275987Y10893370D1*
X4291177Y10899660D1*
X4307167Y10903500D1*
X4323560Y10904790D1*
X5108223Y10904467D1*
X5124463Y10901893D1*
X5140100Y10896813D1*
X5154753Y10889350D1*
X5168057Y10879683D1*
X5286350Y10761843D1*
X5331163Y10717030D1*
X5359677Y10727983D1*
X5381767Y10734213D1*
X5404277Y10738690D1*
X5427067Y10741390D1*
X5450000Y10742290D1*
X5472933Y10741390D1*
X5495723Y10738690D1*
X5518233Y10734213D1*
X5540323Y10727983D1*
X5561853Y10720040D1*
X5582697Y10710433D1*
X5602720Y10699217D1*
X5621803Y10686467D1*
X5639827Y10672260D1*
X5656680Y10656680D1*
X5672260Y10639827D1*
X5686467Y10621803D1*
X5699217Y10602720D1*
X5713473Y10576103D1*
X5726613Y10588613D1*
X5749753Y10605427D1*
X5775240Y10618413D1*
X5802447Y10627253D1*
X5830697Y10631727D1*
X5859303D1*
X5887553Y10627253D1*
X5914760Y10618413D1*
X5940247Y10605427D1*
X5963387Y10588613D1*
X5983613Y10568387D1*
X6000427Y10545247D1*
X6013413Y10519760D1*
X6022253Y10492553D1*
X6026727Y10464303D1*
Y10435697D1*
X6022253Y10407447D1*
X6013413Y10380240D1*
X6000427Y10354753D1*
X5983613Y10331613D1*
X5963387Y10311387D1*
X5940247Y10294573D1*
X5914760Y10281587D1*
X5887553Y10272747D1*
X5859303Y10268273D1*
X5830697D1*
X5802447Y10272747D1*
X5775240Y10281587D1*
X5749753Y10294573D1*
X5726613Y10311387D1*
X5713633Y10323770D1*
X5699217Y10297280D1*
X5686467Y10278197D1*
X5672260Y10260173D1*
X5656680Y10243320D1*
X5639827Y10227740D1*
X5621803Y10213533D1*
X5602720Y10200783D1*
X5582697Y10189567D1*
X5561853Y10179960D1*
X5540323Y10172017D1*
X5518233Y10165787D1*
X5495723Y10161310D1*
X5472933Y10158610D1*
X5450000Y10157710D1*
X5427067Y10158610D1*
X5404277Y10161310D1*
X5381767Y10165787D1*
X5359677Y10172017D1*
X5338147Y10179960D1*
X5317303Y10189567D1*
X5297280Y10200783D1*
X5278197Y10213533D1*
X5260173Y10227740D1*
X5243320Y10243320D1*
X5227740Y10260173D1*
X5213533Y10278197D1*
X5200783Y10297280D1*
X5189567Y10317303D1*
X5179960Y10338147D1*
X5172017Y10359677D1*
X5165787Y10381767D1*
X5161310Y10404277D1*
X5158610Y10427067D1*
X5157710Y10450000D1*
X5158610Y10472933D1*
X5161310Y10495723D1*
X5165787Y10518233D1*
X5172017Y10540323D1*
X5183150Y10568773D1*
X5056593Y10695210D1*
X4949063D1*
X4979827Y10672260D1*
X4996680Y10656680D1*
X5012260Y10639827D1*
X5026467Y10621803D1*
X5039217Y10602720D1*
X5050433Y10582697D1*
X5060040Y10561853D1*
X5067983Y10540323D1*
X5074213Y10518233D1*
X5078690Y10495723D1*
X5081390Y10472933D1*
X5082290Y10450000D1*
X5081390Y10427067D1*
X5078690Y10404277D1*
X5074213Y10381767D1*
X5067983Y10359677D1*
X5060040Y10338147D1*
X5050433Y10317303D1*
X5039217Y10297280D1*
X5026467Y10278197D1*
X5012260Y10260173D1*
X4996680Y10243320D1*
X4979827Y10227740D1*
X4961803Y10213533D1*
X4942720Y10200783D1*
X4922697Y10189567D1*
X4901853Y10179960D1*
X4880323Y10172017D1*
X4858233Y10165787D1*
X4835723Y10161310D1*
X4812933Y10158610D1*
X4790000Y10157710D1*
X4767067Y10158610D1*
X4744277Y10161310D1*
X4721767Y10165787D1*
X4699677Y10172017D1*
X4678147Y10179960D1*
X4657303Y10189567D1*
X4637280Y10200783D1*
X4618197Y10213533D1*
X4600173Y10227740D1*
X4583320Y10243320D1*
X4567740Y10260173D1*
X4553533Y10278197D1*
X4540783Y10297280D1*
X4524727Y10327807D1*
X4523540Y10325537D1*
X4523590Y5524360D1*
X4548300Y5519790D1*
X5907473D1*
X5928487Y5538207D1*
X5934040Y5542083D1*
X5919097Y5553197D1*
X5902197Y5570097D1*
X5888150Y5589430D1*
X5877303Y5610720D1*
X5869917Y5633450D1*
X5866180Y5657050D1*
X5865867Y5672967D1*
X5468917Y6070343D1*
X5459250Y6083647D1*
X5451787Y6098300D1*
X5446707Y6113937D1*
X5444133Y6130177D1*
X5443810Y6297150D1*
Y8040547D1*
X5419100Y8045200D1*
X5034257D1*
X5029790Y8020490D1*
Y7759670D1*
X5039927Y7745427D1*
X5049973Y7725380D1*
X5058907Y7743490D1*
X5069713Y7759160D1*
X5082617Y7773153D1*
X5097363Y7785187D1*
X5113660Y7795023D1*
X5131177Y7802467D1*
X5149570Y7807370D1*
X5168470Y7809633D1*
X5187500Y7809210D1*
X5206280Y7806110D1*
X5224437Y7800397D1*
X5241607Y7792183D1*
X5257450Y7781633D1*
X5271647Y7768957D1*
X5283917Y7754407D1*
X5294017Y7738270D1*
X5301743Y7720877D1*
X5306940Y7702563D1*
X5309510Y7683703D1*
X5309193Y7662320D1*
X5306067Y7643543D1*
X5300330Y7625393D1*
X5292093Y7608233D1*
X5281520Y7592407D1*
X5268823Y7578227D1*
X5254257Y7565973D1*
X5238110Y7555897D1*
X5220703Y7548193D1*
X5202387Y7543020D1*
X5183523Y7540480D1*
X5164487Y7540620D1*
X5145663Y7543440D1*
X5127427Y7548887D1*
X5110133Y7556843D1*
X5094137Y7567160D1*
X5079753Y7579623D1*
X5067270Y7593993D1*
X5056933Y7609973D1*
X5050023Y7624610D1*
X5039927Y7604573D1*
X5027497Y7587460D1*
X5012540Y7572503D1*
X4995427Y7560073D1*
X4976583Y7550470D1*
X4956467Y7543933D1*
X4935577Y7540627D1*
X4914423D1*
X4893533Y7543933D1*
X4873417Y7550470D1*
X4854573Y7560073D1*
X4837460Y7572503D1*
X4822503Y7587460D1*
X4810073Y7604573D1*
X4800470Y7623417D1*
X4793933Y7643533D1*
X4790627Y7664423D1*
Y7685577D1*
X4793933Y7706467D1*
X4800470Y7726583D1*
X4810073Y7745427D1*
X4820227Y7759650D1*
X4820210Y8044713D1*
X4812780Y8059297D1*
X4807700Y8074933D1*
X4805127Y8091173D1*
X4804803Y8258147D1*
Y8482753D1*
X4789990Y8497827D1*
X4775480Y8517797D1*
X4764277Y8539787D1*
X4756650Y8563260D1*
X4752840Y8587207D1*
X4752870Y6913313D1*
X4911240Y6755717D1*
X4928360Y6748627D1*
X4944157Y6738943D1*
X4958250Y6726910D1*
X4970283Y6712817D1*
X4979967Y6697020D1*
X4987057Y6679900D1*
X4991383Y6661880D1*
X4992837Y6643407D1*
X4991383Y6624933D1*
X4987057Y6606913D1*
X4979967Y6589793D1*
X4970283Y6573997D1*
X4958250Y6559903D1*
X4944157Y6547870D1*
X4928360Y6538187D1*
X4911240Y6531097D1*
X4893220Y6526770D1*
X4874747Y6525317D1*
X4856273Y6526770D1*
X4838253Y6531097D1*
X4821133Y6538187D1*
X4805337Y6547870D1*
X4791243Y6559903D1*
X4779210Y6573997D1*
X4769527Y6589793D1*
X4762170Y6607857D1*
X4568397Y6802017D1*
X4558730Y6815320D1*
X4551267Y6829973D1*
X4546187Y6845610D1*
X4543613Y6861850D1*
X4543290Y7028823D1*
X4543613Y8854690D1*
X4546187Y8870930D1*
X4551267Y8886567D1*
X4558730Y8901220D1*
X4568397Y8914523D1*
X4686237Y9032817D1*
X4752273Y9098853D1*
X4752303Y9265270D1*
X5066883D1*
Y8950690D1*
X5033520D1*
X5043650Y8936257D1*
X5055133Y8913630D1*
X5062830Y8889453D1*
X5066540Y8864353D1*
X5066370Y8841293D1*
X5062290Y8816250D1*
X5054240Y8792190D1*
X5042423Y8769737D1*
X5027150Y8749477D1*
X5008817Y8731937D1*
X5002380Y8727003D1*
X5020813Y8711200D1*
X5036843Y8692433D1*
X5049740Y8671387D1*
X5059187Y8648587D1*
X5064947Y8624587D1*
X5066883Y8599980D1*
X5064947Y8575373D1*
X5059187Y8551373D1*
X5049740Y8528573D1*
X5036843Y8507527D1*
X5020813Y8488760D1*
X5014330Y8482767D1*
X5014383Y8254823D1*
X5490823Y8254457D1*
X5507063Y8251883D1*
X5522700Y8246803D1*
X5538127Y8238820D1*
X5542447Y8246127D1*
X5542770Y8955460D1*
X5545343Y8971700D1*
X5550423Y8987337D1*
X5557890Y9001990D1*
X5567553Y9015293D1*
X5685393Y9133587D1*
X5897710Y9345917D1*
Y9502290D1*
X6152330D1*
X6152250Y10952250D1*
X1097750D1*
Y5603243D1*
X1132943Y5638350D1*
X1130180Y5657050D1*
Y5680950D1*
X1133917Y5704550D1*
X1141303Y5727280D1*
X1152150Y5748570D1*
X1166197Y5767903D1*
X1183097Y5784803D1*
X1198040Y5795917D1*
X1183097Y5807197D1*
X1166197Y5824097D1*
X1152150Y5843430D1*
X1141303Y5864720D1*
X1133917Y5887450D1*
X1130180Y5911050D1*
Y5934950D1*
X1133917Y5958550D1*
X1141303Y5981280D1*
X1152150Y6002570D1*
X1166197Y6021903D1*
X1183097Y6038803D1*
X1198040Y6049917D1*
X1183097Y6061197D1*
X1166197Y6078097D1*
X1152150Y6097430D1*
X1141303Y6118720D1*
X1133917Y6141450D1*
X1130180Y6165050D1*
Y6188950D1*
X1133917Y6212550D1*
X1141303Y6235280D1*
X1152150Y6256570D1*
X1166197Y6275903D1*
X1183097Y6292803D1*
X1198040Y6303917D1*
X1183097Y6315197D1*
X1166197Y6332097D1*
X1152150Y6351430D1*
X1141303Y6372720D1*
X1133917Y6395450D1*
X1130180Y6419050D1*
Y6442950D1*
X1133917Y6466550D1*
X1141303Y6489280D1*
X1152150Y6510570D1*
X1166197Y6529903D1*
X1183097Y6546803D1*
X1198040Y6557917D1*
X1183097Y6569197D1*
X1166197Y6586097D1*
X1152150Y6605430D1*
X1141303Y6626720D1*
X1133917Y6649450D1*
X1130180Y6673050D1*
Y6696950D1*
X1133917Y6720550D1*
X1141303Y6743280D1*
X1152150Y6764570D1*
X1166197Y6783903D1*
X1183097Y6800803D1*
X1198040Y6811917D1*
X1183097Y6823197D1*
X1166197Y6840097D1*
X1152150Y6859430D1*
X1141303Y6880720D1*
X1133917Y6903450D1*
X1130180Y6927050D1*
Y6950950D1*
X1133917Y6974550D1*
X1141303Y6997280D1*
X1152150Y7018570D1*
X1166197Y7037903D1*
X1183097Y7054803D1*
X1198040Y7065917D1*
X1183097Y7077197D1*
X1166197Y7094097D1*
X1152150Y7113430D1*
X1141303Y7134720D1*
X1133917Y7157450D1*
X1130180Y7181050D1*
Y7204950D1*
X1133917Y7228550D1*
X1141303Y7251280D1*
X1152150Y7272570D1*
X1166197Y7291903D1*
X1183097Y7308803D1*
X1202430Y7322850D1*
X1223720Y7333697D1*
X1246450Y7341083D1*
X1270050Y7344820D1*
X1293950D1*
X1317550Y7341083D1*
X1340280Y7333697D1*
X1361570Y7322850D1*
X1380903Y7308803D1*
X1397803Y7291903D1*
X1411850Y7272570D1*
X1422697Y7251280D1*
X1430083Y7228550D1*
X1433820Y7204950D1*
Y7181050D1*
X1430083Y7157450D1*
X1422697Y7134720D1*
X1411850Y7113430D1*
X1397803Y7094097D1*
X1380903Y7077197D1*
X1365960Y7066083D1*
X1380903Y7054803D1*
X1397803Y7037903D1*
X1409073Y7022727D1*
X1991543Y7022533D1*
X2010863Y7018690D1*
X2028750Y7010443D1*
X2044220Y6998250D1*
X2044793Y6997627D1*
X2114683Y6927417D1*
X2125627Y6911040D1*
X2132447Y6892560D1*
X2134760Y6873000D1*
X2134727Y6872153D1*
X2134760Y6510230D1*
X2151573Y6493290D1*
X2305857D1*
X1523677Y10497637D2*
X1520433Y10477167D1*
X1514030Y10457453D1*
X1504620Y10438987D1*
X1492437Y10422220D1*
X1477780Y10407563D1*
X1461013Y10395380D1*
X1442547Y10385970D1*
X1422833Y10379567D1*
X1402363Y10376323D1*
X1381637D1*
X1361167Y10379567D1*
X1341453Y10385970D1*
X1322987Y10395380D1*
X1306220Y10407563D1*
X1291563Y10422220D1*
X1279380Y10438987D1*
X1269970Y10457453D1*
X1263567Y10477167D1*
X1260323Y10497637D1*
Y10518363D1*
X1263567Y10538833D1*
X1269970Y10558547D1*
X1279380Y10577013D1*
X1291563Y10593780D1*
X1306220Y10608437D1*
X1322987Y10620620D1*
X1341453Y10630030D1*
X1361167Y10636433D1*
X1381637Y10639677D1*
X1402363D1*
X1422833Y10636433D1*
X1442547Y10630030D1*
X1461013Y10620620D1*
X1477780Y10608437D1*
X1492437Y10593780D1*
X1504620Y10577013D1*
X1514030Y10558547D1*
X1520433Y10538833D1*
X1523677Y10518363D1*
Y10497637D1*
X1901223Y1762133D2*
X1891197Y1748437D1*
X1878093Y1735333D1*
X1863103Y1724443D1*
X1846590Y1716030D1*
X1828967Y1710303D1*
X1810667Y1707403D1*
X1792133D1*
X1773833Y1710303D1*
X1756210Y1716030D1*
X1739697Y1724443D1*
X1724707Y1735333D1*
X1711603Y1748437D1*
X1700713Y1763427D1*
X1692300Y1779940D1*
X1686573Y1797563D1*
X1683673Y1815863D1*
Y1834397D1*
X1686573Y1852697D1*
X1692300Y1870320D1*
X1700713Y1886833D1*
X1711603Y1901823D1*
X1717627Y1908340D1*
X1717610Y2233290D1*
X1700000Y2231910D1*
X1681527Y2233363D1*
X1663507Y2237690D1*
X1646387Y2244780D1*
X1630590Y2254463D1*
X1617003Y2266030D1*
X1618090Y2250000D1*
X1616637Y2231527D1*
X1612310Y2213507D1*
X1608177Y2202803D1*
X1626693Y2189797D1*
X1639797Y2176693D1*
X1650687Y2161703D1*
X1659100Y2145190D1*
X1664827Y2127567D1*
X1667727Y2109267D1*
Y2090733D1*
X1664827Y2072433D1*
X1659100Y2054810D1*
X1650687Y2038297D1*
X1639797Y2023307D1*
X1633773Y2016790D1*
X1633533Y1742927D1*
X1629690Y1723607D1*
X1621443Y1705720D1*
X1609250Y1690250D1*
X1593780Y1678057D1*
X1575893Y1669810D1*
X1556573Y1665967D1*
X1264250Y1665710D1*
X1175597Y1665967D1*
X1156277Y1669810D1*
X1138390Y1678057D1*
X1122920Y1690250D1*
X1122347Y1690873D1*
X1097753Y1715420D1*
X1097750Y1097750D1*
X3912213D1*
X3895297Y1111740D1*
X1999353Y1111980D1*
X1980033Y1115823D1*
X1962147Y1124070D1*
X1946677Y1136263D1*
X1946103Y1136887D1*
X1921257Y1162053D1*
X1910313Y1178430D1*
X1903493Y1196910D1*
X1901180Y1216470D1*
X1901213Y1217317D1*
X1901180Y1762050D1*
X4667727Y4040733D2*
X4664827Y4022433D1*
X4659100Y4004810D1*
X4650687Y3988297D1*
X4639797Y3973307D1*
X4626693Y3960203D1*
X4611703Y3949313D1*
X4595190Y3940900D1*
X4577567Y3935173D1*
X4559267Y3932273D1*
X4540733D1*
X4522433Y3935173D1*
X4504810Y3940900D1*
X4488297Y3949313D1*
X4473307Y3960203D1*
X4460203Y3973307D1*
X4449313Y3988297D1*
X4440900Y4004810D1*
X4435173Y4022433D1*
X4432273Y4040733D1*
Y4059267D1*
X4435173Y4077567D1*
X4440900Y4095190D1*
X4449313Y4111703D1*
X4460203Y4126693D1*
X4466523Y4133527D1*
X4466510Y4166707D1*
X4454763Y4180590D1*
X4445080Y4196387D1*
X4437990Y4213507D1*
X4433663Y4231527D1*
X4432210Y4250000D1*
X4433663Y4268473D1*
X4437990Y4286493D1*
X4445080Y4303613D1*
X4454763Y4319410D1*
X4466797Y4333503D1*
X4480890Y4345537D1*
X4496687Y4355220D1*
X4513807Y4362310D1*
X4531827Y4366637D1*
X4550300Y4368090D1*
X4568773Y4366637D1*
X4586793Y4362310D1*
X4603913Y4355220D1*
X4619710Y4345537D1*
X4633803Y4333503D1*
X4645837Y4319410D1*
X4655520Y4303613D1*
X4662610Y4286493D1*
X4666937Y4268473D1*
X4668390Y4250000D1*
X4666937Y4231527D1*
X4662610Y4213507D1*
X4655520Y4196387D1*
X4645837Y4180590D1*
X4634073Y4166790D1*
X4634090Y4132797D1*
X4645537Y4119410D1*
X4655220Y4103613D1*
X4662310Y4086493D1*
X4666637Y4068473D1*
X4668090Y4050000D1*
X4667727Y4040733D1*
X3484287Y6877510D2*
X3422233Y6877523D1*
X3433883Y6868867D1*
X3446987Y6855763D1*
X3457877Y6840773D1*
X3466290Y6824260D1*
X3472017Y6806637D1*
X3474917Y6788337D1*
Y6769803D1*
X3472017Y6751503D1*
X3466290Y6733880D1*
X3457877Y6717367D1*
X3446987Y6702377D1*
X3440963Y6695860D1*
X3440723Y5693427D1*
X3436880Y5674107D1*
X3428633Y5656220D1*
X3416440Y5640750D1*
X3400970Y5628557D1*
X3383083Y5620310D1*
X3363763Y5616467D1*
X3352290Y5616273D1*
Y5547710D1*
X3047710D1*
Y5586777D1*
X3029727Y5572927D1*
X3029790Y4738693D1*
X3600453Y4168043D1*
X3618473Y4166637D1*
X3639653Y4161143D1*
X3633603Y4173307D1*
X3622713Y4188297D1*
X3614300Y4204810D1*
X3608573Y4222433D1*
X3605673Y4240733D1*
Y4259267D1*
X3608573Y4277567D1*
X3614300Y4295190D1*
X3622713Y4311703D1*
X3633603Y4326693D1*
X3646707Y4339797D1*
X3661697Y4350687D1*
X3678210Y4359100D1*
X3695833Y4364827D1*
X3714133Y4367727D1*
X3732667D1*
X3750967Y4364827D1*
X3768590Y4359100D1*
X3785103Y4350687D1*
X3800093Y4339797D1*
X3813197Y4326693D1*
X3824087Y4311703D1*
X3832500Y4295190D1*
X3838227Y4277567D1*
X3841127Y4259267D1*
Y4240733D1*
X3838227Y4222433D1*
X3832500Y4204810D1*
X3824087Y4188297D1*
X3813197Y4173307D1*
X3807173Y4166790D1*
X3807190Y1492833D1*
X3824003Y1476010D1*
X3864187D1*
X3861757Y1490263D1*
X3861500Y1782587D1*
Y5811487D1*
X3521177Y6152253D1*
X3510233Y6168630D1*
X3503417Y6187110D1*
X3501100Y6206670D1*
X3501133Y6207517D1*
X3501100Y6860647D1*
X1300000Y3474000D2*
D14*
X1452167D1*
X3215333Y8800000D2*
X3484667D1*
X2492833Y8854000D2*
X2807167D1*
X4909593Y8853980D2*
X5066760D1*
X5175000Y7675000D2*
X5309667D1*
X2257833Y6600000D2*
X2542167D1*
D17*
X1282000Y4907000D3*
D18*
Y5161000D3*
Y5415000D3*
Y5669000D3*
Y5923000D3*
Y6177000D3*
Y6431000D3*
Y6685000D3*
Y6939000D3*
Y7193000D3*
D17*
X3200000Y5700000D3*
D18*
X2946000D3*
D17*
X1300000Y1950000D3*
D18*
Y2204000D3*
Y2458000D3*
Y2712000D3*
Y2966000D3*
Y3220000D3*
Y3474000D3*
Y3728000D3*
Y3982000D3*
Y4236000D3*
D23*
X5450000Y10450000D3*
X5095000Y9950000D3*
X4790000Y10450000D3*
D25*
X3350000Y9050000D3*
Y8800000D3*
X3000000Y10350000D3*
Y10100000D3*
D26*
X2650000Y8600000D3*
D27*
Y9108000D3*
Y8854000D3*
D26*
X4909593Y9107980D3*
D27*
Y8599980D3*
Y8853980D3*
D25*
X4925000Y7675000D3*
X5175000D3*
D30*
X1450000Y8850000D3*
D31*
X1950000D3*
D30*
X2900000Y6600000D3*
D31*
X2400000D3*
D34*
X1900000Y10000000D3*
X1646000D3*
X1392000D3*
D35*
X4050000Y8600000D3*
D36*
Y8854000D3*
Y9108000D3*
D17*
X6018000Y7193000D3*
D18*
Y6939000D3*
Y6685000D3*
Y6431000D3*
Y6177000D3*
Y5923000D3*
Y5669000D3*
Y5415000D3*
Y5161000D3*
Y4907000D3*
D17*
X6050000Y8150000D3*
D18*
Y7896000D3*
Y7642000D3*
D17*
Y9350000D3*
D18*
Y9096000D3*
Y8842000D3*
D17*
X4450000Y3150000D3*
D18*
Y3404000D3*
D17*
X5509700Y3085343D3*
D18*
Y2831343D3*
M02*
