G04 DipTrace 3.0.0.2*
G04 Bottom.gbr*
%MOIN*%
G04 #@! TF.FileFunction,Copper,L2,Bot*
G04 #@! TF.Part,Single*
G04 #@! TA.AperFunction,Conductor*
%ADD13C,0.015748*%
G04 #@! TA.AperFunction,CopperBalancing*
%ADD14C,0.025*%
G04 #@! TA.AperFunction,ComponentPad*
%ADD18R,0.066929X0.066929*%
%ADD19C,0.066929*%
%ADD20C,0.059055*%
G04 #@! TA.AperFunction,ViaPad*
%ADD25C,0.04*%
%FSLAX26Y26*%
G04*
G70*
G90*
G75*
G01*
G04 Bottom*
%LPD*%
X1023622Y2401575D2*
D13*
Y2147323D1*
X1168661D1*
X1200787Y1791339D2*
X1199370Y1789921D1*
Y1395280D1*
X1698154Y1360236D2*
Y1247047D1*
X1771654D1*
X1850394Y2263780D2*
X1988189D1*
Y2188583D1*
X2062992Y2113780D1*
X2349606D1*
X1988189Y2263780D2*
Y3188976D1*
X1948819D1*
X1168661Y2147323D2*
Y2111890D1*
X1437008D1*
X1698504D1*
X1850394Y2263780D1*
X1199370Y1395280D2*
Y746929D1*
X1234803Y711496D1*
X1199370Y676063D1*
X1049173D1*
X1771654Y1247047D2*
Y551181D1*
X1695122Y474650D1*
X1471650D1*
X1234803Y711496D1*
X1437008Y2303150D2*
Y2111890D1*
X1001614Y873622D2*
X1104252Y976260D1*
Y1138740D1*
X1721732Y2003937D2*
Y1830709D1*
X1712598D1*
X1024567Y1340551D2*
X1104252Y1420236D1*
Y1526575D1*
Y1138740D2*
Y1260866D1*
X1024567Y1340551D1*
X1712598Y1830709D2*
X1628228D1*
X1626614Y1832323D1*
X2110571Y2213941D2*
Y2378346D1*
X2146004Y2413780D1*
X2349606D1*
X1299213Y3149563D2*
Y2867795D1*
X1712598Y2283465D2*
Y2362205D1*
X2106299Y2992126D2*
Y3031496D1*
X2204724Y3129921D1*
X1712598Y2362205D2*
Y2834646D1*
X1870079Y2992126D1*
X870709Y823622D2*
Y1833189D1*
X977008Y783307D2*
X1096732D1*
X1194567Y3464567D2*
X1318898D1*
X1515748Y3267717D1*
X2047244D1*
Y2677106D1*
X2110571Y2613780D1*
X2349606D1*
X2165354Y2066929D2*
Y1998031D1*
X2349606Y1813780D1*
X1447480Y2992126D2*
Y3220157D1*
X1334646Y3332992D1*
X1555118Y3444882D2*
X2265276D1*
X2349606Y3360551D1*
Y2713780D1*
X1220472Y2244094D2*
X1377953Y2401575D1*
Y2677165D1*
X1535433Y2834646D1*
Y3051181D1*
X1633858Y3149606D1*
X1141732Y2362205D2*
Y2539370D1*
X964567Y2716535D1*
Y3366142D1*
X1141732Y3543307D1*
X1614173D1*
X1579055Y1437992D2*
X1650594D1*
Y1412717D1*
X1751969D1*
Y1594488D1*
X1650594Y593075D2*
Y1412717D1*
X667256Y1692913D2*
Y1252283D1*
X1024567Y1418307D2*
Y1574134D1*
X1060000Y1609567D1*
X1116378D1*
X1151811Y1574134D1*
Y759055D1*
X1116378Y723622D1*
X1001614D1*
X1428150Y1526575D2*
X1626500D1*
X1692799Y1460276D1*
X823150Y773622D2*
Y1262799D1*
Y1878346D1*
X787717Y1913780D1*
X629921D1*
X485039D1*
X629921Y1850394D2*
Y1913780D1*
X652756Y973622D2*
X551260Y1075118D1*
X487508D1*
X485039Y1813780D2*
Y1732283D1*
Y1618110D1*
X918622D2*
Y1150866D1*
X485039Y1618110D2*
Y1328697D1*
X492126Y1732283D2*
X485039D1*
X719492Y1204724D2*
X593622D1*
X570866Y1227480D1*
Y1870079D1*
X1447835Y1442835D2*
Y1204728D1*
X570866Y1227480D2*
X439949Y1096563D1*
Y773622D1*
X570866Y2007874D2*
X490945D1*
X485039Y2013780D1*
Y2113780D2*
X688976D1*
Y2027559D1*
X717874Y2056457D1*
X1543622D1*
X1579055Y2021024D1*
Y1686339D1*
X1653543Y1611850D1*
Y1594488D1*
X1579055Y1686339D2*
X1830709D1*
Y1363504D1*
X1790039Y1322835D1*
X629921Y1968504D2*
X934409D1*
X977008Y1925906D1*
Y973622D1*
X889764Y2008898D2*
X1224724D1*
X1260157Y1973465D1*
Y773622D1*
X610551Y923622D2*
X732291D1*
Y759055D1*
X767724Y723622D1*
X882835D1*
X918268Y759055D1*
Y1023622D1*
X688976Y1751969D2*
X767724Y1673220D1*
Y959055D1*
X732291Y923622D1*
D25*
X1712598Y2283465D3*
Y2362205D3*
X1870079Y2992126D3*
X2106299D3*
X2204724Y3129921D3*
X1437008Y2303150D3*
X1141732Y2362205D3*
X1220472Y2244094D3*
X1614173Y3543307D3*
X1633858Y3149606D3*
X1259843Y3759843D3*
X1791339Y3208661D3*
X1168661Y2147323D3*
X1023622Y2401575D3*
X1049173Y676063D3*
X1199370Y1395280D3*
X1698154Y1360236D3*
X1948819Y3188976D3*
X1200787Y1791339D3*
X1771654Y1247047D3*
X1850394Y2263780D3*
X1104252Y1138740D3*
X1001614Y873622D3*
X1712598Y1830709D3*
X1626614Y1832323D3*
X1721732Y2003937D3*
X1024567Y1340551D3*
X1104252Y1526575D3*
X2110571Y2213941D3*
X1299213Y2867795D3*
Y3149563D3*
X870709Y1833189D3*
X1096732Y783307D3*
X977008D3*
X870709Y823622D3*
X1194567Y3464567D3*
X2165354Y2066929D3*
X1334646Y3332992D3*
X1447480Y2992126D3*
X1555118Y3444882D3*
X1579055Y1437992D3*
X1650594Y593075D3*
X1751969Y1594488D3*
X667256Y1252283D3*
Y1692913D3*
X1001614Y723622D3*
X1024567Y1418307D3*
X1692799Y1460276D3*
X1428150Y1526575D3*
X823150Y773622D3*
Y1262799D3*
X487508Y1075118D3*
X485039Y1328697D3*
X918622Y1150866D3*
Y1618110D3*
X485039D3*
X652756Y973622D3*
X570866Y1870079D3*
X719492Y1204724D3*
X1447835Y1204728D3*
Y1442835D3*
X439949Y773622D3*
X688976Y2027559D3*
X1653543Y1594488D3*
X1790039Y1322835D3*
X977008Y973622D3*
X629921Y1968504D3*
X1260157Y773622D3*
X889764Y2008898D3*
X918268Y1023622D3*
X688976Y1751969D3*
X610551Y923622D3*
X434685Y3873655D2*
D14*
X2399973D1*
X434685Y3848786D2*
X2399973D1*
X434685Y3823917D2*
X2399973D1*
X434685Y3799049D2*
X1232346D1*
X1287346D2*
X2399973D1*
X434685Y3774180D2*
X1213108D1*
X1306584D2*
X2399973D1*
X434685Y3749311D2*
X1212082D1*
X1307610D2*
X2399973D1*
X434685Y3724442D2*
X1227219D1*
X1292473D2*
X2399973D1*
X434685Y3699574D2*
X2399973D1*
X434685Y3674705D2*
X2399973D1*
X434685Y3649836D2*
X2399973D1*
X434685Y3624967D2*
X2399973D1*
X434685Y3600098D2*
X2399973D1*
X434685Y3575230D2*
X1126536D1*
X1650481D2*
X2399973D1*
X434685Y3550361D2*
X1097727D1*
X1662639D2*
X2399973D1*
X434685Y3525492D2*
X1072825D1*
X1659612D2*
X2399973D1*
X434685Y3500623D2*
X1047971D1*
X1150139D2*
X1162750D1*
X1226409D2*
X1593235D1*
X1635100D2*
X2399973D1*
X434685Y3475755D2*
X1023118D1*
X1125286D2*
X1146946D1*
X1358782D2*
X1517844D1*
X2282854D2*
X2399973D1*
X434685Y3450886D2*
X998215D1*
X1100383D2*
X1147629D1*
X1383684D2*
X1506516D1*
X2310344D2*
X2399973D1*
X434685Y3426017D2*
X973362D1*
X1075530D2*
X1166086D1*
X1223040D2*
X1306370D1*
X1408538D2*
X1510129D1*
X2335247D2*
X2399973D1*
X434685Y3401148D2*
X948508D1*
X1050676D2*
X1331223D1*
X1433391D2*
X1536838D1*
X1573381D2*
X2257932D1*
X2360100D2*
X2399973D1*
X434685Y3376280D2*
X929221D1*
X1025774D2*
X1315207D1*
X1458245D2*
X2282786D1*
X2382659D2*
X2399973D1*
X434685Y3351411D2*
X927707D1*
X1001409D2*
X1289475D1*
X1483147D2*
X2307688D1*
X2386467D2*
X2399924D1*
X434685Y3326542D2*
X927707D1*
X1001409D2*
X1286106D1*
X1392180D2*
X1405832D1*
X1508000D2*
X2312766D1*
X2386467D2*
X2399924D1*
X434685Y3301673D2*
X927707D1*
X1001409D2*
X1297776D1*
X1417034D2*
X1430686D1*
X2054924D2*
X2312766D1*
X2386467D2*
X2399924D1*
X434685Y3276804D2*
X927707D1*
X1001409D2*
X1339768D1*
X1441936D2*
X1455588D1*
X2082854D2*
X2312766D1*
X2386467D2*
X2399924D1*
X434685Y3251936D2*
X927707D1*
X1001409D2*
X1364622D1*
X1466790D2*
X1480442D1*
X2084075D2*
X2312766D1*
X2386467D2*
X2399924D1*
X434685Y3227067D2*
X927707D1*
X1001409D2*
X1389475D1*
X1483635D2*
X1746165D1*
X1836516D2*
X1919651D1*
X2084075D2*
X2312766D1*
X2386467D2*
X2399924D1*
X434685Y3202198D2*
X927707D1*
X1001409D2*
X1410618D1*
X1484319D2*
X1742795D1*
X1839885D2*
X1901731D1*
X2084075D2*
X2312766D1*
X2386467D2*
X2399924D1*
X434685Y3177329D2*
X927707D1*
X1001409D2*
X1259446D1*
X1339006D2*
X1410618D1*
X1484319D2*
X1594016D1*
X1673674D2*
X1754514D1*
X1828166D2*
X1901291D1*
X2084075D2*
X2312766D1*
X2386467D2*
X2399924D1*
X434685Y3152461D2*
X927707D1*
X1001409D2*
X1250315D1*
X1348137D2*
X1410618D1*
X1484319D2*
X1584934D1*
X1682756D2*
X1917551D1*
X2084075D2*
X2161545D1*
X2247893D2*
X2312766D1*
X2386467D2*
X2399924D1*
X434685Y3127592D2*
X927707D1*
X1001409D2*
X1255735D1*
X1342668D2*
X1410618D1*
X1484319D2*
X1560764D1*
X1677288D2*
X1951340D1*
X2084075D2*
X2151291D1*
X2253655D2*
X2312766D1*
X2386467D2*
X2399924D1*
X434685Y3102723D2*
X927707D1*
X1001409D2*
X1262375D1*
X1336077D2*
X1410618D1*
X1484319D2*
X1535911D1*
X1638079D2*
X1951340D1*
X2084075D2*
X2126438D1*
X2244915D2*
X2312766D1*
X2386467D2*
X2399924D1*
X434685Y3077854D2*
X927707D1*
X1001409D2*
X1262375D1*
X1336077D2*
X1410618D1*
X1484319D2*
X1511008D1*
X1613176D2*
X1951340D1*
X2084075D2*
X2101584D1*
X2203752D2*
X2312766D1*
X2386467D2*
X2399924D1*
X434685Y3052986D2*
X927707D1*
X1001409D2*
X1262375D1*
X1336077D2*
X1410618D1*
X1484319D2*
X1498606D1*
X1588323D2*
X1951340D1*
X2178850D2*
X2312766D1*
X2386467D2*
X2399924D1*
X434685Y3028117D2*
X927707D1*
X1001409D2*
X1262375D1*
X1336077D2*
X1410618D1*
X1484319D2*
X1498557D1*
X1572307D2*
X1838157D1*
X1901995D2*
X1951340D1*
X2153997D2*
X2312766D1*
X2386467D2*
X2399924D1*
X434685Y3003248D2*
X927707D1*
X1001409D2*
X1262375D1*
X1336077D2*
X1399827D1*
X1572307D2*
X1822434D1*
X1917717D2*
X1951340D1*
X2153948D2*
X2312766D1*
X2386467D2*
X2399924D1*
X434685Y2978379D2*
X927707D1*
X1001409D2*
X1262375D1*
X1336077D2*
X1400559D1*
X1572307D2*
X1805247D1*
X1916985D2*
X1951340D1*
X2153215D2*
X2312766D1*
X2386467D2*
X2399924D1*
X434685Y2953511D2*
X927707D1*
X1001409D2*
X1262375D1*
X1336077D2*
X1419065D1*
X1475872D2*
X1498557D1*
X1572307D2*
X1780393D1*
X1898479D2*
X1951340D1*
X2134709D2*
X2312766D1*
X2386467D2*
X2399924D1*
X434685Y2928642D2*
X927707D1*
X1001409D2*
X1262375D1*
X1336077D2*
X1498557D1*
X1572307D2*
X1755491D1*
X1857659D2*
X1951340D1*
X2084075D2*
X2312766D1*
X2386467D2*
X2399924D1*
X434685Y2903773D2*
X927707D1*
X1001409D2*
X1262375D1*
X1336077D2*
X1498557D1*
X1572307D2*
X1730637D1*
X1832805D2*
X1951340D1*
X2084075D2*
X2312766D1*
X2386467D2*
X2399924D1*
X434685Y2878904D2*
X927707D1*
X1001409D2*
X1251584D1*
X1346868D2*
X1498557D1*
X1572307D2*
X1705784D1*
X1807952D2*
X1951340D1*
X2084075D2*
X2312766D1*
X2386467D2*
X2399924D1*
X434685Y2854035D2*
X927707D1*
X1001409D2*
X1252317D1*
X1346135D2*
X1498557D1*
X1572307D2*
X1681760D1*
X1783049D2*
X1951340D1*
X2084075D2*
X2312766D1*
X2386467D2*
X2399924D1*
X434685Y2829167D2*
X927707D1*
X1001409D2*
X1270823D1*
X1327581D2*
X1478879D1*
X1571868D2*
X1675754D1*
X1758196D2*
X1951340D1*
X2084075D2*
X2312766D1*
X2386467D2*
X2399924D1*
X434685Y2804298D2*
X927707D1*
X1001409D2*
X1454026D1*
X1556145D2*
X1675754D1*
X1749456D2*
X1951340D1*
X2084075D2*
X2312766D1*
X2386467D2*
X2399924D1*
X434685Y2779429D2*
X927707D1*
X1001409D2*
X1429123D1*
X1531291D2*
X1675754D1*
X1749456D2*
X1951340D1*
X2084075D2*
X2312766D1*
X2386467D2*
X2399924D1*
X531487Y2754560D2*
X927707D1*
X1001409D2*
X1404270D1*
X1506438D2*
X1675754D1*
X1749456D2*
X1951340D1*
X2084075D2*
X2287131D1*
X545354Y2729692D2*
X927707D1*
X1002483D2*
X1379416D1*
X1481584D2*
X1675754D1*
X1749456D2*
X1951340D1*
X2084075D2*
X2287131D1*
X546819Y2704823D2*
X929758D1*
X1027385D2*
X1354514D1*
X1456682D2*
X1675754D1*
X1749456D2*
X1951340D1*
X2084075D2*
X2287131D1*
X537053Y2679954D2*
X950071D1*
X1052239D2*
X1341233D1*
X1431829D2*
X1675754D1*
X1749456D2*
X1951340D1*
X2095500D2*
X2287131D1*
X530998Y2655085D2*
X974924D1*
X1077092D2*
X1341086D1*
X1414788D2*
X1675754D1*
X1749456D2*
X1951340D1*
X2120354D2*
X2287131D1*
X545207Y2630217D2*
X999827D1*
X1101946D2*
X1341086D1*
X1414788D2*
X1675754D1*
X1749456D2*
X1951340D1*
X2025041D2*
X2043040D1*
X546916Y2605348D2*
X1024680D1*
X1126848D2*
X1341086D1*
X1414788D2*
X1675754D1*
X1749456D2*
X1951340D1*
X2025041D2*
X2067942D1*
X537395Y2580479D2*
X1049534D1*
X1151702D2*
X1341086D1*
X1414788D2*
X1675754D1*
X1749456D2*
X1951340D1*
X2025041D2*
X2099631D1*
X530510Y2555610D2*
X1074387D1*
X1174504D2*
X1341086D1*
X1414788D2*
X1675754D1*
X1749456D2*
X1951340D1*
X2025041D2*
X2304172D1*
X545061Y2530741D2*
X1099290D1*
X1178606D2*
X1341086D1*
X1414788D2*
X1675754D1*
X1749456D2*
X1951340D1*
X2025041D2*
X2289622D1*
X546965Y2505873D2*
X1104856D1*
X1178606D2*
X1341086D1*
X1414788D2*
X1675754D1*
X1749456D2*
X1951340D1*
X2025041D2*
X2287668D1*
X537737Y2481004D2*
X1104856D1*
X1178606D2*
X1341086D1*
X1414788D2*
X1675754D1*
X1749456D2*
X1951340D1*
X2025041D2*
X2296897D1*
X529973Y2456135D2*
X1104856D1*
X1178606D2*
X1341086D1*
X1414788D2*
X1675754D1*
X1749456D2*
X1951340D1*
X2025041D2*
X2304661D1*
X544866Y2431266D2*
X985325D1*
X1061907D2*
X1104856D1*
X1178606D2*
X1341086D1*
X1414788D2*
X1675754D1*
X1749456D2*
X1951340D1*
X2025041D2*
X2112424D1*
X547063Y2406398D2*
X974875D1*
X1072356D2*
X1104856D1*
X1178606D2*
X1331711D1*
X1414788D2*
X1675754D1*
X1749456D2*
X1951340D1*
X2025041D2*
X2087522D1*
X538079Y2381529D2*
X979172D1*
X1068059D2*
X1096946D1*
X1186516D2*
X1306809D1*
X1408342D2*
X1667795D1*
X1757366D2*
X1951340D1*
X2025041D2*
X2073850D1*
X529436Y2356660D2*
X986790D1*
X1060491D2*
X1093088D1*
X1190373D2*
X1281956D1*
X1384123D2*
X1663938D1*
X1761272D2*
X1951340D1*
X2025041D2*
X2073704D1*
X2147405D2*
X2305198D1*
X544719Y2331791D2*
X986790D1*
X1060491D2*
X1104075D1*
X1179387D2*
X1257102D1*
X1359270D2*
X1397873D1*
X1476116D2*
X1674924D1*
X1750286D2*
X1951340D1*
X2025041D2*
X2073704D1*
X2147405D2*
X2289915D1*
X547112Y2306923D2*
X986790D1*
X1060491D2*
X1232200D1*
X1334368D2*
X1388157D1*
X1485832D2*
X1669944D1*
X1755217D2*
X1830588D1*
X1870207D2*
X1951340D1*
X2025041D2*
X2073704D1*
X2147405D2*
X2287522D1*
X538420Y2282054D2*
X986790D1*
X1060491D2*
X1191135D1*
X1309514D2*
X1393088D1*
X1480950D2*
X1663645D1*
X1761565D2*
X1805149D1*
X2025041D2*
X2073704D1*
X2147405D2*
X2296213D1*
X528899Y2257185D2*
X986790D1*
X1060491D2*
X1173362D1*
X1284661D2*
X1400168D1*
X1473870D2*
X1671750D1*
X1753459D2*
X1792698D1*
X2025041D2*
X2073704D1*
X2147405D2*
X2327317D1*
X2371916D2*
X2399973D1*
X544573Y2232316D2*
X656418D1*
X721526D2*
X986790D1*
X1060491D2*
X1173020D1*
X1267961D2*
X1400168D1*
X1473870D2*
X1767844D1*
X2025041D2*
X2065354D1*
X2155754D2*
X2399973D1*
X547161Y2207448D2*
X635129D1*
X742815D2*
X986790D1*
X1060491D2*
X1189377D1*
X1251604D2*
X1400168D1*
X1473870D2*
X1742991D1*
X1845159D2*
X1951340D1*
X2025041D2*
X2062034D1*
X2159123D2*
X2399973D1*
X538762Y2182579D2*
X630491D1*
X747454D2*
X986790D1*
X1060491D2*
X1135862D1*
X1201457D2*
X1400168D1*
X1473870D2*
X1718088D1*
X1820256D2*
X1951877D1*
X2045256D2*
X2073752D1*
X2147405D2*
X2399973D1*
X528362Y2157710D2*
X637571D1*
X740373D2*
X986790D1*
X1216497D2*
X1400168D1*
X1473870D2*
X1693235D1*
X1795403D2*
X1967991D1*
X2070159D2*
X2306321D1*
X720061Y2132841D2*
X989963D1*
X1770549D2*
X1992844D1*
X725823Y2107972D2*
X1132053D1*
X1745647D2*
X2017698D1*
X1719768Y2083104D2*
X2045041D1*
X1592913Y2058235D2*
X2117161D1*
X1613616Y2033366D2*
X2128489D1*
X1276213Y2008497D2*
X1540500D1*
X1615911D2*
X2128489D1*
X1295452Y1983629D2*
X1542209D1*
X1615911D2*
X2131663D1*
X1297014Y1958760D2*
X1542209D1*
X1615911D2*
X2153538D1*
X818694Y1933891D2*
X917942D1*
X1297014D2*
X1542209D1*
X1615911D2*
X2178391D1*
X843547Y1909022D2*
X940159D1*
X1297014D2*
X1542209D1*
X1615911D2*
X2203293D1*
X859514Y1884154D2*
X940159D1*
X1297014D2*
X1542209D1*
X1615911D2*
X2228147D1*
X911663Y1859285D2*
X940159D1*
X1297014D2*
X1542209D1*
X1615911D2*
X2253000D1*
X919670Y1834416D2*
X940159D1*
X1297014D2*
X1542209D1*
X1615911D2*
X2277903D1*
X913225Y1809547D2*
X940159D1*
X1297014D2*
X1542209D1*
X1615911D2*
X2287278D1*
X907561Y1784679D2*
X940159D1*
X1297014D2*
X1542209D1*
X1615911D2*
X2294700D1*
X907561Y1759810D2*
X940159D1*
X1297014D2*
X1542209D1*
X1615911D2*
X2320969D1*
X2378215D2*
X2399973D1*
X907561Y1734941D2*
X940159D1*
X1297014D2*
X1542209D1*
X1615911D2*
X2399973D1*
X907561Y1710072D2*
X940159D1*
X1297014D2*
X1542209D1*
X1858049D2*
X2399973D1*
X907561Y1685203D2*
X940159D1*
X1297014D2*
X1542209D1*
X1867571D2*
X2399973D1*
X1297014Y1660335D2*
X1553977D1*
X1867571D2*
X2399973D1*
X1297014Y1635466D2*
X1578831D1*
X1867571D2*
X2399973D1*
X1297014Y1610597D2*
X1603733D1*
X1867571D2*
X2399973D1*
X1297014Y1585728D2*
X1605393D1*
X1867571D2*
X2399973D1*
X1062395Y1560860D2*
X1113987D1*
X1297014D2*
X1394260D1*
X1867571D2*
X2399973D1*
X1061418Y1535991D2*
X1114963D1*
X1297014D2*
X1380100D1*
X1867571D2*
X2399973D1*
X1061418Y1511122D2*
X1114963D1*
X1297014D2*
X1381809D1*
X1867571D2*
X2399973D1*
X1061418Y1486253D2*
X1114963D1*
X1297014D2*
X1402512D1*
X1466936D2*
X1615745D1*
X1867571D2*
X2399973D1*
X1061418Y1461385D2*
X1114963D1*
X1297014D2*
X1402707D1*
X1492961D2*
X1536399D1*
X1867571D2*
X2399973D1*
X1069866Y1436516D2*
X1114963D1*
X1297014D2*
X1399290D1*
X1496379D2*
X1530100D1*
X1867571D2*
X2399973D1*
X1073088Y1411647D2*
X1114963D1*
X1297014D2*
X1410862D1*
X1484807D2*
X1538254D1*
X1867571D2*
X2399973D1*
X1061223Y1386778D2*
X1114963D1*
X1297014D2*
X1410959D1*
X1484709D2*
X1613743D1*
X1867571D2*
X2399973D1*
X1013860Y1361909D2*
X1114963D1*
X1297014D2*
X1410959D1*
X1484709D2*
X1613743D1*
X1867522D2*
X2399973D1*
X1013860Y1337041D2*
X1114963D1*
X1297014D2*
X1410959D1*
X1484709D2*
X1613743D1*
X1855315D2*
X2399973D1*
X1013860Y1312172D2*
X1114963D1*
X1297014D2*
X1410959D1*
X1484709D2*
X1613743D1*
X1837786D2*
X2399973D1*
X1013860Y1287303D2*
X1114963D1*
X1297014D2*
X1410959D1*
X1484709D2*
X1613743D1*
X1822502D2*
X2399973D1*
X1013860Y1262434D2*
X1114963D1*
X1297014D2*
X1410959D1*
X1484709D2*
X1613743D1*
X1818010D2*
X2399973D1*
X1013860Y1237566D2*
X1114963D1*
X1297014D2*
X1410959D1*
X1484709D2*
X1613743D1*
X1819670D2*
X2399973D1*
X1013860Y1212697D2*
X1114963D1*
X1297014D2*
X1399534D1*
X1496135D2*
X1613743D1*
X1808489D2*
X2399973D1*
X1013860Y1187828D2*
X1114963D1*
X1297014D2*
X1402024D1*
X1493645D2*
X1613743D1*
X1687444D2*
X1734788D1*
X1808489D2*
X2399973D1*
X1013860Y1162959D2*
X1114963D1*
X1297014D2*
X1424924D1*
X1470745D2*
X1613743D1*
X1687444D2*
X1734788D1*
X1808489D2*
X2399973D1*
X1013860Y1138091D2*
X1114963D1*
X1297014D2*
X1613743D1*
X1687444D2*
X1734788D1*
X1808489D2*
X2399973D1*
X1013860Y1113222D2*
X1114963D1*
X1297014D2*
X1613743D1*
X1687444D2*
X1734788D1*
X1808489D2*
X2399973D1*
X1013860Y1088353D2*
X1114963D1*
X1297014D2*
X1613743D1*
X1687444D2*
X1734788D1*
X1808489D2*
X2399973D1*
X1013860Y1063484D2*
X1114963D1*
X1297014D2*
X1613743D1*
X1687444D2*
X1734788D1*
X1808489D2*
X2399973D1*
X518791Y1038616D2*
X536692D1*
X1013860D2*
X1114963D1*
X1297014D2*
X1613743D1*
X1687444D2*
X1734788D1*
X1808489D2*
X2399973D1*
X476799Y1013747D2*
X561545D1*
X1013860D2*
X1114963D1*
X1297014D2*
X1613743D1*
X1687444D2*
X1734788D1*
X1808489D2*
X2399973D1*
X476799Y988878D2*
X586399D1*
X1023430D2*
X1114963D1*
X1297014D2*
X1613743D1*
X1687444D2*
X1734788D1*
X1808489D2*
X2399973D1*
X476799Y964009D2*
X585032D1*
X1024993D2*
X1114963D1*
X1297014D2*
X1613743D1*
X1687444D2*
X1734788D1*
X1808489D2*
X2399973D1*
X476799Y939140D2*
X564231D1*
X1010686D2*
X1114963D1*
X1297014D2*
X1613743D1*
X1687444D2*
X1734788D1*
X1808489D2*
X2399973D1*
X476799Y914272D2*
X562522D1*
X955120D2*
X1114963D1*
X1297014D2*
X1613743D1*
X1687444D2*
X1734788D1*
X1808489D2*
X2399973D1*
X476799Y889403D2*
X576584D1*
X769133D2*
X786301D1*
X955120D2*
X1114963D1*
X1297014D2*
X1613743D1*
X1687444D2*
X1734788D1*
X1808489D2*
X2399973D1*
X476799Y864534D2*
X695432D1*
X769133D2*
X786301D1*
X955120D2*
X1114963D1*
X1297014D2*
X1613743D1*
X1687444D2*
X1734788D1*
X1808489D2*
X2399973D1*
X476799Y839665D2*
X695432D1*
X769133D2*
X786301D1*
X955120D2*
X1114963D1*
X1297014D2*
X1613743D1*
X1687444D2*
X1734788D1*
X1808489D2*
X2399973D1*
X476799Y814797D2*
X695432D1*
X769133D2*
X786301D1*
X1297014D2*
X1613743D1*
X1687444D2*
X1734788D1*
X1808489D2*
X2399973D1*
X485979Y789928D2*
X695432D1*
X1306194D2*
X1613743D1*
X1687444D2*
X1734788D1*
X1808489D2*
X2399973D1*
X488127Y765059D2*
X695432D1*
X1308342D2*
X1613743D1*
X1687444D2*
X1734788D1*
X1808489D2*
X2399973D1*
X474748Y740190D2*
X701096D1*
X1294963D2*
X1613743D1*
X1687444D2*
X1734788D1*
X1808489D2*
X2399973D1*
X434685Y715322D2*
X724924D1*
X925627D2*
X953391D1*
X1282073D2*
X1613743D1*
X1687444D2*
X1734788D1*
X1808489D2*
X2399973D1*
X434685Y690453D2*
X756272D1*
X894280D2*
X966526D1*
X1306926D2*
X1613743D1*
X1687444D2*
X1734788D1*
X1808489D2*
X2399973D1*
X434685Y665584D2*
X1001389D1*
X1331780D2*
X1613743D1*
X1687444D2*
X1734788D1*
X1808489D2*
X2399973D1*
X434685Y640715D2*
X1016477D1*
X1081877D2*
X1254514D1*
X1356682D2*
X1613743D1*
X1687444D2*
X1734788D1*
X1808489D2*
X2399973D1*
X434685Y615846D2*
X1279368D1*
X1381536D2*
X1607541D1*
X1693645D2*
X1734788D1*
X1808489D2*
X2399973D1*
X434685Y590978D2*
X1304221D1*
X1406389D2*
X1601633D1*
X1699553D2*
X1734788D1*
X1808489D2*
X2399973D1*
X434685Y566109D2*
X1329123D1*
X1431291D2*
X1610227D1*
X1690959D2*
X1734788D1*
X1808489D2*
X2399973D1*
X434685Y541240D2*
X1353977D1*
X1456145D2*
X1710618D1*
X1807024D2*
X2399973D1*
X434685Y516371D2*
X1378831D1*
X1480998D2*
X1685764D1*
X1787932D2*
X2399973D1*
X434685Y491503D2*
X1403733D1*
X1763079D2*
X2399973D1*
X434685Y466634D2*
X1428586D1*
X1738176D2*
X2399973D1*
X434685Y441765D2*
X1459202D1*
X1707561D2*
X2399973D1*
X518094Y2163747D2*
X523978Y2159371D1*
X530631Y2152718D1*
X534148Y2148119D1*
X646807Y2148146D1*
X641212Y2155769D1*
X637221Y2163602D1*
X634505Y2171962D1*
X633129Y2180644D1*
Y2189435D1*
X634505Y2198117D1*
X637221Y2206477D1*
X641212Y2214310D1*
X646379Y2221421D1*
X652595Y2227637D1*
X659706Y2232804D1*
X667539Y2236795D1*
X675899Y2239511D1*
X684581Y2240886D1*
X693372D1*
X702054Y2239511D1*
X710414Y2236795D1*
X718247Y2232804D1*
X725358Y2227637D1*
X731574Y2221421D1*
X736741Y2214310D1*
X740732Y2206477D1*
X743448Y2198117D1*
X744823Y2189435D1*
Y2180644D1*
X743448Y2171962D1*
X740732Y2163602D1*
X736741Y2155769D1*
X731574Y2148657D1*
X725358Y2142442D1*
X718247Y2137275D1*
X715443Y2135705D1*
X719597Y2129381D1*
X721661Y2124399D1*
X722919Y2119156D1*
X723343Y2113780D1*
Y2090781D1*
X1141556Y2090823D1*
X1138041Y2096288D1*
X1135977Y2101270D1*
X1134718Y2106514D1*
X1134308Y2112216D1*
X1131161Y2112957D1*
X1020926Y2113063D1*
X1015599Y2113906D1*
X1010471Y2115573D1*
X1005666Y2118021D1*
X1001303Y2121191D1*
X997490Y2125004D1*
X994320Y2129367D1*
X991872Y2134171D1*
X990205Y2139300D1*
X989362Y2144626D1*
X989256Y2247323D1*
Y2370223D1*
X983981Y2377283D1*
X980669Y2383783D1*
X978415Y2390721D1*
X977273Y2397927D1*
Y2405223D1*
X978415Y2412428D1*
X980669Y2419367D1*
X983981Y2425867D1*
X988269Y2431769D1*
X993428Y2436928D1*
X999330Y2441216D1*
X1005830Y2444528D1*
X1012769Y2446782D1*
X1019974Y2447924D1*
X1027270D1*
X1034475Y2446782D1*
X1041414Y2444528D1*
X1047914Y2441216D1*
X1053816Y2436928D1*
X1058975Y2431769D1*
X1063263Y2425867D1*
X1066575Y2419367D1*
X1068830Y2412428D1*
X1069971Y2405223D1*
Y2397927D1*
X1068830Y2390721D1*
X1066575Y2383783D1*
X1063263Y2377283D1*
X1057978Y2370302D1*
X1057988Y2181702D1*
X1137343Y2181689D1*
X1144369Y2186964D1*
X1150870Y2190276D1*
X1157808Y2192530D1*
X1165014Y2193672D1*
X1172309D1*
X1179515Y2192530D1*
X1186453Y2190276D1*
X1192953Y2186964D1*
X1198856Y2182676D1*
X1204014Y2177517D1*
X1208302Y2171615D1*
X1211615Y2165115D1*
X1213869Y2158176D1*
X1215010Y2150971D1*
X1215112Y2146254D1*
X1402695Y2146256D1*
X1402642Y2271802D1*
X1397367Y2278858D1*
X1394055Y2285358D1*
X1391800Y2292296D1*
X1390659Y2299502D1*
Y2306797D1*
X1391800Y2314003D1*
X1394055Y2320941D1*
X1397367Y2327442D1*
X1401655Y2333344D1*
X1406814Y2338502D1*
X1412716Y2342791D1*
X1419216Y2346103D1*
X1426155Y2348357D1*
X1433360Y2349498D1*
X1440656D1*
X1447861Y2348357D1*
X1454800Y2346103D1*
X1461300Y2342791D1*
X1467202Y2338502D1*
X1472361Y2333344D1*
X1476649Y2327442D1*
X1479961Y2320941D1*
X1482215Y2314003D1*
X1483357Y2306797D1*
Y2299502D1*
X1482215Y2292296D1*
X1479961Y2285358D1*
X1476649Y2278858D1*
X1471364Y2271877D1*
X1471374Y2146265D1*
X1684322Y2146256D1*
X1803920Y2265907D1*
X1805186Y2274633D1*
X1807441Y2281571D1*
X1810753Y2288072D1*
X1815041Y2293974D1*
X1820199Y2299132D1*
X1826102Y2303421D1*
X1832602Y2306733D1*
X1839540Y2308987D1*
X1846746Y2310128D1*
X1854041D1*
X1861247Y2308987D1*
X1868185Y2306733D1*
X1874686Y2303421D1*
X1881666Y2298135D1*
X1953860Y2298146D1*
X1953823Y3142735D1*
X1945171Y3142628D1*
X1937966Y3143769D1*
X1931027Y3146023D1*
X1924527Y3149335D1*
X1918625Y3153623D1*
X1913466Y3158782D1*
X1909178Y3164684D1*
X1905866Y3171185D1*
X1903611Y3178123D1*
X1902470Y3185329D1*
Y3192624D1*
X1903611Y3199830D1*
X1905866Y3206768D1*
X1909178Y3213268D1*
X1913466Y3219171D1*
X1918625Y3224329D1*
X1924527Y3228617D1*
X1931027Y3231930D1*
X1934744Y3233350D1*
X1830691D1*
X1834292Y3226453D1*
X1836546Y3219515D1*
X1837687Y3212309D1*
Y3205014D1*
X1836546Y3197808D1*
X1834292Y3190870D1*
X1830980Y3184369D1*
X1826691Y3178467D1*
X1821533Y3173309D1*
X1815631Y3169020D1*
X1809130Y3165708D1*
X1802192Y3163454D1*
X1794986Y3162313D1*
X1787691D1*
X1780485Y3163454D1*
X1773547Y3165708D1*
X1767047Y3169020D1*
X1761144Y3173309D1*
X1755986Y3178467D1*
X1751698Y3184369D1*
X1748385Y3190870D1*
X1746131Y3197808D1*
X1744990Y3205014D1*
Y3212309D1*
X1746131Y3219515D1*
X1748385Y3226453D1*
X1751975Y3233368D1*
X1513052Y3233456D1*
X1507725Y3234300D1*
X1502597Y3235966D1*
X1497792Y3238415D1*
X1493429Y3241584D1*
X1420737Y3314127D1*
X1304623Y3430240D1*
X1225880Y3430201D1*
X1218859Y3424926D1*
X1212359Y3421614D1*
X1205420Y3419359D1*
X1198215Y3418218D1*
X1190919D1*
X1183714Y3419359D1*
X1176775Y3421614D1*
X1170275Y3424926D1*
X1164373Y3429214D1*
X1159214Y3434373D1*
X1154926Y3440275D1*
X1151614Y3446775D1*
X1149359Y3453714D1*
X1148218Y3460919D1*
Y3468215D1*
X1149359Y3475420D1*
X1151614Y3482359D1*
X1154926Y3488859D1*
X1159214Y3494761D1*
X1164373Y3499920D1*
X1170275Y3504208D1*
X1176775Y3507520D1*
X1180818Y3508958D1*
X1155921Y3508941D1*
X998889Y3351863D1*
X998933Y2730741D1*
X1167865Y2561689D1*
X1171034Y2557326D1*
X1173482Y2552521D1*
X1175149Y2547393D1*
X1175993Y2542066D1*
X1176098Y2439370D1*
Y2393520D1*
X1181373Y2386497D1*
X1184685Y2379996D1*
X1186940Y2373058D1*
X1188081Y2365852D1*
Y2358557D1*
X1186940Y2351351D1*
X1184685Y2344413D1*
X1181373Y2337913D1*
X1177085Y2332011D1*
X1171927Y2326852D1*
X1166024Y2322564D1*
X1159524Y2319252D1*
X1152586Y2316997D1*
X1145380Y2315856D1*
X1138085D1*
X1130879Y2316997D1*
X1123941Y2319252D1*
X1117440Y2322564D1*
X1111538Y2326852D1*
X1106379Y2332011D1*
X1102091Y2337913D1*
X1098779Y2344413D1*
X1096525Y2351351D1*
X1095383Y2358557D1*
Y2365852D1*
X1096525Y2373058D1*
X1098779Y2379996D1*
X1102091Y2386497D1*
X1107376Y2393477D1*
X1107366Y2525144D1*
X938435Y2694216D1*
X935265Y2698579D1*
X932817Y2703384D1*
X931150Y2708513D1*
X930307Y2713839D1*
X930201Y2816535D1*
X930307Y3368838D1*
X931150Y3374164D1*
X932817Y3379293D1*
X935265Y3384098D1*
X938435Y3388461D1*
X1010977Y3461153D1*
X1119413Y3569439D1*
X1123776Y3572609D1*
X1128581Y3575057D1*
X1133710Y3576724D1*
X1139036Y3577567D1*
X1241732Y3577673D1*
X1582894D1*
X1589881Y3582948D1*
X1596381Y3586260D1*
X1603320Y3588515D1*
X1610525Y3589656D1*
X1617821D1*
X1625027Y3588515D1*
X1631965Y3586260D1*
X1638465Y3582948D1*
X1644367Y3578660D1*
X1649526Y3573501D1*
X1653814Y3567599D1*
X1657126Y3561099D1*
X1659381Y3554160D1*
X1660522Y3546955D1*
Y3539659D1*
X1659381Y3532454D1*
X1657126Y3525515D1*
X1653814Y3519015D1*
X1649526Y3513113D1*
X1644367Y3507954D1*
X1638465Y3503666D1*
X1631965Y3500354D1*
X1625027Y3498100D1*
X1617821Y3496958D1*
X1610525D1*
X1603320Y3498100D1*
X1596381Y3500354D1*
X1589881Y3503666D1*
X1582900Y3508951D1*
X1208934Y3508784D1*
X1215674Y3505992D1*
X1221894Y3502180D1*
X1225840Y3498923D1*
X1321594Y3498827D1*
X1326920Y3497984D1*
X1332049Y3496317D1*
X1336854Y3493869D1*
X1341217Y3490699D1*
X1413909Y3418157D1*
X1530022Y3302044D1*
X2049940Y3301977D1*
X2055267Y3301133D1*
X2060395Y3299467D1*
X2065200Y3297019D1*
X2069563Y3293849D1*
X2073376Y3290036D1*
X2076546Y3285673D1*
X2078994Y3280868D1*
X2080661Y3275739D1*
X2081504Y3270413D1*
X2081610Y3167717D1*
Y3055363D1*
X2158268Y3132066D1*
X2159517Y3140775D1*
X2161771Y3147713D1*
X2165083Y3154213D1*
X2169372Y3160115D1*
X2174530Y3165274D1*
X2180432Y3169562D1*
X2186933Y3172874D1*
X2193871Y3175129D1*
X2201077Y3176270D1*
X2208372D1*
X2215578Y3175129D1*
X2222516Y3172874D1*
X2229016Y3169562D1*
X2234919Y3165274D1*
X2240077Y3160115D1*
X2244365Y3154213D1*
X2247678Y3147713D1*
X2249932Y3140775D1*
X2251073Y3133569D1*
Y3126274D1*
X2249932Y3119068D1*
X2247678Y3112129D1*
X2244365Y3105629D1*
X2240077Y3099727D1*
X2234919Y3094568D1*
X2229016Y3090280D1*
X2222516Y3086968D1*
X2215578Y3084714D1*
X2206904Y3083515D1*
X2143433Y3020029D1*
X2147724Y3013233D1*
X2150516Y3006493D1*
X2152219Y2999399D1*
X2152791Y2992126D1*
X2152219Y2984853D1*
X2150516Y2977759D1*
X2147724Y2971019D1*
X2143912Y2964799D1*
X2139174Y2959251D1*
X2133627Y2954513D1*
X2127406Y2950701D1*
X2120666Y2947909D1*
X2113572Y2946206D1*
X2106299Y2945634D1*
X2099026Y2946206D1*
X2091932Y2947909D1*
X2085192Y2950701D1*
X2081592Y2952762D1*
X2081610Y2691301D1*
X2124819Y2648132D1*
X2300463Y2648146D1*
X2305026Y2653812D1*
X2289650Y2653823D1*
Y2773736D1*
X2315284D1*
X2315240Y3346348D1*
X2251039Y3410517D1*
X1586418Y3410516D1*
X1579410Y3405241D1*
X1572910Y3401929D1*
X1565971Y3399674D1*
X1558766Y3398533D1*
X1551470D1*
X1544265Y3399674D1*
X1537326Y3401929D1*
X1530826Y3405241D1*
X1524924Y3409529D1*
X1519765Y3414688D1*
X1515477Y3420590D1*
X1512165Y3427090D1*
X1509911Y3434029D1*
X1508769Y3441234D1*
Y3448530D1*
X1509911Y3455735D1*
X1512165Y3462674D1*
X1515477Y3469174D1*
X1519765Y3475076D1*
X1524924Y3480235D1*
X1530826Y3484523D1*
X1537326Y3487835D1*
X1544265Y3490089D1*
X1551470Y3491231D1*
X1558766D1*
X1565971Y3490089D1*
X1572910Y3487835D1*
X1579410Y3484523D1*
X1586391Y3479238D1*
X2267972Y3479142D1*
X2273298Y3478299D1*
X2278427Y3476632D1*
X2283232Y3474184D1*
X2287595Y3471014D1*
X2360287Y3398472D1*
X2375739Y3382870D1*
X2378908Y3378508D1*
X2381357Y3373703D1*
X2383023Y3368574D1*
X2383867Y3363248D1*
X2383973Y3260551D1*
Y2773784D1*
X2402468Y2773736D1*
X2402461Y3898523D1*
X432185Y3898524D1*
Y2742127D1*
X436533Y2749021D1*
X442644Y2756175D1*
X449798Y2762286D1*
X457820Y2767201D1*
X466512Y2770802D1*
X475660Y2772998D1*
X485039Y2773736D1*
X494419Y2772998D1*
X503567Y2770802D1*
X512259Y2767201D1*
X520281Y2762286D1*
X527435Y2756175D1*
X533545Y2749021D1*
X538461Y2740999D1*
X542062Y2732307D1*
X544258Y2723159D1*
X544996Y2713780D1*
X544258Y2704400D1*
X542062Y2695252D1*
X538461Y2686560D1*
X533545Y2678538D1*
X527435Y2671384D1*
X520281Y2665274D1*
X518094Y2663813D1*
X523978Y2659371D1*
X530631Y2652718D1*
X536161Y2645107D1*
X540432Y2636724D1*
X543339Y2627776D1*
X544811Y2618484D1*
Y2609075D1*
X543339Y2599783D1*
X540432Y2590835D1*
X536161Y2582452D1*
X530631Y2574841D1*
X523978Y2568188D1*
X518094Y2563813D1*
X523978Y2559371D1*
X530631Y2552718D1*
X536161Y2545107D1*
X540432Y2536724D1*
X543339Y2527776D1*
X544811Y2518484D1*
Y2509075D1*
X543339Y2499783D1*
X540432Y2490835D1*
X536161Y2482452D1*
X530631Y2474841D1*
X523978Y2468188D1*
X518094Y2463813D1*
X523978Y2459371D1*
X530631Y2452718D1*
X536161Y2445107D1*
X540432Y2436724D1*
X543339Y2427776D1*
X544811Y2418484D1*
Y2409075D1*
X543339Y2399783D1*
X540432Y2390835D1*
X536161Y2382452D1*
X530631Y2374841D1*
X523978Y2368188D1*
X518094Y2363813D1*
X523978Y2359371D1*
X530631Y2352718D1*
X536161Y2345107D1*
X540432Y2336724D1*
X543339Y2327776D1*
X544811Y2318484D1*
Y2309075D1*
X543339Y2299783D1*
X540432Y2290835D1*
X536161Y2282452D1*
X530631Y2274841D1*
X523978Y2268188D1*
X518094Y2263813D1*
X523978Y2259371D1*
X530631Y2252718D1*
X536161Y2245107D1*
X540432Y2236724D1*
X543339Y2227776D1*
X544811Y2218484D1*
Y2209075D1*
X543339Y2199783D1*
X540432Y2190835D1*
X536161Y2182452D1*
X530631Y2174841D1*
X523978Y2168188D1*
X518094Y2163813D1*
X2316551Y2563813D2*
X2310668Y2568188D1*
X2304015Y2574841D1*
X2300498Y2579440D1*
X2107875Y2579519D1*
X2102548Y2580363D1*
X2097419Y2582029D1*
X2092615Y2584478D1*
X2088252Y2587647D1*
X2022679Y2653092D1*
X2022944Y2652806D1*
X2022679Y2653092D1*
X2022555Y2563976D1*
Y2202793D1*
X2077227Y2148146D1*
X2300443D1*
X2307211Y2156175D1*
X2314365Y2162286D1*
X2322387Y2167201D1*
X2331079Y2170802D1*
X2340227Y2172998D1*
X2349606Y2173736D1*
X2358986Y2172998D1*
X2368134Y2170802D1*
X2376826Y2167201D1*
X2384848Y2162286D1*
X2392002Y2156175D1*
X2398112Y2149021D1*
X2402480Y2141978D1*
X2402461Y2285456D1*
X2398112Y2278538D1*
X2392002Y2271384D1*
X2384848Y2265274D1*
X2376826Y2260358D1*
X2368134Y2256757D1*
X2358986Y2254561D1*
X2349606Y2253823D1*
X2340227Y2254561D1*
X2331079Y2256757D1*
X2322387Y2260358D1*
X2314365Y2265274D1*
X2307211Y2271384D1*
X2301100Y2278538D1*
X2296184Y2286560D1*
X2292584Y2295252D1*
X2290388Y2304400D1*
X2289650Y2313780D1*
X2290388Y2323159D1*
X2292584Y2332307D1*
X2296184Y2340999D1*
X2301100Y2349021D1*
X2307211Y2356175D1*
X2314365Y2362286D1*
X2316551Y2363747D1*
X2310668Y2368188D1*
X2304015Y2374841D1*
X2300498Y2379440D1*
X2160202Y2379413D1*
X2144927Y2364102D1*
X2144937Y2245290D1*
X2150212Y2238233D1*
X2153524Y2231733D1*
X2155778Y2224794D1*
X2156920Y2217589D1*
Y2210293D1*
X2155778Y2203088D1*
X2153524Y2196149D1*
X2150212Y2189649D1*
X2145924Y2183747D1*
X2140765Y2178588D1*
X2134863Y2174300D1*
X2128363Y2170988D1*
X2121424Y2168733D1*
X2114219Y2167592D1*
X2106923D1*
X2099717Y2168733D1*
X2092779Y2170988D1*
X2086279Y2174300D1*
X2080377Y2178588D1*
X2075218Y2183747D1*
X2070930Y2189649D1*
X2067618Y2196149D1*
X2065363Y2203088D1*
X2064222Y2210293D1*
Y2217589D1*
X2065363Y2224794D1*
X2067618Y2231733D1*
X2070930Y2238233D1*
X2076215Y2245214D1*
X2076311Y2381043D1*
X2077154Y2386369D1*
X2078821Y2391498D1*
X2081269Y2396303D1*
X2084439Y2400666D1*
X2121703Y2438080D1*
X2125804Y2441582D1*
X2130402Y2444400D1*
X2135384Y2446464D1*
X2140628Y2447723D1*
X2146004Y2448146D1*
X2300447D1*
X2307211Y2456175D1*
X2314365Y2462286D1*
X2316551Y2463747D1*
X2310668Y2468188D1*
X2304015Y2474841D1*
X2298485Y2482452D1*
X2294214Y2490835D1*
X2291306Y2499783D1*
X2289834Y2509075D1*
Y2518484D1*
X2291306Y2527776D1*
X2294214Y2536724D1*
X2298485Y2545107D1*
X2304015Y2552718D1*
X2310668Y2559371D1*
X2316551Y2563747D1*
X2402480Y1785581D2*
X2398112Y1778538D1*
X2392002Y1771384D1*
X2384848Y1765274D1*
X2376826Y1760358D1*
X2368134Y1756757D1*
X2358986Y1754561D1*
X2349606Y1753823D1*
X2340227Y1754561D1*
X2331079Y1756757D1*
X2322387Y1760358D1*
X2314365Y1765274D1*
X2307211Y1771384D1*
X2301100Y1778538D1*
X2296184Y1786560D1*
X2292584Y1795252D1*
X2290388Y1804400D1*
X2289650Y1813780D1*
X2290599Y1824223D1*
X2139222Y1975712D1*
X2136052Y1980075D1*
X2133604Y1984880D1*
X2131938Y1990009D1*
X2131094Y1995335D1*
X2130988Y2035580D1*
X2125713Y2042637D1*
X2122401Y2049137D1*
X2120147Y2056076D1*
X2119006Y2063281D1*
Y2070577D1*
X2120607Y2079416D1*
X2060296Y2079519D1*
X2054969Y2080363D1*
X2049841Y2082029D1*
X2045036Y2084477D1*
X2040673Y2087647D1*
X1963888Y2164282D1*
X1960386Y2168383D1*
X1957568Y2172981D1*
X1955505Y2177963D1*
X1954246Y2183207D1*
X1953823Y2188583D1*
Y2229452D1*
X1881695Y2229413D1*
X1874686Y2224138D1*
X1868185Y2220826D1*
X1861247Y2218572D1*
X1852574Y2217373D1*
X1720823Y2085757D1*
X1716460Y2082588D1*
X1711655Y2080139D1*
X1706527Y2078473D1*
X1701200Y2077629D1*
X1598504Y2077523D1*
X1571111D1*
X1605187Y2043343D1*
X1608357Y2038980D1*
X1610805Y2034175D1*
X1612472Y2029046D1*
X1613315Y2023720D1*
X1613421Y1921024D1*
Y1720682D1*
X1833405Y1720599D1*
X1838731Y1719755D1*
X1843860Y1718089D1*
X1848665Y1715641D1*
X1853028Y1712471D1*
X1856841Y1708658D1*
X1860011Y1704295D1*
X1862459Y1699490D1*
X1864125Y1694361D1*
X1864969Y1689035D1*
X1865075Y1586339D1*
X1864969Y1360808D1*
X1864125Y1355481D1*
X1862459Y1350353D1*
X1860011Y1345548D1*
X1856841Y1341185D1*
X1836468Y1320663D1*
X1835247Y1311981D1*
X1832992Y1305043D1*
X1829680Y1298543D1*
X1825392Y1292640D1*
X1820234Y1287482D1*
X1814331Y1283194D1*
X1807831Y1279882D1*
X1805436Y1278998D1*
X1809266Y1274375D1*
X1813078Y1268154D1*
X1815870Y1261414D1*
X1817573Y1254320D1*
X1818146Y1247047D1*
X1817573Y1239774D1*
X1815870Y1232680D1*
X1813078Y1225940D1*
X1809266Y1219720D1*
X1806009Y1215774D1*
X1805914Y548485D1*
X1805070Y543158D1*
X1803404Y538030D1*
X1800956Y533225D1*
X1797786Y528862D1*
X1725243Y456170D1*
X1717441Y448517D1*
X1713078Y445348D1*
X1708273Y442899D1*
X1703145Y441233D1*
X1697818Y440389D1*
X1595122Y440283D1*
X1468953Y440389D1*
X1463627Y441233D1*
X1458498Y442899D1*
X1453693Y445348D1*
X1449331Y448517D1*
X1376638Y521060D1*
X1234768Y662930D1*
X1221689Y649931D1*
X1217326Y646761D1*
X1212521Y644313D1*
X1207393Y642646D1*
X1202066Y641803D1*
X1099370Y641697D1*
X1080474D1*
X1073465Y636422D1*
X1066965Y633110D1*
X1060027Y630855D1*
X1052821Y629714D1*
X1045525D1*
X1038320Y630855D1*
X1031381Y633110D1*
X1024881Y636422D1*
X1018979Y640710D1*
X1013820Y645869D1*
X1009532Y651771D1*
X1006220Y658271D1*
X1003966Y665210D1*
X1002824Y672415D1*
X1002723Y677132D1*
X994341Y677702D1*
X987247Y679405D1*
X980507Y682197D1*
X974287Y686009D1*
X968739Y690747D1*
X964001Y696295D1*
X960189Y702515D1*
X957398Y709255D1*
X955694Y716349D1*
X955122Y723622D1*
X955694Y730895D1*
X957398Y737989D1*
X958399Y740705D1*
X952716Y743666D1*
X949858Y745575D1*
X946071Y738855D1*
X942568Y734754D1*
X905154Y697490D1*
X900791Y694320D1*
X895986Y691872D1*
X890857Y690205D1*
X885531Y689362D1*
X782835Y689256D1*
X765028Y689362D1*
X759702Y690205D1*
X754573Y691872D1*
X749768Y694320D1*
X745405Y697490D1*
X707991Y734754D1*
X704488Y738855D1*
X701671Y743453D1*
X699607Y748435D1*
X698348Y753679D1*
X697925Y759055D1*
Y889280D1*
X641910Y889256D1*
X634843Y883981D1*
X628343Y880669D1*
X621405Y878415D1*
X614199Y877273D1*
X606903D1*
X599698Y878415D1*
X592759Y880669D1*
X586259Y883981D1*
X580357Y888269D1*
X575198Y893428D1*
X570910Y899330D1*
X567598Y905830D1*
X565344Y912769D1*
X564202Y919974D1*
Y927270D1*
X565344Y934475D1*
X567598Y941414D1*
X570910Y947914D1*
X575198Y953816D1*
X580357Y958975D1*
X586259Y963263D1*
X592759Y966575D1*
X599698Y968830D1*
X606407Y969974D1*
X606349Y971442D1*
X536994Y1040783D1*
X518789Y1040752D1*
X511800Y1035477D1*
X505300Y1032165D1*
X498361Y1029911D1*
X491156Y1028769D1*
X483860D1*
X476655Y1029911D1*
X474308Y1030572D1*
X474315Y804913D1*
X479590Y797914D1*
X482902Y791414D1*
X485156Y784475D1*
X486298Y777270D1*
Y769974D1*
X485156Y762769D1*
X482902Y755830D1*
X479590Y749330D1*
X475302Y743428D1*
X470143Y738269D1*
X464241Y733981D1*
X457741Y730669D1*
X450802Y728415D1*
X443597Y727273D1*
X436301D1*
X432158Y727805D1*
X432185Y432185D1*
X2402461D1*
Y1785456D1*
X1758947Y2279817D2*
X1757806Y2272611D1*
X1755552Y2265673D1*
X1752239Y2259172D1*
X1747951Y2253270D1*
X1742793Y2248112D1*
X1736890Y2243824D1*
X1730390Y2240511D1*
X1723452Y2238257D1*
X1716246Y2237116D1*
X1708951D1*
X1701745Y2238257D1*
X1694807Y2240511D1*
X1688306Y2243824D1*
X1682404Y2248112D1*
X1677246Y2253270D1*
X1672957Y2259172D1*
X1669645Y2265673D1*
X1667391Y2272611D1*
X1666250Y2279817D1*
Y2287112D1*
X1667391Y2294318D1*
X1669645Y2301256D1*
X1672957Y2307757D1*
X1678243Y2314737D1*
X1678232Y2330877D1*
X1672957Y2337913D1*
X1669645Y2344413D1*
X1667391Y2351351D1*
X1666250Y2358557D1*
Y2365852D1*
X1667391Y2373058D1*
X1669645Y2379996D1*
X1672957Y2386497D1*
X1678243Y2393477D1*
X1678338Y2837342D1*
X1679182Y2842668D1*
X1680848Y2847797D1*
X1683296Y2852602D1*
X1686466Y2856965D1*
X1759008Y2929657D1*
X1823608Y2994256D1*
X1824871Y3002979D1*
X1827126Y3009918D1*
X1830438Y3016418D1*
X1834726Y3022320D1*
X1839885Y3027479D1*
X1845787Y3031767D1*
X1852287Y3035079D1*
X1859225Y3037334D1*
X1866431Y3038475D1*
X1873726D1*
X1880932Y3037334D1*
X1887871Y3035079D1*
X1894371Y3031767D1*
X1900273Y3027479D1*
X1905432Y3022320D1*
X1909720Y3016418D1*
X1913032Y3009918D1*
X1915286Y3002979D1*
X1916428Y2995774D1*
Y2988478D1*
X1915286Y2981273D1*
X1913032Y2974334D1*
X1909720Y2967834D1*
X1905432Y2961932D1*
X1900273Y2956773D1*
X1894371Y2952485D1*
X1887871Y2949173D1*
X1880932Y2946918D1*
X1872259Y2945720D1*
X1746985Y2820431D1*
X1746965Y2393484D1*
X1752239Y2386497D1*
X1755552Y2379996D1*
X1757806Y2373058D1*
X1758947Y2365852D1*
Y2358557D1*
X1757806Y2351351D1*
X1755552Y2344413D1*
X1752239Y2337913D1*
X1746954Y2330932D1*
X1746965Y2314793D1*
X1752239Y2307757D1*
X1755552Y2301256D1*
X1757806Y2294318D1*
X1758947Y2287112D1*
Y2279817D1*
X1266879Y2241914D2*
X1265680Y2233241D1*
X1263426Y2226303D1*
X1260113Y2219802D1*
X1255825Y2213900D1*
X1250667Y2208742D1*
X1244765Y2204453D1*
X1238264Y2201141D1*
X1231326Y2198887D1*
X1224120Y2197746D1*
X1216825D1*
X1209619Y2198887D1*
X1202681Y2201141D1*
X1196180Y2204453D1*
X1190278Y2208742D1*
X1185120Y2213900D1*
X1180831Y2219802D1*
X1177519Y2226303D1*
X1175265Y2233241D1*
X1174124Y2240447D1*
Y2247742D1*
X1175265Y2254948D1*
X1177519Y2261886D1*
X1180831Y2268387D1*
X1185120Y2274289D1*
X1190278Y2279447D1*
X1196180Y2283736D1*
X1202681Y2287048D1*
X1209619Y2289302D1*
X1218292Y2290501D1*
X1343566Y2415790D1*
X1343692Y2679862D1*
X1344536Y2685188D1*
X1346202Y2690317D1*
X1348651Y2695122D1*
X1351820Y2699484D1*
X1424363Y2772177D1*
X1501047Y2848860D1*
X1501173Y3053877D1*
X1502016Y3059204D1*
X1503683Y3064332D1*
X1506131Y3069137D1*
X1509301Y3073500D1*
X1581843Y3146192D1*
X1587402Y3151751D1*
X1588651Y3160460D1*
X1590905Y3167398D1*
X1594217Y3173898D1*
X1598505Y3179801D1*
X1603664Y3184959D1*
X1609566Y3189247D1*
X1616067Y3192559D1*
X1623005Y3194814D1*
X1630211Y3195955D1*
X1637506D1*
X1644712Y3194814D1*
X1651650Y3192559D1*
X1658150Y3189247D1*
X1664052Y3184959D1*
X1669211Y3179801D1*
X1673499Y3173898D1*
X1676811Y3167398D1*
X1679066Y3160460D1*
X1680207Y3153254D1*
Y3145959D1*
X1679066Y3138753D1*
X1676811Y3131815D1*
X1673499Y3125314D1*
X1669211Y3119412D1*
X1664052Y3114253D1*
X1658150Y3109965D1*
X1651650Y3106653D1*
X1644712Y3104399D1*
X1636038Y3103200D1*
X1569805Y3036952D1*
X1569693Y2831949D1*
X1568850Y2826623D1*
X1567183Y2821494D1*
X1564735Y2816689D1*
X1561565Y2812327D1*
X1489023Y2739634D1*
X1412339Y2662951D1*
X1412213Y2398878D1*
X1411370Y2393552D1*
X1409703Y2388423D1*
X1407255Y2383618D1*
X1404085Y2379256D1*
X1331543Y2306563D1*
X1266943Y2241964D1*
X1345561Y2864148D2*
X1344420Y2856942D1*
X1342166Y2850004D1*
X1338854Y2843503D1*
X1334565Y2837601D1*
X1329407Y2832442D1*
X1323505Y2828154D1*
X1317004Y2824842D1*
X1310066Y2822588D1*
X1302860Y2821446D1*
X1295565D1*
X1288359Y2822588D1*
X1281421Y2824842D1*
X1274921Y2828154D1*
X1269018Y2832442D1*
X1263860Y2837601D1*
X1259572Y2843503D1*
X1256259Y2850004D1*
X1254005Y2856942D1*
X1252864Y2864148D1*
Y2871443D1*
X1254005Y2878649D1*
X1256259Y2885587D1*
X1259572Y2892087D1*
X1264857Y2899068D1*
X1264846Y3118235D1*
X1259572Y3125271D1*
X1256259Y3131771D1*
X1254005Y3138710D1*
X1252864Y3145915D1*
Y3153211D1*
X1254005Y3160416D1*
X1256259Y3167355D1*
X1259572Y3173855D1*
X1263860Y3179757D1*
X1269018Y3184916D1*
X1274921Y3189204D1*
X1281421Y3192516D1*
X1288359Y3194771D1*
X1295565Y3195912D1*
X1302860D1*
X1310066Y3194771D1*
X1317004Y3192516D1*
X1323505Y3189204D1*
X1329407Y3184916D1*
X1334565Y3179757D1*
X1338854Y3173855D1*
X1342166Y3167355D1*
X1344420Y3160416D1*
X1345561Y3153211D1*
Y3145915D1*
X1344420Y3138710D1*
X1342166Y3131771D1*
X1338854Y3125271D1*
X1333568Y3118290D1*
X1333579Y2899124D1*
X1338854Y2892087D1*
X1342166Y2885587D1*
X1344420Y2878649D1*
X1345561Y2871443D1*
Y2864148D1*
X917057Y1829541D2*
X915916Y1822336D1*
X913662Y1815397D1*
X910350Y1808897D1*
X905065Y1801916D1*
X905075Y1662632D1*
X911349Y1664030D1*
X918622Y1664602D1*
X925895Y1664030D1*
X932989Y1662327D1*
X939729Y1659535D1*
X942653Y1657898D1*
X942642Y1911659D1*
X920149Y1934164D1*
X815904Y1934138D1*
X849282Y1900666D1*
X852452Y1896303D1*
X854900Y1891498D1*
X856566Y1886369D1*
X857410Y1881043D1*
X857516Y1877809D1*
X867061Y1879538D1*
X874356D1*
X881562Y1878397D1*
X888500Y1876142D1*
X895001Y1872830D1*
X900903Y1868542D1*
X906062Y1863383D1*
X910350Y1857481D1*
X913662Y1850981D1*
X915916Y1844042D1*
X917057Y1836837D1*
Y1829541D1*
X1065460Y817663D2*
X1072440Y822948D1*
X1078941Y826260D1*
X1085879Y828515D1*
X1093085Y829656D1*
X1100380D1*
X1107586Y828515D1*
X1114524Y826260D1*
X1117464Y824905D1*
X1117445Y1559885D1*
X1102133Y1575210D1*
X1074239Y1575201D1*
X1058923Y1559889D1*
X1058933Y1449573D1*
X1064208Y1442599D1*
X1067520Y1436099D1*
X1069774Y1429160D1*
X1070916Y1421955D1*
Y1414659D1*
X1069774Y1407454D1*
X1067520Y1400515D1*
X1064208Y1394015D1*
X1059920Y1388113D1*
X1054761Y1382954D1*
X1048859Y1378666D1*
X1042359Y1375354D1*
X1035420Y1373100D1*
X1028215Y1371958D1*
X1020919D1*
X1013714Y1373100D1*
X1011367Y1373761D1*
X1011374Y1004958D1*
X1016649Y997914D1*
X1019961Y991414D1*
X1022215Y984475D1*
X1023357Y977270D1*
Y969974D1*
X1022215Y962769D1*
X1019961Y955830D1*
X1016649Y949330D1*
X1012361Y943428D1*
X1007202Y938269D1*
X1001300Y933981D1*
X994800Y930669D1*
X987861Y928415D1*
X980656Y927273D1*
X973360D1*
X966155Y928415D1*
X959216Y930669D1*
X952609Y934052D1*
X952716Y822948D1*
X959216Y826260D1*
X966155Y828515D1*
X973360Y829656D1*
X980656D1*
X987861Y828515D1*
X994800Y826260D1*
X1001300Y822948D1*
X1008281Y817663D1*
X1065436Y817673D1*
X1332466Y3286586D2*
X1323792Y3287785D1*
X1316854Y3290039D1*
X1310354Y3293351D1*
X1304451Y3297639D1*
X1299293Y3302798D1*
X1295005Y3308700D1*
X1291693Y3315200D1*
X1289438Y3322139D1*
X1288297Y3329344D1*
Y3336640D1*
X1289438Y3343845D1*
X1291693Y3350784D1*
X1295005Y3357284D1*
X1299293Y3363186D1*
X1304451Y3368345D1*
X1310354Y3372633D1*
X1316854Y3375945D1*
X1323792Y3378200D1*
X1330998Y3379341D1*
X1338293D1*
X1345499Y3378200D1*
X1352437Y3375945D1*
X1358938Y3372633D1*
X1364840Y3368345D1*
X1369999Y3363186D1*
X1374287Y3357284D1*
X1377599Y3350784D1*
X1379853Y3343845D1*
X1381052Y3335172D1*
X1473613Y3242477D1*
X1476782Y3238114D1*
X1479231Y3233309D1*
X1480897Y3228180D1*
X1481741Y3222854D1*
X1481847Y3120157D1*
Y3023429D1*
X1487121Y3016418D1*
X1490433Y3009918D1*
X1492688Y3002979D1*
X1493829Y2995774D1*
Y2988478D1*
X1492688Y2981273D1*
X1490433Y2974334D1*
X1487121Y2967834D1*
X1482833Y2961932D1*
X1477675Y2956773D1*
X1471772Y2952485D1*
X1465272Y2949173D1*
X1458334Y2946918D1*
X1451128Y2945777D1*
X1443833D1*
X1436627Y2946918D1*
X1429689Y2949173D1*
X1423188Y2952485D1*
X1417286Y2956773D1*
X1412127Y2961932D1*
X1407839Y2967834D1*
X1404527Y2974334D1*
X1402273Y2981273D1*
X1401132Y2988478D1*
Y2995774D1*
X1402273Y3002979D1*
X1404527Y3009918D1*
X1407839Y3016418D1*
X1413124Y3023399D1*
X1413114Y3205944D1*
X1332478Y3286559D1*
X1610328Y1403636D2*
X1603347Y1398351D1*
X1596847Y1395039D1*
X1589908Y1392785D1*
X1582703Y1391643D1*
X1575407D1*
X1568202Y1392785D1*
X1561263Y1395039D1*
X1554763Y1398351D1*
X1548861Y1402639D1*
X1543702Y1407798D1*
X1539414Y1413700D1*
X1536102Y1420200D1*
X1533848Y1427139D1*
X1532706Y1434344D1*
Y1441640D1*
X1533848Y1448845D1*
X1536102Y1455784D1*
X1539414Y1462284D1*
X1543702Y1468186D1*
X1548861Y1473345D1*
X1554763Y1477633D1*
X1561263Y1480945D1*
X1568202Y1483200D1*
X1575407Y1484341D1*
X1582703D1*
X1589908Y1483200D1*
X1596847Y1480945D1*
X1603347Y1477633D1*
X1610328Y1472348D1*
X1632131Y1472358D1*
X1612255Y1492219D1*
X1459459Y1492209D1*
X1455157Y1488748D1*
X1462202Y1487051D1*
X1468942Y1484259D1*
X1475162Y1480448D1*
X1480710Y1475710D1*
X1485448Y1470162D1*
X1489259Y1463942D1*
X1492051Y1457202D1*
X1493754Y1450108D1*
X1494327Y1442835D1*
X1493754Y1435562D1*
X1492051Y1428468D1*
X1489259Y1421728D1*
X1485448Y1415507D1*
X1482191Y1411562D1*
X1482201Y1236048D1*
X1487476Y1229020D1*
X1490788Y1222520D1*
X1493042Y1215582D1*
X1494183Y1208376D1*
Y1201081D1*
X1493042Y1193875D1*
X1490788Y1186937D1*
X1487476Y1180436D1*
X1483188Y1174534D1*
X1478029Y1169375D1*
X1472127Y1165087D1*
X1465626Y1161775D1*
X1458688Y1159521D1*
X1451482Y1158380D1*
X1444187D1*
X1436981Y1159521D1*
X1430043Y1161775D1*
X1423543Y1165087D1*
X1417640Y1169375D1*
X1412482Y1174534D1*
X1408194Y1180436D1*
X1404882Y1186937D1*
X1402627Y1193875D1*
X1401486Y1201081D1*
Y1208376D1*
X1402627Y1215582D1*
X1404882Y1222520D1*
X1408194Y1229020D1*
X1413479Y1236001D1*
X1413468Y1411515D1*
X1408194Y1418543D1*
X1404882Y1425043D1*
X1402627Y1431981D1*
X1401486Y1439187D1*
Y1446482D1*
X1402627Y1453688D1*
X1404882Y1460626D1*
X1408194Y1467127D1*
X1412482Y1473029D1*
X1417640Y1478188D1*
X1420827Y1480661D1*
X1413783Y1482358D1*
X1407043Y1485150D1*
X1400822Y1488962D1*
X1395275Y1493700D1*
X1390537Y1499247D1*
X1386725Y1505468D1*
X1383933Y1512208D1*
X1382230Y1519302D1*
X1381657Y1526575D1*
X1382230Y1533848D1*
X1383933Y1540942D1*
X1386725Y1547682D1*
X1390537Y1553902D1*
X1395275Y1559450D1*
X1400822Y1564188D1*
X1407043Y1568000D1*
X1413783Y1570791D1*
X1420877Y1572495D1*
X1428150Y1573067D1*
X1435423Y1572495D1*
X1442516Y1570791D1*
X1449257Y1568000D1*
X1455477Y1564188D1*
X1459422Y1560931D1*
X1621371Y1560941D1*
X1615930Y1567161D1*
X1612119Y1573381D1*
X1609327Y1580121D1*
X1607624Y1587215D1*
X1607051Y1594488D1*
X1607624Y1601761D1*
X1609029Y1607798D1*
X1552923Y1664020D1*
X1549753Y1668382D1*
X1547305Y1673187D1*
X1545638Y1678316D1*
X1544795Y1683642D1*
X1544689Y1786339D1*
Y2006798D1*
X1529377Y2022100D1*
X1260077Y2022091D1*
X1286290Y1995784D1*
X1289460Y1991421D1*
X1291908Y1986616D1*
X1293574Y1981487D1*
X1294418Y1976161D1*
X1294524Y1873465D1*
Y804959D1*
X1299799Y797914D1*
X1303111Y791414D1*
X1305365Y784475D1*
X1306506Y777270D1*
Y769974D1*
X1305365Y762769D1*
X1303111Y755830D1*
X1299799Y749330D1*
X1295510Y743428D1*
X1290352Y738269D1*
X1284450Y733981D1*
X1277949Y730669D1*
X1271011Y728415D1*
X1267218Y727677D1*
X1485910Y508991D1*
X1680878Y509016D1*
X1737285Y565414D1*
X1737287Y1212656D1*
X1695457Y1212787D1*
X1690131Y1213631D1*
X1684954Y1215319D1*
X1684961Y624386D1*
X1690236Y617367D1*
X1693548Y610867D1*
X1695802Y603928D1*
X1696943Y596723D1*
Y589427D1*
X1695802Y582221D1*
X1693548Y575283D1*
X1690236Y568783D1*
X1685947Y562881D1*
X1680789Y557722D1*
X1674887Y553434D1*
X1668386Y550122D1*
X1661448Y547867D1*
X1654242Y546726D1*
X1646947D1*
X1639741Y547867D1*
X1632803Y550122D1*
X1626302Y553434D1*
X1620400Y557722D1*
X1615242Y562881D1*
X1610953Y568783D1*
X1607641Y575283D1*
X1605387Y582221D1*
X1604246Y589427D1*
Y596723D1*
X1605387Y603928D1*
X1607641Y610867D1*
X1610953Y617367D1*
X1616239Y624348D1*
X1616228Y1403671D1*
X1610409Y1403626D1*
X778248Y761684D2*
X776801Y769974D1*
Y777270D1*
X777942Y784475D1*
X780196Y791414D1*
X783509Y797914D1*
X788794Y804895D1*
X788783Y931483D1*
X766648Y909377D1*
X766658Y773280D1*
X778171Y761777D1*
X1306191Y3756195D2*
X1305050Y3748989D1*
X1302796Y3742051D1*
X1299484Y3735550D1*
X1295195Y3729648D1*
X1290037Y3724490D1*
X1284135Y3720201D1*
X1277634Y3716889D1*
X1270696Y3714635D1*
X1263490Y3713494D1*
X1256195D1*
X1248989Y3714635D1*
X1242051Y3716889D1*
X1235550Y3720201D1*
X1229648Y3724490D1*
X1224490Y3729648D1*
X1220201Y3735550D1*
X1216889Y3742051D1*
X1214635Y3748989D1*
X1213494Y3756195D1*
Y3763490D1*
X1214635Y3770696D1*
X1216889Y3777634D1*
X1220201Y3784135D1*
X1224490Y3790037D1*
X1229648Y3795195D1*
X1235550Y3799484D1*
X1242051Y3802796D1*
X1248989Y3805050D1*
X1256195Y3806191D1*
X1263490D1*
X1270696Y3805050D1*
X1277634Y3802796D1*
X1284135Y3799484D1*
X1290037Y3795195D1*
X1295195Y3790037D1*
X1299484Y3784135D1*
X1302796Y3777634D1*
X1305050Y3770696D1*
X1306191Y3763490D1*
Y3756195D1*
D18*
X485039Y1813780D3*
D19*
Y1913780D3*
Y2013780D3*
Y2113780D3*
Y2213780D3*
Y2313780D3*
Y2413780D3*
Y2513780D3*
Y2613780D3*
Y2713780D3*
D18*
X2349606D3*
D19*
Y2613780D3*
Y2513780D3*
Y2413780D3*
Y2313780D3*
Y2213780D3*
Y2113780D3*
Y2013780D3*
Y1913780D3*
Y1813780D3*
D20*
X492126Y1732283D3*
X688976Y2185039D3*
X629921Y1850394D3*
X570866Y2007874D3*
M02*
