G04 DipTrace 3.0.0.2*
G04 Bottom.gbr*
%MOIN*%
G04 #@! TF.FileFunction,Copper,L2,Bot*
G04 #@! TF.Part,Single*
G04 #@! TA.AperFunction,Conductor*
%ADD13C,0.015748*%
G04 #@! TA.AperFunction,CopperBalancing*
%ADD14C,0.012992*%
%ADD16C,0.025*%
G04 #@! TA.AperFunction,ComponentPad*
%ADD19R,0.066929X0.066929*%
%ADD20C,0.066929*%
%ADD28C,0.059055*%
G04 #@! TA.AperFunction,ViaPad*
%ADD29C,0.04*%
%FSLAX26Y26*%
G04*
G70*
G90*
G75*
G01*
G04 Bottom*
%LPD*%
X1555118Y1417323D2*
D13*
Y1168728D1*
Y1003937D1*
X1653543Y905512D1*
X1830709Y1318898D2*
X1732283Y1417323D1*
X1653543Y905512D2*
X1791339D1*
X1929134Y1043307D1*
X728346Y2204724D2*
X826772D1*
X866142Y2165354D1*
X984252D1*
X1003937Y2145669D1*
X1122047D1*
X1141732Y2125984D1*
X708661Y1889764D2*
X728346D1*
X807087Y1811024D1*
X1003937D1*
X1141732D1*
X1181102Y1771654D1*
X1008005Y896391D2*
X988999Y877385D1*
X854220D1*
X1008005Y896391D2*
X1046020Y858377D1*
X1147966D1*
X1297482Y1007892D1*
Y1180491D1*
X1309244Y1168728D1*
X1555118D1*
X1312962Y1439856D2*
X1304549Y1431442D1*
X719718D1*
X1312962Y1439856D2*
X1325050Y1451944D1*
X1532374D1*
X1555118Y1429199D1*
Y1417323D1*
X1003937Y2145669D2*
Y1811024D1*
X1937764Y1415764D2*
X1938955Y1416955D1*
X2054699D1*
X2103492Y1465748D1*
X2349606D1*
X748031Y1614173D2*
X1122047D1*
X1259843Y1751969D1*
X1358268Y1850394D1*
X1259843Y1751969D2*
D3*
X688976Y1535433D2*
X1246639D1*
Y1525314D1*
X1703033D1*
X1889764Y1338583D1*
Y1240157D1*
X1141732Y1338583D2*
X1419537D1*
X1455270Y1374316D1*
X1457801Y1712598D2*
X1476378D1*
Y1811024D1*
X1220472Y2066929D1*
X1240157D1*
Y2146291D1*
X830543Y2555906D1*
X472441D1*
X1633858Y1476378D2*
Y1259843D1*
X1732283Y1161417D1*
X2253937D1*
X2349606Y1065748D1*
X1863043Y1468789D2*
X1984009D1*
X2180969Y1665748D1*
X2349606D1*
X1594488Y1909449D2*
Y1968504D1*
X1574803Y1988189D1*
X1771654Y1811024D2*
X1692913D1*
X1594488Y1909449D1*
X2125984Y1377953D2*
X2145669D1*
X2244094Y1279528D1*
X2335827D1*
X2349606Y1265748D1*
X2203232Y1850394D2*
X2145669D1*
X2072739Y1777463D1*
X1879091Y1583815D1*
X1318898D1*
X1194621D1*
X1318898Y1574803D2*
Y1583815D1*
X2123239Y1734631D2*
X2080407Y1777463D1*
X2072739D1*
X826772Y1318898D2*
Y1279528D1*
X748031D1*
X649606Y1377953D1*
Y1929134D1*
X767717Y2047244D1*
D29*
X1653543Y905512D3*
X1220472Y2066929D3*
X1574803Y1988189D3*
X1594488Y1909449D3*
X1771654Y1811024D3*
X688976Y1535433D3*
X1246639Y1525314D3*
X1889764Y1240157D3*
X1141732Y1338583D3*
X767717Y2047244D3*
X826772Y1318898D3*
X1457801Y1712598D3*
X1455270Y1374316D3*
X1863043Y1468789D3*
X1194621Y1583815D3*
X2203232Y1850394D3*
X748031Y1614173D3*
X1358268Y1850394D3*
X1633858Y1476378D3*
X2125984Y1377953D3*
X1555118Y1417323D3*
X1732283D3*
X1830709Y1318898D3*
X1929134Y1043307D3*
X1259843Y1751969D3*
X866142Y2165354D3*
X728346Y2204724D3*
X1003937Y2145669D3*
X1141732Y2125984D3*
X1181102Y1771654D3*
X807087Y1811024D3*
X708661Y1889764D3*
X1318898Y1574803D3*
X854220Y877385D3*
X1008005Y896391D3*
X1147966Y858377D3*
X1312962Y1439856D3*
X719718Y1431442D3*
X1937764Y1415764D3*
X434685Y2928773D2*
D16*
X2399974D1*
X434685Y2903904D2*
X2399974D1*
X434685Y2879035D2*
X2399974D1*
X434685Y2854167D2*
X2399974D1*
X434685Y2829298D2*
X2399974D1*
X534904Y2804429D2*
X2399974D1*
X534904Y2779560D2*
X2399974D1*
X534904Y2754692D2*
X2399974D1*
X534904Y2729823D2*
X2399974D1*
X534904Y2704954D2*
X2399974D1*
X529827Y2680085D2*
X2399974D1*
X534904Y2655217D2*
X2399974D1*
X529192Y2630348D2*
X2399974D1*
X508684Y2605479D2*
X2399974D1*
X856927Y2580610D2*
X2399974D1*
X881780Y2555741D2*
X2399974D1*
X906682Y2530873D2*
X2399974D1*
X508196Y2506004D2*
X829367D1*
X931535D2*
X2399974D1*
X529339Y2481135D2*
X854222D1*
X956390D2*
X2399974D1*
X534904Y2456266D2*
X879123D1*
X981243D2*
X2399974D1*
X529680Y2431398D2*
X903976D1*
X1006144D2*
X2399974D1*
X508928Y2406529D2*
X928831D1*
X1030999D2*
X2399974D1*
X529094Y2381660D2*
X953684D1*
X1055852D2*
X2399974D1*
X534904Y2356791D2*
X978587D1*
X1080755D2*
X2399974D1*
X529875Y2331923D2*
X1003440D1*
X1105608D2*
X2399974D1*
X509710Y2307054D2*
X1028294D1*
X1130462D2*
X2399974D1*
X434685Y2282185D2*
X1053196D1*
X1155364D2*
X2399974D1*
X434685Y2257316D2*
X1078050D1*
X1180218D2*
X2399974D1*
X434685Y2232448D2*
X1102903D1*
X1205071D2*
X2399974D1*
X434685Y2207579D2*
X1127806D1*
X1229974D2*
X2399974D1*
X434685Y2182710D2*
X1152659D1*
X1254827D2*
X2399974D1*
X434685Y2157841D2*
X1177512D1*
X1274992D2*
X1440500D1*
X1500579D2*
X2399974D1*
X434685Y2132972D2*
X1202415D1*
X1276995D2*
X1417404D1*
X1523675D2*
X2399974D1*
X434685Y2108104D2*
X1196360D1*
X1276995D2*
X1412034D1*
X1529046D2*
X2399974D1*
X434685Y2083235D2*
X735764D1*
X799651D2*
X1174436D1*
X1276995D2*
X1418332D1*
X1522747D2*
X2399974D1*
X434685Y2058366D2*
X720091D1*
X815374D2*
X1172287D1*
X1280119D2*
X1444163D1*
X1496916D2*
X2399974D1*
X434685Y2033497D2*
X702903D1*
X814640D2*
X1185667D1*
X1304974D2*
X1561887D1*
X1587736D2*
X2399974D1*
X529436Y2008629D2*
X678000D1*
X796087D2*
X1227707D1*
X1329875D2*
X1530539D1*
X1619084D2*
X2287131D1*
X544719Y1983760D2*
X653147D1*
X755315D2*
X1252560D1*
X1354728D2*
X1525999D1*
X1627776D2*
X2287131D1*
X547112Y1958891D2*
X628294D1*
X730462D2*
X1277415D1*
X1379583D2*
X1536203D1*
X1631340D2*
X2287131D1*
X538420Y1934022D2*
X613108D1*
X705559D2*
X1302316D1*
X1404484D2*
X1552512D1*
X1636467D2*
X2287131D1*
X528899Y1909154D2*
X612766D1*
X686467D2*
X1327171D1*
X1429339D2*
X1545480D1*
X1645843D2*
X2287131D1*
X544572Y1884285D2*
X612766D1*
X686467D2*
X1323948D1*
X1454192D2*
X1552903D1*
X1670744D2*
X2137571D1*
X2237542D2*
X2290110D1*
X547160Y1859416D2*
X612766D1*
X686467D2*
X1310178D1*
X1479046D2*
X1593430D1*
X1695598D2*
X2103587D1*
X2251360D2*
X2287474D1*
X538762Y1834547D2*
X612766D1*
X686467D2*
X1291331D1*
X1503899D2*
X1618283D1*
X1814251D2*
X2078732D1*
X2249455D2*
X2295920D1*
X528362Y1809678D2*
X612766D1*
X686467D2*
X1266476D1*
X1383196D2*
X1426634D1*
X1513224D2*
X1643186D1*
X1820647D2*
X2053879D1*
X2156047D2*
X2178294D1*
X2228167D2*
X2306320D1*
X544378Y1784810D2*
X612766D1*
X686467D2*
X1224436D1*
X1343743D2*
X1439524D1*
X1513224D2*
X1668235D1*
X1812542D2*
X2029026D1*
X2150627D2*
X2290256D1*
X547210Y1759941D2*
X612766D1*
X686467D2*
X1211546D1*
X1318890D2*
X1439524D1*
X1513224D2*
X2004123D1*
X2175724D2*
X2287424D1*
X539055Y1735072D2*
X612766D1*
X686467D2*
X1191867D1*
X1305656D2*
X1414622D1*
X1513224D2*
X1979270D1*
X2181780D2*
X2295579D1*
X527776Y1710203D2*
X612766D1*
X686467D2*
X1167014D1*
X1282756D2*
X1408860D1*
X1513127D2*
X1954416D1*
X2056584D2*
X2070335D1*
X2176164D2*
X2306858D1*
X544182Y1685335D2*
X612766D1*
X686467D2*
X1142112D1*
X1244280D2*
X1417648D1*
X1499798D2*
X1929514D1*
X2031682D2*
X2094114D1*
X547259Y1660466D2*
X612766D1*
X686467D2*
X741232D1*
X754824D2*
X1117259D1*
X1219427D2*
X1904660D1*
X2006828D2*
X2124583D1*
X539348Y1635597D2*
X612766D1*
X686467D2*
X704277D1*
X1194572D2*
X1879807D1*
X1981975D2*
X2099728D1*
X527190Y1610728D2*
X612766D1*
X686467D2*
X699198D1*
X1957072D2*
X2074875D1*
X2177043D2*
X2307444D1*
X544035Y1585860D2*
X612766D1*
X686467D2*
X708664D1*
X1932219D2*
X2049974D1*
X2152140D2*
X2290647D1*
X547307Y1560991D2*
X612766D1*
X1907366D2*
X2025119D1*
X2127287D2*
X2287327D1*
X539640Y1536122D2*
X612766D1*
X1743303D2*
X2000266D1*
X2102434D2*
X2294992D1*
X526555Y1511253D2*
X612766D1*
X1768156D2*
X1841623D1*
X1884466D2*
X1975412D1*
X2077531D2*
X2308079D1*
X543840Y1486385D2*
X612766D1*
X686467D2*
X1218723D1*
X1274554D2*
X1585959D1*
X1793059D2*
X1817503D1*
X2052678D2*
X2290794D1*
X547356Y1461516D2*
X612766D1*
X686467D2*
X1587327D1*
X1680412D2*
X1715744D1*
X2027824D2*
X2287278D1*
X539983Y1436647D2*
X612766D1*
X686467D2*
X1596995D1*
X1670696D2*
X1740598D1*
X1998626D2*
X2294699D1*
X525970Y1411778D2*
X612766D1*
X686467D2*
X1425218D1*
X1485295D2*
X1596995D1*
X1670696D2*
X1765500D1*
X1867668D2*
X2091575D1*
X2160392D2*
X2308664D1*
X543644Y1386909D2*
X612766D1*
X691740D2*
X1408030D1*
X1502531D2*
X1596995D1*
X1670696D2*
X1790354D1*
X1892522D2*
X2077854D1*
X2187786D2*
X2290988D1*
X547404Y1362041D2*
X616672D1*
X716594D2*
X806955D1*
X846575D2*
X1099094D1*
X1502630D2*
X1596995D1*
X1670696D2*
X1815207D1*
X1917375D2*
X2079807D1*
X2212688D2*
X2287278D1*
X540227Y1337172D2*
X639328D1*
X741448D2*
X781516D1*
X872014D2*
X1092747D1*
X1485735D2*
X1596995D1*
X1670696D2*
X1840110D1*
X1926604D2*
X2101144D1*
X2237542D2*
X2294407D1*
X525335Y1312303D2*
X664182D1*
X875286D2*
X1100900D1*
X1444182D2*
X1596995D1*
X1670696D2*
X1852903D1*
X1926604D2*
X2160227D1*
X543450Y1287434D2*
X689035D1*
X863615D2*
X1596995D1*
X1670696D2*
X1852903D1*
X1926604D2*
X2185130D1*
X547404Y1262566D2*
X713890D1*
X859123D2*
X1596995D1*
X1682219D2*
X1846507D1*
X1933000D2*
X2209983D1*
X540520Y1237697D2*
X1605100D1*
X1707072D2*
X1840843D1*
X1938714D2*
X2294114D1*
X524651Y1212828D2*
X1629807D1*
X1731975D2*
X1849631D1*
X1929875D2*
X2309983D1*
X543255Y1187959D2*
X1654660D1*
X2278264D2*
X2291409D1*
X547454Y1163091D2*
X1679514D1*
X540812Y1138222D2*
X1704416D1*
X547503Y1113353D2*
X2250900D1*
X547503Y1088484D2*
X2275803D1*
X547503Y1063615D2*
X2287180D1*
X547503Y1038747D2*
X2293576D1*
X547503Y1013878D2*
X2317014D1*
X2382171D2*
X2399974D1*
X434685Y989009D2*
X1412034D1*
X1495451D2*
X2399974D1*
X434685Y964140D2*
X1397336D1*
X1510198D2*
X2399974D1*
X434685Y939272D2*
X1396067D1*
X1511419D2*
X2399974D1*
X434685Y914403D2*
X1407199D1*
X1500335D2*
X2399974D1*
X434685Y889534D2*
X1483030D1*
X1576018D2*
X2399974D1*
X434685Y864665D2*
X1471848D1*
X1587151D2*
X2399974D1*
X434685Y839797D2*
X1473068D1*
X1585979D2*
X2399974D1*
X434685Y814928D2*
X1487718D1*
X1571282D2*
X2399974D1*
X434685Y790059D2*
X1613255D1*
X1657366D2*
X2399974D1*
X434685Y765190D2*
X1584055D1*
X1686516D2*
X2399974D1*
X434685Y740322D2*
X1576828D1*
X1693743D2*
X2399974D1*
X434685Y715453D2*
X1581320D1*
X1722160D2*
X2399974D1*
X434685Y690584D2*
X1602268D1*
X1749114D2*
X2399974D1*
X434685Y665715D2*
X1638743D1*
X1755755D2*
X2399974D1*
X434685Y640846D2*
X1643772D1*
X1750724D2*
X2399974D1*
X434685Y615978D2*
X1666087D1*
X1728411D2*
X2399974D1*
X434685Y591109D2*
X2399974D1*
X434685Y566240D2*
X2399974D1*
X434685Y541371D2*
X2399974D1*
X434685Y516503D2*
X2399974D1*
X434685Y491634D2*
X2399974D1*
X434685Y466765D2*
X2399974D1*
X434685Y441896D2*
X2399974D1*
X529623Y1125705D2*
X544996D1*
Y1005791D1*
X432177D1*
X432185Y432185D1*
X2402461D1*
Y1037409D1*
X2398113Y1030507D1*
X2392003Y1023352D1*
X2384848Y1017241D1*
X2376825Y1012327D1*
X2368134Y1008726D1*
X2358986Y1006529D1*
X2349606Y1005791D1*
X2340227Y1006529D1*
X2331079Y1008726D1*
X2322387Y1012327D1*
X2314365Y1017241D1*
X2307210Y1023352D1*
X2301100Y1030507D1*
X2296185Y1038529D1*
X2292584Y1047220D1*
X2290387Y1056369D1*
X2289650Y1065748D1*
X2290600Y1076192D1*
X2239714Y1127039D1*
X1729587Y1127157D1*
X1724261Y1128001D1*
X1719133Y1129667D1*
X1714327Y1132115D1*
X1709965Y1135285D1*
X1637272Y1207828D1*
X1607726Y1237524D1*
X1604556Y1241886D1*
X1602108Y1246692D1*
X1600442Y1251820D1*
X1599598Y1257146D1*
X1599492Y1359843D1*
Y1445047D1*
X1594218Y1452085D1*
X1590906Y1458587D1*
X1588651Y1465525D1*
X1587509Y1472730D1*
Y1480026D1*
X1588651Y1487231D1*
X1589726Y1490972D1*
X1277984Y1490948D1*
X1270932Y1485673D1*
X1264430Y1482361D1*
X1257492Y1480106D1*
X1250287Y1478965D1*
X1242991D1*
X1235786Y1480106D1*
X1228848Y1482361D1*
X1222346Y1485673D1*
X1216445Y1489961D1*
X1211286Y1495119D1*
X1206963Y1501084D1*
X720320Y1501067D1*
X713269Y1495793D1*
X706768Y1492480D1*
X699829Y1490226D1*
X692625Y1489084D1*
X683955Y1489247D1*
X683972Y1392171D1*
X762261Y1313899D1*
X780503Y1313894D1*
X780423Y1322546D1*
X781564Y1329751D1*
X783819Y1336689D1*
X787131Y1343190D1*
X791419Y1349092D1*
X796577Y1354251D1*
X802479Y1358538D1*
X808980Y1361850D1*
X815919Y1364105D1*
X823123Y1365247D1*
X830420D1*
X837625Y1364105D1*
X844563Y1361850D1*
X851064Y1358538D1*
X856966Y1354251D1*
X862125Y1349092D1*
X866412Y1343190D1*
X869724Y1336689D1*
X871979Y1329751D1*
X873121Y1322546D1*
Y1315249D1*
X871979Y1308045D1*
X869724Y1301106D1*
X866412Y1294605D1*
X861127Y1287625D1*
X861031Y1276831D1*
X860188Y1271505D1*
X858522Y1266377D1*
X856073Y1261571D1*
X852904Y1257209D1*
X849091Y1253395D1*
X844728Y1250226D1*
X839923Y1247777D1*
X834794Y1246112D1*
X829469Y1245268D1*
X748031Y1245161D1*
X742655Y1245584D1*
X737412Y1246844D1*
X732429Y1248907D1*
X727832Y1251724D1*
X723731Y1255227D1*
X623474Y1355634D1*
X620304Y1359996D1*
X617856Y1364802D1*
X616190Y1369930D1*
X615346Y1375256D1*
X615240Y1477953D1*
X615346Y1931831D1*
X616190Y1937156D1*
X617856Y1942285D1*
X620304Y1947091D1*
X623474Y1951453D1*
X696017Y2024146D1*
X721256Y2049385D1*
X722509Y2058097D1*
X724764Y2065035D1*
X728076Y2071537D1*
X732364Y2077438D1*
X737522Y2082597D1*
X743424Y2086885D1*
X749925Y2090197D1*
X756864Y2092451D1*
X764068Y2093593D1*
X771365D1*
X778570Y2092451D1*
X785508Y2090197D1*
X792009Y2086885D1*
X797911Y2082597D1*
X803070Y2077438D1*
X807357Y2071537D1*
X810669Y2065035D1*
X812924Y2058097D1*
X814066Y2050892D1*
Y2043596D1*
X812924Y2036391D1*
X810669Y2029453D1*
X807357Y2022951D1*
X803070Y2017050D1*
X797911Y2011891D1*
X792009Y2007604D1*
X785508Y2004291D1*
X778570Y2002037D1*
X769896Y2000837D1*
X683983Y1914909D1*
X683972Y1581625D1*
X692625Y1581782D1*
X699829Y1580640D1*
X706768Y1578386D1*
X713269Y1575073D1*
X720249Y1569789D1*
X723739Y1574533D1*
X717837Y1578820D1*
X712678Y1583979D1*
X708391Y1589881D1*
X705079Y1596382D1*
X702824Y1603320D1*
X701682Y1610525D1*
Y1617822D1*
X702824Y1625026D1*
X705079Y1631965D1*
X708391Y1638466D1*
X712678Y1644367D1*
X717837Y1649526D1*
X723739Y1653814D1*
X730240Y1657126D1*
X737178Y1659381D1*
X744383Y1660522D1*
X751680D1*
X758885Y1659381D1*
X765823Y1657126D1*
X772324Y1653814D1*
X779304Y1648529D1*
X1107846Y1648539D1*
X1213377Y1754104D1*
X1214635Y1762822D1*
X1216890Y1769760D1*
X1220202Y1776261D1*
X1224490Y1782163D1*
X1229648Y1787322D1*
X1235550Y1791609D1*
X1242051Y1794921D1*
X1248990Y1797176D1*
X1257663Y1798375D1*
X1311811Y1852538D1*
X1313060Y1861247D1*
X1315315Y1868185D1*
X1318627Y1874686D1*
X1322915Y1880588D1*
X1328073Y1885747D1*
X1333975Y1890034D1*
X1340476Y1893346D1*
X1344134Y1894676D1*
X1218297Y2020503D1*
X1209619Y2021722D1*
X1202681Y2023976D1*
X1196180Y2027289D1*
X1190278Y2031576D1*
X1185119Y2036735D1*
X1180832Y2042636D1*
X1177520Y2049138D1*
X1175265Y2056076D1*
X1174123Y2063281D1*
Y2070577D1*
X1175265Y2077782D1*
X1177520Y2084720D1*
X1180832Y2091222D1*
X1185119Y2097123D1*
X1190278Y2102282D1*
X1196180Y2106570D1*
X1202681Y2109882D1*
X1205798Y2111033D1*
X1205791Y2132114D1*
X816280Y2521568D1*
X521608Y2521539D1*
X514837Y2513509D1*
X507682Y2507399D1*
X505496Y2505938D1*
X511379Y2501497D1*
X518033Y2494844D1*
X523563Y2487232D1*
X527833Y2478850D1*
X530741Y2469902D1*
X532213Y2460610D1*
Y2451201D1*
X530741Y2441909D1*
X527833Y2432961D1*
X523563Y2424579D1*
X518033Y2416967D1*
X511379Y2410314D1*
X505496Y2405938D1*
X511379Y2401497D1*
X518033Y2394844D1*
X523563Y2387232D1*
X527833Y2378850D1*
X530741Y2369902D1*
X532213Y2360610D1*
Y2351201D1*
X530741Y2341909D1*
X527833Y2332961D1*
X523563Y2324579D1*
X518033Y2316967D1*
X511379Y2310314D1*
X503768Y2304783D1*
X495386Y2300513D1*
X486437Y2297605D1*
X477146Y2296134D1*
X467736D1*
X458445Y2297605D1*
X449496Y2300513D1*
X441114Y2304783D1*
X433503Y2310314D1*
X432165Y2311550D1*
X432185Y1994022D1*
X436533Y2000990D1*
X442643Y2008144D1*
X449798Y2014255D1*
X457820Y2019169D1*
X466512Y2022770D1*
X475660Y2024967D1*
X485039Y2025705D1*
X494419Y2024967D1*
X503567Y2022770D1*
X512259Y2019169D1*
X520281Y2014255D1*
X527436Y2008144D1*
X533546Y2000990D1*
X538461Y1992967D1*
X542062Y1984276D1*
X544259Y1975127D1*
X544996Y1965748D1*
X544259Y1956369D1*
X542062Y1947220D1*
X538461Y1938529D1*
X533546Y1930507D1*
X527436Y1923352D1*
X520281Y1917241D1*
X518094Y1915781D1*
X523978Y1911340D1*
X530631Y1904686D1*
X536161Y1897075D1*
X540432Y1888693D1*
X543340Y1879744D1*
X544811Y1870453D1*
Y1861043D1*
X543340Y1851752D1*
X540432Y1842803D1*
X536161Y1834421D1*
X530631Y1826810D1*
X523978Y1820156D1*
X518094Y1815781D1*
X523978Y1811340D1*
X530631Y1804686D1*
X536161Y1797075D1*
X540432Y1788693D1*
X543340Y1779744D1*
X544811Y1770453D1*
Y1761043D1*
X543340Y1751752D1*
X540432Y1742803D1*
X536161Y1734421D1*
X530631Y1726810D1*
X523978Y1720156D1*
X518094Y1715781D1*
X523978Y1711340D1*
X530631Y1704686D1*
X536161Y1697075D1*
X540432Y1688693D1*
X543340Y1679744D1*
X544811Y1670453D1*
Y1661043D1*
X543340Y1651752D1*
X540432Y1642803D1*
X536161Y1634421D1*
X530631Y1626810D1*
X523978Y1620156D1*
X518094Y1615781D1*
X523978Y1611340D1*
X530631Y1604686D1*
X536161Y1597075D1*
X540432Y1588693D1*
X543340Y1579744D1*
X544811Y1570453D1*
Y1561043D1*
X543340Y1551752D1*
X540432Y1542803D1*
X536161Y1534421D1*
X530631Y1526810D1*
X523978Y1520156D1*
X518094Y1515781D1*
X523978Y1511340D1*
X530631Y1504686D1*
X536161Y1497075D1*
X540432Y1488693D1*
X543340Y1479744D1*
X544811Y1470453D1*
Y1461043D1*
X543340Y1451752D1*
X540432Y1442803D1*
X536161Y1434421D1*
X530631Y1426810D1*
X523978Y1420156D1*
X518094Y1415781D1*
X523978Y1411340D1*
X530631Y1404686D1*
X536161Y1397075D1*
X540432Y1388693D1*
X543340Y1379744D1*
X544811Y1370453D1*
Y1361043D1*
X543340Y1351752D1*
X540432Y1342803D1*
X536161Y1334421D1*
X530631Y1326810D1*
X523978Y1320156D1*
X518094Y1315781D1*
X523978Y1311340D1*
X530631Y1304686D1*
X536161Y1297075D1*
X540432Y1288693D1*
X543340Y1279744D1*
X544811Y1270453D1*
Y1261043D1*
X543340Y1251752D1*
X540432Y1242803D1*
X536161Y1234421D1*
X530631Y1226810D1*
X523978Y1220156D1*
X518094Y1215781D1*
X523978Y1211340D1*
X530631Y1204686D1*
X536161Y1197075D1*
X540432Y1188693D1*
X543340Y1179744D1*
X544811Y1170453D1*
Y1161043D1*
X543340Y1151752D1*
X540432Y1142803D1*
X536161Y1134421D1*
X530631Y1126810D1*
X529619Y1125715D1*
X2302150Y2025705D2*
X2402469D1*
X2402461Y2953642D1*
X432185D1*
X432484Y2815862D1*
X532398D1*
Y2695949D1*
X517056D1*
X523563Y2687232D1*
X527833Y2678850D1*
X530741Y2669902D1*
X532213Y2660610D1*
Y2651201D1*
X530741Y2641909D1*
X527833Y2632961D1*
X523563Y2624579D1*
X518033Y2616967D1*
X511379Y2610314D1*
X505496Y2605938D1*
X511379Y2601497D1*
X518033Y2594844D1*
X521550Y2590245D1*
X833240Y2590165D1*
X838566Y2589323D1*
X843694Y2587656D1*
X848500Y2585207D1*
X852862Y2582038D1*
X925555Y2509496D1*
X1266290Y2168610D1*
X1269459Y2164248D1*
X1271908Y2159442D1*
X1273575Y2154314D1*
X1274417Y2148988D1*
X1274524Y2066929D1*
X1274371Y2063845D1*
X1280129Y2055874D1*
X1502510Y1833343D1*
X1505680Y1828980D1*
X1508129Y1824175D1*
X1509795Y1819046D1*
X1510638Y1813720D1*
X1510744Y1712598D1*
X1510322Y1707222D1*
X1509062Y1701979D1*
X1506999Y1696996D1*
X1504181Y1692399D1*
X1500678Y1688298D1*
X1496577Y1684795D1*
X1493154Y1682404D1*
X1487995Y1677245D1*
X1482093Y1672958D1*
X1475592Y1669646D1*
X1468654Y1667391D1*
X1461449Y1666249D1*
X1454152D1*
X1446948Y1667391D1*
X1440009Y1669646D1*
X1433508Y1672958D1*
X1427606Y1677245D1*
X1422448Y1682404D1*
X1418160Y1688306D1*
X1414848Y1694807D1*
X1412593Y1701745D1*
X1411451Y1708950D1*
Y1716247D1*
X1412593Y1723451D1*
X1414848Y1730390D1*
X1418160Y1736891D1*
X1422448Y1742793D1*
X1427606Y1747951D1*
X1433508Y1752239D1*
X1440009Y1755551D1*
X1442029Y1756297D1*
X1442012Y1796827D1*
X1402484Y1836026D1*
X1399693Y1829286D1*
X1395881Y1823067D1*
X1391143Y1817518D1*
X1385594Y1812781D1*
X1379375Y1808969D1*
X1372635Y1806177D1*
X1365541Y1804474D1*
X1360448Y1803987D1*
X1306299Y1749824D1*
X1305050Y1741115D1*
X1302795Y1734177D1*
X1299483Y1727676D1*
X1295196Y1721774D1*
X1290037Y1716615D1*
X1284135Y1712328D1*
X1277634Y1709016D1*
X1270696Y1706761D1*
X1262022Y1705562D1*
X1185984Y1629509D1*
X1194621Y1630307D1*
X1201894Y1629735D1*
X1208988Y1628031D1*
X1215728Y1625240D1*
X1221948Y1621428D1*
X1225894Y1618171D1*
X1302189Y1618181D1*
X1308045Y1620010D1*
X1315249Y1621152D1*
X1322546D1*
X1329751Y1620010D1*
X1335579Y1618165D1*
X1864845Y1618181D1*
X2123350Y1876526D1*
X2127713Y1879696D1*
X2132518Y1882144D1*
X2137647Y1883811D1*
X2142972Y1884654D1*
X2171890Y1884760D1*
X2178940Y1890034D1*
X2185441Y1893346D1*
X2192379Y1895601D1*
X2199584Y1896743D1*
X2206881D1*
X2214085Y1895601D1*
X2221024Y1893346D1*
X2227525Y1890034D1*
X2233427Y1885747D1*
X2238585Y1880588D1*
X2242873Y1874686D1*
X2246185Y1868185D1*
X2248440Y1861247D1*
X2249581Y1854042D1*
Y1846745D1*
X2248440Y1839541D1*
X2246185Y1832602D1*
X2242873Y1826101D1*
X2238585Y1820199D1*
X2233427Y1815041D1*
X2227525Y1810753D1*
X2221024Y1807441D1*
X2214085Y1805186D1*
X2206881Y1804045D1*
X2199584D1*
X2192379Y1805186D1*
X2185441Y1807441D1*
X2178940Y1810753D1*
X2171959Y1816038D1*
X2159921Y1816028D1*
X2133545Y1789668D1*
X2140550Y1787909D1*
X2148671Y1784545D1*
X2156167Y1779953D1*
X2162850Y1774243D1*
X2168560Y1767559D1*
X2173152Y1760063D1*
X2176517Y1751942D1*
X2178568Y1743395D1*
X2179259Y1734631D1*
X2178568Y1725867D1*
X2176517Y1717320D1*
X2173152Y1709199D1*
X2168560Y1701703D1*
X2162560Y1694751D1*
X2167818Y1697499D1*
X2172946Y1699164D1*
X2178272Y1700008D1*
X2300451Y1700114D1*
X2307210Y1708144D1*
X2314365Y1714255D1*
X2316551Y1715715D1*
X2310668Y1720156D1*
X2304014Y1726810D1*
X2298484Y1734421D1*
X2294214Y1742803D1*
X2291306Y1751752D1*
X2289835Y1761043D1*
Y1770453D1*
X2291306Y1779744D1*
X2294214Y1788693D1*
X2298484Y1797075D1*
X2304014Y1804686D1*
X2310668Y1811340D1*
X2316551Y1815715D1*
X2310668Y1820156D1*
X2304014Y1826810D1*
X2298484Y1834421D1*
X2294214Y1842803D1*
X2291306Y1851752D1*
X2289835Y1861043D1*
Y1870453D1*
X2291306Y1879744D1*
X2294214Y1888693D1*
X2298484Y1897075D1*
X2304014Y1904686D1*
X2305026Y1905781D1*
X2289650Y1905791D1*
Y2025705D1*
X2302150D1*
X2316551Y1615781D2*
X2310668Y1620156D1*
X2304014Y1626810D1*
X2300497Y1631408D1*
X2195163Y1631382D1*
X2006327Y1442656D1*
X2001965Y1439487D1*
X1997159Y1437038D1*
X1992030Y1435371D1*
X1986705Y1434529D1*
X1894311Y1434423D1*
X1887336Y1429148D1*
X1880835Y1425836D1*
X1873896Y1423581D1*
X1866692Y1422440D1*
X1859395D1*
X1853630Y1423295D1*
X1915896Y1360902D1*
X1919066Y1356539D1*
X1921514Y1351734D1*
X1923181Y1346605D1*
X1924024Y1341280D1*
X1924130Y1271444D1*
X1929404Y1264450D1*
X1932717Y1257949D1*
X1934971Y1251010D1*
X1936113Y1243806D1*
Y1236509D1*
X1934971Y1229304D1*
X1932717Y1222366D1*
X1929404Y1215865D1*
X1925117Y1209963D1*
X1919958Y1204804D1*
X1914056Y1200517D1*
X1907555Y1197205D1*
X1903513Y1195766D1*
X2256634Y1195677D1*
X2261959Y1194833D1*
X2267088Y1193168D1*
X2271894Y1190719D1*
X2276256Y1187550D1*
X2290218Y1173738D1*
X2291306Y1179744D1*
X2294214Y1188693D1*
X2298484Y1197075D1*
X2304014Y1204686D1*
X2310668Y1211340D1*
X2316551Y1215715D1*
X2310668Y1220156D1*
X2304014Y1226810D1*
X2298484Y1234421D1*
X2294214Y1242803D1*
X2293341Y1245167D1*
X2241398Y1245268D1*
X2236072Y1246110D1*
X2230944Y1247777D1*
X2226138Y1250226D1*
X2221776Y1253395D1*
X2149083Y1325937D1*
X2141038Y1333983D1*
X2133257Y1332033D1*
X2125984Y1331461D1*
X2118711Y1332033D1*
X2111617Y1333736D1*
X2104877Y1336528D1*
X2098657Y1340340D1*
X2093109Y1345077D1*
X2088371Y1350626D1*
X2084559Y1356845D1*
X2081768Y1363585D1*
X2080064Y1370680D1*
X2079492Y1377953D1*
X2080064Y1385226D1*
X2081768Y1392320D1*
X2084559Y1399060D1*
X2088371Y1405280D1*
X2093109Y1410828D1*
X2098657Y1415566D1*
X2104877Y1419378D1*
X2111617Y1422169D1*
X2118711Y1423873D1*
X2125984Y1424445D1*
X2133257Y1423873D1*
X2140352Y1422169D1*
X2147092Y1419378D1*
X2153311Y1415566D1*
X2158860Y1410828D1*
X2161272Y1408573D1*
X2165869Y1405756D1*
X2169970Y1402253D1*
X2258324Y1313899D1*
X2313870Y1313894D1*
X2316551Y1315715D1*
X2310668Y1320156D1*
X2304014Y1326810D1*
X2298484Y1334421D1*
X2294214Y1342803D1*
X2291306Y1351752D1*
X2289835Y1361043D1*
Y1370453D1*
X2291306Y1379744D1*
X2294214Y1388693D1*
X2298484Y1397075D1*
X2304014Y1404686D1*
X2310668Y1411340D1*
X2316551Y1415715D1*
X2309958Y1420772D1*
X2304656Y1426071D1*
X2300058Y1431988D1*
X2296232Y1438434D1*
X2293241Y1445307D1*
X2291131Y1452499D1*
X2289936Y1459898D1*
X2289672Y1467388D1*
X2290345Y1474853D1*
X2291944Y1482176D1*
X2294444Y1489241D1*
X2297806Y1495940D1*
X2301978Y1502167D1*
X2306894Y1507825D1*
X2312478Y1512825D1*
X2316520Y1515748D1*
X2310668Y1520156D1*
X2304014Y1526810D1*
X2298484Y1534421D1*
X2294214Y1542803D1*
X2291306Y1551752D1*
X2289835Y1561043D1*
Y1570453D1*
X2291306Y1579744D1*
X2294214Y1588693D1*
X2298484Y1597075D1*
X2304014Y1604686D1*
X2310668Y1611340D1*
X2316551Y1615715D1*
X1560129Y1944085D2*
X1553696Y1946764D1*
X1547476Y1950576D1*
X1541928Y1955314D1*
X1537190Y1960862D1*
X1533378Y1967081D1*
X1530587Y1973822D1*
X1528883Y1980916D1*
X1528311Y1988189D1*
X1528883Y1995462D1*
X1530587Y2002556D1*
X1533378Y2009297D1*
X1537190Y2015516D1*
X1541928Y2021064D1*
X1547476Y2025802D1*
X1553696Y2029614D1*
X1560436Y2032406D1*
X1567530Y2034109D1*
X1574803Y2034681D1*
X1582076Y2034109D1*
X1589171Y2032406D1*
X1595911Y2029614D1*
X1602130Y2025802D1*
X1607678Y2021064D1*
X1612416Y2015516D1*
X1616228Y2009297D1*
X1619020Y2002556D1*
X1620723Y1995462D1*
X1621220Y1990084D1*
X1625109Y1984106D1*
X1627172Y1979123D1*
X1628432Y1973881D1*
X1628854Y1968504D1*
Y1940720D1*
X1634129Y1933741D1*
X1637441Y1927240D1*
X1639696Y1920302D1*
X1640895Y1911629D1*
X1707143Y1845395D1*
X1740325Y1845390D1*
X1747361Y1850664D1*
X1753862Y1853976D1*
X1760801Y1856231D1*
X1768005Y1857373D1*
X1775302D1*
X1782507Y1856231D1*
X1789445Y1853976D1*
X1795946Y1850664D1*
X1801848Y1846377D1*
X1807007Y1841218D1*
X1811294Y1835316D1*
X1814606Y1828815D1*
X1816861Y1821877D1*
X1818003Y1814672D1*
Y1807375D1*
X1816861Y1800171D1*
X1814606Y1793232D1*
X1811294Y1786731D1*
X1807007Y1780829D1*
X1801848Y1775671D1*
X1795946Y1771383D1*
X1789445Y1768071D1*
X1782507Y1765816D1*
X1775302Y1764675D1*
X1768005D1*
X1760801Y1765816D1*
X1753862Y1768071D1*
X1747361Y1771383D1*
X1740381Y1776668D1*
X1690217Y1776764D1*
X1684891Y1777606D1*
X1679762Y1779273D1*
X1674957Y1781722D1*
X1670594Y1784891D1*
X1597902Y1857433D1*
X1592344Y1862992D1*
X1583635Y1864241D1*
X1576697Y1866496D1*
X1570196Y1869808D1*
X1564294Y1874096D1*
X1559135Y1879255D1*
X1554848Y1885156D1*
X1551535Y1891657D1*
X1549281Y1898596D1*
X1548139Y1905801D1*
Y1913097D1*
X1549281Y1920302D1*
X1551535Y1927240D1*
X1554848Y1933741D1*
X1560133Y1940722D1*
X1876014Y1195766D2*
X1868656Y1198732D1*
X1862437Y1202545D1*
X1856888Y1207282D1*
X1852151Y1212831D1*
X1848339Y1219050D1*
X1845547Y1225790D1*
X1843844Y1232885D1*
X1843272Y1240157D1*
X1843844Y1247430D1*
X1845547Y1254525D1*
X1848339Y1261265D1*
X1852151Y1267484D1*
X1855408Y1271430D1*
X1855398Y1324386D1*
X1688790Y1490955D1*
X1679066Y1487231D1*
X1680207Y1480026D1*
Y1472730D1*
X1679066Y1465525D1*
X1676811Y1458587D1*
X1673499Y1452085D1*
X1668214Y1445105D1*
X1668224Y1274083D1*
X1746513Y1195789D1*
X1875887Y1195783D1*
X1173005Y1304227D2*
X1166025Y1298942D1*
X1159524Y1295630D1*
X1152585Y1293375D1*
X1145381Y1292234D1*
X1138084D1*
X1130879Y1293375D1*
X1123941Y1295630D1*
X1117440Y1298942D1*
X1111538Y1303230D1*
X1106379Y1308388D1*
X1102092Y1314290D1*
X1098780Y1320791D1*
X1096525Y1327730D1*
X1095383Y1334934D1*
Y1342231D1*
X1096525Y1349436D1*
X1098780Y1356374D1*
X1102092Y1362875D1*
X1106379Y1368777D1*
X1111538Y1373936D1*
X1117440Y1378223D1*
X1123941Y1381535D1*
X1130879Y1383790D1*
X1138084Y1384932D1*
X1145381D1*
X1152585Y1383790D1*
X1159524Y1381535D1*
X1166025Y1378223D1*
X1173005Y1372938D1*
X1405356Y1372949D1*
X1408921Y1377965D1*
X1410063Y1385169D1*
X1412318Y1392108D1*
X1415630Y1398609D1*
X1419917Y1404510D1*
X1425076Y1409669D1*
X1430978Y1413957D1*
X1437479Y1417269D1*
X1444417Y1419524D1*
X1451622Y1420665D1*
X1458919D1*
X1466123Y1419524D1*
X1473062Y1417269D1*
X1479563Y1413957D1*
X1485465Y1409669D1*
X1490623Y1404510D1*
X1494911Y1398609D1*
X1498223Y1392108D1*
X1500478Y1385169D1*
X1501619Y1377965D1*
Y1370668D1*
X1500478Y1363463D1*
X1498223Y1356525D1*
X1494911Y1350024D1*
X1490623Y1344122D1*
X1485465Y1338963D1*
X1479563Y1334676D1*
X1473062Y1331364D1*
X1466123Y1329109D1*
X1457450Y1327909D1*
X1441856Y1312450D1*
X1437493Y1309281D1*
X1432688Y1306832D1*
X1427559Y1305165D1*
X1422234Y1304323D1*
X1319537Y1304217D1*
X1173004D1*
X1817550Y1459375D2*
X1816694Y1465140D1*
Y1472437D1*
X1817836Y1479642D1*
X1820091Y1486580D1*
X1823403Y1493081D1*
X1827690Y1498983D1*
X1832849Y1504142D1*
X1838751Y1508429D1*
X1845252Y1511741D1*
X1852190Y1513996D1*
X1859395Y1515138D1*
X1866692D1*
X1873896Y1513996D1*
X1880835Y1511741D1*
X1887336Y1508429D1*
X1894316Y1503144D1*
X1969831Y1503155D1*
X2155346Y1688727D1*
X2148671Y1684718D1*
X2140550Y1681353D1*
X2132003Y1679302D1*
X2123239Y1678612D1*
X2114475Y1679302D1*
X2105928Y1681353D1*
X2097807Y1684718D1*
X2090311Y1689310D1*
X2083627Y1695020D1*
X2077917Y1701703D1*
X2073325Y1709199D1*
X2069961Y1717320D1*
X2068207Y1724367D1*
X1901409Y1557682D1*
X1897047Y1554513D1*
X1892241Y1552064D1*
X1887113Y1550398D1*
X1881787Y1549555D1*
X1779091Y1549449D1*
X1727479D1*
X1817483Y1459465D1*
X1753098Y659709D2*
X1751724Y651026D1*
X1749008Y642665D1*
X1745017Y634833D1*
X1739849Y627722D1*
X1733634Y621507D1*
X1726522Y616339D1*
X1718690Y612348D1*
X1710329Y609631D1*
X1701647Y608257D1*
X1692857D1*
X1684175Y609631D1*
X1675814Y612348D1*
X1667982Y616339D1*
X1660870Y621507D1*
X1654655Y627722D1*
X1649487Y634833D1*
X1645496Y642665D1*
X1642780Y651026D1*
X1641406Y659709D1*
Y668499D1*
X1642780Y677181D1*
X1644063Y682230D1*
X1635299Y681539D1*
X1626535Y682230D1*
X1617988Y684281D1*
X1609867Y687646D1*
X1602371Y692238D1*
X1595688Y697948D1*
X1589978Y704631D1*
X1585386Y712127D1*
X1582021Y720248D1*
X1579970Y728795D1*
X1579280Y737559D1*
X1579970Y746323D1*
X1582021Y754870D1*
X1585386Y762991D1*
X1589978Y770487D1*
X1595688Y777171D1*
X1602371Y782881D1*
X1609867Y787472D1*
X1617988Y790837D1*
X1626535Y792888D1*
X1635299Y793579D1*
X1644063Y792888D1*
X1652610Y790837D1*
X1660731Y787472D1*
X1668227Y782881D1*
X1674911Y777171D1*
X1680621Y770487D1*
X1685213Y762991D1*
X1688577Y754870D1*
X1690629Y746323D1*
X1691319Y737559D1*
X1690629Y728795D1*
X1688262Y719394D1*
X1697252Y720123D1*
X1706016Y719433D1*
X1714563Y717382D1*
X1722684Y714017D1*
X1730180Y709425D1*
X1736864Y703715D1*
X1742573Y697031D1*
X1747165Y689535D1*
X1750530Y681415D1*
X1752581Y672867D1*
X1753272Y664104D1*
X1753098Y659709D1*
X1585352Y850454D2*
X1583978Y841772D1*
X1581261Y833411D1*
X1577270Y825579D1*
X1572102Y818467D1*
X1565887Y812252D1*
X1558776Y807084D1*
X1550944Y803093D1*
X1542583Y800377D1*
X1533900Y799003D1*
X1525110D1*
X1516428Y800377D1*
X1508067Y803093D1*
X1500235Y807084D1*
X1493123Y812252D1*
X1486908Y818467D1*
X1481740Y825579D1*
X1477749Y833411D1*
X1475033Y841772D1*
X1473659Y850454D1*
Y859244D1*
X1475033Y867927D1*
X1477749Y876287D1*
X1481740Y884119D1*
X1486908Y891231D1*
X1493123Y897446D1*
X1500235Y902614D1*
X1508067Y906605D1*
X1516428Y909322D1*
X1525110Y910696D1*
X1533900D1*
X1542583Y909322D1*
X1550944Y906605D1*
X1558776Y902614D1*
X1565887Y897446D1*
X1572102Y891231D1*
X1577270Y884119D1*
X1581261Y876287D1*
X1583978Y867927D1*
X1585352Y859244D1*
Y850454D1*
X1509598Y944606D2*
X1508224Y935924D1*
X1505508Y927563D1*
X1501517Y919731D1*
X1496349Y912619D1*
X1490134Y906404D1*
X1483022Y901236D1*
X1475190Y897245D1*
X1466829Y894529D1*
X1458147Y893155D1*
X1449357D1*
X1440675Y894529D1*
X1432314Y897245D1*
X1424482Y901236D1*
X1417370Y906404D1*
X1411155Y912619D1*
X1405987Y919731D1*
X1401996Y927563D1*
X1399280Y935924D1*
X1397906Y944606D1*
Y953396D1*
X1399280Y962079D1*
X1401996Y970440D1*
X1405987Y978272D1*
X1411155Y985383D1*
X1417370Y991598D1*
X1424482Y996766D1*
X1432314Y1000757D1*
X1440675Y1003474D1*
X1449357Y1004848D1*
X1458147D1*
X1466829Y1003474D1*
X1475190Y1000757D1*
X1483022Y996766D1*
X1490134Y991598D1*
X1496349Y985383D1*
X1501517Y978272D1*
X1505508Y970440D1*
X1508224Y962079D1*
X1509598Y953396D1*
Y944606D1*
X1526388Y2104652D2*
X1525014Y2095970D1*
X1522298Y2087609D1*
X1518307Y2079777D1*
X1513139Y2072665D1*
X1506924Y2066450D1*
X1499812Y2061282D1*
X1491980Y2057291D1*
X1483619Y2054575D1*
X1474937Y2053201D1*
X1466147D1*
X1457465Y2054575D1*
X1449104Y2057291D1*
X1441272Y2061282D1*
X1434160Y2066450D1*
X1427945Y2072665D1*
X1422777Y2079777D1*
X1418786Y2087609D1*
X1416070Y2095970D1*
X1414696Y2104652D1*
Y2113442D1*
X1416070Y2122125D1*
X1418786Y2130486D1*
X1422777Y2138318D1*
X1427945Y2145429D1*
X1434160Y2151644D1*
X1441272Y2156812D1*
X1449104Y2160803D1*
X1457465Y2163520D1*
X1466147Y2164894D1*
X1474937D1*
X1483619Y2163520D1*
X1491980Y2160803D1*
X1499812Y2156812D1*
X1506924Y2151644D1*
X1513139Y2145429D1*
X1518307Y2138318D1*
X1522298Y2130486D1*
X1525014Y2122125D1*
X1526388Y2113442D1*
Y2104652D1*
X2289698Y1465748D2*
D14*
X2349606D1*
X472441Y2755906D2*
X532349D1*
D19*
X485039Y1065748D3*
D20*
Y1165748D3*
Y1265748D3*
Y1365748D3*
Y1465748D3*
Y1565748D3*
Y1665748D3*
Y1765748D3*
Y1865748D3*
Y1965748D3*
D19*
X2349606D3*
D20*
Y1865748D3*
Y1765748D3*
Y1665748D3*
Y1565748D3*
Y1465748D3*
Y1365748D3*
Y1265748D3*
Y1165748D3*
Y1065748D3*
D19*
X472441Y2755906D3*
D20*
Y2655906D3*
Y2555906D3*
Y2455906D3*
Y2355906D3*
D28*
X1697252Y664104D3*
X1635299Y737559D3*
X1529505Y854849D3*
X1453752Y949001D3*
X1470542Y2109047D3*
X2123239Y1734631D3*
M02*
