M48
METRIC,0000.00
T01C0.486
T02C1.0
T03C1.1
%
T03
X+001232Y+002707
X+001232Y+002961
X+001232Y+003215
X+001232Y+003469
X+001232Y+003723
X+001232Y+003977
X+001232Y+004231
X+001232Y+004485
X+001232Y+004739
X+001232Y+004993
X+005968Y+004993
X+005968Y+004739
X+005968Y+004485
X+005968Y+004231
X+005968Y+003977
X+005968Y+003723
X+005968Y+003469
X+005968Y+003215
X+005968Y+002961
X+005968Y+002707
X+001200Y+007000
X+001200Y+006746
X+001200Y+006492
X+001200Y+006238
X+001200Y+005984
T01
X+004200Y+002300
X+003100Y+005250
X+004000Y+005050
X+004050Y+004850
X+004500Y+004600
X+001750Y+003900
X+003166Y+003874
X+004800Y+003150
X+002900Y+003400
X+001950Y+005200
X+002100Y+003350
X+003703Y+004350
X+003696Y+003491
X+004732Y+003731
X+003034Y+004023
X+005596Y+004700
X+001900Y+004100
X+003450Y+004700
X+004150Y+003750
X+005400Y+003500
X+003950Y+003600
X+004400Y+003600
X+004650Y+003350
X+004900Y+002650
X+003200Y+004450
X+002200Y+005500
X+001850Y+005600
X+002550Y+005450
X+002900Y+005400
X+003000Y+004500
X+002050Y+004600
X+001800Y+004800
X+003350Y+004000
X+002170Y+002229
X+002560Y+002277
X+002916Y+002180
X+003335Y+003657
X+001828Y+003636
X+004922Y+003596
T02
X+004311Y+001687
X+004154Y+001873
X+003885Y+002171
X+003693Y+002410
X+003735Y+005357
X+005393Y+004406
T00
M30
