M48
INCH
T01C0.0191
T02C0.0394
T03C0.0433
%
T01
X+011638Y+017866
X+012405Y+017783
X+013189Y+018671
X+013939Y+019143
X+015354Y+019143
X+016395Y+018683
X+015487Y+017110
X+013814Y+017505
X+012269Y+019119
X+012466Y+020632
X+011466Y+022048
X+010271Y+021496
X+008761Y+021654
X+007677Y+018735
X+008337Y+017751
X+009449Y+016929
X+010827Y+018110
X+012529Y+015366
X+013419Y+013941
X+015157Y+014335
X+016299Y+015586
X+017746Y+016610
X+018504Y+016339
X+018141Y+018110
X+020079Y+018701
X+019554Y+019766
X+020074Y+020992
X+019094Y+021387
X+017746Y+021629
X+021063Y+020161
X+019195Y+014335
X+014173Y+009646
X+014998Y+005954
X+011874Y+005709
X+009449Y+012652
X+007874Y+013171
X+011024Y+013306
X+005971Y+016142
X+013543Y+022997
X+013410Y+026575
X+012730Y+027463
X+010039Y+027328
T02
X+006102Y+022835
X+006693Y+021457
X+006890Y+017126
X+006890Y+014567
X+017913Y+013386
X+022638Y+006299
X+012402Y+004921
X+018898Y+026969
T03
X+004850Y+011642
X+004850Y+012642
X+004850Y+013642
X+004850Y+014642
X+004850Y+015642
X+004850Y+016642
X+004850Y+017642
X+004850Y+018642
X+004850Y+019642
X+004850Y+020642
X+015339Y+022244
X+016339Y+022244
X+014173Y+028150
X+014173Y+029150
X+023496Y+020642
X+023496Y+019642
X+023496Y+018642
X+023496Y+017642
X+023496Y+016642
X+023496Y+015642
X+023496Y+014642
X+023496Y+013642
X+023496Y+012642
X+023496Y+011642
T00
M30
