M48
METRIC,0000.00
T01C0.486
T02C0.8
T03C0.9
T04C1.1
T05C1.2
T06C2.3
T07C3.2
%
T04
X+001282Y+004907
X+001282Y+005161
X+001282Y+005415
X+001282Y+005669
X+001282Y+005923
X+001282Y+006177
X+001282Y+006431
X+001282Y+006685
X+001282Y+006939
X+001282Y+007193
X+003200Y+005700
X+002946Y+005700
X+001300Y+001950
X+001300Y+002204
X+001300Y+002458
X+001300Y+002712
X+001300Y+002966
X+001300Y+003220
X+001300Y+003474
X+001300Y+003728
X+001300Y+003982
X+001300Y+004236
T07
X+005450Y+010450
X+005095Y+009950
X+004790Y+010450
T06
X+005845Y+010450
T02
X+003350Y+009050
X+003350Y+008800
X+003000Y+010350
X+003000Y+010100
T05
X+002650Y+008600
X+002650Y+009108
X+002650Y+008854
X+004910Y+009108
X+004910Y+008600
X+004910Y+008854
T02
X+004925Y+007675
X+005175Y+007675
T03
X+001450Y+008850
X+001950Y+008850
X+002900Y+006600
X+002400Y+006600
X+001900Y+010000
X+001646Y+010000
X+001392Y+010000
T04
X+001900Y+010508
X+001392Y+010508
X+004050Y+008600
X+004050Y+008854
X+004050Y+009108
X+006018Y+007193
X+006018Y+006939
X+006018Y+006685
X+006018Y+006431
X+006018Y+006177
X+006018Y+005923
X+006018Y+005669
X+006018Y+005415
X+006018Y+005161
X+006018Y+004907
X+006050Y+008150
X+006050Y+007896
X+006050Y+007642
X+006050Y+009350
X+006050Y+009096
X+006050Y+008842
X+004450Y+003150
X+004450Y+003404
X+005510Y+003085
X+005510Y+002831
T01
X+004500Y+001950
X+002150Y+006250
X+004250Y+002450
X+003450Y+002550
X+004043Y+001668
X+005084Y+002169
X+002442Y+005773
X+003374Y+003103
X+004225Y+003114
X+005296Y+001315
X+005206Y+004080
X+005627Y+004308
X+005680Y+001986
X+002481Y+002777
X+002387Y+005100
X+003394Y+005354
X+005763Y+006589
X+001473Y+001364
X+006085Y+008470
X+001669Y+005426
X+002142Y+003564
X+004021Y+008128
X+004300Y+001950
X+001474Y+004632
X+005042Y+006100
X+003608Y+008305
X+004055Y+004250
X+003350Y+008453
X+004250Y+001730
X+004419Y+010380
X+004875Y+006643
X+001801Y+001825
X+003979Y+001196
X+004600Y+001200
X+001700Y+002350
X+001500Y+002250
X+001550Y+006050
X+001550Y+002100
X+004200Y+001235
X+003723Y+004250
X+003357Y+006779
X+003845Y+006456
X+003264Y+001595
X+004550Y+004050
X+003600Y+004050
X+004550Y+004250
X+004250Y+006850
X+003900Y+010000
X+005319Y+003731
X+004844Y+003743
X+005884Y+008485
X+005749Y+008009
T00
M30
