G04 DipTrace 3.0.0.2*
G04 Top.gbr*
%MOMM*%
G04 #@! TF.FileFunction,Copper,L1,Top*
G04 #@! TF.Part,Single*
G04 #@! TA.AperFunction,Conductor*
%ADD10C,0.25*%
%ADD13C,0.4*%
G04 #@! TA.AperFunction,CopperBalancing*
%ADD14C,0.33*%
G04 #@! TA.AperFunction,Conductor*
%ADD15C,0.3*%
G04 #@! TA.AperFunction,CopperBalancing*
%ADD16C,0.635*%
%ADD17R,1.5X1.3*%
%ADD18R,1.3X1.5*%
G04 #@! TA.AperFunction,ComponentPad*
%ADD19R,1.7X1.7*%
%ADD20C,1.7*%
%ADD23R,0.7X0.25*%
%ADD24R,1.7X3.8*%
%ADD25R,0.7X0.9*%
%ADD26R,2.0X0.6*%
%ADD27R,0.4X1.8*%
G04 #@! TA.AperFunction,ComponentPad*
%ADD28C,1.5*%
G04 #@! TA.AperFunction,ViaPad*
%ADD29C,1.016*%
%FSLAX35Y35*%
G04*
G71*
G90*
G75*
G01*
G04 Top*
%LPD*%
X4050000Y2800000D2*
D13*
X4000000Y2850000D1*
Y3050000D1*
Y3250000D1*
X4050000Y3300000D1*
X4100000D1*
Y3365000D1*
X4115000Y3380000D1*
X4050000Y3300000D2*
Y3380000D1*
X3800000Y3240000D2*
X3990000D1*
X4000000Y3250000D1*
X4310000Y2800000D2*
Y2990000D1*
X4250000Y3050000D1*
X4000000D1*
X4375000Y3380000D2*
Y3175000D1*
X4340877Y3140877D1*
X4250000Y3050000D1*
X5200000Y2760000D2*
X5410000D1*
X5550000Y2900000D1*
Y3300000D1*
X5719000Y3469000D1*
X5968000D1*
X5200000Y2760000D2*
X4940000D1*
X4600000Y3100000D1*
X4381753D1*
X4340877Y3140877D1*
X4344003Y4467027D2*
Y4874003D1*
X4395000Y4925000D1*
X4250000Y4850000D2*
D10*
X4305000D1*
D13*
X4320000D1*
X4395000Y4925000D1*
X4245000Y2800000D2*
Y2345000D1*
X4200000Y2300000D1*
X4180000Y3380000D2*
Y3520000D1*
X4150000Y3550000D1*
X4000000D1*
X3950000Y3600000D1*
X4440000Y3380000D2*
Y3560000D1*
X4400000Y3600000D1*
X4310000Y3380000D2*
Y3510000D1*
X4400000Y3600000D1*
X2022090Y1893163D2*
X1989777Y1925477D1*
Y2237333D1*
X1998553Y2228557D1*
X2169720D1*
X2156553Y2360223D2*
X2132717Y2384060D1*
Y2425513D1*
X2169720Y2228557D2*
X2132717Y2265560D1*
Y2425513D1*
X3360643Y1900000D2*
X3354720Y1905923D1*
Y2057390D1*
X3310833Y2101277D1*
X3029943D1*
X2950943Y2180277D1*
X2915833D1*
X5162577Y4323447D2*
X5139130Y4300000D1*
X4800000D1*
X4650000D1*
X4800000Y4510000D2*
Y4300000D1*
X4395000Y4925000D2*
D3*
X4344003Y4467027D2*
X4334643Y4457667D1*
Y4185783D1*
X4265090Y4116230D1*
X3923623D1*
X2790000Y4173000D2*
X2673000D1*
X2624863Y4124863D1*
X2600000Y4100000D1*
Y3290000D1*
X2750000Y3140000D1*
X2624863Y4124863D2*
Y4734863D1*
X2750000Y4860000D1*
X4250000Y4950000D2*
D10*
X3950000D1*
D13*
X3740000D1*
X2250000Y3919000D2*
X1981000D1*
X1900000Y4000000D1*
Y4100000D1*
X3450000Y4700000D2*
X3655273D1*
X3796733Y4841460D1*
X3822637Y4867363D1*
X3740000Y4950000D1*
X3200000Y4450000D2*
X3350000Y4300000D1*
X3740000Y4950000D2*
X3735177Y4954823D1*
Y5356980D1*
X3894547Y4703013D2*
X3796733Y4800827D1*
Y4841460D1*
X5200000Y3110000D2*
D14*
X5010000D1*
X5000000Y3100000D1*
X5200000Y3110000D2*
Y2950000D1*
X2250000Y3792000D2*
D13*
X1858000D1*
X1750000Y3900000D1*
X2790000Y3792000D2*
X3084167D1*
X3166463Y3874297D1*
X5000000Y3100000D2*
X4850000D1*
X4800000Y3150000D1*
X2250000Y4046000D2*
X2050000D1*
Y4200000D1*
X1950000Y4300000D1*
X1850000D1*
X1750000Y4200000D1*
Y3900000D1*
X2790000Y4046000D2*
X2794000Y4050000D1*
X2900000D1*
X3000000Y4150000D1*
X3150000D1*
X3166463Y4133537D1*
Y3874297D1*
X4180000Y2800000D2*
Y2530000D1*
X4024780Y2374780D1*
Y2142470D1*
X3980873Y2098563D1*
X3482310Y1600000D1*
X3110643D1*
X2960643Y1750000D1*
X3884943Y2171317D2*
X3957697Y2098563D1*
X3980873D1*
X2750000Y2950000D2*
Y1940000D1*
X2960643D1*
X3130643D1*
X3170643Y1900000D1*
X2790000Y3665000D2*
X2935000D1*
X2950000Y3650000D1*
X3000000D1*
X3150000Y3500000D1*
Y3140000D1*
X3100000D1*
Y4850000D2*
X3050000D1*
X3545770Y4354230D1*
Y3500000D1*
X3150000D1*
X3100000Y5040000D2*
Y5250000D1*
X2790000Y3538000D2*
Y3510000D1*
X2900000Y3400000D1*
X3696387Y3490763D2*
Y4350000D1*
X3702813D1*
X1786113Y2573760D2*
X1827867Y2615513D1*
X2132717D1*
X2050000Y2698230D1*
Y2950000D1*
X2250000Y4173000D2*
X2377000D1*
X2450000Y4100000D1*
Y3190000D1*
X2405000Y3145000D1*
X2400000Y4860000D2*
Y4156507D1*
X2450000Y4100000D1*
X2250000Y4300000D2*
Y5050000D1*
X2400000D1*
X1200000Y6238000D2*
X1600000D1*
Y6250000D1*
X1700000D1*
X2100000Y5850000D1*
X2250000D1*
X2350000Y5750000D1*
Y5100000D1*
X2400000Y5050000D1*
X4375000Y2800000D2*
X4375213Y2799787D1*
Y2259240D1*
X4068580Y1952607D1*
X3502517Y1386543D1*
X2489660D1*
X2422090Y1454113D1*
Y1699590D1*
X4068580Y1952607D2*
X4147787Y1873400D1*
X4153660D1*
X2250000Y3665000D2*
X2015000D1*
X1800000Y3450000D1*
Y3390000D1*
X2050000Y3140000D1*
X1800000Y3450000D2*
X1650000D1*
Y4450000D1*
X2050000Y4850000D1*
X2405000Y2955000D2*
Y1906680D1*
X2422090Y1889590D1*
X2418517Y1893163D1*
X2212090D1*
X4245000Y3380000D2*
Y3655000D1*
X4150000Y3750000D1*
X4505000Y2800000D2*
X4550000D1*
X4900000Y2450000D1*
X5550000D1*
Y2543000D1*
X5968000Y2961000D1*
X4505000Y3380000D2*
Y3503593D1*
X4732130Y3730723D1*
X3100000Y2950000D2*
Y2540000D1*
X3471243Y2540217D2*
X3471027Y2540000D1*
X3100000D1*
X2790000Y4300000D2*
Y4440000D1*
X2800000Y4450000D1*
Y4500000D1*
X2950000Y4650000D1*
Y5000000D1*
X2900000Y5050000D1*
X2750000D1*
Y5700000D1*
X2700000D1*
X1654000Y6746000D1*
X1200000D1*
X4250000Y5000000D2*
D10*
X4200000D1*
D15*
X4149430Y5050570D1*
D13*
X4000000Y5200000D1*
X4250000Y4900000D2*
D10*
X4100000D1*
X4050000Y4850000D1*
X4000000Y5050000D2*
D13*
Y5200000D1*
X4540000Y4750000D2*
D10*
Y4717500D1*
D13*
Y4640000D1*
X4500000Y4600000D1*
Y4100000D1*
X4650000Y3950000D1*
X4950000D1*
X5400000Y3500000D1*
X4540000Y4950000D2*
D10*
X4595000D1*
D15*
X4860617D1*
D10*
X4887633Y4977017D1*
D13*
X5021400Y5110783D1*
X5179907D1*
X2790000Y3919000D2*
X2930447D1*
X3034337Y4022890D1*
X3350000Y4000000D2*
Y4110000D1*
X5596210Y4700000D2*
X5451133Y4845077D1*
X5376523D1*
X5179907Y5041693D1*
Y5110783D1*
X4250000Y5050000D2*
D10*
Y5071147D1*
D13*
Y5150990D1*
X4310000Y5210990D1*
Y5300000D1*
X4540000Y5050000D2*
D10*
Y5073750D1*
D13*
Y5144973D1*
X4500000Y5184973D1*
Y5300000D1*
X4540000Y5000000D2*
D10*
X4600000D1*
D15*
X4632560Y5032560D1*
D13*
X4750000Y5150000D1*
X4840000D1*
X4850000Y5160000D1*
X3100000Y2350000D2*
X3234610Y2215390D1*
X3665390D1*
X3794180Y2344180D1*
X4115000Y2665000D1*
Y2800000D1*
X3692530Y2410463D2*
X3758813Y2344180D1*
X3794180D1*
X4250000Y4750000D2*
D10*
Y4717500D1*
D13*
Y4700000D1*
X4200000Y4650000D1*
Y4513023D1*
X4154003Y4467027D1*
X4540000Y4850000D2*
D10*
X4595000D1*
D15*
X4750000D1*
X4800000Y4800000D1*
D13*
Y4700000D1*
X4250000Y4800000D2*
D10*
X4151607D1*
D13*
X4056813Y4705207D1*
Y4618273D1*
X3951553Y4513013D1*
X3894547D1*
X3945900Y4461660D1*
Y4306230D1*
X3923623D1*
X4540000Y4800000D2*
D10*
X4600000D1*
D15*
X4650000Y4750000D1*
D13*
Y4430000D1*
X4540000Y4900000D2*
D10*
X4920017D1*
D13*
X5164940Y4655077D1*
X5176667D1*
X5376523D1*
X5176667D2*
X5162577Y4640987D1*
Y4513447D1*
X2050000Y5040000D2*
Y5134000D1*
X1200000Y5984000D1*
X2100000Y3350000D2*
Y3388000D1*
X2250000Y3538000D1*
X2050000Y5040000D2*
Y5100000D1*
X1950000Y5200000D1*
X4440000Y2800000D2*
X4440020Y2799980D1*
Y2446427D1*
X4472403Y2414043D1*
Y1996893D1*
X4233403Y1757893D1*
X3744857Y1269347D1*
X2130443D1*
X1786113Y1613677D1*
Y2383760D1*
X4311020Y1686823D2*
X4239950Y1757893D1*
X4233403D1*
D29*
X4200000Y2300000D3*
X3100000Y5250000D3*
X4000000Y5050000D3*
X4050000Y4850000D3*
X4500000Y4600000D3*
X1750000Y3900000D3*
X3166463Y3874297D3*
X4800000Y3150000D3*
X2900000Y3400000D3*
X1950000Y5200000D3*
X2100000Y3350000D3*
X3702813Y4350000D3*
X3696387Y3490763D3*
X4732130Y3730723D3*
X3034337Y4022890D3*
X5596210Y4700000D3*
X1900000Y4100000D3*
X3450000Y4700000D3*
X4150000Y3750000D3*
X5400000Y3500000D3*
X3950000Y3600000D3*
X4400000D3*
X4650000Y3350000D3*
X4900000Y2650000D3*
X3200000Y4450000D3*
X2200000Y5500000D3*
X1850000Y5600000D3*
X2550000Y5450000D3*
X2900000Y5400000D3*
X3000000Y4500000D3*
X2050000Y4600000D3*
X1800000Y4800000D3*
X3350000Y4000000D3*
X2169720Y2228557D3*
X2560333Y2276833D3*
X2915833Y2180277D3*
X3334923Y3657233D3*
X1828083Y3635863D3*
X4921920Y3596040D3*
X1104100Y7439083D2*
D16*
X6095933D1*
X1104100Y7375917D2*
X6095933D1*
X1104100Y7312750D2*
X6095933D1*
X1104100Y7249583D2*
X6095933D1*
X1104100Y7186417D2*
X6095933D1*
X1358657Y7123250D2*
X6095933D1*
X1358657Y7060083D2*
X6095933D1*
X1358657Y6996917D2*
X6095933D1*
X1358657Y6933750D2*
X6095933D1*
X1358657Y6870583D2*
X6095933D1*
X1722293Y6807417D2*
X6095933D1*
X1785547Y6744250D2*
X6095933D1*
X1848673Y6681083D2*
X6095933D1*
X1292057Y6617917D2*
X1652297D1*
X1911803D2*
X6095933D1*
X1345140Y6554750D2*
X1715547D1*
X1975053D2*
X6095933D1*
X1358657Y6491583D2*
X1778677D1*
X2038183D2*
X6095933D1*
X1344767Y6428417D2*
X1841803D1*
X2101310D2*
X6095933D1*
X1290817Y6365250D2*
X1905057D1*
X2164437D2*
X6095933D1*
X1777610Y6302083D2*
X1968183D1*
X2227690D2*
X6095933D1*
X1840860Y6238917D2*
X2031310D1*
X2290817D2*
X6095933D1*
X1903990Y6175750D2*
X2094440D1*
X2353947D2*
X6095933D1*
X1292677Y6112583D2*
X1707610D1*
X1967117D2*
X2157690D1*
X2417197D2*
X6095933D1*
X1343900Y6049417D2*
X1770863D1*
X2030370D2*
X2220820D1*
X2480327D2*
X6095933D1*
X1358657Y5986250D2*
X1833990D1*
X2093497D2*
X2283947D1*
X2543453D2*
X6095933D1*
X1390657Y5923083D2*
X1897117D1*
X2303963D2*
X2347200D1*
X2606707D2*
X6095933D1*
X1453783Y5859917D2*
X1960370D1*
X2369820D2*
X2410327D1*
X2669833D2*
X6095933D1*
X1104100Y5796750D2*
X1257530D1*
X1517037D2*
X2023497D1*
X2429973D2*
X2473457D1*
X2732963D2*
X6095933D1*
X1104100Y5733583D2*
X1320657D1*
X1580163D2*
X2236693D1*
X2443617D2*
X2536707D1*
X2836893D2*
X6095933D1*
X1104100Y5670417D2*
X1383787D1*
X1643293D2*
X2256413D1*
X2443617D2*
X2599833D1*
X2843590D2*
X6095933D1*
X1104100Y5607250D2*
X1447037D1*
X1706543D2*
X2256413D1*
X2443617D2*
X2656390D1*
X2843590D2*
X6095933D1*
X1104100Y5544083D2*
X1510167D1*
X1769673D2*
X2256413D1*
X2443617D2*
X2656390D1*
X2843590D2*
X6095933D1*
X1104100Y5480917D2*
X1573293D1*
X1832800D2*
X2256413D1*
X2443617D2*
X2656390D1*
X2843590D2*
X3658870D1*
X3811470D2*
X3851400D1*
X4148690D2*
X4701413D1*
X4998623D2*
X6095933D1*
X1104100Y5417750D2*
X1636543D1*
X1896050D2*
X2256413D1*
X2443617D2*
X2656390D1*
X2843590D2*
X3600207D1*
X4638583D2*
X4701413D1*
X4998623D2*
X6095933D1*
X1104100Y5354583D2*
X1699673D1*
X1959180D2*
X2256413D1*
X2443617D2*
X2656390D1*
X2843590D2*
X3038753D1*
X3161213D2*
X3586567D1*
X4638583D2*
X4701413D1*
X4998623D2*
X6095933D1*
X1104100Y5291417D2*
X1762800D1*
X2031113D2*
X2256413D1*
X2443617D2*
X2656390D1*
X2843590D2*
X2983067D1*
X3216900D2*
X3602563D1*
X4638583D2*
X4701413D1*
X4998623D2*
X6095933D1*
X1465443Y5228250D2*
X1826053D1*
X2085560D2*
X2256413D1*
X2443617D2*
X2656390D1*
X2843590D2*
X2977610D1*
X3222357D2*
X3641507D1*
X4638583D2*
X4701413D1*
X4998623D2*
X5041237D1*
X5508607D2*
X5752510D1*
X1474247Y5165083D2*
X1830890D1*
X2198670D2*
X2251330D1*
X2548663D2*
X2601323D1*
X2898657D2*
X2951317D1*
X3248650D2*
X3641507D1*
X5508607D2*
X5743707D1*
X1474247Y5101917D2*
X1877893D1*
X2548663D2*
X2601323D1*
X3248650D2*
X3641507D1*
X5508607D2*
X5743707D1*
X1474247Y5038750D2*
X1901333D1*
X2548663D2*
X2601323D1*
X3248650D2*
X3411320D1*
X5508607D2*
X5743707D1*
X1474247Y4975583D2*
X1901333D1*
X2548663D2*
X2601323D1*
X3248650D2*
X3411320D1*
X5525100D2*
X5743707D1*
X1474247Y4912417D2*
X1901333D1*
X2548663D2*
X2601323D1*
X3248650D2*
X3411320D1*
X5525100D2*
X5743707D1*
X1474247Y4849250D2*
X1901333D1*
X2548663D2*
X2601323D1*
X3248650D2*
X3411320D1*
X5576697D2*
X5743707D1*
X1474247Y4786083D2*
X1856313D1*
X3248650D2*
X3362827D1*
X5683357D2*
X5743707D1*
X1474247Y4722917D2*
X1793187D1*
X2493597D2*
X2531250D1*
X1474247Y4659750D2*
X1730060D1*
X1989440D2*
X2156450D1*
X2493597D2*
X2531250D1*
X3043640D2*
X3110440D1*
X4948640D2*
X5030570D1*
X1474247Y4596583D2*
X1666807D1*
X1926313D2*
X2156450D1*
X2493597D2*
X2531250D1*
X3025283D2*
X3173690D1*
X4948640D2*
X5013950D1*
X5659543D2*
X5743707D1*
X1474247Y4533417D2*
X1603680D1*
X1863187D2*
X2156450D1*
X2493597D2*
X2531250D1*
X2963150D2*
X3110067D1*
X4948640D2*
X5013950D1*
X5525100D2*
X5743707D1*
X1474247Y4470250D2*
X1558783D1*
X1800057D2*
X2156450D1*
X2493597D2*
X2531250D1*
X2900020D2*
X3077327D1*
X4948640D2*
X5013950D1*
X5526340D2*
X5743707D1*
X1474247Y4407083D2*
X1556427D1*
X1743627D2*
X2156450D1*
X2493597D2*
X2531250D1*
X2883650D2*
X3083650D1*
X4948640D2*
X5013950D1*
X5541720D2*
X5743707D1*
X1474247Y4343917D2*
X1556427D1*
X2035827D2*
X2076333D1*
X2493597D2*
X2531250D1*
X2963647D2*
X3141817D1*
X4758637D2*
X5013950D1*
X5527457D2*
X5743707D1*
X1474247Y4280750D2*
X1556427D1*
X2493597D2*
X2531250D1*
X2963647D2*
X3201350D1*
X4072290D2*
X4406360D1*
X4758637D2*
X5013950D1*
X5466933D2*
X5743707D1*
X1474247Y4217583D2*
X1556427D1*
X2493597D2*
X2531250D1*
X4072290D2*
X4406360D1*
X4758637D2*
X5013950D1*
X5311160D2*
X5743707D1*
X1474247Y4154417D2*
X1556427D1*
X4072290D2*
X4406360D1*
X4593560D2*
X5743707D1*
X1474247Y4091250D2*
X1556427D1*
X4072290D2*
X4406857D1*
X4638457D2*
X5743707D1*
X1474247Y4028083D2*
X1556427D1*
X4072290D2*
X4442203D1*
X4995273D2*
X5743707D1*
X1474247Y3964917D2*
X1556427D1*
X3790013D2*
X4505330D1*
X5064850D2*
X5743707D1*
X1474247Y3901750D2*
X1556427D1*
X3790013D2*
X4568460D1*
X5127980D2*
X5743707D1*
X1474247Y3838583D2*
X1556427D1*
X3285363D2*
X3452123D1*
X3790013D2*
X4065543D1*
X4234390D2*
X4677723D1*
X4786543D2*
X4931723D1*
X5191107D2*
X5755737D1*
X1474247Y3775417D2*
X1556427D1*
X3237367D2*
X3452123D1*
X3790013D2*
X4028337D1*
X4271720D2*
X4616457D1*
X4847810D2*
X4994850D1*
X5254357D2*
X5818617D1*
X1474247Y3712250D2*
X1556427D1*
X1743627D2*
X1816253D1*
X3125867D2*
X3452123D1*
X3790013D2*
X4031810D1*
X4317237D2*
X4583963D1*
X4855127D2*
X5057980D1*
X5317487D2*
X5809687D1*
X1474247Y3649083D2*
X1556427D1*
X1743627D2*
X1869337D1*
X3130703D2*
X3452123D1*
X3790013D2*
X4082287D1*
X4338570D2*
X4520710D1*
X4823750D2*
X5121107D1*
X5380613D2*
X5828537D1*
X1474247Y3585917D2*
X1556427D1*
X1743627D2*
X1806210D1*
X3790013D2*
X4151367D1*
X4338570D2*
X4457583D1*
X4717090D2*
X5184360D1*
X5487397D2*
X5793810D1*
X1474247Y3522750D2*
X1556427D1*
X2963647D2*
X2997453D1*
X3816430D2*
X3956403D1*
X4653960D2*
X5247487D1*
X5522250D2*
X5642997D1*
X1474247Y3459583D2*
X1556427D1*
X3008293D2*
X3056367D1*
X3816680D2*
X3922420D1*
X4613157D2*
X5282710D1*
X5517287D2*
X5579870D1*
X1474247Y3396417D2*
X1574780D1*
X2238107D2*
X2356377D1*
X2693647D2*
X2773840D1*
X3024417D2*
X3056417D1*
X3243567D2*
X3619060D1*
X3773767D2*
X3922420D1*
X4613157D2*
X4851357D1*
X5463090D2*
X5516617D1*
X1474247Y3333250D2*
X1727330D1*
X2223227D2*
X2356377D1*
X2693647D2*
X2796287D1*
X3003703D2*
X3056367D1*
X3243567D2*
X3651307D1*
X4613157D2*
X4851357D1*
X5348617D2*
X5462917D1*
X5712997D2*
X5793810D1*
X1474247Y3270083D2*
X1790210D1*
X2198670D2*
X2256413D1*
X2898657D2*
X2951317D1*
X3248650D2*
X3651307D1*
X4613157D2*
X4851357D1*
X5348617D2*
X5456343D1*
X5649870D2*
X5793810D1*
X1474247Y3206917D2*
X1853337D1*
X2198670D2*
X2256413D1*
X2898657D2*
X2951317D1*
X3248650D2*
X3651307D1*
X4468547D2*
X4690127D1*
X5348617D2*
X5456343D1*
X5643667D2*
X5793810D1*
X1474247Y3143750D2*
X1901333D1*
X2198670D2*
X2256413D1*
X2553623D2*
X2601323D1*
X2898657D2*
X2951317D1*
X3248650D2*
X3651307D1*
X5348617D2*
X5456343D1*
X5643667D2*
X5793810D1*
X1474247Y3080583D2*
X1901333D1*
X2198670D2*
X2256413D1*
X2553623D2*
X2601323D1*
X2898657D2*
X2951317D1*
X3248650D2*
X3651307D1*
X5348617D2*
X5456343D1*
X5643667D2*
X5793810D1*
X1474247Y3017417D2*
X1901333D1*
X2198670D2*
X2256413D1*
X2553623D2*
X2601323D1*
X2898657D2*
X2951317D1*
X3248650D2*
X3651307D1*
X5348617D2*
X5456343D1*
X5643667D2*
X5793810D1*
X1474247Y2954250D2*
X1901333D1*
X2198670D2*
X2256413D1*
X2553623D2*
X2601323D1*
X2898657D2*
X2951317D1*
X3248650D2*
X3651307D1*
X5348617D2*
X5456343D1*
X5643667D2*
X5793810D1*
X1474247Y2891083D2*
X1901333D1*
X2198670D2*
X2256413D1*
X2553623D2*
X2601323D1*
X2898657D2*
X2951317D1*
X3248650D2*
X3906423D1*
X4635480D2*
X4679213D1*
X5348617D2*
X5411323D1*
X5643173D2*
X5768387D1*
X1474247Y2827917D2*
X1901333D1*
X2198670D2*
X2256413D1*
X2553623D2*
X2601323D1*
X2898657D2*
X2951317D1*
X3248650D2*
X3322643D1*
X3619853D2*
X3909273D1*
X4651853D2*
X4742340D1*
X5607700D2*
X5705133D1*
X1474247Y2764750D2*
X1956400D1*
X2143603D2*
X2311357D1*
X2498557D2*
X2656390D1*
X2843590D2*
X3006383D1*
X3193583D2*
X3322643D1*
X3619853D2*
X3944747D1*
X4714980D2*
X4805467D1*
X5544450D2*
X5642007D1*
X1474247Y2701583D2*
X1637413D1*
X2498557D2*
X2656390D1*
X2843590D2*
X3006383D1*
X3193583D2*
X3322643D1*
X3619853D2*
X3944747D1*
X4778107D2*
X4868720D1*
X5481320D2*
X5578877D1*
X1474247Y2638417D2*
X1637413D1*
X2498557D2*
X2656390D1*
X2843590D2*
X2951317D1*
X3248650D2*
X3322643D1*
X3619853D2*
X3958637D1*
X4841360D2*
X5051407D1*
X5348617D2*
X5515627D1*
X1474247Y2575250D2*
X1637413D1*
X2498557D2*
X2656390D1*
X2843590D2*
X2951317D1*
X3619853D2*
X3895507D1*
X4533657D2*
X4644980D1*
X4904487D2*
X5462543D1*
X5712003D2*
X5793810D1*
X1474247Y2512083D2*
X1637413D1*
X1934747D2*
X1984060D1*
X2498557D2*
X2656390D1*
X2843590D2*
X2951317D1*
X3798447D2*
X3832380D1*
X4533657D2*
X4708110D1*
X5648877D2*
X5811173D1*
X1447707Y2448917D2*
X1637413D1*
X1934747D2*
X1984060D1*
X2498557D2*
X2656390D1*
X2843590D2*
X2951317D1*
X4228683D2*
X4281593D1*
X4558710D2*
X4771360D1*
X5643543D2*
X6095933D1*
X1104100Y2385750D2*
X1637413D1*
X1934747D2*
X1984060D1*
X2498557D2*
X2656390D1*
X2843590D2*
X2951317D1*
X4165557D2*
X4281593D1*
X4566027D2*
X4834613D1*
X5615390D2*
X6095933D1*
X1104100Y2322583D2*
X1637413D1*
X1934747D2*
X1984060D1*
X2498557D2*
X2656390D1*
X2843590D2*
X2951317D1*
X4118427D2*
X4281593D1*
X4566027D2*
X6095933D1*
X1104100Y2259417D2*
X1637413D1*
X1934747D2*
X2311357D1*
X2498557D2*
X2656390D1*
X2843590D2*
X2951317D1*
X4118427D2*
X4245627D1*
X4566027D2*
X6095933D1*
X1104100Y2196250D2*
X1692480D1*
X1879680D2*
X2311357D1*
X2498557D2*
X2656390D1*
X2843590D2*
X3123957D1*
X4118427D2*
X4182497D1*
X4566027D2*
X6095933D1*
X1104100Y2133083D2*
X1692480D1*
X1879680D2*
X2311357D1*
X2498557D2*
X2656390D1*
X2843590D2*
X3199240D1*
X3700717D2*
X3741593D1*
X4566027D2*
X6095933D1*
X1104100Y2069917D2*
X1692480D1*
X1879680D2*
X2311357D1*
X2498557D2*
X2656390D1*
X3109250D2*
X3778803D1*
X4566027D2*
X6095933D1*
X1104100Y2006750D2*
X1692480D1*
X2570740D2*
X2656390D1*
X3499303D2*
X3759330D1*
X4566027D2*
X6095933D1*
X1104100Y1943583D2*
X1692480D1*
X2570740D2*
X2656390D1*
X3499303D2*
X3696203D1*
X4547797D2*
X6095933D1*
X1104100Y1880417D2*
X1692480D1*
X2570740D2*
X2679953D1*
X3499303D2*
X3632950D1*
X4485660D2*
X6095933D1*
X1104100Y1817250D2*
X1692480D1*
X2570740D2*
X2812040D1*
X3499303D2*
X3569823D1*
X4422533D2*
X6095933D1*
X1104100Y1754083D2*
X1692480D1*
X2570740D2*
X2812040D1*
X3109250D2*
X3506693D1*
X4442750D2*
X6095933D1*
X1104100Y1690917D2*
X1692480D1*
X1879680D2*
X2273407D1*
X2570740D2*
X2812040D1*
X3149433D2*
X3443443D1*
X4459617D2*
X6095933D1*
X1104100Y1627750D2*
X1692480D1*
X1901757D2*
X2273407D1*
X2570740D2*
X2812040D1*
X4446840D2*
X6095933D1*
X1104100Y1564583D2*
X1707610D1*
X1965010D2*
X2328473D1*
X2515673D2*
X3016307D1*
X4169897D2*
X4231860D1*
X4390163D2*
X6095933D1*
X1104100Y1501417D2*
X1768630D1*
X2028137D2*
X2328473D1*
X2515673D2*
X3487593D1*
X4106647D2*
X6095933D1*
X1104100Y1438250D2*
X1831757D1*
X2091263D2*
X2329960D1*
X4043517D2*
X6095933D1*
X1104100Y1375083D2*
X1895010D1*
X2154517D2*
X2371383D1*
X3980390D2*
X6095933D1*
X1104100Y1311917D2*
X1958137D1*
X3917137D2*
X6095933D1*
X1104100Y1248750D2*
X2021267D1*
X3854010D2*
X6095933D1*
X1104100Y1185583D2*
X2099650D1*
X3775627D2*
X6095933D1*
X1104100Y1122417D2*
X6095933D1*
X3912747Y2917710D2*
X3657710D1*
Y3372290D1*
X3928793D1*
X3929347Y3482170D1*
X3932533Y3493463D1*
X3938267Y3503700D1*
X3946230Y3512317D1*
X3955987Y3518837D1*
X3960710Y3520907D1*
X3962710Y3537290D1*
X4157723D1*
X4157710Y3618993D1*
X4140733Y3632273D1*
X4122433Y3635173D1*
X4104810Y3640900D1*
X4088297Y3649313D1*
X4073307Y3660203D1*
X4060203Y3673307D1*
X4049313Y3688297D1*
X4040900Y3704810D1*
X4035173Y3722433D1*
X4032273Y3740733D1*
Y3759267D1*
X4035173Y3777567D1*
X4040900Y3795190D1*
X4049313Y3811703D1*
X4060203Y3826693D1*
X4073307Y3839797D1*
X4088297Y3850687D1*
X4104810Y3859100D1*
X4122433Y3864827D1*
X4140733Y3867727D1*
X4159267D1*
X4177567Y3864827D1*
X4195190Y3859100D1*
X4211703Y3850687D1*
X4226693Y3839797D1*
X4239797Y3826693D1*
X4250687Y3811703D1*
X4259100Y3795190D1*
X4264827Y3777567D1*
X4267873Y3755537D1*
X4311377Y3711690D1*
X4319427Y3700610D1*
X4325647Y3688403D1*
X4329880Y3675377D1*
X4332020Y3661850D1*
X4332290Y3537167D1*
X4424520Y3537290D1*
X4430573Y3549203D1*
X4438623Y3560283D1*
X4614200Y3736240D1*
X4617303Y3758290D1*
X4623030Y3775913D1*
X4631443Y3792427D1*
X4642333Y3807417D1*
X4655437Y3820520D1*
X4670427Y3831410D1*
X4686940Y3839823D1*
X4704563Y3845550D1*
X4722863Y3848450D1*
X4741397D1*
X4759697Y3845550D1*
X4777320Y3839823D1*
X4793833Y3831410D1*
X4808823Y3820520D1*
X4821927Y3807417D1*
X4832817Y3792427D1*
X4841230Y3775913D1*
X4846957Y3758290D1*
X4849857Y3739990D1*
Y3721457D1*
X4846957Y3703157D1*
X4841230Y3685533D1*
X4832817Y3669020D1*
X4821927Y3654030D1*
X4808823Y3640927D1*
X4793833Y3630037D1*
X4777320Y3621623D1*
X4759697Y3615897D1*
X4737667Y3612850D1*
X4606267Y3481413D1*
X4606887Y3474360D1*
X4606273Y3250410D1*
X4603087Y3239117D1*
X4597353Y3228880D1*
X4589390Y3220263D1*
X4579633Y3213743D1*
X4568623Y3209683D1*
X4556970Y3208303D1*
X4462340D1*
X4462290Y3187290D1*
X4606850Y3187020D1*
X4620377Y3184880D1*
X4633403Y3180647D1*
X4645610Y3174427D1*
X4656690Y3166377D1*
X4682157Y3141290D1*
X4682273Y3159267D1*
X4685173Y3177567D1*
X4690900Y3195190D1*
X4699313Y3211703D1*
X4710203Y3226693D1*
X4723307Y3239797D1*
X4738297Y3250687D1*
X4754810Y3259100D1*
X4772433Y3264827D1*
X4790733Y3267727D1*
X4809267D1*
X4827567Y3264827D1*
X4845190Y3259100D1*
X4857690Y3252937D1*
X4857710Y3422290D1*
X5057710D1*
Y3432290D1*
X5303253D1*
X5294780Y3446387D1*
X5287690Y3463507D1*
X5283363Y3481527D1*
X5282127Y3494463D1*
X4913730Y3862820D1*
X4643150Y3862980D1*
X4629623Y3865120D1*
X4616597Y3869353D1*
X4604390Y3875573D1*
X4593310Y3883623D1*
X4438277Y4038277D1*
X4429380Y4048693D1*
X4422223Y4060370D1*
X4416983Y4073027D1*
X4413783Y4086343D1*
X4412710Y4100000D1*
Y4324853D1*
X4065903Y4324737D1*
X4065913Y3983940D1*
X3783660D1*
X3783677Y3570263D1*
X3797073Y3552467D1*
X3805487Y3535953D1*
X3811213Y3518330D1*
X3814113Y3500030D1*
Y3481497D1*
X3811213Y3463197D1*
X3805487Y3445573D1*
X3797073Y3429060D1*
X3786183Y3414070D1*
X3773080Y3400967D1*
X3758090Y3390077D1*
X3741577Y3381663D1*
X3723953Y3375937D1*
X3705653Y3373037D1*
X3687120D1*
X3668820Y3375937D1*
X3651197Y3381663D1*
X3634683Y3390077D1*
X3619693Y3400967D1*
X3606590Y3414070D1*
X3596000Y3428610D1*
X3579173Y3419353D1*
X3566147Y3415120D1*
X3552620Y3412980D1*
X3291770Y3412710D1*
X3237323D1*
X3237290Y3272170D1*
X3242290Y3272290D1*
Y2817710D1*
X3187350D1*
X3187290Y2672310D1*
X3242290Y2672290D1*
Y2627270D1*
X3329070Y2627290D1*
X3328953Y2862507D1*
X3613533D1*
Y2528763D1*
X3627933Y2537243D1*
X3648560Y2545790D1*
X3670270Y2551000D1*
X3692530Y2552753D1*
X3714790Y2551000D1*
X3736500Y2545790D1*
X3757127Y2537243D1*
X3776167Y2525580D1*
X3793143Y2511077D1*
X3807647Y2494100D1*
X3812857Y2486297D1*
X3969327Y2642777D1*
X3962710Y2642710D1*
Y2652507D1*
X3956500Y2661900D1*
X3952440Y2672910D1*
X3951060Y2684563D1*
Y2775473D1*
X3929380Y2798693D1*
X3922223Y2810370D1*
X3916983Y2823027D1*
X3913783Y2836343D1*
X3912710Y2850000D1*
Y2917593D1*
X4942290Y4754280D2*
Y4377710D1*
X4752310D1*
X4752290Y4187710D1*
X4587290Y4187250D1*
Y4136027D1*
X4686167Y4037280D1*
X4956850Y4037020D1*
X4970377Y4034880D1*
X4983403Y4030647D1*
X4995610Y4024427D1*
X5006690Y4016377D1*
X5191330Y3832120D1*
X5405400Y3618047D1*
X5427567Y3614827D1*
X5445190Y3609100D1*
X5461703Y3600687D1*
X5476693Y3589797D1*
X5489797Y3576693D1*
X5500687Y3561703D1*
X5509100Y3545190D1*
X5514827Y3527567D1*
X5517727Y3509267D1*
Y3490733D1*
X5514827Y3472433D1*
X5509100Y3454810D1*
X5500687Y3438297D1*
X5489797Y3423307D1*
X5476693Y3410203D1*
X5461703Y3399313D1*
X5445190Y3390900D1*
X5427567Y3385173D1*
X5409267Y3382273D1*
X5390733D1*
X5372433Y3385173D1*
X5354810Y3390900D1*
X5342310Y3397063D1*
X5342290Y2847270D1*
X5374003Y2847290D1*
X5462723Y2936170D1*
X5462980Y3306850D1*
X5465123Y3320377D1*
X5469353Y3333403D1*
X5475573Y3345610D1*
X5483623Y3356690D1*
X5657277Y3530723D1*
X5667693Y3539620D1*
X5679370Y3546777D1*
X5692027Y3552017D1*
X5705343Y3555217D1*
X5719000Y3556290D1*
X5800237D1*
X5800697Y3607810D1*
X5803883Y3619103D1*
X5809617Y3629340D1*
X5817580Y3637957D1*
X5827337Y3644477D1*
X5835440Y3648033D1*
X5827123Y3665157D1*
X5821007Y3683183D1*
X5817187Y3701837D1*
X5815727Y3720817D1*
X5816643Y3739833D1*
X5819927Y3758583D1*
X5825523Y3776780D1*
X5833347Y3794137D1*
X5843273Y3810380D1*
X5851553Y3821123D1*
X5792190Y3821697D1*
X5780897Y3824883D1*
X5770660Y3830617D1*
X5762043Y3838580D1*
X5755523Y3848337D1*
X5751463Y3859347D1*
X5750083Y3871000D1*
X5750697Y5207810D1*
X5753883Y5219103D1*
X5759617Y5229340D1*
X5767580Y5237957D1*
X5777337Y5244477D1*
X5788347Y5248537D1*
X5800000Y5249917D1*
X6102247D1*
X6102250Y7502250D1*
X1097750D1*
X1098510Y7152290D1*
X1352290D1*
Y6847710D1*
X1313323D1*
X1324737Y6833223D1*
X1660850Y6833020D1*
X1674377Y6830880D1*
X1687403Y6826647D1*
X1699610Y6820427D1*
X1710690Y6812377D1*
X1895330Y6628120D1*
X2736263Y5787183D1*
X2763657Y5786217D1*
X2776973Y5783017D1*
X2789630Y5777777D1*
X2801307Y5770620D1*
X2811723Y5761723D1*
X2820620Y5751307D1*
X2827777Y5739630D1*
X2833017Y5726973D1*
X2836217Y5713657D1*
X2837290Y5700000D1*
Y5182203D1*
X2892290Y5182290D1*
Y5137270D1*
X2913657Y5136217D1*
X2926973Y5133017D1*
X2939630Y5127777D1*
X2951307Y5120620D1*
X2957417Y5115703D1*
X2957710Y5172290D1*
X3011163D1*
X2999313Y5188297D1*
X2990900Y5204810D1*
X2985173Y5222433D1*
X2982273Y5240733D1*
Y5259267D1*
X2985173Y5277567D1*
X2990900Y5295190D1*
X2999313Y5311703D1*
X3010203Y5326693D1*
X3023307Y5339797D1*
X3038297Y5350687D1*
X3054810Y5359100D1*
X3072433Y5364827D1*
X3090733Y5367727D1*
X3109267D1*
X3127567Y5364827D1*
X3145190Y5359100D1*
X3161703Y5350687D1*
X3176693Y5339797D1*
X3189797Y5326693D1*
X3200687Y5311703D1*
X3209100Y5295190D1*
X3214827Y5277567D1*
X3217727Y5259267D1*
Y5240733D1*
X3214827Y5222433D1*
X3209100Y5204810D1*
X3200687Y5188297D1*
X3188837Y5172270D1*
X3242290Y5172290D1*
Y4781000D1*
X3332283Y4691163D1*
X3332273Y4709267D1*
X3335173Y4727567D1*
X3340900Y4745190D1*
X3349313Y4761703D1*
X3360203Y4776693D1*
X3373307Y4789797D1*
X3388297Y4800687D1*
X3404810Y4809100D1*
X3417710Y4814060D1*
Y5092290D1*
X3648017D1*
X3647887Y5244667D1*
X3634563Y5256367D1*
X3620060Y5273343D1*
X3608397Y5292383D1*
X3599850Y5313010D1*
X3594640Y5334720D1*
X3592887Y5356980D1*
X3594640Y5379240D1*
X3599850Y5400950D1*
X3608397Y5421577D1*
X3620060Y5440617D1*
X3634563Y5457593D1*
X3651540Y5472097D1*
X3670580Y5483760D1*
X3691207Y5492307D1*
X3712917Y5497517D1*
X3735177Y5499270D1*
X3757437Y5497517D1*
X3779147Y5492307D1*
X3799773Y5483760D1*
X3818813Y5472097D1*
X3835790Y5457593D1*
X3850293Y5440617D1*
X3857713Y5429157D1*
X3857710Y5522290D1*
X4142290D1*
Y5181107D1*
X4147710Y5179790D1*
X4162717D1*
X4162980Y5246850D1*
X4165123Y5260377D1*
X4169353Y5273403D1*
X4176123Y5286433D1*
X4177710Y5316460D1*
Y5442290D1*
X4632290D1*
Y5179810D1*
X4642290Y5179790D1*
Y5165773D1*
X4693310Y5216377D1*
X4705257Y5224910D1*
X4707710Y5230410D1*
Y5482290D1*
X4992290D1*
Y5192947D1*
X5007743Y5197000D1*
X5021400Y5198073D1*
X5047570D1*
X5047617Y5253073D1*
X5502197D1*
Y4977370D1*
X5518813Y4977367D1*
Y4900843D1*
X5601693Y4817963D1*
X5623777Y4814827D1*
X5641400Y4809100D1*
X5657913Y4800687D1*
X5672903Y4789797D1*
X5686007Y4776693D1*
X5696897Y4761703D1*
X5705310Y4745190D1*
X5711037Y4727567D1*
X5713937Y4709267D1*
Y4690733D1*
X5711037Y4672433D1*
X5705310Y4654810D1*
X5696897Y4638297D1*
X5686007Y4623307D1*
X5672903Y4610203D1*
X5657913Y4599313D1*
X5641400Y4590900D1*
X5623777Y4585173D1*
X5605477Y4582273D1*
X5586943D1*
X5568643Y4585173D1*
X5551020Y4590900D1*
X5534507Y4599313D1*
X5518800Y4610867D1*
X5518813Y4522787D1*
X5474290D1*
X5493640Y4506577D1*
X5508143Y4489600D1*
X5519807Y4470560D1*
X5528353Y4449933D1*
X5533563Y4428223D1*
X5535317Y4405963D1*
X5533563Y4383703D1*
X5528353Y4361993D1*
X5519807Y4341367D1*
X5508143Y4322327D1*
X5493640Y4305350D1*
X5476663Y4290847D1*
X5457623Y4279183D1*
X5436997Y4270637D1*
X5415287Y4265427D1*
X5393027Y4263673D1*
X5370767Y4265427D1*
X5349057Y4270637D1*
X5328430Y4279183D1*
X5309390Y4290847D1*
X5304900Y4294387D1*
X5304867Y4191157D1*
X5020287D1*
Y4645737D1*
X5050920D1*
X4942290Y4754280D1*
X1324737Y6658777D2*
X1307687Y6638313D1*
X1289513Y6622793D1*
X1283960Y6619083D1*
X1298903Y6607803D1*
X1315803Y6590903D1*
X1329850Y6571570D1*
X1340697Y6550280D1*
X1348083Y6527550D1*
X1351820Y6503950D1*
Y6480050D1*
X1348083Y6456450D1*
X1340697Y6433720D1*
X1329850Y6412430D1*
X1315803Y6393097D1*
X1298903Y6376197D1*
X1283960Y6365083D1*
X1298903Y6353803D1*
X1315803Y6336903D1*
X1324737Y6325223D1*
X1555823Y6325290D1*
X1573027Y6333017D1*
X1586343Y6336217D1*
X1600000Y6337290D1*
X1706850Y6337020D1*
X1720377Y6334880D1*
X1733403Y6330647D1*
X1745610Y6324427D1*
X1756690Y6316377D1*
X1941330Y6132120D1*
X2136107Y5937340D1*
X2256850Y5937020D1*
X2270377Y5934880D1*
X2283403Y5930647D1*
X2295610Y5924427D1*
X2306690Y5916377D1*
X2411723Y5811723D1*
X2420620Y5801307D1*
X2427777Y5789630D1*
X2433017Y5776973D1*
X2436217Y5763657D1*
X2437290Y5750000D1*
Y5182343D1*
X2542290Y5182290D1*
Y4762970D1*
X2550437Y4780473D1*
X2558487Y4791553D1*
X2607777Y4841223D1*
X2607710Y5182290D1*
X2662653D1*
X2662710Y5621127D1*
X2648693Y5629380D1*
X2638277Y5638277D1*
X1617737Y6658817D1*
X1324717Y6658710D1*
X1324737Y6150777D2*
X1307687Y6130313D1*
X1289513Y6114793D1*
X1283960Y6111083D1*
X1298903Y6099803D1*
X1315803Y6082903D1*
X1329850Y6063570D1*
X1340697Y6042280D1*
X1348083Y6019550D1*
X1351820Y5995950D1*
Y5972050D1*
X1349877Y5957473D1*
X2000927Y5306520D1*
X2019410Y5295537D1*
X2033503Y5283503D1*
X2045537Y5269410D1*
X2056447Y5250947D1*
X2116377Y5190690D1*
X2124427Y5179610D1*
X2128190Y5172730D1*
X2192290Y5172290D1*
Y5115363D1*
X2204390Y5124427D1*
X2216597Y5130647D1*
X2229623Y5134880D1*
X2243150Y5137020D1*
X2257813Y5137290D1*
X2257710Y5182290D1*
X2262793D1*
X2262710Y5713793D1*
X2213820Y5762733D1*
X2093150Y5762980D1*
X2079623Y5765120D1*
X2066597Y5769353D1*
X2054390Y5775573D1*
X2043310Y5783623D1*
X1858670Y5967880D1*
X1663893Y6162660D1*
X1639630Y6160223D1*
X1626973Y6154983D1*
X1613657Y6151783D1*
X1600000Y6150710D1*
X1324793D1*
X1226527Y5834123D2*
X1200000Y5831710D1*
X1176177Y5833583D1*
X1152940Y5839163D1*
X1130863Y5848310D1*
X1110487Y5860793D1*
X1097700Y5871337D1*
X1097750Y5249860D1*
X1425810Y5249303D1*
X1437103Y5246117D1*
X1447340Y5240383D1*
X1455957Y5232420D1*
X1462477Y5222663D1*
X1466537Y5211653D1*
X1467917Y5200000D1*
X1467303Y2485190D1*
X1464117Y2473897D1*
X1458383Y2463660D1*
X1450420Y2455043D1*
X1440663Y2448523D1*
X1429653Y2444463D1*
X1418000Y2443083D1*
X1097647D1*
X1097750Y1097750D1*
X6102250D1*
Y2500083D1*
X5842190Y2500697D1*
X5830897Y2503883D1*
X5820660Y2509617D1*
X5812043Y2517583D1*
X5805523Y2527337D1*
X5801463Y2538347D1*
X5800083Y2550000D1*
Y2669683D1*
X5637277Y2506830D1*
X5637020Y2443150D1*
X5634877Y2429623D1*
X5630647Y2416597D1*
X5624427Y2404390D1*
X5616377Y2393310D1*
X5606690Y2383623D1*
X5595610Y2375573D1*
X5583403Y2369353D1*
X5570377Y2365123D1*
X5556850Y2362980D1*
X5296000Y2362710D1*
X4893150Y2362980D1*
X4879623Y2365123D1*
X4866597Y2369353D1*
X4854390Y2375573D1*
X4843310Y2383623D1*
X4658670Y2567883D1*
X4590530Y2636023D1*
X4579297Y2634647D1*
X4527330D1*
X4527310Y2482603D1*
X4543023Y2465350D1*
X4550180Y2453673D1*
X4555420Y2441017D1*
X4558620Y2427700D1*
X4559693Y2414043D1*
X4559423Y1990043D1*
X4557283Y1976517D1*
X4553050Y1963490D1*
X4546830Y1951283D1*
X4538780Y1940203D1*
X4398283Y1799327D1*
X4411633Y1787437D1*
X4426137Y1770460D1*
X4437800Y1751420D1*
X4446347Y1730793D1*
X4451557Y1709083D1*
X4453310Y1686823D1*
X4451557Y1664563D1*
X4446347Y1642853D1*
X4437800Y1622227D1*
X4426137Y1603187D1*
X4411633Y1586210D1*
X4394657Y1571707D1*
X4375617Y1560043D1*
X4354990Y1551497D1*
X4333280Y1546287D1*
X4311020Y1544533D1*
X4288760Y1546287D1*
X4267050Y1551497D1*
X4246423Y1560043D1*
X4227383Y1571707D1*
X4210407Y1586210D1*
X4198633Y1599727D1*
X3801547Y1202970D1*
X3790467Y1194920D1*
X3778260Y1188700D1*
X3765233Y1184467D1*
X3751707Y1182327D1*
X3490857Y1182057D1*
X2123593Y1182327D1*
X2110067Y1184467D1*
X2097040Y1188700D1*
X2084833Y1194920D1*
X2073753Y1202970D1*
X1889113Y1387227D1*
X1719737Y1556987D1*
X1711687Y1568067D1*
X1705467Y1580273D1*
X1701233Y1593300D1*
X1699093Y1606827D1*
X1698823Y1867677D1*
Y2251530D1*
X1643823Y2251470D1*
Y2706050D1*
X1928403D1*
Y2702700D1*
X1962680Y2702803D1*
X1962710Y2817663D1*
X1907710Y2817710D1*
Y3158893D1*
X1733623Y3333310D1*
X1725573Y3344390D1*
X1719010Y3357523D1*
X1704750Y3362710D1*
X1643150Y3362980D1*
X1629623Y3365120D1*
X1616597Y3369353D1*
X1604390Y3375573D1*
X1593310Y3383623D1*
X1583623Y3393310D1*
X1575573Y3404390D1*
X1569353Y3416597D1*
X1565120Y3429623D1*
X1562980Y3443150D1*
X1562710Y3704000D1*
X1562980Y4456850D1*
X1565120Y4470377D1*
X1569353Y4483403D1*
X1575573Y4495610D1*
X1583623Y4506690D1*
X1767880Y4691330D1*
X1907760Y4831207D1*
X1907710Y5089653D1*
X1888297Y5099313D1*
X1873307Y5110203D1*
X1860203Y5123307D1*
X1849313Y5138297D1*
X1840900Y5154810D1*
X1835173Y5172433D1*
X1832273Y5190733D1*
Y5209267D1*
X1834813Y5225757D1*
X1226447Y5834107D1*
X2892170Y3082290D2*
X2892290Y2817710D1*
X2837347D1*
X2837290Y2072287D1*
X3102933Y2072290D1*
Y2042400D1*
X3492933Y2042290D1*
Y1757710D1*
X3102883D1*
X3102933Y1731107D1*
X3146810Y1687280D1*
X3446127Y1687290D1*
X3809527Y2050663D1*
X3792533Y2063120D1*
X3776747Y2078907D1*
X3763620Y2096970D1*
X3753483Y2116863D1*
X3746583Y2138100D1*
X3743093Y2160153D1*
X3742730Y2169353D1*
X3722080Y2149013D1*
X3711000Y2140963D1*
X3698793Y2134743D1*
X3685767Y2130510D1*
X3672240Y2128370D1*
X3234610Y2128100D1*
X3220953Y2129173D1*
X3207637Y2132373D1*
X3194980Y2137613D1*
X3183303Y2144770D1*
X3172887Y2153667D1*
X3108780Y2217773D1*
X2957710Y2217710D1*
Y2672290D1*
X3012653D1*
X3012710Y2817690D1*
X2957710Y2817710D1*
Y3272290D1*
X3062760D1*
X3062710Y3463827D1*
X2963833Y3562720D1*
X2957290Y3540040D1*
Y3503203D1*
X2969410Y3495537D1*
X2983503Y3483503D1*
X2995537Y3469410D1*
X3005220Y3453613D1*
X3012310Y3436493D1*
X3016637Y3418473D1*
X3018090Y3400000D1*
X3016637Y3381527D1*
X3012310Y3363507D1*
X3005220Y3346387D1*
X2995537Y3330590D1*
X2983503Y3316497D1*
X2969410Y3304463D1*
X2953613Y3294780D1*
X2936493Y3287690D1*
X2918473Y3283363D1*
X2900000Y3281910D1*
X2881527Y3283363D1*
X2863507Y3287690D1*
X2846387Y3294780D1*
X2830590Y3304463D1*
X2816497Y3316497D1*
X2804463Y3330590D1*
X2794780Y3346387D1*
X2787690Y3363507D1*
X2783363Y3381527D1*
X2782127Y3394463D1*
X2735040Y3440710D1*
X2687290D1*
Y3326217D1*
X2741090Y3272357D1*
X2892290Y3272290D1*
X2892167Y3007710D1*
X2662723Y2817710D2*
X2607710D1*
Y3158893D1*
X2547300Y3219253D1*
X2547290Y2822710D1*
X2492347D1*
X2492290Y2021973D1*
X2564380Y2021880D1*
Y1567300D1*
X2509437D1*
X2509380Y1490113D1*
X2553160Y1473833D1*
X3466343D1*
X3509283Y1516983D1*
X3495967Y1513783D1*
X3482310Y1512710D1*
X3103793Y1512980D1*
X3090267Y1515120D1*
X3077240Y1519353D1*
X3065033Y1525573D1*
X3053953Y1533623D1*
X2969553Y1617643D1*
X2818353Y1617710D1*
Y1852730D1*
X2743150Y1852980D1*
X2729623Y1855123D1*
X2716597Y1859353D1*
X2704390Y1865573D1*
X2693310Y1873623D1*
X2683623Y1883310D1*
X2675573Y1894390D1*
X2669353Y1906597D1*
X2665123Y1919623D1*
X2662980Y1933150D1*
X2662710Y2194000D1*
Y2817713D1*
X2537703Y4727710D2*
X2487350D1*
X2487290Y4189653D1*
X2519710Y4152537D1*
X2524910Y4144743D1*
X2534297Y4157417D1*
X2520620Y4151307D1*
X2524427Y4145610D1*
X2537573Y4160953D1*
Y4727740D1*
X2317723Y2822710D2*
X2262710D1*
Y3277290D1*
X2362797D1*
X2362710Y3440650D1*
X2276027Y3440710D1*
X2214467Y3379020D1*
X2217727Y3359267D1*
Y3340733D1*
X2214827Y3322433D1*
X2209100Y3304810D1*
X2200687Y3288297D1*
X2188837Y3272270D1*
X2192290Y3272290D1*
Y2817710D1*
X2137347D1*
X2137290Y2747717D1*
X2275007Y2747803D1*
Y2293223D1*
X1990427D1*
Y2528243D1*
X1928450Y2528223D1*
X1928403Y2251470D1*
X1873460D1*
X1873403Y1649667D1*
X2166620Y1356620D1*
X2396227Y1356637D1*
X2355713Y1397423D1*
X2347663Y1408503D1*
X2341443Y1420710D1*
X2337213Y1433737D1*
X2335070Y1447263D1*
X2334800Y1567347D1*
X2279800Y1567300D1*
Y1750977D1*
X1889800Y1750873D1*
Y2035453D1*
X2317803D1*
X2317710Y2822593D1*
X2162650Y4717710D2*
X2041107D1*
X1737340Y4413893D1*
X1737290Y4310723D1*
X1793310Y4366377D1*
X1804390Y4374427D1*
X1816597Y4380647D1*
X1829623Y4384877D1*
X1843150Y4387020D1*
X1950000Y4387290D1*
X1963657Y4386217D1*
X1976973Y4383017D1*
X1989630Y4377777D1*
X2001307Y4370620D1*
X2011723Y4361723D1*
X2082670Y4290777D1*
X2082710Y4397290D1*
X2162707D1*
X2162710Y4717587D1*
X5342290Y2672643D2*
Y2627710D1*
X5057710D1*
Y2672730D1*
X4933150Y2672980D1*
X4919623Y2675120D1*
X4906597Y2679353D1*
X4894390Y2685573D1*
X4883310Y2693623D1*
X4698670Y2877880D1*
X4563880Y3012673D1*
X4394217Y3012710D1*
X4397020Y2996850D1*
X4397290Y2957167D1*
X4592290Y2957290D1*
Y2948980D1*
X4605377Y2943263D1*
X4614593Y2936000D1*
X4621857Y2926783D1*
X4626770Y2916130D1*
X4629060Y2904620D1*
X4629213Y2844273D1*
X4936117Y2537330D1*
X5462693Y2537290D1*
X5463783Y2556657D1*
X5466983Y2569973D1*
X5472223Y2582630D1*
X5479380Y2594307D1*
X5488277Y2604723D1*
X5807440Y2923920D1*
X5802527Y2934573D1*
X5800237Y2946083D1*
X5800083Y3381727D1*
X5755053Y3381710D1*
X5637337Y3263890D1*
X5637020Y2893150D1*
X5634877Y2879623D1*
X5630647Y2866597D1*
X5624427Y2854390D1*
X5616377Y2843310D1*
X5471723Y2698277D1*
X5461307Y2689380D1*
X5449630Y2682223D1*
X5436973Y2676983D1*
X5423657Y2673783D1*
X5410000Y2672710D1*
X5342407D1*
X2957223Y4270290D2*
X2957290Y4226013D1*
X2973027Y4233017D1*
X2986343Y4236217D1*
X3000000Y4237290D1*
X3156850Y4237020D1*
X3170377Y4234880D1*
X3183403Y4230647D1*
X3195610Y4224427D1*
X3207417Y4215703D1*
X3207710Y4318893D1*
X3194527Y4332027D1*
X3172433Y4335173D1*
X3154810Y4340900D1*
X3138297Y4349313D1*
X3123307Y4360203D1*
X3110203Y4373307D1*
X3099313Y4388297D1*
X3090900Y4404810D1*
X3085173Y4422433D1*
X3082273Y4440733D1*
Y4459267D1*
X3085173Y4477567D1*
X3090900Y4495190D1*
X3099313Y4511703D1*
X3110203Y4526693D1*
X3123307Y4539797D1*
X3138297Y4550687D1*
X3154810Y4559100D1*
X3172433Y4564827D1*
X3190733Y4567727D1*
X3208867Y4567740D1*
X3058860Y4717710D1*
X3037280D1*
X3037020Y4643150D1*
X3034880Y4629623D1*
X3030647Y4616597D1*
X3024427Y4604390D1*
X3016377Y4593310D1*
X2887280Y4463833D1*
X2886217Y4436343D1*
X2883017Y4423027D1*
X2877293Y4409507D1*
X2877290Y4397213D1*
X2880647Y4416597D1*
X2877777Y4410370D1*
X2877330Y4397290D1*
X2957290D1*
Y4226013D1*
X2973027Y4233017D1*
X2986343Y4236217D1*
X3000000Y4237290D1*
X3458510Y3953527D2*
X3450687Y3938297D1*
X3439797Y3923307D1*
X3426693Y3910203D1*
X3411703Y3899313D1*
X3395190Y3890900D1*
X3377567Y3885173D1*
X3359267Y3882273D1*
X3340733D1*
X3322433Y3885173D1*
X3304810Y3890900D1*
X3288297Y3899313D1*
X3280620Y3904443D1*
X3284190Y3883563D1*
Y3865030D1*
X3281290Y3846730D1*
X3275563Y3829107D1*
X3267150Y3812593D1*
X3256260Y3797603D1*
X3243157Y3784500D1*
X3228167Y3773610D1*
X3211653Y3765197D1*
X3194030Y3759470D1*
X3172000Y3756423D1*
X3140857Y3725623D1*
X3129777Y3717573D1*
X3117570Y3711353D1*
X3104543Y3707123D1*
X3091017Y3704980D1*
X3068663Y3704710D1*
X3186167Y3587280D1*
X3458447Y3587290D1*
X3458480Y3953307D1*
X1744463Y3782127D2*
X1737247Y3782687D1*
X1751377Y3775177D1*
X1744447Y3782107D1*
X1737290Y3751500D1*
Y3537310D1*
X1763977Y3537290D1*
X1931300Y3704747D1*
X1851150Y3704980D1*
X1837623Y3707120D1*
X1824597Y3711353D1*
X1812390Y3717573D1*
X1801310Y3725623D1*
X1751377Y3775177D1*
X4267290Y2634677D2*
X4267020Y2523150D1*
X4264880Y2509623D1*
X4260647Y2496597D1*
X4254427Y2484390D1*
X4246377Y2473310D1*
X4112020Y2338570D1*
X4111800Y2135620D1*
X4109660Y2122093D1*
X4107640Y2115070D1*
X4287927Y2295400D1*
X4287923Y2634660D1*
X3657833Y3050000D2*
D14*
X3800000D1*
X4800000Y4510000D2*
X4942167D1*
X5815833Y3723000D2*
X5968000D1*
X5369907Y5110783D2*
X5502073D1*
X3417833Y4950000D2*
X3550000D1*
X1200000Y7000000D2*
X1352167D1*
X4650000Y4300000D2*
X4752167D1*
X4857833Y3290000D2*
X5000000D1*
X5200000Y3300000D2*
X5342167D1*
X4000000Y5390000D2*
X4142167D1*
X4707833Y5350000D2*
X4992167D1*
X3360643Y1900000D2*
X3492810D1*
X1990550Y2425513D2*
X2274883D1*
X1889923Y1893163D2*
X2022090D1*
X3329077Y2730217D2*
X3613410D1*
X5020410Y4323447D2*
X5162577D1*
X3923623Y4116230D2*
X4065790D1*
D17*
X3800000Y3050000D3*
Y3240000D3*
X4800000Y4700000D3*
Y4510000D3*
D18*
X4344003Y4467027D3*
X4154003D3*
X4500000Y5300000D3*
X4310000D3*
D19*
X1232000Y2707000D3*
D20*
Y2961000D3*
Y3215000D3*
Y3469000D3*
Y3723000D3*
Y3977000D3*
Y4231000D3*
Y4485000D3*
Y4739000D3*
Y4993000D3*
D19*
X5968000D3*
D20*
Y4739000D3*
Y4485000D3*
Y4231000D3*
Y3977000D3*
Y3723000D3*
Y3469000D3*
Y3215000D3*
Y2961000D3*
Y2707000D3*
D18*
X5369907Y5110783D3*
X5179907D3*
X3550000Y4950000D3*
X3740000D3*
D23*
X4250000Y4750000D3*
Y4800000D3*
Y4850000D3*
Y4900000D3*
Y4950000D3*
Y5000000D3*
Y5050000D3*
X4540000Y4750000D3*
Y4800000D3*
Y4850000D3*
Y4900000D3*
Y4950000D3*
Y5000000D3*
Y5050000D3*
D24*
X4395000Y4925000D3*
D23*
X4540000Y5100000D3*
X4250000D3*
D19*
X1200000Y7000000D3*
D20*
Y6746000D3*
Y6492000D3*
Y6238000D3*
Y5984000D3*
D17*
X2750000Y4860000D3*
Y5050000D3*
Y2950000D3*
Y3140000D3*
X3100000Y4850000D3*
Y5040000D3*
Y2950000D3*
Y3140000D3*
X2400000Y4860000D3*
Y5050000D3*
D25*
X4650000Y4300000D3*
Y4430000D3*
D17*
X2405000Y2955000D3*
Y3145000D3*
X2050000Y4850000D3*
Y5040000D3*
Y2950000D3*
Y3140000D3*
X5000000Y3100000D3*
Y3290000D3*
X5200000Y3300000D3*
Y3110000D3*
Y2950000D3*
Y2760000D3*
D26*
X2250000Y4300000D3*
Y4173000D3*
Y4046000D3*
Y3919000D3*
Y3792000D3*
Y3665000D3*
Y3538000D3*
X2790000D3*
Y3665000D3*
Y3792000D3*
Y3919000D3*
Y4046000D3*
Y4173000D3*
Y4300000D3*
D27*
X4050000Y2800000D3*
X4115000D3*
X4180000D3*
X4245000D3*
X4310000D3*
X4375000D3*
X4440000D3*
X4505000D3*
Y3380000D3*
X4440000D3*
X4375000D3*
X4310000D3*
X4245000D3*
X4180000D3*
X4115000D3*
X4050000D3*
D17*
X4000000Y5200000D3*
Y5390000D3*
X4850000Y5350000D3*
Y5160000D3*
X3350000Y4300000D3*
Y4110000D3*
X2960643Y1750000D3*
Y1940000D3*
D18*
X3360643Y1900000D3*
X3170643D3*
D17*
X1786113Y2383760D3*
Y2573760D3*
X2132717Y2425513D3*
Y2615513D3*
X2422090Y1699590D3*
Y1889590D3*
D18*
X2022090Y1893163D3*
X2212090D3*
D17*
X3100000Y2350000D3*
Y2540000D3*
X3471243Y2730217D3*
Y2540217D3*
X5376523Y4845077D3*
Y4655077D3*
X5162577Y4513447D3*
Y4323447D3*
X3923623Y4116230D3*
Y4306230D3*
X3894547Y4513013D3*
Y4703013D3*
D28*
X4311020Y1686823D3*
X4153660Y1873400D3*
X3884943Y2171317D3*
X3692530Y2410463D3*
X3735177Y5356980D3*
X5393027Y4405963D3*
M02*
