G04 DipTrace 3.0.0.2*
G04 Top.gbr*
%MOMM*%
G04 #@! TF.FileFunction,Copper,L1,Top*
G04 #@! TF.Part,Single*
G04 #@! TA.AperFunction,Conductor*
%ADD10C,0.25*%
%ADD13C,0.75*%
G04 #@! TA.AperFunction,CopperBalancing*
%ADD14C,0.33*%
G04 #@! TA.AperFunction,Conductor*
%ADD15C,0.29*%
G04 #@! TA.AperFunction,CopperBalancing*
%ADD16C,0.635*%
G04 #@! TA.AperFunction,ComponentPad*
%ADD17R,1.7X1.7*%
%ADD18C,1.7*%
%ADD19R,1.5X1.3*%
%ADD20R,1.3X1.5*%
%ADD21R,0.3X2.5*%
%ADD22R,2.0X2.0*%
G04 #@! TA.AperFunction,ComponentPad*
%ADD23C,4.5*%
%ADD24R,2.7X1.6*%
G04 #@! TA.AperFunction,ComponentPad*
%ADD25C,1.35*%
%ADD26R,1.8X1.8*%
%ADD27C,1.8*%
%ADD29R,0.65X1.05*%
G04 #@! TA.AperFunction,ComponentPad*
%ADD30R,1.5X1.5*%
%ADD31C,1.5*%
%ADD33R,2.4X2.4*%
G04 #@! TA.AperFunction,ComponentPad*
%ADD34C,1.5*%
%ADD35R,1.9X1.9*%
%ADD36C,1.9*%
G04 #@! TA.AperFunction,ViaPad*
%ADD37C,1.016*%
%FSLAX35Y35*%
G04*
G71*
G90*
G75*
G01*
G04 Top*
%LPD*%
X1474347Y4631863D2*
D13*
X1982483Y5140000D1*
X2387150D1*
X3100000D1*
X5042000Y6100000D2*
X4650000D1*
X4250000Y1730217D2*
D14*
X4229037D1*
X4086513Y1872740D1*
X3896720D1*
X3646480Y1622500D1*
D10*
Y1450000D1*
X3650000D1*
X3350000Y8800000D2*
D13*
X3207510D1*
X3153510Y8854000D1*
X2650000D1*
X3350000Y8240000D2*
Y8452510D1*
X4909593Y8853980D2*
Y8822907D1*
X4956500Y8776000D1*
X5175000D1*
Y7675000D1*
X4670000Y5670000D2*
X4510820D1*
Y5857630D1*
X4650000D1*
X4948370D1*
X5100000Y5706000D1*
Y5190000D1*
X4054820Y4250000D2*
D14*
X4210000D1*
X5100000Y5190000D2*
X4352640D1*
X4286630Y5123990D1*
Y4700667D1*
X4054820Y4468857D1*
Y4250000D1*
X5100000Y5706000D2*
D13*
X5175000Y5781000D1*
Y5923000D1*
X6018000D1*
X3950000Y5700000D2*
Y5670000D1*
X4670000D1*
X3700000Y5140000D2*
X3640000D1*
X3950000Y5450000D1*
Y5700000D1*
X3100000Y5140000D2*
X3700000D1*
X4650000Y6100000D2*
Y5857630D1*
X4300000Y1950000D2*
D14*
X4350000D1*
D15*
X4500000Y1800000D1*
Y1450000D1*
X5175000Y7675000D2*
D13*
X5560990D1*
X5593990Y7642000D1*
X6050000D1*
X5175000Y8776000D2*
X5241000Y8842000D1*
X6050000D1*
X3608430Y8304720D2*
Y8289360D1*
X3350000Y8452510D2*
X3608430D1*
Y8304720D1*
X4250000Y1450000D2*
D15*
Y1730217D1*
X2387150Y5100360D2*
D13*
Y5140000D1*
X4020683Y8128270D2*
X4181773Y8289360D1*
X4261647D1*
X4826267Y8853980D1*
X4909593D1*
X3000000Y10350000D2*
X3329870D1*
X3384870Y10295000D1*
X3655000D1*
X4200000Y10380000D2*
X4418800D1*
X3655000Y10295000D2*
X3779500D1*
X3864500Y10380000D1*
X4200000D1*
X2650000Y9108000D2*
X3243827D1*
X3301827Y9050000D1*
X3350000D1*
X4874747Y6643407D2*
X4650000D1*
Y6650000D1*
X4050000Y9108000D2*
X4372497D1*
X4372517Y9107980D1*
X4909593D1*
X3350000Y9050000D2*
X3467000D1*
X3525000Y9108000D1*
X4050000D1*
X4650000Y6650000D2*
Y6290000D1*
X1801400Y1825130D2*
D14*
X3421080D1*
Y2011233D1*
X4146510D1*
Y1935807D1*
X4257187Y1825130D1*
X4334000D1*
X4400000Y1759130D1*
D15*
Y1450000D1*
X3978507Y1195513D2*
D14*
X4033057Y1140963D1*
X4308797D1*
X4350000Y1182167D1*
D15*
Y1450000D1*
X4600000Y1200000D2*
Y1450000D1*
X4550000D2*
Y1900000D1*
D14*
X4500000Y1950000D1*
X1282000Y7193000D2*
X1325000Y7150000D1*
X1800000D1*
X2150000Y6800000D1*
Y6250000D1*
X3450000Y2550000D2*
X3550000Y2450000D1*
X4250000D1*
X1700000Y2350000D2*
X4700000D1*
X4861670Y2188330D1*
Y1462083D1*
X4849587Y1450000D1*
D15*
X4800000D1*
X1500000Y2250000D2*
D14*
X4600000D1*
X4750000Y2100000D1*
Y1721140D1*
D15*
Y1450000D1*
X2441563Y5773297D2*
D14*
X2164860Y6050000D1*
X1550000D1*
X3373610Y3103170D2*
X3384750Y3114310D1*
X4224583D1*
X5296187Y1314893D2*
Y1116170D1*
X4833830D1*
X4700000Y1250000D1*
D15*
Y1450000D1*
X1550000Y2100000D2*
D14*
X4550000D1*
X4650000Y2000000D1*
D15*
Y1450000D1*
X6018000Y5669000D2*
D13*
X5382500Y5033500D1*
Y3903367D1*
X5514500Y3771367D1*
Y3600500D1*
X5356853Y3442853D1*
X4947437D1*
Y2626940D1*
X3100000Y4950000D2*
D14*
X3050000D1*
D13*
X3250000Y4750000D1*
Y4250000D1*
X4947437Y2626940D2*
X4260000D1*
Y2800000D1*
X3250000Y4250000D2*
Y3956980D1*
X3303613Y3903367D1*
X5382500D1*
X4150000Y1450000D2*
D15*
Y1653280D1*
X4135693Y1667587D1*
X4042820D1*
X5084453Y2168697D2*
D13*
X5137243D1*
X4947437Y2358503D1*
Y2626940D1*
X4200000Y1234897D2*
D15*
Y1450000D1*
X3440000Y4250000D2*
D14*
X3723400D1*
X3700000Y4950000D2*
X3863000D1*
X4169000Y5256000D1*
X4794000D1*
X4860000Y5322000D1*
Y5670000D1*
X3723400Y4250000D2*
Y4350300D1*
X3700000Y4373700D1*
Y4950000D1*
X3357190Y6779070D2*
X3845000D1*
Y6795000D1*
Y6456200D2*
Y6605000D1*
X3264500Y1595180D2*
D15*
Y1182170D1*
X3330500Y1116170D1*
X3634000D1*
X3700000Y1182170D1*
Y1450000D1*
X2900000Y6600000D2*
D13*
X2738960D1*
Y7359107D1*
X3179853Y7800000D1*
X3350000D1*
X4400000Y4250000D2*
D14*
X4550300D1*
X3600000Y4050000D2*
X4550000D1*
X4550300Y4250000D2*
Y4934000D1*
X4616300Y5000000D1*
X5100000D1*
X3350000Y7800000D2*
D13*
X4050000Y8500000D1*
D14*
Y8600000D1*
X4790000Y10450000D2*
D13*
X4650000D1*
Y10050000D1*
X4409500Y9809500D1*
X2090500D1*
X1900000Y10000000D1*
X4650000Y6840000D2*
X4250000D1*
Y6850000D1*
X3000000Y10100000D2*
X3246500D1*
X3251500Y10105000D1*
X3655000D1*
X4250000Y6850000D2*
Y5980000D1*
X3950000D1*
X3900000Y10000000D2*
X4200000D1*
Y10100000D1*
X5319200Y3730510D2*
D14*
X5189190Y3600500D1*
X2882980D1*
X2247480Y4236000D1*
X1300000D1*
X4450000Y3404000D2*
X1878000D1*
X1300000Y3982000D1*
X4844190Y3743283D2*
Y3759767D1*
X2956013D1*
X2279280Y4436500D1*
X1213510D1*
X1147510Y4370500D1*
Y3880490D1*
X1300000Y3728000D1*
X5749200Y8009000D2*
X5800000Y8059800D1*
Y8485100D1*
X5883800D1*
X4450000Y3150000D2*
Y2800000D1*
X5509700Y2831343D2*
D13*
Y2626940D1*
X5137437D1*
D37*
X4500000Y1950000D3*
X2150000Y6250000D3*
X4250000Y2450000D3*
X3450000Y2550000D3*
X4042820Y1667587D3*
X5084453Y2168697D3*
X2441563Y5773297D3*
X3373610Y3103170D3*
X4224583Y3114310D3*
X5296187Y1314893D3*
X5205970Y4080083D3*
X5626560Y4307903D3*
X5679907Y1986357D3*
X2481230Y2776617D3*
X2387150Y5100360D3*
X3393793Y5354373D3*
X5762547Y6589083D3*
X1473470Y1364220D3*
X6085497Y8470273D3*
X1668577Y5425670D3*
X2141967Y3564057D3*
X4020683Y8128270D3*
X4300000Y1950000D3*
X1474347Y4631863D3*
X5042000Y6100000D3*
X3608430Y8304720D3*
X4054820Y4250000D3*
X3350000Y8452510D3*
X4250000Y1730217D3*
X4418800Y10380000D3*
X4874747Y6643407D3*
X1801400Y1825130D3*
X3978507Y1195513D3*
X4600000Y1200000D3*
X1700000Y2350000D3*
X1500000Y2250000D3*
X1550000Y6050000D3*
Y2100000D3*
X4200000Y1234897D3*
X3723400Y4250000D3*
X3357190Y6779070D3*
X3845000Y6456200D3*
X3264500Y1595180D3*
X4550000Y4050000D3*
X3600000D3*
X4550300Y4250000D3*
X4250000Y6850000D3*
X3900000Y10000000D3*
X5319200Y3730510D3*
X4844190Y3743283D3*
X5883800Y8485100D3*
X5749200Y8009000D3*
X1104100Y10889083D2*
D16*
X6145913D1*
X1104100Y10825917D2*
X6145913D1*
X1104100Y10762750D2*
X6145913D1*
X1104100Y10699583D2*
X4631587D1*
X4948517D2*
X5291517D1*
X5608447D2*
X6145913D1*
X1104100Y10636417D2*
X1354763D1*
X1429227D2*
X1862763D1*
X1937227D2*
X4558537D1*
X5021443D2*
X5218467D1*
X5681497D2*
X6145913D1*
X1104100Y10573250D2*
X1270800D1*
X1513190D2*
X1778800D1*
X2021190D2*
X4518600D1*
X5061377D2*
X5178653D1*
X5985600D2*
X6145913D1*
X1104100Y10510083D2*
X1253560D1*
X1530430D2*
X1761560D1*
X2038430D2*
X3991377D1*
X4408643D2*
X4497643D1*
X5082337D2*
X5157570D1*
X6023427D2*
X6145913D1*
X1104100Y10446917D2*
X1268567D1*
X1515423D2*
X1776567D1*
X2023423D2*
X2899973D1*
X3376023D2*
X3776940D1*
X5088663D2*
X5151370D1*
X6033597D2*
X6145913D1*
X1104100Y10383750D2*
X1340873D1*
X1443117D2*
X1848873D1*
X1951117D2*
X2863137D1*
X5080973D2*
X5158933D1*
X6021197D2*
X6145913D1*
X1104100Y10320583D2*
X2862143D1*
X5058400D2*
X5181630D1*
X5979770D2*
X6145913D1*
X1104100Y10257417D2*
X2895630D1*
X5016233D2*
X5223800D1*
X5676287D2*
X6145913D1*
X1104100Y10194250D2*
X2897243D1*
X5261923D2*
X5302183D1*
X5597903D2*
X6145913D1*
X1104100Y10131083D2*
X1330330D1*
X1453660D2*
X1584330D1*
X1707660D2*
X1838330D1*
X1961660D2*
X2862517D1*
X4761117D2*
X4859170D1*
X5330757D2*
X6145913D1*
X1104100Y10067917D2*
X1260630D1*
X2031360D2*
X2862763D1*
X4761117D2*
X4821220D1*
X5368833D2*
X6145913D1*
X1104100Y10004750D2*
X1243390D1*
X2049717D2*
X2898237D1*
X4750823D2*
X4801500D1*
X5388427D2*
X6145913D1*
X1104100Y9941583D2*
X1255917D1*
X2112970D2*
X3791080D1*
X4696130D2*
X4796537D1*
X5393513D2*
X6145913D1*
X1104100Y9878417D2*
X1311727D1*
X1472263D2*
X1565727D1*
X1726263D2*
X1819727D1*
X4632877D2*
X4805220D1*
X5384707D2*
X6145913D1*
X1104100Y9815250D2*
X1930233D1*
X4569750D2*
X4829280D1*
X5360770D2*
X6145913D1*
X1104100Y9752083D2*
X1993360D1*
X4506620D2*
X4873557D1*
X5316493D2*
X6145913D1*
X1104100Y9688917D2*
X4957273D1*
X5232777D2*
X6145913D1*
X1104100Y9625750D2*
X6145913D1*
X1104100Y9562583D2*
X6145913D1*
X1104100Y9499417D2*
X5891417D1*
X1104100Y9436250D2*
X5891417D1*
X1104100Y9373083D2*
X5891417D1*
X1104100Y9309917D2*
X5891417D1*
X1104100Y9246750D2*
X2569573D1*
X2730480D2*
X3959503D1*
X4140503D2*
X4745937D1*
X5073283D2*
X5891417D1*
X1104100Y9183583D2*
X2505700D1*
X3374437D2*
X3446170D1*
X5073283D2*
X5919073D1*
X1104100Y9120417D2*
X2486850D1*
X5073283D2*
X5893277D1*
X1104100Y9057250D2*
X2494787D1*
X5073283D2*
X5896377D1*
X1104100Y8994083D2*
X2535220D1*
X2764837D2*
X3203210D1*
X3565530D2*
X3928003D1*
X4171883D2*
X4745937D1*
X5073283D2*
X5930483D1*
X1104100Y8930917D2*
X1301310D1*
X1598643D2*
X1826550D1*
X2073407D2*
X2506447D1*
X2793610D2*
X3280477D1*
X3419557D2*
X3900717D1*
X4199290D2*
X4766030D1*
X5053193D2*
X5920067D1*
X1104100Y8867750D2*
X1301310D1*
X1598643D2*
X1802490D1*
X2097590D2*
X2486973D1*
X2813080D2*
X3227147D1*
X3472887D2*
X3881990D1*
X4218020D2*
X4746557D1*
X5072663D2*
X5893527D1*
X1104100Y8804583D2*
X1301310D1*
X1598643D2*
X1808813D1*
X2091140D2*
X2494290D1*
X2805640D2*
X3208913D1*
X3491117D2*
X3889060D1*
X4210950D2*
X4753873D1*
X5065223D2*
X5896007D1*
X1104100Y8741417D2*
X1301310D1*
X1598643D2*
X1851727D1*
X2048353D2*
X2486353D1*
X2813700D2*
X3222310D1*
X3477723D2*
X3881370D1*
X4218640D2*
X4793437D1*
X5025783D2*
X5929243D1*
X1104100Y8678250D2*
X2486353D1*
X2813700D2*
X3285810D1*
X3414223D2*
X3881370D1*
X4218640D2*
X4766773D1*
X5052323D2*
X6145913D1*
X1104100Y8615083D2*
X2486353D1*
X2813700D2*
X3881370D1*
X4218640D2*
X4746680D1*
X5072540D2*
X6145913D1*
X1104100Y8551917D2*
X2486353D1*
X2813700D2*
X3881370D1*
X4218640D2*
X4753503D1*
X5065720D2*
X5743087D1*
X5987460D2*
X6145913D1*
X1104100Y8488750D2*
X2486353D1*
X2813700D2*
X3881370D1*
X4218640D2*
X4792073D1*
X5027147D2*
X5709970D1*
X6008173D2*
X6145913D1*
X1104100Y8425583D2*
X3156327D1*
X3543580D2*
X3821093D1*
X4130087D2*
X5709847D1*
X5992173D2*
X6145913D1*
X1104100Y8362417D2*
X3156327D1*
X3543580D2*
X3757967D1*
X4066957D2*
X5709847D1*
X5890103D2*
X6145913D1*
X1104100Y8299250D2*
X3156327D1*
X3543580D2*
X3694713D1*
X4003707D2*
X5709847D1*
X1104100Y8236083D2*
X3156327D1*
X3543580D2*
X3631587D1*
X3940577D2*
X5709847D1*
X1104100Y8172917D2*
X3156327D1*
X3877450D2*
X5709847D1*
X1104100Y8109750D2*
X3156327D1*
X3814197D2*
X5681197D1*
X1104100Y8046583D2*
X3442077D1*
X3751070D2*
X5630843D1*
X1104100Y7983417D2*
X3156327D1*
X3687943D2*
X5627620D1*
X5870880D2*
X5918950D1*
X1104100Y7920250D2*
X3156327D1*
X3624690D2*
X5664950D1*
X5833423D2*
X5893277D1*
X1104100Y7857083D2*
X3082410D1*
X3561563D2*
X5896377D1*
X1104100Y7793917D2*
X3019283D1*
X3543580D2*
X4855200D1*
X4994777D2*
X5105233D1*
X5244810D2*
X5930610D1*
X1104100Y7730750D2*
X2956153D1*
X3543580D2*
X4795917D1*
X5304093D2*
X5919943D1*
X1104100Y7667583D2*
X2892903D1*
X3543580D2*
X4784013D1*
X5315873D2*
X5893527D1*
X1104100Y7604417D2*
X2829773D1*
X3138767D2*
X4803857D1*
X5296153D2*
X5896130D1*
X1104100Y7541250D2*
X2766647D1*
X3075640D2*
X4901957D1*
X4947973D2*
X5151990D1*
X5197997D2*
X5929493D1*
X1104100Y7478083D2*
X2703393D1*
X3012387D2*
X6145913D1*
X1104100Y7414917D2*
X2643987D1*
X2949260D2*
X6145913D1*
X1104100Y7351750D2*
X2627863D1*
X2886130D2*
X6145913D1*
X1104100Y7288583D2*
X1157070D1*
X1406903D2*
X2627863D1*
X2850040D2*
X5859420D1*
X1842847Y7225417D2*
X2627863D1*
X2850040D2*
X5859420D1*
X1912547Y7162250D2*
X2627863D1*
X2850040D2*
X5859420D1*
X1104100Y7099083D2*
X1155707D1*
X1975673D2*
X2627863D1*
X2850040D2*
X5859420D1*
X1104100Y7035917D2*
X1158187D1*
X1405787D2*
X1789343D1*
X2038927D2*
X2627863D1*
X2850040D2*
X5894147D1*
X1436793Y6972750D2*
X1852470D1*
X2102053D2*
X2627863D1*
X2850040D2*
X5863140D1*
X1437787Y6909583D2*
X1915597D1*
X2165183D2*
X2627863D1*
X2850040D2*
X3696327D1*
X3993660D2*
X4141693D1*
X4798697D2*
X5862270D1*
X1104100Y6846417D2*
X1154713D1*
X1409260D2*
X1978727D1*
X2226077D2*
X2627863D1*
X2850040D2*
X3253810D1*
X3993660D2*
X4125570D1*
X4798697D2*
X5890673D1*
X1104100Y6783250D2*
X1159303D1*
X1404670D2*
X2041977D1*
X2240093D2*
X2627863D1*
X2850040D2*
X3232850D1*
X3993660D2*
X4138843D1*
X4798697D2*
X5895263D1*
X1436543Y6720083D2*
X2059837D1*
X2240093D2*
X2317310D1*
X2482683D2*
X2627863D1*
X3048600D2*
X3248477D1*
X3993660D2*
X4138843D1*
X4361140D2*
X4501363D1*
X4970963D2*
X5863513D1*
X1438033Y6656917D2*
X2059837D1*
X2536757D2*
X2627863D1*
X3048600D2*
X3696327D1*
X3993660D2*
X4138843D1*
X4361140D2*
X4501363D1*
X4998373D2*
X5862023D1*
X1104100Y6593750D2*
X1153723D1*
X1410253D2*
X2059837D1*
X2548540D2*
X2627990D1*
X3048600D2*
X3696327D1*
X3993660D2*
X4138843D1*
X4361140D2*
X4501363D1*
X4988203D2*
X5889680D1*
X1104100Y6530583D2*
X1160420D1*
X1403553D2*
X2059837D1*
X2530557D2*
X2654157D1*
X3048600D2*
X3696327D1*
X3993660D2*
X4138843D1*
X4361140D2*
X4501363D1*
X4798697D2*
X4833540D1*
X4916023D2*
X5896377D1*
X1436173Y6467417D2*
X2059837D1*
X2240093D2*
X2341990D1*
X2458003D2*
X2751393D1*
X3048600D2*
X3721130D1*
X3968857D2*
X4138843D1*
X4361140D2*
X4538940D1*
X4761117D2*
X5863760D1*
X1438280Y6404250D2*
X2059837D1*
X2240093D2*
X3732540D1*
X3957447D2*
X4138843D1*
X4361140D2*
X4501363D1*
X4798697D2*
X5861777D1*
X1104100Y6341083D2*
X1152730D1*
X1411243D2*
X2059837D1*
X2240093D2*
X3812287D1*
X3877697D2*
X4138843D1*
X4361140D2*
X4501363D1*
X4798697D2*
X5888690D1*
X1104100Y6277917D2*
X1161660D1*
X1402440D2*
X2028957D1*
X2271100D2*
X4138843D1*
X4361140D2*
X4501363D1*
X4798697D2*
X5897617D1*
X1435923Y6214750D2*
X2030940D1*
X2269113D2*
X4138843D1*
X4361140D2*
X4501363D1*
X4798697D2*
X5864133D1*
X1438530Y6151583D2*
X1483377D1*
X1616627D2*
X2078440D1*
X2221613D2*
X4138843D1*
X4361140D2*
X4501363D1*
X4798697D2*
X5861527D1*
X1104100Y6088417D2*
X1151737D1*
X2251253D2*
X3741347D1*
X4361140D2*
X4501363D1*
X4798697D2*
X5887820D1*
X1104100Y6025250D2*
X1162777D1*
X2314383D2*
X3741347D1*
X4361140D2*
X4501363D1*
X4798697D2*
X5898733D1*
X1635230Y5962083D2*
X2127927D1*
X2377633D2*
X3741347D1*
X4359530D2*
X5864503D1*
X1438777Y5898917D2*
X2191177D1*
X2440763D2*
X3741347D1*
X4322693D2*
X5861280D1*
X1104100Y5835750D2*
X1150870D1*
X1413230D2*
X2254307D1*
X2548167D2*
X2870577D1*
X3358660D2*
X3741347D1*
X4158610D2*
X5886827D1*
X1104100Y5772583D2*
X1164017D1*
X1399957D2*
X2317187D1*
X2566027D2*
X2805713D1*
X3358660D2*
X3741347D1*
X4158610D2*
X4563870D1*
X4966127D2*
X5899973D1*
X1435180Y5709417D2*
X2335913D1*
X2547173D2*
X2787607D1*
X3358660D2*
X3741347D1*
X4158610D2*
X4563870D1*
X4966127D2*
X5864877D1*
X1438900Y5646250D2*
X2797157D1*
X3358660D2*
X3741347D1*
X4158610D2*
X4563870D1*
X4966127D2*
X5840690D1*
X1104100Y5583083D2*
X1149877D1*
X1414097D2*
X2842053D1*
X3358660D2*
X3741347D1*
X4158610D2*
X4563870D1*
X4966127D2*
X5777563D1*
X1104100Y5519917D2*
X1165257D1*
X1398717D2*
X4658873D1*
X4950130D2*
X5714437D1*
X1434810Y5456750D2*
X4658873D1*
X4950130D2*
X5651307D1*
X1439150Y5393583D2*
X4658873D1*
X4950130D2*
X5588057D1*
X1104100Y5330417D2*
X1149010D1*
X1414963D2*
X4124207D1*
X4950130D2*
X5524927D1*
X5833920D2*
X5884967D1*
X1104100Y5267250D2*
X1166497D1*
X1397477D2*
X2951317D1*
X3248650D2*
X3551343D1*
X3848677D2*
X4055497D1*
X5248653D2*
X5461800D1*
X5770793D2*
X5902580D1*
X1434437Y5204083D2*
X2951317D1*
X3248650D2*
X3551343D1*
X3848677D2*
X3992247D1*
X4866910D2*
X4951320D1*
X5248653D2*
X5398547D1*
X5707540D2*
X5865620D1*
X1439273Y5140917D2*
X2951317D1*
X3248650D2*
X3551343D1*
X3848677D2*
X3929117D1*
X4178703D2*
X4951320D1*
X5248653D2*
X5335420D1*
X5644413D2*
X5860660D1*
X1104100Y5077750D2*
X1148140D1*
X1415833D2*
X2951317D1*
X3248650D2*
X3551343D1*
X4115577D2*
X4578753D1*
X5248653D2*
X5281220D1*
X5581283D2*
X5884100D1*
X1440637Y5014583D2*
X2951317D1*
X3248650D2*
X3551343D1*
X4052323D2*
X4506077D1*
X5518033D2*
X5903820D1*
X1440637Y4951417D2*
X2938917D1*
X3248650D2*
X3551343D1*
X3989197D2*
X4462047D1*
X5493600D2*
X5865993D1*
X1440637Y4888250D2*
X2951317D1*
X3266263D2*
X3551343D1*
X3925943D2*
X4460187D1*
X4640443D2*
X4951320D1*
X5493600D2*
X5860537D1*
X1440637Y4825083D2*
X2951317D1*
X3329390D2*
X3551343D1*
X3848677D2*
X4460187D1*
X4640443D2*
X5271423D1*
X5493600D2*
X5883230D1*
X1440637Y4761917D2*
X3083527D1*
X3360397D2*
X3609883D1*
X3790137D2*
X4460187D1*
X4640443D2*
X5271423D1*
X5493600D2*
X5965337D1*
X6070680D2*
X6145913D1*
X1104100Y4698750D2*
X3138840D1*
X3361140D2*
X3609883D1*
X3790137D2*
X4460187D1*
X4640443D2*
X5271423D1*
X5493600D2*
X6145913D1*
X1104100Y4635583D2*
X3138840D1*
X3361140D2*
X3609883D1*
X3790137D2*
X4460187D1*
X4640443D2*
X5271423D1*
X5493600D2*
X6145913D1*
X1104100Y4572417D2*
X3138840D1*
X3361140D2*
X3609883D1*
X3790137D2*
X4460187D1*
X4640443D2*
X5271423D1*
X5493600D2*
X6145913D1*
X1104100Y4509250D2*
X1165627D1*
X2327157D2*
X3138840D1*
X3361140D2*
X3609883D1*
X3790137D2*
X4460187D1*
X4640443D2*
X5271423D1*
X5493600D2*
X6145913D1*
X2394503Y4446083D2*
X3138840D1*
X3361140D2*
X3609883D1*
X3790137D2*
X4460187D1*
X4640443D2*
X5271423D1*
X5493600D2*
X6145913D1*
X2457630Y4382917D2*
X3111307D1*
X3806880D2*
X4071373D1*
X4640443D2*
X5271423D1*
X5493600D2*
X6145913D1*
X2520883Y4319750D2*
X3111307D1*
X3824987D2*
X4071373D1*
X4651977D2*
X5271423D1*
X5493600D2*
X6145913D1*
X2584010Y4256583D2*
X3111307D1*
X3847683D2*
X4071373D1*
X4674550D2*
X5271423D1*
X5493600D2*
X6145913D1*
X2647137Y4193417D2*
X3111307D1*
X3833423D2*
X4071373D1*
X4660287D2*
X5271423D1*
X5493600D2*
X6145913D1*
X1415957Y4130250D2*
X2228383D1*
X2710390D2*
X3111307D1*
X4642923D2*
X5271423D1*
X5493600D2*
X6145913D1*
X1432700Y4067083D2*
X2291637D1*
X2773517D2*
X3138840D1*
X4673183D2*
X5271423D1*
X5493600D2*
X6145913D1*
X1457010Y4003917D2*
X2354763D1*
X2836647D2*
X3138840D1*
X5493600D2*
X6145913D1*
X1466063Y3940750D2*
X2417893D1*
X2899773D2*
X3140207D1*
X5499677D2*
X6145913D1*
X1529190Y3877583D2*
X2481143D1*
X2963027D2*
X3174933D1*
X5562803D2*
X6145913D1*
X1592443Y3814417D2*
X2544273D1*
X5616383D2*
X6145913D1*
X1104100Y3751250D2*
X1143180D1*
X1655570D2*
X2607400D1*
X5625560D2*
X6145913D1*
X1104100Y3688083D2*
X1146653D1*
X1718697D2*
X2670653D1*
X5625560D2*
X6145913D1*
X1104100Y3624917D2*
X1181503D1*
X1418437D2*
X1532240D1*
X1781827D2*
X2733780D1*
X5625560D2*
X6145913D1*
X1104100Y3561750D2*
X1169223D1*
X1430840D2*
X1595493D1*
X1845077D2*
X2796907D1*
X5618120D2*
X6145913D1*
X1104100Y3498583D2*
X1143303D1*
X1456637D2*
X1658620D1*
X1908207D2*
X4324257D1*
X5567020D2*
X6145913D1*
X1104100Y3435417D2*
X1146280D1*
X1453660D2*
X1721750D1*
X5503893D2*
X6145913D1*
X1104100Y3372250D2*
X1180387D1*
X1419677D2*
X1785000D1*
X5440767D2*
X6145913D1*
X1104100Y3309083D2*
X1170093D1*
X1429847D2*
X4324503D1*
X5058527D2*
X6145913D1*
X1104100Y3245917D2*
X1143553D1*
X1456390D2*
X4291390D1*
X5058527D2*
X6145913D1*
X1104100Y3182750D2*
X1146033D1*
X1454033D2*
X3279980D1*
X5058527D2*
X5351047D1*
X5668350D2*
X6145913D1*
X1104100Y3119583D2*
X1179147D1*
X1420793D2*
X3250337D1*
X5058527D2*
X5351047D1*
X5668350D2*
X6145913D1*
X1104100Y3056417D2*
X1171087D1*
X1428857D2*
X3258770D1*
X5058527D2*
X5351047D1*
X5668350D2*
X6145913D1*
X1104100Y2993250D2*
X1143800D1*
X1456140D2*
X3324133D1*
X3423153D2*
X4359850D1*
X5058527D2*
X5351047D1*
X5668350D2*
X6145913D1*
X1104100Y2930083D2*
X1145660D1*
X1454403D2*
X4121353D1*
X5058527D2*
X5387387D1*
X5632010D2*
X6145913D1*
X1104100Y2866917D2*
X1178030D1*
X1422033D2*
X4121353D1*
X5058527D2*
X5355263D1*
X5664133D2*
X6145913D1*
X1104100Y2803750D2*
X1172077D1*
X1427863D2*
X4121353D1*
X5058527D2*
X5353527D1*
X5665867D2*
X6145913D1*
X1104100Y2740583D2*
X1144047D1*
X1455893D2*
X4121353D1*
X5276063D2*
X5381060D1*
X5638333D2*
X6145913D1*
X1104100Y2677417D2*
X1145287D1*
X1454653D2*
X4121353D1*
X5620847D2*
X6145913D1*
X1104100Y2614250D2*
X1176913D1*
X1423150D2*
X3344597D1*
X3555487D2*
X4149633D1*
X5619980D2*
X6145913D1*
X1104100Y2551083D2*
X1173070D1*
X1426870D2*
X3325620D1*
X3574460D2*
X4181383D1*
X5588353D2*
X6145913D1*
X1104100Y2487917D2*
X1144297D1*
X1455643D2*
X3343230D1*
X5276063D2*
X6145913D1*
X1104100Y2424750D2*
X1145040D1*
X1455023D2*
X1602190D1*
X5058527D2*
X6145913D1*
X1104100Y2361583D2*
X1175797D1*
X5098833D2*
X6145913D1*
X1104100Y2298417D2*
X1174187D1*
X5161960D2*
X6145913D1*
X1104100Y2235250D2*
X1144543D1*
X5224470D2*
X6145913D1*
X1104100Y2172083D2*
X1144793D1*
X5248280D2*
X6145913D1*
X1104100Y2108917D2*
X1174683D1*
X5229677D2*
X6145913D1*
X1104100Y2045750D2*
X1141320D1*
X4951740D2*
X6145913D1*
X1104100Y1982583D2*
X1141320D1*
X1458620D2*
X1531000D1*
X1568970D2*
X3330953D1*
X4236623D2*
X4380190D1*
X4951740D2*
X6145913D1*
X1104100Y1919417D2*
X1141320D1*
X1458620D2*
X1723980D1*
X1878813D2*
X3330953D1*
X3511210D2*
X4057980D1*
X4287720D2*
X4379570D1*
X4951740D2*
X6145913D1*
X1104100Y1856250D2*
X1141320D1*
X1458620D2*
X1681193D1*
X3511210D2*
X4101263D1*
X4951740D2*
X6145913D1*
X1104100Y1793083D2*
X1681440D1*
X3504760D2*
X4164390D1*
X4951740D2*
X6145913D1*
X1104100Y1729917D2*
X1725223D1*
X1877573D2*
X3936187D1*
X4194950D2*
X4304413D1*
X4951740D2*
X6145913D1*
X1104100Y1666750D2*
X3164267D1*
X3364737D2*
X3918327D1*
X4236993D2*
X4311853D1*
X4951740D2*
X6145913D1*
X1104100Y1603583D2*
X3140330D1*
X3388673D2*
X3561390D1*
X4951740D2*
X6145913D1*
X1104100Y1540417D2*
X3153477D1*
X3375527D2*
X3561390D1*
X4951740D2*
X6145913D1*
X1104100Y1477250D2*
X3176420D1*
X3352583D2*
X3544273D1*
X4951740D2*
X6145913D1*
X1104100Y1414083D2*
X3176420D1*
X5143607D2*
X5225783D1*
X5366600D2*
X6145913D1*
X1104100Y1350917D2*
X3176420D1*
X5143607D2*
X5177373D1*
X5414970D2*
X6145913D1*
X1104100Y1287750D2*
X3176420D1*
X5417450D2*
X6145913D1*
X1104100Y1224583D2*
X3176420D1*
X5143607D2*
X5206063D1*
X5386320D2*
X6145913D1*
X1104100Y1161417D2*
X3179023D1*
X5386320D2*
X6145913D1*
X1104100Y1098250D2*
X3226400D1*
X5384333D2*
X6145913D1*
X1161460Y5059290D2*
X1168777D1*
X1158793Y5071487D1*
X1146310Y5091863D1*
X1137163Y5113940D1*
X1131583Y5137177D1*
X1129710Y5161000D1*
X1131583Y5184823D1*
X1137163Y5208060D1*
X1146310Y5230137D1*
X1158793Y5250513D1*
X1174313Y5268687D1*
X1192487Y5284207D1*
X1198040Y5287917D1*
X1183097Y5299197D1*
X1166197Y5316097D1*
X1152150Y5335430D1*
X1141303Y5356720D1*
X1133917Y5379450D1*
X1130180Y5403050D1*
Y5426950D1*
X1133917Y5450550D1*
X1141303Y5473280D1*
X1152150Y5494570D1*
X1166197Y5513903D1*
X1183097Y5530803D1*
X1198040Y5541917D1*
X1183097Y5553197D1*
X1166197Y5570097D1*
X1152150Y5589430D1*
X1141303Y5610720D1*
X1133917Y5633450D1*
X1130180Y5657050D1*
Y5680950D1*
X1133917Y5704550D1*
X1141303Y5727280D1*
X1152150Y5748570D1*
X1166197Y5767903D1*
X1183097Y5784803D1*
X1198040Y5795917D1*
X1183097Y5807197D1*
X1166197Y5824097D1*
X1152150Y5843430D1*
X1141303Y5864720D1*
X1133917Y5887450D1*
X1130180Y5911050D1*
Y5934950D1*
X1133917Y5958550D1*
X1141303Y5981280D1*
X1152150Y6002570D1*
X1166197Y6021903D1*
X1183097Y6038803D1*
X1198040Y6049917D1*
X1183097Y6061197D1*
X1166197Y6078097D1*
X1152150Y6097430D1*
X1141303Y6118720D1*
X1133917Y6141450D1*
X1130180Y6165050D1*
Y6188950D1*
X1133917Y6212550D1*
X1141303Y6235280D1*
X1152150Y6256570D1*
X1166197Y6275903D1*
X1183097Y6292803D1*
X1198040Y6303917D1*
X1183097Y6315197D1*
X1166197Y6332097D1*
X1152150Y6351430D1*
X1141303Y6372720D1*
X1133917Y6395450D1*
X1130180Y6419050D1*
Y6442950D1*
X1133917Y6466550D1*
X1141303Y6489280D1*
X1152150Y6510570D1*
X1166197Y6529903D1*
X1183097Y6546803D1*
X1198040Y6557917D1*
X1183097Y6569197D1*
X1166197Y6586097D1*
X1152150Y6605430D1*
X1141303Y6626720D1*
X1133917Y6649450D1*
X1130180Y6673050D1*
Y6696950D1*
X1133917Y6720550D1*
X1141303Y6743280D1*
X1152150Y6764570D1*
X1166197Y6783903D1*
X1183097Y6800803D1*
X1198040Y6811917D1*
X1183097Y6823197D1*
X1166197Y6840097D1*
X1152150Y6859430D1*
X1141303Y6880720D1*
X1133917Y6903450D1*
X1130180Y6927050D1*
Y6950950D1*
X1133917Y6974550D1*
X1141303Y6997280D1*
X1152150Y7018570D1*
X1166197Y7037903D1*
X1183097Y7054803D1*
X1198040Y7065917D1*
X1183097Y7077197D1*
X1166197Y7094097D1*
X1152150Y7113430D1*
X1141303Y7134720D1*
X1133917Y7157450D1*
X1130180Y7181050D1*
Y7204950D1*
X1133917Y7228550D1*
X1141303Y7251280D1*
X1152150Y7272570D1*
X1166197Y7291903D1*
X1183097Y7308803D1*
X1202430Y7322850D1*
X1223720Y7333697D1*
X1246450Y7341083D1*
X1270050Y7344820D1*
X1293950D1*
X1317550Y7341083D1*
X1340280Y7333697D1*
X1361570Y7322850D1*
X1380903Y7308803D1*
X1397803Y7291903D1*
X1411850Y7272570D1*
X1422697Y7251280D1*
X1428623Y7233720D1*
X1806573Y7233533D1*
X1825893Y7229690D1*
X1843780Y7221443D1*
X1859250Y7209250D1*
X1859823Y7208627D1*
X2213713Y6854417D1*
X2224657Y6838040D1*
X2231473Y6819560D1*
X2233790Y6800000D1*
X2233757Y6799153D1*
X2233790Y6333300D1*
X2245537Y6319410D1*
X2255220Y6303613D1*
X2262310Y6286493D1*
X2266637Y6268473D1*
X2268090Y6250000D1*
X2266637Y6231527D1*
X2262310Y6213507D1*
X2255220Y6196387D1*
X2245537Y6180590D1*
X2233503Y6166497D1*
X2219410Y6154463D1*
X2203613Y6144780D1*
X2186493Y6137690D1*
X2169717Y6133610D1*
X2184420Y6131477D1*
X2202900Y6124657D1*
X2219277Y6113713D1*
X2442037Y5891320D1*
X2460037Y5889933D1*
X2478057Y5885607D1*
X2495177Y5878517D1*
X2510973Y5868833D1*
X2525067Y5856800D1*
X2537100Y5842707D1*
X2546783Y5826910D1*
X2553873Y5809790D1*
X2558200Y5791770D1*
X2559653Y5773297D1*
X2558200Y5754823D1*
X2553873Y5736803D1*
X2546783Y5719683D1*
X2537100Y5703887D1*
X2525067Y5689793D1*
X2510973Y5677760D1*
X2495177Y5668077D1*
X2478057Y5660987D1*
X2460037Y5656660D1*
X2441563Y5655207D1*
X2423090Y5656660D1*
X2405070Y5660987D1*
X2387950Y5668077D1*
X2372153Y5677760D1*
X2358060Y5689793D1*
X2346027Y5703887D1*
X2336343Y5719683D1*
X2329253Y5736803D1*
X2324927Y5754823D1*
X2323490Y5772900D1*
X2130183Y5966180D1*
X1633170Y5966210D1*
X1619410Y5954463D1*
X1603613Y5944780D1*
X1586493Y5937690D1*
X1568473Y5933363D1*
X1550000Y5931910D1*
X1531527Y5933363D1*
X1513507Y5937690D1*
X1496387Y5944780D1*
X1480590Y5954463D1*
X1466497Y5966497D1*
X1454463Y5980590D1*
X1444780Y5996387D1*
X1437690Y6013507D1*
X1433363Y6031527D1*
X1431910Y6050000D1*
X1433363Y6068473D1*
X1437690Y6086493D1*
X1444780Y6103613D1*
X1454463Y6119410D1*
X1466497Y6133503D1*
X1480590Y6145537D1*
X1496387Y6155220D1*
X1513507Y6162310D1*
X1531527Y6166637D1*
X1550000Y6168090D1*
X1568473Y6166637D1*
X1586493Y6162310D1*
X1603613Y6155220D1*
X1619410Y6145537D1*
X1633210Y6133773D1*
X2129067Y6133790D1*
X2113507Y6137690D1*
X2096387Y6144780D1*
X2080590Y6154463D1*
X2066497Y6166497D1*
X2054463Y6180590D1*
X2044780Y6196387D1*
X2037690Y6213507D1*
X2033363Y6231527D1*
X2031910Y6250000D1*
X2033363Y6268473D1*
X2037690Y6286493D1*
X2044780Y6303613D1*
X2054463Y6319410D1*
X2066227Y6333210D1*
X2066210Y6765317D1*
X1765303Y7066197D1*
X1366290Y7066210D1*
X1389687Y7046687D1*
X1405207Y7028513D1*
X1417690Y7008137D1*
X1426837Y6986060D1*
X1432417Y6962823D1*
X1434290Y6939000D1*
X1432417Y6915177D1*
X1426837Y6891940D1*
X1417690Y6869863D1*
X1405207Y6849487D1*
X1389687Y6831313D1*
X1371513Y6815793D1*
X1365960Y6812083D1*
X1380903Y6800803D1*
X1397803Y6783903D1*
X1411850Y6764570D1*
X1422697Y6743280D1*
X1430083Y6720550D1*
X1433820Y6696950D1*
Y6673050D1*
X1430083Y6649450D1*
X1422697Y6626720D1*
X1411850Y6605430D1*
X1397803Y6586097D1*
X1380903Y6569197D1*
X1365960Y6558083D1*
X1380903Y6546803D1*
X1397803Y6529903D1*
X1411850Y6510570D1*
X1422697Y6489280D1*
X1430083Y6466550D1*
X1433820Y6442950D1*
Y6419050D1*
X1430083Y6395450D1*
X1422697Y6372720D1*
X1411850Y6351430D1*
X1397803Y6332097D1*
X1380903Y6315197D1*
X1365960Y6304083D1*
X1380903Y6292803D1*
X1397803Y6275903D1*
X1411850Y6256570D1*
X1422697Y6235280D1*
X1430083Y6212550D1*
X1433820Y6188950D1*
Y6165050D1*
X1430083Y6141450D1*
X1422697Y6118720D1*
X1411850Y6097430D1*
X1397803Y6078097D1*
X1380903Y6061197D1*
X1365960Y6050083D1*
X1380903Y6038803D1*
X1397803Y6021903D1*
X1411850Y6002570D1*
X1422697Y5981280D1*
X1430083Y5958550D1*
X1433820Y5934950D1*
Y5911050D1*
X1430083Y5887450D1*
X1422697Y5864720D1*
X1411850Y5843430D1*
X1397803Y5824097D1*
X1380903Y5807197D1*
X1365960Y5796083D1*
X1380903Y5784803D1*
X1397803Y5767903D1*
X1411850Y5748570D1*
X1422697Y5727280D1*
X1430083Y5704550D1*
X1433820Y5680950D1*
Y5657050D1*
X1430083Y5633450D1*
X1422697Y5610720D1*
X1411850Y5589430D1*
X1397803Y5570097D1*
X1380903Y5553197D1*
X1365960Y5542083D1*
X1380903Y5530803D1*
X1397803Y5513903D1*
X1411850Y5494570D1*
X1422697Y5473280D1*
X1430083Y5450550D1*
X1433820Y5426950D1*
Y5403050D1*
X1430083Y5379450D1*
X1422697Y5356720D1*
X1411850Y5335430D1*
X1397803Y5316097D1*
X1380903Y5299197D1*
X1365960Y5288083D1*
X1380903Y5276803D1*
X1397803Y5259903D1*
X1411850Y5240570D1*
X1422697Y5219280D1*
X1430083Y5196550D1*
X1433820Y5172950D1*
Y5149050D1*
X1430083Y5125450D1*
X1422697Y5102720D1*
X1411850Y5081430D1*
X1397803Y5062097D1*
X1395233Y5059317D1*
X1434290Y5059290D1*
Y4754710D1*
X1129710D1*
Y5059290D1*
X1161460D1*
X3242170Y5082290D2*
X3242290Y4905803D1*
X3329683Y4818057D1*
X3339347Y4804753D1*
X3346813Y4790100D1*
X3351893Y4774463D1*
X3354467Y4758223D1*
X3354790Y4591250D1*
Y4392193D1*
X3572290Y4392290D1*
Y4333873D1*
X3626407Y4333790D1*
X3620310Y4347807D1*
X3616467Y4367127D1*
X3616210Y4817827D1*
X3557710Y4817710D1*
Y5272290D1*
X3842290D1*
Y5047687D1*
X4114583Y5319713D1*
X4130960Y5330657D1*
X4149440Y5337477D1*
X4169000Y5339790D1*
X4169847Y5339757D1*
X4665217Y5339790D1*
X4665210Y5550243D1*
X4570210Y5550210D1*
Y5789790D1*
X4959790D1*
Y5550210D1*
X4943790D1*
X4943533Y5315427D1*
X4939690Y5296107D1*
X4931443Y5278220D1*
X4919250Y5262750D1*
X4918627Y5262177D1*
X4848417Y5192287D1*
X4832040Y5181343D1*
X4813560Y5174523D1*
X4794000Y5172210D1*
X4793153Y5172243D1*
X4203773Y5172210D1*
X3917417Y4886287D1*
X3901040Y4875343D1*
X3882560Y4868523D1*
X3863000Y4866210D1*
X3862153Y4866243D1*
X3842287Y4866210D1*
X3842290Y4817710D1*
X3783877D1*
X3783790Y4408390D1*
X3794843Y4394080D1*
X3803090Y4376193D1*
X3806933Y4356873D1*
X3807190Y4333310D1*
X3818937Y4319410D1*
X3828620Y4303613D1*
X3835710Y4286493D1*
X3840037Y4268473D1*
X3841490Y4250000D1*
X3840037Y4231527D1*
X3835710Y4213507D1*
X3828620Y4196387D1*
X3818937Y4180590D1*
X3806903Y4166497D1*
X3792810Y4154463D1*
X3777013Y4144780D1*
X3759893Y4137690D1*
X3743827Y4133753D1*
X4077613Y4133790D1*
X4077710Y4392290D1*
X4466520D1*
X4466767Y4940573D1*
X4470610Y4959893D1*
X4478857Y4977780D1*
X4491050Y4993250D1*
X4491673Y4993823D1*
X4561883Y5063713D1*
X4578260Y5074657D1*
X4596740Y5081477D1*
X4616300Y5083790D1*
X4617147Y5083757D1*
X4957737Y5083790D1*
X4957710Y5322290D1*
X5242290D1*
Y4867710D1*
X4957710D1*
Y4916203D1*
X4650910Y4916210D1*
X4634090Y4899397D1*
X4634073Y4333210D1*
X4645837Y4319410D1*
X4655520Y4303613D1*
X4662610Y4286493D1*
X4666937Y4268473D1*
X4668390Y4250000D1*
X4666937Y4231527D1*
X4662610Y4213507D1*
X4655520Y4196387D1*
X4645837Y4180590D1*
X4633803Y4166497D1*
X4619710Y4154463D1*
X4612937Y4149863D1*
X4626693Y4139797D1*
X4639797Y4126693D1*
X4650687Y4111703D1*
X4659100Y4095190D1*
X4664827Y4077567D1*
X4667727Y4059267D1*
Y4040733D1*
X4664827Y4022433D1*
X4660317Y4008107D1*
X5277693Y4008157D1*
X5278033Y5041723D1*
X5280607Y5057963D1*
X5285687Y5073600D1*
X5293153Y5088253D1*
X5302817Y5101557D1*
X5420657Y5219850D1*
X5865867Y5665033D1*
X5866180Y5680950D1*
X5869917Y5704550D1*
X5877303Y5727280D1*
X5888150Y5748570D1*
X5902197Y5767903D1*
X5919097Y5784803D1*
X5933977Y5796020D1*
X5917293Y5808760D1*
X5903827Y5822220D1*
X5892147Y5837250D1*
X5882430Y5853623D1*
X5874833Y5871080D1*
X5869473Y5889347D1*
X5866437Y5908140D1*
X5865767Y5927167D1*
X5867477Y5946127D1*
X5871537Y5964727D1*
X5877887Y5982673D1*
X5886427Y5999687D1*
X5897023Y6015503D1*
X5909510Y6029877D1*
X5923693Y6042577D1*
X5934040Y6050083D1*
X5919097Y6061197D1*
X5902197Y6078097D1*
X5888150Y6097430D1*
X5877303Y6118720D1*
X5869917Y6141450D1*
X5866180Y6165050D1*
Y6188950D1*
X5869917Y6212550D1*
X5877303Y6235280D1*
X5888150Y6256570D1*
X5902197Y6275903D1*
X5919097Y6292803D1*
X5934040Y6304083D1*
X5919097Y6315197D1*
X5902197Y6332097D1*
X5888150Y6351430D1*
X5877303Y6372720D1*
X5869917Y6395450D1*
X5866180Y6419050D1*
Y6442950D1*
X5869917Y6466550D1*
X5877303Y6489280D1*
X5888150Y6510570D1*
X5902197Y6529903D1*
X5919097Y6546803D1*
X5934040Y6558083D1*
X5919097Y6569197D1*
X5902197Y6586097D1*
X5888150Y6605430D1*
X5877303Y6626720D1*
X5869917Y6649450D1*
X5866180Y6673050D1*
Y6696950D1*
X5869917Y6720550D1*
X5877303Y6743280D1*
X5888150Y6764570D1*
X5902197Y6783903D1*
X5919097Y6800803D1*
X5934040Y6812083D1*
X5919097Y6823197D1*
X5902197Y6840097D1*
X5888150Y6859430D1*
X5877303Y6880720D1*
X5869917Y6903450D1*
X5866180Y6927050D1*
Y6950950D1*
X5869917Y6974550D1*
X5877303Y6997280D1*
X5888150Y7018570D1*
X5902197Y7037903D1*
X5904757Y7040710D1*
X5865710D1*
Y7345290D1*
X6152270D1*
X6152250Y7529233D1*
X6137463Y7517330D1*
X6121227Y7507393D1*
X6103873Y7499557D1*
X6085683Y7493950D1*
X6066930Y7490653D1*
X6047917Y7489723D1*
X6028933Y7491173D1*
X6010280Y7494980D1*
X5992250Y7501083D1*
X5975120Y7509390D1*
X5959160Y7519770D1*
X5944620Y7532060D1*
X5931727Y7546067D1*
X5920680Y7561570D1*
X5911657Y7578333D1*
X5904793Y7596093D1*
X5900200Y7614567D1*
X5897950Y7633470D1*
X5898073Y7652510D1*
X5900570Y7671380D1*
X5905403Y7689797D1*
X5912497Y7707463D1*
X5921740Y7724107D1*
X5932987Y7739467D1*
X5946060Y7753303D1*
X5965960Y7769000D1*
X5951097Y7780197D1*
X5934197Y7797097D1*
X5920150Y7816430D1*
X5909303Y7837720D1*
X5901917Y7860450D1*
X5898180Y7884050D1*
Y7907950D1*
X5901917Y7931550D1*
X5909303Y7954280D1*
X5920150Y7975570D1*
X5934197Y7994903D1*
X5936767Y7997683D1*
X5897710Y7997710D1*
Y8302290D1*
X6152330D1*
X6152250Y8729037D1*
X6132190Y8713793D1*
X6115553Y8704540D1*
X6097890Y8697437D1*
X6079480Y8692590D1*
X6060607Y8690080D1*
X6041570Y8689943D1*
X6022667Y8692183D1*
X6004187Y8696763D1*
X5986427Y8703613D1*
X5969657Y8712627D1*
X5954143Y8723663D1*
X5940127Y8736547D1*
X5927830Y8751080D1*
X5917440Y8767033D1*
X5909123Y8784157D1*
X5903007Y8802183D1*
X5899187Y8820837D1*
X5897727Y8839817D1*
X5898643Y8858833D1*
X5901927Y8877583D1*
X5907523Y8895780D1*
X5915347Y8913137D1*
X5925273Y8929380D1*
X5937150Y8944260D1*
X5950790Y8957540D1*
X5965960Y8969000D1*
X5951097Y8980197D1*
X5934197Y8997097D1*
X5920150Y9016430D1*
X5909303Y9037720D1*
X5901917Y9060450D1*
X5898180Y9084050D1*
Y9107950D1*
X5901917Y9131550D1*
X5909303Y9154280D1*
X5920150Y9175570D1*
X5934197Y9194903D1*
X5936767Y9197683D1*
X5897710Y9197710D1*
Y9502290D1*
X6152330D1*
X6152250Y10952250D1*
X1097750D1*
Y4439160D1*
X1159093Y4500213D1*
X1175470Y4511157D1*
X1193950Y4517977D1*
X1213510Y4520290D1*
X1214357Y4520257D1*
X2285853Y4520033D1*
X2305173Y4516190D1*
X2323060Y4507943D1*
X2338530Y4495750D1*
X2339103Y4495127D1*
X2990737Y3843540D1*
X3215347Y3843557D1*
X3170317Y3888923D1*
X3160650Y3902227D1*
X3153187Y3916880D1*
X3148107Y3932517D1*
X3145533Y3948757D1*
X3145210Y4107670D1*
X3117710Y4107710D1*
Y4392290D1*
X3145120D1*
X3145210Y4706530D1*
X3034053Y4817710D1*
X2957710D1*
Y4900433D1*
X2950340Y4917617D1*
X2946500Y4933607D1*
X2945210Y4950000D1*
X2946500Y4966393D1*
X2950340Y4982383D1*
X2957713Y4999510D1*
X2957710Y5272290D1*
X3242290D1*
X3242267Y5007710D1*
X4792170Y6782290D2*
X4792290Y6748180D1*
X4821133Y6748627D1*
X4838253Y6755717D1*
X4856273Y6760043D1*
X4874747Y6761497D1*
X4893220Y6760043D1*
X4911240Y6755717D1*
X4928360Y6748627D1*
X4944157Y6738943D1*
X4958250Y6726910D1*
X4970283Y6712817D1*
X4979967Y6697020D1*
X4987057Y6679900D1*
X4991383Y6661880D1*
X4992837Y6643407D1*
X4991383Y6624933D1*
X4987057Y6606913D1*
X4979967Y6589793D1*
X4970283Y6573997D1*
X4958250Y6559903D1*
X4944157Y6547870D1*
X4928360Y6538187D1*
X4911240Y6531097D1*
X4893220Y6526770D1*
X4874747Y6525317D1*
X4856273Y6526770D1*
X4838253Y6531097D1*
X4820283Y6538667D1*
X4792270Y6538617D1*
X4792290Y6517710D1*
X4754710D1*
X4754790Y6422170D1*
X4792290Y6422290D1*
Y5967710D1*
X4507710D1*
Y6422290D1*
X4545290D1*
X4545210Y6517830D1*
X4507710Y6517710D1*
Y6735123D1*
X4354700Y6735210D1*
X4354467Y5971777D1*
X4351893Y5955537D1*
X4346813Y5939900D1*
X4339350Y5925247D1*
X4329683Y5911943D1*
X4318057Y5900317D1*
X4304753Y5890650D1*
X4290100Y5883187D1*
X4274463Y5878107D1*
X4258223Y5875533D1*
X4152393Y5875210D1*
X4152290Y5552710D1*
X3747710D1*
Y6127290D1*
X4145197D1*
X4144780Y6796387D1*
X4137690Y6813507D1*
X4133363Y6831527D1*
X4131910Y6850000D1*
X4133363Y6868473D1*
X4137690Y6886493D1*
X4144780Y6903613D1*
X4154463Y6919410D1*
X4166497Y6933503D1*
X4180590Y6945537D1*
X4196387Y6955220D1*
X4213507Y6962310D1*
X4231527Y6966637D1*
X4250000Y6968090D1*
X4268473Y6966637D1*
X4286493Y6962310D1*
X4303613Y6955220D1*
X4320407Y6944753D1*
X4507597Y6944790D1*
X4507710Y6972290D1*
X4792290D1*
Y6750040D1*
X3544460Y10427290D2*
X3763610D1*
X3796443Y10459683D1*
X3809747Y10469347D1*
X3824400Y10476813D1*
X3840037Y10481893D1*
X3856277Y10484467D1*
X3997827Y10484790D1*
X3997710Y10527290D1*
X4402290D1*
Y10496903D1*
X4418800Y10498090D1*
X4437273Y10496637D1*
X4455293Y10492310D1*
X4472413Y10485220D1*
X4488210Y10475537D1*
X4498233Y10467263D1*
X4501310Y10495723D1*
X4505787Y10518233D1*
X4512017Y10540323D1*
X4519960Y10561853D1*
X4529567Y10582697D1*
X4540783Y10602720D1*
X4553533Y10621803D1*
X4567740Y10639827D1*
X4583320Y10656680D1*
X4600173Y10672260D1*
X4618197Y10686467D1*
X4637280Y10699217D1*
X4657303Y10710433D1*
X4678147Y10720040D1*
X4699677Y10727983D1*
X4721767Y10734213D1*
X4744277Y10738690D1*
X4767067Y10741390D1*
X4790000Y10742290D1*
X4812933Y10741390D1*
X4835723Y10738690D1*
X4858233Y10734213D1*
X4880323Y10727983D1*
X4901853Y10720040D1*
X4922697Y10710433D1*
X4942720Y10699217D1*
X4961803Y10686467D1*
X4979827Y10672260D1*
X4996680Y10656680D1*
X5012260Y10639827D1*
X5026467Y10621803D1*
X5039217Y10602720D1*
X5050433Y10582697D1*
X5060040Y10561853D1*
X5067983Y10540323D1*
X5074213Y10518233D1*
X5078690Y10495723D1*
X5081390Y10472933D1*
X5082290Y10450000D1*
X5081390Y10427067D1*
X5078690Y10404277D1*
X5074213Y10381767D1*
X5067983Y10359677D1*
X5060040Y10338147D1*
X5050433Y10317303D1*
X5039217Y10297280D1*
X5026467Y10278197D1*
X5012260Y10260173D1*
X4996680Y10243320D1*
X4979827Y10227740D1*
X4961803Y10213533D1*
X4942720Y10200783D1*
X4922697Y10189567D1*
X4901853Y10179960D1*
X4880323Y10172017D1*
X4858233Y10165787D1*
X4835723Y10161310D1*
X4812933Y10158610D1*
X4790000Y10157710D1*
X4754693Y10160077D1*
X4754467Y10041777D1*
X4751893Y10025537D1*
X4746813Y10009900D1*
X4739347Y9995247D1*
X4729683Y9981943D1*
X4611843Y9863650D1*
X4477557Y9729817D1*
X4464253Y9720153D1*
X4449600Y9712687D1*
X4433963Y9707607D1*
X4417723Y9705033D1*
X4250750Y9704710D1*
X2082277Y9705033D1*
X2066037Y9707607D1*
X2050400Y9712687D1*
X2035747Y9720153D1*
X2022443Y9729817D1*
X1893890Y9857917D1*
X1877740Y9859463D1*
X1856030Y9864673D1*
X1835403Y9873220D1*
X1816363Y9884883D1*
X1799387Y9899387D1*
X1784883Y9916363D1*
X1773017Y9935837D1*
X1761117Y9916363D1*
X1746613Y9899387D1*
X1729637Y9884883D1*
X1710597Y9873220D1*
X1689970Y9864673D1*
X1668260Y9859463D1*
X1646000Y9857710D1*
X1623740Y9859463D1*
X1602030Y9864673D1*
X1581403Y9873220D1*
X1562363Y9884883D1*
X1545387Y9899387D1*
X1530883Y9916363D1*
X1519017Y9935837D1*
X1507117Y9916363D1*
X1492613Y9899387D1*
X1475637Y9884883D1*
X1456597Y9873220D1*
X1435970Y9864673D1*
X1414260Y9859463D1*
X1392000Y9857710D1*
X1369740Y9859463D1*
X1348030Y9864673D1*
X1327403Y9873220D1*
X1308363Y9884883D1*
X1291387Y9899387D1*
X1276883Y9916363D1*
X1265220Y9935403D1*
X1256673Y9956030D1*
X1251463Y9977740D1*
X1249710Y10000000D1*
X1251463Y10022260D1*
X1256673Y10043970D1*
X1265220Y10064597D1*
X1276883Y10083637D1*
X1291387Y10100613D1*
X1308363Y10115117D1*
X1327403Y10126780D1*
X1348030Y10135327D1*
X1369740Y10140537D1*
X1392000Y10142290D1*
X1414260Y10140537D1*
X1435970Y10135327D1*
X1456597Y10126780D1*
X1475637Y10115117D1*
X1492613Y10100613D1*
X1507117Y10083637D1*
X1518983Y10064163D1*
X1530883Y10083637D1*
X1545387Y10100613D1*
X1562363Y10115117D1*
X1581403Y10126780D1*
X1602030Y10135327D1*
X1623740Y10140537D1*
X1646000Y10142290D1*
X1668260Y10140537D1*
X1689970Y10135327D1*
X1710597Y10126780D1*
X1729637Y10115117D1*
X1746613Y10100613D1*
X1761117Y10083637D1*
X1772983Y10064163D1*
X1784883Y10083637D1*
X1799387Y10100613D1*
X1816363Y10115117D1*
X1835403Y10126780D1*
X1856030Y10135327D1*
X1877740Y10140537D1*
X1900000Y10142290D1*
X1922260Y10140537D1*
X1943970Y10135327D1*
X1964597Y10126780D1*
X1983637Y10115117D1*
X2000613Y10100613D1*
X2015117Y10083637D1*
X2026780Y10064597D1*
X2035327Y10043970D1*
X2040537Y10022260D1*
X2042053Y10006063D1*
X2133970Y9914223D1*
X3818767Y9914290D1*
X3804463Y9930590D1*
X3794780Y9946387D1*
X3787690Y9963507D1*
X3785123Y9972680D1*
X3512710Y9972710D1*
Y10000367D1*
X3278340Y10000210D1*
X3262740Y9996477D1*
X3243893Y9995243D1*
X3084897Y9995210D1*
X3070427Y9985073D1*
X3051583Y9975470D1*
X3031467Y9968933D1*
X3010577Y9965627D1*
X2989423D1*
X2968533Y9968933D1*
X2948417Y9975470D1*
X2929573Y9985073D1*
X2912460Y9997503D1*
X2897503Y10012460D1*
X2885073Y10029573D1*
X2875470Y10048417D1*
X2868933Y10068533D1*
X2865627Y10089423D1*
Y10110577D1*
X2868933Y10131467D1*
X2875470Y10151583D1*
X2885073Y10170427D1*
X2897503Y10187540D1*
X2912460Y10202497D1*
X2929573Y10214927D1*
X2949620Y10224973D1*
X2929573Y10235073D1*
X2912460Y10247503D1*
X2897503Y10262460D1*
X2885073Y10279573D1*
X2875470Y10298417D1*
X2868933Y10318533D1*
X2865627Y10339423D1*
Y10360577D1*
X2868933Y10381467D1*
X2875470Y10401583D1*
X2885073Y10420427D1*
X2897503Y10437540D1*
X2912460Y10452497D1*
X2929573Y10464927D1*
X2948417Y10474530D1*
X2968533Y10481067D1*
X2989423Y10484373D1*
X3010577D1*
X3031467Y10481067D1*
X3051583Y10474530D1*
X3070427Y10464927D1*
X3084650Y10454773D1*
X3338093Y10454467D1*
X3354333Y10451897D1*
X3369970Y10446813D1*
X3384623Y10439350D1*
X3397927Y10429683D1*
X3428260Y10399807D1*
X3512737Y10399790D1*
X3512710Y10427290D1*
X3544460D1*
X3079460Y5852290D2*
X3352290D1*
Y5547710D1*
X3047710D1*
Y5586777D1*
X3035513Y5576793D1*
X3015137Y5564310D1*
X2993060Y5555163D1*
X2969823Y5549583D1*
X2946000Y5547710D1*
X2922177Y5549583D1*
X2898940Y5555163D1*
X2876863Y5564310D1*
X2856487Y5576793D1*
X2838313Y5592313D1*
X2822793Y5610487D1*
X2810310Y5630863D1*
X2801163Y5652940D1*
X2795583Y5676177D1*
X2793710Y5700000D1*
X2795583Y5723823D1*
X2801163Y5747060D1*
X2810310Y5769137D1*
X2822793Y5789513D1*
X2838313Y5807687D1*
X2856487Y5823207D1*
X2876863Y5835690D1*
X2898940Y5844837D1*
X2922177Y5850417D1*
X2946000Y5852290D1*
X2969823Y5850417D1*
X2993060Y5844837D1*
X3015137Y5835690D1*
X3035513Y5823207D1*
X3047683Y5813233D1*
X3047710Y5852290D1*
X3079460D1*
X3649460Y1642290D2*
X3927487D1*
X3925093Y1658320D1*
Y1676853D1*
X3927993Y1695153D1*
X3933720Y1712777D1*
X3942133Y1729290D1*
X3953023Y1744280D1*
X3966127Y1757383D1*
X3981117Y1768273D1*
X3997630Y1776687D1*
X4015253Y1782413D1*
X4033553Y1785313D1*
X4052087D1*
X4070387Y1782413D1*
X4088010Y1776687D1*
X4104523Y1768273D1*
X4119513Y1757383D1*
X4127920Y1749360D1*
X4148487Y1748370D1*
X4166993Y1743150D1*
X4183770Y1733757D1*
X4203067Y1715883D1*
X4216170Y1701357D1*
X4225563Y1684580D1*
X4230783Y1666073D1*
X4231687Y1642290D1*
X4282290Y1642167D1*
X4318210Y1672250D1*
Y1722480D1*
X4299397Y1741340D1*
X4250613Y1741597D1*
X4231293Y1745440D1*
X4213407Y1753687D1*
X4197937Y1765880D1*
X4197363Y1766503D1*
X4082797Y1881390D1*
X4071853Y1897767D1*
X4065033Y1916247D1*
X4063290Y1927443D1*
X3504870Y1927517D1*
X3504613Y1818557D1*
X3500770Y1799237D1*
X3492523Y1781350D1*
X3480330Y1765880D1*
X3464860Y1753687D1*
X3446973Y1745440D1*
X3427653Y1741597D1*
X3135330Y1741340D1*
X1884610Y1741357D1*
X1870810Y1729593D1*
X1855013Y1719910D1*
X1837893Y1712820D1*
X1819873Y1708493D1*
X1801400Y1707040D1*
X1782927Y1708493D1*
X1764907Y1712820D1*
X1747787Y1719910D1*
X1731990Y1729593D1*
X1717897Y1741627D1*
X1705863Y1755720D1*
X1696180Y1771517D1*
X1689090Y1788637D1*
X1684763Y1806657D1*
X1683310Y1825130D1*
X1684763Y1843603D1*
X1689090Y1861623D1*
X1696180Y1878743D1*
X1705863Y1894540D1*
X1717897Y1908633D1*
X1731990Y1920667D1*
X1747787Y1930350D1*
X1764907Y1937440D1*
X1782927Y1941767D1*
X1801400Y1943220D1*
X1819873Y1941767D1*
X1837893Y1937440D1*
X1855013Y1930350D1*
X1870810Y1920667D1*
X1884610Y1908903D1*
X3337430Y1908920D1*
X3337330Y2012233D1*
X3311750Y2016210D1*
X1633093D1*
X1619410Y2004463D1*
X1603613Y1994780D1*
X1586493Y1987690D1*
X1568473Y1983363D1*
X1550000Y1981910D1*
X1531527Y1983363D1*
X1513507Y1987690D1*
X1496387Y1994780D1*
X1480590Y2004463D1*
X1466497Y2016497D1*
X1452310Y2033810D1*
X1452290Y1797710D1*
X1147710D1*
Y2102290D1*
X1186777D1*
X1176793Y2114487D1*
X1164310Y2134863D1*
X1155163Y2156940D1*
X1149583Y2180177D1*
X1147710Y2204000D1*
X1149583Y2227823D1*
X1155163Y2251060D1*
X1164310Y2273137D1*
X1176793Y2293513D1*
X1192313Y2311687D1*
X1210487Y2327207D1*
X1216040Y2330917D1*
X1201097Y2342197D1*
X1184197Y2359097D1*
X1170150Y2378430D1*
X1159303Y2399720D1*
X1151917Y2422450D1*
X1148180Y2446050D1*
Y2469950D1*
X1151917Y2493550D1*
X1159303Y2516280D1*
X1170150Y2537570D1*
X1184197Y2556903D1*
X1201097Y2573803D1*
X1216040Y2584917D1*
X1201097Y2596197D1*
X1184197Y2613097D1*
X1170150Y2632430D1*
X1159303Y2653720D1*
X1151917Y2676450D1*
X1148180Y2700050D1*
Y2723950D1*
X1151917Y2747550D1*
X1159303Y2770280D1*
X1170150Y2791570D1*
X1184197Y2810903D1*
X1201097Y2827803D1*
X1216040Y2838917D1*
X1201097Y2850197D1*
X1184197Y2867097D1*
X1170150Y2886430D1*
X1159303Y2907720D1*
X1151917Y2930450D1*
X1148180Y2954050D1*
Y2977950D1*
X1151917Y3001550D1*
X1159303Y3024280D1*
X1170150Y3045570D1*
X1184197Y3064903D1*
X1201097Y3081803D1*
X1216040Y3092917D1*
X1201097Y3104197D1*
X1184197Y3121097D1*
X1170150Y3140430D1*
X1159303Y3161720D1*
X1151917Y3184450D1*
X1148180Y3208050D1*
Y3231950D1*
X1151917Y3255550D1*
X1159303Y3278280D1*
X1170150Y3299570D1*
X1184197Y3318903D1*
X1201097Y3335803D1*
X1216040Y3346917D1*
X1199293Y3359760D1*
X1185827Y3373220D1*
X1174147Y3388250D1*
X1164430Y3404623D1*
X1156833Y3422080D1*
X1151473Y3440347D1*
X1148437Y3459140D1*
X1147767Y3478167D1*
X1149477Y3497127D1*
X1153537Y3515727D1*
X1159887Y3533673D1*
X1168427Y3550687D1*
X1179023Y3566503D1*
X1191510Y3580877D1*
X1205693Y3593577D1*
X1215960Y3601000D1*
X1201097Y3612197D1*
X1184197Y3629097D1*
X1170150Y3648430D1*
X1159303Y3669720D1*
X1151917Y3692450D1*
X1148180Y3716050D1*
Y3739950D1*
X1150943Y3758650D1*
X1097780Y3811723D1*
X1097750Y1097750D1*
X3233310D1*
X3202307Y1129050D1*
X3191623Y1145037D1*
X3184970Y1163077D1*
X3182710Y1182170D1*
X3182743Y1182997D1*
X3182710Y1509963D1*
X3168963Y1525770D1*
X3159280Y1541567D1*
X3152190Y1558687D1*
X3147863Y1576707D1*
X3146410Y1595180D1*
X3147863Y1613653D1*
X3152190Y1631673D1*
X3159280Y1648793D1*
X3168963Y1664590D1*
X3180997Y1678683D1*
X3195090Y1690717D1*
X3210887Y1700400D1*
X3228007Y1707490D1*
X3246027Y1711817D1*
X3264500Y1713270D1*
X3282973Y1711817D1*
X3300993Y1707490D1*
X3318113Y1700400D1*
X3333910Y1690717D1*
X3348003Y1678683D1*
X3360037Y1664590D1*
X3369720Y1648793D1*
X3376810Y1631673D1*
X3381137Y1613653D1*
X3382590Y1595180D1*
X3381137Y1576707D1*
X3376810Y1558687D1*
X3369720Y1541567D1*
X3360037Y1525770D1*
X3346273Y1510080D1*
X3346320Y1437290D1*
X3550713D1*
X3551180Y1489327D1*
X3554367Y1500620D1*
X3560100Y1510857D1*
X3567710Y1519127D1*
Y1642290D1*
X3926460D1*
X4941740Y1437290D2*
X5137290D1*
Y1200033D1*
X5212473Y1199960D1*
X5212397Y1231637D1*
X5200650Y1245483D1*
X5190967Y1261280D1*
X5183877Y1278400D1*
X5179550Y1296420D1*
X5178097Y1314893D1*
X5179550Y1333367D1*
X5183877Y1351387D1*
X5190967Y1368507D1*
X5200650Y1384303D1*
X5212683Y1398397D1*
X5226777Y1410430D1*
X5242573Y1420113D1*
X5259693Y1427203D1*
X5277713Y1431530D1*
X5296187Y1432983D1*
X5314660Y1431530D1*
X5332680Y1427203D1*
X5349800Y1420113D1*
X5365597Y1410430D1*
X5379690Y1398397D1*
X5391723Y1384303D1*
X5401407Y1368507D1*
X5408497Y1351387D1*
X5412823Y1333367D1*
X5414277Y1314893D1*
X5412823Y1296420D1*
X5408497Y1278400D1*
X5401407Y1261280D1*
X5391723Y1245483D1*
X5379960Y1231683D1*
X5379720Y1109597D1*
X5378750Y1102080D1*
X5384000Y1097750D1*
X6152250D1*
Y4835197D1*
X6141207Y4817487D1*
X6125687Y4799313D1*
X6107513Y4783793D1*
X6087137Y4771310D1*
X6065060Y4762163D1*
X6041823Y4756583D1*
X6018000Y4754710D1*
X5994177Y4756583D1*
X5970940Y4762163D1*
X5948863Y4771310D1*
X5928487Y4783793D1*
X5910313Y4799313D1*
X5894793Y4817487D1*
X5882310Y4837863D1*
X5873163Y4859940D1*
X5867583Y4883177D1*
X5865710Y4907000D1*
X5867583Y4930823D1*
X5873163Y4954060D1*
X5882310Y4976137D1*
X5894793Y4996513D1*
X5910313Y5014687D1*
X5928487Y5030207D1*
X5934040Y5033917D1*
X5919097Y5045197D1*
X5902197Y5062097D1*
X5888150Y5081430D1*
X5877303Y5102720D1*
X5869917Y5125450D1*
X5866180Y5149050D1*
Y5172950D1*
X5869917Y5196550D1*
X5877303Y5219280D1*
X5888150Y5240570D1*
X5902197Y5259903D1*
X5919097Y5276803D1*
X5934040Y5287917D1*
X5919097Y5299197D1*
X5902197Y5316097D1*
X5888150Y5335430D1*
X5877303Y5356720D1*
X5871377Y5374280D1*
X5487247Y4990050D1*
X5487290Y3946683D1*
X5594183Y3839423D1*
X5603847Y3826120D1*
X5611313Y3811467D1*
X5616393Y3795830D1*
X5618967Y3779590D1*
X5619290Y3600500D1*
X5618000Y3584107D1*
X5614160Y3568117D1*
X5607870Y3552927D1*
X5599277Y3538907D1*
X5588597Y3526403D1*
X5424910Y3363170D1*
X5411607Y3353507D1*
X5396953Y3346040D1*
X5381317Y3340960D1*
X5365077Y3338387D1*
X5198103Y3338063D1*
X5052127D1*
X5052227Y2769283D1*
X5269727Y2769230D1*
Y2731650D1*
X5394537Y2731730D1*
X5379850Y2751773D1*
X5369003Y2773063D1*
X5361617Y2795793D1*
X5357880Y2819393D1*
Y2843293D1*
X5361617Y2866893D1*
X5369003Y2889623D1*
X5379850Y2910913D1*
X5393897Y2930247D1*
X5396467Y2933027D1*
X5357410Y2933053D1*
Y3237633D1*
X5661990D1*
Y2933053D1*
X5622923D1*
X5632907Y2920857D1*
X5645390Y2900480D1*
X5654537Y2878403D1*
X5660117Y2855167D1*
X5661990Y2831343D1*
X5660117Y2807520D1*
X5654537Y2784283D1*
X5645390Y2762207D1*
X5632907Y2741830D1*
X5617387Y2723657D1*
X5614470Y2720963D1*
X5614167Y2618717D1*
X5611597Y2602477D1*
X5606513Y2586840D1*
X5599050Y2572187D1*
X5589383Y2558883D1*
X5577757Y2547257D1*
X5564453Y2537590D1*
X5549800Y2530127D1*
X5534163Y2525043D1*
X5517923Y2522473D1*
X5350950Y2522150D1*
X5269713D1*
X5269727Y2484650D1*
X5052313D1*
X5052227Y2401837D1*
X5216927Y2236753D1*
X5226593Y2223450D1*
X5234057Y2208797D1*
X5239140Y2193160D1*
X5241710Y2176920D1*
Y2160473D1*
X5239140Y2144233D1*
X5234057Y2128597D1*
X5226593Y2113943D1*
X5216927Y2100640D1*
X5205300Y2089013D1*
X5191997Y2079347D1*
X5177343Y2071883D1*
X5161707Y2066800D1*
X5144533Y2064193D1*
X5138067Y2063477D1*
X5120947Y2056387D1*
X5102927Y2052060D1*
X5084453Y2050607D1*
X5065980Y2052060D1*
X5047960Y2056387D1*
X5030840Y2063477D1*
X5015043Y2073160D1*
X5000950Y2085193D1*
X4988917Y2099287D1*
X4979233Y2115083D1*
X4972143Y2132203D1*
X4967817Y2150223D1*
X4966363Y2168697D1*
X4968277Y2189480D1*
X4945460Y2188330D1*
X4945203Y1455510D1*
X4942873Y1441557D1*
X1383960Y2330917D2*
X1402437Y2316537D1*
X1416497Y2333503D1*
X1430590Y2345537D1*
X1446387Y2355220D1*
X1463507Y2362310D1*
X1481527Y2366637D1*
X1500000Y2368090D1*
X1518473Y2366637D1*
X1536493Y2362310D1*
X1553613Y2355220D1*
X1569410Y2345537D1*
X1582997Y2333970D1*
X1581910Y2350000D1*
X1583363Y2368473D1*
X1587690Y2386493D1*
X1594780Y2403613D1*
X1604463Y2419410D1*
X1616497Y2433503D1*
X1630590Y2445537D1*
X1646387Y2455220D1*
X1663507Y2462310D1*
X1681527Y2466637D1*
X1700000Y2468090D1*
X1718473Y2466637D1*
X1736493Y2462310D1*
X1753613Y2455220D1*
X1769410Y2445537D1*
X1783210Y2433773D1*
X3429010Y2433790D1*
X3413507Y2437690D1*
X3396387Y2444780D1*
X3380590Y2454463D1*
X3366497Y2466497D1*
X3354463Y2480590D1*
X3344780Y2496387D1*
X3337690Y2513507D1*
X3333363Y2531527D1*
X3331910Y2550000D1*
X3333363Y2568473D1*
X3337690Y2586493D1*
X3344780Y2603613D1*
X3354463Y2619410D1*
X3366497Y2633503D1*
X3380590Y2645537D1*
X3396387Y2655220D1*
X3413507Y2662310D1*
X3431527Y2666637D1*
X3450000Y2668090D1*
X3468473Y2666637D1*
X3486493Y2662310D1*
X3503613Y2655220D1*
X3519410Y2645537D1*
X3533503Y2633503D1*
X3545537Y2619410D1*
X3555220Y2603613D1*
X3562310Y2586493D1*
X3566637Y2568473D1*
X3568073Y2550397D1*
X3584757Y2533740D1*
X4166770Y2533790D1*
X4180590Y2545537D1*
X4188207Y2550627D1*
X4175223Y2565347D1*
X4166630Y2579367D1*
X4160340Y2594557D1*
X4156500Y2610547D1*
X4155210Y2626940D1*
Y2657823D1*
X4127710Y2657710D1*
Y2942290D1*
X4366207D1*
X4366210Y2997817D1*
X4297710Y2997710D1*
Y3021647D1*
X4278197Y3009090D1*
X4261077Y3002000D1*
X4243057Y2997673D1*
X4224583Y2996220D1*
X4206110Y2997673D1*
X4188090Y3002000D1*
X4170970Y3009090D1*
X4155173Y3018773D1*
X4141373Y3030537D1*
X3466677Y3030520D1*
X3457113Y3019667D1*
X3443020Y3007633D1*
X3427223Y2997950D1*
X3410103Y2990860D1*
X3392083Y2986533D1*
X3373610Y2985080D1*
X3355137Y2986533D1*
X3337117Y2990860D1*
X3319997Y2997950D1*
X3304200Y3007633D1*
X3290107Y3019667D1*
X3278073Y3033760D1*
X3268390Y3049557D1*
X3261300Y3066677D1*
X3256973Y3084697D1*
X3255520Y3103170D1*
X3256973Y3121643D1*
X3261300Y3139663D1*
X3268390Y3156783D1*
X3278073Y3172580D1*
X3290107Y3186673D1*
X3304200Y3198707D1*
X3319997Y3208390D1*
X3337117Y3215480D1*
X3355137Y3219807D1*
X3373610Y3221260D1*
X3392083Y3219807D1*
X3410103Y3215480D1*
X3427223Y3208390D1*
X3443847Y3198057D1*
X4141417Y3198100D1*
X4155173Y3209847D1*
X4170970Y3219530D1*
X4188090Y3226620D1*
X4206110Y3230947D1*
X4224583Y3232400D1*
X4243057Y3230947D1*
X4261077Y3226620D1*
X4278197Y3219530D1*
X4293993Y3209847D1*
X4297720Y3206910D1*
X4297710Y3302290D1*
X4336777D1*
X4322927Y3320273D1*
X1871427Y3320467D1*
X1852107Y3324310D1*
X1834220Y3332557D1*
X1818750Y3344750D1*
X1818177Y3345373D1*
X1451387Y3712117D1*
X1448083Y3692450D1*
X1440697Y3669720D1*
X1429850Y3648430D1*
X1415803Y3629097D1*
X1398903Y3612197D1*
X1383960Y3601083D1*
X1403793Y3585440D1*
X1416887Y3571620D1*
X1428153Y3556273D1*
X1437417Y3539643D1*
X1444533Y3521983D1*
X1449390Y3503577D1*
X1451913Y3484707D1*
X1451760Y3461313D1*
X1448993Y3442480D1*
X1443897Y3424137D1*
X1436550Y3406573D1*
X1427070Y3390063D1*
X1415607Y3374867D1*
X1402333Y3361217D1*
X1384023Y3347023D1*
X1398903Y3335803D1*
X1415803Y3318903D1*
X1429850Y3299570D1*
X1440697Y3278280D1*
X1448083Y3255550D1*
X1451820Y3231950D1*
Y3208050D1*
X1448083Y3184450D1*
X1440697Y3161720D1*
X1429850Y3140430D1*
X1415803Y3121097D1*
X1398903Y3104197D1*
X1383960Y3093083D1*
X1398903Y3081803D1*
X1415803Y3064903D1*
X1429850Y3045570D1*
X1440697Y3024280D1*
X1448083Y3001550D1*
X1451820Y2977950D1*
Y2954050D1*
X1448083Y2930450D1*
X1440697Y2907720D1*
X1429850Y2886430D1*
X1415803Y2867097D1*
X1398903Y2850197D1*
X1383960Y2839083D1*
X1398903Y2827803D1*
X1415803Y2810903D1*
X1429850Y2791570D1*
X1440697Y2770280D1*
X1448083Y2747550D1*
X1451820Y2723950D1*
Y2700050D1*
X1448083Y2676450D1*
X1440697Y2653720D1*
X1429850Y2632430D1*
X1415803Y2613097D1*
X1398903Y2596197D1*
X1383960Y2585083D1*
X1398903Y2573803D1*
X1415803Y2556903D1*
X1429850Y2537570D1*
X1440697Y2516280D1*
X1448083Y2493550D1*
X1451820Y2469950D1*
Y2446050D1*
X1448083Y2422450D1*
X1440697Y2399720D1*
X1429850Y2378430D1*
X1415803Y2359097D1*
X1398903Y2342197D1*
X1383960Y2331083D1*
X1451820Y3970050D2*
X1449057Y3951350D1*
X1912710Y3487787D1*
X4322873Y3487790D1*
X4334197Y3502903D1*
X4347770Y3516727D1*
X2876407Y3516967D1*
X2857087Y3520810D1*
X2839200Y3529057D1*
X2823730Y3541250D1*
X2823157Y3541873D1*
X2212740Y4152243D1*
X1427063Y4152210D1*
X1415803Y4137097D1*
X1398903Y4120197D1*
X1383960Y4109083D1*
X1398903Y4097803D1*
X1415803Y4080903D1*
X1429850Y4061570D1*
X1440697Y4040280D1*
X1448083Y4017550D1*
X1451820Y3993950D1*
Y3970050D1*
X3987170Y6737290D2*
X3987290Y6472710D1*
X3961867D1*
X3963090Y6456200D1*
X3961637Y6437727D1*
X3957310Y6419707D1*
X3950220Y6402587D1*
X3940537Y6386790D1*
X3928503Y6372697D1*
X3914410Y6360663D1*
X3898613Y6350980D1*
X3881493Y6343890D1*
X3863473Y6339563D1*
X3845000Y6338110D1*
X3826527Y6339563D1*
X3808507Y6343890D1*
X3791387Y6350980D1*
X3775590Y6360663D1*
X3761497Y6372697D1*
X3749463Y6386790D1*
X3739780Y6402587D1*
X3732690Y6419707D1*
X3728363Y6437727D1*
X3726910Y6456200D1*
X3728130Y6472697D1*
X3702710Y6472710D1*
Y6695327D1*
X3440310Y6695280D1*
X3426600Y6683533D1*
X3410803Y6673850D1*
X3393683Y6666760D1*
X3375663Y6662433D1*
X3357190Y6660980D1*
X3338717Y6662433D1*
X3320697Y6666760D1*
X3303577Y6673850D1*
X3287780Y6683533D1*
X3273687Y6695567D1*
X3261653Y6709660D1*
X3251970Y6725457D1*
X3244880Y6742577D1*
X3240553Y6760597D1*
X3239100Y6779070D1*
X3240553Y6797543D1*
X3244880Y6815563D1*
X3251970Y6832683D1*
X3261653Y6848480D1*
X3273687Y6862573D1*
X3287780Y6874607D1*
X3303577Y6884290D1*
X3320697Y6891380D1*
X3338717Y6895707D1*
X3357190Y6897160D1*
X3375663Y6895707D1*
X3393683Y6891380D1*
X3410803Y6884290D1*
X3426600Y6874607D1*
X3440400Y6862843D1*
X3702597Y6862860D1*
X3702710Y6927290D1*
X3987290D1*
X3987167Y6662710D1*
X5713473Y10323897D2*
X5699217Y10297280D1*
X5686467Y10278197D1*
X5672260Y10260173D1*
X5656680Y10243320D1*
X5639827Y10227740D1*
X5621803Y10213533D1*
X5602720Y10200783D1*
X5582697Y10189567D1*
X5561853Y10179960D1*
X5540323Y10172017D1*
X5518233Y10165787D1*
X5495723Y10161310D1*
X5472933Y10158610D1*
X5450000Y10157710D1*
X5427067Y10158610D1*
X5404277Y10161310D1*
X5381767Y10165787D1*
X5359677Y10172017D1*
X5338147Y10179960D1*
X5317303Y10189567D1*
X5297280Y10200783D1*
X5278197Y10213533D1*
X5260173Y10227740D1*
X5243320Y10243320D1*
X5227740Y10260173D1*
X5213533Y10278197D1*
X5200783Y10297280D1*
X5189567Y10317303D1*
X5179960Y10338147D1*
X5172017Y10359677D1*
X5165787Y10381767D1*
X5161310Y10404277D1*
X5158610Y10427067D1*
X5157710Y10450000D1*
X5158610Y10472933D1*
X5161310Y10495723D1*
X5165787Y10518233D1*
X5172017Y10540323D1*
X5179960Y10561853D1*
X5189567Y10582697D1*
X5200783Y10602720D1*
X5213533Y10621803D1*
X5227740Y10639827D1*
X5243320Y10656680D1*
X5260173Y10672260D1*
X5278197Y10686467D1*
X5297280Y10699217D1*
X5317303Y10710433D1*
X5338147Y10720040D1*
X5359677Y10727983D1*
X5381767Y10734213D1*
X5404277Y10738690D1*
X5427067Y10741390D1*
X5450000Y10742290D1*
X5472933Y10741390D1*
X5495723Y10738690D1*
X5518233Y10734213D1*
X5540323Y10727983D1*
X5561853Y10720040D1*
X5582697Y10710433D1*
X5602720Y10699217D1*
X5621803Y10686467D1*
X5639827Y10672260D1*
X5656680Y10656680D1*
X5672260Y10639827D1*
X5686467Y10621803D1*
X5699217Y10602720D1*
X5713473Y10576103D1*
X5726613Y10588613D1*
X5749753Y10605427D1*
X5775240Y10618413D1*
X5802447Y10627253D1*
X5830697Y10631727D1*
X5859303D1*
X5887553Y10627253D1*
X5914760Y10618413D1*
X5940247Y10605427D1*
X5963387Y10588613D1*
X5983613Y10568387D1*
X6000427Y10545247D1*
X6013413Y10519760D1*
X6022253Y10492553D1*
X6026727Y10464303D1*
Y10435697D1*
X6022253Y10407447D1*
X6013413Y10380240D1*
X6000427Y10354753D1*
X5983613Y10331613D1*
X5963387Y10311387D1*
X5940247Y10294573D1*
X5914760Y10281587D1*
X5887553Y10272747D1*
X5859303Y10268273D1*
X5830697D1*
X5802447Y10272747D1*
X5775240Y10281587D1*
X5749753Y10294573D1*
X5726613Y10311387D1*
X5713633Y10323770D1*
X5386390Y9927067D2*
X5383690Y9904277D1*
X5379213Y9881767D1*
X5372983Y9859677D1*
X5365040Y9838147D1*
X5355433Y9817303D1*
X5344217Y9797280D1*
X5331467Y9778197D1*
X5317260Y9760173D1*
X5301680Y9743320D1*
X5284827Y9727740D1*
X5266803Y9713533D1*
X5247720Y9700783D1*
X5227697Y9689567D1*
X5206853Y9679960D1*
X5185323Y9672017D1*
X5163233Y9665787D1*
X5140723Y9661310D1*
X5117933Y9658610D1*
X5095000Y9657710D1*
X5072067Y9658610D1*
X5049277Y9661310D1*
X5026767Y9665787D1*
X5004677Y9672017D1*
X4983147Y9679960D1*
X4962303Y9689567D1*
X4942280Y9700783D1*
X4923197Y9713533D1*
X4905173Y9727740D1*
X4888320Y9743320D1*
X4872740Y9760173D1*
X4858533Y9778197D1*
X4845783Y9797280D1*
X4834567Y9817303D1*
X4824960Y9838147D1*
X4817017Y9859677D1*
X4810787Y9881767D1*
X4806310Y9904277D1*
X4803610Y9927067D1*
X4802710Y9950000D1*
X4803610Y9972933D1*
X4806310Y9995723D1*
X4810787Y10018233D1*
X4817017Y10040323D1*
X4824960Y10061853D1*
X4834567Y10082697D1*
X4845783Y10102720D1*
X4858533Y10121803D1*
X4872740Y10139827D1*
X4888320Y10156680D1*
X4905173Y10172260D1*
X4923197Y10186467D1*
X4942280Y10199217D1*
X4962303Y10210433D1*
X4983147Y10220040D1*
X5004677Y10227983D1*
X5026767Y10234213D1*
X5049277Y10238690D1*
X5072067Y10241390D1*
X5095000Y10242290D1*
X5117933Y10241390D1*
X5140723Y10238690D1*
X5163233Y10234213D1*
X5185323Y10227983D1*
X5206853Y10220040D1*
X5227697Y10210433D1*
X5247720Y10199217D1*
X5266803Y10186467D1*
X5284827Y10172260D1*
X5301680Y10156680D1*
X5317260Y10139827D1*
X5331467Y10121803D1*
X5344217Y10102720D1*
X5355433Y10082697D1*
X5365040Y10061853D1*
X5372983Y10040323D1*
X5379213Y10018233D1*
X5383690Y9995723D1*
X5386390Y9972933D1*
X5387290Y9950000D1*
X5386390Y9927067D1*
X3434650Y8945227D2*
X3420427Y8935073D1*
X3400380Y8925027D1*
X3416607Y8917183D1*
X3432450Y8906633D1*
X3446647Y8893957D1*
X3458917Y8879407D1*
X3469017Y8863270D1*
X3476743Y8845877D1*
X3481940Y8827563D1*
X3484510Y8808703D1*
X3484193Y8787320D1*
X3481067Y8768543D1*
X3475330Y8750393D1*
X3467093Y8733233D1*
X3456520Y8717407D1*
X3443823Y8703227D1*
X3429257Y8690973D1*
X3413110Y8680897D1*
X3395703Y8673193D1*
X3377387Y8668020D1*
X3358523Y8665480D1*
X3339487Y8665620D1*
X3320663Y8668440D1*
X3302427Y8673887D1*
X3285133Y8681843D1*
X3269137Y8692160D1*
X3254753Y8704623D1*
X3242270Y8718993D1*
X3231933Y8734973D1*
X3223950Y8752253D1*
X3218480Y8770487D1*
X3215633Y8789307D1*
X3215467Y8808340D1*
X3217983Y8827207D1*
X3223133Y8845530D1*
X3230810Y8862947D1*
X3240867Y8879110D1*
X3253097Y8893693D1*
X3267263Y8906410D1*
X3283077Y8917003D1*
X3299607Y8925000D1*
X3279573Y8935073D1*
X3262460Y8947503D1*
X3251517Y8958120D1*
X3233770Y8970317D1*
X3200453Y9003177D1*
X2767203Y9003210D1*
X2752153Y8988397D1*
X2742793Y8981020D1*
X2760407Y8966030D1*
X2776983Y8946820D1*
X2790253Y8925197D1*
X2799877Y8901717D1*
X2805600Y8877000D1*
X2807290Y8854000D1*
X2805243Y8828710D1*
X2799157Y8804080D1*
X2789190Y8780747D1*
X2775600Y8759320D1*
X2773993Y8757273D1*
X2807290Y8757290D1*
Y8442710D1*
X2492710D1*
Y8757290D1*
X2526073D1*
X2513303Y8776193D1*
X2502570Y8799183D1*
X2495677Y8823600D1*
X2492797Y8848810D1*
X2494007Y8874153D1*
X2499277Y8898973D1*
X2508467Y8922620D1*
X2521343Y8944483D1*
X2537567Y8963993D1*
X2556713Y8980640D1*
X2538780Y8996780D1*
X2522750Y9015547D1*
X2509853Y9036593D1*
X2500407Y9059393D1*
X2494647Y9083393D1*
X2492710Y9108000D1*
X2494647Y9132607D1*
X2500407Y9156607D1*
X2509853Y9179407D1*
X2522750Y9200453D1*
X2538780Y9219220D1*
X2557547Y9235250D1*
X2578593Y9248147D1*
X2601393Y9257593D1*
X2625393Y9263353D1*
X2650000Y9265290D1*
X2674607Y9263353D1*
X2698607Y9257593D1*
X2721407Y9248147D1*
X2742453Y9235250D1*
X2761220Y9219220D1*
X2767213Y9212737D1*
X3252050Y9212467D1*
X3268290Y9209893D1*
X3283927Y9204813D1*
X3298580Y9197347D1*
X3311883Y9187683D1*
X3318890Y9181133D1*
X3339423Y9184373D1*
X3360577D1*
X3381467Y9181067D1*
X3401583Y9174530D1*
X3420427Y9164927D1*
X3428437Y9159577D1*
X3456943Y9187683D1*
X3470247Y9197347D1*
X3484900Y9204813D1*
X3500537Y9209893D1*
X3516777Y9212467D1*
X3683750Y9212790D1*
X3926593Y9213400D1*
X3944600Y9231407D1*
X3965203Y9246373D1*
X3987893Y9257937D1*
X4012113Y9265807D1*
X4037267Y9269790D1*
X4062733D1*
X4087887Y9265807D1*
X4112107Y9257937D1*
X4134797Y9246373D1*
X4155400Y9231407D1*
X4173930Y9212733D1*
X4752400Y9212770D1*
X4752303Y9265270D1*
X5066883D1*
Y8950690D1*
X5033520D1*
X5043650Y8936257D1*
X5055133Y8913630D1*
X5062830Y8889453D1*
X5066540Y8864353D1*
X5066370Y8841293D1*
X5062290Y8816250D1*
X5054240Y8792190D1*
X5042423Y8769737D1*
X5027150Y8749477D1*
X5008817Y8731937D1*
X5002380Y8727003D1*
X5020813Y8711200D1*
X5036843Y8692433D1*
X5049740Y8671387D1*
X5059187Y8648587D1*
X5064947Y8624587D1*
X5066883Y8599980D1*
X5064947Y8575373D1*
X5059187Y8551373D1*
X5049740Y8528573D1*
X5036843Y8507527D1*
X5020813Y8488760D1*
X5002047Y8472730D1*
X4981000Y8459833D1*
X4958200Y8450387D1*
X4934200Y8444627D1*
X4909593Y8442690D1*
X4884987Y8444627D1*
X4860987Y8450387D1*
X4838187Y8459833D1*
X4817140Y8472730D1*
X4798373Y8488760D1*
X4782343Y8507527D1*
X4769447Y8528573D1*
X4760000Y8551373D1*
X4754240Y8575373D1*
X4752303Y8599980D1*
X4754240Y8624587D1*
X4760000Y8648587D1*
X4769447Y8671387D1*
X4782343Y8692433D1*
X4798373Y8711200D1*
X4816800Y8726960D1*
X4800013Y8741140D1*
X4783297Y8760227D1*
X4769867Y8781753D1*
X4760073Y8805160D1*
X4754167Y8829833D1*
X4752307Y8855140D1*
X4754540Y8880413D1*
X4760807Y8905000D1*
X4770947Y8928257D1*
X4784693Y8949583D1*
X4785573Y8950690D1*
X4752303D1*
Y9003150D1*
X4173937Y9003210D1*
X4155400Y8984593D1*
X4150903Y8981050D1*
X4164757Y8968757D1*
X4181297Y8949393D1*
X4194600Y8927677D1*
X4204347Y8904150D1*
X4210293Y8879387D1*
X4212290Y8854000D1*
X4210293Y8828613D1*
X4204347Y8803850D1*
X4194600Y8780323D1*
X4183757Y8762293D1*
X4212290Y8762290D1*
Y8437710D1*
X4134280D1*
X4124097Y8425903D1*
X3537310Y7839117D1*
X3537290Y7612710D1*
X3162710D1*
Y7634660D1*
X2843790Y7315740D1*
X2843750Y6742337D1*
X3042290Y6742290D1*
Y6457710D1*
X2757710D1*
Y6495290D1*
X2730737Y6495533D1*
X2714497Y6498107D1*
X2698860Y6503187D1*
X2684207Y6510650D1*
X2670903Y6520317D1*
X2659277Y6531943D1*
X2649610Y6545247D1*
X2642147Y6559900D1*
X2637067Y6575537D1*
X2634493Y6591777D1*
X2634170Y6758750D1*
X2634493Y7367330D1*
X2637067Y7383570D1*
X2642147Y7399207D1*
X2649610Y7413860D1*
X2659277Y7427163D1*
X2777117Y7545457D1*
X3111797Y7879683D1*
X3125100Y7889350D1*
X3139753Y7896813D1*
X3156303Y7902077D1*
X3162710Y7930210D1*
Y7987290D1*
X3389053D1*
X3454543Y8052737D1*
X3162710Y8052710D1*
Y8427290D1*
X3537290D1*
Y8135463D1*
X3887770Y8485967D1*
X3887710Y8762290D1*
X3916113D1*
X3905400Y8780323D1*
X3895653Y8803850D1*
X3889707Y8828613D1*
X3887710Y8854000D1*
X3889707Y8879387D1*
X3895653Y8904150D1*
X3905400Y8927677D1*
X3918703Y8949393D1*
X3935243Y8968757D1*
X3949097Y8980950D1*
X3935243Y8993243D1*
X3926070Y9003267D1*
X3568417Y9003210D1*
X3535057Y8970317D1*
X3521753Y8960653D1*
X3507100Y8953187D1*
X3491463Y8948107D1*
X3475223Y8945533D1*
X3434877Y8945210D1*
X5049973Y7624620D2*
X5039927Y7604573D1*
X5027497Y7587460D1*
X5012540Y7572503D1*
X4995427Y7560073D1*
X4976583Y7550470D1*
X4956467Y7543933D1*
X4935577Y7540627D1*
X4914423D1*
X4893533Y7543933D1*
X4873417Y7550470D1*
X4854573Y7560073D1*
X4837460Y7572503D1*
X4822503Y7587460D1*
X4810073Y7604573D1*
X4800470Y7623417D1*
X4793933Y7643533D1*
X4790627Y7664423D1*
Y7685577D1*
X4793933Y7706467D1*
X4800470Y7726583D1*
X4810073Y7745427D1*
X4822503Y7762540D1*
X4837460Y7777497D1*
X4854573Y7789927D1*
X4873417Y7799530D1*
X4893533Y7806067D1*
X4914423Y7809373D1*
X4935577D1*
X4956467Y7806067D1*
X4976583Y7799530D1*
X4995427Y7789927D1*
X5012540Y7777497D1*
X5027497Y7762540D1*
X5039927Y7745427D1*
X5049973Y7725380D1*
X5058907Y7743490D1*
X5069713Y7759160D1*
X5082617Y7773153D1*
X5097363Y7785187D1*
X5113660Y7795023D1*
X5131177Y7802467D1*
X5149570Y7807370D1*
X5168470Y7809633D1*
X5187500Y7809210D1*
X5206280Y7806110D1*
X5224437Y7800397D1*
X5241607Y7792183D1*
X5257450Y7781633D1*
X5271647Y7768957D1*
X5283917Y7754407D1*
X5294017Y7738270D1*
X5301743Y7720877D1*
X5306940Y7702563D1*
X5309510Y7683703D1*
X5309193Y7662320D1*
X5306067Y7643543D1*
X5300330Y7625393D1*
X5292093Y7608233D1*
X5281520Y7592407D1*
X5268823Y7578227D1*
X5254257Y7565973D1*
X5238110Y7555897D1*
X5220703Y7548193D1*
X5202387Y7543020D1*
X5183523Y7540480D1*
X5164487Y7540620D1*
X5145663Y7543440D1*
X5127427Y7548887D1*
X5110133Y7556843D1*
X5094137Y7567160D1*
X5079753Y7579623D1*
X5067270Y7593993D1*
X5056933Y7609973D1*
X5050023Y7624610D1*
X1339460Y8992290D2*
X1592290D1*
Y8707710D1*
X1307710D1*
Y8992290D1*
X1339460D1*
X2091850Y8838837D2*
X2088360Y8816783D1*
X2081460Y8795547D1*
X2071323Y8775653D1*
X2058197Y8757590D1*
X2042410Y8741803D1*
X2024347Y8728677D1*
X2004453Y8718540D1*
X1983217Y8711640D1*
X1961163Y8708150D1*
X1938837D1*
X1916783Y8711640D1*
X1895547Y8718540D1*
X1875653Y8728677D1*
X1857590Y8741803D1*
X1841803Y8757590D1*
X1828677Y8775653D1*
X1818540Y8795547D1*
X1811640Y8816783D1*
X1808150Y8838837D1*
Y8861163D1*
X1811640Y8883217D1*
X1818540Y8904453D1*
X1828677Y8924347D1*
X1841803Y8942410D1*
X1857590Y8958197D1*
X1875653Y8971323D1*
X1895547Y8981460D1*
X1916783Y8988360D1*
X1938837Y8991850D1*
X1961163D1*
X1983217Y8988360D1*
X2004453Y8981460D1*
X2024347Y8971323D1*
X2042410Y8958197D1*
X2058197Y8942410D1*
X2071323Y8924347D1*
X2081460Y8904453D1*
X2088360Y8883217D1*
X2091850Y8861163D1*
Y8838837D1*
X2542147Y6593653D2*
X2540030Y6574733D1*
X2535403Y6556270D1*
X2528353Y6538587D1*
X2519007Y6522003D1*
X2507533Y6506817D1*
X2494130Y6493297D1*
X2479047Y6481687D1*
X2462547Y6472193D1*
X2444927Y6464990D1*
X2426503Y6460200D1*
X2407603Y6457913D1*
X2388570Y6458170D1*
X2369740Y6460963D1*
X2351453Y6466247D1*
X2334033Y6473923D1*
X2317797Y6483857D1*
X2303030Y6495870D1*
X2289997Y6509747D1*
X2278933Y6525237D1*
X2270037Y6542067D1*
X2263467Y6559933D1*
X2259340Y6578517D1*
X2257733Y6597483D1*
X2258670Y6616497D1*
X2262137Y6635213D1*
X2268070Y6653300D1*
X2276367Y6670433D1*
X2286873Y6686307D1*
X2299407Y6700633D1*
X2313740Y6713160D1*
X2329617Y6723663D1*
X2346753Y6731950D1*
X2364843Y6737877D1*
X2383560Y6741337D1*
X2402573Y6742267D1*
X2421540Y6740650D1*
X2440123Y6736517D1*
X2457987Y6729940D1*
X2474810Y6721037D1*
X2490297Y6709967D1*
X2504170Y6696930D1*
X2516173Y6682157D1*
X2526103Y6665917D1*
X2533773Y6648493D1*
X2539047Y6630203D1*
X2541833Y6611373D1*
X2542147Y6593653D1*
X2031677Y10497637D2*
X2028433Y10477167D1*
X2022030Y10457453D1*
X2012620Y10438987D1*
X2000437Y10422220D1*
X1985780Y10407563D1*
X1969013Y10395380D1*
X1950547Y10385970D1*
X1930833Y10379567D1*
X1910363Y10376323D1*
X1889637D1*
X1869167Y10379567D1*
X1849453Y10385970D1*
X1830987Y10395380D1*
X1814220Y10407563D1*
X1799563Y10422220D1*
X1787380Y10438987D1*
X1777970Y10457453D1*
X1771567Y10477167D1*
X1768323Y10497637D1*
Y10518363D1*
X1771567Y10538833D1*
X1777970Y10558547D1*
X1787380Y10577013D1*
X1799563Y10593780D1*
X1814220Y10608437D1*
X1830987Y10620620D1*
X1849453Y10630030D1*
X1869167Y10636433D1*
X1889637Y10639677D1*
X1910363D1*
X1930833Y10636433D1*
X1950547Y10630030D1*
X1969013Y10620620D1*
X1985780Y10608437D1*
X2000437Y10593780D1*
X2012620Y10577013D1*
X2022030Y10558547D1*
X2028433Y10538833D1*
X2031677Y10518363D1*
Y10497637D1*
X1523677D2*
X1520433Y10477167D1*
X1514030Y10457453D1*
X1504620Y10438987D1*
X1492437Y10422220D1*
X1477780Y10407563D1*
X1461013Y10395380D1*
X1442547Y10385970D1*
X1422833Y10379567D1*
X1402363Y10376323D1*
X1381637D1*
X1361167Y10379567D1*
X1341453Y10385970D1*
X1322987Y10395380D1*
X1306220Y10407563D1*
X1291563Y10422220D1*
X1279380Y10438987D1*
X1269970Y10457453D1*
X1263567Y10477167D1*
X1260323Y10497637D1*
Y10518363D1*
X1263567Y10538833D1*
X1269970Y10558547D1*
X1279380Y10577013D1*
X1291563Y10593780D1*
X1306220Y10608437D1*
X1322987Y10620620D1*
X1341453Y10630030D1*
X1361167Y10636433D1*
X1381637Y10639677D1*
X1402363D1*
X1422833Y10636433D1*
X1442547Y10630030D1*
X1461013Y10620620D1*
X1477780Y10608437D1*
X1492437Y10593780D1*
X1504620Y10577013D1*
X1514030Y10558547D1*
X1520433Y10538833D1*
X1523677Y10518363D1*
Y10497637D1*
X4468213Y1836363D2*
X4454810Y1840900D1*
X4438297Y1849313D1*
X4423307Y1860203D1*
X4410203Y1873307D1*
X4399313Y1888297D1*
X4390900Y1904810D1*
X4385173Y1922433D1*
X4382273Y1940733D1*
Y1959267D1*
X4385173Y1977567D1*
X4390900Y1995190D1*
X4399313Y2011703D1*
X4402350Y2016250D1*
X4230143Y2016210D1*
X4230300Y1970430D1*
X4291967Y1908847D1*
X4340573Y1908663D1*
X4359893Y1904820D1*
X4377780Y1896573D1*
X4393250Y1884380D1*
X4393823Y1883757D1*
X4463713Y1813547D1*
X4468230Y1807717D1*
X4468210Y1836333D1*
X6001527Y8475833D2*
X5998627Y8457533D1*
X5992900Y8439910D1*
X5984487Y8423397D1*
X5973597Y8408407D1*
X5960493Y8395303D1*
X5945503Y8384413D1*
X5928990Y8376000D1*
X5911367Y8370273D1*
X5893067Y8367373D1*
X5883763Y8367010D1*
X5883533Y8053227D1*
X5879690Y8033907D1*
X5871443Y8016020D1*
X5867290Y8009000D1*
X5865837Y7990527D1*
X5861510Y7972507D1*
X5854420Y7955387D1*
X5844737Y7939590D1*
X5832703Y7925497D1*
X5818610Y7913463D1*
X5802813Y7903780D1*
X5785693Y7896690D1*
X5767673Y7892363D1*
X5749200Y7890910D1*
X5730727Y7892363D1*
X5712707Y7896690D1*
X5695587Y7903780D1*
X5679790Y7913463D1*
X5665697Y7925497D1*
X5653663Y7939590D1*
X5643980Y7955387D1*
X5636890Y7972507D1*
X5632563Y7990527D1*
X5631110Y8009000D1*
X5632563Y8027473D1*
X5636890Y8045493D1*
X5643980Y8062613D1*
X5653663Y8078410D1*
X5665697Y8092503D1*
X5679790Y8104537D1*
X5695587Y8114220D1*
X5716230Y8122303D1*
X5716467Y8491673D1*
X5720310Y8510993D1*
X5728557Y8528880D1*
X5740750Y8544350D1*
X5756220Y8556543D1*
X5774107Y8564790D1*
X5793427Y8568633D1*
X5800620Y8568890D1*
X5814390Y8580637D1*
X5830187Y8590320D1*
X5847307Y8597410D1*
X5865327Y8601737D1*
X5883800Y8603190D1*
X5902273Y8601737D1*
X5920293Y8597410D1*
X5937413Y8590320D1*
X5953210Y8580637D1*
X5967303Y8568603D1*
X5979337Y8554510D1*
X5989020Y8538713D1*
X5996110Y8521593D1*
X6000437Y8503573D1*
X6001890Y8485100D1*
X6001527Y8475833D1*
X2957833Y5140000D2*
D14*
X3242167D1*
X3557833D2*
X3842167D1*
X4077833Y4250000D2*
X4210000D1*
X4507833Y6100000D2*
X4792167D1*
X1147833Y3474000D2*
X1452167D1*
X4957833Y5190000D2*
X5242167D1*
X3747833Y5700000D2*
X4152167D1*
X3215333Y8800000D2*
X3484667D1*
X2492833Y8854000D2*
X2807167D1*
X4752427Y8853980D2*
X5066760D1*
X5175000Y7675000D2*
X5309667D1*
X4570333Y5670000D2*
X4670000D1*
X3162833Y8240000D2*
X3537167D1*
X2257833Y6600000D2*
X2542167D1*
X5865833Y5923000D2*
X6018000D1*
X5897833Y7642000D2*
X6050000D1*
X5897833Y8842000D2*
X6050000D1*
D17*
X1282000Y4907000D3*
D18*
Y5161000D3*
Y5415000D3*
Y5669000D3*
Y5923000D3*
Y6177000D3*
Y6431000D3*
Y6685000D3*
Y6939000D3*
Y7193000D3*
D19*
X3100000Y4950000D3*
Y5140000D3*
X3700000Y4950000D3*
Y5140000D3*
X4650000Y6650000D3*
Y6840000D3*
X3655000Y10295000D3*
Y10105000D3*
D20*
X4400000Y4250000D3*
X4210000D3*
D19*
X4650000Y6290000D3*
Y6100000D3*
D17*
X3200000Y5700000D3*
D18*
X2946000D3*
D21*
X4800000Y1450000D3*
X4750000D3*
X4700000D3*
X4650000D3*
X4600000D3*
X4550000D3*
X4500000D3*
X4450000D3*
X4400000D3*
X4350000D3*
X4300000D3*
X4250000D3*
X4200000D3*
X4150000D3*
X4100000D3*
X4050000D3*
X4000000D3*
X3950000D3*
X3900000D3*
X3850000D3*
X3800000D3*
X3750000D3*
X3700000D3*
X3650000D3*
D22*
X4970000Y1270000D3*
X3480000D3*
D17*
X1300000Y1950000D3*
D18*
Y2204000D3*
Y2458000D3*
Y2712000D3*
Y2966000D3*
Y3220000D3*
Y3474000D3*
Y3728000D3*
Y3982000D3*
Y4236000D3*
D20*
X3250000Y4250000D3*
X3440000D3*
D19*
X3845000Y6605000D3*
Y6795000D3*
X5100000Y5190000D3*
Y5000000D3*
D23*
X5450000Y10450000D3*
X5095000Y9950000D3*
X4790000Y10450000D3*
D24*
X3950000Y5700000D3*
Y5980000D3*
D25*
X3350000Y9050000D3*
Y8800000D3*
X3000000Y10350000D3*
Y10100000D3*
D26*
X2650000Y8600000D3*
D27*
Y9108000D3*
Y8854000D3*
D26*
X4909593Y9107980D3*
D27*
Y8599980D3*
Y8853980D3*
D25*
X4925000Y7675000D3*
X5175000D3*
D29*
X4860000Y5670000D3*
X4670000D3*
X4765000Y5440000D3*
D30*
X1450000Y8850000D3*
D31*
X1950000D3*
D33*
X3350000Y7800000D3*
Y8240000D3*
D30*
X2900000Y6600000D3*
D31*
X2400000D3*
D34*
X1900000Y10000000D3*
X1646000D3*
X1392000D3*
D35*
X4050000Y8600000D3*
D36*
Y8854000D3*
Y9108000D3*
D24*
X4200000Y10380000D3*
Y10100000D3*
D17*
X6018000Y7193000D3*
D18*
Y6939000D3*
Y6685000D3*
Y6431000D3*
Y6177000D3*
Y5923000D3*
Y5669000D3*
Y5415000D3*
Y5161000D3*
Y4907000D3*
D17*
X6050000Y8150000D3*
D18*
Y7896000D3*
Y7642000D3*
D17*
Y9350000D3*
D18*
Y9096000D3*
Y8842000D3*
D20*
X5137437Y2626940D3*
X4947437D3*
X4450000Y2800000D3*
X4260000D3*
D17*
X4450000Y3150000D3*
D18*
Y3404000D3*
D17*
X5509700Y3085343D3*
D18*
Y2831343D3*
M02*
