G04 DipTrace 3.0.0.2*
G04 Top.gbr*
%MOMM*%
G04 #@! TF.FileFunction,Copper,L1,Top*
G04 #@! TF.Part,Single*
G04 #@! TA.AperFunction,Conductor*
%ADD10C,0.25*%
%ADD13C,0.29*%
G04 #@! TA.AperFunction,CopperBalancing*
%ADD14C,0.33*%
G04 #@! TA.AperFunction,Conductor*
%ADD15C,0.75*%
G04 #@! TA.AperFunction,CopperBalancing*
%ADD16C,0.635*%
%ADD17R,1.5X1.3*%
%ADD18R,1.3X1.5*%
G04 #@! TA.AperFunction,ComponentPad*
%ADD19R,1.7X1.7*%
%ADD20C,1.7*%
%ADD21C,4.5*%
%ADD22R,2.7X1.6*%
G04 #@! TA.AperFunction,ComponentPad*
%ADD23C,1.35*%
%ADD24R,1.8X1.8*%
%ADD25C,1.8*%
%ADD27R,0.65X1.05*%
%ADD28R,0.3X2.5*%
%ADD29R,2.0X2.0*%
G04 #@! TA.AperFunction,ComponentPad*
%ADD30R,1.5X1.5*%
%ADD31C,1.5*%
%ADD33R,2.4X2.4*%
G04 #@! TA.AperFunction,ComponentPad*
%ADD34C,1.5*%
%ADD35R,1.9X1.9*%
%ADD36C,1.9*%
G04 #@! TA.AperFunction,ViaPad*
%ADD37C,1.016*%
%FSLAX35Y35*%
G04*
G71*
G90*
G75*
G01*
G04 Top*
%LPD*%
X4200000Y1234897D2*
D13*
Y1450000D1*
X3440000Y4250000D2*
D14*
X3723400D1*
X3700000Y4950000D2*
X3863000D1*
X4169000Y5256000D1*
X4794000D1*
X4860000Y5322000D1*
Y5670000D1*
X3723400Y4250000D2*
Y4350300D1*
X3700000Y4373700D1*
Y4950000D1*
X6018000Y5669000D2*
D15*
X5382500Y5033500D1*
Y3903367D1*
X5514500Y3771367D1*
Y3600500D1*
X5356853Y3442853D1*
X4947437D1*
Y2626940D1*
X3100000Y4950000D2*
D14*
X3050000D1*
D15*
X3250000Y4750000D1*
Y4250000D1*
X4947437Y2626940D2*
X4260000D1*
Y2800000D1*
X3250000Y4250000D2*
Y3956980D1*
X3303613Y3903367D1*
X5382500D1*
X4150000Y1450000D2*
D13*
Y1653280D1*
X4135693Y1667587D1*
X4042820D1*
X5084453Y2168697D2*
D15*
X5137243D1*
X4947437Y2358503D1*
Y2626940D1*
X2650000Y9108000D2*
X3243827D1*
X3301827Y9050000D1*
X3350000D1*
X4874747Y6643407D2*
X4650000D1*
Y6650000D1*
X4050000Y9108000D2*
X4372497D1*
X4372517Y9107980D1*
X4909593D1*
X3350000Y9050000D2*
X3467000D1*
X3525000Y9108000D1*
X4050000D1*
X4650000Y6650000D2*
Y6290000D1*
X1474347Y4631863D2*
X1982483Y5140000D1*
X2387151D1*
X3100000D1*
X5042000Y6100000D2*
X4650000D1*
X4250000Y1730217D2*
D14*
X4229037D1*
X4086513Y1872740D1*
X3896720D1*
X3646480Y1622500D1*
D10*
Y1450000D1*
X3650000D1*
X3350000Y8800000D2*
D15*
X3207510D1*
X3153510Y8854000D1*
X2650000D1*
X3350000Y8240000D2*
Y8452510D1*
X4909593Y8853980D2*
Y8822907D1*
X4956500Y8776000D1*
X5175000D1*
Y7675000D1*
X4670000Y5670000D2*
X4510820D1*
Y5857630D1*
X4650000D1*
X4948370D1*
X5100000Y5706000D1*
Y5190000D1*
X4054820Y4250000D2*
D14*
X4210000D1*
X5100000Y5190000D2*
X4352640D1*
X4286630Y5123990D1*
Y4700667D1*
X4054820Y4468857D1*
Y4250000D1*
X5100000Y5706000D2*
D15*
X5175000Y5781000D1*
Y5923000D1*
X6018000D1*
X3950000Y5700000D2*
Y5670000D1*
X4670000D1*
X3700000Y5140000D2*
X3640000D1*
X3950000Y5450000D1*
Y5700000D1*
X3100000Y5140000D2*
X3700000D1*
X4650000Y6100000D2*
Y5857630D1*
X4300000Y1950000D2*
D14*
X4350000D1*
D13*
X4500000Y1800000D1*
Y1450000D1*
X5175000Y7675000D2*
D15*
X5560990D1*
X5593990Y7642000D1*
X6050000D1*
X5175000Y8776000D2*
X5241000Y8842000D1*
X6050000D1*
X3608430Y8304720D2*
Y8289360D1*
X4261647D1*
X4826267Y8853980D1*
X4909593D1*
X3350000Y8452510D2*
X3608430D1*
Y8304720D1*
X4250000Y1450000D2*
D13*
Y1730217D1*
X2387151Y5100360D2*
D15*
Y5140000D1*
X4650000Y6840000D2*
X4250000D1*
Y6850000D1*
X3000000Y10100000D2*
X3246500D1*
X3251500Y10105000D1*
X3655000D1*
X4250000Y6850000D2*
Y5980000D1*
X3950000D1*
X3000000Y10350000D2*
X3329870D1*
X3384870Y10295000D1*
X3655000D1*
X4200000Y10380000D2*
X4418800D1*
X3655000Y10295000D2*
X3779500D1*
X3864500Y10380000D1*
X4200000D1*
X1801400Y1825130D2*
D14*
X3421080D1*
Y2011233D1*
X4146510D1*
Y1935807D1*
X4257187Y1825130D1*
X4334000D1*
X4400000Y1759130D1*
D13*
Y1450000D1*
X3978507Y1195513D2*
D14*
X4033057Y1140963D1*
X4308797D1*
X4350000Y1182167D1*
D13*
Y1450000D1*
X4600000Y1200000D2*
Y1450000D1*
X4550000D2*
Y1900000D1*
D14*
X4500000Y1950000D1*
X1282000Y7193000D2*
X1325000Y7150000D1*
X1800000D1*
X2150000Y6800000D1*
Y6250000D1*
X3450000Y2550000D2*
X3550000Y2450000D1*
X4250000D1*
X1700000Y2350000D2*
X4700000D1*
X4861670Y2188330D1*
Y1462083D1*
X4849587Y1450000D1*
D13*
X4800000D1*
X1500000Y2250000D2*
D14*
X4600000D1*
X4750000Y2100000D1*
Y1721140D1*
D13*
Y1450000D1*
X2441563Y5773297D2*
D14*
X2164860Y6050000D1*
X1550000D1*
X3373610Y3103170D2*
X3384750Y3114310D1*
X4224583D1*
X5296187Y1314893D2*
Y1116170D1*
X4833830D1*
X4700000Y1250000D1*
D13*
Y1450000D1*
X1550000Y2100000D2*
D14*
X4550000D1*
X4650000Y2000000D1*
D13*
Y1450000D1*
X3357190Y6779070D2*
D14*
X3845000D1*
Y6795000D1*
Y6456200D2*
Y6605000D1*
X3264500Y1595180D2*
D13*
Y1182170D1*
X3330500Y1116170D1*
X3634000D1*
X3700000Y1182170D1*
Y1450000D1*
X2900000Y6600000D2*
D15*
X2738960D1*
Y7359107D1*
X3179853Y7800000D1*
X3350000D1*
X4400000Y4250000D2*
D14*
X4550300D1*
X3600000Y4050000D2*
X4550000D1*
X4550300Y4250000D2*
Y4934000D1*
X4616300Y5000000D1*
X5100000D1*
X5319200Y3730510D2*
X5189190Y3600500D1*
X2882980D1*
X2247480Y4236000D1*
X1300000D1*
X4450000Y3404000D2*
X1878000D1*
X1300000Y3982000D1*
X4844190Y3743283D2*
Y3759767D1*
X2956013D1*
X2279280Y4436500D1*
X1213510D1*
X1147510Y4370500D1*
Y3880490D1*
X1300000Y3728000D1*
X5749200Y8009000D2*
X5800000Y8059800D1*
Y8485100D1*
X5883800D1*
X4450000Y3150000D2*
Y2800000D1*
X5509700Y2831343D2*
D15*
Y2626940D1*
X5137437D1*
X4790000Y10450000D2*
X4650000D1*
Y10050000D1*
X4409500Y9809500D1*
X2090500D1*
X1900000Y10000000D1*
X3900000D2*
X4200000D1*
Y10100000D1*
D37*
X4500000Y1950000D3*
X2150000Y6250000D3*
X4250000Y2450000D3*
X3450000Y2550000D3*
X4042820Y1667587D3*
X5084453Y2168697D3*
X2441563Y5773297D3*
X3373610Y3103170D3*
X4224583Y3114310D3*
X5296187Y1314893D3*
X5205969Y4080084D3*
X5626561Y4307904D3*
X4300000Y1950000D3*
X1474347Y4631863D3*
X5042000Y6100000D3*
X3608430Y8304720D3*
X4054820Y4250000D3*
X3350000Y8452510D3*
X4250000Y1730217D3*
X4418800Y10380000D3*
X4874747Y6643407D3*
X1801400Y1825130D3*
X3978507Y1195513D3*
X4600000Y1200000D3*
X1700000Y2350000D3*
X1500000Y2250000D3*
X1550000Y6050000D3*
Y2100000D3*
X4200000Y1234897D3*
X3723400Y4250000D3*
X3357190Y6779070D3*
X3845000Y6456200D3*
X3264500Y1595180D3*
X4550000Y4050000D3*
X3600000D3*
X4550300Y4250000D3*
X4250000Y6850000D3*
X3900000Y10000000D3*
X5319200Y3730510D3*
X4844190Y3743283D3*
X5883800Y8485100D3*
X5749200Y8009000D3*
X5679906Y1986355D3*
X2481230Y2776616D3*
X2387151Y5100360D3*
X3393793Y5354373D3*
X5762548Y6589083D3*
X1473469Y1364219D3*
X6085496Y8470273D3*
X1668575Y5425669D3*
X2141968Y3564056D3*
X1104100Y10889083D2*
D16*
X6145913D1*
X1104100Y10825917D2*
X6145913D1*
X1104100Y10762750D2*
X6145913D1*
X1104100Y10699583D2*
X4631587D1*
X4948516D2*
X5291516D1*
X5608445D2*
X6145913D1*
X1104100Y10636417D2*
X1354764D1*
X1429227D2*
X1862764D1*
X1937227D2*
X4558537D1*
X5021442D2*
X5218466D1*
X5681495D2*
X6145913D1*
X1104100Y10573250D2*
X1270800D1*
X1513191D2*
X1778800D1*
X2021191D2*
X4518602D1*
X5061378D2*
X5178654D1*
X5985600D2*
X6145913D1*
X1104100Y10510083D2*
X1253561D1*
X1530431D2*
X1761561D1*
X2038431D2*
X3991378D1*
X4408642D2*
X4497642D1*
X5082338D2*
X5157570D1*
X6023428D2*
X6145913D1*
X1104100Y10446917D2*
X1268567D1*
X1515424D2*
X1776567D1*
X2023424D2*
X2899972D1*
X3376023D2*
X3776941D1*
X5088663D2*
X5151369D1*
X6033597D2*
X6145913D1*
X1104100Y10383750D2*
X1340873D1*
X1443118D2*
X1848873D1*
X1951118D2*
X2863137D1*
X5080973D2*
X5158935D1*
X6021195D2*
X6145913D1*
X1104100Y10320583D2*
X2862145D1*
X5058401D2*
X5181631D1*
X5979771D2*
X6145913D1*
X1104100Y10257417D2*
X2895631D1*
X5016233D2*
X5223799D1*
X5676286D2*
X6145913D1*
X1104100Y10194250D2*
X2897243D1*
X5261924D2*
X5302182D1*
X5597903D2*
X6145913D1*
X1104100Y10131083D2*
X1330331D1*
X1453660D2*
X1584331D1*
X1707660D2*
X1838331D1*
X1961660D2*
X2862517D1*
X4761117D2*
X4859170D1*
X5330757D2*
X6145913D1*
X1104100Y10067917D2*
X1260630D1*
X2031361D2*
X2862765D1*
X4761117D2*
X4821219D1*
X5368832D2*
X6145913D1*
X1104100Y10004750D2*
X1243391D1*
X2049717D2*
X2898235D1*
X4750823D2*
X4801499D1*
X5388428D2*
X6145913D1*
X1104100Y9941583D2*
X1255917D1*
X2112969D2*
X3791080D1*
X4696129D2*
X4796538D1*
X5393513D2*
X6145913D1*
X1104100Y9878417D2*
X1311728D1*
X1472264D2*
X1565728D1*
X1726264D2*
X1819728D1*
X4632877D2*
X4805220D1*
X5384707D2*
X6145913D1*
X1104100Y9815250D2*
X1930232D1*
X4569749D2*
X4829280D1*
X5360770D2*
X6145913D1*
X1104100Y9752083D2*
X1993360D1*
X4506621D2*
X4873557D1*
X5316494D2*
X6145913D1*
X1104100Y9688917D2*
X4957272D1*
X5232778D2*
X6145913D1*
X1104100Y9625750D2*
X6145913D1*
X1104100Y9562583D2*
X6145913D1*
X1104100Y9499417D2*
X5891417D1*
X1104100Y9436250D2*
X5891417D1*
X1104100Y9373083D2*
X5891417D1*
X1104100Y9309917D2*
X5891417D1*
X1104100Y9246750D2*
X2569573D1*
X2730481D2*
X3959504D1*
X4140504D2*
X4745937D1*
X5073284D2*
X5891417D1*
X1104100Y9183583D2*
X2505701D1*
X3374437D2*
X3446171D1*
X5073284D2*
X5919074D1*
X1104100Y9120417D2*
X2486850D1*
X5073284D2*
X5893277D1*
X1104100Y9057250D2*
X2494787D1*
X5073284D2*
X5896378D1*
X1104100Y8994083D2*
X2535219D1*
X2764836D2*
X3203209D1*
X3565531D2*
X3928002D1*
X4171882D2*
X4745937D1*
X5073284D2*
X5930484D1*
X1104100Y8930917D2*
X1301310D1*
X1598643D2*
X1826549D1*
X2073405D2*
X2506445D1*
X2793609D2*
X3280476D1*
X3419556D2*
X3900717D1*
X4199291D2*
X4766028D1*
X5053192D2*
X5920066D1*
X1104100Y8867750D2*
X1301310D1*
X1598643D2*
X1802488D1*
X2097590D2*
X2486974D1*
X2813081D2*
X3227146D1*
X3472886D2*
X3881989D1*
X4218018D2*
X4746557D1*
X5072664D2*
X5893525D1*
X1104100Y8804583D2*
X1301310D1*
X1598643D2*
X1808814D1*
X2091140D2*
X2494291D1*
X2805639D2*
X3208914D1*
X3491117D2*
X3889059D1*
X4210949D2*
X4753874D1*
X5065222D2*
X5896006D1*
X1104100Y8741417D2*
X1301310D1*
X1598643D2*
X1851726D1*
X2048352D2*
X2486354D1*
X2813701D2*
X3222309D1*
X3477722D2*
X3881369D1*
X4218639D2*
X4793438D1*
X5025783D2*
X5929244D1*
X1104100Y8678250D2*
X2486354D1*
X2813701D2*
X3285809D1*
X3414222D2*
X3881369D1*
X4218639D2*
X4766772D1*
X5052324D2*
X6145913D1*
X1104100Y8615083D2*
X2486354D1*
X2813701D2*
X3881369D1*
X4218639D2*
X4746681D1*
X5072540D2*
X6145913D1*
X1104100Y8551917D2*
X2486354D1*
X2813701D2*
X3881369D1*
X4218639D2*
X4753502D1*
X5065719D2*
X5743085D1*
X5987461D2*
X6145913D1*
X1104100Y8488750D2*
X2486354D1*
X2813701D2*
X3881369D1*
X4218639D2*
X4792073D1*
X5027147D2*
X5709971D1*
X6008173D2*
X6145913D1*
X1104100Y8425583D2*
X3156328D1*
X3543579D2*
X5709847D1*
X5992174D2*
X6145913D1*
X1104100Y8362417D2*
X3156328D1*
X3543579D2*
X5709847D1*
X5890102D2*
X6145913D1*
X1104100Y8299250D2*
X3156328D1*
X3543579D2*
X5709847D1*
X1104100Y8236083D2*
X3156328D1*
X3543579D2*
X5709847D1*
X1104100Y8172917D2*
X3156328D1*
X3543579D2*
X5709847D1*
X1104100Y8109750D2*
X3156328D1*
X3543579D2*
X5681197D1*
X1104100Y8046583D2*
X5630844D1*
X1104100Y7983417D2*
X3156328D1*
X3543579D2*
X5627619D1*
X5870879D2*
X5918950D1*
X1104100Y7920250D2*
X3156328D1*
X3543579D2*
X5664950D1*
X5833424D2*
X5893277D1*
X1104100Y7857083D2*
X3082410D1*
X3543579D2*
X5896378D1*
X1104100Y7793917D2*
X3019282D1*
X3543579D2*
X4855201D1*
X4994777D2*
X5105232D1*
X5244808D2*
X5930608D1*
X1104100Y7730750D2*
X2956154D1*
X3543579D2*
X4795918D1*
X5304092D2*
X5919942D1*
X1104100Y7667583D2*
X2892902D1*
X3543579D2*
X4784012D1*
X5315874D2*
X5893525D1*
X1104100Y7604417D2*
X2829774D1*
X3138766D2*
X4803856D1*
X5296154D2*
X5896130D1*
X1104100Y7541250D2*
X2766647D1*
X3075639D2*
X4901958D1*
X4947973D2*
X5151989D1*
X5197996D2*
X5929492D1*
X1104100Y7478083D2*
X2703395D1*
X3012387D2*
X6145913D1*
X1104100Y7414917D2*
X2643987D1*
X2949259D2*
X6145913D1*
X1104100Y7351750D2*
X2627864D1*
X2886131D2*
X6145913D1*
X1104100Y7288583D2*
X1157070D1*
X1406903D2*
X2627864D1*
X2850040D2*
X5859419D1*
X1842846Y7225417D2*
X2627864D1*
X2850040D2*
X5859419D1*
X1912547Y7162250D2*
X2627864D1*
X2850040D2*
X5859419D1*
X1104100Y7099083D2*
X1155706D1*
X1975675D2*
X2627864D1*
X2850040D2*
X5859419D1*
X1104100Y7035917D2*
X1158187D1*
X1405787D2*
X1789342D1*
X2038927D2*
X2627864D1*
X2850040D2*
X5894146D1*
X1436793Y6972750D2*
X1852470D1*
X2102055D2*
X2627864D1*
X2850040D2*
X5863140D1*
X1437785Y6909583D2*
X1915598D1*
X2165182D2*
X2627864D1*
X2850040D2*
X3696326D1*
X3993660D2*
X4141694D1*
X4798696D2*
X5862272D1*
X1104100Y6846417D2*
X1154714D1*
X1409260D2*
X1978726D1*
X2226078D2*
X2627864D1*
X2850040D2*
X3253811D1*
X3993660D2*
X4125571D1*
X4798696D2*
X5890673D1*
X1104100Y6783250D2*
X1159303D1*
X1404671D2*
X2041978D1*
X2240093D2*
X2627864D1*
X2850040D2*
X3232851D1*
X3993660D2*
X4138842D1*
X4798696D2*
X5895262D1*
X1436545Y6720083D2*
X2059837D1*
X2240093D2*
X2317310D1*
X2482682D2*
X2627864D1*
X3048601D2*
X3248478D1*
X3993660D2*
X4138842D1*
X4361141D2*
X4501362D1*
X4970965D2*
X5863512D1*
X1438033Y6656917D2*
X2059837D1*
X2536757D2*
X2627864D1*
X3048601D2*
X3696326D1*
X3993660D2*
X4138842D1*
X4361141D2*
X4501362D1*
X4998374D2*
X5862023D1*
X1104100Y6593750D2*
X1153722D1*
X1410252D2*
X2059837D1*
X2548539D2*
X2627988D1*
X3048601D2*
X3696326D1*
X3993660D2*
X4138842D1*
X4361141D2*
X4501362D1*
X4988204D2*
X5889681D1*
X1104100Y6530583D2*
X1160419D1*
X1403555D2*
X2059837D1*
X2530556D2*
X2654157D1*
X3048601D2*
X3696326D1*
X3993660D2*
X4138842D1*
X4361141D2*
X4501362D1*
X4798696D2*
X4833541D1*
X4916022D2*
X5896378D1*
X1436173Y6467417D2*
X2059837D1*
X2240093D2*
X2341990D1*
X2458002D2*
X2751392D1*
X3048601D2*
X3721131D1*
X3968855D2*
X4138842D1*
X4361141D2*
X4538941D1*
X4761117D2*
X5863760D1*
X1438281Y6404250D2*
X2059837D1*
X2240093D2*
X3732541D1*
X3957445D2*
X4138842D1*
X4361141D2*
X4501362D1*
X4798696D2*
X5861775D1*
X1104100Y6341083D2*
X1152730D1*
X1411244D2*
X2059837D1*
X2240093D2*
X3812288D1*
X3877698D2*
X4138842D1*
X4361141D2*
X4501362D1*
X4798696D2*
X5888689D1*
X1104100Y6277917D2*
X1161659D1*
X1402438D2*
X2028955D1*
X2271098D2*
X4138842D1*
X4361141D2*
X4501362D1*
X4798696D2*
X5897618D1*
X1435925Y6214750D2*
X2030939D1*
X2269114D2*
X4138842D1*
X4361141D2*
X4501362D1*
X4798696D2*
X5864132D1*
X1438529Y6151583D2*
X1483376D1*
X1616627D2*
X2078440D1*
X2221613D2*
X4138842D1*
X4361141D2*
X4501362D1*
X4798696D2*
X5861527D1*
X1104100Y6088417D2*
X1151737D1*
X2251255D2*
X3741347D1*
X4361141D2*
X4501362D1*
X4798696D2*
X5887820D1*
X1104100Y6025250D2*
X1162775D1*
X2314383D2*
X3741347D1*
X4361141D2*
X4501362D1*
X4798696D2*
X5898734D1*
X1635230Y5962083D2*
X2127926D1*
X2377635D2*
X3741347D1*
X4359529D2*
X5864504D1*
X1438777Y5898917D2*
X2191178D1*
X2440763D2*
X3741347D1*
X4322694D2*
X5861279D1*
X1104100Y5835750D2*
X1150869D1*
X1413228D2*
X2254306D1*
X2548167D2*
X2870578D1*
X3358660D2*
X3741347D1*
X4158611D2*
X5886828D1*
X1104100Y5772583D2*
X1164016D1*
X1399958D2*
X2317186D1*
X2566026D2*
X2805714D1*
X3358660D2*
X3741347D1*
X4158611D2*
X4563870D1*
X4966128D2*
X5899975D1*
X1435181Y5709417D2*
X2335913D1*
X2547175D2*
X2787606D1*
X3358660D2*
X3741347D1*
X4158611D2*
X4563870D1*
X4966128D2*
X5864876D1*
X1438901Y5646250D2*
X2797156D1*
X3358660D2*
X3741347D1*
X4158611D2*
X4563870D1*
X4966128D2*
X5840691D1*
X1104100Y5583083D2*
X1149877D1*
X1414097D2*
X2842053D1*
X3358660D2*
X3741347D1*
X4158611D2*
X4563870D1*
X4966128D2*
X5777564D1*
X1104100Y5519917D2*
X1165256D1*
X1398718D2*
X4658872D1*
X4950129D2*
X5714436D1*
X1434808Y5456750D2*
X4658872D1*
X4950129D2*
X5651308D1*
X1439149Y5393583D2*
X4658872D1*
X4950129D2*
X5588056D1*
X1104100Y5330417D2*
X1149009D1*
X1414965D2*
X4124207D1*
X4950129D2*
X5524928D1*
X5833920D2*
X5884968D1*
X1104100Y5267250D2*
X1166496D1*
X1397477D2*
X2951317D1*
X3248651D2*
X3551343D1*
X3848677D2*
X4055498D1*
X5248653D2*
X5461800D1*
X5770792D2*
X5902579D1*
X1434436Y5204083D2*
X2951317D1*
X3248651D2*
X3551343D1*
X3848677D2*
X3992246D1*
X4866909D2*
X4951319D1*
X5248653D2*
X5398548D1*
X5707540D2*
X5865620D1*
X1439273Y5140917D2*
X2951317D1*
X3248651D2*
X3551343D1*
X3848677D2*
X3929118D1*
X4178703D2*
X4951319D1*
X5248653D2*
X5335420D1*
X5644412D2*
X5860659D1*
X1104100Y5077750D2*
X1148141D1*
X1415833D2*
X2951317D1*
X3248651D2*
X3551343D1*
X4115575D2*
X4578753D1*
X5248653D2*
X5281221D1*
X5581284D2*
X5884100D1*
X1440638Y5014583D2*
X2951317D1*
X3248651D2*
X3551343D1*
X4052323D2*
X4506075D1*
X5518032D2*
X5903819D1*
X1440638Y4951417D2*
X2938915D1*
X3248651D2*
X3551343D1*
X3989195D2*
X4462047D1*
X5493599D2*
X5865992D1*
X1440638Y4888250D2*
X2951317D1*
X3266263D2*
X3551343D1*
X3925943D2*
X4460187D1*
X4640442D2*
X4951319D1*
X5493599D2*
X5860535D1*
X1440638Y4825083D2*
X2951317D1*
X3329390D2*
X3551343D1*
X3848677D2*
X4460187D1*
X4640442D2*
X5271424D1*
X5493599D2*
X5883231D1*
X1440638Y4761917D2*
X3083526D1*
X3360396D2*
X3609882D1*
X3790138D2*
X4460187D1*
X4640442D2*
X5271424D1*
X5493599D2*
X5965335D1*
X6070681D2*
X6145913D1*
X1104100Y4698750D2*
X3138841D1*
X3361140D2*
X3609882D1*
X3790138D2*
X4460187D1*
X4640442D2*
X5271424D1*
X5493599D2*
X6145913D1*
X1104100Y4635583D2*
X3138841D1*
X3361140D2*
X3609882D1*
X3790138D2*
X4460187D1*
X4640442D2*
X5271424D1*
X5493599D2*
X6145913D1*
X1104100Y4572417D2*
X3138841D1*
X3361140D2*
X3609882D1*
X3790138D2*
X4460187D1*
X4640442D2*
X5271424D1*
X5493599D2*
X6145913D1*
X1104100Y4509250D2*
X1165628D1*
X2327157D2*
X3138841D1*
X3361140D2*
X3609882D1*
X3790138D2*
X4460187D1*
X4640442D2*
X5271424D1*
X5493599D2*
X6145913D1*
X2394502Y4446083D2*
X3138841D1*
X3361140D2*
X3609882D1*
X3790138D2*
X4460187D1*
X4640442D2*
X5271424D1*
X5493599D2*
X6145913D1*
X2457630Y4382917D2*
X3111308D1*
X3806881D2*
X4071373D1*
X4640442D2*
X5271424D1*
X5493599D2*
X6145913D1*
X2520882Y4319750D2*
X3111308D1*
X3824988D2*
X4071373D1*
X4651976D2*
X5271424D1*
X5493599D2*
X6145913D1*
X2584010Y4256583D2*
X3111308D1*
X3847684D2*
X4071373D1*
X4674549D2*
X5271424D1*
X5493599D2*
X6145913D1*
X2647138Y4193417D2*
X3111308D1*
X3833422D2*
X4071373D1*
X4660286D2*
X5271424D1*
X5493599D2*
X6145913D1*
X1415957Y4130250D2*
X2228385D1*
X2710389D2*
X3111308D1*
X4642923D2*
X5271424D1*
X5493599D2*
X6145913D1*
X1432700Y4067083D2*
X2291637D1*
X2773517D2*
X3138841D1*
X4673184D2*
X5271424D1*
X5493599D2*
X6145913D1*
X1457009Y4003917D2*
X2354765D1*
X2836645D2*
X3138841D1*
X5493599D2*
X6145913D1*
X1466062Y3940750D2*
X2417893D1*
X2899773D2*
X3140205D1*
X5499677D2*
X6145913D1*
X1529190Y3877583D2*
X2481145D1*
X2963025D2*
X3174932D1*
X5562805D2*
X6145913D1*
X1592442Y3814417D2*
X2544272D1*
X5616383D2*
X6145913D1*
X1104100Y3751250D2*
X1143180D1*
X1655570D2*
X2607400D1*
X5625560D2*
X6145913D1*
X1104100Y3688083D2*
X1146652D1*
X1718698D2*
X2670652D1*
X5625560D2*
X6145913D1*
X1104100Y3624917D2*
X1181503D1*
X1418437D2*
X1532241D1*
X1781826D2*
X2733780D1*
X5625560D2*
X6145913D1*
X1104100Y3561750D2*
X1169225D1*
X1430840D2*
X1595493D1*
X1845078D2*
X2796908D1*
X5618119D2*
X6145913D1*
X1104100Y3498583D2*
X1143304D1*
X1456637D2*
X1658621D1*
X1908206D2*
X4324257D1*
X5567021D2*
X6145913D1*
X1104100Y3435417D2*
X1146280D1*
X1453660D2*
X1721749D1*
X5503893D2*
X6145913D1*
X1104100Y3372250D2*
X1180387D1*
X1419678D2*
X1785001D1*
X5440765D2*
X6145913D1*
X1104100Y3309083D2*
X1170093D1*
X1429847D2*
X4324505D1*
X5058525D2*
X6145913D1*
X1104100Y3245917D2*
X1143552D1*
X1456389D2*
X4291391D1*
X5058525D2*
X6145913D1*
X1104100Y3182750D2*
X1146032D1*
X1454032D2*
X3279980D1*
X5058525D2*
X5351047D1*
X5668348D2*
X6145913D1*
X1104100Y3119583D2*
X1179147D1*
X1420794D2*
X3250338D1*
X5058525D2*
X5351047D1*
X5668348D2*
X6145913D1*
X1104100Y3056417D2*
X1171085D1*
X1428855D2*
X3258772D1*
X5058525D2*
X5351047D1*
X5668348D2*
X6145913D1*
X1104100Y2993250D2*
X1143800D1*
X1456140D2*
X3324132D1*
X3423152D2*
X4359852D1*
X5058525D2*
X5351047D1*
X5668348D2*
X6145913D1*
X1104100Y2930083D2*
X1145660D1*
X1454404D2*
X4121355D1*
X5058525D2*
X5387386D1*
X5632010D2*
X6145913D1*
X1104100Y2866917D2*
X1178030D1*
X1422034D2*
X4121355D1*
X5058525D2*
X5355264D1*
X5664132D2*
X6145913D1*
X1104100Y2803750D2*
X1172077D1*
X1427863D2*
X4121355D1*
X5058525D2*
X5353527D1*
X5665868D2*
X6145913D1*
X1104100Y2740583D2*
X1144048D1*
X1455892D2*
X4121355D1*
X5276062D2*
X5381061D1*
X5638335D2*
X6145913D1*
X1104100Y2677417D2*
X1145288D1*
X1454652D2*
X4121355D1*
X5620847D2*
X6145913D1*
X1104100Y2614250D2*
X1176914D1*
X1423150D2*
X3344596D1*
X3555485D2*
X4149632D1*
X5619979D2*
X6145913D1*
X1104100Y2551083D2*
X1173069D1*
X1426871D2*
X3325620D1*
X3574461D2*
X4181382D1*
X5588353D2*
X6145913D1*
X1104100Y2487917D2*
X1144296D1*
X1455644D2*
X3343231D1*
X5276062D2*
X6145913D1*
X1104100Y2424750D2*
X1145040D1*
X1455024D2*
X1602190D1*
X5058525D2*
X6145913D1*
X1104100Y2361583D2*
X1175798D1*
X5098833D2*
X6145913D1*
X1104100Y2298417D2*
X1174186D1*
X5161961D2*
X6145913D1*
X1104100Y2235250D2*
X1144544D1*
X5224469D2*
X6145913D1*
X1104100Y2172083D2*
X1144792D1*
X5248281D2*
X6145913D1*
X1104100Y2108917D2*
X1174682D1*
X5229678D2*
X6145913D1*
X1104100Y2045750D2*
X1141319D1*
X4951741D2*
X6145913D1*
X1104100Y1982583D2*
X1141319D1*
X1458621D2*
X1531001D1*
X1568969D2*
X3330953D1*
X4236622D2*
X4380191D1*
X4951741D2*
X6145913D1*
X1104100Y1919417D2*
X1141319D1*
X1458621D2*
X1723981D1*
X1878812D2*
X3330953D1*
X3511209D2*
X4057979D1*
X4287720D2*
X4379571D1*
X4951741D2*
X6145913D1*
X1104100Y1856250D2*
X1141319D1*
X1458621D2*
X1681193D1*
X3511209D2*
X4101263D1*
X4951741D2*
X6145913D1*
X1104100Y1793083D2*
X1681441D1*
X3504760D2*
X4164391D1*
X4951741D2*
X6145913D1*
X1104100Y1729917D2*
X1725222D1*
X1877572D2*
X3936188D1*
X4194950D2*
X4304413D1*
X4951741D2*
X6145913D1*
X1104100Y1666750D2*
X3164266D1*
X3364737D2*
X3918328D1*
X4236994D2*
X4311855D1*
X4951741D2*
X6145913D1*
X1104100Y1603583D2*
X3140329D1*
X3388674D2*
X3561389D1*
X4951741D2*
X6145913D1*
X1104100Y1540417D2*
X3153476D1*
X3375527D2*
X3561389D1*
X4951741D2*
X6145913D1*
X1104100Y1477250D2*
X3176420D1*
X3352583D2*
X3544273D1*
X4951741D2*
X6145913D1*
X1104100Y1414083D2*
X3176420D1*
X5143605D2*
X5225783D1*
X5366599D2*
X6145913D1*
X1104100Y1350917D2*
X3176420D1*
X5143605D2*
X5177373D1*
X5414969D2*
X6145913D1*
X1104100Y1287750D2*
X3176420D1*
X5417449D2*
X6145913D1*
X1104100Y1224583D2*
X3176420D1*
X5143605D2*
X5206064D1*
X5386319D2*
X6145913D1*
X1104100Y1161417D2*
X3179024D1*
X5386319D2*
X6145913D1*
X1104100Y1098250D2*
X3226401D1*
X5384335D2*
X6145913D1*
X3242171Y5082290D2*
X3242290Y4905805D1*
X3329683Y4818056D1*
X3339348Y4804753D1*
X3346814Y4790101D1*
X3351895Y4774463D1*
X3354467Y4758222D1*
X3354790Y4591250D1*
Y4392192D1*
X3572290Y4392290D1*
Y4333875D1*
X3626407Y4333790D1*
X3620311Y4347807D1*
X3616468Y4367126D1*
X3616210Y4817828D1*
X3557710Y4817710D1*
Y5272290D1*
X3842290D1*
Y5047687D1*
X4114583Y5319715D1*
X4130960Y5330658D1*
X4149440Y5337475D1*
X4169000Y5339790D1*
X4169847Y5339757D1*
X4665218Y5339790D1*
X4665211Y5550244D1*
X4570211Y5550209D1*
Y5789789D1*
X4959791D1*
Y5550209D1*
X4943792D1*
X4943532Y5315426D1*
X4939689Y5296107D1*
X4931443Y5278220D1*
X4919249Y5262751D1*
X4918626Y5262176D1*
X4848417Y5192285D1*
X4832040Y5181342D1*
X4813560Y5174525D1*
X4794000Y5172210D1*
X4793153Y5172243D1*
X4203772Y5172210D1*
X3917417Y4886285D1*
X3901040Y4875342D1*
X3882560Y4868525D1*
X3863000Y4866210D1*
X3862153Y4866243D1*
X3842288Y4866210D1*
X3842290Y4817710D1*
X3783875D1*
X3783790Y4408390D1*
X3794843Y4394080D1*
X3803089Y4376193D1*
X3806932Y4356874D1*
X3807190Y4333309D1*
X3818937Y4319412D1*
X3828619Y4303612D1*
X3835710Y4286492D1*
X3840036Y4268473D1*
X3841490Y4250000D1*
X3840036Y4231527D1*
X3835710Y4213508D1*
X3828619Y4196388D1*
X3818937Y4180588D1*
X3806902Y4166498D1*
X3792812Y4154463D1*
X3777012Y4144781D1*
X3759892Y4137690D1*
X3743827Y4133753D1*
X4077614Y4133790D1*
X4077710Y4392290D1*
X4466520D1*
X4466768Y4940574D1*
X4470611Y4959893D1*
X4478857Y4977780D1*
X4491051Y4993249D1*
X4491674Y4993824D1*
X4561883Y5063715D1*
X4578260Y5074658D1*
X4596740Y5081475D1*
X4616300Y5083790D1*
X4617147Y5083757D1*
X4957737Y5083790D1*
X4957710Y5322290D1*
X5242290D1*
Y4867710D1*
X4957710D1*
Y4916203D1*
X4650911Y4916210D1*
X4634090Y4899397D1*
X4634073Y4333210D1*
X4645837Y4319412D1*
X4655519Y4303612D1*
X4662610Y4286492D1*
X4666936Y4268473D1*
X4668390Y4250000D1*
X4666936Y4231527D1*
X4662610Y4213508D1*
X4655519Y4196388D1*
X4645837Y4180588D1*
X4633802Y4166498D1*
X4619712Y4154463D1*
X4612937Y4149863D1*
X4626693Y4139796D1*
X4639796Y4126693D1*
X4650688Y4111702D1*
X4659101Y4095191D1*
X4664827Y4077568D1*
X4667726Y4059265D1*
Y4040735D1*
X4664827Y4022432D1*
X4660317Y4008105D1*
X5277694Y4008157D1*
X5278033Y5041722D1*
X5280605Y5057963D1*
X5285687Y5073601D1*
X5293152Y5088253D1*
X5302817Y5101556D1*
X5420655Y5219851D1*
X5865866Y5665033D1*
X5866179Y5680949D1*
X5869918Y5704551D1*
X5877302Y5727279D1*
X5888151Y5748571D1*
X5902198Y5767904D1*
X5919096Y5784802D1*
X5933976Y5796021D1*
X5917293Y5808761D1*
X5903827Y5822219D1*
X5892146Y5837251D1*
X5882431Y5853623D1*
X5874834Y5871079D1*
X5869475Y5889347D1*
X5866437Y5908141D1*
X5865767Y5927166D1*
X5867476Y5946127D1*
X5871538Y5964726D1*
X5877888Y5982674D1*
X5886428Y5999688D1*
X5897024Y6015504D1*
X5909511Y6029875D1*
X5923693Y6042576D1*
X5934040Y6050084D1*
X5919096Y6061198D1*
X5902198Y6078096D1*
X5888151Y6097429D1*
X5877302Y6118721D1*
X5869918Y6141449D1*
X5866179Y6165051D1*
Y6188949D1*
X5869918Y6212551D1*
X5877302Y6235279D1*
X5888151Y6256571D1*
X5902198Y6275904D1*
X5919096Y6292802D1*
X5934040Y6304084D1*
X5919096Y6315198D1*
X5902198Y6332096D1*
X5888151Y6351429D1*
X5877302Y6372721D1*
X5869918Y6395449D1*
X5866179Y6419051D1*
Y6442949D1*
X5869918Y6466551D1*
X5877302Y6489279D1*
X5888151Y6510571D1*
X5902198Y6529904D1*
X5919096Y6546802D1*
X5934040Y6558084D1*
X5919096Y6569198D1*
X5902198Y6586096D1*
X5888151Y6605429D1*
X5877302Y6626721D1*
X5869918Y6649449D1*
X5866179Y6673051D1*
Y6696949D1*
X5869918Y6720551D1*
X5877302Y6743279D1*
X5888151Y6764571D1*
X5902198Y6783904D1*
X5919096Y6800802D1*
X5934040Y6812084D1*
X5919096Y6823198D1*
X5902198Y6840096D1*
X5888151Y6859429D1*
X5877302Y6880721D1*
X5869918Y6903449D1*
X5866179Y6927051D1*
Y6950949D1*
X5869918Y6974551D1*
X5877302Y6997279D1*
X5888151Y7018571D1*
X5902198Y7037904D1*
X5904757Y7040709D1*
X5865711D1*
Y7345289D1*
X6152270D1*
X6152278Y7529168D1*
X6132190Y7513793D1*
X6115552Y7504540D1*
X6097890Y7497436D1*
X6079479Y7492590D1*
X6060608Y7490080D1*
X6041571Y7489943D1*
X6022666Y7492183D1*
X6004187Y7496764D1*
X5986425Y7503615D1*
X5969656Y7512628D1*
X5954143Y7523663D1*
X5940128Y7536547D1*
X5927829Y7551079D1*
X5917440Y7567032D1*
X5909123Y7584157D1*
X5903007Y7602185D1*
X5899188Y7620836D1*
X5897726Y7639817D1*
X5898643Y7658832D1*
X5901926Y7677585D1*
X5907523Y7695781D1*
X5915346Y7713137D1*
X5925273Y7729381D1*
X5937150Y7744260D1*
X5950790Y7757541D1*
X5966040Y7769084D1*
X5951096Y7780198D1*
X5934198Y7797096D1*
X5920151Y7816429D1*
X5909302Y7837721D1*
X5901918Y7860449D1*
X5898179Y7884051D1*
Y7907949D1*
X5901918Y7931551D1*
X5909302Y7954279D1*
X5920151Y7975571D1*
X5934198Y7994904D1*
X5936756Y7997709D1*
X5897711D1*
Y8302289D1*
X6152331D1*
X6152250Y8729036D1*
X6132190Y8713793D1*
X6115552Y8704540D1*
X6097890Y8697436D1*
X6079479Y8692590D1*
X6060608Y8690080D1*
X6041571Y8689943D1*
X6022666Y8692183D1*
X6004187Y8696764D1*
X5986425Y8703615D1*
X5969656Y8712628D1*
X5954143Y8723663D1*
X5940128Y8736547D1*
X5927829Y8751079D1*
X5917440Y8767032D1*
X5909123Y8784157D1*
X5903007Y8802185D1*
X5899188Y8820836D1*
X5897726Y8839817D1*
X5898643Y8858832D1*
X5901926Y8877585D1*
X5907523Y8895781D1*
X5915346Y8913137D1*
X5925273Y8929381D1*
X5937150Y8944260D1*
X5950790Y8957541D1*
X5965960Y8969002D1*
X5951096Y8980198D1*
X5934198Y8997096D1*
X5920151Y9016429D1*
X5909302Y9037721D1*
X5901918Y9060449D1*
X5898179Y9084051D1*
Y9107949D1*
X5901918Y9131551D1*
X5909302Y9154279D1*
X5920151Y9175571D1*
X5934198Y9194904D1*
X5936766Y9197683D1*
X5897711Y9197709D1*
Y9502289D1*
X6152331D1*
X6152250Y10952250D1*
X1097750D1*
Y4439159D1*
X1159093Y4500215D1*
X1175470Y4511158D1*
X1193950Y4517975D1*
X1213510Y4520290D1*
X1214357Y4520257D1*
X2285854Y4520032D1*
X2305173Y4516189D1*
X2323060Y4507943D1*
X2338529Y4495749D1*
X2339104Y4495126D1*
X2990737Y3843540D1*
X3215346Y3843557D1*
X3170317Y3888924D1*
X3160652Y3902227D1*
X3153186Y3916878D1*
X3148105Y3932517D1*
X3145533Y3948758D1*
X3145210Y4107668D1*
X3117710Y4107710D1*
Y4392290D1*
X3145119D1*
X3145210Y4706530D1*
X3034055Y4817710D1*
X2957710D1*
Y4900434D1*
X2950339Y4917618D1*
X2946500Y4933607D1*
X2945210Y4950000D1*
X2946500Y4966393D1*
X2950339Y4982382D1*
X2957715Y4999509D1*
X2957710Y5272290D1*
X3242290D1*
X3242265Y5007710D1*
X4792171Y6782290D2*
X4792290Y6748179D1*
X4821135Y6748626D1*
X4838255Y6755717D1*
X4856273Y6760043D1*
X4874747Y6761497D1*
X4893220Y6760043D1*
X4911238Y6755717D1*
X4928358Y6748626D1*
X4944158Y6738943D1*
X4958249Y6726909D1*
X4970283Y6712818D1*
X4979966Y6697018D1*
X4987057Y6679898D1*
X4991383Y6661880D1*
X4992837Y6643407D1*
X4991383Y6624933D1*
X4987057Y6606915D1*
X4979966Y6589795D1*
X4970283Y6573995D1*
X4958249Y6559904D1*
X4944158Y6547870D1*
X4928358Y6538188D1*
X4911238Y6531096D1*
X4893220Y6526771D1*
X4874747Y6525317D1*
X4856273Y6526771D1*
X4838255Y6531096D1*
X4820282Y6538666D1*
X4792271Y6538617D1*
X4792290Y6517710D1*
X4754711D1*
X4754790Y6422169D1*
X4792290Y6422290D1*
Y5967710D1*
X4507710D1*
Y6422290D1*
X4545290D1*
X4545210Y6517831D1*
X4507710Y6517710D1*
Y6735123D1*
X4354700Y6735210D1*
X4354467Y5971778D1*
X4351895Y5955537D1*
X4346814Y5939898D1*
X4339348Y5925247D1*
X4329683Y5911944D1*
X4318056Y5900317D1*
X4304753Y5890652D1*
X4290102Y5883186D1*
X4274463Y5878105D1*
X4258222Y5875533D1*
X4152394Y5875210D1*
X4152290Y5552710D1*
X3747710D1*
Y6127290D1*
X4145198D1*
X4144781Y6796388D1*
X4137690Y6813508D1*
X4133364Y6831527D1*
X4131910Y6850000D1*
X4133364Y6868473D1*
X4137690Y6886492D1*
X4144781Y6903612D1*
X4154463Y6919412D1*
X4166498Y6933502D1*
X4180588Y6945537D1*
X4196388Y6955219D1*
X4213508Y6962310D1*
X4231527Y6966636D1*
X4250000Y6968090D1*
X4268473Y6966636D1*
X4286492Y6962310D1*
X4303612Y6955219D1*
X4320407Y6944752D1*
X4507597Y6944790D1*
X4507710Y6972290D1*
X4792290D1*
Y6750040D1*
X3544460Y10427290D2*
X3763610D1*
X3796444Y10459683D1*
X3809747Y10469348D1*
X3824399Y10476813D1*
X3840037Y10481895D1*
X3856278Y10484467D1*
X3997825Y10484790D1*
X3997710Y10527290D1*
X4402290D1*
Y10496904D1*
X4418800Y10498090D1*
X4437273Y10496636D1*
X4455292Y10492310D1*
X4472412Y10485219D1*
X4488212Y10475537D1*
X4498233Y10467264D1*
X4501309Y10495724D1*
X4505786Y10518234D1*
X4512016Y10540323D1*
X4519959Y10561855D1*
X4529568Y10582697D1*
X4540782Y10602721D1*
X4553532Y10621804D1*
X4567741Y10639827D1*
X4583320Y10656680D1*
X4600173Y10672259D1*
X4618196Y10686468D1*
X4637279Y10699218D1*
X4657303Y10710432D1*
X4678145Y10720041D1*
X4699677Y10727984D1*
X4721766Y10734214D1*
X4744276Y10738691D1*
X4767067Y10741389D1*
X4790000Y10742290D1*
X4812933Y10741389D1*
X4835724Y10738691D1*
X4858234Y10734214D1*
X4880323Y10727984D1*
X4901855Y10720041D1*
X4922697Y10710432D1*
X4942721Y10699218D1*
X4961804Y10686468D1*
X4979827Y10672259D1*
X4996680Y10656680D1*
X5012259Y10639827D1*
X5026468Y10621804D1*
X5039218Y10602721D1*
X5050432Y10582697D1*
X5060041Y10561855D1*
X5067984Y10540323D1*
X5074214Y10518234D1*
X5078691Y10495724D1*
X5081389Y10472933D1*
X5082290Y10450000D1*
X5081389Y10427067D1*
X5078691Y10404276D1*
X5074214Y10381766D1*
X5067984Y10359677D1*
X5060041Y10338145D1*
X5050432Y10317303D1*
X5039218Y10297279D1*
X5026468Y10278196D1*
X5012259Y10260173D1*
X4996680Y10243320D1*
X4979827Y10227741D1*
X4961804Y10213532D1*
X4942721Y10200782D1*
X4922697Y10189568D1*
X4901855Y10179959D1*
X4880323Y10172016D1*
X4858234Y10165786D1*
X4835724Y10161309D1*
X4812933Y10158611D1*
X4790000Y10157710D1*
X4754692Y10160076D1*
X4754467Y10041778D1*
X4751895Y10025537D1*
X4746814Y10009898D1*
X4739349Y9995247D1*
X4729683Y9981944D1*
X4611845Y9863649D1*
X4477556Y9729817D1*
X4464253Y9720152D1*
X4449601Y9712687D1*
X4433963Y9707605D1*
X4417722Y9705033D1*
X4250750Y9704710D1*
X2082278Y9705033D1*
X2066037Y9707605D1*
X2050399Y9712687D1*
X2035747Y9720152D1*
X2022444Y9729817D1*
X1893888Y9857916D1*
X1877741Y9859462D1*
X1856030Y9864674D1*
X1835402Y9873219D1*
X1816364Y9884885D1*
X1799386Y9899386D1*
X1784885Y9916364D1*
X1773018Y9935838D1*
X1761115Y9916364D1*
X1746614Y9899386D1*
X1729636Y9884885D1*
X1710598Y9873219D1*
X1689970Y9864674D1*
X1668259Y9859462D1*
X1646000Y9857710D1*
X1623741Y9859462D1*
X1602030Y9864674D1*
X1581402Y9873219D1*
X1562364Y9884885D1*
X1545386Y9899386D1*
X1530885Y9916364D1*
X1519018Y9935838D1*
X1507115Y9916364D1*
X1492614Y9899386D1*
X1475636Y9884885D1*
X1456598Y9873219D1*
X1435970Y9864674D1*
X1414259Y9859462D1*
X1392000Y9857710D1*
X1369741Y9859462D1*
X1348030Y9864674D1*
X1327402Y9873219D1*
X1308364Y9884885D1*
X1291386Y9899386D1*
X1276885Y9916364D1*
X1265219Y9935402D1*
X1256674Y9956030D1*
X1251462Y9977741D1*
X1249710Y10000000D1*
X1251462Y10022259D1*
X1256674Y10043970D1*
X1265219Y10064598D1*
X1276885Y10083636D1*
X1291386Y10100614D1*
X1308364Y10115115D1*
X1327402Y10126781D1*
X1348030Y10135326D1*
X1369741Y10140538D1*
X1392000Y10142290D1*
X1414259Y10140538D1*
X1435970Y10135326D1*
X1456598Y10126781D1*
X1475636Y10115115D1*
X1492614Y10100614D1*
X1507115Y10083636D1*
X1518982Y10064162D1*
X1530885Y10083636D1*
X1545386Y10100614D1*
X1562364Y10115115D1*
X1581402Y10126781D1*
X1602030Y10135326D1*
X1623741Y10140538D1*
X1646000Y10142290D1*
X1668259Y10140538D1*
X1689970Y10135326D1*
X1710598Y10126781D1*
X1729636Y10115115D1*
X1746614Y10100614D1*
X1761115Y10083636D1*
X1772982Y10064162D1*
X1784885Y10083636D1*
X1799386Y10100614D1*
X1816364Y10115115D1*
X1835402Y10126781D1*
X1856030Y10135326D1*
X1877741Y10140538D1*
X1900000Y10142290D1*
X1922259Y10140538D1*
X1943970Y10135326D1*
X1964598Y10126781D1*
X1983636Y10115115D1*
X2000614Y10100614D1*
X2015115Y10083636D1*
X2026781Y10064598D1*
X2035326Y10043970D1*
X2040538Y10022259D1*
X2042052Y10006062D1*
X2133971Y9914225D1*
X3818767Y9914290D1*
X3804463Y9930588D1*
X3794781Y9946388D1*
X3787690Y9963508D1*
X3785123Y9972681D1*
X3512710Y9972710D1*
Y10000367D1*
X3278341Y10000210D1*
X3262740Y9996476D1*
X3243894Y9995243D1*
X3084897Y9995210D1*
X3070428Y9985073D1*
X3051582Y9975470D1*
X3031466Y9968934D1*
X3010576Y9965626D1*
X2989424D1*
X2968534Y9968934D1*
X2948418Y9975470D1*
X2929572Y9985073D1*
X2912461Y9997505D1*
X2897505Y10012461D1*
X2885073Y10029572D1*
X2875470Y10048418D1*
X2868934Y10068534D1*
X2865626Y10089424D1*
Y10110576D1*
X2868934Y10131466D1*
X2875470Y10151582D1*
X2885073Y10170428D1*
X2897505Y10187539D1*
X2912461Y10202495D1*
X2929572Y10214927D1*
X2949621Y10224973D1*
X2929572Y10235073D1*
X2912461Y10247505D1*
X2897505Y10262461D1*
X2885073Y10279572D1*
X2875470Y10298418D1*
X2868934Y10318534D1*
X2865626Y10339424D1*
Y10360576D1*
X2868934Y10381466D1*
X2875470Y10401582D1*
X2885073Y10420428D1*
X2897505Y10437539D1*
X2912461Y10452495D1*
X2929572Y10464927D1*
X2948418Y10474530D1*
X2968534Y10481066D1*
X2989424Y10484374D1*
X3010576D1*
X3031466Y10481066D1*
X3051582Y10474530D1*
X3070428Y10464927D1*
X3084650Y10454773D1*
X3338092Y10454467D1*
X3354333Y10451895D1*
X3369972Y10446814D1*
X3384623Y10439348D1*
X3397926Y10429683D1*
X3428260Y10399806D1*
X3512738Y10399790D1*
X3512710Y10427290D1*
X3544460D1*
X1383960Y2330916D2*
X1402437Y2316536D1*
X1416498Y2333502D1*
X1430588Y2345537D1*
X1446388Y2355219D1*
X1463508Y2362310D1*
X1481527Y2366636D1*
X1500000Y2368090D1*
X1518473Y2366636D1*
X1536492Y2362310D1*
X1553612Y2355219D1*
X1569412Y2345537D1*
X1582997Y2333969D1*
X1581910Y2350000D1*
X1583364Y2368473D1*
X1587690Y2386492D1*
X1594781Y2403612D1*
X1604463Y2419412D1*
X1616498Y2433502D1*
X1630588Y2445537D1*
X1646388Y2455219D1*
X1663508Y2462310D1*
X1681527Y2466636D1*
X1700000Y2468090D1*
X1718473Y2466636D1*
X1736492Y2462310D1*
X1753612Y2455219D1*
X1769412Y2445537D1*
X1783210Y2433773D1*
X3429011Y2433790D1*
X3413508Y2437690D1*
X3396388Y2444781D1*
X3380588Y2454463D1*
X3366498Y2466498D1*
X3354463Y2480588D1*
X3344781Y2496388D1*
X3337690Y2513508D1*
X3333364Y2531527D1*
X3331910Y2550000D1*
X3333364Y2568473D1*
X3337690Y2586492D1*
X3344781Y2603612D1*
X3354463Y2619412D1*
X3366498Y2633502D1*
X3380588Y2645537D1*
X3396388Y2655219D1*
X3413508Y2662310D1*
X3431527Y2666636D1*
X3450000Y2668090D1*
X3468473Y2666636D1*
X3486492Y2662310D1*
X3503612Y2655219D1*
X3519412Y2645537D1*
X3533502Y2633502D1*
X3545537Y2619412D1*
X3555219Y2603612D1*
X3562310Y2586492D1*
X3566636Y2568473D1*
X3568074Y2550398D1*
X3584756Y2533741D1*
X4166769Y2533790D1*
X4180588Y2545537D1*
X4188208Y2550628D1*
X4175223Y2565346D1*
X4166631Y2579366D1*
X4160339Y2594558D1*
X4156500Y2610547D1*
X4155210Y2626940D1*
Y2657822D1*
X4127710Y2657710D1*
Y2942290D1*
X4366207D1*
X4366210Y2997817D1*
X4297711Y2997709D1*
Y3021646D1*
X4278195Y3009091D1*
X4261075Y3002000D1*
X4243057Y2997674D1*
X4224583Y2996220D1*
X4206110Y2997674D1*
X4188092Y3002000D1*
X4170972Y3009091D1*
X4155172Y3018773D1*
X4141374Y3030537D1*
X3466676Y3030520D1*
X3457112Y3019668D1*
X3443022Y3007633D1*
X3427222Y2997951D1*
X3410102Y2990860D1*
X3392083Y2986534D1*
X3373610Y2985080D1*
X3355137Y2986534D1*
X3337118Y2990860D1*
X3319998Y2997951D1*
X3304198Y3007633D1*
X3290108Y3019668D1*
X3278073Y3033758D1*
X3268391Y3049558D1*
X3261300Y3066678D1*
X3256974Y3084697D1*
X3255520Y3103170D1*
X3256974Y3121643D1*
X3261300Y3139662D1*
X3268391Y3156782D1*
X3278073Y3172582D1*
X3290108Y3186672D1*
X3304198Y3198707D1*
X3319998Y3208389D1*
X3337118Y3215480D1*
X3355137Y3219806D1*
X3373610Y3221260D1*
X3392083Y3219806D1*
X3410102Y3215480D1*
X3427222Y3208389D1*
X3443846Y3198057D1*
X4141417Y3198100D1*
X4155172Y3209847D1*
X4170972Y3219529D1*
X4188092Y3226620D1*
X4206110Y3230946D1*
X4224583Y3232400D1*
X4243057Y3230946D1*
X4261075Y3226620D1*
X4278195Y3219529D1*
X4293995Y3209847D1*
X4297721Y3206909D1*
X4297711Y3302289D1*
X4336778D1*
X4322928Y3320273D1*
X1871426Y3320468D1*
X1852107Y3324311D1*
X1834220Y3332557D1*
X1818751Y3344751D1*
X1818176Y3345374D1*
X1451385Y3712118D1*
X1448082Y3692449D1*
X1440698Y3669721D1*
X1429849Y3648429D1*
X1415802Y3629096D1*
X1398904Y3612198D1*
X1383960Y3601084D1*
X1403794Y3585441D1*
X1416887Y3571620D1*
X1428153Y3556274D1*
X1437417Y3539642D1*
X1444533Y3521985D1*
X1449390Y3503577D1*
X1451913Y3484707D1*
X1451761Y3461315D1*
X1448992Y3442480D1*
X1443895Y3424137D1*
X1436550Y3406573D1*
X1427071Y3390064D1*
X1415606Y3374866D1*
X1402334Y3361217D1*
X1384023Y3347023D1*
X1398904Y3335802D1*
X1415802Y3318904D1*
X1429849Y3299571D1*
X1440698Y3278279D1*
X1448082Y3255551D1*
X1451821Y3231949D1*
Y3208051D1*
X1448082Y3184449D1*
X1440698Y3161721D1*
X1429849Y3140429D1*
X1415802Y3121096D1*
X1398904Y3104198D1*
X1383960Y3093084D1*
X1398904Y3081802D1*
X1415802Y3064904D1*
X1429849Y3045571D1*
X1440698Y3024279D1*
X1448082Y3001551D1*
X1451821Y2977949D1*
Y2954051D1*
X1448082Y2930449D1*
X1440698Y2907721D1*
X1429849Y2886429D1*
X1415802Y2867096D1*
X1398904Y2850198D1*
X1383960Y2839084D1*
X1398904Y2827802D1*
X1415802Y2810904D1*
X1429849Y2791571D1*
X1440698Y2770279D1*
X1448082Y2747551D1*
X1451821Y2723949D1*
Y2700051D1*
X1448082Y2676449D1*
X1440698Y2653721D1*
X1429849Y2632429D1*
X1415802Y2613096D1*
X1398904Y2596198D1*
X1383960Y2585084D1*
X1398904Y2573802D1*
X1415802Y2556904D1*
X1429849Y2537571D1*
X1440698Y2516279D1*
X1448082Y2493551D1*
X1451821Y2469949D1*
Y2446051D1*
X1448082Y2422449D1*
X1440698Y2399721D1*
X1429849Y2378429D1*
X1415802Y2359096D1*
X1398904Y2342198D1*
X1383960Y2331084D1*
X1451821Y3970051D2*
X1449057Y3951351D1*
X1912709Y3487788D1*
X4322874Y3487790D1*
X4334198Y3502904D1*
X4347768Y3516727D1*
X2876406Y3516968D1*
X2857087Y3520811D1*
X2839200Y3529057D1*
X2823732Y3541252D1*
X2823156Y3541874D1*
X2212741Y4152242D1*
X1427065Y4152210D1*
X1415802Y4137096D1*
X1398904Y4120198D1*
X1383960Y4109084D1*
X1398904Y4097802D1*
X1415802Y4080904D1*
X1429849Y4061571D1*
X1440698Y4040279D1*
X1448082Y4017551D1*
X1451821Y3993949D1*
Y3970051D1*
X1161461Y5059289D2*
X1168778D1*
X1158795Y5071486D1*
X1146309Y5091862D1*
X1137164Y5113940D1*
X1131585Y5137177D1*
X1129710Y5161000D1*
X1131585Y5184823D1*
X1137164Y5208060D1*
X1146309Y5230138D1*
X1158795Y5250514D1*
X1174315Y5268685D1*
X1192486Y5284205D1*
X1198040Y5287916D1*
X1183096Y5299198D1*
X1166198Y5316096D1*
X1152151Y5335429D1*
X1141302Y5356721D1*
X1133918Y5379449D1*
X1130179Y5403051D1*
Y5426949D1*
X1133918Y5450551D1*
X1141302Y5473279D1*
X1152151Y5494571D1*
X1166198Y5513904D1*
X1183096Y5530802D1*
X1198040Y5541916D1*
X1183096Y5553198D1*
X1166198Y5570096D1*
X1152151Y5589429D1*
X1141302Y5610721D1*
X1133918Y5633449D1*
X1130179Y5657051D1*
Y5680949D1*
X1133918Y5704551D1*
X1141302Y5727279D1*
X1152151Y5748571D1*
X1166198Y5767904D1*
X1183096Y5784802D1*
X1198040Y5795916D1*
X1183096Y5807198D1*
X1166198Y5824096D1*
X1152151Y5843429D1*
X1141302Y5864721D1*
X1133918Y5887449D1*
X1130179Y5911051D1*
Y5934949D1*
X1133918Y5958551D1*
X1141302Y5981279D1*
X1152151Y6002571D1*
X1166198Y6021904D1*
X1183096Y6038802D1*
X1198040Y6049916D1*
X1183096Y6061198D1*
X1166198Y6078096D1*
X1152151Y6097429D1*
X1141302Y6118721D1*
X1133918Y6141449D1*
X1130179Y6165051D1*
Y6188949D1*
X1133918Y6212551D1*
X1141302Y6235279D1*
X1152151Y6256571D1*
X1166198Y6275904D1*
X1183096Y6292802D1*
X1198040Y6303916D1*
X1183096Y6315198D1*
X1166198Y6332096D1*
X1152151Y6351429D1*
X1141302Y6372721D1*
X1133918Y6395449D1*
X1130179Y6419051D1*
Y6442949D1*
X1133918Y6466551D1*
X1141302Y6489279D1*
X1152151Y6510571D1*
X1166198Y6529904D1*
X1183096Y6546802D1*
X1198040Y6557916D1*
X1183096Y6569198D1*
X1166198Y6586096D1*
X1152151Y6605429D1*
X1141302Y6626721D1*
X1133918Y6649449D1*
X1130179Y6673051D1*
Y6696949D1*
X1133918Y6720551D1*
X1141302Y6743279D1*
X1152151Y6764571D1*
X1166198Y6783904D1*
X1183096Y6800802D1*
X1198040Y6811916D1*
X1183096Y6823198D1*
X1166198Y6840096D1*
X1152151Y6859429D1*
X1141302Y6880721D1*
X1133918Y6903449D1*
X1130179Y6927051D1*
Y6950949D1*
X1133918Y6974551D1*
X1141302Y6997279D1*
X1152151Y7018571D1*
X1166198Y7037904D1*
X1183096Y7054802D1*
X1198040Y7065916D1*
X1183096Y7077198D1*
X1166198Y7094096D1*
X1152151Y7113429D1*
X1141302Y7134721D1*
X1133918Y7157449D1*
X1130179Y7181051D1*
Y7204949D1*
X1133918Y7228551D1*
X1141302Y7251279D1*
X1152151Y7272571D1*
X1166198Y7291904D1*
X1183096Y7308802D1*
X1202429Y7322849D1*
X1223721Y7333698D1*
X1246449Y7341082D1*
X1270051Y7344821D1*
X1293949D1*
X1317551Y7341082D1*
X1340279Y7333698D1*
X1361571Y7322849D1*
X1380904Y7308802D1*
X1397802Y7291904D1*
X1411849Y7272571D1*
X1422698Y7251279D1*
X1428624Y7233721D1*
X1806574Y7233532D1*
X1825893Y7229689D1*
X1843780Y7221443D1*
X1859248Y7209248D1*
X1859824Y7208626D1*
X2213714Y6854417D1*
X2224657Y6838040D1*
X2231475Y6819560D1*
X2233790Y6800000D1*
X2233757Y6799153D1*
X2233790Y6333300D1*
X2245537Y6319412D1*
X2255219Y6303612D1*
X2262310Y6286492D1*
X2266636Y6268473D1*
X2268090Y6250000D1*
X2266636Y6231527D1*
X2262310Y6213508D1*
X2255219Y6196388D1*
X2245537Y6180588D1*
X2233502Y6166498D1*
X2219412Y6154463D1*
X2203612Y6144781D1*
X2186492Y6137690D1*
X2169717Y6133611D1*
X2184420Y6131475D1*
X2202900Y6124658D1*
X2219277Y6113715D1*
X2442038Y5891320D1*
X2460037Y5889933D1*
X2478055Y5885607D1*
X2495175Y5878516D1*
X2510975Y5868833D1*
X2525066Y5856799D1*
X2537100Y5842708D1*
X2546782Y5826908D1*
X2553874Y5809788D1*
X2558199Y5791770D1*
X2559653Y5773297D1*
X2558199Y5754823D1*
X2553874Y5736805D1*
X2546782Y5719685D1*
X2537100Y5703885D1*
X2525066Y5689794D1*
X2510975Y5677760D1*
X2495175Y5668078D1*
X2478055Y5660986D1*
X2460037Y5656661D1*
X2441563Y5655207D1*
X2423090Y5656661D1*
X2405072Y5660986D1*
X2387952Y5668078D1*
X2372152Y5677760D1*
X2358061Y5689794D1*
X2346027Y5703885D1*
X2336344Y5719685D1*
X2329253Y5736805D1*
X2324927Y5754823D1*
X2323489Y5772899D1*
X2130183Y5966179D1*
X1633172Y5966210D1*
X1619412Y5954463D1*
X1603612Y5944781D1*
X1586492Y5937690D1*
X1568473Y5933364D1*
X1550000Y5931910D1*
X1531527Y5933364D1*
X1513508Y5937690D1*
X1496388Y5944781D1*
X1480588Y5954463D1*
X1466498Y5966498D1*
X1454463Y5980588D1*
X1444781Y5996388D1*
X1437690Y6013508D1*
X1433364Y6031527D1*
X1431910Y6050000D1*
X1433364Y6068473D1*
X1437690Y6086492D1*
X1444781Y6103612D1*
X1454463Y6119412D1*
X1466498Y6133502D1*
X1480588Y6145537D1*
X1496388Y6155219D1*
X1513508Y6162310D1*
X1531527Y6166636D1*
X1550000Y6168090D1*
X1568473Y6166636D1*
X1586492Y6162310D1*
X1603612Y6155219D1*
X1619412Y6145537D1*
X1633210Y6133773D1*
X2129065Y6133790D1*
X2113508Y6137690D1*
X2096388Y6144781D1*
X2080588Y6154463D1*
X2066498Y6166498D1*
X2054463Y6180588D1*
X2044781Y6196388D1*
X2037690Y6213508D1*
X2033364Y6231527D1*
X2031910Y6250000D1*
X2033364Y6268473D1*
X2037690Y6286492D1*
X2044781Y6303612D1*
X2054463Y6319412D1*
X2066227Y6333210D1*
X2066210Y6765317D1*
X1765305Y7066198D1*
X1366290Y7066210D1*
X1389685Y7046685D1*
X1405205Y7028514D1*
X1417691Y7008138D1*
X1426836Y6986060D1*
X1432415Y6962823D1*
X1434290Y6939000D1*
X1432415Y6915177D1*
X1426836Y6891940D1*
X1417691Y6869862D1*
X1405205Y6849486D1*
X1389685Y6831315D1*
X1371514Y6815795D1*
X1365960Y6812084D1*
X1380904Y6800802D1*
X1397802Y6783904D1*
X1411849Y6764571D1*
X1422698Y6743279D1*
X1430082Y6720551D1*
X1433821Y6696949D1*
Y6673051D1*
X1430082Y6649449D1*
X1422698Y6626721D1*
X1411849Y6605429D1*
X1397802Y6586096D1*
X1380904Y6569198D1*
X1365960Y6558084D1*
X1380904Y6546802D1*
X1397802Y6529904D1*
X1411849Y6510571D1*
X1422698Y6489279D1*
X1430082Y6466551D1*
X1433821Y6442949D1*
Y6419051D1*
X1430082Y6395449D1*
X1422698Y6372721D1*
X1411849Y6351429D1*
X1397802Y6332096D1*
X1380904Y6315198D1*
X1365960Y6304084D1*
X1380904Y6292802D1*
X1397802Y6275904D1*
X1411849Y6256571D1*
X1422698Y6235279D1*
X1430082Y6212551D1*
X1433821Y6188949D1*
Y6165051D1*
X1430082Y6141449D1*
X1422698Y6118721D1*
X1411849Y6097429D1*
X1397802Y6078096D1*
X1380904Y6061198D1*
X1365960Y6050084D1*
X1380904Y6038802D1*
X1397802Y6021904D1*
X1411849Y6002571D1*
X1422698Y5981279D1*
X1430082Y5958551D1*
X1433821Y5934949D1*
Y5911051D1*
X1430082Y5887449D1*
X1422698Y5864721D1*
X1411849Y5843429D1*
X1397802Y5824096D1*
X1380904Y5807198D1*
X1365960Y5796084D1*
X1380904Y5784802D1*
X1397802Y5767904D1*
X1411849Y5748571D1*
X1422698Y5727279D1*
X1430082Y5704551D1*
X1433821Y5680949D1*
Y5657051D1*
X1430082Y5633449D1*
X1422698Y5610721D1*
X1411849Y5589429D1*
X1397802Y5570096D1*
X1380904Y5553198D1*
X1365960Y5542084D1*
X1380904Y5530802D1*
X1397802Y5513904D1*
X1411849Y5494571D1*
X1422698Y5473279D1*
X1430082Y5450551D1*
X1433821Y5426949D1*
Y5403051D1*
X1430082Y5379449D1*
X1422698Y5356721D1*
X1411849Y5335429D1*
X1397802Y5316096D1*
X1380904Y5299198D1*
X1365960Y5288084D1*
X1380904Y5276802D1*
X1397802Y5259904D1*
X1411849Y5240571D1*
X1422698Y5219279D1*
X1430082Y5196551D1*
X1433821Y5172949D1*
Y5149051D1*
X1430082Y5125449D1*
X1422698Y5102721D1*
X1411849Y5081429D1*
X1397802Y5062096D1*
X1395234Y5059317D1*
X1434291Y5059289D1*
Y4754709D1*
X1129711D1*
Y5059289D1*
X1161461D1*
X3079461Y5852289D2*
X3352291D1*
Y5547709D1*
X3047711D1*
Y5586777D1*
X3035514Y5576795D1*
X3015138Y5564309D1*
X2993060Y5555164D1*
X2969823Y5549585D1*
X2946000Y5547710D1*
X2922177Y5549585D1*
X2898940Y5555164D1*
X2876862Y5564309D1*
X2856486Y5576795D1*
X2838315Y5592315D1*
X2822795Y5610486D1*
X2810309Y5630862D1*
X2801164Y5652940D1*
X2795585Y5676177D1*
X2793710Y5700000D1*
X2795585Y5723823D1*
X2801164Y5747060D1*
X2810309Y5769138D1*
X2822795Y5789514D1*
X2838315Y5807685D1*
X2856486Y5823205D1*
X2876862Y5835691D1*
X2898940Y5844836D1*
X2922177Y5850415D1*
X2946000Y5852290D1*
X2969823Y5850415D1*
X2993060Y5844836D1*
X3015138Y5835691D1*
X3035514Y5823205D1*
X3047683Y5813234D1*
X3047711Y5852289D1*
X3079461D1*
X5934040Y5288084D2*
X5919096Y5299198D1*
X5902198Y5316096D1*
X5888151Y5335429D1*
X5877302Y5356721D1*
X5871376Y5374279D1*
X5487246Y4990050D1*
X5487290Y3946683D1*
X5594183Y3839422D1*
X5603848Y3826119D1*
X5611313Y3811468D1*
X5616395Y3795829D1*
X5618967Y3779588D1*
X5619290Y3600500D1*
X5618000Y3584107D1*
X5614161Y3568118D1*
X5607869Y3552926D1*
X5599277Y3538906D1*
X5588598Y3526402D1*
X5424909Y3363170D1*
X5411606Y3353505D1*
X5396955Y3346040D1*
X5381316Y3340959D1*
X5365075Y3338386D1*
X5198103Y3338063D1*
X5052128D1*
X5052227Y2769282D1*
X5269727Y2769230D1*
Y2731651D1*
X5394537Y2731730D1*
X5379851Y2751772D1*
X5369002Y2773064D1*
X5361618Y2795792D1*
X5357879Y2819395D1*
Y2843292D1*
X5361618Y2866895D1*
X5369002Y2889622D1*
X5379851Y2910915D1*
X5393898Y2930248D1*
X5396466Y2933026D1*
X5357411Y2933053D1*
Y3237633D1*
X5661991D1*
Y2933053D1*
X5622923D1*
X5632905Y2920857D1*
X5645391Y2900482D1*
X5654536Y2878404D1*
X5660115Y2855167D1*
X5661990Y2831343D1*
X5660115Y2807520D1*
X5654536Y2784283D1*
X5645391Y2762205D1*
X5632905Y2741830D1*
X5617385Y2723658D1*
X5614470Y2720963D1*
X5614167Y2618718D1*
X5611595Y2602477D1*
X5606514Y2586838D1*
X5599048Y2572187D1*
X5589383Y2558884D1*
X5577756Y2547257D1*
X5564453Y2537592D1*
X5549802Y2530126D1*
X5534163Y2525045D1*
X5517922Y2522473D1*
X5350950Y2522150D1*
X5269715D1*
X5269727Y2484650D1*
X5052314D1*
X5052227Y2401837D1*
X5216927Y2236753D1*
X5226592Y2223450D1*
X5234057Y2208798D1*
X5239138Y2193159D1*
X5241711Y2176918D1*
Y2160475D1*
X5239138Y2144234D1*
X5234057Y2128595D1*
X5226592Y2113944D1*
X5216927Y2100641D1*
X5205299Y2089013D1*
X5191996Y2079348D1*
X5177345Y2071883D1*
X5161706Y2066802D1*
X5144534Y2064193D1*
X5138065Y2063478D1*
X5120945Y2056386D1*
X5102927Y2052061D1*
X5084453Y2050607D1*
X5065980Y2052061D1*
X5047962Y2056386D1*
X5030842Y2063478D1*
X5015042Y2073160D1*
X5000951Y2085194D1*
X4988917Y2099285D1*
X4979234Y2115085D1*
X4972143Y2132205D1*
X4967817Y2150223D1*
X4966363Y2168697D1*
X4968277Y2189479D1*
X4945460Y2188330D1*
X4945202Y1455509D1*
X4942873Y1441558D1*
X4961461Y1437289D1*
X5137291D1*
Y1200032D1*
X5212474Y1199960D1*
X5212396Y1231636D1*
X5200650Y1245482D1*
X5190968Y1261282D1*
X5183876Y1278402D1*
X5179551Y1296420D1*
X5178097Y1314893D1*
X5179551Y1333367D1*
X5183876Y1351385D1*
X5190968Y1368505D1*
X5200650Y1384305D1*
X5212684Y1398396D1*
X5226775Y1410430D1*
X5242575Y1420112D1*
X5259695Y1427204D1*
X5277713Y1431529D1*
X5296187Y1432983D1*
X5314660Y1431529D1*
X5332678Y1427204D1*
X5349798Y1420112D1*
X5365598Y1410430D1*
X5379689Y1398396D1*
X5391723Y1384305D1*
X5401406Y1368505D1*
X5408497Y1351385D1*
X5412823Y1333367D1*
X5414277Y1314893D1*
X5412823Y1296420D1*
X5408497Y1278402D1*
X5401406Y1261282D1*
X5391723Y1245482D1*
X5379959Y1231684D1*
X5379719Y1109596D1*
X5378750Y1102079D1*
X5384000Y1097750D1*
X6152250D1*
Y4835196D1*
X6141205Y4817486D1*
X6125685Y4799315D1*
X6107514Y4783795D1*
X6087138Y4771309D1*
X6065060Y4762164D1*
X6041823Y4756585D1*
X6018000Y4754710D1*
X5994177Y4756585D1*
X5970940Y4762164D1*
X5948862Y4771309D1*
X5928486Y4783795D1*
X5910315Y4799315D1*
X5894795Y4817486D1*
X5882309Y4837862D1*
X5873164Y4859940D1*
X5867585Y4883177D1*
X5865710Y4907000D1*
X5867585Y4930823D1*
X5873164Y4954060D1*
X5882309Y4976138D1*
X5894795Y4996514D1*
X5910315Y5014685D1*
X5928486Y5030205D1*
X5934040Y5033916D1*
X5919096Y5045198D1*
X5902198Y5062096D1*
X5888151Y5081429D1*
X5877302Y5102721D1*
X5869918Y5125449D1*
X5866179Y5149051D1*
Y5172949D1*
X5869918Y5196551D1*
X5877302Y5219279D1*
X5888151Y5240571D1*
X5902198Y5259904D1*
X5919096Y5276802D1*
X5934040Y5287916D1*
X3987171Y6737290D2*
X3987290Y6472710D1*
X3961865D1*
X3963090Y6456200D1*
X3961636Y6437727D1*
X3957310Y6419708D1*
X3950219Y6402588D1*
X3940537Y6386788D1*
X3928502Y6372698D1*
X3914412Y6360663D1*
X3898612Y6350981D1*
X3881492Y6343890D1*
X3863473Y6339564D1*
X3845000Y6338110D1*
X3826527Y6339564D1*
X3808508Y6343890D1*
X3791388Y6350981D1*
X3775588Y6360663D1*
X3761498Y6372698D1*
X3749463Y6386788D1*
X3739781Y6402588D1*
X3732690Y6419708D1*
X3728364Y6437727D1*
X3726910Y6456200D1*
X3728130Y6472695D1*
X3702710Y6472710D1*
Y6695328D1*
X3440312Y6695280D1*
X3426602Y6683533D1*
X3410802Y6673851D1*
X3393682Y6666760D1*
X3375663Y6662434D1*
X3357190Y6660980D1*
X3338717Y6662434D1*
X3320698Y6666760D1*
X3303578Y6673851D1*
X3287778Y6683533D1*
X3273688Y6695568D1*
X3261653Y6709658D1*
X3251971Y6725458D1*
X3244880Y6742578D1*
X3240554Y6760597D1*
X3239100Y6779070D1*
X3240554Y6797543D1*
X3244880Y6815562D1*
X3251971Y6832682D1*
X3261653Y6848482D1*
X3273688Y6862572D1*
X3287778Y6874607D1*
X3303578Y6884289D1*
X3320698Y6891380D1*
X3338717Y6895706D1*
X3357190Y6897160D1*
X3375663Y6895706D1*
X3393682Y6891380D1*
X3410802Y6884289D1*
X3426602Y6874607D1*
X3440400Y6862843D1*
X3702595Y6862860D1*
X3702710Y6927290D1*
X3987290D1*
X3987166Y6662710D1*
X4468214Y1836362D2*
X4454809Y1840899D1*
X4438298Y1849312D1*
X4423307Y1860204D1*
X4410204Y1873307D1*
X4399312Y1888298D1*
X4390899Y1904809D1*
X4385173Y1922432D1*
X4382274Y1940735D1*
Y1959265D1*
X4385173Y1977568D1*
X4390899Y1995191D1*
X4399312Y2011702D1*
X4402350Y2016249D1*
X4230144Y2016210D1*
X4230300Y1970430D1*
X4291966Y1908848D1*
X4340574Y1908662D1*
X4359893Y1904819D1*
X4377780Y1896573D1*
X4393249Y1884379D1*
X4393824Y1883756D1*
X4463715Y1813547D1*
X4468230Y1807718D1*
X4468210Y1836333D1*
X5713472Y10323898D2*
X5699218Y10297279D1*
X5686468Y10278196D1*
X5672259Y10260173D1*
X5656680Y10243320D1*
X5639827Y10227741D1*
X5621804Y10213532D1*
X5602721Y10200782D1*
X5582697Y10189568D1*
X5561855Y10179959D1*
X5540323Y10172016D1*
X5518234Y10165786D1*
X5495724Y10161309D1*
X5472933Y10158611D1*
X5450000Y10157710D1*
X5427067Y10158611D1*
X5404276Y10161309D1*
X5381766Y10165786D1*
X5359677Y10172016D1*
X5338145Y10179959D1*
X5317303Y10189568D1*
X5297279Y10200782D1*
X5278196Y10213532D1*
X5260173Y10227741D1*
X5243320Y10243320D1*
X5227741Y10260173D1*
X5213532Y10278196D1*
X5200782Y10297279D1*
X5189568Y10317303D1*
X5179959Y10338145D1*
X5172016Y10359677D1*
X5165786Y10381766D1*
X5161309Y10404276D1*
X5158611Y10427067D1*
X5157710Y10450000D1*
X5158611Y10472933D1*
X5161309Y10495724D1*
X5165786Y10518234D1*
X5172016Y10540323D1*
X5179959Y10561855D1*
X5189568Y10582697D1*
X5200782Y10602721D1*
X5213532Y10621804D1*
X5227741Y10639827D1*
X5243320Y10656680D1*
X5260173Y10672259D1*
X5278196Y10686468D1*
X5297279Y10699218D1*
X5317303Y10710432D1*
X5338145Y10720041D1*
X5359677Y10727984D1*
X5381766Y10734214D1*
X5404276Y10738691D1*
X5427067Y10741389D1*
X5450000Y10742290D1*
X5472933Y10741389D1*
X5495724Y10738691D1*
X5518234Y10734214D1*
X5540323Y10727984D1*
X5561855Y10720041D1*
X5582697Y10710432D1*
X5602721Y10699218D1*
X5621804Y10686468D1*
X5639827Y10672259D1*
X5656680Y10656680D1*
X5672259Y10639827D1*
X5686468Y10621804D1*
X5699218Y10602721D1*
X5713472Y10576102D1*
X5726612Y10588614D1*
X5749754Y10605428D1*
X5775241Y10618414D1*
X5802445Y10627253D1*
X5830698Y10631728D1*
X5859302D1*
X5887555Y10627253D1*
X5914759Y10618414D1*
X5940246Y10605428D1*
X5963388Y10588614D1*
X5983614Y10568388D1*
X6000428Y10545246D1*
X6013414Y10519759D1*
X6022253Y10492555D1*
X6026728Y10464302D1*
Y10435698D1*
X6022253Y10407445D1*
X6013414Y10380241D1*
X6000428Y10354754D1*
X5983614Y10331612D1*
X5963388Y10311386D1*
X5940246Y10294572D1*
X5914759Y10281586D1*
X5887555Y10272747D1*
X5859302Y10268272D1*
X5830698D1*
X5802445Y10272747D1*
X5775241Y10281586D1*
X5749754Y10294572D1*
X5726612Y10311386D1*
X5713635Y10323770D1*
X5386389Y9927067D2*
X5383691Y9904276D1*
X5379214Y9881766D1*
X5372984Y9859677D1*
X5365041Y9838145D1*
X5355432Y9817303D1*
X5344218Y9797279D1*
X5331468Y9778196D1*
X5317259Y9760173D1*
X5301680Y9743320D1*
X5284827Y9727741D1*
X5266804Y9713532D1*
X5247721Y9700782D1*
X5227697Y9689568D1*
X5206855Y9679959D1*
X5185323Y9672016D1*
X5163234Y9665786D1*
X5140724Y9661309D1*
X5117933Y9658611D1*
X5095000Y9657710D1*
X5072067Y9658611D1*
X5049276Y9661309D1*
X5026766Y9665786D1*
X5004677Y9672016D1*
X4983145Y9679959D1*
X4962303Y9689568D1*
X4942279Y9700782D1*
X4923196Y9713532D1*
X4905173Y9727741D1*
X4888320Y9743320D1*
X4872741Y9760173D1*
X4858532Y9778196D1*
X4845782Y9797279D1*
X4834568Y9817303D1*
X4824959Y9838145D1*
X4817016Y9859677D1*
X4810786Y9881766D1*
X4806309Y9904276D1*
X4803611Y9927067D1*
X4802710Y9950000D1*
X4803611Y9972933D1*
X4806309Y9995724D1*
X4810786Y10018234D1*
X4817016Y10040323D1*
X4824959Y10061855D1*
X4834568Y10082697D1*
X4845782Y10102721D1*
X4858532Y10121804D1*
X4872741Y10139827D1*
X4888320Y10156680D1*
X4905173Y10172259D1*
X4923196Y10186468D1*
X4942279Y10199218D1*
X4962303Y10210432D1*
X4983145Y10220041D1*
X5004677Y10227984D1*
X5026766Y10234214D1*
X5049276Y10238691D1*
X5072067Y10241389D1*
X5095000Y10242290D1*
X5117933Y10241389D1*
X5140724Y10238691D1*
X5163234Y10234214D1*
X5185323Y10227984D1*
X5206855Y10220041D1*
X5227697Y10210432D1*
X5247721Y10199218D1*
X5266804Y10186468D1*
X5284827Y10172259D1*
X5301680Y10156680D1*
X5317259Y10139827D1*
X5331468Y10121804D1*
X5344218Y10102721D1*
X5355432Y10082697D1*
X5365041Y10061855D1*
X5372984Y10040323D1*
X5379214Y10018234D1*
X5383691Y9995724D1*
X5386389Y9972933D1*
X5387290Y9950000D1*
X5386389Y9927067D1*
X3434650Y8945227D2*
X3420428Y8935073D1*
X3400379Y8925027D1*
X3416606Y8917183D1*
X3432449Y8906633D1*
X3446647Y8893956D1*
X3458918Y8879405D1*
X3469017Y8863271D1*
X3476743Y8845875D1*
X3481941Y8827565D1*
X3484509Y8808704D1*
X3484192Y8787319D1*
X3481068Y8768543D1*
X3475330Y8750394D1*
X3467093Y8733235D1*
X3456521Y8717406D1*
X3443824Y8703225D1*
X3429257Y8690974D1*
X3413109Y8680897D1*
X3395703Y8673195D1*
X3377386Y8668021D1*
X3358522Y8665480D1*
X3339488Y8665621D1*
X3320664Y8668441D1*
X3302425Y8673885D1*
X3285135Y8681844D1*
X3269138Y8692159D1*
X3254754Y8704624D1*
X3242269Y8718992D1*
X3231932Y8734975D1*
X3223950Y8752254D1*
X3218481Y8770486D1*
X3215635Y8789306D1*
X3215468Y8808339D1*
X3217984Y8827207D1*
X3223133Y8845531D1*
X3230811Y8862948D1*
X3240867Y8879109D1*
X3253098Y8893693D1*
X3267262Y8906409D1*
X3283076Y8917002D1*
X3299608Y8925001D1*
X3279572Y8935073D1*
X3262461Y8947505D1*
X3251518Y8958120D1*
X3233771Y8970317D1*
X3200455Y9003176D1*
X2767205Y9003210D1*
X2752152Y8988396D1*
X2742794Y8981019D1*
X2760407Y8966029D1*
X2776983Y8946820D1*
X2790255Y8925195D1*
X2799877Y8901718D1*
X2805599Y8876999D1*
X2807290Y8854000D1*
X2805244Y8828710D1*
X2799158Y8804079D1*
X2789190Y8780746D1*
X2775601Y8759319D1*
X2773992Y8757272D1*
X2807290Y8757290D1*
Y8442710D1*
X2492710D1*
Y8757290D1*
X2526073D1*
X2513303Y8776193D1*
X2502571Y8799184D1*
X2495675Y8823601D1*
X2492796Y8848810D1*
X2494006Y8874153D1*
X2499276Y8898972D1*
X2508468Y8922621D1*
X2521343Y8944485D1*
X2537565Y8963993D1*
X2556713Y8980640D1*
X2538779Y8996779D1*
X2522750Y9015547D1*
X2509854Y9036592D1*
X2500408Y9059395D1*
X2494647Y9083394D1*
X2492710Y9108000D1*
X2494647Y9132606D1*
X2500408Y9156605D1*
X2509854Y9179408D1*
X2522750Y9200453D1*
X2538779Y9219221D1*
X2557547Y9235250D1*
X2578592Y9248146D1*
X2601395Y9257592D1*
X2625394Y9263353D1*
X2650000Y9265290D1*
X2674606Y9263353D1*
X2698605Y9257592D1*
X2721408Y9248146D1*
X2742453Y9235250D1*
X2761221Y9219221D1*
X2767214Y9212738D1*
X3252048Y9212467D1*
X3268289Y9209895D1*
X3283928Y9204813D1*
X3298579Y9197348D1*
X3311882Y9187683D1*
X3318889Y9181133D1*
X3339424Y9184374D1*
X3360576D1*
X3381466Y9181066D1*
X3401582Y9174530D1*
X3420428Y9164927D1*
X3428437Y9159576D1*
X3456944Y9187683D1*
X3470247Y9197348D1*
X3484899Y9204814D1*
X3500537Y9209895D1*
X3516778Y9212467D1*
X3683750Y9212790D1*
X3926594Y9213399D1*
X3944601Y9231406D1*
X3965204Y9246375D1*
X3987894Y9257936D1*
X4012114Y9265806D1*
X4037267Y9269790D1*
X4062733D1*
X4087886Y9265806D1*
X4112106Y9257936D1*
X4134796Y9246375D1*
X4155399Y9231406D1*
X4173930Y9212734D1*
X4752400Y9212770D1*
X4752304Y9265269D1*
X5066884D1*
Y8950689D1*
X5033522D1*
X5043649Y8936255D1*
X5055133Y8913631D1*
X5062831Y8889454D1*
X5066541Y8864355D1*
X5066371Y8841294D1*
X5062291Y8816251D1*
X5054239Y8792191D1*
X5042422Y8769738D1*
X5027149Y8749477D1*
X5008817Y8731936D1*
X5002380Y8727004D1*
X5020814Y8711201D1*
X5036844Y8692433D1*
X5049740Y8671388D1*
X5059185Y8648585D1*
X5064947Y8624586D1*
X5066883Y8599980D1*
X5064947Y8575374D1*
X5059185Y8551375D1*
X5049740Y8528572D1*
X5036844Y8507527D1*
X5020814Y8488759D1*
X5002046Y8472730D1*
X4981001Y8459834D1*
X4958199Y8450388D1*
X4934199Y8444627D1*
X4909593Y8442690D1*
X4884988Y8444627D1*
X4860988Y8450388D1*
X4838185Y8459834D1*
X4817141Y8472730D1*
X4798373Y8488759D1*
X4782343Y8507527D1*
X4769447Y8528572D1*
X4760002Y8551375D1*
X4754240Y8575374D1*
X4752303Y8599980D1*
X4754240Y8624586D1*
X4760002Y8648585D1*
X4769447Y8671388D1*
X4782343Y8692433D1*
X4798373Y8711201D1*
X4816800Y8726961D1*
X4800015Y8741141D1*
X4783298Y8760227D1*
X4769867Y8781753D1*
X4760072Y8805159D1*
X4754168Y8829835D1*
X4752308Y8855139D1*
X4754540Y8880413D1*
X4760808Y8904999D1*
X4770946Y8928258D1*
X4784693Y8949584D1*
X4785575Y8950689D1*
X4752304D1*
Y9003151D1*
X4173935Y9003210D1*
X4155399Y8984594D1*
X4150903Y8981050D1*
X4164756Y8968756D1*
X4181295Y8949392D1*
X4194601Y8927678D1*
X4204347Y8904150D1*
X4210292Y8879388D1*
X4212290Y8854000D1*
X4210292Y8828612D1*
X4204347Y8803850D1*
X4194601Y8780322D1*
X4183757Y8762292D1*
X4212290Y8762290D1*
Y8437710D1*
X3887710D1*
Y8762290D1*
X3916112D1*
X3905399Y8780322D1*
X3895653Y8803850D1*
X3889708Y8828612D1*
X3887710Y8854000D1*
X3889708Y8879388D1*
X3895653Y8904150D1*
X3905399Y8927678D1*
X3918705Y8949392D1*
X3935244Y8968756D1*
X3949097Y8980950D1*
X3935244Y8993244D1*
X3926070Y9003266D1*
X3568417Y9003210D1*
X3535056Y8970317D1*
X3521753Y8960652D1*
X3507101Y8953186D1*
X3491463Y8948105D1*
X3475222Y8945533D1*
X3434878Y8945210D1*
X5049973Y7624621D2*
X5039927Y7604572D1*
X5027495Y7587461D1*
X5012539Y7572505D1*
X4995428Y7560073D1*
X4976582Y7550470D1*
X4956466Y7543934D1*
X4935576Y7540626D1*
X4914424D1*
X4893534Y7543934D1*
X4873418Y7550470D1*
X4854572Y7560073D1*
X4837461Y7572505D1*
X4822505Y7587461D1*
X4810073Y7604572D1*
X4800470Y7623418D1*
X4793934Y7643534D1*
X4790626Y7664424D1*
Y7685576D1*
X4793934Y7706466D1*
X4800470Y7726582D1*
X4810073Y7745428D1*
X4822505Y7762539D1*
X4837461Y7777495D1*
X4854572Y7789927D1*
X4873418Y7799530D1*
X4893534Y7806066D1*
X4914424Y7809374D1*
X4935576D1*
X4956466Y7806066D1*
X4976582Y7799530D1*
X4995428Y7789927D1*
X5012539Y7777495D1*
X5027495Y7762539D1*
X5039927Y7745428D1*
X5049973Y7725379D1*
X5058908Y7743491D1*
X5069713Y7759161D1*
X5082618Y7773152D1*
X5097365Y7785187D1*
X5113660Y7795024D1*
X5131178Y7802468D1*
X5149570Y7807369D1*
X5168470Y7809632D1*
X5187499Y7809209D1*
X5206279Y7806110D1*
X5224436Y7800397D1*
X5241606Y7792183D1*
X5257449Y7781633D1*
X5271647Y7768956D1*
X5283918Y7754405D1*
X5294017Y7738271D1*
X5301743Y7720875D1*
X5306941Y7702565D1*
X5309509Y7683704D1*
X5309192Y7662319D1*
X5306068Y7643543D1*
X5300330Y7625394D1*
X5292093Y7608235D1*
X5281521Y7592406D1*
X5268824Y7578225D1*
X5254257Y7565974D1*
X5238109Y7555897D1*
X5220703Y7548195D1*
X5202386Y7543021D1*
X5183522Y7540480D1*
X5164488Y7540621D1*
X5145664Y7543441D1*
X5127425Y7548885D1*
X5110135Y7556844D1*
X5094138Y7567159D1*
X5079754Y7579624D1*
X5067269Y7593992D1*
X5056932Y7609975D1*
X5050023Y7624611D1*
X1339460Y8992290D2*
X1592290D1*
Y8707710D1*
X1307710D1*
Y8992290D1*
X1339460D1*
X2091851Y8838836D2*
X2088359Y8816783D1*
X2081459Y8795548D1*
X2071322Y8775654D1*
X2058198Y8757590D1*
X2042410Y8741802D1*
X2024346Y8728678D1*
X2004452Y8718541D1*
X1983217Y8711641D1*
X1961164Y8708149D1*
X1938836D1*
X1916783Y8711641D1*
X1895548Y8718541D1*
X1875654Y8728678D1*
X1857590Y8741802D1*
X1841802Y8757590D1*
X1828678Y8775654D1*
X1818541Y8795548D1*
X1811641Y8816783D1*
X1808149Y8838836D1*
Y8861164D1*
X1811641Y8883217D1*
X1818541Y8904452D1*
X1828678Y8924346D1*
X1841802Y8942410D1*
X1857590Y8958198D1*
X1875654Y8971322D1*
X1895548Y8981459D1*
X1916783Y8988359D1*
X1938836Y8991851D1*
X1961164D1*
X1983217Y8988359D1*
X2004452Y8981459D1*
X2024346Y8971322D1*
X2042410Y8958198D1*
X2058198Y8942410D1*
X2071322Y8924346D1*
X2081459Y8904452D1*
X2088359Y8883217D1*
X2091851Y8861164D1*
Y8838836D1*
X3194460Y7987290D2*
X3537290D1*
Y7612710D1*
X3162710D1*
Y7634662D1*
X2843789Y7315739D1*
X2843750Y6742338D1*
X3042290Y6742290D1*
Y6457710D1*
X2757710D1*
Y6495289D1*
X2730738Y6495533D1*
X2714497Y6498105D1*
X2698859Y6503186D1*
X2684207Y6510652D1*
X2670904Y6520317D1*
X2659277Y6531944D1*
X2649612Y6545247D1*
X2642146Y6559899D1*
X2637065Y6575537D1*
X2634493Y6591778D1*
X2634170Y6758750D1*
X2634493Y7367328D1*
X2637065Y7383569D1*
X2642146Y7399208D1*
X2649612Y7413859D1*
X2659277Y7427162D1*
X2777115Y7545458D1*
X3111797Y7879683D1*
X3125101Y7889348D1*
X3139752Y7896814D1*
X3156305Y7902077D1*
X3162710Y7930210D1*
Y7987290D1*
X3194460D1*
X3169060Y8427290D2*
X3537290D1*
Y8052710D1*
X3162710D1*
Y8427290D1*
X3169060D1*
X2542148Y6593652D2*
X2540029Y6574735D1*
X2535403Y6556269D1*
X2528354Y6538587D1*
X2519008Y6522003D1*
X2507532Y6506816D1*
X2494132Y6493296D1*
X2479046Y6481686D1*
X2462546Y6472194D1*
X2444927Y6464989D1*
X2426503Y6460200D1*
X2407605Y6457913D1*
X2388571Y6458170D1*
X2369741Y6460965D1*
X2351453Y6466248D1*
X2334034Y6473925D1*
X2317796Y6483858D1*
X2303029Y6495870D1*
X2289997Y6509746D1*
X2278934Y6525237D1*
X2270038Y6542066D1*
X2263468Y6559932D1*
X2259341Y6578515D1*
X2257732Y6597483D1*
X2258669Y6616496D1*
X2262136Y6635213D1*
X2268070Y6653300D1*
X2276365Y6670434D1*
X2286873Y6686306D1*
X2299406Y6700634D1*
X2313739Y6713161D1*
X2329616Y6723663D1*
X2346753Y6731951D1*
X2364842Y6737878D1*
X2383561Y6741337D1*
X2402574Y6742267D1*
X2421541Y6740650D1*
X2440122Y6736516D1*
X2457986Y6729939D1*
X2474811Y6721036D1*
X2490298Y6709967D1*
X2504169Y6696930D1*
X2516175Y6682158D1*
X2526102Y6665915D1*
X2533772Y6648493D1*
X2539048Y6630203D1*
X2541835Y6611372D1*
X2542148Y6593652D1*
X2031676Y10497637D2*
X2028434Y10477166D1*
X2022029Y10457454D1*
X2012620Y10438987D1*
X2000437Y10422219D1*
X1985781Y10407563D1*
X1969013Y10395380D1*
X1950546Y10385971D1*
X1930834Y10379566D1*
X1910363Y10376324D1*
X1889637D1*
X1869166Y10379566D1*
X1849454Y10385971D1*
X1830987Y10395380D1*
X1814219Y10407563D1*
X1799563Y10422219D1*
X1787380Y10438987D1*
X1777971Y10457454D1*
X1771566Y10477166D1*
X1768324Y10497637D1*
Y10518363D1*
X1771566Y10538834D1*
X1777971Y10558546D1*
X1787380Y10577013D1*
X1799563Y10593781D1*
X1814219Y10608437D1*
X1830987Y10620620D1*
X1849454Y10630029D1*
X1869166Y10636434D1*
X1889637Y10639676D1*
X1910363D1*
X1930834Y10636434D1*
X1950546Y10630029D1*
X1969013Y10620620D1*
X1985781Y10608437D1*
X2000437Y10593781D1*
X2012620Y10577013D1*
X2022029Y10558546D1*
X2028434Y10538834D1*
X2031676Y10518363D1*
Y10497637D1*
X1523676D2*
X1520434Y10477166D1*
X1514029Y10457454D1*
X1504620Y10438987D1*
X1492437Y10422219D1*
X1477781Y10407563D1*
X1461013Y10395380D1*
X1442546Y10385971D1*
X1422834Y10379566D1*
X1402363Y10376324D1*
X1381637D1*
X1361166Y10379566D1*
X1341454Y10385971D1*
X1322987Y10395380D1*
X1306219Y10407563D1*
X1291563Y10422219D1*
X1279380Y10438987D1*
X1269971Y10457454D1*
X1263566Y10477166D1*
X1260324Y10497637D1*
Y10518363D1*
X1263566Y10538834D1*
X1269971Y10558546D1*
X1279380Y10577013D1*
X1291563Y10593781D1*
X1306219Y10608437D1*
X1322987Y10620620D1*
X1341454Y10630029D1*
X1361166Y10636434D1*
X1381637Y10639676D1*
X1402363D1*
X1422834Y10636434D1*
X1442546Y10630029D1*
X1461013Y10620620D1*
X1477781Y10608437D1*
X1492437Y10593781D1*
X1504620Y10577013D1*
X1514029Y10558546D1*
X1520434Y10538834D1*
X1523676Y10518363D1*
Y10497637D1*
X6001526Y8475835D2*
X5998627Y8457532D1*
X5992901Y8439909D1*
X5984488Y8423398D1*
X5973596Y8408407D1*
X5960493Y8395304D1*
X5945502Y8384412D1*
X5928991Y8375999D1*
X5911368Y8370273D1*
X5893065Y8367374D1*
X5883764Y8367011D1*
X5883532Y8053226D1*
X5879689Y8033907D1*
X5871443Y8016020D1*
X5867290Y8009000D1*
X5865836Y7990527D1*
X5861510Y7972508D1*
X5854419Y7955388D1*
X5844737Y7939588D1*
X5832702Y7925498D1*
X5818612Y7913463D1*
X5802812Y7903781D1*
X5785692Y7896690D1*
X5767673Y7892364D1*
X5749200Y7890910D1*
X5730727Y7892364D1*
X5712708Y7896690D1*
X5695588Y7903781D1*
X5679788Y7913463D1*
X5665698Y7925498D1*
X5653663Y7939588D1*
X5643981Y7955388D1*
X5636890Y7972508D1*
X5632564Y7990527D1*
X5631110Y8009000D1*
X5632564Y8027473D1*
X5636890Y8045492D1*
X5643981Y8062612D1*
X5653663Y8078412D1*
X5665698Y8092502D1*
X5679788Y8104537D1*
X5695588Y8114219D1*
X5716229Y8122303D1*
X5716468Y8491674D1*
X5720311Y8510993D1*
X5728557Y8528880D1*
X5740751Y8544349D1*
X5756220Y8556543D1*
X5774107Y8564789D1*
X5793426Y8568632D1*
X5800620Y8568890D1*
X5814388Y8580637D1*
X5830188Y8590319D1*
X5847308Y8597410D1*
X5865327Y8601736D1*
X5883800Y8603190D1*
X5902273Y8601736D1*
X5920292Y8597410D1*
X5937412Y8590319D1*
X5953212Y8580637D1*
X5967302Y8568602D1*
X5979337Y8554512D1*
X5989019Y8538712D1*
X5996110Y8521592D1*
X6000436Y8503573D1*
X6001890Y8485100D1*
X6001526Y8475835D1*
X4175487Y1788332D2*
X4082795Y1881389D1*
X4071852Y1897767D1*
X4065035Y1916246D1*
X4063290Y1927443D1*
X3504870Y1927518D1*
X3504612Y1818556D1*
X3500769Y1799237D1*
X3492523Y1781350D1*
X3480329Y1765881D1*
X3464860Y1753687D1*
X3446973Y1745441D1*
X3427654Y1741598D1*
X3135330Y1741340D1*
X1884610Y1741357D1*
X1870812Y1729593D1*
X1855012Y1719911D1*
X1837892Y1712820D1*
X1819873Y1708494D1*
X1801400Y1707040D1*
X1782927Y1708494D1*
X1764908Y1712820D1*
X1747788Y1719911D1*
X1731988Y1729593D1*
X1717898Y1741628D1*
X1705863Y1755718D1*
X1696181Y1771518D1*
X1689090Y1788638D1*
X1684764Y1806657D1*
X1683310Y1825130D1*
X1684764Y1843603D1*
X1689090Y1861622D1*
X1696181Y1878742D1*
X1705863Y1894542D1*
X1717898Y1908632D1*
X1731988Y1920667D1*
X1747788Y1930349D1*
X1764908Y1937440D1*
X1782927Y1941766D1*
X1801400Y1943220D1*
X1819873Y1941766D1*
X1837892Y1937440D1*
X1855012Y1930349D1*
X1870812Y1920667D1*
X1884610Y1908903D1*
X3337430Y1908920D1*
X3337329Y2012235D1*
X3311750Y2016210D1*
X1633093D1*
X1619412Y2004463D1*
X1603612Y1994781D1*
X1586492Y1987690D1*
X1568473Y1983364D1*
X1550000Y1981910D1*
X1531527Y1983364D1*
X1513508Y1987690D1*
X1496388Y1994781D1*
X1480588Y2004463D1*
X1466498Y2016498D1*
X1452310Y2033811D1*
X1452291Y1797709D1*
X1147711D1*
Y2102289D1*
X1186778D1*
X1176795Y2114486D1*
X1164309Y2134862D1*
X1155164Y2156940D1*
X1149585Y2180177D1*
X1147710Y2204000D1*
X1149585Y2227823D1*
X1155164Y2251060D1*
X1164309Y2273138D1*
X1176795Y2293514D1*
X1192315Y2311685D1*
X1210486Y2327205D1*
X1216040Y2330916D1*
X1201096Y2342198D1*
X1184198Y2359096D1*
X1170151Y2378429D1*
X1159302Y2399721D1*
X1151918Y2422449D1*
X1148179Y2446051D1*
Y2469949D1*
X1151918Y2493551D1*
X1159302Y2516279D1*
X1170151Y2537571D1*
X1184198Y2556904D1*
X1201096Y2573802D1*
X1216040Y2584916D1*
X1201096Y2596198D1*
X1184198Y2613096D1*
X1170151Y2632429D1*
X1159302Y2653721D1*
X1151918Y2676449D1*
X1148179Y2700051D1*
Y2723949D1*
X1151918Y2747551D1*
X1159302Y2770279D1*
X1170151Y2791571D1*
X1184198Y2810904D1*
X1201096Y2827802D1*
X1216040Y2838916D1*
X1201096Y2850198D1*
X1184198Y2867096D1*
X1170151Y2886429D1*
X1159302Y2907721D1*
X1151918Y2930449D1*
X1148179Y2954051D1*
Y2977949D1*
X1151918Y3001551D1*
X1159302Y3024279D1*
X1170151Y3045571D1*
X1184198Y3064904D1*
X1201096Y3081802D1*
X1216040Y3092916D1*
X1201096Y3104198D1*
X1184198Y3121096D1*
X1170151Y3140429D1*
X1159302Y3161721D1*
X1151918Y3184449D1*
X1148179Y3208051D1*
Y3231949D1*
X1151918Y3255551D1*
X1159302Y3278279D1*
X1170151Y3299571D1*
X1184198Y3318904D1*
X1201096Y3335802D1*
X1216040Y3346916D1*
X1199293Y3359761D1*
X1185827Y3373219D1*
X1174146Y3388251D1*
X1164431Y3404623D1*
X1156834Y3422079D1*
X1151475Y3440347D1*
X1148437Y3459141D1*
X1147767Y3478166D1*
X1149476Y3497127D1*
X1153538Y3515726D1*
X1159888Y3533674D1*
X1168428Y3550688D1*
X1179024Y3566504D1*
X1191511Y3580875D1*
X1205693Y3593576D1*
X1215960Y3601002D1*
X1201096Y3612198D1*
X1184198Y3629096D1*
X1170151Y3648429D1*
X1159302Y3669721D1*
X1151918Y3692449D1*
X1148179Y3716051D1*
Y3739949D1*
X1150943Y3758649D1*
X1097780Y3811723D1*
X1097750Y1097750D1*
X3233310D1*
X3202306Y1129052D1*
X3191624Y1145038D1*
X3184970Y1163076D1*
X3182710Y1182170D1*
X3182742Y1182997D1*
X3182710Y1509964D1*
X3168963Y1525768D1*
X3159281Y1541568D1*
X3152190Y1558688D1*
X3147864Y1576707D1*
X3146410Y1595180D1*
X3147864Y1613653D1*
X3152190Y1631672D1*
X3159281Y1648792D1*
X3168963Y1664592D1*
X3180998Y1678682D1*
X3195088Y1690717D1*
X3210888Y1700399D1*
X3228008Y1707490D1*
X3246027Y1711816D1*
X3264500Y1713270D1*
X3282973Y1711816D1*
X3300992Y1707490D1*
X3318112Y1700399D1*
X3333912Y1690717D1*
X3348002Y1678682D1*
X3360037Y1664592D1*
X3369719Y1648792D1*
X3376810Y1631672D1*
X3381136Y1613653D1*
X3382590Y1595180D1*
X3381136Y1576707D1*
X3376810Y1558688D1*
X3369719Y1541568D1*
X3360037Y1525768D1*
X3346273Y1510080D1*
X3346290Y1437298D1*
X3550711Y1437290D1*
X3551180Y1489324D1*
X3554365Y1500618D1*
X3560098Y1510856D1*
X3566096Y1517654D1*
X3567711Y1530759D1*
Y1642289D1*
X3927485D1*
X3925094Y1658321D1*
Y1676852D1*
X3927993Y1695154D1*
X3933719Y1712778D1*
X3942132Y1729289D1*
X3953024Y1744280D1*
X3966127Y1757383D1*
X3981118Y1768275D1*
X3997629Y1776688D1*
X4015252Y1782414D1*
X4033555Y1785313D1*
X4052085D1*
X4070388Y1782414D1*
X4088011Y1776688D1*
X4104522Y1768275D1*
X4119513Y1757383D1*
X4127920Y1749360D1*
X4148488Y1748370D1*
X4166993Y1743151D1*
X4183768Y1733756D1*
X4203066Y1715883D1*
X4216170Y1701355D1*
X4225564Y1684580D1*
X4230783Y1666075D1*
X4231790Y1653280D1*
X4232290Y1642166D1*
X4318188Y1642290D1*
X4318210Y1722479D1*
X4299397Y1741340D1*
X4250613Y1741598D1*
X4231294Y1745441D1*
X4213406Y1753687D1*
X4197938Y1765881D1*
X4197362Y1766504D1*
X4175487Y1788332D1*
X2957834Y5140000D2*
D14*
X3242166D1*
X3557834D2*
X3842166D1*
X4077834Y4250000D2*
X4210000D1*
X4507835Y6100000D2*
X4792166D1*
X1147834Y3474000D2*
X1452166D1*
X5897834Y7642000D2*
X6050000D1*
X5897834Y8842000D2*
X6050000D1*
X5865834Y5923000D2*
X6018000D1*
X4957834Y5190000D2*
X5242166D1*
X3747834Y5700000D2*
X4152166D1*
X3215334Y8800000D2*
X3484666D1*
X2492834Y8854000D2*
X2807166D1*
X4752427Y8853980D2*
X5066759D1*
X5175000Y7675000D2*
X5309666D1*
X4570335Y5670000D2*
X4670000D1*
X3162834Y8240000D2*
X3537166D1*
X2257834Y6600000D2*
X2542166D1*
D17*
X3100000Y4950000D3*
Y5140000D3*
X3700000Y4950000D3*
Y5140000D3*
X4650000Y6650000D3*
Y6840000D3*
X3655000Y10295000D3*
Y10105000D3*
D18*
X4400000Y4250000D3*
X4210000D3*
D17*
X4650000Y6290000D3*
Y6100000D3*
D19*
X1300000Y1950000D3*
D20*
Y2204000D3*
Y2458000D3*
Y2712000D3*
Y2966000D3*
Y3220000D3*
Y3474000D3*
Y3728000D3*
Y3982000D3*
Y4236000D3*
D19*
X1282000Y4907000D3*
D20*
Y5161000D3*
Y5415000D3*
Y5669000D3*
Y5923000D3*
Y6177000D3*
Y6431000D3*
Y6685000D3*
Y6939000D3*
Y7193000D3*
D19*
X6050000Y8150000D3*
D20*
Y7896000D3*
Y7642000D3*
D19*
X3200000Y5700000D3*
D20*
X2946000D3*
D19*
X6050000Y9350000D3*
D20*
Y9096000D3*
Y8842000D3*
D19*
X6018000Y7193000D3*
D20*
Y6939000D3*
Y6685000D3*
Y6431000D3*
Y6177000D3*
Y5923000D3*
Y5669000D3*
Y5415000D3*
Y5161000D3*
Y4907000D3*
D19*
X4450000Y3150000D3*
D20*
Y3404000D3*
D19*
X5509700Y3085343D3*
D20*
Y2831343D3*
D18*
X3250000Y4250000D3*
X3440000D3*
X5137437Y2626940D3*
X4947437D3*
X4450000Y2800000D3*
X4260000D3*
D17*
X3845000Y6605000D3*
Y6795000D3*
X5100000Y5190000D3*
Y5000000D3*
D21*
X5450000Y10450000D3*
X5095000Y9950000D3*
X4790000Y10450000D3*
D22*
X3950000Y5700000D3*
Y5980000D3*
D23*
X3350000Y9050000D3*
Y8800000D3*
X3000000Y10350000D3*
Y10100000D3*
D24*
X2650000Y8600000D3*
D25*
Y9108000D3*
Y8854000D3*
D24*
X4909593Y9107980D3*
D25*
Y8599980D3*
Y8853980D3*
D23*
X4925000Y7675000D3*
X5175000D3*
D27*
X4860000Y5670000D3*
X4670000D3*
X4765000Y5440000D3*
D28*
X4800000Y1450000D3*
X4750000D3*
X4700000D3*
X4650000D3*
X4600000D3*
X4550000D3*
X4500000D3*
X4450000D3*
X4400000D3*
X4350000D3*
X4300000D3*
X4250000D3*
X4200000D3*
X4150000D3*
X4100000D3*
X4050000D3*
X4000000D3*
X3950000D3*
X3900000D3*
X3850000D3*
X3800000D3*
X3750000D3*
X3700000D3*
X3650000D3*
D29*
X4970000Y1270000D3*
X3480000D3*
D30*
X1450000Y8850000D3*
D31*
X1950000D3*
D33*
X3350000Y7800000D3*
Y8240000D3*
D30*
X2900000Y6600000D3*
D31*
X2400000D3*
D34*
X1900000Y10000000D3*
X1646000D3*
X1392000D3*
D35*
X4050000Y8600000D3*
D36*
Y8854000D3*
Y9108000D3*
D22*
X4200000Y10380000D3*
Y10100000D3*
M02*
