G04 DipTrace 3.0.0.2*
G04 Top.gbr*
%MOIN*%
G04 #@! TF.FileFunction,Copper,L1,Top*
G04 #@! TF.Part,Single*
G04 #@! TA.AperFunction,Conductor*
%ADD10C,0.009843*%
%ADD13C,0.015748*%
G04 #@! TA.AperFunction,CopperBalancing*
%ADD14C,0.012992*%
G04 #@! TA.AperFunction,Conductor*
%ADD15C,0.011811*%
G04 #@! TA.AperFunction,CopperBalancing*
%ADD16C,0.025*%
%ADD17R,0.059055X0.051181*%
%ADD18R,0.051181X0.059055*%
G04 #@! TA.AperFunction,ComponentPad*
%ADD19R,0.066929X0.066929*%
%ADD20C,0.066929*%
%ADD23R,0.027559X0.009843*%
%ADD24R,0.066929X0.149606*%
%ADD25R,0.027559X0.035433*%
%ADD26R,0.07874X0.023622*%
%ADD27R,0.015748X0.070866*%
G04 #@! TA.AperFunction,ComponentPad*
%ADD28C,0.059055*%
G04 #@! TA.AperFunction,ViaPad*
%ADD29C,0.04*%
%FSLAX26Y26*%
G04*
G70*
G90*
G75*
G01*
G04 Top*
%LPD*%
X1594488Y1102362D2*
D13*
X1574803Y1122047D1*
Y1200787D1*
Y1279528D1*
X1594488Y1299213D1*
X1614173D1*
Y1324803D1*
X1620079Y1330709D1*
X1594488Y1299213D2*
Y1330709D1*
X1496063Y1275591D2*
X1570866D1*
X1574803Y1279528D1*
X1696850Y1102362D2*
Y1177165D1*
X1673228Y1200787D1*
X1574803D1*
X1722441Y1330709D2*
Y1250000D1*
X1709007Y1236566D1*
X1673228Y1200787D1*
X2047244Y1086614D2*
X2129921D1*
X2185039Y1141732D1*
Y1299213D1*
X2251575Y1365748D1*
X2349606D1*
X2047244Y1086614D2*
X1944882D1*
X1811024Y1220472D1*
X1725100D1*
X1709007Y1236566D1*
X1710238Y1758672D2*
Y1918899D1*
X1730315Y1938976D1*
X1673228Y1909449D2*
D10*
X1694882D1*
D13*
X1700787D1*
X1730315Y1938976D1*
X1671260Y1102362D2*
Y923228D1*
X1653543Y905512D1*
X1645669Y1330709D2*
Y1385827D1*
X1633858Y1397638D1*
X1574803D1*
X1555118Y1417323D1*
X1748031Y1330709D2*
Y1401575D1*
X1732283Y1417323D1*
X1696850Y1330709D2*
Y1381890D1*
X1732283Y1417323D1*
X796098Y745340D2*
X783377Y758062D1*
Y880840D1*
X786832Y877385D1*
X854220D1*
X849037Y929222D2*
X839652Y938606D1*
Y954927D1*
X854220Y877385D2*
X839652Y891953D1*
Y954927D1*
X1323088Y748031D2*
X1320756Y750364D1*
Y809996D1*
X1303478Y827274D1*
X1192891D1*
X1161789Y858377D1*
X1147966D1*
X2032510Y1702144D2*
X2023280Y1692913D1*
X1889764D1*
X1830709D1*
X1889764Y1775591D2*
Y1692913D1*
X1730315Y1938976D2*
D3*
X1710238Y1758672D2*
X1706552Y1754987D1*
Y1647946D1*
X1679169Y1620563D1*
X1544734D1*
X1098425Y1642913D2*
X1052362D1*
X1033411Y1623962D1*
X1023622Y1614173D1*
Y1295276D1*
X1082677Y1236220D1*
X1033411Y1623962D2*
Y1864119D1*
X1082677Y1913386D1*
X1673228Y1948819D2*
D10*
X1555118D1*
D13*
X1472441D1*
X885827Y1542913D2*
X779921D1*
X748031Y1574803D1*
Y1614173D1*
X1358268Y1850394D2*
X1439084D1*
X1494777Y1906087D1*
X1504975Y1916285D1*
X1472441Y1948819D1*
X1259843Y1751969D2*
X1318898Y1692913D1*
X1472441Y1948819D2*
X1470542Y1950718D1*
Y2109047D1*
X1533286Y1851580D2*
X1494777Y1890089D1*
Y1906087D1*
X2047244Y1224409D2*
D14*
X1972441D1*
X1968504Y1220472D1*
X2047244Y1224409D2*
Y1161417D1*
X885827Y1492913D2*
D13*
X731496D1*
X688976Y1535433D1*
X1098425Y1492913D2*
X1214239D1*
X1246639Y1525314D1*
X1968504Y1220472D2*
X1909449D1*
X1889764Y1240157D1*
X885827Y1592913D2*
X807087D1*
Y1653543D1*
X767717Y1692913D1*
X728346D1*
X688976Y1653543D1*
Y1535433D1*
X1098425Y1592913D2*
X1100000Y1594488D1*
X1141732D1*
X1181102Y1633858D1*
X1240157D1*
X1246639Y1627377D1*
Y1525314D1*
X1645669Y1102362D2*
Y996063D1*
X1584559Y934953D1*
Y843492D1*
X1567273Y826206D1*
X1370988Y629921D1*
X1224663D1*
X1165608Y688976D1*
X1529505Y854849D2*
X1558148Y826206D1*
X1567273D1*
X1082677Y1161417D2*
Y763780D1*
X1165608D1*
X1232537D1*
X1248285Y748031D1*
X1098425Y1442913D2*
X1155512D1*
X1161417Y1437008D1*
X1181102D1*
X1240157Y1377953D1*
Y1236220D1*
X1220472D1*
Y1909449D2*
X1200787D1*
X1395972Y1714264D1*
Y1377953D1*
X1240157D1*
X1220472Y1984252D2*
Y2066929D1*
X1098425Y1392913D2*
Y1381890D1*
X1141732Y1338583D1*
X1455270Y1374316D2*
Y1712598D1*
X1457801D1*
X703194Y1013291D2*
X719633Y1029730D1*
X839652D1*
X807087Y1062295D1*
Y1161417D1*
X885827Y1642913D2*
X935827D1*
X964567Y1614173D1*
Y1255906D1*
X946850Y1238189D1*
X944882Y1913386D2*
Y1636420D1*
X964567Y1614173D1*
X885827Y1692913D2*
Y1988189D1*
X944882D1*
X472441Y2455906D2*
X629921D1*
Y2460630D1*
X669291D1*
X826772Y2303150D1*
X885827D1*
X925197Y2263780D1*
Y2007874D1*
X944882Y1988189D1*
X1722441Y1102362D2*
X1722525Y1102278D1*
Y889465D1*
X1601803Y768743D1*
X1378944Y545883D1*
X980181D1*
X953579Y572486D1*
Y669130D1*
X1601803Y768743D2*
X1632987Y737559D1*
X1635299D1*
X885827Y1442913D2*
X793307D1*
X708661Y1358268D1*
Y1334646D1*
X807087Y1236220D1*
X708661Y1358268D2*
X649606D1*
Y1751969D1*
X807087Y1909449D1*
X946850Y1163386D2*
Y750661D1*
X953579Y743933D1*
X952172Y745340D1*
X870902D1*
X1671260Y1330709D2*
Y1438976D1*
X1633858Y1476378D1*
X1773622Y1102362D2*
X1791339D1*
X1929134Y964567D1*
X2185039D1*
Y1001181D1*
X2349606Y1165748D1*
X1773622Y1330709D2*
Y1379367D1*
X1863043Y1468789D1*
X1220472Y1161417D2*
Y1000000D1*
X1366631Y1000085D2*
X1366546Y1000000D1*
X1220472D1*
X1098425Y1692913D2*
Y1748031D1*
X1102362Y1751969D1*
Y1771654D1*
X1161417Y1830709D1*
Y1968504D1*
X1141732Y1988189D1*
X1082677D1*
Y2244094D1*
X1062992D1*
X651181Y2655906D1*
X472441D1*
X1673228Y1968504D2*
D10*
X1653543D1*
D15*
X1633634Y1988413D1*
D13*
X1574803Y2047244D1*
X1673228Y1929134D2*
D10*
X1651575D1*
D13*
X1614173D1*
X1594488Y1909449D1*
X1574803Y1988189D2*
Y2047244D1*
X1787402Y1870079D2*
D10*
Y1857283D1*
D13*
Y1826772D1*
X1771654Y1811024D1*
Y1614173D1*
X1830709Y1555118D1*
X1948819D1*
X2125984Y1377953D1*
X1787402Y1948819D2*
D10*
X1809055D1*
D15*
X1913629D1*
D13*
X1976929Y2012119D1*
X2039333D1*
X1098425Y1542913D2*
X1153719D1*
X1194621Y1583815D1*
X1318898Y1574803D2*
Y1618110D1*
X2203232Y1850394D2*
X2146115Y1907510D1*
X2116741D1*
X2039333Y1984919D1*
Y2012119D1*
X1673228Y1988189D2*
D10*
Y2000984D1*
D13*
Y2062992D1*
X1696850Y2086614D1*
X1787402Y1988189D2*
D10*
Y2000984D1*
D13*
Y2070866D1*
X1771654Y2086614D1*
X1787402Y1968504D2*
D10*
X1811024D1*
D15*
X1823843Y1981323D1*
D13*
X1870079Y2027559D1*
X1905512D1*
X1909449Y2031496D1*
X1220472Y925197D2*
X1273469Y872201D1*
X1443067D1*
X1493772Y922906D1*
X1620079Y1049213D1*
Y1102362D1*
X1453752Y949001D2*
X1479848Y922906D1*
X1493772D1*
X1673228Y1870079D2*
D10*
Y1857283D1*
D13*
Y1850394D1*
X1653543Y1830709D1*
Y1776781D1*
X1635434Y1758672D1*
X1787402Y1909449D2*
D10*
X1809055D1*
D15*
X1870079D1*
X1889764Y1889764D1*
D13*
Y1850394D1*
X1673228Y1889764D2*
X1634491D1*
X1597171Y1852444D1*
Y1818218D1*
X1555730Y1776777D1*
X1533286D1*
X1553504Y1756559D1*
Y1695366D1*
X1544734D1*
X1787402Y1889764D2*
D10*
X1811024D1*
D15*
X1830709Y1870079D1*
D13*
Y1744094D1*
X1787402Y1929134D2*
D10*
X1937014D1*
D13*
X2033441Y1832707D1*
X2038058D1*
X2116741D1*
X2038058D2*
X2032510Y1827160D1*
Y1776948D1*
X807087Y1984252D2*
Y2021260D1*
X472441Y2355906D1*
X826772Y1318898D2*
Y1333858D1*
X885827Y1392913D1*
X807087Y1984252D2*
Y2007874D1*
X767717Y2047244D1*
X1748031Y1102362D2*
X1748039Y1102354D1*
Y963160D1*
X1760789Y950411D1*
Y786178D1*
X1666694Y692084D1*
X1474353Y499743D1*
X838757D1*
X703194Y635306D1*
Y938488D1*
X1697252Y664104D2*
X1669272Y692084D1*
X1666694D1*
D29*
X1653543Y905512D3*
X1220472Y2066929D3*
X1574803Y1988189D3*
X1594488Y1909449D3*
X1771654Y1811024D3*
X688976Y1535433D3*
X1246639Y1525314D3*
X1889764Y1240157D3*
X1141732Y1338583D3*
X767717Y2047244D3*
X826772Y1318898D3*
X1457801Y1712598D3*
X1455270Y1374316D3*
X1863043Y1468789D3*
X1194621Y1583815D3*
X2203232Y1850394D3*
X748031Y1614173D3*
X1358268Y1850394D3*
X1633858Y1476378D3*
X2125984Y1377953D3*
X1555118Y1417323D3*
X1732283D3*
X1830709Y1318898D3*
X1929134Y1043307D3*
X1259843Y1751969D3*
X866142Y2165354D3*
X728346Y2204724D3*
X1003937Y2145669D3*
X1141732Y2125984D3*
X1181102Y1771654D3*
X807087Y1811024D3*
X708661Y1889764D3*
X1318898Y1574803D3*
X854220Y877385D3*
X1008005Y896391D3*
X1147966Y858377D3*
X1312962Y1439856D3*
X719718Y1431442D3*
X1937764Y1415764D3*
X434685Y2928773D2*
D16*
X2399974D1*
X434685Y2903904D2*
X2399974D1*
X434685Y2879035D2*
X2399974D1*
X434685Y2854167D2*
X2399974D1*
X434685Y2829298D2*
X2399974D1*
X534904Y2804429D2*
X2399974D1*
X534904Y2779560D2*
X2399974D1*
X534904Y2754692D2*
X2399974D1*
X534904Y2729823D2*
X2399974D1*
X534904Y2704954D2*
X2399974D1*
X678068Y2680085D2*
X2399974D1*
X702971Y2655217D2*
X2399974D1*
X727824Y2630348D2*
X2399974D1*
X508684Y2605479D2*
X650510D1*
X752678D2*
X2399974D1*
X529583Y2580610D2*
X675412D1*
X777580D2*
X2399974D1*
X534904Y2555741D2*
X700266D1*
X802434D2*
X2399974D1*
X529436Y2530873D2*
X725119D1*
X827287D2*
X2399974D1*
X508196Y2506004D2*
X750022D1*
X852140D2*
X2399974D1*
X699846Y2481135D2*
X774875D1*
X877043D2*
X2399974D1*
X724748Y2456266D2*
X799728D1*
X901896D2*
X2399974D1*
X749602Y2431398D2*
X824583D1*
X926751D2*
X2399974D1*
X508928Y2406529D2*
X672287D1*
X774455D2*
X849484D1*
X951652D2*
X2399974D1*
X529094Y2381660D2*
X697190D1*
X799358D2*
X874339D1*
X976507D2*
X2399974D1*
X534904Y2356791D2*
X722043D1*
X824211D2*
X899192D1*
X1001360D2*
X2399974D1*
X547503Y2331923D2*
X746896D1*
X907072D2*
X924094D1*
X1026262D2*
X2399974D1*
X572356Y2307054D2*
X771799D1*
X933000D2*
X948948D1*
X1051115D2*
X2399974D1*
X434685Y2282185D2*
X495091D1*
X597259D2*
X796652D1*
X956682D2*
X973802D1*
X1075970D2*
X2399974D1*
X434685Y2257316D2*
X519944D1*
X622112D2*
X880588D1*
X962054D2*
X998703D1*
X1116887D2*
X2399974D1*
X434685Y2232448D2*
X544798D1*
X646966D2*
X888352D1*
X962054D2*
X1023556D1*
X1119524D2*
X2399974D1*
X434685Y2207579D2*
X569699D1*
X671867D2*
X888352D1*
X962054D2*
X1045823D1*
X1119524D2*
X2399974D1*
X434685Y2182710D2*
X594554D1*
X696722D2*
X888352D1*
X962054D2*
X1045823D1*
X1119524D2*
X2399974D1*
X434685Y2157841D2*
X619407D1*
X721575D2*
X888352D1*
X962054D2*
X1045823D1*
X1119524D2*
X1440500D1*
X1500579D2*
X1516299D1*
X1633343D2*
X1850950D1*
X1967962D2*
X2399974D1*
X434685Y2132972D2*
X644308D1*
X746476D2*
X888352D1*
X962054D2*
X1045823D1*
X1119524D2*
X1417404D1*
X1826214D2*
X1850950D1*
X1967962D2*
X2399974D1*
X434685Y2108104D2*
X669163D1*
X771331D2*
X888352D1*
X962054D2*
X1045823D1*
X1119524D2*
X1196360D1*
X1244572D2*
X1412034D1*
X1826214D2*
X1850950D1*
X1967962D2*
X2399974D1*
X434685Y2083235D2*
X694016D1*
X799651D2*
X888352D1*
X962054D2*
X1045823D1*
X1119524D2*
X1174436D1*
X1266496D2*
X1418332D1*
X1826214D2*
X1850950D1*
X1967962D2*
X2399974D1*
X576946Y2058366D2*
X718919D1*
X821087D2*
X888352D1*
X962054D2*
X1045823D1*
X1119524D2*
X1172287D1*
X1268644D2*
X1433664D1*
X1826214D2*
X1850950D1*
X1967962D2*
X1984739D1*
X2168743D2*
X2264768D1*
X580412Y2033497D2*
X720823D1*
X865618D2*
X886350D1*
X1003411D2*
X1024143D1*
X1141203D2*
X1161936D1*
X1278996D2*
X1433664D1*
X2168743D2*
X2261302D1*
X580412Y2008629D2*
X739328D1*
X1003411D2*
X1024143D1*
X1278996D2*
X1433664D1*
X2168743D2*
X2261302D1*
X580412Y1983760D2*
X748556D1*
X1003411D2*
X1024143D1*
X1278996D2*
X1343039D1*
X2168743D2*
X2261302D1*
X580412Y1958891D2*
X748556D1*
X1003411D2*
X1024143D1*
X1278996D2*
X1343039D1*
X2175236D2*
X2261302D1*
X580412Y1934022D2*
X748556D1*
X1003411D2*
X1024143D1*
X1278996D2*
X1343039D1*
X2175236D2*
X2261302D1*
X580412Y1909154D2*
X748556D1*
X1003411D2*
X1024143D1*
X1278996D2*
X1343039D1*
X2195550D2*
X2261302D1*
X580412Y1884285D2*
X730832D1*
X1278996D2*
X1323948D1*
X2237542D2*
X2261302D1*
X580412Y1859416D2*
X705979D1*
X981731D2*
X996555D1*
X580412Y1834547D2*
X681126D1*
X783244D2*
X848996D1*
X981731D2*
X996555D1*
X1198283D2*
X1224583D1*
X1948283D2*
X1980539D1*
X580412Y1809678D2*
X656223D1*
X758391D2*
X848996D1*
X981731D2*
X996555D1*
X1191056D2*
X1249484D1*
X1948283D2*
X1973996D1*
X2228167D2*
X2261302D1*
X580412Y1784810D2*
X631370D1*
X733538D2*
X848996D1*
X981731D2*
X996555D1*
X1166594D2*
X1224436D1*
X1948283D2*
X1973996D1*
X2175236D2*
X2261302D1*
X580412Y1759941D2*
X613694D1*
X708684D2*
X848996D1*
X981731D2*
X996555D1*
X1141740D2*
X1211546D1*
X1948283D2*
X1973996D1*
X2175724D2*
X2261302D1*
X580412Y1735072D2*
X612766D1*
X686467D2*
X848996D1*
X981731D2*
X996555D1*
X1135295D2*
X1214035D1*
X1948283D2*
X1973996D1*
X2181780D2*
X2261302D1*
X580412Y1710203D2*
X612766D1*
X801507D2*
X817454D1*
X981731D2*
X996555D1*
X1166790D2*
X1236936D1*
X1873479D2*
X1973996D1*
X2176164D2*
X2261302D1*
X580412Y1685335D2*
X612766D1*
X981731D2*
X996555D1*
X1166790D2*
X1260374D1*
X1603264D2*
X1734787D1*
X1873479D2*
X1973996D1*
X2152336D2*
X2261302D1*
X580412Y1660466D2*
X612766D1*
X981731D2*
X996555D1*
X1603264D2*
X1734787D1*
X1873479D2*
X1973996D1*
X2091008D2*
X2261302D1*
X580412Y1635597D2*
X612766D1*
X1603264D2*
X1734787D1*
X1808488D2*
X2261302D1*
X580412Y1610728D2*
X612766D1*
X1603264D2*
X1734983D1*
X1826164D2*
X2261302D1*
X580412Y1585860D2*
X612766D1*
X1603264D2*
X1748899D1*
X1966643D2*
X2261302D1*
X580412Y1560991D2*
X612766D1*
X1492131D2*
X1773752D1*
X1994035D2*
X2261302D1*
X580412Y1536122D2*
X612766D1*
X1492131D2*
X1798606D1*
X2018890D2*
X2261302D1*
X580412Y1511253D2*
X612766D1*
X1293450D2*
X1359104D1*
X1492131D2*
X1600608D1*
X1667083D2*
X1841623D1*
X1884466D2*
X1941623D1*
X2043743D2*
X2266038D1*
X580412Y1486385D2*
X612766D1*
X1274554D2*
X1359104D1*
X1492131D2*
X1585959D1*
X1681780D2*
X1817503D1*
X1908587D2*
X1966476D1*
X2068644D2*
X2290794D1*
X580412Y1461516D2*
X612766D1*
X686467D2*
X715060D1*
X1230656D2*
X1359104D1*
X1492131D2*
X1587327D1*
X1699699D2*
X1804710D1*
X1911467D2*
X1991331D1*
X2093499D2*
X2287278D1*
X580412Y1436647D2*
X612766D1*
X686467D2*
X735959D1*
X1232560D2*
X1359104D1*
X1492131D2*
X1607199D1*
X1708098D2*
X1779807D1*
X1899114D2*
X2016184D1*
X2118352D2*
X2294699D1*
X580412Y1411778D2*
X612766D1*
X686467D2*
X711106D1*
X1492131D2*
X1634396D1*
X1708098D2*
X1754954D1*
X1857122D2*
X2041087D1*
X2160392D2*
X2281028D1*
X580412Y1386909D2*
X612766D1*
X1166790D2*
X1180100D1*
X1502531D2*
X1557639D1*
X1832268D2*
X2065940D1*
X2174114D2*
X2221652D1*
X580412Y1362041D2*
X612766D1*
X1184367D2*
X1203294D1*
X1502630D2*
X1544260D1*
X1816203D2*
X2079807D1*
X2172160D2*
X2196799D1*
X580412Y1337172D2*
X619992D1*
X881144D2*
X927707D1*
X1060491D2*
X1092063D1*
X1190715D2*
X1203314D1*
X1276995D2*
X1424827D1*
X1485735D2*
X1544260D1*
X1816203D2*
X1909983D1*
X2150823D2*
X2171896D1*
X580412Y1312303D2*
X680051D1*
X875286D2*
X927707D1*
X1060491D2*
X1100900D1*
X1182560D2*
X1203294D1*
X1276995D2*
X1437522D1*
X1816203D2*
X1909983D1*
X2105755D2*
X2150755D1*
X2249211D2*
X2281028D1*
X580412Y1287434D2*
X704807D1*
X865618D2*
X888352D1*
X1141203D2*
X1161936D1*
X1278996D2*
X1437522D1*
X1816203D2*
X1909983D1*
X2105755D2*
X2148167D1*
X2224358D2*
X2281028D1*
X580412Y1262566D2*
X729660D1*
X865618D2*
X888352D1*
X1141203D2*
X1161936D1*
X1278996D2*
X1437522D1*
X1759270D2*
X1846507D1*
X2105755D2*
X2148167D1*
X2221916D2*
X2281028D1*
X580412Y1237697D2*
X748556D1*
X865618D2*
X888352D1*
X1005364D2*
X1024143D1*
X1141203D2*
X1161936D1*
X1278996D2*
X1437522D1*
X2105755D2*
X2148167D1*
X2221916D2*
X2281028D1*
X580412Y1212828D2*
X748556D1*
X865618D2*
X888352D1*
X1005364D2*
X1024143D1*
X1141203D2*
X1161936D1*
X1278996D2*
X1437522D1*
X2105755D2*
X2148167D1*
X2221916D2*
X2281028D1*
X580412Y1187959D2*
X748556D1*
X865618D2*
X888352D1*
X1005364D2*
X1024143D1*
X1141203D2*
X1161936D1*
X1278996D2*
X1437522D1*
X2105755D2*
X2148167D1*
X2221916D2*
X2281028D1*
X580412Y1163091D2*
X748556D1*
X865618D2*
X888352D1*
X1005364D2*
X1024143D1*
X1141203D2*
X1161936D1*
X1278996D2*
X1437522D1*
X2105755D2*
X2148167D1*
X2221916D2*
X2281028D1*
X580412Y1138222D2*
X748556D1*
X865618D2*
X888352D1*
X1005364D2*
X1024143D1*
X1141203D2*
X1161936D1*
X1278996D2*
X1537962D1*
X1824992D2*
X1842210D1*
X2105755D2*
X2130442D1*
X2221722D2*
X2271018D1*
X580412Y1113353D2*
X748556D1*
X865618D2*
X888352D1*
X1005364D2*
X1024143D1*
X1141203D2*
X1161936D1*
X1278996D2*
X1308127D1*
X1425139D2*
X1539084D1*
X1831438D2*
X1867063D1*
X2207756D2*
X2246115D1*
X580412Y1088484D2*
X770236D1*
X843938D2*
X909983D1*
X983684D2*
X1045823D1*
X1119524D2*
X1183615D1*
X1257316D2*
X1308127D1*
X1425139D2*
X1553050D1*
X1856291D2*
X1891916D1*
X2182854D2*
X2221262D1*
X580412Y1063615D2*
X644651D1*
X983684D2*
X1045823D1*
X1119524D2*
X1183615D1*
X1257316D2*
X1308127D1*
X1425139D2*
X1553050D1*
X1881144D2*
X1916819D1*
X2158000D2*
X2196408D1*
X580412Y1038747D2*
X644651D1*
X983684D2*
X1045823D1*
X1119524D2*
X1161936D1*
X1278996D2*
X1308127D1*
X1425139D2*
X1558518D1*
X1906047D2*
X1988743D1*
X2105755D2*
X2171507D1*
X580412Y1013878D2*
X644651D1*
X983684D2*
X1045823D1*
X1119524D2*
X1161936D1*
X1425139D2*
X1533664D1*
X1784904D2*
X1828732D1*
X1930900D2*
X2150608D1*
X2248820D2*
X2281028D1*
X580412Y989009D2*
X644651D1*
X761711D2*
X781126D1*
X983684D2*
X1045823D1*
X1119524D2*
X1161936D1*
X1495451D2*
X1508811D1*
X1784904D2*
X1853587D1*
X2223967D2*
X2287864D1*
X569963Y964140D2*
X644651D1*
X761711D2*
X781126D1*
X983684D2*
X1045823D1*
X1119524D2*
X1161936D1*
X1664836D2*
X1685667D1*
X1794768D2*
X1878488D1*
X2221867D2*
X2399974D1*
X434685Y939272D2*
X644651D1*
X761711D2*
X781126D1*
X983684D2*
X1045823D1*
X1119524D2*
X1161936D1*
X1639983D2*
X1685667D1*
X1797648D2*
X1903391D1*
X2210783D2*
X2399974D1*
X434685Y914403D2*
X644651D1*
X761711D2*
X781126D1*
X983684D2*
X1045823D1*
X1119524D2*
X1161936D1*
X1621428D2*
X1685667D1*
X1797648D2*
X2399974D1*
X434685Y889534D2*
X644651D1*
X761711D2*
X909983D1*
X983684D2*
X1045823D1*
X1119524D2*
X1161936D1*
X1621428D2*
X1671507D1*
X1797648D2*
X2399974D1*
X434685Y864665D2*
X666331D1*
X740031D2*
X909983D1*
X983684D2*
X1045823D1*
X1119524D2*
X1229904D1*
X1621428D2*
X1646652D1*
X1797648D2*
X2399974D1*
X434685Y839797D2*
X666331D1*
X740031D2*
X909983D1*
X983684D2*
X1045823D1*
X1119524D2*
X1259543D1*
X1456975D2*
X1473068D1*
X1797648D2*
X2399974D1*
X434685Y814928D2*
X666331D1*
X740031D2*
X909983D1*
X983684D2*
X1045823D1*
X1224114D2*
X1487718D1*
X1797648D2*
X2399974D1*
X434685Y790059D2*
X666331D1*
X1012102D2*
X1045823D1*
X1377678D2*
X1480051D1*
X1797648D2*
X2399974D1*
X434685Y765190D2*
X666331D1*
X1012102D2*
X1045823D1*
X1377678D2*
X1455198D1*
X1790471D2*
X2399974D1*
X434685Y740322D2*
X666331D1*
X1012102D2*
X1055100D1*
X1377678D2*
X1430295D1*
X1766008D2*
X2399974D1*
X434685Y715453D2*
X666331D1*
X1012102D2*
X1107102D1*
X1377678D2*
X1405442D1*
X1741155D2*
X2399974D1*
X434685Y690584D2*
X666331D1*
X1012102D2*
X1107102D1*
X1224114D2*
X1380588D1*
X1749114D2*
X2399974D1*
X434685Y665715D2*
X666331D1*
X740031D2*
X895042D1*
X1012102D2*
X1107102D1*
X1239934D2*
X1355686D1*
X1755755D2*
X2399974D1*
X434685Y640846D2*
X666331D1*
X748723D2*
X895042D1*
X1012102D2*
X1107102D1*
X1750724D2*
X2399974D1*
X434685Y615978D2*
X672287D1*
X773626D2*
X916722D1*
X990423D2*
X1187522D1*
X1641692D2*
X1666087D1*
X1728411D2*
X2399974D1*
X434685Y591109D2*
X696311D1*
X798479D2*
X916722D1*
X990423D2*
X1373068D1*
X1616790D2*
X2399974D1*
X434685Y566240D2*
X721164D1*
X823332D2*
X917307D1*
X1591936D2*
X2399974D1*
X434685Y541371D2*
X746067D1*
X848235D2*
X933615D1*
X1567083D2*
X2399974D1*
X434685Y516503D2*
X770920D1*
X1542180D2*
X2399974D1*
X434685Y491634D2*
X795774D1*
X1517327D2*
X2399974D1*
X434685Y466765D2*
X826634D1*
X1486467D2*
X2399974D1*
X434685Y441896D2*
X2399974D1*
X1540451Y1148705D2*
X1440043D1*
Y1327673D1*
X1546769D1*
X1546987Y1370933D1*
X1548241Y1375379D1*
X1550499Y1379409D1*
X1553634Y1382802D1*
X1557475Y1385369D1*
X1559335Y1386184D1*
X1560122Y1392634D1*
X1636899D1*
X1636894Y1424801D1*
X1630210Y1430029D1*
X1623005Y1431171D1*
X1616067Y1433425D1*
X1609566Y1436738D1*
X1603664Y1441025D1*
X1598505Y1446184D1*
X1594218Y1452085D1*
X1590906Y1458587D1*
X1588651Y1465525D1*
X1587509Y1472730D1*
Y1480026D1*
X1588651Y1487231D1*
X1590906Y1494169D1*
X1594218Y1500671D1*
X1598505Y1506572D1*
X1603664Y1511731D1*
X1609566Y1516018D1*
X1616067Y1519331D1*
X1623005Y1521585D1*
X1630210Y1522727D1*
X1637507D1*
X1644711Y1521585D1*
X1651650Y1519331D1*
X1658151Y1516018D1*
X1664052Y1511731D1*
X1669211Y1506572D1*
X1673499Y1500671D1*
X1676811Y1494169D1*
X1679066Y1487231D1*
X1680265Y1478558D1*
X1697392Y1461295D1*
X1700562Y1456933D1*
X1703010Y1452127D1*
X1704677Y1446999D1*
X1705520Y1441673D1*
X1705626Y1392585D1*
X1741937Y1392634D1*
X1744320Y1397324D1*
X1747490Y1401686D1*
X1816614Y1470961D1*
X1817836Y1479642D1*
X1820091Y1486580D1*
X1823403Y1493081D1*
X1827690Y1498983D1*
X1832849Y1504142D1*
X1838751Y1508429D1*
X1845252Y1511741D1*
X1852190Y1513996D1*
X1859395Y1515138D1*
X1866692D1*
X1873896Y1513996D1*
X1880835Y1511741D1*
X1887336Y1508429D1*
X1893238Y1504142D1*
X1898396Y1498983D1*
X1902684Y1493081D1*
X1905996Y1486580D1*
X1908251Y1479642D1*
X1909392Y1472437D1*
Y1465140D1*
X1908251Y1457936D1*
X1905996Y1450997D1*
X1902684Y1444496D1*
X1898396Y1438594D1*
X1893238Y1433436D1*
X1887336Y1429148D1*
X1880835Y1425836D1*
X1873896Y1423581D1*
X1865223Y1422382D1*
X1813491Y1370635D1*
X1813735Y1367858D1*
X1813493Y1279689D1*
X1812239Y1275243D1*
X1809982Y1271213D1*
X1806846Y1267820D1*
X1803005Y1265253D1*
X1798671Y1263655D1*
X1794083Y1263112D1*
X1756827D1*
X1756807Y1254839D1*
X1813720Y1254732D1*
X1819046Y1253890D1*
X1824175Y1252223D1*
X1828980Y1249774D1*
X1833343Y1246605D1*
X1843369Y1236728D1*
X1843415Y1243806D1*
X1844556Y1251010D1*
X1846811Y1257949D1*
X1850123Y1264450D1*
X1854411Y1270352D1*
X1859570Y1275510D1*
X1865471Y1279798D1*
X1871972Y1283110D1*
X1878911Y1285365D1*
X1886115Y1286507D1*
X1893412D1*
X1900617Y1285365D1*
X1907555Y1283110D1*
X1912476Y1280684D1*
X1912484Y1347358D1*
X1991224D1*
Y1351295D1*
X2087895D1*
X2084559Y1356845D1*
X2081768Y1363585D1*
X2080064Y1370680D1*
X2079577Y1375773D1*
X1934539Y1520795D1*
X1828012Y1520858D1*
X1822686Y1521701D1*
X1817558Y1523367D1*
X1812752Y1525816D1*
X1808390Y1528986D1*
X1747353Y1589873D1*
X1743850Y1593974D1*
X1741033Y1598571D1*
X1738970Y1603554D1*
X1737710Y1608797D1*
X1737287Y1614173D1*
Y1702698D1*
X1600749Y1702652D1*
X1600753Y1568480D1*
X1489630D1*
X1489636Y1405615D1*
X1494911Y1398609D1*
X1498223Y1392108D1*
X1500478Y1385169D1*
X1501619Y1377965D1*
Y1370668D1*
X1500478Y1363463D1*
X1498223Y1356525D1*
X1494911Y1350024D1*
X1490623Y1344122D1*
X1485465Y1338963D1*
X1479563Y1334676D1*
X1473062Y1331364D1*
X1466123Y1329109D1*
X1458919Y1327967D1*
X1451622D1*
X1444417Y1329109D1*
X1437479Y1331364D1*
X1430978Y1334676D1*
X1425076Y1338963D1*
X1419917Y1344122D1*
X1415748Y1349846D1*
X1409123Y1346202D1*
X1403995Y1344535D1*
X1398669Y1343693D1*
X1295972Y1343587D1*
X1274537D1*
X1274524Y1288256D1*
X1276492Y1288303D1*
Y1109335D1*
X1254862D1*
X1254839Y1052091D1*
X1276492Y1052083D1*
Y1034358D1*
X1310657Y1034366D1*
X1310612Y1126971D1*
X1422651D1*
Y995576D1*
X1428320Y998915D1*
X1436441Y1002280D1*
X1444988Y1004331D1*
X1453752Y1005021D1*
X1462516Y1004331D1*
X1471063Y1002280D1*
X1479184Y998915D1*
X1486680Y994323D1*
X1493364Y988613D1*
X1499073Y981929D1*
X1501125Y978857D1*
X1562727Y1040463D1*
X1560122Y1040437D1*
Y1044294D1*
X1557677Y1047992D1*
X1556079Y1052327D1*
X1555535Y1056915D1*
Y1092706D1*
X1547000Y1101848D1*
X1544182Y1106445D1*
X1542119Y1111428D1*
X1540860Y1116671D1*
X1540437Y1122047D1*
Y1148659D1*
X1945783Y1871764D2*
Y1723508D1*
X1870988D1*
X1870980Y1648705D1*
X1806020Y1648524D1*
Y1628357D1*
X1844948Y1589480D1*
X1951516Y1589378D1*
X1956841Y1588535D1*
X1961970Y1586869D1*
X1966776Y1584420D1*
X1971138Y1581251D1*
X2043831Y1508709D1*
X2128110Y1424428D1*
X2136837Y1423160D1*
X2143776Y1420906D1*
X2150277Y1417593D1*
X2156178Y1413306D1*
X2161337Y1408147D1*
X2165625Y1402245D1*
X2168937Y1395744D1*
X2171192Y1388806D1*
X2172333Y1381601D1*
Y1374304D1*
X2171192Y1367100D1*
X2168937Y1360161D1*
X2165625Y1353660D1*
X2161337Y1347759D1*
X2156178Y1342600D1*
X2150277Y1338312D1*
X2143776Y1335000D1*
X2136837Y1332745D1*
X2129633Y1331604D1*
X2122336D1*
X2115131Y1332745D1*
X2108193Y1335000D1*
X2103272Y1337427D1*
X2103264Y1120972D1*
X2115749Y1120980D1*
X2150678Y1155972D1*
X2150780Y1301909D1*
X2151623Y1307235D1*
X2153289Y1312364D1*
X2155738Y1317169D1*
X2158907Y1321531D1*
X2227274Y1390049D1*
X2231375Y1393551D1*
X2235972Y1396369D1*
X2240955Y1398432D1*
X2246198Y1399692D1*
X2251575Y1400114D1*
X2283558D1*
X2283739Y1420398D1*
X2284993Y1424844D1*
X2287251Y1428874D1*
X2290386Y1432266D1*
X2294227Y1434833D1*
X2297417Y1436234D1*
X2294143Y1442975D1*
X2291735Y1450072D1*
X2290231Y1457416D1*
X2289656Y1464888D1*
X2290017Y1472375D1*
X2291310Y1479757D1*
X2293513Y1486921D1*
X2296593Y1493755D1*
X2300501Y1500150D1*
X2303761Y1504379D1*
X2280390Y1504605D1*
X2275944Y1505860D1*
X2271913Y1508117D1*
X2268521Y1511252D1*
X2265954Y1515093D1*
X2264356Y1519428D1*
X2263812Y1524016D1*
X2264054Y2050319D1*
X2265308Y2054765D1*
X2267566Y2058795D1*
X2270701Y2062188D1*
X2274542Y2064755D1*
X2278877Y2066353D1*
X2283465Y2066896D1*
X2402459D1*
X2402461Y2953642D1*
X432185D1*
X432484Y2815862D1*
X532398D1*
Y2695949D1*
X517056D1*
X521550Y2690245D1*
X653878Y2690165D1*
X659203Y2689323D1*
X664332Y2687656D1*
X669138Y2685207D1*
X673500Y2682038D1*
X746193Y2609496D1*
X1077269Y2278419D1*
X1088054Y2278038D1*
X1093297Y2276778D1*
X1098280Y2274715D1*
X1102877Y2271898D1*
X1106978Y2268395D1*
X1110480Y2264294D1*
X1113298Y2259697D1*
X1115361Y2254714D1*
X1116621Y2249471D1*
X1117043Y2244094D1*
Y2040238D1*
X1138697Y2040272D1*
Y2022547D1*
X1147109Y2022133D1*
X1152352Y2020873D1*
X1157335Y2018810D1*
X1161932Y2015992D1*
X1164337Y2014056D1*
X1164453Y2036335D1*
X1185497D1*
X1180832Y2042636D1*
X1177520Y2049138D1*
X1175265Y2056076D1*
X1174123Y2063281D1*
Y2070577D1*
X1175265Y2077782D1*
X1177520Y2084720D1*
X1180832Y2091222D1*
X1185119Y2097123D1*
X1190278Y2102282D1*
X1196180Y2106570D1*
X1202681Y2109882D1*
X1209619Y2112136D1*
X1216824Y2113278D1*
X1224121D1*
X1231325Y2112136D1*
X1238264Y2109882D1*
X1244765Y2106570D1*
X1250667Y2102282D1*
X1255825Y2097123D1*
X1260113Y2091222D1*
X1263425Y2084720D1*
X1265680Y2077782D1*
X1266822Y2070577D1*
Y2063281D1*
X1265680Y2056076D1*
X1263425Y2049138D1*
X1260113Y2042636D1*
X1255448Y2036327D1*
X1276492Y2036335D1*
Y1882283D1*
X1311923Y1846915D1*
X1311919Y1854042D1*
X1313060Y1861247D1*
X1315315Y1868185D1*
X1318627Y1874686D1*
X1322915Y1880588D1*
X1328073Y1885747D1*
X1333975Y1890034D1*
X1340476Y1893346D1*
X1345555Y1895299D1*
Y2004839D1*
X1436227D1*
X1436176Y2064829D1*
X1430930Y2069436D1*
X1425220Y2076119D1*
X1420629Y2083615D1*
X1417264Y2091736D1*
X1415213Y2100283D1*
X1414522Y2109047D1*
X1415213Y2117811D1*
X1417264Y2126358D1*
X1420629Y2134479D1*
X1425220Y2141975D1*
X1430930Y2148659D1*
X1437614Y2154369D1*
X1445110Y2158961D1*
X1453231Y2162325D1*
X1461778Y2164377D1*
X1470542Y2165067D1*
X1479306Y2164377D1*
X1487853Y2162325D1*
X1495974Y2158961D1*
X1503470Y2154369D1*
X1510154Y2148659D1*
X1515864Y2141975D1*
X1518785Y2137463D1*
X1518783Y2174130D1*
X1630823D1*
Y2039806D1*
X1632957Y2039287D1*
X1638865D1*
X1638969Y2065689D1*
X1639812Y2071014D1*
X1641478Y2076143D1*
X1644143Y2081273D1*
X1644768Y2093094D1*
Y2142634D1*
X1823736D1*
Y2039295D1*
X1827673Y2039287D1*
Y2033769D1*
X1847760Y2053692D1*
X1852463Y2057051D1*
X1853429Y2059217D1*
Y2158382D1*
X1965469D1*
Y2044467D1*
X1971552Y2046063D1*
X1976929Y2046486D1*
X1987232D1*
X1987251Y2068139D1*
X2166219D1*
Y1959594D1*
X2172761Y1959593D1*
Y1929466D1*
X2205391Y1896836D1*
X2214085Y1895601D1*
X2221024Y1893346D1*
X2227525Y1890034D1*
X2233427Y1885747D1*
X2238585Y1880588D1*
X2242873Y1874686D1*
X2246185Y1868185D1*
X2248440Y1861247D1*
X2249581Y1854042D1*
Y1846745D1*
X2248440Y1839541D1*
X2246185Y1832602D1*
X2242873Y1826101D1*
X2238585Y1820199D1*
X2233427Y1815041D1*
X2227525Y1810753D1*
X2221024Y1807441D1*
X2214085Y1805186D1*
X2206881Y1804045D1*
X2199584D1*
X2192379Y1805186D1*
X2185441Y1807441D1*
X2178940Y1810753D1*
X2172756Y1815302D1*
X2172761Y1780625D1*
X2155232D1*
X2162850Y1774243D1*
X2168560Y1767559D1*
X2173152Y1760063D1*
X2176517Y1751942D1*
X2178568Y1743395D1*
X2179259Y1734631D1*
X2178568Y1725867D1*
X2176517Y1717320D1*
X2173152Y1709199D1*
X2168560Y1701703D1*
X2162850Y1695020D1*
X2156167Y1689310D1*
X2148671Y1684718D1*
X2140550Y1681353D1*
X2132003Y1679302D1*
X2123239Y1678612D1*
X2114475Y1679302D1*
X2105928Y1681353D1*
X2097807Y1684718D1*
X2090311Y1689310D1*
X2088543Y1690703D1*
X2088530Y1650062D1*
X1976491D1*
Y1829030D1*
X1988551D1*
X1945783Y1871764D1*
X521550Y2621566D2*
X514837Y2613509D1*
X507682Y2607399D1*
X505496Y2605938D1*
X511379Y2601497D1*
X518033Y2594844D1*
X523563Y2587232D1*
X527833Y2578850D1*
X530741Y2569902D1*
X532213Y2560610D1*
Y2551201D1*
X530741Y2541909D1*
X527833Y2532961D1*
X523563Y2524579D1*
X518033Y2516967D1*
X511379Y2510314D1*
X505496Y2505938D1*
X511379Y2501497D1*
X518033Y2494844D1*
X521550Y2490245D1*
X612529Y2490272D1*
X619302Y2493314D1*
X624545Y2494573D1*
X629921Y2494996D1*
X671988Y2494890D1*
X677314Y2494047D1*
X682442Y2492381D1*
X687248Y2489932D1*
X691610Y2486762D1*
X764303Y2414220D1*
X840987Y2337535D1*
X888524Y2337409D1*
X893849Y2336567D1*
X898978Y2334900D1*
X903783Y2332451D1*
X908146Y2329282D1*
X949497Y2288080D1*
X953000Y2283979D1*
X955818Y2279382D1*
X957881Y2274399D1*
X959140Y2269156D1*
X959563Y2263780D1*
Y2040293D1*
X1000902Y2040272D1*
Y1875185D1*
X1004109Y1882076D1*
X1007278Y1886438D1*
X1026684Y1905993D1*
X1026657Y2040272D1*
X1048289D1*
X1048311Y2213042D1*
X1042793Y2216291D1*
X1038692Y2219794D1*
X636904Y2621581D1*
X521542Y2621539D1*
X521550Y2421566D2*
X514837Y2413509D1*
X507682Y2407399D1*
X505496Y2405938D1*
X511379Y2401497D1*
X518033Y2394844D1*
X523563Y2387232D1*
X527833Y2378850D1*
X530741Y2369902D1*
X532213Y2360610D1*
Y2351201D1*
X531448Y2345462D1*
X787766Y2089181D1*
X795043Y2084857D1*
X800592Y2080119D1*
X805329Y2074571D1*
X809625Y2067302D1*
X833219Y2043579D1*
X836388Y2039217D1*
X837870Y2036508D1*
X863106Y2036335D1*
Y2013923D1*
X867870Y2017491D1*
X872676Y2019940D1*
X877804Y2021606D1*
X883130Y2022449D1*
X888903Y2022555D1*
X888862Y2040272D1*
X890864D1*
X890831Y2249525D1*
X871583Y2268793D1*
X824075Y2268890D1*
X818749Y2269732D1*
X813621Y2271399D1*
X808815Y2273848D1*
X804453Y2277017D1*
X731760Y2349559D1*
X655076Y2426244D1*
X645524Y2425285D1*
X640541Y2423222D1*
X635298Y2421962D1*
X629921Y2421539D1*
X521572D1*
X482885Y2296899D2*
X472441Y2295949D1*
X463062Y2296686D1*
X453913Y2298883D1*
X445222Y2302484D1*
X437199Y2307399D1*
X432165Y2311550D1*
X432185Y2066874D1*
X561343Y2066655D1*
X565789Y2065400D1*
X569819Y2063143D1*
X573211Y2060008D1*
X575778Y2056167D1*
X577377Y2051832D1*
X577920Y2047244D1*
X577678Y978421D1*
X576424Y973975D1*
X574167Y969945D1*
X571031Y966552D1*
X567190Y963986D1*
X562856Y962387D1*
X558268Y961844D1*
X432144D1*
X432185Y432185D1*
X2402461D1*
Y984285D1*
X2300075Y984526D1*
X2295629Y985781D1*
X2291598Y988038D1*
X2288206Y991175D1*
X2285639Y995014D1*
X2284041Y999349D1*
X2283497Y1003937D1*
Y1051056D1*
X2219400Y986941D1*
X2219299Y961870D1*
X2218455Y956545D1*
X2216790Y951416D1*
X2214341Y946610D1*
X2211172Y942248D1*
X2207358Y938434D1*
X2202996Y935265D1*
X2198190Y932816D1*
X2193062Y931151D1*
X2187736Y930307D1*
X2085039Y930201D1*
X1926437Y930307D1*
X1921112Y931151D1*
X1915983Y932816D1*
X1911177Y935265D1*
X1906815Y938434D1*
X1834122Y1010978D1*
X1807295Y1037804D1*
X1802873Y1037262D1*
X1782413D1*
X1782406Y977403D1*
X1788592Y970610D1*
X1791409Y966013D1*
X1793472Y961030D1*
X1794732Y955787D1*
X1795155Y950411D1*
X1795049Y783482D1*
X1794206Y778156D1*
X1792539Y773028D1*
X1790091Y768222D1*
X1786921Y763860D1*
X1731608Y708396D1*
X1736864Y703715D1*
X1742573Y697031D1*
X1747165Y689535D1*
X1750530Y681415D1*
X1752581Y672867D1*
X1753272Y664104D1*
X1752581Y655340D1*
X1750530Y646793D1*
X1747165Y638672D1*
X1742573Y631176D1*
X1736864Y624492D1*
X1730180Y618782D1*
X1722684Y614190D1*
X1714563Y610825D1*
X1706016Y608774D1*
X1697252Y608084D1*
X1688488Y608774D1*
X1679941Y610825D1*
X1671820Y614190D1*
X1664324Y618782D1*
X1657640Y624492D1*
X1653005Y629814D1*
X1496672Y473610D1*
X1492310Y470441D1*
X1487504Y467992D1*
X1482375Y466325D1*
X1477050Y465483D1*
X1374353Y465377D1*
X836060Y465483D1*
X830735Y466325D1*
X825606Y467992D1*
X820801Y470441D1*
X816438Y473610D1*
X743745Y546152D1*
X677062Y612987D1*
X673892Y617349D1*
X671444Y622155D1*
X669777Y627283D1*
X668934Y632609D1*
X668828Y735306D1*
Y886429D1*
X647175Y886406D1*
Y1065374D1*
X759214D1*
Y1064055D1*
X772709Y1064096D1*
X772720Y1109316D1*
X751067Y1109335D1*
Y1243659D1*
X682529Y1312327D1*
X679360Y1316689D1*
X676776Y1321860D1*
X671161Y1323902D1*
X646909Y1324008D1*
X641584Y1324850D1*
X636455Y1326517D1*
X631650Y1328966D1*
X627287Y1332135D1*
X623474Y1335949D1*
X620304Y1340311D1*
X617856Y1345117D1*
X616189Y1350245D1*
X615346Y1355571D1*
X615240Y1458268D1*
X615346Y1754665D1*
X616189Y1759991D1*
X617856Y1765119D1*
X620304Y1769925D1*
X623474Y1774287D1*
X696016Y1846980D1*
X751087Y1902050D1*
X751067Y2003801D1*
X743424Y2007604D1*
X737522Y2011891D1*
X732364Y2017050D1*
X728076Y2022951D1*
X724764Y2029453D1*
X722509Y2036391D1*
X721367Y2043596D1*
Y2050892D1*
X722367Y2057385D1*
X482853Y2296892D1*
X1138650Y1213500D2*
X1138697Y1109335D1*
X1117066D1*
X1117043Y815861D1*
X1221627Y815862D1*
Y804094D1*
X1375171Y804051D1*
Y692012D1*
X1221608D1*
X1221627Y681538D1*
X1238902Y664283D1*
X1356743Y664287D1*
X1499814Y807348D1*
X1493123Y812252D1*
X1486908Y818467D1*
X1481740Y825579D1*
X1477749Y833411D1*
X1475033Y841772D1*
X1473659Y850454D1*
X1473516Y854076D1*
X1465386Y846068D1*
X1461024Y842899D1*
X1456218Y840450D1*
X1451089Y838783D1*
X1445764Y837941D1*
X1273469Y837835D1*
X1268092Y838257D1*
X1262849Y839517D1*
X1257866Y841580D1*
X1253269Y844398D1*
X1249168Y847900D1*
X1223929Y873139D1*
X1164453Y873114D1*
Y1052083D1*
X1186084D1*
X1186106Y1109327D1*
X1164453Y1109335D1*
Y1288303D1*
X1205811D1*
X1205791Y1363711D1*
X1166864Y1402646D1*
X1164287Y1393717D1*
Y1379214D1*
X1169059Y1376196D1*
X1174608Y1371458D1*
X1179345Y1365909D1*
X1183157Y1359690D1*
X1185949Y1352950D1*
X1187652Y1345856D1*
X1188224Y1338583D1*
X1187652Y1331310D1*
X1185949Y1324215D1*
X1183157Y1317475D1*
X1179345Y1311256D1*
X1174608Y1305707D1*
X1169059Y1300970D1*
X1162840Y1297157D1*
X1156100Y1294366D1*
X1149005Y1292663D1*
X1141732Y1292091D1*
X1134459Y1292663D1*
X1127365Y1294366D1*
X1120625Y1297157D1*
X1114406Y1300970D1*
X1108857Y1305707D1*
X1104119Y1311256D1*
X1100307Y1317475D1*
X1097516Y1324215D1*
X1095812Y1331310D1*
X1095325Y1336403D1*
X1076787Y1354610D1*
X1057988D1*
Y1309534D1*
X1079169Y1288329D1*
X1138697Y1288303D1*
X1138648Y1184138D1*
X1048316Y1109335D2*
X1026657D1*
Y1243659D1*
X1002874Y1267423D1*
X1002870Y1111303D1*
X981239D1*
X981217Y796052D1*
X1009598Y796016D1*
Y617047D1*
X987967D1*
X987945Y586659D1*
X1005181Y580249D1*
X1364702D1*
X1381608Y597238D1*
X1376365Y595978D1*
X1370988Y595555D1*
X1221966Y595661D1*
X1216640Y596504D1*
X1211512Y598171D1*
X1206706Y600619D1*
X1202344Y603789D1*
X1169115Y636867D1*
X1109588Y636894D1*
Y729421D1*
X1079980Y729520D1*
X1074655Y730364D1*
X1069526Y732029D1*
X1064720Y734478D1*
X1060358Y737647D1*
X1056545Y741461D1*
X1053375Y745823D1*
X1050927Y750629D1*
X1049261Y755757D1*
X1048417Y761083D1*
X1048311Y863780D1*
Y1109336D1*
X999096Y1861303D2*
X979272D1*
X979248Y1649470D1*
X992012Y1634857D1*
X994059Y1631789D1*
X997755Y1636778D1*
X992370Y1634373D1*
X993869Y1632130D1*
X999045Y1638171D1*
Y1861315D1*
X912490Y1111303D2*
X890831D1*
Y1290272D1*
X930235D1*
X930201Y1354587D1*
X896073Y1354610D1*
X871837Y1330323D1*
X873121Y1322546D1*
Y1315249D1*
X871979Y1308045D1*
X869724Y1301106D1*
X866412Y1294605D1*
X861747Y1288295D1*
X863106Y1288303D1*
Y1109335D1*
X841475D1*
X841453Y1081778D1*
X895672Y1081812D1*
Y902844D1*
X783633D1*
Y995371D1*
X759232Y995364D1*
X759214Y886406D1*
X737583D1*
X737560Y649475D1*
X853000Y534102D1*
X943396Y534109D1*
X927446Y550167D1*
X924277Y554529D1*
X921828Y559335D1*
X920163Y564463D1*
X919319Y569789D1*
X919213Y617066D1*
X897559Y617047D1*
Y689361D1*
X744016Y689320D1*
Y801360D1*
X912521D1*
X912484Y1111257D1*
X851437Y1857366D2*
X803585D1*
X683992Y1737753D1*
X683972Y1697135D1*
X706028Y1719046D1*
X710390Y1722215D1*
X715196Y1724664D1*
X720324Y1726329D1*
X725650Y1727173D1*
X767717Y1727280D1*
X773093Y1726857D1*
X778336Y1725597D1*
X783319Y1723534D1*
X787916Y1720717D1*
X792017Y1717214D1*
X819949Y1689282D1*
X819965Y1731217D1*
X851459D1*
X851461Y1857318D1*
X2103264Y1052222D2*
Y1034531D1*
X1991224D1*
Y1052256D1*
X1942185Y1052354D1*
X1936860Y1053197D1*
X1931731Y1054864D1*
X1926925Y1057312D1*
X1922563Y1060482D1*
X1849870Y1133024D1*
X1796803Y1186092D1*
X1730007Y1186106D1*
X1731110Y1179862D1*
X1731217Y1164239D1*
X1807988Y1164287D1*
Y1161016D1*
X1813140Y1158765D1*
X1816769Y1155906D1*
X1819629Y1152277D1*
X1821563Y1148083D1*
X1822465Y1143551D1*
X1822525Y1119793D1*
X1943353Y998949D1*
X2150667Y998933D1*
X2151096Y1006558D1*
X2152356Y1011801D1*
X2154419Y1016783D1*
X2157236Y1021381D1*
X2160739Y1025482D1*
X2286394Y1151150D1*
X2284459Y1155344D1*
X2283558Y1159875D1*
X2283497Y1331388D1*
X2265769Y1331382D1*
X2219424Y1284996D1*
X2219299Y1139035D1*
X2218455Y1133710D1*
X2216790Y1128581D1*
X2214341Y1123776D1*
X2211172Y1119413D1*
X2154222Y1062314D1*
X2150121Y1058811D1*
X2145524Y1055993D1*
X2140541Y1053930D1*
X2135298Y1052671D1*
X2129921Y1052248D1*
X2103310D1*
X1164261Y1681217D2*
X1164287Y1663785D1*
X1170483Y1666542D1*
X1175726Y1667802D1*
X1181102Y1668224D1*
X1242854Y1668118D1*
X1248180Y1667276D1*
X1253308Y1665609D1*
X1258114Y1663160D1*
X1262762Y1659726D1*
X1262878Y1700352D1*
X1257688Y1705522D1*
X1248990Y1706761D1*
X1242051Y1709016D1*
X1235550Y1712328D1*
X1229648Y1716615D1*
X1224490Y1721774D1*
X1220202Y1727676D1*
X1216890Y1734177D1*
X1214635Y1741115D1*
X1213493Y1748320D1*
Y1755617D1*
X1214635Y1762822D1*
X1216890Y1769760D1*
X1220202Y1776261D1*
X1224490Y1782163D1*
X1229648Y1787322D1*
X1235550Y1791609D1*
X1242051Y1794921D1*
X1248990Y1797176D1*
X1256194Y1798318D1*
X1263333Y1798323D1*
X1204276Y1857366D1*
X1195780D1*
X1195677Y1828012D1*
X1194835Y1822686D1*
X1193168Y1817558D1*
X1190719Y1812752D1*
X1187550Y1808390D1*
X1136724Y1757415D1*
X1136306Y1746592D1*
X1135046Y1741349D1*
X1132793Y1736026D1*
X1132791Y1731186D1*
X1134113Y1738818D1*
X1132983Y1736366D1*
X1132807Y1731217D1*
X1164287D1*
Y1663785D1*
X1170483Y1666542D1*
X1175726Y1667802D1*
X1181102Y1668224D1*
X1361618Y1556507D2*
X1358538Y1550510D1*
X1354251Y1544609D1*
X1349092Y1539450D1*
X1343190Y1535163D1*
X1336689Y1531850D1*
X1329751Y1529596D1*
X1322546Y1528454D1*
X1315249D1*
X1308045Y1529596D1*
X1301106Y1531850D1*
X1294605Y1535163D1*
X1291583Y1537182D1*
X1292988Y1528962D1*
Y1521665D1*
X1291846Y1514461D1*
X1289592Y1507522D1*
X1286280Y1501021D1*
X1281992Y1495119D1*
X1276833Y1489961D1*
X1270932Y1485673D1*
X1264430Y1482361D1*
X1257492Y1480106D1*
X1248819Y1478907D1*
X1236558Y1466781D1*
X1232196Y1463612D1*
X1227390Y1461163D1*
X1222261Y1459497D1*
X1216936Y1458654D1*
X1208135Y1458547D1*
X1254396Y1412315D1*
X1361593Y1412319D1*
X1361606Y1556420D1*
X686797Y1489026D2*
X683955Y1489247D1*
X689518Y1486290D1*
X686790Y1489018D1*
X683972Y1476969D1*
Y1392642D1*
X694479Y1392634D1*
X760354Y1458562D1*
X728799Y1458654D1*
X723474Y1459496D1*
X718345Y1461163D1*
X713539Y1463612D1*
X709177Y1466781D1*
X689518Y1486290D1*
X1680035Y1037274D2*
X1679929Y993366D1*
X1679087Y988041D1*
X1677420Y982912D1*
X1674971Y978106D1*
X1671802Y973744D1*
X1618906Y920697D1*
X1618819Y840795D1*
X1617976Y835470D1*
X1617181Y832705D1*
X1688160Y903701D1*
X1688159Y1037268D1*
X1440092Y1200787D2*
D14*
X1496063D1*
X1889764Y1775591D2*
X1945735D1*
X2289698Y1465748D2*
X2349606D1*
X2114136Y2012119D2*
X2166171D1*
X1345604Y1948819D2*
X1397638D1*
X472441Y2755906D2*
X532349D1*
X1830709Y1692913D2*
X1870932D1*
X1912533Y1295276D2*
X1968504D1*
X2047244Y1299213D2*
X2103215D1*
X1574803Y2122047D2*
X1630774D1*
X1853478Y2106299D2*
X1965420D1*
X1323088Y748031D2*
X1375122D1*
X783681Y954927D2*
X895623D1*
X744064Y745340D2*
X796098D1*
X1310660Y1074888D2*
X1422602D1*
X1976539Y1702144D2*
X2032510D1*
X1544734Y1620563D2*
X1600705D1*
D17*
X1496063Y1200787D3*
Y1275591D3*
X1889764Y1850394D3*
Y1775591D3*
D18*
X1710238Y1758672D3*
X1635434D3*
X1771654Y2086614D3*
X1696850D3*
D19*
X485039Y1065748D3*
D20*
Y1165748D3*
Y1265748D3*
Y1365748D3*
Y1465748D3*
Y1565748D3*
Y1665748D3*
Y1765748D3*
Y1865748D3*
Y1965748D3*
D19*
X2349606D3*
D20*
Y1865748D3*
Y1765748D3*
Y1665748D3*
Y1565748D3*
Y1465748D3*
Y1365748D3*
Y1265748D3*
Y1165748D3*
Y1065748D3*
D18*
X2114136Y2012119D3*
X2039333D3*
X1397638Y1948819D3*
X1472441D3*
D23*
X1673228Y1870079D3*
Y1889764D3*
Y1909449D3*
Y1929134D3*
Y1948819D3*
Y1968504D3*
Y1988189D3*
X1787402Y1870079D3*
Y1889764D3*
Y1909449D3*
Y1929134D3*
Y1948819D3*
Y1968504D3*
Y1988189D3*
D24*
X1730315Y1938976D3*
D23*
X1787402Y2007874D3*
X1673228D3*
D19*
X472441Y2755906D3*
D20*
Y2655906D3*
Y2555906D3*
Y2455906D3*
Y2355906D3*
D17*
X1082677Y1913386D3*
Y1988189D3*
Y1161417D3*
Y1236220D3*
X1220472Y1909449D3*
Y1984252D3*
Y1161417D3*
Y1236220D3*
X944882Y1913386D3*
Y1988189D3*
D25*
X1830709Y1692913D3*
Y1744094D3*
D17*
X946850Y1163386D3*
Y1238189D3*
X807087Y1909449D3*
Y1984252D3*
Y1161417D3*
Y1236220D3*
X1968504Y1220472D3*
Y1295276D3*
X2047244Y1299213D3*
Y1224409D3*
Y1161417D3*
Y1086614D3*
D26*
X885827Y1692913D3*
Y1642913D3*
Y1592913D3*
Y1542913D3*
Y1492913D3*
Y1442913D3*
Y1392913D3*
X1098425D3*
Y1442913D3*
Y1492913D3*
Y1542913D3*
Y1592913D3*
Y1642913D3*
Y1692913D3*
D27*
X1594488Y1102362D3*
X1620079D3*
X1645669D3*
X1671260D3*
X1696850D3*
X1722441D3*
X1748031D3*
X1773622D3*
Y1330709D3*
X1748031D3*
X1722441D3*
X1696850D3*
X1671260D3*
X1645669D3*
X1620079D3*
X1594488D3*
D17*
X1574803Y2047244D3*
Y2122047D3*
X1909449Y2106299D3*
Y2031496D3*
X1318898Y1692913D3*
Y1618110D3*
X1165608Y688976D3*
Y763780D3*
D18*
X1323088Y748031D3*
X1248285D3*
D17*
X703194Y938488D3*
Y1013291D3*
X839652Y954927D3*
Y1029730D3*
X953579Y669130D3*
Y743933D3*
D18*
X796098Y745340D3*
X870902D3*
D17*
X1220472Y925197D3*
Y1000000D3*
X1366631Y1074888D3*
Y1000085D3*
X2116741Y1907510D3*
Y1832707D3*
X2032510Y1776948D3*
Y1702144D3*
X1544734Y1620563D3*
Y1695366D3*
X1533286Y1776777D3*
Y1851580D3*
D28*
X1697252Y664104D3*
X1635299Y737559D3*
X1529505Y854849D3*
X1453752Y949001D3*
X1470542Y2109047D3*
X2123239Y1734631D3*
M02*
