G04 DipTrace 3.0.0.2*
G04 Top.gbr*
%MOIN*%
G04 #@! TF.FileFunction,Copper,L1,Top*
G04 #@! TF.Part,Single*
G04 #@! TA.AperFunction,CopperBalancing*
%ADD13C,0.012992*%
G04 #@! TA.AperFunction,Conductor*
%ADD14C,0.011811*%
G04 #@! TA.AperFunction,CopperBalancing*
%ADD15C,0.025*%
G04 #@! TA.AperFunction,ComponentPad*
%ADD16R,0.066929X0.066929*%
%ADD17C,0.066929*%
%ADD18R,0.011811X0.057087*%
%ADD19R,0.059055X0.051181*%
%ADD20R,0.07874X0.023622*%
%ADD21R,0.051181X0.059055*%
G04 #@! TA.AperFunction,ComponentPad*
%ADD22C,0.059055*%
G04 #@! TA.AperFunction,ViaPad*
%ADD23C,0.04*%
%FSLAX26Y26*%
G04*
G70*
G90*
G75*
G01*
G04 Top*
%LPD*%
X1909449Y1515748D2*
D13*
X2132874D1*
X2181299Y1564173D1*
Y2159055D1*
X2155315Y2185039D1*
X2106299D1*
X1653543Y819291D2*
X1590551D1*
Y964567D1*
X1318898Y1807087D2*
Y1867087D1*
X2181299Y1564173D2*
X2349606D1*
X964567Y2224409D2*
X1056791D1*
X1076358Y2204843D1*
X1146575D1*
X833684Y1775109D2*
X964567D1*
Y1771654D1*
X1003937Y2732756D2*
Y2795276D1*
X1146575Y2204843D2*
X1044409Y2102677D1*
X990551D1*
X964567Y2076693D1*
Y2027559D1*
X2106299Y2185039D2*
Y2224409D1*
X1968504D1*
X1476378Y1661024D2*
X1407402D1*
X1381417Y1687008D1*
Y1750512D1*
X1555118Y1496063D2*
Y1661024D1*
X1476378D1*
X1590551Y964567D2*
Y1056693D1*
X1555118Y1092126D1*
Y1496063D1*
X1318898Y1867087D2*
Y1988189D1*
X1830709Y1082677D2*
X1616535D1*
X1590551Y1056693D1*
X1968504Y1082677D2*
X1830709D1*
X1988189Y787402D2*
Y1082677D1*
X1968504D1*
X2145669Y783465D2*
Y787402D1*
X1988189D1*
X2349606Y1564173D2*
X2402559Y1511220D1*
Y809449D1*
X2376575Y783465D1*
X2145669D1*
X1273031Y2746260D2*
X1262992Y2736220D1*
X1496063D1*
X1574803Y2814961D1*
X1633858D1*
X1200787Y2507480D2*
X1273031D1*
Y2746260D1*
X1279528Y2362205D2*
X1141929D1*
X1115945Y2388189D1*
Y2481496D1*
X1141929Y2507480D1*
X1200787D1*
X1146575Y2204843D2*
X1253545D1*
X1279528Y2230825D1*
Y2362205D1*
X964567Y1771654D2*
X1013583D1*
Y1555118D1*
X964567D1*
X1181102Y1850394D2*
D14*
Y1885433D1*
D13*
Y1968504D1*
X1200787Y1988189D1*
X1318898D1*
X1929134Y2224409D2*
D14*
Y2259449D1*
D13*
Y2283465D1*
X1968504D1*
Y2259449D1*
D14*
Y2224409D1*
Y1259843D2*
D13*
Y1157480D1*
X1774567Y2162874D2*
Y2481496D1*
X1748583Y2507480D1*
X1413386D1*
X1774567Y1661024D2*
X1688976D1*
X1830709Y1157480D2*
X1692913D1*
Y1661024D1*
X1774567D1*
X1968504Y1157480D2*
X1830709D1*
X1341933Y1394055D2*
Y1651181D1*
X1315949Y1677165D1*
X1220472D1*
X2007874Y1870079D2*
Y2016102D1*
X1968504D1*
Y2051181D1*
X1252874Y1536579D2*
X1200787Y1588665D1*
Y1677165D1*
X2007402Y2099213D2*
X1948819D1*
Y2051181D1*
X597098Y1614173D2*
X610236D1*
X669291Y1555118D1*
X712598D1*
X688976Y1456693D2*
X712598Y1480315D1*
Y1555118D1*
X485039Y1864173D2*
X692913D1*
Y1811024D1*
X688976Y1712598D2*
X692913Y1716535D1*
Y1811024D1*
X485039Y1964173D2*
X580386D1*
X624087Y2007874D1*
X712598D1*
X669291Y2051181D1*
Y2145669D1*
X485039Y2064173D2*
X568110D1*
X590551Y2086614D1*
Y2283465D1*
X712598D1*
X610236D2*
X712598D1*
X1341024Y2657480D2*
X1413386D1*
X1226890Y1911929D2*
X1217992D1*
X1240157Y1889764D1*
Y1850394D1*
X1220472D1*
X1240472Y1778268D2*
Y1732283D1*
X1318898D1*
X1413386Y2607480D2*
X1354331D1*
Y2362205D1*
X1968504Y1334646D2*
X1919488D1*
Y1433543D1*
X1440945Y669291D2*
X1499803D1*
Y595433D1*
X1629921Y1496063D2*
Y1558583D1*
X1515748Y1433543D2*
Y964567D1*
X2106299Y2016102D2*
Y2110236D1*
X1354331Y2362205D2*
Y2299685D1*
X1919488Y1433543D2*
X2219811D1*
X2250441Y1464173D1*
X2349606D1*
X1499803Y595433D2*
X1559803Y535433D1*
X1988189D1*
X1629921Y1558583D2*
Y1761024D1*
X1688976D1*
X1515748Y964567D2*
X1417323D1*
X1688976Y1761024D2*
X1687890Y1762110D1*
X1860535D1*
X1955433Y1857008D1*
Y1976614D1*
X1181102Y1677165D2*
D14*
Y1712205D1*
D13*
Y1732283D1*
X1227087Y1778268D1*
X1240472D1*
X1929134Y2051181D2*
D14*
Y2016142D1*
D13*
Y1988189D1*
X1940709Y1976614D1*
X1955433D1*
X1393701Y1988189D2*
X1393898Y1914291D1*
X1535433D2*
Y1992126D1*
X1393898Y1914291D2*
Y1811024D1*
X1476378D1*
X1814055D2*
X1688976D1*
X1535433Y2066929D2*
Y2118699D1*
X1533858Y2120274D1*
Y2224409D1*
X1909449Y2138701D2*
Y2224409D1*
Y1590551D2*
Y1633858D1*
X1850394D1*
X2027559D1*
Y1712598D1*
X1850394Y1633858D2*
X1791339Y1574803D1*
Y1338583D1*
X1413386Y2557480D2*
X1472244D1*
X1473819Y2559055D1*
X1559055D1*
X1220472Y2874016D2*
Y2923031D1*
X1246457Y2949016D1*
X1417323D1*
Y2914961D1*
X1220472Y2799213D2*
X1127756D1*
X1123819Y2795276D1*
X1078740D1*
Y2683465D1*
X1104724Y2657480D1*
X1200787D1*
X1440945Y769291D2*
X1330118D1*
X1308858Y748031D1*
X1259843D1*
X944882D2*
X787402D1*
X1102362Y645669D2*
X970866D1*
X944882Y671654D1*
Y748031D1*
X1102362D2*
Y645669D1*
X1259843Y748031D2*
X1102362D1*
X1639508Y1868307D2*
X1863189D1*
X1889764Y1894882D1*
Y2051181D1*
X1440945Y719291D2*
X1348858D1*
Y596850D1*
X1322874Y570866D1*
X1219129D1*
X1187402D1*
X1102362D1*
X1240157Y492126D2*
X1219129Y513155D1*
Y570866D1*
X2145669Y708661D2*
Y636220D1*
X2119685Y610236D1*
X1988189D1*
Y712598D2*
X1866563D1*
X1791957Y637992D1*
X1565276D1*
X1539291Y663976D1*
Y793307D1*
X1513307Y819291D1*
X1440945D1*
X1988189Y610236D2*
Y712598D1*
X2263780Y629921D2*
X2136665D1*
X2119685Y610236D1*
X1633858Y2740157D2*
Y2559055D1*
X1848121D1*
X1861547D1*
X1888123Y2532479D1*
Y2224409D1*
X1848121Y2559055D2*
X1889764Y2600698D1*
Y2696850D1*
X1688976Y1711024D2*
X1747835D1*
X1749409Y1712598D1*
X1952756D1*
X1476378Y1761024D2*
X1535236D1*
Y1842323D1*
X1438780Y1938780D1*
Y2037205D1*
X1412795Y2063189D1*
X1246575D1*
X767717Y1811024D2*
X767720Y1873543D1*
X787402Y1317126D2*
Y822835D1*
X1246575Y2063189D2*
X1177362D1*
X1122047Y2007874D1*
Y1850394D1*
X1140092D1*
X767720Y1873543D2*
X812795D1*
X839882Y1846457D1*
X964567D1*
X944882Y822835D2*
Y1265154D1*
X1548740Y1711024D2*
X1476378D1*
X787402Y1555118D2*
X822638D1*
X897441Y1629921D1*
X964567D1*
X944882Y1265154D2*
Y1299213D1*
X825980Y1418114D1*
X813386D1*
X787402Y1444098D1*
Y1555118D1*
X1161417Y1850394D2*
D14*
X1161331Y1850307D1*
D13*
Y1808461D1*
X1163778Y1806013D1*
Y1786618D1*
X964567Y1629921D2*
X944882Y1649606D1*
Y1692913D1*
X787402Y2007874D2*
Y1952756D1*
X915551D1*
Y2531496D1*
X941535Y2557480D1*
X1200787D1*
X915551Y1952756D2*
X964567D1*
X1035154Y1882169D1*
Y1826139D1*
X1036130Y1825163D1*
Y1798827D1*
X1070266Y1764690D1*
Y1677165D1*
X1107276D1*
X1129331D1*
D14*
X1141732D1*
X1107276D2*
D13*
X1102362Y1672252D1*
Y1437008D1*
X1200787Y1338583D1*
Y885827D1*
X1263780Y822835D1*
X1259843D1*
X1082677Y1811024D2*
X1161417Y1732283D1*
Y1677165D1*
X787402Y2283465D2*
X876063D1*
Y2165354D1*
X1102362Y1330626D2*
Y822835D1*
X1027087Y2149606D2*
X964567D1*
X876063Y2165354D2*
Y2581496D1*
X902047Y2607480D1*
X1200787D1*
D23*
X1161417Y2125984D3*
X1163778Y1786618D3*
X944882Y1692913D3*
X1381417Y1750512D3*
X1318898Y1867087D3*
X833684Y1775109D3*
X1003937Y2732756D3*
X1273031Y2746260D3*
X1146575Y2204843D3*
X1774567Y2162874D3*
Y1661024D3*
X1341933Y1394055D3*
X2007874Y1870079D3*
X1252874Y1536579D3*
X2007402Y2099213D3*
X597098Y1614173D3*
X1341024Y2657480D3*
X1226890Y1911929D3*
X1354331Y2299685D3*
X1417323Y964567D3*
X2106299Y2016102D3*
X1629921Y1558583D3*
X1919488Y1433543D3*
X1515748D3*
X1240472Y1778268D3*
X1499803Y595433D3*
X1955433Y1976614D3*
X1535433Y1914291D3*
X1393898D3*
X1814055Y1811024D3*
X1909449Y2138701D3*
X1850394Y1633858D3*
X1639508Y1868307D3*
X1187402Y570866D3*
X787402Y1317126D3*
X767720Y1873543D3*
X1246575Y2063189D3*
X944882Y1265154D3*
X1548740Y1711024D3*
X1082677Y1811024D3*
X1102362Y1330626D3*
X1027087Y2149606D3*
X876063Y2165354D3*
X434685Y3007513D2*
D15*
X2399973D1*
X434685Y2982644D2*
X2399973D1*
X434685Y2957776D2*
X1206077D1*
X1461809D2*
X2399973D1*
X434685Y2932907D2*
X1186497D1*
X1477043D2*
X2399973D1*
X434685Y2908038D2*
X1161936D1*
X1278997D2*
X1355247D1*
X1479387D2*
X2399973D1*
X434685Y2883169D2*
X1161936D1*
X1278997D2*
X1363987D1*
X1470647D2*
X2399973D1*
X434685Y2858301D2*
X1161936D1*
X1278997D2*
X1354856D1*
X1479778D2*
X1575315D1*
X1692375D2*
X2399973D1*
X434685Y2833432D2*
X949338D1*
X1133342D2*
X1161936D1*
X1278997D2*
X1354856D1*
X1479778D2*
X1575315D1*
X1692375D2*
X2399973D1*
X434685Y2808563D2*
X949338D1*
X1278997D2*
X1354856D1*
X1479778D2*
X1575315D1*
X1692375D2*
X2399973D1*
X434685Y2783694D2*
X949338D1*
X1278997D2*
X1354856D1*
X1479778D2*
X1575315D1*
X1692375D2*
X2399973D1*
X434685Y2758825D2*
X949338D1*
X1133342D2*
X1161936D1*
X1278997D2*
X1354856D1*
X1479778D2*
X1575315D1*
X1692375D2*
X2399973D1*
X434685Y2733957D2*
X1043284D1*
X1114202D2*
X1575315D1*
X1692375D2*
X1845286D1*
X1934221D2*
X2399973D1*
X434685Y2709088D2*
X1043284D1*
X1114202D2*
X1575315D1*
X1692375D2*
X1832590D1*
X1946916D2*
X2399973D1*
X434685Y2684219D2*
X1043284D1*
X1269133D2*
X1300510D1*
X1481731D2*
X1598362D1*
X1669329D2*
X1832688D1*
X1946819D2*
X2399973D1*
X434685Y2659350D2*
X1053733D1*
X1269133D2*
X1292063D1*
X1481731D2*
X1598362D1*
X1669329D2*
X1845627D1*
X1933879D2*
X2399973D1*
X434685Y2634482D2*
X880637D1*
X1269133D2*
X1298118D1*
X1481731D2*
X1598362D1*
X1669329D2*
X1854270D1*
X1925237D2*
X2399973D1*
X434685Y2609613D2*
X855051D1*
X1269133D2*
X1318918D1*
X1481731D2*
X1504465D1*
X1688420D2*
X1849534D1*
X1925237D2*
X2399973D1*
X434685Y2584744D2*
X840745D1*
X1269133D2*
X1318870D1*
X1921135D2*
X2399973D1*
X434685Y2559875D2*
X840598D1*
X1269133D2*
X1318870D1*
X1909856D2*
X2399973D1*
X434685Y2535007D2*
X840598D1*
X1269133D2*
X1318870D1*
X1923479D2*
X2399973D1*
X434685Y2510138D2*
X840598D1*
X951018D2*
X1132444D1*
X1269133D2*
X1318870D1*
X1795061D2*
X1852659D1*
X1923577D2*
X2399973D1*
X434685Y2485269D2*
X840598D1*
X951018D2*
X1132444D1*
X1269133D2*
X1318870D1*
X1809807D2*
X1852659D1*
X1923577D2*
X2399973D1*
X434685Y2460400D2*
X840598D1*
X951018D2*
X1318870D1*
X1389788D2*
X1739084D1*
X1810051D2*
X1852659D1*
X1923577D2*
X2399973D1*
X434685Y2435531D2*
X840598D1*
X951018D2*
X1318870D1*
X1389788D2*
X1739084D1*
X1810051D2*
X1852659D1*
X1923577D2*
X2399973D1*
X434685Y2410663D2*
X840598D1*
X951018D2*
X1224924D1*
X1408928D2*
X1739084D1*
X1810051D2*
X1852659D1*
X1923577D2*
X2399973D1*
X434685Y2385794D2*
X840598D1*
X951018D2*
X1224924D1*
X1408928D2*
X1739084D1*
X1810051D2*
X1852659D1*
X1923577D2*
X2399973D1*
X434685Y2360925D2*
X840598D1*
X951018D2*
X1224924D1*
X1408928D2*
X1739084D1*
X1810051D2*
X1852659D1*
X1923577D2*
X2399973D1*
X434685Y2336056D2*
X588450D1*
X632024D2*
X658030D1*
X951018D2*
X1224924D1*
X1408928D2*
X1739084D1*
X1810051D2*
X1852659D1*
X1923577D2*
X2399973D1*
X434685Y2311188D2*
X559055D1*
X951018D2*
X1224924D1*
X1408928D2*
X1739084D1*
X1810051D2*
X1852659D1*
X1923577D2*
X2399973D1*
X434685Y2286319D2*
X551780D1*
X951018D2*
X1307297D1*
X1401360D2*
X1739084D1*
X1810051D2*
X1852659D1*
X1923577D2*
X2399973D1*
X434685Y2261450D2*
X555100D1*
X1023088D2*
X1325364D1*
X1383293D2*
X1484202D1*
X1696331D2*
X1739084D1*
X1810051D2*
X1852659D1*
X2003411D2*
X2399973D1*
X434685Y2236581D2*
X555100D1*
X1023088D2*
X1472629D1*
X1696331D2*
X1739084D1*
X1810051D2*
X1852659D1*
X2003411D2*
X2047776D1*
X2164836D2*
X2399973D1*
X434685Y2211713D2*
X555100D1*
X1023088D2*
X1472776D1*
X1696331D2*
X1739084D1*
X1810051D2*
X1853245D1*
X2003411D2*
X2047776D1*
X2164836D2*
X2399973D1*
X434685Y2186844D2*
X555100D1*
X1057415D2*
X1484641D1*
X1696331D2*
X1732249D1*
X1816887D2*
X1853245D1*
X2003411D2*
X2047776D1*
X2164836D2*
X2399973D1*
X434685Y2161975D2*
X555100D1*
X1074407D2*
X1129465D1*
X1193352D2*
X1498362D1*
X1569329D2*
X1725608D1*
X1823528D2*
X1866721D1*
X1952190D2*
X2047776D1*
X2164836D2*
X2399973D1*
X434685Y2137106D2*
X555100D1*
X1074358D2*
X1113791D1*
X1209075D2*
X1498362D1*
X1569329D2*
X1733372D1*
X1815764D2*
X1860471D1*
X1958391D2*
X1977952D1*
X2164836D2*
X2399973D1*
X523381Y2112238D2*
X555100D1*
X1057268D2*
X1114524D1*
X1208342D2*
X1476926D1*
X1593938D2*
X1868723D1*
X2164836D2*
X2287131D1*
X951018Y2087369D2*
X1133030D1*
X1437737D2*
X1476926D1*
X1593938D2*
X1854856D1*
X2164836D2*
X2287131D1*
X1023088Y2062500D2*
X1127561D1*
X1462639D2*
X1476886D1*
X1593938D2*
X1854856D1*
X2164836D2*
X2287131D1*
X1023088Y2037631D2*
X1102659D1*
X1593938D2*
X1854270D1*
X2035344D2*
X2062571D1*
X2149993D2*
X2287131D1*
X1023088Y2012762D2*
X1086936D1*
X1176067D2*
X1264329D1*
X1593938D2*
X1854270D1*
X2043352D2*
X2057444D1*
X2155168D2*
X2287131D1*
X1023088Y1987894D2*
X1086594D1*
X1157512D2*
X1264329D1*
X1593938D2*
X1854270D1*
X2043352D2*
X2066819D1*
X2145745D2*
X2292063D1*
X1023088Y1963025D2*
X1086594D1*
X1157512D2*
X1264329D1*
X1593938D2*
X1854270D1*
X2043352D2*
X2287180D1*
X1028313Y1938156D2*
X1086594D1*
X1157512D2*
X1186008D1*
X1577825D2*
X1854270D1*
X2043352D2*
X2293088D1*
X1053166Y1913287D2*
X1086594D1*
X1157512D2*
X1177903D1*
X1275872D2*
X1344895D1*
X1584416D2*
X1625266D1*
X1653752D2*
X1854270D1*
X2043352D2*
X2312717D1*
X1070012Y1888419D2*
X1086594D1*
X1275627D2*
X1352756D1*
X1576555D2*
X1595090D1*
X2053118D2*
X2292258D1*
X1070647Y1863550D2*
X1086594D1*
X1275627D2*
X1358420D1*
X1562981D2*
X1590745D1*
X2056389D2*
X2287131D1*
X1570696Y1838681D2*
X1601194D1*
X2044670D2*
X2292844D1*
X521184Y1813812D2*
X638352D1*
X1570696D2*
X1620627D1*
X1961370D2*
X2313499D1*
X542131Y1788944D2*
X638352D1*
X822307D2*
X906028D1*
X1570696D2*
X1609885D1*
X1936516D2*
X2292502D1*
X547502Y1764075D2*
X638352D1*
X822307D2*
X906028D1*
X1377434D2*
X1408030D1*
X1570696D2*
X1594602D1*
X2082122D2*
X2287131D1*
X542034Y1739206D2*
X637180D1*
X740764D2*
X906028D1*
X1377434D2*
X1408030D1*
X2082122D2*
X2292600D1*
X520891Y1714337D2*
X630491D1*
X747454D2*
X901096D1*
X988665D2*
X1034788D1*
X1377434D2*
X1408030D1*
X2082122D2*
X2313791D1*
X541887Y1689469D2*
X635471D1*
X742522D2*
X896018D1*
X993743D2*
X1034788D1*
X1377434D2*
X1408030D1*
X2082122D2*
X2292747D1*
X547502Y1664600D2*
X657590D1*
X720354D2*
X905491D1*
X1023088D2*
X1037243D1*
X1374553D2*
X1408030D1*
X1544719D2*
X1594456D1*
X2082122D2*
X2287131D1*
X542278Y1639731D2*
X555784D1*
X638420D2*
X858127D1*
X1023088D2*
X1066868D1*
X1255364D2*
X1304270D1*
X1377385D2*
X1408030D1*
X1544719D2*
X1594456D1*
X2063030D2*
X2292356D1*
X521624Y1614862D2*
X548118D1*
X658684D2*
X833225D1*
X1023088D2*
X1066868D1*
X1137834D2*
X1165305D1*
X1236272D2*
X1306467D1*
X1377385D2*
X1594456D1*
X1728411D2*
X1766526D1*
X2057024D2*
X2313010D1*
X541643Y1589993D2*
X554905D1*
X1023088D2*
X1066868D1*
X1137834D2*
X1165305D1*
X1248577D2*
X1306467D1*
X1377385D2*
X1593137D1*
X1728411D2*
X1759592D1*
X1967961D2*
X2292991D1*
X547502Y1565125D2*
X610129D1*
X881780D2*
X906028D1*
X1023088D2*
X1066868D1*
X1137834D2*
X1175217D1*
X1292083D2*
X1306467D1*
X1377385D2*
X1581370D1*
X1728411D2*
X1755881D1*
X1830803D2*
X1850950D1*
X1967961D2*
X2287180D1*
X542522Y1540256D2*
X635032D1*
X856926D2*
X906028D1*
X1023088D2*
X1066868D1*
X1137834D2*
X1200071D1*
X1377385D2*
X1500559D1*
X1728411D2*
X1755881D1*
X1826799D2*
X1850950D1*
X1967961D2*
X2292112D1*
X522405Y1515387D2*
X658030D1*
X841985D2*
X906028D1*
X1023088D2*
X1066868D1*
X1137834D2*
X1209006D1*
X1377385D2*
X1500559D1*
X1728411D2*
X1755881D1*
X1826799D2*
X1850950D1*
X1967961D2*
X2312278D1*
X541399Y1490518D2*
X641819D1*
X822893D2*
X1066868D1*
X1137834D2*
X1244065D1*
X1261664D2*
X1306467D1*
X1377385D2*
X1500559D1*
X1728411D2*
X1755881D1*
X1826799D2*
X1850950D1*
X1967961D2*
X2228098D1*
X547454Y1465650D2*
X631174D1*
X822893D2*
X1066868D1*
X1137834D2*
X1306467D1*
X1377385D2*
X1479612D1*
X1728411D2*
X1755881D1*
X1826799D2*
X1850950D1*
X542766Y1440781D2*
X632786D1*
X852434D2*
X1066868D1*
X1147747D2*
X1306467D1*
X1377385D2*
X1467307D1*
X1728411D2*
X1755881D1*
X1826799D2*
X1871067D1*
X523137Y1415912D2*
X648069D1*
X729875D2*
X766477D1*
X877336D2*
X1074534D1*
X1172600D2*
X1298411D1*
X1385491D2*
X1470237D1*
X1561272D2*
X1657444D1*
X1728411D2*
X1755881D1*
X1826799D2*
X1873948D1*
X2251311D2*
X2311545D1*
X541155Y1391043D2*
X792063D1*
X902190D2*
X1099192D1*
X1197454D2*
X1293040D1*
X1390813D2*
X1480295D1*
X1551213D2*
X1657444D1*
X1728411D2*
X1755881D1*
X1826799D2*
X1884006D1*
X1954973D2*
X2293528D1*
X547454Y1366175D2*
X828782D1*
X927043D2*
X1069895D1*
X1222307D2*
X1302219D1*
X1381633D2*
X1480295D1*
X1551213D2*
X1657444D1*
X1842571D2*
X1884006D1*
X2027043D2*
X2287180D1*
X542961Y1341306D2*
X745188D1*
X829631D2*
X853635D1*
X951946D2*
X1054612D1*
X1236174D2*
X1480295D1*
X1551213D2*
X1657444D1*
X1849797D2*
X1884006D1*
X2027043D2*
X2291672D1*
X523821Y1316437D2*
X738401D1*
X836370D2*
X878538D1*
X975481D2*
X1055588D1*
X1236272D2*
X1480295D1*
X1551213D2*
X1657444D1*
X1845305D2*
X1889475D1*
X2027043D2*
X2310813D1*
X540862Y1291568D2*
X746067D1*
X828752D2*
X903391D1*
X985637D2*
X1066868D1*
X1236272D2*
X1480295D1*
X1551213D2*
X1657444D1*
X1728411D2*
X1758372D1*
X1824309D2*
X1909983D1*
X2027043D2*
X2293772D1*
X547454Y1266699D2*
X751926D1*
X822893D2*
X895920D1*
X993840D2*
X1066868D1*
X1236272D2*
X1480295D1*
X1551213D2*
X1657444D1*
X1728411D2*
X1909983D1*
X2027043D2*
X2287180D1*
X543157Y1241831D2*
X751926D1*
X822893D2*
X902170D1*
X987590D2*
X1066868D1*
X1236272D2*
X1480295D1*
X1551213D2*
X1657444D1*
X1728411D2*
X1909983D1*
X2027043D2*
X2291477D1*
X547502Y1216962D2*
X751926D1*
X822893D2*
X909397D1*
X980364D2*
X1066868D1*
X1236272D2*
X1480295D1*
X1551213D2*
X1657444D1*
X1728411D2*
X1909983D1*
X2027043D2*
X2310129D1*
X547502Y1192093D2*
X751926D1*
X822893D2*
X909397D1*
X980364D2*
X1066868D1*
X1236272D2*
X1480295D1*
X1551213D2*
X1657444D1*
X1728411D2*
X1772190D1*
X1889250D2*
X1909983D1*
X2027043D2*
X2294065D1*
X547502Y1167224D2*
X751926D1*
X822893D2*
X909397D1*
X980364D2*
X1066868D1*
X1236272D2*
X1480295D1*
X1551213D2*
X1657444D1*
X2027043D2*
X2287229D1*
X547502Y1142356D2*
X751926D1*
X822893D2*
X909397D1*
X980364D2*
X1066868D1*
X1236272D2*
X1480295D1*
X1551213D2*
X1661106D1*
X2027043D2*
X2291282D1*
X547502Y1117487D2*
X751926D1*
X822893D2*
X909397D1*
X980364D2*
X1066868D1*
X1236272D2*
X1480295D1*
X1551213D2*
X1772190D1*
X1889250D2*
X1909983D1*
X2027043D2*
X2309495D1*
X434685Y1092618D2*
X751926D1*
X822893D2*
X909397D1*
X980364D2*
X1066868D1*
X1236272D2*
X1480295D1*
X1551213D2*
X1772190D1*
X1889250D2*
X1909983D1*
X2027043D2*
X2399973D1*
X434685Y1067749D2*
X751926D1*
X822893D2*
X909397D1*
X980364D2*
X1066868D1*
X1236272D2*
X1480295D1*
X1551213D2*
X1772190D1*
X1889250D2*
X1909983D1*
X2027043D2*
X2399973D1*
X434685Y1042881D2*
X751926D1*
X822893D2*
X909397D1*
X980364D2*
X1066868D1*
X1236272D2*
X1480295D1*
X1551213D2*
X1772190D1*
X1889250D2*
X1909983D1*
X2027043D2*
X2399973D1*
X434685Y1018012D2*
X751926D1*
X822893D2*
X909397D1*
X980364D2*
X1066868D1*
X1236272D2*
X1461155D1*
X1645110D2*
X2399973D1*
X434685Y993143D2*
X751926D1*
X822893D2*
X909397D1*
X980364D2*
X1066868D1*
X1236272D2*
X1378147D1*
X1645110D2*
X2399973D1*
X434685Y968274D2*
X751926D1*
X822893D2*
X909397D1*
X980364D2*
X1066868D1*
X1236272D2*
X1368479D1*
X1645110D2*
X2399973D1*
X434685Y943406D2*
X751926D1*
X822893D2*
X909397D1*
X980364D2*
X1066868D1*
X1236272D2*
X1373411D1*
X1645110D2*
X2399973D1*
X434685Y918537D2*
X751926D1*
X822893D2*
X909397D1*
X980364D2*
X1066868D1*
X1236272D2*
X1408274D1*
X1426363D2*
X1461155D1*
X1645110D2*
X2399973D1*
X434685Y893668D2*
X751926D1*
X822893D2*
X909397D1*
X980364D2*
X1066868D1*
X1242083D2*
X2399973D1*
X434685Y868799D2*
X728879D1*
X845940D2*
X886350D1*
X1003411D2*
X1043821D1*
X1318352D2*
X2399973D1*
X434685Y843930D2*
X728879D1*
X845940D2*
X886350D1*
X1003411D2*
X1043821D1*
X1318352D2*
X1372581D1*
X1537737D2*
X1585178D1*
X1721916D2*
X2399973D1*
X434685Y819062D2*
X728879D1*
X845940D2*
X886350D1*
X1003411D2*
X1043821D1*
X1318352D2*
X1372581D1*
X1562688D2*
X1585178D1*
X1721916D2*
X1929661D1*
X2046721D2*
X2087131D1*
X2204192D2*
X2399973D1*
X434685Y794193D2*
X728879D1*
X845940D2*
X886350D1*
X1003411D2*
X1043821D1*
X1721916D2*
X1929661D1*
X2046721D2*
X2087131D1*
X2204192D2*
X2399973D1*
X434685Y769324D2*
X728879D1*
X1003411D2*
X1043821D1*
X1721916D2*
X1929661D1*
X2046721D2*
X2087131D1*
X2204192D2*
X2399973D1*
X434685Y744455D2*
X728879D1*
X1003411D2*
X1043821D1*
X1721916D2*
X1855540D1*
X2046721D2*
X2087131D1*
X2204192D2*
X2399973D1*
X434685Y719587D2*
X728879D1*
X1003411D2*
X1043821D1*
X1721916D2*
X1824436D1*
X2046721D2*
X2087131D1*
X2204192D2*
X2399973D1*
X434685Y694718D2*
X909397D1*
X980364D2*
X1043821D1*
X1721916D2*
X1799534D1*
X2046721D2*
X2087131D1*
X2204192D2*
X2399973D1*
X434685Y669849D2*
X909446D1*
X2046721D2*
X2087131D1*
X2204192D2*
X2221995D1*
X2305559D2*
X2399973D1*
X434685Y644980D2*
X922434D1*
X2046721D2*
X2103586D1*
X2320256D2*
X2399973D1*
X434685Y620112D2*
X947532D1*
X1384319D2*
X1457883D1*
X2321428D2*
X2399973D1*
X434685Y595243D2*
X1043821D1*
X1384270D2*
X1450803D1*
X2153801D2*
X2217307D1*
X2310295D2*
X2399973D1*
X434685Y570374D2*
X1043821D1*
X1371526D2*
X1458127D1*
X2046721D2*
X2399973D1*
X434685Y545505D2*
X1043821D1*
X1346428D2*
X1500608D1*
X2046721D2*
X2399973D1*
X434685Y520636D2*
X1043821D1*
X1160881D2*
X1183665D1*
X1290862D2*
X1525461D1*
X2046721D2*
X2399973D1*
X434685Y495768D2*
X1181760D1*
X1298577D2*
X1929661D1*
X2046721D2*
X2399973D1*
X434685Y470899D2*
X1185813D1*
X1294524D2*
X2399973D1*
X434685Y446030D2*
X1205833D1*
X1274504D2*
X2399973D1*
X1921143Y2279445D2*
X2000902D1*
Y2169374D1*
X1944388D1*
X1949090Y2162993D1*
X1952402Y2156493D1*
X1954656Y2149554D1*
X1955798Y2142349D1*
Y2135053D1*
X1955457Y2132178D1*
X1974649Y2132201D1*
X1980074Y2136826D1*
X1986295Y2140637D1*
X1993035Y2143429D1*
X2000129Y2145132D1*
X2007402Y2145705D1*
X2014675Y2145132D1*
X2021768Y2143429D1*
X2028509Y2140637D1*
X2034729Y2136826D1*
X2040276Y2132087D1*
X2045014Y2126540D1*
X2048826Y2120320D1*
X2050277Y2117173D1*
X2050280Y2237122D1*
X2162319D1*
Y2058153D1*
X2139321D1*
X2141652Y2046297D1*
X2145940Y2040394D1*
X2149252Y2033894D1*
X2151507Y2026956D1*
X2152648Y2019750D1*
Y2012455D1*
X2151507Y2005249D1*
X2149252Y1998311D1*
X2145940Y1991810D1*
X2141652Y1985908D1*
X2136493Y1980749D1*
X2130591Y1976461D1*
X2124091Y1973149D1*
X2117153Y1970895D1*
X2109947Y1969754D1*
X2102651D1*
X2095446Y1970895D1*
X2088507Y1973149D1*
X2082007Y1976461D1*
X2076105Y1980749D1*
X2070946Y1985908D1*
X2066658Y1991810D1*
X2063346Y1998311D1*
X2061092Y2005249D1*
X2059950Y2012455D1*
Y2019750D1*
X2061092Y2026956D1*
X2063346Y2033894D1*
X2066658Y2040394D1*
X2070946Y2046297D1*
X2073318Y2048862D1*
X2073311Y2058143D1*
X2050280Y2058153D1*
Y2081249D1*
X2047043Y2074921D1*
X2042754Y2069018D1*
X2037596Y2063860D1*
X2031694Y2059572D1*
X2025193Y2056259D1*
X2018255Y2054005D1*
X2011049Y2052864D1*
X2003754D1*
X2001417Y2053140D1*
X2001492Y2049081D1*
X2013035Y2048684D1*
X2020498Y2046580D1*
X2027264Y2042790D1*
X2032958Y2037527D1*
X2037267Y2031079D1*
X2039951Y2023803D1*
X2040862Y2016102D1*
X2040849Y2015769D1*
X2040862Y1902870D1*
X2045487Y1897406D1*
X2049299Y1891186D1*
X2052091Y1884446D1*
X2053794Y1877352D1*
X2054366Y1870079D1*
X2053794Y1862806D1*
X2052091Y1855712D1*
X2049299Y1848972D1*
X2045487Y1842751D1*
X2040749Y1837204D1*
X2035201Y1832466D1*
X2028981Y1828654D1*
X2022241Y1825862D1*
X2015147Y1824159D1*
X2007874Y1823587D1*
X2000601Y1824159D1*
X1993507Y1825862D1*
X1986767Y1828654D1*
X1980547Y1832466D1*
X1978759Y1833682D1*
X1913676Y1768599D1*
X2079642Y1768618D1*
Y1656579D1*
X2060550D1*
X2060446Y1631270D1*
X2058933Y1623664D1*
X2055686Y1616622D1*
X2050885Y1610532D1*
X2044795Y1605731D1*
X2037753Y1602485D1*
X2030147Y1600972D1*
X1965499Y1600870D1*
X1965469Y1466512D1*
X2206158Y1466532D1*
X2229017Y1489258D1*
X2235465Y1493566D1*
X2242740Y1496250D1*
X2250441Y1497161D1*
X2250775Y1497148D1*
X2299578Y1497137D1*
X2304015Y1503112D1*
X2310668Y1509765D1*
X2316526Y1514182D1*
X2309958Y1519197D1*
X2304656Y1524496D1*
X2300057Y1530414D1*
X2296233Y1536859D1*
X2293242Y1543732D1*
X2291132Y1550924D1*
X2289936Y1558323D1*
X2289672Y1565814D1*
X2290345Y1573278D1*
X2291944Y1580601D1*
X2294444Y1587667D1*
X2297806Y1594365D1*
X2301978Y1600592D1*
X2306894Y1606250D1*
X2312477Y1611250D1*
X2316551Y1614206D1*
X2310668Y1618582D1*
X2304015Y1625234D1*
X2298485Y1632846D1*
X2294214Y1641229D1*
X2291306Y1650177D1*
X2289834Y1659469D1*
Y1668877D1*
X2291306Y1678170D1*
X2294214Y1687118D1*
X2298485Y1695501D1*
X2304015Y1703112D1*
X2310668Y1709765D1*
X2316551Y1714206D1*
X2310668Y1718582D1*
X2304015Y1725234D1*
X2298485Y1732846D1*
X2294214Y1741229D1*
X2291306Y1750177D1*
X2289834Y1759469D1*
Y1768877D1*
X2291306Y1778170D1*
X2294214Y1787118D1*
X2298485Y1795501D1*
X2304015Y1803112D1*
X2310668Y1809765D1*
X2316551Y1814206D1*
X2310668Y1818582D1*
X2304015Y1825234D1*
X2298485Y1832846D1*
X2294214Y1841229D1*
X2291306Y1850177D1*
X2289834Y1859469D1*
Y1868877D1*
X2291306Y1878170D1*
X2294214Y1887118D1*
X2298485Y1895501D1*
X2304015Y1903112D1*
X2310668Y1909765D1*
X2316551Y1914206D1*
X2310668Y1918582D1*
X2304015Y1925234D1*
X2298485Y1932846D1*
X2294214Y1941229D1*
X2291306Y1950177D1*
X2289834Y1959469D1*
Y1968877D1*
X2291306Y1978170D1*
X2294214Y1987118D1*
X2298485Y1995501D1*
X2304015Y2003112D1*
X2305022Y2004217D1*
X2289650D1*
Y2124130D1*
X2402468D1*
X2402461Y3032382D1*
X432185D1*
X432166Y2092372D1*
X436533Y2099415D1*
X442644Y2106569D1*
X449798Y2112679D1*
X457820Y2117595D1*
X466512Y2121195D1*
X475660Y2123392D1*
X485039Y2124130D1*
X494419Y2123392D1*
X503567Y2121195D1*
X512259Y2117595D1*
X520281Y2112679D1*
X527435Y2106569D1*
X533545Y2099415D1*
X535068Y2097137D1*
X554424Y2097162D1*
X557563Y2111614D1*
Y2264397D1*
X555764Y2270387D1*
X554389Y2279069D1*
Y2287860D1*
X555764Y2296542D1*
X558481Y2304902D1*
X562472Y2312735D1*
X567639Y2319846D1*
X573854Y2326062D1*
X580966Y2331229D1*
X588798Y2335220D1*
X597159Y2337936D1*
X605841Y2339312D1*
X614631D1*
X623314Y2337936D1*
X631674Y2335220D1*
X639506Y2331229D1*
X646618Y2326062D1*
X652834Y2319846D1*
X655525Y2316433D1*
X660480Y2316453D1*
X660516Y2339484D1*
X839484D1*
Y2316486D1*
X843075Y2327854D1*
X843176Y2584084D1*
X844689Y2591690D1*
X847936Y2598732D1*
X852737Y2604822D1*
X852982Y2605049D1*
X880623Y2632565D1*
X887071Y2636873D1*
X894346Y2639557D1*
X902047Y2640469D1*
X902381Y2640455D1*
X1075143Y2640469D1*
X1053656Y2662040D1*
X1049347Y2668488D1*
X1046663Y2675764D1*
X1045752Y2683465D1*
X1045765Y2683798D1*
X1045752Y2739275D1*
X951854Y2739256D1*
Y2851295D1*
X1130823D1*
Y2832203D1*
X1164426Y2832201D1*
X1164453Y2926098D1*
X1187646D1*
X1189099Y2933225D1*
X1192345Y2940268D1*
X1197146Y2946358D1*
X1197391Y2946584D1*
X1225033Y2974100D1*
X1231480Y2978409D1*
X1238756Y2981093D1*
X1246457Y2982004D1*
X1246790Y2981991D1*
X1419911Y2981902D1*
X1427517Y2980389D1*
X1434559Y2977143D1*
X1440649Y2972342D1*
X1444543Y2968382D1*
X1452564Y2963467D1*
X1459719Y2957356D1*
X1465829Y2950202D1*
X1470745Y2942180D1*
X1474345Y2933488D1*
X1476541Y2924340D1*
X1477280Y2914961D1*
X1476541Y2905581D1*
X1474345Y2896433D1*
X1470745Y2887741D1*
X1465829Y2879719D1*
X1461903Y2874928D1*
X1477280Y2874917D1*
Y2755004D1*
X1357366D1*
Y2874917D1*
X1372747D1*
X1368817Y2879719D1*
X1363901Y2887741D1*
X1360301Y2896433D1*
X1358104Y2905581D1*
X1357409Y2916045D1*
X1276454Y2916027D1*
X1276492Y2747130D1*
X1164453D1*
Y2766222D1*
X1139467Y2766224D1*
X1134013Y2763902D1*
X1131133Y2763122D1*
X1130823Y2739256D1*
X1111731D1*
X1111728Y2697082D1*
X1118347Y2690469D1*
X1134925Y2690417D1*
Y2695783D1*
X1266650D1*
Y2469177D1*
X1134925D1*
Y2524499D1*
X955133Y2524492D1*
X948540Y2517873D1*
X948547Y2276492D1*
X1020587D1*
Y2195643D1*
X1027087Y2196098D1*
X1034360Y2195526D1*
X1041453Y2193823D1*
X1048194Y2191031D1*
X1054414Y2187219D1*
X1059962Y2182481D1*
X1064700Y2176934D1*
X1068511Y2170713D1*
X1071303Y2163973D1*
X1073006Y2156879D1*
X1073579Y2149606D1*
X1073006Y2142333D1*
X1071303Y2135239D1*
X1068511Y2128499D1*
X1064700Y2122279D1*
X1059962Y2116731D1*
X1054414Y2111993D1*
X1048194Y2108182D1*
X1041453Y2105390D1*
X1034360Y2103687D1*
X1027087Y2103114D1*
X1020593Y2103594D1*
X1020587Y2097524D1*
X948565D1*
X948548Y2079641D1*
X1020587D1*
Y1943364D1*
X1060238Y1903593D1*
X1064546Y1897146D1*
X1067230Y1889870D1*
X1068142Y1882169D1*
X1068129Y1881836D1*
X1068310Y1855240D1*
X1075404Y1856943D1*
X1082677Y1857516D1*
X1089058Y1857049D1*
X1089161Y2010462D1*
X1090674Y2018068D1*
X1093920Y2025110D1*
X1098721Y2031200D1*
X1098966Y2031427D1*
X1148750Y2081229D1*
X1140310Y2084559D1*
X1134090Y2088371D1*
X1128542Y2093109D1*
X1123804Y2098657D1*
X1119993Y2104877D1*
X1117201Y2111617D1*
X1115498Y2118711D1*
X1114925Y2125984D1*
X1115498Y2133257D1*
X1117201Y2140351D1*
X1119993Y2147091D1*
X1123804Y2153312D1*
X1128542Y2158859D1*
X1134090Y2163597D1*
X1140310Y2167409D1*
X1147050Y2170201D1*
X1154144Y2171904D1*
X1161417Y2172476D1*
X1168690Y2171904D1*
X1175784Y2170201D1*
X1182524Y2167409D1*
X1188745Y2163597D1*
X1194292Y2158859D1*
X1199030Y2153312D1*
X1202842Y2147091D1*
X1205634Y2140351D1*
X1207337Y2133257D1*
X1207909Y2125984D1*
X1207337Y2118711D1*
X1205634Y2111617D1*
X1202842Y2104877D1*
X1199030Y2098657D1*
X1197062Y2096160D1*
X1213837Y2096177D1*
X1219247Y2100802D1*
X1225468Y2104614D1*
X1232208Y2107406D1*
X1239302Y2109109D1*
X1246575Y2109681D1*
X1253848Y2109109D1*
X1260942Y2107406D1*
X1267682Y2104614D1*
X1273902Y2100802D1*
X1279335Y2096170D1*
X1415384Y2096076D1*
X1422989Y2094563D1*
X1430032Y2091316D1*
X1436122Y2086515D1*
X1436348Y2086270D1*
X1463864Y2058629D1*
X1468172Y2052181D1*
X1470856Y2044906D1*
X1471362Y2042365D1*
X1155045Y1905429D2*
X1180863D1*
X1180398Y1911929D1*
X1180970Y1919202D1*
X1182673Y1926296D1*
X1185465Y1933036D1*
X1189277Y1939257D1*
X1194015Y1944804D1*
X1199562Y1949542D1*
X1205783Y1953354D1*
X1212523Y1956146D1*
X1219617Y1957849D1*
X1226890Y1958421D1*
X1234163Y1957849D1*
X1241257Y1956146D1*
X1247997Y1953354D1*
X1254217Y1949542D1*
X1259765Y1944804D1*
X1264503Y1939257D1*
X1266816Y1935711D1*
X1266815Y2021339D1*
X1260942Y2018972D1*
X1253848Y2017269D1*
X1246575Y2016697D1*
X1239302Y2017269D1*
X1232208Y2018972D1*
X1225468Y2021764D1*
X1219247Y2025576D1*
X1213815Y2030208D1*
X1190960Y2030201D1*
X1155010Y1994184D1*
X1155035Y1905384D1*
X1178705Y1905429D1*
X1787189Y1209563D2*
X1886728D1*
Y1190471D1*
X1912496Y1190469D1*
X1912484Y1302437D1*
X1906864Y1304168D1*
X1900098Y1307958D1*
X1894404Y1313221D1*
X1890095Y1319669D1*
X1887411Y1326945D1*
X1886500Y1334646D1*
X1886513Y1334979D1*
X1886500Y1400808D1*
X1881875Y1406216D1*
X1878063Y1412436D1*
X1875272Y1419176D1*
X1873568Y1426270D1*
X1872996Y1433543D1*
X1873568Y1440816D1*
X1875272Y1447910D1*
X1878063Y1454650D1*
X1881875Y1460871D1*
X1884074Y1463659D1*
X1853429Y1463665D1*
Y1587443D1*
X1847203Y1584016D1*
X1824312Y1561124D1*
X1824327Y1383836D1*
X1830950Y1378195D1*
X1836659Y1371510D1*
X1841252Y1364015D1*
X1844616Y1355894D1*
X1846669Y1347346D1*
X1847358Y1338583D1*
X1846669Y1329819D1*
X1844616Y1321272D1*
X1841252Y1313150D1*
X1836659Y1305655D1*
X1830950Y1298971D1*
X1824266Y1293262D1*
X1816771Y1288669D1*
X1808650Y1285305D1*
X1800102Y1283253D1*
X1791339Y1282563D1*
X1782575Y1283253D1*
X1774028Y1285305D1*
X1765906Y1288669D1*
X1758411Y1293262D1*
X1751727Y1298971D1*
X1746018Y1305655D1*
X1741425Y1313150D1*
X1738061Y1321272D1*
X1736009Y1329819D1*
X1735319Y1338583D1*
X1736009Y1347346D1*
X1738061Y1355894D1*
X1741425Y1364015D1*
X1746018Y1371510D1*
X1751727Y1378195D1*
X1758371Y1383872D1*
X1758452Y1577391D1*
X1759965Y1584997D1*
X1763211Y1592039D1*
X1768012Y1598129D1*
X1768258Y1598356D1*
X1785420Y1615816D1*
X1778215Y1614675D1*
X1770919D1*
X1763714Y1615816D1*
X1756775Y1618070D1*
X1750275Y1621383D1*
X1748271Y1622721D1*
X1725884Y1622720D1*
X1725902Y1190467D1*
X1774700Y1190469D1*
X1774689Y1209563D1*
X1787189D1*
X1046343Y678596D2*
Y874917D1*
X1069341D1*
X1069374Y1297883D1*
X1064749Y1303299D1*
X1060937Y1309519D1*
X1058146Y1316259D1*
X1056442Y1323353D1*
X1055870Y1330626D1*
X1056442Y1337899D1*
X1058146Y1344993D1*
X1060937Y1351733D1*
X1064749Y1357953D1*
X1069487Y1363501D1*
X1075035Y1368239D1*
X1081255Y1372051D1*
X1087995Y1374843D1*
X1095089Y1376546D1*
X1102362Y1377118D1*
X1109635Y1376546D1*
X1116729Y1374843D1*
X1118562Y1374166D1*
X1077278Y1415584D1*
X1072969Y1422032D1*
X1070285Y1429307D1*
X1069374Y1437008D1*
X1069387Y1437342D1*
X1069374Y1644186D1*
X1062565Y1645089D1*
X1055290Y1647773D1*
X1048842Y1652081D1*
X1043578Y1657775D1*
X1039789Y1664541D1*
X1037684Y1672005D1*
X1037278Y1677165D1*
Y1751042D1*
X1020596Y1767708D1*
X1020587Y1719571D1*
X982979D1*
X986307Y1714020D1*
X989099Y1707280D1*
X990802Y1700186D1*
X991374Y1692913D1*
X990802Y1685640D1*
X990070Y1681991D1*
X1020587Y1682004D1*
Y1503035D1*
X908547D1*
Y1594391D1*
X844062Y1530034D1*
X839530Y1526798D1*
X839484Y1499098D1*
X820393D1*
X820390Y1457706D1*
X828569Y1451001D1*
X836174Y1449488D1*
X843217Y1446241D1*
X849307Y1441440D1*
X849533Y1441195D1*
X969966Y1320637D1*
X974275Y1314189D1*
X976959Y1306914D1*
X977870Y1299213D1*
X977857Y1298879D1*
X977870Y1297894D1*
X982495Y1292481D1*
X986307Y1286261D1*
X989099Y1279520D1*
X990802Y1272427D1*
X991374Y1265154D1*
X990802Y1257881D1*
X989099Y1250787D1*
X986307Y1244047D1*
X982495Y1237826D1*
X977863Y1232394D1*
X977870Y874870D1*
X1000902Y874917D1*
Y695949D1*
X977904D1*
X977870Y685287D1*
X984489Y678658D1*
X1046306D1*
X1350971Y1932169D2*
X1268744D1*
X1271106Y1926296D1*
X1272809Y1919202D1*
X1273382Y1911929D1*
X1272809Y1904656D1*
X1271660Y1899525D1*
X1273044Y1892352D1*
X1273146Y1859149D1*
X1360915Y1859169D1*
X1360909Y1881483D1*
X1356285Y1886964D1*
X1352473Y1893184D1*
X1349681Y1899924D1*
X1347978Y1907018D1*
X1347406Y1914291D1*
X1347978Y1921564D1*
X1349681Y1928658D1*
X1350986Y1932174D1*
X1341618Y1932218D1*
X1479461Y2014846D2*
X1479414Y2119012D1*
X1500947D1*
X1500895Y2174381D1*
X1494920Y2178818D1*
X1488267Y2185471D1*
X1482737Y2193082D1*
X1478466Y2201465D1*
X1475558Y2210413D1*
X1474086Y2219705D1*
Y2229114D1*
X1475558Y2238406D1*
X1478466Y2247354D1*
X1482737Y2255737D1*
X1488267Y2263348D1*
X1494920Y2270001D1*
X1502531Y2275531D1*
X1510914Y2279802D1*
X1519862Y2282710D1*
X1529154Y2284181D1*
X1538562D1*
X1547855Y2282710D1*
X1556803Y2279802D1*
X1565186Y2275531D1*
X1572797Y2270001D1*
X1573902Y2268994D1*
Y2284366D1*
X1693815D1*
Y2164453D1*
X1573902D1*
Y2179834D1*
X1566822Y2174381D1*
X1566846Y2128755D1*
X1568320Y2121288D1*
X1568335Y2120893D1*
X1568320Y2121288D1*
X1568335Y2120893D1*
X1579414Y2119012D1*
X1591453D1*
Y1940043D1*
X1574119D1*
X1578386Y1932083D1*
X1580641Y1925145D1*
X1581782Y1917939D1*
Y1910644D1*
X1580641Y1903438D1*
X1578386Y1896500D1*
X1575074Y1889999D1*
X1570786Y1884097D1*
X1565627Y1878938D1*
X1559725Y1874650D1*
X1552944Y1871235D1*
X1561924Y1861713D1*
X1565713Y1854947D1*
X1567818Y1847483D1*
X1568225Y1842323D1*
X1568123Y1758435D1*
X1567741Y1755476D1*
X1569847Y1752448D1*
X1576068Y1748637D1*
X1581615Y1743899D1*
X1586353Y1738351D1*
X1590165Y1732131D1*
X1592957Y1725390D1*
X1594660Y1718297D1*
X1595232Y1711024D1*
X1594660Y1703751D1*
X1592957Y1696657D1*
X1590165Y1689917D1*
X1586353Y1683696D1*
X1581615Y1678149D1*
X1576068Y1673411D1*
X1569847Y1669599D1*
X1563107Y1666807D1*
X1556013Y1665104D1*
X1548740Y1664531D1*
X1542246Y1665012D1*
X1542240Y1622720D1*
X1410516D1*
Y1778043D1*
X1391309Y1778137D1*
X1383704Y1779650D1*
X1376661Y1782896D1*
X1376333Y1783116D1*
X1376661Y1782896D1*
X1376333Y1783116D1*
X1374918Y1781669D1*
X1374917Y1680201D1*
X1359537D1*
X1368621Y1670571D1*
X1372410Y1663805D1*
X1374515Y1656342D1*
X1374921Y1651181D1*
Y1426816D1*
X1379546Y1421383D1*
X1383358Y1415162D1*
X1386150Y1408422D1*
X1387853Y1401328D1*
X1388425Y1394055D1*
X1387853Y1386782D1*
X1386150Y1379688D1*
X1383358Y1372948D1*
X1379546Y1366728D1*
X1374808Y1361180D1*
X1369260Y1356442D1*
X1363040Y1352630D1*
X1356300Y1349838D1*
X1349206Y1348135D1*
X1341933Y1347563D1*
X1334660Y1348135D1*
X1327566Y1349838D1*
X1320826Y1352630D1*
X1314606Y1356442D1*
X1309058Y1361180D1*
X1304320Y1366728D1*
X1300508Y1372948D1*
X1297716Y1379688D1*
X1296013Y1386782D1*
X1295441Y1394055D1*
X1296013Y1401328D1*
X1297716Y1408422D1*
X1300508Y1415162D1*
X1304320Y1421383D1*
X1308952Y1426815D1*
X1308945Y1637561D1*
X1302326Y1644177D1*
X1252870Y1644163D1*
Y1622130D1*
X1233779D1*
X1233776Y1602312D1*
X1253012Y1583093D1*
X1260147Y1582498D1*
X1267241Y1580795D1*
X1273981Y1578004D1*
X1280201Y1574192D1*
X1285749Y1569454D1*
X1290487Y1563906D1*
X1294299Y1557686D1*
X1297091Y1550946D1*
X1298794Y1543852D1*
X1299366Y1536579D1*
X1298794Y1529306D1*
X1297091Y1522212D1*
X1294299Y1515472D1*
X1290487Y1509251D1*
X1285749Y1503704D1*
X1280201Y1498966D1*
X1273981Y1495154D1*
X1267241Y1492362D1*
X1260147Y1490659D1*
X1252874Y1490087D1*
X1245601Y1490659D1*
X1238507Y1492362D1*
X1231767Y1495154D1*
X1225547Y1498966D1*
X1219999Y1503704D1*
X1215261Y1509251D1*
X1211449Y1515472D1*
X1208657Y1522212D1*
X1206954Y1529306D1*
X1206388Y1536422D1*
X1175703Y1567241D1*
X1171395Y1573689D1*
X1168711Y1580964D1*
X1167799Y1588665D1*
X1167812Y1588999D1*
X1167799Y1622113D1*
X1135312Y1622130D1*
X1135350Y1450621D1*
X1225872Y1360007D1*
X1230180Y1353559D1*
X1232864Y1346284D1*
X1233776Y1338583D1*
X1233763Y1338249D1*
X1233776Y899471D1*
X1258330Y874937D1*
X1315863Y874917D1*
Y798991D1*
X1322417Y801368D1*
X1330118Y802280D1*
X1375089D1*
X1375083Y857594D1*
X1506807D1*
Y852272D1*
X1518468Y851873D1*
X1525931Y849769D1*
X1532697Y845979D1*
X1536633Y842618D1*
X1564376Y814731D1*
X1568684Y808283D1*
X1571368Y801008D1*
X1572280Y793307D1*
X1572266Y792973D1*
X1572280Y677633D1*
X1587681Y680988D1*
Y857594D1*
X1719406D1*
Y670925D1*
X1778313Y670980D1*
X1845139Y737683D1*
X1851587Y741991D1*
X1858862Y744675D1*
X1866563Y745587D1*
X1866897Y745574D1*
X1932139Y745587D1*
X1932169Y839484D1*
X2044209D1*
Y643227D1*
X2104546Y643224D1*
X2111849Y651635D1*
X2101689Y656579D1*
X2089650D1*
Y835547D1*
X2201689D1*
Y662941D1*
X2218550Y662910D1*
X2224168Y669533D1*
X2230852Y675242D1*
X2238347Y679835D1*
X2246468Y683199D1*
X2255016Y685251D1*
X2263780Y685941D1*
X2272543Y685251D1*
X2281091Y683199D1*
X2289212Y679835D1*
X2296707Y675242D1*
X2303391Y669533D1*
X2309100Y662849D1*
X2313693Y655354D1*
X2317057Y647232D1*
X2319110Y638685D1*
X2319799Y629921D1*
X2319110Y621158D1*
X2317057Y612610D1*
X2313693Y604489D1*
X2309100Y596994D1*
X2303391Y590309D1*
X2296707Y584600D1*
X2289212Y580007D1*
X2281091Y576643D1*
X2272543Y574591D1*
X2263780Y573902D1*
X2255016Y574591D1*
X2246468Y576643D1*
X2238347Y580007D1*
X2230852Y584600D1*
X2224168Y590309D1*
X2218491Y596953D1*
X2152989Y596933D1*
X2141109Y585152D1*
X2134661Y580844D1*
X2127386Y578159D1*
X2119685Y577248D1*
X2119230Y577261D1*
X2044246Y577248D1*
X2044209Y483350D1*
X1932170D1*
Y502442D1*
X1557215Y502547D1*
X1549609Y504059D1*
X1542567Y507306D1*
X1536477Y512107D1*
X1536250Y512352D1*
X1499637Y548947D1*
X1492530Y549513D1*
X1485436Y551216D1*
X1478696Y554008D1*
X1472476Y557820D1*
X1466928Y562558D1*
X1462190Y568106D1*
X1458378Y574326D1*
X1455587Y581066D1*
X1453883Y588160D1*
X1453311Y595433D1*
X1453883Y602706D1*
X1455587Y609800D1*
X1458378Y616540D1*
X1462190Y622760D1*
X1466822Y628193D1*
X1456807Y630988D1*
X1381856D1*
X1381745Y594262D1*
X1380232Y586656D1*
X1376985Y579614D1*
X1372185Y573524D1*
X1371939Y573297D1*
X1344298Y545782D1*
X1337850Y541473D1*
X1330575Y538789D1*
X1322874Y537878D1*
X1322540Y537891D1*
X1272435Y537878D1*
X1279769Y531738D1*
X1285478Y525054D1*
X1290071Y517558D1*
X1293435Y509437D1*
X1295487Y500889D1*
X1296177Y492126D1*
X1295487Y483363D1*
X1293435Y474815D1*
X1290071Y466694D1*
X1285478Y459198D1*
X1279769Y452514D1*
X1273085Y446805D1*
X1265590Y442212D1*
X1257469Y438848D1*
X1248921Y436796D1*
X1240157Y436106D1*
X1231394Y436796D1*
X1222846Y438848D1*
X1214725Y442212D1*
X1207230Y446805D1*
X1200546Y452514D1*
X1194837Y459198D1*
X1190244Y466694D1*
X1186880Y474815D1*
X1184827Y483363D1*
X1184138Y492126D1*
X1184827Y500889D1*
X1186530Y508197D1*
X1186140Y513155D1*
Y524434D1*
X1180129Y524946D1*
X1173035Y526650D1*
X1166295Y529441D1*
X1160074Y533253D1*
X1158383Y534586D1*
X1158382Y518783D1*
X1046343D1*
Y612680D1*
X968278Y612783D1*
X960672Y614296D1*
X953630Y617542D1*
X947540Y622343D1*
X947313Y622588D1*
X919797Y650229D1*
X915489Y656677D1*
X912805Y663953D1*
X911894Y671654D1*
X911907Y671987D1*
X911894Y695921D1*
X888862Y695949D1*
Y715040D1*
X843466Y715043D1*
X843422Y695949D1*
X731382D1*
Y874917D1*
X754380D1*
X754413Y1284407D1*
X749789Y1289799D1*
X745977Y1296019D1*
X743185Y1302759D1*
X741482Y1309853D1*
X740909Y1317126D1*
X741482Y1324399D1*
X743185Y1331493D1*
X745977Y1338233D1*
X749789Y1344453D1*
X754527Y1350001D1*
X760074Y1354739D1*
X766295Y1358551D1*
X773035Y1361343D1*
X780129Y1363046D1*
X787402Y1363618D1*
X794675Y1363046D1*
X801768Y1361343D1*
X808509Y1358551D1*
X814729Y1354739D1*
X820276Y1350001D1*
X825014Y1344453D1*
X828826Y1338233D1*
X831618Y1331493D1*
X833321Y1324399D1*
X833894Y1317126D1*
X833321Y1309853D1*
X831618Y1302759D1*
X828826Y1296019D1*
X825014Y1289799D1*
X820383Y1284366D1*
X820390Y874890D1*
X843421Y874917D1*
X843422Y781022D1*
X888818Y781020D1*
X888862Y874917D1*
X911861D1*
X911894Y1232356D1*
X907269Y1237826D1*
X903457Y1244047D1*
X900665Y1250787D1*
X898962Y1257881D1*
X898390Y1265154D1*
X898962Y1272427D1*
X900665Y1279520D1*
X903457Y1286261D1*
X906358Y1291117D1*
X812279Y1385163D1*
X805685Y1386037D1*
X798409Y1388721D1*
X791962Y1393030D1*
X762317Y1422674D1*
X758009Y1429122D1*
X755325Y1436397D1*
X754413Y1444098D1*
X754426Y1444432D1*
X754413Y1499128D1*
X745588Y1499098D1*
X745485Y1477727D1*
X743972Y1470121D1*
X743836Y1469751D1*
X743972Y1470121D1*
X744823Y1461088D1*
Y1452298D1*
X743448Y1443615D1*
X740732Y1435255D1*
X736741Y1427423D1*
X731574Y1420311D1*
X725358Y1414095D1*
X718247Y1408928D1*
X710414Y1404937D1*
X702054Y1402221D1*
X693372Y1400846D1*
X684581D1*
X675899Y1402221D1*
X667539Y1404937D1*
X659706Y1408928D1*
X652595Y1414095D1*
X646379Y1420311D1*
X641212Y1427423D1*
X637221Y1435255D1*
X634505Y1443615D1*
X633129Y1452298D1*
Y1461088D1*
X634505Y1469770D1*
X637221Y1478131D1*
X641212Y1485963D1*
X646379Y1493075D1*
X652595Y1499291D1*
X660531Y1504919D1*
X660516Y1523366D1*
X654315Y1525725D1*
X647867Y1530034D1*
X608642Y1569115D1*
X600746Y1567824D1*
X593451D1*
X586245Y1568966D1*
X579307Y1571220D1*
X572806Y1574532D1*
X566904Y1578820D1*
X561746Y1583979D1*
X557457Y1589881D1*
X554145Y1596381D1*
X551891Y1603320D1*
X550750Y1610525D1*
Y1617821D1*
X551891Y1625027D1*
X554145Y1631965D1*
X557457Y1638465D1*
X561746Y1644367D1*
X566904Y1649526D1*
X572806Y1653814D1*
X579307Y1657126D1*
X586245Y1659381D1*
X593451Y1660522D1*
X600746D1*
X607952Y1659381D1*
X614890Y1657126D1*
X621390Y1653814D1*
X627293Y1649526D1*
X632451Y1644367D1*
X636739Y1638465D1*
X640619Y1630426D1*
X660528Y1610534D1*
X660516Y1611138D1*
X832048D1*
X876017Y1655006D1*
X882465Y1659314D1*
X889740Y1661998D1*
X897441Y1662909D1*
X897775Y1662896D1*
X908525Y1662909D1*
X903457Y1671806D1*
X900665Y1678547D1*
X898962Y1685640D1*
X898390Y1692913D1*
X898962Y1700186D1*
X900665Y1707280D1*
X903457Y1714020D1*
X907269Y1720241D1*
X908548Y1722071D1*
Y1813487D1*
X837294Y1813570D1*
X829688Y1815083D1*
X822646Y1818330D1*
X820182Y1820013D1*
X819799Y1804543D1*
Y1755004D1*
X725903D1*
X734297Y1745526D1*
X738890Y1738031D1*
X742254Y1729909D1*
X744306Y1721362D1*
X744996Y1712598D1*
X744306Y1703835D1*
X742254Y1695287D1*
X738890Y1687166D1*
X734297Y1679671D1*
X728588Y1672987D1*
X721904Y1667278D1*
X714409Y1662685D1*
X706287Y1659321D1*
X697740Y1657268D1*
X688976Y1656579D1*
X680213Y1657268D1*
X671665Y1659321D1*
X663544Y1662685D1*
X656049Y1667278D1*
X649364Y1672987D1*
X643656Y1679671D1*
X639062Y1687166D1*
X635698Y1695287D1*
X633646Y1703835D1*
X632957Y1712598D1*
X633646Y1721362D1*
X635698Y1729909D1*
X639062Y1738031D1*
X643656Y1745526D1*
X649364Y1752210D1*
X652380Y1754998D1*
X640831Y1755004D1*
Y1831224D1*
X535068Y1831210D1*
X530631Y1825234D1*
X523978Y1818582D1*
X518094Y1814140D1*
X523978Y1809765D1*
X530631Y1803112D1*
X536161Y1795501D1*
X540432Y1787118D1*
X543339Y1778170D1*
X544811Y1768877D1*
Y1759469D1*
X543339Y1750177D1*
X540432Y1741229D1*
X536161Y1732846D1*
X530631Y1725234D1*
X523978Y1718582D1*
X518094Y1714140D1*
X523978Y1709765D1*
X530631Y1703112D1*
X536161Y1695501D1*
X540432Y1687118D1*
X543339Y1678170D1*
X544811Y1668877D1*
Y1659469D1*
X543339Y1650177D1*
X540432Y1641229D1*
X536161Y1632846D1*
X530631Y1625234D1*
X523978Y1618582D1*
X518094Y1614140D1*
X523978Y1609765D1*
X530631Y1603112D1*
X536161Y1595501D1*
X540432Y1587118D1*
X543339Y1578170D1*
X544811Y1568877D1*
Y1559469D1*
X543339Y1550177D1*
X540432Y1541229D1*
X536161Y1532846D1*
X530631Y1525234D1*
X523978Y1518582D1*
X518094Y1514140D1*
X523978Y1509765D1*
X530631Y1503112D1*
X536161Y1495501D1*
X540432Y1487118D1*
X543339Y1478170D1*
X544811Y1468877D1*
Y1459469D1*
X543339Y1450177D1*
X540432Y1441229D1*
X536161Y1432846D1*
X530631Y1425234D1*
X523978Y1418582D1*
X518094Y1414140D1*
X523978Y1409765D1*
X530631Y1403112D1*
X536161Y1395501D1*
X540432Y1387118D1*
X543339Y1378170D1*
X544811Y1368877D1*
Y1359469D1*
X543339Y1350177D1*
X540432Y1341229D1*
X536161Y1332846D1*
X530631Y1325234D1*
X523978Y1318582D1*
X518094Y1314140D1*
X523978Y1309765D1*
X530631Y1303112D1*
X536161Y1295501D1*
X540432Y1287118D1*
X543339Y1278170D1*
X544811Y1268877D1*
Y1259469D1*
X543339Y1250177D1*
X540432Y1241229D1*
X536161Y1232846D1*
X530631Y1225234D1*
X529624Y1224130D1*
X544996D1*
Y1104217D1*
X432178D1*
X432185Y432185D1*
X2402461D1*
Y1135847D1*
X2398112Y1128932D1*
X2392002Y1121777D1*
X2384848Y1115667D1*
X2376826Y1110751D1*
X2368134Y1107151D1*
X2358986Y1104955D1*
X2349606Y1104217D1*
X2340227Y1104955D1*
X2331079Y1107151D1*
X2322387Y1110751D1*
X2314365Y1115667D1*
X2307211Y1121777D1*
X2301100Y1128932D1*
X2296184Y1136953D1*
X2292584Y1145646D1*
X2290388Y1154794D1*
X2289650Y1164173D1*
X2290388Y1173553D1*
X2292584Y1182701D1*
X2296184Y1191393D1*
X2301100Y1199415D1*
X2307211Y1206569D1*
X2314365Y1212679D1*
X2316551Y1214140D1*
X2310668Y1218582D1*
X2304015Y1225234D1*
X2298485Y1232846D1*
X2294214Y1241229D1*
X2291306Y1250177D1*
X2289834Y1259469D1*
Y1268877D1*
X2291306Y1278170D1*
X2294214Y1287118D1*
X2298485Y1295501D1*
X2304015Y1303112D1*
X2310668Y1309765D1*
X2316551Y1314140D1*
X2310668Y1318582D1*
X2304015Y1325234D1*
X2298485Y1332846D1*
X2294214Y1341229D1*
X2291306Y1350177D1*
X2289834Y1359469D1*
Y1368877D1*
X2291306Y1378170D1*
X2294214Y1387118D1*
X2298485Y1395501D1*
X2304015Y1403112D1*
X2310668Y1409765D1*
X2316551Y1414140D1*
X2310668Y1418582D1*
X2304015Y1425234D1*
X2299578Y1431210D1*
X2264108Y1431185D1*
X2241235Y1408459D1*
X2234787Y1404151D1*
X2227512Y1401467D1*
X2219811Y1400555D1*
X2219477Y1400568D1*
X1952477Y1400555D1*
Y1386717D1*
X2024524Y1386728D1*
Y1030594D1*
X1912484D1*
Y1124510D1*
X1886717Y1124492D1*
X1886728Y1030594D1*
X1774689D1*
Y1124510D1*
X1690325Y1124594D1*
X1682719Y1126107D1*
X1675677Y1129353D1*
X1669587Y1134154D1*
X1664786Y1140244D1*
X1661540Y1147286D1*
X1660027Y1154892D1*
X1659925Y1269980D1*
Y1440049D1*
X1561781Y1440043D1*
X1562240Y1433543D1*
X1561668Y1426270D1*
X1559965Y1419176D1*
X1557173Y1412436D1*
X1553361Y1406216D1*
X1548729Y1400784D1*
X1548736Y1020604D1*
X1642634Y1020587D1*
Y908547D1*
X1463665D1*
Y931545D1*
X1450074Y931579D1*
X1444650Y926954D1*
X1438430Y923142D1*
X1431690Y920350D1*
X1424596Y918647D1*
X1417323Y918075D1*
X1410050Y918647D1*
X1402956Y920350D1*
X1396216Y923142D1*
X1389995Y926954D1*
X1384448Y931692D1*
X1379710Y937240D1*
X1375898Y943460D1*
X1373106Y950200D1*
X1371403Y957294D1*
X1370831Y964567D1*
X1371403Y971840D1*
X1373106Y978934D1*
X1375898Y985674D1*
X1379710Y991894D1*
X1384448Y997442D1*
X1389995Y1002180D1*
X1396216Y1005992D1*
X1402956Y1008784D1*
X1410050Y1010487D1*
X1417323Y1011059D1*
X1424596Y1010487D1*
X1431690Y1008784D1*
X1438430Y1005992D1*
X1444650Y1002180D1*
X1450083Y997548D1*
X1463661Y997555D1*
X1463665Y1020587D1*
X1482757D1*
X1482760Y1400749D1*
X1478135Y1406216D1*
X1474323Y1412436D1*
X1471531Y1419176D1*
X1469828Y1426270D1*
X1469256Y1433543D1*
X1469828Y1440816D1*
X1471531Y1447910D1*
X1474323Y1454650D1*
X1478135Y1460871D1*
X1482873Y1466418D1*
X1488421Y1471156D1*
X1494641Y1474968D1*
X1503042Y1478228D1*
X1503035Y1552083D1*
X1583885D1*
X1583429Y1558583D1*
X1584002Y1565856D1*
X1585705Y1572950D1*
X1588496Y1579690D1*
X1592308Y1585910D1*
X1596940Y1591342D1*
X1597035Y1763612D1*
X1598548Y1771218D1*
X1601794Y1778260D1*
X1606595Y1784350D1*
X1612685Y1789151D1*
X1619727Y1792397D1*
X1622607Y1793177D1*
X1623114Y1797720D1*
Y1824820D1*
X1615216Y1828666D1*
X1609314Y1832954D1*
X1604155Y1838113D1*
X1599867Y1844015D1*
X1596555Y1850515D1*
X1594300Y1857454D1*
X1593159Y1864659D1*
Y1871955D1*
X1594300Y1879160D1*
X1596555Y1886099D1*
X1599867Y1892599D1*
X1604155Y1898501D1*
X1609314Y1903660D1*
X1615216Y1907948D1*
X1621716Y1911260D1*
X1628655Y1913515D1*
X1635860Y1914656D1*
X1643156D1*
X1650361Y1913515D1*
X1657300Y1911260D1*
X1663800Y1907948D1*
X1669702Y1903660D1*
X1672268Y1901288D1*
X1849518Y1901295D1*
X1856775Y1908505D1*
X1856877Y2053769D1*
X1857366Y2058645D1*
Y2106216D1*
X1876165D1*
X1871836Y2111373D1*
X1868024Y2117594D1*
X1865232Y2124334D1*
X1863529Y2131428D1*
X1862957Y2138701D1*
X1863529Y2145974D1*
X1865232Y2153068D1*
X1868024Y2159808D1*
X1871836Y2166028D1*
X1874476Y2169374D1*
X1855726D1*
X1855541Y2219249D1*
X1855135Y2224409D1*
Y2518794D1*
X1847877Y2526067D1*
X1776639Y2526076D1*
X1799651Y2502920D1*
X1803960Y2496472D1*
X1806644Y2489197D1*
X1807555Y2481496D1*
X1807542Y2481162D1*
X1807548Y2195634D1*
X1812180Y2190201D1*
X1815992Y2183981D1*
X1818784Y2177241D1*
X1820487Y2170147D1*
X1821059Y2162874D1*
X1820487Y2155601D1*
X1818784Y2148507D1*
X1815992Y2141767D1*
X1812180Y2135547D1*
X1807442Y2129999D1*
X1801894Y2125261D1*
X1795674Y2121449D1*
X1788934Y2118657D1*
X1781840Y2116954D1*
X1774567Y2116382D1*
X1767294Y2116954D1*
X1760200Y2118657D1*
X1753460Y2121449D1*
X1747240Y2125261D1*
X1741692Y2129999D1*
X1736954Y2135547D1*
X1733142Y2141767D1*
X1730350Y2148507D1*
X1728647Y2155601D1*
X1728075Y2162874D1*
X1728647Y2170147D1*
X1730350Y2177241D1*
X1733142Y2183981D1*
X1736954Y2190201D1*
X1741586Y2195634D1*
X1741579Y2467806D1*
X1734960Y2474492D1*
X1479248Y2474543D1*
Y2469177D1*
X1387305D1*
X1387319Y2418271D1*
X1406413Y2418224D1*
Y2306185D1*
X1400408D1*
X1400823Y2299685D1*
X1400250Y2292412D1*
X1398547Y2285318D1*
X1395755Y2278578D1*
X1391944Y2272358D1*
X1387206Y2266810D1*
X1381658Y2262072D1*
X1375438Y2258260D1*
X1368698Y2255468D1*
X1361604Y2253765D1*
X1354331Y2253193D1*
X1347058Y2253765D1*
X1339964Y2255468D1*
X1333224Y2258260D1*
X1327003Y2262072D1*
X1321456Y2266810D1*
X1316718Y2272358D1*
X1312906Y2278578D1*
X1310114Y2285318D1*
X1308411Y2292412D1*
X1307839Y2299685D1*
X1308319Y2306179D1*
X1227445Y2306185D1*
Y2418224D1*
X1321361D1*
X1321444Y2610069D1*
X1321826Y2613028D1*
X1319917Y2616056D1*
X1313696Y2619867D1*
X1308149Y2624605D1*
X1303411Y2630153D1*
X1299599Y2636373D1*
X1296807Y2643113D1*
X1295104Y2650207D1*
X1294531Y2657480D1*
X1295104Y2664753D1*
X1296807Y2671847D1*
X1299599Y2678587D1*
X1303411Y2684808D1*
X1308149Y2690355D1*
X1313696Y2695093D1*
X1319917Y2698905D1*
X1326657Y2701697D1*
X1333751Y2703400D1*
X1341024Y2703972D1*
X1348297Y2703400D1*
X1355390Y2701697D1*
X1362131Y2698905D1*
X1367319Y2695782D1*
X1479248Y2695783D1*
Y2592023D1*
X1506973Y2592043D1*
X1506972Y2615075D1*
X1600869D1*
X1600870Y2688108D1*
X1577839Y2688075D1*
Y2867043D1*
X1689878D1*
Y2688075D1*
X1666880D1*
X1666847Y2615109D1*
X1685941Y2615075D1*
Y2592077D1*
X1834493Y2592043D1*
X1856801Y2614388D1*
X1856775Y2651528D1*
X1850152Y2657238D1*
X1844443Y2663923D1*
X1839850Y2671418D1*
X1836486Y2679539D1*
X1834434Y2688087D1*
X1833744Y2696850D1*
X1834434Y2705614D1*
X1836486Y2714161D1*
X1839850Y2722283D1*
X1844443Y2729778D1*
X1850152Y2736462D1*
X1856836Y2742171D1*
X1864331Y2746764D1*
X1872453Y2750128D1*
X1881000Y2752180D1*
X1889764Y2752870D1*
X1898527Y2752180D1*
X1907075Y2750128D1*
X1915196Y2746764D1*
X1922691Y2742171D1*
X1929376Y2736462D1*
X1935085Y2729778D1*
X1939678Y2722283D1*
X1943042Y2714161D1*
X1945094Y2705614D1*
X1945783Y2696850D1*
X1945094Y2688087D1*
X1943042Y2679539D1*
X1939678Y2671418D1*
X1935085Y2663923D1*
X1929376Y2657238D1*
X1922732Y2651561D1*
X1922650Y2598110D1*
X1921138Y2590504D1*
X1917891Y2583462D1*
X1913090Y2577372D1*
X1912845Y2577145D1*
X1901455Y2565736D1*
X1913208Y2553903D1*
X1917516Y2547455D1*
X1920200Y2540180D1*
X1921112Y2532479D1*
X1921099Y2532145D1*
X1921102Y2279445D1*
X1961532Y2279435D1*
X1479414Y1944779D2*
X1479463Y2044208D1*
X1471362Y2042365D1*
X1471768Y2037205D1*
Y1952390D1*
X2289698Y1564173D2*
D13*
X2349606D1*
X1968504Y2224409D2*
X2000853D1*
X1774738Y1082677D2*
X1886680D1*
X1410565Y1661024D2*
X1542191D1*
X1134974Y2507480D2*
X1266601D1*
X951903Y2795276D2*
X1003937D1*
X1266864Y1988189D2*
X1318898D1*
X2050329Y2185039D2*
X2162270D1*
X1912533Y1082677D2*
X2024475D1*
X1587730Y819291D2*
X1719357D1*
X1932218Y787402D2*
X2044160D1*
X2089699Y783465D2*
X2201640D1*
X1853478Y1515748D2*
X1965420D1*
X1577887Y2814961D2*
X1689829D1*
X908596Y1555118D2*
X1020538D1*
X908596Y1771654D2*
X1020538D1*
X964567Y2027559D2*
X1020538D1*
X964567Y2224409D2*
X1020538D1*
X1227494Y2362205D2*
X1279528D1*
X1503084Y1496063D2*
X1555118D1*
X1590551Y964567D2*
X1642585D1*
D16*
X485039Y1164173D3*
D17*
Y1264173D3*
Y1364173D3*
Y1464173D3*
Y1564173D3*
Y1664173D3*
Y1764173D3*
Y1864173D3*
Y1964173D3*
Y2064173D3*
D16*
X2349606D3*
D17*
Y1964173D3*
Y1864173D3*
Y1764173D3*
Y1664173D3*
Y1564173D3*
Y1464173D3*
Y1364173D3*
Y1264173D3*
Y1164173D3*
D18*
X1968504Y2224409D3*
X1948819D3*
X1929134D3*
X1909449D3*
X1888123D3*
X1968504Y2051181D3*
X1948819D3*
X1929134D3*
X1909449D3*
X1889764D3*
X1220472Y1850394D3*
X1200787D3*
X1181102D3*
X1161417D3*
X1140092D3*
X1220472Y1677165D3*
X1200787D3*
X1181102D3*
X1161417D3*
X1141732D3*
D19*
X1830709Y1082677D3*
Y1157480D3*
D16*
X1633858Y2224409D3*
D17*
X1533858D3*
D20*
X1476378Y1811024D3*
Y1761024D3*
Y1711024D3*
Y1661024D3*
X1688976D3*
Y1711024D3*
Y1761024D3*
Y1811024D3*
X1200787Y2657480D3*
Y2607480D3*
Y2557480D3*
Y2507480D3*
X1413386D3*
Y2557480D3*
Y2607480D3*
Y2657480D3*
D16*
X1417323Y2814961D3*
D17*
Y2914961D3*
D19*
X1220472Y2874016D3*
Y2799213D3*
D21*
X1003937Y2795276D3*
X1078740D3*
D19*
X1102362Y570866D3*
Y645669D3*
D21*
X1318898Y1988189D3*
X1393701D3*
D19*
X2106299Y2110236D3*
Y2185039D3*
X1318898Y1732283D3*
Y1807087D3*
X1968504Y1157480D3*
Y1082677D3*
Y1259843D3*
Y1334646D3*
X944882Y748031D3*
Y822835D3*
X1259843Y748031D3*
Y822835D3*
D21*
X1633858Y2559055D3*
X1559055D3*
D19*
X1102362Y748031D3*
Y822835D3*
D20*
X1653543Y669291D3*
Y719291D3*
Y769291D3*
Y819291D3*
X1440945D3*
Y769291D3*
Y719291D3*
Y669291D3*
D19*
X1988189Y787402D3*
Y712598D3*
X2145669Y708661D3*
Y783465D3*
X1988189Y610236D3*
Y535433D3*
X1535433Y2066929D3*
Y1992126D3*
X787402Y748031D3*
Y822835D3*
D21*
X2027559Y1712598D3*
X1952756D3*
D19*
X1909449Y1515748D3*
Y1590551D3*
X1633858Y2814961D3*
Y2740157D3*
D21*
X787402Y2283465D3*
X712598D3*
X787402Y2007874D3*
X712598D3*
X767717Y1811024D3*
X692913D3*
X787402Y1555118D3*
X712598D3*
D19*
X964567D3*
Y1629921D3*
Y1771654D3*
Y1846457D3*
Y2027559D3*
Y1952756D3*
Y2224409D3*
Y2149606D3*
D21*
X1279528Y2362205D3*
X1354331D3*
X1555118Y1496063D3*
X1629921D3*
X1515748Y964567D3*
X1590551D3*
D22*
X610236Y2283465D3*
X669291Y2145669D3*
X688976Y1712598D3*
Y1456693D3*
X2263780Y629921D3*
X1240157Y492126D3*
X1889764Y2696850D3*
X1791339Y1338583D3*
M02*
