G04 DipTrace 3.0.0.2*
G04 TopAssy.gbr*
%MOIN*%
G04 #@! TF.FileFunction,Drawing,Top*
G04 #@! TF.Part,Single*
%ADD10C,0.009843*%
%ADD56C,0.00772*%
%ADD57C,0.006176*%
%ADD58C,0.004632*%
%ADD60C,0.003088*%
%FSLAX26Y26*%
G04*
G70*
G90*
G75*
G01*
G04 TopAssy*
%LPD*%
X425200Y977165D2*
D10*
Y2054331D1*
X2409445D2*
Y977165D1*
X532280Y2855118D2*
Y2256693D1*
X547322Y1998634D2*
D56*
Y1948394D1*
X564068D1*
X571253Y1950826D1*
X576062Y1955580D1*
X578439Y1960388D1*
X580815Y1967518D1*
Y1979511D1*
X578439Y1986696D1*
X576062Y1991449D1*
X571253Y1996258D1*
X564068Y1998634D1*
X547322D1*
X583192Y1880552D2*
X580815Y1885305D1*
X576007Y1890114D1*
X571253Y1892490D1*
X561692D1*
X556883Y1890114D1*
X552130Y1885305D1*
X549698Y1880552D1*
X547322Y1873367D1*
Y1861373D1*
X549698Y1854244D1*
X552130Y1849435D1*
X556883Y1844682D1*
X561692Y1842250D1*
X571253D1*
X576007Y1844682D1*
X580815Y1849435D1*
X583192Y1854244D1*
X555041Y1794065D2*
Y1743825D1*
X576596D1*
X583781Y1746257D1*
X586158Y1748633D1*
X588534Y1753387D1*
Y1760572D1*
X586158Y1765380D1*
X583781Y1767757D1*
X576596Y1770133D1*
X583781Y1772565D1*
X586158Y1774942D1*
X588534Y1779695D1*
Y1784503D1*
X586158Y1789256D1*
X583781Y1791688D1*
X576596Y1794065D1*
X555041D1*
Y1770133D2*
X576596D1*
X585624Y1633434D2*
X566445Y1683674D1*
X547322Y1633434D1*
X554507Y1650181D2*
X578439D1*
Y1093123D2*
X547322D1*
Y1042883D1*
Y1069191D2*
X566445D1*
X615378Y1089503D2*
Y1046448D1*
X593878Y1067947D2*
X636933D1*
X578439Y1191548D2*
X547322D1*
Y1141308D1*
Y1167616D2*
X566445D1*
X593878Y1166400D2*
X621513D1*
X564068Y1289973D2*
Y1239733D1*
X547322Y1289973D2*
X580815D1*
X617754Y1286353D2*
Y1243298D1*
X596254Y1264798D2*
X639309D1*
X564068Y1388398D2*
Y1338158D1*
X547322Y1388398D2*
X580815D1*
X596254Y1363251D2*
X623889D1*
X2180408Y1923286D2*
D57*
X2195707Y1883094D1*
X2211005Y1923286D1*
X2252053Y1913735D2*
X2250151Y1917538D1*
X2246305Y1921385D1*
X2242502Y1923286D1*
X2234853D1*
X2231006Y1921385D1*
X2227203Y1917538D1*
X2225258Y1913735D1*
X2223357Y1907987D1*
Y1898393D1*
X2225258Y1892689D1*
X2227203Y1888842D1*
X2231006Y1885040D1*
X2234853Y1883094D1*
X2242502D1*
X2246305Y1885040D1*
X2250151Y1888842D1*
X2252053Y1892689D1*
X2264404Y1915593D2*
X2268251Y1917538D1*
X2273999Y1923242D1*
Y1883094D1*
X2180408Y2002026D2*
X2195707Y1961834D1*
X2211005Y2002026D1*
X2252053Y1992476D2*
X2250151Y1996278D1*
X2246305Y2000125D1*
X2242502Y2002026D1*
X2234853D1*
X2231006Y2000125D1*
X2227203Y1996278D1*
X2225258Y1992476D1*
X2223357Y1986728D1*
Y1977133D1*
X2225258Y1971429D1*
X2227203Y1967582D1*
X2231006Y1963780D1*
X2234853Y1961834D1*
X2242502D1*
X2246305Y1963780D1*
X2250151Y1967582D1*
X2252053Y1971429D1*
X2266349Y1992431D2*
Y1994333D1*
X2268251Y1998179D1*
X2270152Y2000081D1*
X2273999Y2001982D1*
X2281648D1*
X2285451Y2000081D1*
X2287352Y1998179D1*
X2289297Y1994333D1*
Y1990530D1*
X2287352Y1986683D1*
X2283549Y1980980D1*
X2264404Y1961834D1*
X2291199D1*
X2129844Y1597215D2*
D56*
X2148967Y1546975D1*
X2168091Y1597215D1*
X2183530Y1580468D2*
Y1546975D1*
Y1566098D2*
X2185962Y1573283D1*
X2190715Y1578091D1*
X2195523Y1580468D1*
X2202708D1*
X2218148Y1566098D2*
X2246832D1*
Y1570906D1*
X2244456Y1575715D1*
X2242079Y1578091D1*
X2237271Y1580468D1*
X2230086D1*
X2225333Y1578091D1*
X2220524Y1573283D1*
X2218148Y1566098D1*
Y1561345D1*
X2220524Y1554160D1*
X2225333Y1549406D1*
X2230086Y1546975D1*
X2237271D1*
X2242079Y1549406D1*
X2246832Y1554160D1*
X2281395Y1597215D2*
X2276642D1*
X2271833Y1594838D1*
X2269457Y1587653D1*
Y1546975D1*
X2262272Y1580468D2*
X2279018D1*
X2177680Y1474885D2*
X2175303Y1479638D1*
X2170495Y1484447D1*
X2165742Y1486823D1*
X2156180D1*
X2151372Y1484447D1*
X2146618Y1479638D1*
X2144187Y1474885D1*
X2141810Y1467700D1*
Y1455707D1*
X2144187Y1448577D1*
X2146618Y1443768D1*
X2151372Y1439015D1*
X2156180Y1436583D1*
X2165742D1*
X2170495Y1439015D1*
X2175303Y1443768D1*
X2177680Y1448577D1*
Y1455707D1*
X2165742D1*
X2226612Y1486823D2*
Y1436583D1*
X2193119Y1486823D1*
Y1436583D1*
X2242052Y1486823D2*
Y1436583D1*
X2258798D1*
X2265983Y1439015D1*
X2270792Y1443768D1*
X2273168Y1448577D1*
X2275545Y1455707D1*
Y1467700D1*
X2273168Y1474885D1*
X2270792Y1479638D1*
X2265983Y1484447D1*
X2258798Y1486823D1*
X2242052D1*
X2209865Y1388343D2*
X2185988D1*
X2183612Y1366843D1*
X2185988Y1369220D1*
X2193174Y1371652D1*
X2200303D1*
X2207488Y1369220D1*
X2212297Y1364467D1*
X2214673Y1357282D1*
Y1352528D1*
X2212297Y1345343D1*
X2207488Y1340535D1*
X2200303Y1338158D1*
X2193174D1*
X2185988Y1340535D1*
X2183612Y1342967D1*
X2181180Y1347720D1*
X2230113Y1388398D2*
X2249236Y1338158D1*
X2268359Y1388398D1*
X2161495Y1280356D2*
X2166303Y1282788D1*
X2173488Y1289918D1*
Y1239733D1*
X2191360Y1277980D2*
Y1280356D1*
X2193736Y1285165D1*
X2196113Y1287541D1*
X2200921Y1289918D1*
X2210483D1*
X2215236Y1287541D1*
X2217613Y1285165D1*
X2220044Y1280356D1*
Y1275603D1*
X2217613Y1270795D1*
X2212859Y1263665D1*
X2188928Y1239733D1*
X2222421D1*
X2237860Y1289973D2*
X2256984Y1239733D1*
X2276107Y1289973D1*
X2120581Y1178646D2*
D58*
Y1148502D1*
X2131304Y1171450D2*
Y1172876D1*
X2132730Y1175761D1*
X2134156Y1177187D1*
X2137041Y1178613D1*
X2142778D1*
X2145630Y1177187D1*
X2147055Y1175761D1*
X2148515Y1172876D1*
Y1170024D1*
X2147055Y1167139D1*
X2144204Y1162861D1*
X2129845Y1148502D1*
X2149941D1*
X2180726Y1171483D2*
X2179300Y1174335D1*
X2176415Y1177220D1*
X2173563Y1178646D1*
X2167826D1*
X2164941Y1177220D1*
X2162089Y1174335D1*
X2160630Y1171483D1*
X2159204Y1167172D1*
Y1159976D1*
X2160630Y1155698D1*
X2162089Y1152813D1*
X2164941Y1149961D1*
X2167826Y1148502D1*
X2173563D1*
X2176415Y1149961D1*
X2179300Y1152813D1*
X2180726Y1155698D1*
X2239246Y1174335D2*
X2236394Y1177220D1*
X2232083Y1178646D1*
X2226346D1*
X2222035Y1177220D1*
X2219150Y1174335D1*
Y1171483D1*
X2220609Y1168598D1*
X2222035Y1167172D1*
X2224887Y1165746D1*
X2233509Y1162861D1*
X2236394Y1161435D1*
X2237820Y1159976D1*
X2239246Y1157124D1*
Y1152813D1*
X2236394Y1149961D1*
X2232083Y1148502D1*
X2226346D1*
X2222035Y1149961D1*
X2219150Y1152813D1*
X2248510Y1178646D2*
Y1148502D1*
X2258558D1*
X2262869Y1149961D1*
X2265754Y1152813D1*
X2267180Y1155698D1*
X2268606Y1159976D1*
Y1167172D1*
X2267180Y1171483D1*
X2265754Y1174335D1*
X2262869Y1177220D1*
X2258558Y1178646D1*
X2248510D1*
X2300850Y1148502D2*
X2289343Y1178646D1*
X2277869Y1148502D1*
X2282180Y1158550D2*
X2296539D1*
X2120581Y1080221D2*
Y1050077D1*
X2131304Y1073025D2*
Y1074451D1*
X2132730Y1077336D1*
X2134156Y1078762D1*
X2137041Y1080188D1*
X2142778D1*
X2145630Y1078762D1*
X2147055Y1077336D1*
X2148515Y1074451D1*
Y1071599D1*
X2147055Y1068714D1*
X2144204Y1064436D1*
X2129845Y1050077D1*
X2149941D1*
X2180726Y1073058D2*
X2179300Y1075910D1*
X2176415Y1078795D1*
X2173563Y1080221D1*
X2167826D1*
X2164941Y1078795D1*
X2162089Y1075910D1*
X2160630Y1073058D1*
X2159204Y1068747D1*
Y1061551D1*
X2160630Y1057273D1*
X2162089Y1054388D1*
X2164941Y1051536D1*
X2167826Y1050077D1*
X2173563D1*
X2176415Y1051536D1*
X2179300Y1054388D1*
X2180726Y1057273D1*
X2239246Y1075910D2*
X2236394Y1078795D1*
X2232083Y1080221D1*
X2226346D1*
X2222035Y1078795D1*
X2219150Y1075910D1*
Y1073058D1*
X2220609Y1070173D1*
X2222035Y1068747D1*
X2224887Y1067321D1*
X2233509Y1064436D1*
X2236394Y1063010D1*
X2237820Y1061551D1*
X2239246Y1058699D1*
Y1054388D1*
X2236394Y1051536D1*
X2232083Y1050077D1*
X2226346D1*
X2222035Y1051536D1*
X2219150Y1054388D1*
X2270032Y1073058D2*
X2268606Y1075910D1*
X2265721Y1078795D1*
X2262869Y1080221D1*
X2257132D1*
X2254247Y1078795D1*
X2251395Y1075910D1*
X2249936Y1073058D1*
X2248510Y1068747D1*
Y1061551D1*
X2249936Y1057273D1*
X2251395Y1054388D1*
X2254247Y1051536D1*
X2257132Y1050077D1*
X2262869D1*
X2265721Y1051536D1*
X2268606Y1054388D1*
X2270032Y1057273D1*
X2279295Y1080221D2*
Y1050077D1*
X2296506D1*
X2148757Y1699031D2*
D57*
Y1658839D1*
X2171705D1*
X2207004Y1699031D2*
Y1658839D1*
Y1679886D2*
X2203202Y1683733D1*
X2199355Y1685634D1*
X2193607D1*
X2189804Y1683733D1*
X2185958Y1679886D1*
X2184056Y1674138D1*
Y1670336D1*
X2185958Y1664587D1*
X2189804Y1660785D1*
X2193607Y1658839D1*
X2199355D1*
X2203202Y1660785D1*
X2207004Y1664587D1*
X2242304Y1685634D2*
Y1658839D1*
Y1679886D2*
X2238501Y1683733D1*
X2234654Y1685634D1*
X2228951D1*
X2225104Y1683733D1*
X2221301Y1679886D1*
X2219356Y1674138D1*
Y1670336D1*
X2221301Y1664587D1*
X2225104Y1660785D1*
X2228951Y1658839D1*
X2234654D1*
X2238501Y1660785D1*
X2242304Y1664587D1*
X2277647Y1679886D2*
X2273800Y1683733D1*
X2269954Y1685634D1*
X2264250D1*
X2260403Y1683733D1*
X2256601Y1679886D1*
X2254655Y1674138D1*
Y1670336D1*
X2256601Y1664587D1*
X2260403Y1660785D1*
X2264250Y1658839D1*
X2269954D1*
X2273800Y1660785D1*
X2277647Y1664587D1*
X386902Y1416254D2*
D60*
X406998D1*
Y1424876D1*
X406025Y1427750D1*
X405074Y1428701D1*
X403173Y1429651D1*
X400299D1*
X398376Y1428701D1*
X397425Y1427750D1*
X396474Y1424876D1*
X395502Y1427750D1*
X394551Y1428701D1*
X392650Y1429651D1*
X390726D1*
X388825Y1428701D1*
X387852Y1427750D1*
X386902Y1424876D1*
Y1416254D1*
X396474D2*
Y1424876D1*
X386902Y1441575D2*
X387852Y1439652D1*
X389776Y1437750D1*
X391677Y1436778D1*
X394551Y1435827D1*
X399348D1*
X402200Y1436778D1*
X404124Y1437750D1*
X406025Y1439652D1*
X406998Y1441575D1*
Y1445400D1*
X406025Y1447301D1*
X404124Y1449224D1*
X402200Y1450175D1*
X399348Y1451126D1*
X394551D1*
X391677Y1450175D1*
X389776Y1449224D1*
X387852Y1447301D1*
X386902Y1445400D1*
Y1441575D1*
X406998Y1472622D2*
X386902Y1464951D1*
X406998Y1457301D1*
X400299Y1460175D2*
Y1469748D1*
X396474Y1478798D2*
Y1487398D1*
X395502Y1490272D1*
X394551Y1491244D1*
X392650Y1492195D1*
X390726D1*
X388825Y1491244D1*
X387852Y1490272D1*
X386902Y1487398D1*
Y1478798D1*
X406998D1*
X396474Y1485496D2*
X406998Y1492195D1*
X386902Y1498371D2*
X406998D1*
Y1505069D1*
X406025Y1507943D1*
X404124Y1509867D1*
X402200Y1510817D1*
X399348Y1511768D1*
X394551D1*
X391677Y1510817D1*
X389776Y1509867D1*
X387852Y1507943D1*
X386902Y1505069D1*
Y1498371D1*
Y1549809D2*
Y1537384D1*
X406998D1*
Y1549809D1*
X396474Y1537384D2*
Y1545033D1*
X386902Y1555984D2*
X406998D1*
Y1562683D1*
X406025Y1565557D1*
X404124Y1567480D1*
X402200Y1568431D1*
X399348Y1569382D1*
X394551D1*
X391677Y1568431D1*
X389776Y1567480D1*
X387852Y1565557D1*
X386902Y1562683D1*
Y1555984D1*
X391677Y1589905D2*
X389776Y1588955D1*
X387852Y1587031D1*
X386902Y1585130D1*
Y1581305D1*
X387852Y1579382D1*
X389776Y1577481D1*
X391677Y1576508D1*
X394551Y1575557D1*
X399348D1*
X402200Y1576508D1*
X404124Y1577481D1*
X406025Y1579382D1*
X406998Y1581305D1*
Y1585130D1*
X406025Y1587031D1*
X404124Y1588955D1*
X402200Y1589905D1*
X399348D1*
Y1585130D1*
X386902Y1608506D2*
Y1596081D1*
X406998D1*
Y1608506D1*
X396474Y1596081D2*
Y1603730D1*
X2447744Y1615242D2*
X2427648D1*
Y1606620D1*
X2428621Y1603746D1*
X2429571Y1602795D1*
X2431473Y1601845D1*
X2434347D1*
X2436270Y1602795D1*
X2437221Y1603746D1*
X2438171Y1606620D1*
X2439144Y1603746D1*
X2440095Y1602795D1*
X2441996Y1601845D1*
X2443919D1*
X2445821Y1602795D1*
X2446793Y1603746D1*
X2447744Y1606620D1*
Y1615242D1*
X2438171D2*
Y1606620D1*
X2447744Y1589921D2*
X2446793Y1591844D1*
X2444870Y1593746D1*
X2442969Y1594718D1*
X2440095Y1595669D1*
X2435297D1*
X2432445Y1594719D1*
X2430522Y1593746D1*
X2428621Y1591845D1*
X2427648Y1589921D1*
Y1586096D1*
X2428621Y1584195D1*
X2430522Y1582272D1*
X2432445Y1581321D1*
X2435297Y1580371D1*
X2440095D1*
X2442969Y1581321D1*
X2444870Y1582272D1*
X2446793Y1584195D1*
X2447744Y1586096D1*
Y1589921D1*
X2427648Y1558874D2*
X2447744Y1566546D1*
X2427648Y1574195D1*
X2434347Y1571321D2*
Y1561748D1*
X2438171Y1552698D2*
Y1544099D1*
X2439144Y1541225D1*
X2440095Y1540252D1*
X2441996Y1539301D1*
X2443919D1*
X2445821Y1540252D1*
X2446793Y1541224D1*
X2447744Y1544099D1*
Y1552698D1*
X2427648D1*
X2438171Y1546000D2*
X2427648Y1539301D1*
X2447744Y1533125D2*
X2427648D1*
Y1526427D1*
X2428621Y1523553D1*
X2430522Y1521629D1*
X2432445Y1520679D1*
X2435297Y1519728D1*
X2440095D1*
X2442969Y1520679D1*
X2444870Y1521629D1*
X2446793Y1523553D1*
X2447744Y1526427D1*
Y1533125D1*
Y1481687D2*
Y1494112D1*
X2427648D1*
Y1481687D1*
X2438171Y1494112D2*
Y1486463D1*
X2447744Y1475512D2*
X2427648D1*
Y1468813D1*
X2428621Y1465939D1*
X2430522Y1464016D1*
X2432445Y1463065D1*
X2435297Y1462114D1*
X2440095D1*
X2442969Y1463065D1*
X2444870Y1464016D1*
X2446793Y1465939D1*
X2447744Y1468813D1*
Y1475512D1*
X2442969Y1441591D2*
X2444870Y1442541D1*
X2446793Y1444465D1*
X2447744Y1446366D1*
Y1450191D1*
X2446793Y1452114D1*
X2444870Y1454015D1*
X2442969Y1454988D1*
X2440095Y1455939D1*
X2435297D1*
X2432445Y1454988D1*
X2430522Y1454015D1*
X2428621Y1452114D1*
X2427648Y1450191D1*
Y1446366D1*
X2428621Y1444465D1*
X2430522Y1442541D1*
X2432445Y1441591D1*
X2435297D1*
Y1446366D1*
X2447744Y1422990D2*
Y1435415D1*
X2427648D1*
Y1422990D1*
X2438171Y1435415D2*
Y1427766D1*
X570579Y2655376D2*
X550483D1*
Y2646754D1*
X551455Y2643880D1*
X552406Y2642929D1*
X554307Y2641978D1*
X557181D1*
X559105Y2642929D1*
X560055Y2643880D1*
X561006Y2646754D1*
X561979Y2643880D1*
X562929Y2642929D1*
X564831Y2641978D1*
X566754D1*
X568655Y2642929D1*
X569628Y2643880D1*
X570579Y2646754D1*
Y2655376D1*
X561006D2*
Y2646754D1*
X570579Y2630055D2*
X569628Y2631978D1*
X567705Y2633879D1*
X565803Y2634852D1*
X562929Y2635803D1*
X558132D1*
X555280Y2634852D1*
X553357Y2633879D1*
X551455Y2631978D1*
X550483Y2630055D1*
Y2626230D1*
X551455Y2624329D1*
X553357Y2622405D1*
X555280Y2621455D1*
X558132Y2620504D1*
X562929D1*
X565803Y2621455D1*
X567705Y2622405D1*
X569628Y2624329D1*
X570579Y2626230D1*
Y2630055D1*
X550483Y2599008D2*
X570579Y2606679D1*
X550483Y2614328D1*
X557181Y2611454D2*
Y2601882D1*
X561006Y2592832D2*
Y2584232D1*
X561979Y2581358D1*
X562929Y2580385D1*
X564831Y2579435D1*
X566754D1*
X568655Y2580385D1*
X569628Y2581358D1*
X570579Y2584232D1*
Y2592832D1*
X550483D1*
X561006Y2586133D2*
X550483Y2579435D1*
X570579Y2573259D2*
X550483D1*
Y2566560D1*
X551455Y2563686D1*
X553357Y2561763D1*
X555280Y2560812D1*
X558132Y2559862D1*
X562929D1*
X565803Y2560812D1*
X567705Y2561763D1*
X569628Y2563686D1*
X570579Y2566560D1*
Y2573259D1*
Y2521821D2*
Y2534246D1*
X550483D1*
Y2521821D1*
X561006Y2534246D2*
Y2526596D1*
X570579Y2515645D2*
X550483D1*
Y2508947D1*
X551455Y2506073D1*
X553357Y2504149D1*
X555280Y2503199D1*
X558132Y2502248D1*
X562929D1*
X565803Y2503199D1*
X567705Y2504149D1*
X569628Y2506073D1*
X570579Y2508947D1*
Y2515645D1*
X565803Y2481724D2*
X567705Y2482675D1*
X569628Y2484598D1*
X570579Y2486500D1*
Y2490324D1*
X569628Y2492248D1*
X567705Y2494149D1*
X565803Y2495122D1*
X562929Y2496072D1*
X558132D1*
X555280Y2495122D1*
X553357Y2494149D1*
X551455Y2492248D1*
X550483Y2490324D1*
Y2486500D1*
X551455Y2484598D1*
X553357Y2482675D1*
X555280Y2481724D1*
X558132D1*
Y2486500D1*
X570579Y2463124D2*
Y2475549D1*
X550483D1*
Y2463124D1*
X561006Y2475549D2*
Y2467899D1*
M02*
