G04 DipTrace 3.0.0.2*
G04 TopAssy.gbr*
%MOIN*%
G04 #@! TF.FileFunction,Drawing,Top*
G04 #@! TF.Part,Single*
%ADD10C,0.009843*%
%ADD48C,0.003088*%
%FSLAX26Y26*%
G04*
G70*
G90*
G75*
G01*
G04 TopAssy*
%LPD*%
X425200Y1725197D2*
D10*
Y2802362D1*
X2409445D2*
Y1725197D1*
X386902Y2164285D2*
D48*
X406998D1*
Y2172907D1*
X406025Y2175781D1*
X405074Y2176732D1*
X403173Y2177683D1*
X400299D1*
X398376Y2176732D1*
X397425Y2175781D1*
X396474Y2172907D1*
X395502Y2175782D1*
X394551Y2176732D1*
X392650Y2177683D1*
X390726D1*
X388825Y2176732D1*
X387852Y2175782D1*
X386902Y2172908D1*
Y2164285D1*
X396474D2*
Y2172907D1*
X386902Y2189606D2*
X387852Y2187683D1*
X389776Y2185782D1*
X391677Y2184809D1*
X394551Y2183858D1*
X399348D1*
X402200Y2184809D1*
X404124Y2185782D1*
X406025Y2187683D1*
X406998Y2189606D1*
Y2193431D1*
X406025Y2195332D1*
X404124Y2197256D1*
X402200Y2198206D1*
X399348Y2199157D1*
X394551D1*
X391677Y2198206D1*
X389776Y2197256D1*
X387852Y2195332D1*
X386902Y2193431D1*
Y2189606D1*
X406998Y2220653D2*
X386902Y2212982D1*
X406998Y2205333D1*
X400299Y2208207D2*
Y2217779D1*
X396474Y2226829D2*
Y2235429D1*
X395502Y2238303D1*
X394551Y2239276D1*
X392650Y2240226D1*
X390726D1*
X388825Y2239276D1*
X387852Y2238303D1*
X386902Y2235429D1*
Y2226829D1*
X406998D1*
X396474Y2233528D2*
X406998Y2240226D1*
X386902Y2246402D2*
X406998D1*
Y2253101D1*
X406025Y2255975D1*
X404124Y2257898D1*
X402200Y2258849D1*
X399348Y2259799D1*
X394551D1*
X391677Y2258849D1*
X389776Y2257898D1*
X387852Y2255975D1*
X386902Y2253101D1*
Y2246402D1*
Y2297840D2*
Y2285416D1*
X406998D1*
Y2297840D1*
X396474Y2285416D2*
Y2293065D1*
X386902Y2304016D2*
X406998D1*
Y2310715D1*
X406025Y2313589D1*
X404124Y2315512D1*
X402200Y2316463D1*
X399348Y2317413D1*
X394551D1*
X391677Y2316463D1*
X389776Y2315512D1*
X387852Y2313589D1*
X386902Y2310715D1*
Y2304016D1*
X391677Y2337937D2*
X389776Y2336986D1*
X387852Y2335063D1*
X386902Y2333162D1*
Y2329337D1*
X387852Y2327414D1*
X389776Y2325512D1*
X391677Y2324540D1*
X394551Y2323589D1*
X399348D1*
X402200Y2324540D1*
X404124Y2325512D1*
X406025Y2327414D1*
X406998Y2329337D1*
Y2333162D1*
X406025Y2335063D1*
X404124Y2336986D1*
X402200Y2337937D1*
X399348D1*
Y2333162D1*
X386902Y2356537D2*
Y2344113D1*
X406998D1*
Y2356537D1*
X396474Y2344113D2*
Y2351762D1*
X2447744Y2363274D2*
X2427648D1*
Y2354652D1*
X2428621Y2351778D1*
X2429571Y2350827D1*
X2431473Y2349876D1*
X2434347D1*
X2436270Y2350827D1*
X2437221Y2351778D1*
X2438171Y2354652D1*
X2439144Y2351778D1*
X2440095Y2350827D1*
X2441996Y2349876D1*
X2443919D1*
X2445821Y2350827D1*
X2446793Y2351778D1*
X2447744Y2354652D1*
Y2363274D1*
X2438171D2*
Y2354652D1*
X2447744Y2337953D2*
X2446793Y2339876D1*
X2444870Y2341777D1*
X2442969Y2342750D1*
X2440095Y2343701D1*
X2435297D1*
X2432445Y2342750D1*
X2430522Y2341777D1*
X2428621Y2339876D1*
X2427648Y2337953D1*
Y2334128D1*
X2428621Y2332227D1*
X2430522Y2330303D1*
X2432445Y2329353D1*
X2435297Y2328402D1*
X2440095D1*
X2442969Y2329353D1*
X2444870Y2330303D1*
X2446793Y2332227D1*
X2447744Y2334128D1*
Y2337953D1*
X2427648Y2306906D2*
X2447744Y2314577D1*
X2427648Y2322226D1*
X2434347Y2319352D2*
Y2309780D1*
X2438171Y2300730D2*
Y2292130D1*
X2439144Y2289256D1*
X2440095Y2288283D1*
X2441996Y2287333D1*
X2443919D1*
X2445821Y2288283D1*
X2446793Y2289256D1*
X2447744Y2292130D1*
Y2300730D1*
X2427648D1*
X2438171Y2294031D2*
X2427648Y2287333D1*
X2447744Y2281157D2*
X2427648D1*
Y2274458D1*
X2428621Y2271584D1*
X2430522Y2269661D1*
X2432445Y2268710D1*
X2435297Y2267760D1*
X2440095D1*
X2442969Y2268710D1*
X2444870Y2269661D1*
X2446793Y2271584D1*
X2447744Y2274458D1*
Y2281157D1*
Y2229719D2*
Y2242144D1*
X2427648D1*
Y2229719D1*
X2438171Y2242144D2*
Y2234494D1*
X2447744Y2223543D2*
X2427648D1*
Y2216845D1*
X2428621Y2213971D1*
X2430522Y2212047D1*
X2432445Y2211097D1*
X2435297Y2210146D1*
X2440095D1*
X2442969Y2211097D1*
X2444870Y2212047D1*
X2446793Y2213971D1*
X2447744Y2216845D1*
Y2223543D1*
X2442969Y2189622D2*
X2444870Y2190573D1*
X2446793Y2192496D1*
X2447744Y2194397D1*
Y2198222D1*
X2446793Y2200146D1*
X2444870Y2202047D1*
X2442969Y2203020D1*
X2440095Y2203970D1*
X2435297D1*
X2432445Y2203020D1*
X2430522Y2202047D1*
X2428621Y2200146D1*
X2427648Y2198222D1*
Y2194397D1*
X2428621Y2192496D1*
X2430522Y2190573D1*
X2432445Y2189622D1*
X2435297D1*
Y2194397D1*
X2447744Y2171022D2*
Y2183447D1*
X2427648D1*
Y2171022D1*
X2438171Y2183447D2*
Y2175797D1*
M02*
