G04 DipTrace 3.0.0.2*
G04 TopMask.gbr*
%MOIN*%
G04 #@! TF.FileFunction,Soldermask,Top*
G04 #@! TF.Part,Single*
%ADD34C,0.047874*%
%ADD36C,0.066929*%
%ADD38R,0.023622X0.07874*%
%ADD40R,0.086614X0.031496*%
%ADD42R,0.035433X0.043307*%
%ADD44R,0.074803X0.15748*%
%ADD46R,0.035433X0.017717*%
%ADD48C,0.074803*%
%ADD50R,0.074803X0.074803*%
%ADD52R,0.059055X0.066929*%
%ADD54R,0.066929X0.059055*%
%FSLAX26Y26*%
G04*
G70*
G90*
G75*
G01*
G04 TopMask*
%LPD*%
D34*
X1653543Y905512D3*
X1220472Y2066929D3*
X1574803Y1988189D3*
X1594488Y1909449D3*
X1771654Y1811024D3*
X688976Y1535433D3*
X1246639Y1525314D3*
X1889764Y1240157D3*
X1141732Y1338583D3*
X767717Y2047244D3*
X826772Y1318898D3*
X1457801Y1712598D3*
X1455270Y1374316D3*
X1863043Y1468789D3*
X1194621Y1583815D3*
X2203232Y1850394D3*
X748031Y1614173D3*
X1358268Y1850394D3*
X1633858Y1476378D3*
X2125984Y1377953D3*
X1555118Y1417323D3*
X1732283D3*
X1830709Y1318898D3*
X1929134Y1043307D3*
X1259843Y1751969D3*
X866142Y2165354D3*
X728346Y2204724D3*
X1003937Y2145669D3*
X1141732Y2125984D3*
X1181102Y1771654D3*
X807087Y1811024D3*
X708661Y1889764D3*
X1318898Y1574803D3*
X854220Y877385D3*
X1008005Y896391D3*
X1147966Y858377D3*
X1312962Y1439856D3*
X719718Y1431442D3*
X1937764Y1415764D3*
D54*
X1496063Y1200787D3*
Y1275591D3*
X1889764Y1850394D3*
Y1775591D3*
D52*
X1710238Y1758672D3*
X1635434D3*
X1771654Y2086614D3*
X1696850D3*
D50*
X485039Y1065748D3*
D48*
Y1165748D3*
Y1265748D3*
Y1365748D3*
Y1465748D3*
Y1565748D3*
Y1665748D3*
Y1765748D3*
Y1865748D3*
Y1965748D3*
D50*
X2349606D3*
D48*
Y1865748D3*
Y1765748D3*
Y1665748D3*
Y1565748D3*
Y1465748D3*
Y1365748D3*
Y1265748D3*
Y1165748D3*
Y1065748D3*
D52*
X2114136Y2012119D3*
X2039333D3*
X1397638Y1948819D3*
X1472441D3*
D46*
X1673228Y1870079D3*
Y1889764D3*
Y1909449D3*
Y1929134D3*
Y1948819D3*
Y1968504D3*
Y1988189D3*
X1787402Y1870079D3*
Y1889764D3*
Y1909449D3*
Y1929134D3*
Y1948819D3*
Y1968504D3*
Y1988189D3*
D44*
X1730315Y1938976D3*
D46*
X1787402Y2007874D3*
X1673228D3*
D50*
X472441Y2755906D3*
D48*
Y2655906D3*
Y2555906D3*
Y2455906D3*
Y2355906D3*
D54*
X1082677Y1913386D3*
Y1988189D3*
Y1161417D3*
Y1236220D3*
X1220472Y1909449D3*
Y1984252D3*
Y1161417D3*
Y1236220D3*
X944882Y1913386D3*
Y1988189D3*
D42*
X1830709Y1692913D3*
Y1744094D3*
D54*
X946850Y1163386D3*
Y1238189D3*
X807087Y1909449D3*
Y1984252D3*
Y1161417D3*
Y1236220D3*
X1968504Y1220472D3*
Y1295276D3*
X2047244Y1299213D3*
Y1224409D3*
Y1161417D3*
Y1086614D3*
D40*
X885827Y1692913D3*
Y1642913D3*
Y1592913D3*
Y1542913D3*
Y1492913D3*
Y1442913D3*
Y1392913D3*
X1098425D3*
Y1442913D3*
Y1492913D3*
Y1542913D3*
Y1592913D3*
Y1642913D3*
Y1692913D3*
D38*
X1594488Y1102362D3*
X1620079D3*
X1645669D3*
X1671260D3*
X1696850D3*
X1722441D3*
X1748031D3*
X1773622D3*
Y1330709D3*
X1748031D3*
X1722441D3*
X1696850D3*
X1671260D3*
X1645669D3*
X1620079D3*
X1594488D3*
D54*
X1574803Y2047244D3*
Y2122047D3*
X1909449Y2106299D3*
Y2031496D3*
X1318898Y1692913D3*
Y1618110D3*
X1165608Y688976D3*
Y763780D3*
D52*
X1323088Y748031D3*
X1248285D3*
D54*
X703194Y938488D3*
Y1013291D3*
X839652Y954927D3*
Y1029730D3*
X953579Y669130D3*
Y743933D3*
D52*
X796098Y745340D3*
X870902D3*
D54*
X1220472Y925197D3*
Y1000000D3*
X1366631Y1074888D3*
Y1000085D3*
X2116741Y1907510D3*
Y1832707D3*
X2032510Y1776948D3*
Y1702144D3*
X1544734Y1620563D3*
Y1695366D3*
X1533286Y1776777D3*
Y1851580D3*
D36*
X1697252Y664104D3*
X1635299Y737559D3*
X1529505Y854849D3*
X1453752Y949001D3*
X1470542Y2109047D3*
X2123239Y1734631D3*
M02*
