G04 DipTrace 3.0.0.2*
G04 TopPaste.gbr*
%MOIN*%
G04 #@! TF.FileFunction,Paste,Top*
G04 #@! TF.Part,Single*
%ADD39R,0.007874X0.062992*%
%ADD41R,0.070866X0.015748*%
%ADD43R,0.019685X0.027559*%
%ADD45R,0.059055X0.141732*%
%ADD47R,0.019685X0.001969*%
%ADD53R,0.043307X0.051181*%
%ADD55R,0.051181X0.043307*%
%FSLAX26Y26*%
G04*
G70*
G90*
G75*
G01*
G04 TopPaste*
%LPD*%
D55*
X1496063Y1200787D3*
Y1275591D3*
X1889764Y1850394D3*
Y1775591D3*
D53*
X1710238Y1758672D3*
X1635434D3*
X1771654Y2086614D3*
X1696850D3*
X2114136Y2012119D3*
X2039333D3*
X1397638Y1948819D3*
X1472441D3*
D47*
X1673228Y1870079D3*
Y1889764D3*
Y1909449D3*
Y1929134D3*
Y1948819D3*
Y1968504D3*
Y1988189D3*
X1787402Y1870079D3*
Y1889764D3*
Y1909449D3*
Y1929134D3*
Y1948819D3*
Y1968504D3*
Y1988189D3*
D45*
X1730315Y1938976D3*
D47*
X1787402Y2007874D3*
X1673228D3*
D55*
X1082677Y1913386D3*
Y1988189D3*
Y1161417D3*
Y1236220D3*
X1220472Y1909449D3*
Y1984252D3*
Y1161417D3*
Y1236220D3*
X944882Y1913386D3*
Y1988189D3*
D43*
X1830709Y1692913D3*
Y1744094D3*
D55*
X946850Y1163386D3*
Y1238189D3*
X807087Y1909449D3*
Y1984252D3*
Y1161417D3*
Y1236220D3*
X1968504Y1220472D3*
Y1295276D3*
X2047244Y1299213D3*
Y1224409D3*
Y1161417D3*
Y1086614D3*
D41*
X885827Y1692913D3*
Y1642913D3*
Y1592913D3*
Y1542913D3*
Y1492913D3*
Y1442913D3*
Y1392913D3*
X1098425D3*
Y1442913D3*
Y1492913D3*
Y1542913D3*
Y1592913D3*
Y1642913D3*
Y1692913D3*
D39*
X1594488Y1102362D3*
X1620079D3*
X1645669D3*
X1671260D3*
X1696850D3*
X1722441D3*
X1748031D3*
X1773622D3*
Y1330709D3*
X1748031D3*
X1722441D3*
X1696850D3*
X1671260D3*
X1645669D3*
X1620079D3*
X1594488D3*
D55*
X1574803Y2047244D3*
Y2122047D3*
X1909449Y2106299D3*
Y2031496D3*
X1318898Y1692913D3*
Y1618110D3*
X1165608Y688976D3*
Y763780D3*
D53*
X1323088Y748031D3*
X1248285D3*
D55*
X703194Y938488D3*
Y1013291D3*
X839652Y954927D3*
Y1029730D3*
X953579Y669130D3*
Y743933D3*
D53*
X796098Y745340D3*
X870902D3*
D55*
X1220472Y925197D3*
Y1000000D3*
X1366631Y1074888D3*
Y1000085D3*
X2116741Y1907510D3*
Y1832707D3*
X2032510Y1776948D3*
Y1702144D3*
X1544734Y1620563D3*
Y1695366D3*
X1533286Y1776777D3*
Y1851580D3*
M02*
