G04 DipTrace 3.0.0.2*
G04 TopPaste.gbr*
%MOMM*%
G04 #@! TF.FileFunction,Paste,Top*
G04 #@! TF.Part,Single*
%ADD39R,0.2X1.6*%
%ADD41R,1.8X0.4*%
%ADD43R,0.5X0.7*%
%ADD45R,1.5X3.6*%
%ADD47R,0.5X0.05*%
%ADD53R,1.1X1.3*%
%ADD55R,1.3X1.1*%
%FSLAX35Y35*%
G04*
G71*
G90*
G75*
G01*
G04 TopPaste*
%LPD*%
D55*
X3800000Y3050000D3*
Y3240000D3*
X4800000Y4700000D3*
Y4510000D3*
D53*
X4344003Y4467027D3*
X4154003D3*
X4500000Y5300000D3*
X4310000D3*
X5369907Y5110783D3*
X5179907D3*
X3550000Y4950000D3*
X3740000D3*
D47*
X4250000Y4750000D3*
Y4800000D3*
Y4850000D3*
Y4900000D3*
Y4950000D3*
Y5000000D3*
Y5050000D3*
X4540000Y4750000D3*
Y4800000D3*
Y4850000D3*
Y4900000D3*
Y4950000D3*
Y5000000D3*
Y5050000D3*
D45*
X4395000Y4925000D3*
D47*
X4540000Y5100000D3*
X4250000D3*
D55*
X2750000Y4860000D3*
Y5050000D3*
Y2950000D3*
Y3140000D3*
X3100000Y4850000D3*
Y5040000D3*
Y2950000D3*
Y3140000D3*
X2400000Y4860000D3*
Y5050000D3*
D43*
X4650000Y4300000D3*
Y4430000D3*
D55*
X2405000Y2955000D3*
Y3145000D3*
X2050000Y4850000D3*
Y5040000D3*
Y2950000D3*
Y3140000D3*
X5000000Y3100000D3*
Y3290000D3*
X5200000Y3300000D3*
Y3110000D3*
Y2950000D3*
Y2760000D3*
D41*
X2250000Y4300000D3*
Y4173000D3*
Y4046000D3*
Y3919000D3*
Y3792000D3*
Y3665000D3*
Y3538000D3*
X2790000D3*
Y3665000D3*
Y3792000D3*
Y3919000D3*
Y4046000D3*
Y4173000D3*
Y4300000D3*
D39*
X4050000Y2800000D3*
X4115000D3*
X4180000D3*
X4245000D3*
X4310000D3*
X4375000D3*
X4440000D3*
X4505000D3*
Y3380000D3*
X4440000D3*
X4375000D3*
X4310000D3*
X4245000D3*
X4180000D3*
X4115000D3*
X4050000D3*
D55*
X4000000Y5200000D3*
Y5390000D3*
X4850000Y5350000D3*
Y5160000D3*
X3350000Y4300000D3*
Y4110000D3*
X2960643Y1750000D3*
Y1940000D3*
D53*
X3360643Y1900000D3*
X3170643D3*
D55*
X1786113Y2383760D3*
Y2573760D3*
X2132717Y2425513D3*
Y2615513D3*
X2422090Y1699590D3*
Y1889590D3*
D53*
X2022090Y1893163D3*
X2212090D3*
D55*
X3100000Y2350000D3*
Y2540000D3*
X3471243Y2730217D3*
Y2540217D3*
X5376523Y4845077D3*
Y4655077D3*
X5162577Y4513447D3*
Y4323447D3*
X3923623Y4116230D3*
Y4306230D3*
X3894547Y4513013D3*
Y4703013D3*
M02*
