G04 DipTrace 3.0.0.2*
G04 TopPaste.gbr*
%MOIN*%
G04 #@! TF.FileFunction,Paste,Top*
G04 #@! TF.Part,Single*
%ADD17R,0.070866X0.015748*%
%ADD34R,0.033465X0.017717*%
%ADD36R,0.043307X0.051181*%
%ADD43R,0.062992X0.007874*%
%ADD45R,0.051181X0.043307*%
%FSLAX26Y26*%
G04*
G70*
G90*
G75*
G01*
G04 TopPaste*
%LPD*%
D45*
X1633858Y2992126D3*
Y2917323D3*
X1299213Y2933071D3*
Y3007874D3*
X1948819Y3720472D3*
Y3795276D3*
X2244094Y3720472D3*
Y3795276D3*
X2125984Y826772D3*
Y901575D3*
D43*
X1299213Y2401575D3*
Y2375984D3*
Y2350394D3*
Y2324803D3*
Y2299213D3*
Y2273622D3*
Y2248031D3*
Y2222441D3*
X1527567D3*
X1527559Y2248031D3*
Y2273622D3*
Y2299213D3*
Y2324803D3*
Y2350394D3*
Y2375984D3*
Y2401575D3*
D36*
X1259843Y3464567D3*
X1334646D3*
X1259843Y3228346D3*
X1334646D3*
D45*
X1614173Y3641732D3*
Y3716535D3*
D36*
X1633858Y3326772D3*
X1708661D3*
X2106299Y3129921D3*
X2031496D3*
X2066929Y3326772D3*
X1992126D3*
X807087Y3700787D3*
X881890D3*
X964567Y3484252D3*
X889764D3*
X964567Y3267717D3*
X889764D3*
X964567Y3031496D3*
X889764D3*
X590551Y3484252D3*
X515748D3*
X627953Y3147638D3*
X553150D3*
D45*
X1771654Y826772D3*
Y901575D3*
X2244094Y1338583D3*
Y1413386D3*
D34*
X767717Y1377953D3*
Y1303150D3*
X858268Y1340551D3*
X767717Y1692913D3*
Y1618110D3*
X858268Y1655512D3*
X1102362Y1377953D3*
Y1303150D3*
X1192913Y1340551D3*
X1062992Y1692913D3*
Y1618110D3*
X1153543Y1655512D3*
X1476378Y1673228D3*
Y1598425D3*
X1566929Y1635827D3*
X1850394Y1673228D3*
Y1598425D3*
X1940945Y1635827D3*
X1850394Y1397638D3*
Y1322835D3*
X1940945Y1360236D3*
X1496063Y1397638D3*
Y1322835D3*
X1586614Y1360236D3*
D17*
X531496Y1023622D3*
Y973622D3*
Y923622D3*
Y873622D3*
Y823622D3*
Y773622D3*
Y723622D3*
X744094D3*
Y773622D3*
Y823622D3*
Y873622D3*
Y923622D3*
Y973622D3*
Y1023622D3*
X1181102D3*
Y973622D3*
Y923622D3*
Y873622D3*
Y823622D3*
Y773622D3*
Y723622D3*
X1393701D3*
Y773622D3*
Y823622D3*
Y873622D3*
Y923622D3*
Y973622D3*
Y1023622D3*
M02*
