G04 DipTrace 3.0.0.2*
G04 TopSilk.gbr*
%MOMM*%
G04 #@! TF.FileFunction,Legend,Top*
G04 #@! TF.Part,Single*
%ADD10C,0.25*%
%ADD54C,0.19608*%
%ADD55C,0.15686*%
%ADD56C,0.23529*%
%FSLAX35Y35*%
G04*
G71*
G90*
G75*
G01*
G04 TopSilk*
%LPD*%
X5026270Y4789093D2*
D10*
X5156170D1*
X4449057Y4531977D2*
Y4402077D1*
X3465697Y1964950D2*
Y1835050D1*
X3406293Y2835270D2*
X3536193D1*
X1917037Y1828213D2*
Y1958113D1*
X2197667Y2320460D2*
X2067767D1*
X4769360Y5619747D2*
Y5489847D1*
X5064950Y2994947D2*
X4935050D1*
X3864950Y2944947D2*
X3735050D1*
X4007500Y2929640D2*
X4547500D1*
X4007500Y3250360D2*
X4547500D1*
Y2929640D2*
Y3250360D1*
X4007500Y2929640D2*
Y3039840D1*
Y3140160D2*
Y3250360D1*
Y3039840D2*
G03X4007500Y3140160I60J50160D01*
G01*
X1104996Y2579949D2*
X1359000D1*
Y5120051D1*
X1104996D1*
Y2579949D1*
X6095004Y5120051D2*
X5841000D1*
Y2579949D1*
X6095004D1*
Y5120051D1*
X5230016Y2141049D2*
X4722016D1*
Y1887049D1*
X5230016D1*
Y2141049D1*
X2389982Y4349013D2*
Y3488987D1*
X2650018Y4349013D2*
Y3488987D1*
X2389982D2*
X2650018D1*
X2389982Y4349013D2*
X2469976D1*
X2570024D2*
X2650018D1*
X2469976D2*
G03X2570024Y4349013I50024J-30D01*
G01*
X5525317Y5267627D2*
Y5137727D1*
X3444947Y4885050D2*
Y5014950D1*
X3285050Y4405053D2*
X3414950D1*
X1327004Y7127056D2*
X1073000D1*
Y5856944D1*
X1327004D1*
Y7127056D1*
X4694960Y4819298D2*
Y5219342D1*
X4475000D2*
Y4819298D1*
X4694960Y5219342D2*
X4475000D1*
X4694960Y4819298D2*
X4625000D1*
X4544960D2*
X4475000D1*
X4625000D2*
G03X4544960Y4819298I-40020J24D01*
G01*
X4064950Y5094947D2*
X3935050D1*
X4958347Y5494673D2*
X5088247D1*
X5010583Y3981813D2*
D54*
X5138193D1*
Y4036563D1*
X5132016Y4054813D1*
X5125980Y4060850D1*
X5113907Y4066886D1*
X5095657D1*
X5083443Y4060850D1*
X5077407Y4054813D1*
X5071370Y4036563D1*
X5065193Y4054813D1*
X5059157Y4060850D1*
X5047084Y4066886D1*
X5034870D1*
X5022797Y4060850D1*
X5016620Y4054813D1*
X5010583Y4036563D1*
Y3981813D1*
X5071370D2*
Y4036563D1*
X5053120Y4106102D2*
X5138193D1*
X5077407D2*
X5059157Y4124352D1*
X5053120Y4136565D1*
Y4154675D1*
X5059157Y4166888D1*
X5077407Y4172925D1*
X5138193D1*
X5077407D2*
X5059157Y4191175D1*
X5053120Y4203388D1*
Y4221498D1*
X5059157Y4233711D1*
X5077407Y4239888D1*
X5138193D1*
X5040907Y4370214D2*
X5028834Y4364177D1*
X5016620Y4351964D1*
X5010584Y4339891D1*
Y4315604D1*
X5016620Y4303391D1*
X5028834Y4291318D1*
X5040907Y4285141D1*
X5059157Y4279104D1*
X5089620D1*
X5107730Y4285141D1*
X5119943Y4291317D1*
X5132016Y4303391D1*
X5138193Y4315604D1*
Y4339891D1*
X5132016Y4351964D1*
X5119943Y4364177D1*
X5107730Y4370214D1*
X4105223Y4348952D2*
Y4221342D1*
X4159973D1*
X4178223Y4227519D1*
X4184260Y4233555D1*
X4190296Y4245629D1*
Y4263879D1*
X4184260Y4276092D1*
X4178223Y4282129D1*
X4159973Y4288165D1*
X4178223Y4294342D1*
X4184260Y4300379D1*
X4190296Y4312452D1*
Y4324665D1*
X4184260Y4336738D1*
X4178223Y4342915D1*
X4159973Y4348952D1*
X4105223D1*
Y4288165D2*
X4159973D1*
X4229512Y4306415D2*
Y4178805D1*
Y4288165D2*
X4241725Y4300238D1*
X4253798Y4306415D1*
X4272048D1*
X4284262Y4300238D1*
X4296335Y4288165D1*
X4302512Y4269915D1*
Y4257702D1*
X4296335Y4239592D1*
X4284262Y4227379D1*
X4272048Y4221342D1*
X4253798D1*
X4241725Y4227379D1*
X4229512Y4239592D1*
X4432837Y4318629D2*
X4426800Y4330702D1*
X4414587Y4342915D1*
X4402514Y4348952D1*
X4378227D1*
X4366014Y4342915D1*
X4353941Y4330702D1*
X4347764Y4318629D1*
X4341727Y4300379D1*
Y4269915D1*
X4347764Y4251805D1*
X4353941Y4239592D1*
X4366014Y4227519D1*
X4378227Y4221342D1*
X4402514D1*
X4414587Y4227519D1*
X4426800Y4239592D1*
X4432837Y4251805D1*
X3222614Y2130664D2*
X3216577Y2142737D1*
X3204364Y2154950D1*
X3192291Y2160987D1*
X3168004D1*
X3155791Y2154950D1*
X3143718Y2142737D1*
X3137541Y2130664D1*
X3131504Y2112414D1*
Y2081950D1*
X3137541Y2063840D1*
X3143718Y2051627D1*
X3155791Y2039554D1*
X3168004Y2033377D1*
X3192291D1*
X3204364Y2039554D1*
X3216577Y2051627D1*
X3222614Y2063840D1*
X3334689Y2118450D2*
Y2033377D1*
Y2100200D2*
X3322616Y2112414D1*
X3310403Y2118450D1*
X3292293D1*
X3280080Y2112414D1*
X3268006Y2100200D1*
X3261830Y2081950D1*
Y2069877D1*
X3268006Y2051627D1*
X3280080Y2039554D1*
X3292293Y2033377D1*
X3310403D1*
X3322616Y2039554D1*
X3334689Y2051627D1*
X3240580Y2644761D2*
X3228507Y2638724D1*
X3216293Y2626511D1*
X3210257Y2614438D1*
Y2590151D1*
X3216293Y2577938D1*
X3228507Y2565865D1*
X3240580Y2559688D1*
X3258830Y2553651D1*
X3289293D1*
X3307403Y2559688D1*
X3319616Y2565865D1*
X3331690Y2577938D1*
X3337866Y2590151D1*
Y2614438D1*
X3331690Y2626511D1*
X3319616Y2638724D1*
X3307403Y2644761D1*
X3210257Y2683976D2*
X3337866D1*
X3271043D2*
X3258830Y2696190D1*
X3252793Y2708263D1*
Y2726513D1*
X3258830Y2738586D1*
X3271043Y2750799D1*
X3289293Y2756836D1*
X3301366D1*
X3319616Y2750799D1*
X3331690Y2738586D1*
X3337866Y2726513D1*
Y2708263D1*
X3331690Y2696190D1*
X3319616Y2683976D1*
X2086510Y2123827D2*
X2080474Y2135900D1*
X2068260Y2148113D1*
X2056187Y2154150D1*
X2031901D1*
X2019687Y2148113D1*
X2007614Y2135900D1*
X2001437Y2123827D1*
X1995401Y2105577D1*
Y2075113D1*
X2001437Y2057004D1*
X2007614Y2044790D1*
X2019687Y2032717D1*
X2031901Y2026540D1*
X2056187D1*
X2068260Y2032717D1*
X2080474Y2044790D1*
X2086510Y2057004D1*
X2198726Y2093363D2*
X2186513Y2105577D1*
X2174299Y2111613D1*
X2156189D1*
X2143976Y2105577D1*
X2131903Y2093363D1*
X2125726Y2075113D1*
Y2063040D1*
X2131903Y2044790D1*
X2143976Y2032717D1*
X2156189Y2026540D1*
X2174299D1*
X2186513Y2032717D1*
X2198726Y2044790D1*
X2293440Y2484164D2*
X2281367Y2478128D1*
X2269153Y2465914D1*
X2263117Y2453841D1*
Y2429555D1*
X2269153Y2417341D1*
X2281367Y2405268D1*
X2293440Y2399091D1*
X2311690Y2393055D1*
X2342153D1*
X2360263Y2399091D1*
X2372476Y2405268D1*
X2384550Y2417341D1*
X2390726Y2429554D1*
Y2453841D1*
X2384550Y2465914D1*
X2372476Y2478127D1*
X2360263Y2484164D1*
X2263117Y2596239D2*
X2390726D1*
X2323903D2*
X2311690Y2584166D1*
X2305653Y2571953D1*
Y2553703D1*
X2311690Y2541630D1*
X2323903Y2529416D1*
X2342153Y2523380D1*
X2354226D1*
X2372476Y2529416D1*
X2384550Y2541630D1*
X2390726Y2553703D1*
Y2571953D1*
X2384550Y2584166D1*
X2372476Y2596239D1*
X4590994Y5785460D2*
X4584957Y5797533D1*
X4572744Y5809747D1*
X4560671Y5815783D1*
X4536384D1*
X4524171Y5809747D1*
X4512098Y5797533D1*
X4505921Y5785460D1*
X4499884Y5767210D1*
Y5736747D1*
X4505921Y5718637D1*
X4512098Y5706424D1*
X4524171Y5694351D1*
X4536384Y5688174D1*
X4560671D1*
X4572744Y5694351D1*
X4584957Y5706424D1*
X4590994Y5718637D1*
X4678783Y5815783D2*
X4666709D1*
X4654496Y5809747D1*
X4648459Y5791497D1*
Y5688174D1*
X4630209Y5773247D2*
X4672746D1*
X4844182Y3505887D2*
X4838145Y3517960D1*
X4825932Y3530173D1*
X4813858Y3536210D1*
X4789572D1*
X4777358Y3530173D1*
X4765285Y3517960D1*
X4759108Y3505887D1*
X4753072Y3487637D1*
Y3457173D1*
X4759108Y3439064D1*
X4765285Y3426850D1*
X4777358Y3414777D1*
X4789572Y3408600D1*
X4813858D1*
X4825932Y3414777D1*
X4838145Y3426850D1*
X4844182Y3439064D1*
X4883397Y3493673D2*
Y3408600D1*
Y3457173D2*
X4889574Y3475423D1*
X4901647Y3487637D1*
X4913861Y3493673D1*
X4932111D1*
X4971326Y3457173D2*
X5044186D1*
Y3469387D1*
X5038149Y3481600D1*
X5032113Y3487637D1*
X5019899Y3493673D1*
X5001649D1*
X4989576Y3487637D1*
X4977363Y3475423D1*
X4971326Y3457173D1*
Y3445100D1*
X4977363Y3426850D1*
X4989576Y3414777D1*
X5001649Y3408600D1*
X5019899D1*
X5032113Y3414777D1*
X5044186Y3426850D1*
X5131975Y3536210D2*
X5119902D1*
X5107688Y3530173D1*
X5101652Y3511923D1*
Y3408600D1*
X5083402Y3493673D2*
X5125938D1*
X3539013Y2961237D2*
X3666623D1*
Y3003773D1*
X3660446Y3022023D1*
X3648373Y3034237D1*
X3636160Y3040273D1*
X3618050Y3046310D1*
X3587587D1*
X3569337Y3040273D1*
X3557264Y3034237D1*
X3545050Y3022023D1*
X3539013Y3003773D1*
Y2961237D1*
X3581550Y3158385D2*
X3666623D1*
X3599800D2*
X3587587Y3146312D1*
X3581550Y3134098D1*
Y3115989D1*
X3587587Y3103775D1*
X3599800Y3091702D1*
X3618050Y3085525D1*
X3630123D1*
X3648373Y3091702D1*
X3660446Y3103775D1*
X3666623Y3115989D1*
Y3134098D1*
X3660446Y3146312D1*
X3648373Y3158385D1*
X3569337Y3288710D2*
X3557264Y3282674D1*
X3545050Y3270460D1*
X3539014Y3258387D1*
Y3234101D1*
X3545050Y3221887D1*
X3557264Y3209814D1*
X3569337Y3203637D1*
X3587587Y3197601D1*
X3618050D1*
X3636160Y3203637D1*
X3648373Y3209814D1*
X3660446Y3221887D1*
X3666623Y3234101D1*
Y3258387D1*
X3660446Y3270460D1*
X3648373Y3282674D1*
X3636160Y3288710D1*
X4066710Y3175987D2*
Y3048377D1*
X4109247D1*
X4127497Y3054554D1*
X4139710Y3066627D1*
X4145747Y3078840D1*
X4151783Y3096950D1*
Y3127414D1*
X4145747Y3145664D1*
X4139710Y3157737D1*
X4127497Y3169950D1*
X4109247Y3175987D1*
X4066710D1*
X4288285Y3048377D2*
X4239572Y3175987D1*
X4190999Y3048377D1*
X4209249Y3090914D2*
X4270035D1*
X4418611Y3145664D2*
X4412574Y3157737D1*
X4400361Y3169950D1*
X4388288Y3175987D1*
X4364001D1*
X4351788Y3169950D1*
X4339715Y3157737D1*
X4333538Y3145664D1*
X4327501Y3127414D1*
Y3096950D1*
X4333538Y3078840D1*
X4339715Y3066627D1*
X4351788Y3054554D1*
X4364001Y3048377D1*
X4388288D1*
X4400361Y3054554D1*
X4412574Y3066627D1*
X4418611Y3078840D1*
X4457826Y3151560D2*
X4470040Y3157737D1*
X4488290Y3175846D1*
Y3048377D1*
X1157804Y5403987D2*
Y5306840D1*
X1151767Y5288590D1*
X1145590Y5282554D1*
X1133517Y5276377D1*
X1121304D1*
X1109231Y5282554D1*
X1103194Y5288590D1*
X1097017Y5306840D1*
Y5318914D1*
X1197019Y5379560D2*
X1209233Y5385737D1*
X1227483Y5403846D1*
Y5276377D1*
X5826056Y5386430D2*
Y5289284D1*
X5820019Y5271034D1*
X5813842Y5264997D1*
X5801769Y5258820D1*
X5789556D1*
X5777482Y5264997D1*
X5771446Y5271034D1*
X5765269Y5289284D1*
Y5301357D1*
X5871448Y5355966D2*
Y5362003D1*
X5877485Y5374216D1*
X5883521Y5380253D1*
X5895735Y5386290D1*
X5920021D1*
X5932094Y5380253D1*
X5938131Y5374216D1*
X5944308Y5362003D1*
Y5349930D1*
X5938131Y5337716D1*
X5926058Y5319607D1*
X5865271Y5258820D1*
X5950344D1*
X4944265Y2327036D2*
Y2229889D1*
X4938229Y2211639D1*
X4932052Y2205603D1*
X4919979Y2199426D1*
X4907765D1*
X4895692Y2205603D1*
X4889655Y2211639D1*
X4883479Y2229889D1*
Y2241963D1*
X4995694Y2326895D2*
X5062377D1*
X5026017Y2278322D1*
X5044267D1*
X5056340Y2272286D1*
X5062377Y2266249D1*
X5068554Y2247999D1*
Y2235926D1*
X5062377Y2217676D1*
X5050304Y2205463D1*
X5032054Y2199426D1*
X5013804D1*
X4995694Y2205463D1*
X4989658Y2211639D1*
X4983481Y2223713D1*
X2448544Y3624938D2*
X2576154D1*
Y3697798D1*
Y3834159D2*
X2448544D1*
X2576154Y3785586D1*
X2448544Y3737013D1*
X2576154D1*
X2448685Y3885589D2*
Y3952271D1*
X2497258Y3915912D1*
Y3934162D1*
X2503294Y3946235D1*
X2509331Y3952271D1*
X2527581Y3958448D1*
X2539654D1*
X2557904Y3952271D1*
X2570117Y3940198D1*
X2576154Y3921948D1*
Y3903698D1*
X2570117Y3885588D1*
X2563940Y3879552D1*
X2551867Y3873375D1*
X2479008Y4003841D2*
X2472971D1*
X2460758Y4009877D1*
X2454721Y4015914D1*
X2448685Y4028127D1*
Y4052414D1*
X2454721Y4064487D1*
X2460758Y4070523D1*
X2472971Y4076700D1*
X2485044D1*
X2497258Y4070523D1*
X2515367Y4058450D1*
X2576154Y3997664D1*
Y4082737D1*
Y4182739D2*
X2448685D1*
X2533617Y4121953D1*
Y4213062D1*
X5157196Y5463663D2*
Y5336054D1*
X5230056D1*
X5269272Y5421127D2*
Y5336054D1*
Y5396840D2*
X5287522Y5415090D1*
X5299735Y5421127D1*
X5317845D1*
X5330058Y5415090D1*
X5336095Y5396840D1*
Y5336054D1*
Y5396840D2*
X5354345Y5415090D1*
X5366558Y5421127D1*
X5384668D1*
X5396881Y5415090D1*
X5403058Y5396840D1*
Y5336054D1*
X5533384Y5433340D2*
X5527347Y5445413D1*
X5515134Y5457627D1*
X5503060Y5463663D1*
X5478774D1*
X5466560Y5457627D1*
X5454487Y5445413D1*
X5448310Y5433340D1*
X5442274Y5415090D1*
Y5384627D1*
X5448310Y5366517D1*
X5454487Y5354304D1*
X5466560Y5342231D1*
X5478774Y5336054D1*
X5503060D1*
X5515134Y5342231D1*
X5527347Y5354304D1*
X5533384Y5366517D1*
X3258960Y4792300D2*
X3386570D1*
Y4865159D1*
X3301497Y4904375D2*
X3429106D1*
X3319747D2*
X3307674Y4916589D1*
X3301497Y4928662D1*
Y4946912D1*
X3307674Y4959125D1*
X3319747Y4971198D1*
X3337997Y4977375D1*
X3350210D1*
X3368320Y4971198D1*
X3380533Y4959125D1*
X3386570Y4946912D1*
Y4928662D1*
X3380533Y4916589D1*
X3368320Y4904375D1*
X3289283Y5107700D2*
X3277210Y5101664D1*
X3264997Y5089450D1*
X3258960Y5077377D1*
Y5053091D1*
X3264997Y5040877D1*
X3277210Y5028804D1*
X3289283Y5022627D1*
X3307533Y5016591D1*
X3337997D1*
X3356106Y5022627D1*
X3368320Y5028804D1*
X3380393Y5040877D1*
X3386570Y5053091D1*
Y5077377D1*
X3380393Y5089450D1*
X3368320Y5101664D1*
X3356106Y5107700D1*
X3089013Y4147791D2*
X3095050Y4135578D1*
X3107263Y4123505D1*
X3119336Y4117328D1*
X3137586Y4111291D1*
X3168050D1*
X3186160Y4117328D1*
X3198373Y4123505D1*
X3210446Y4135578D1*
X3216623Y4147791D1*
Y4172078D1*
X3210446Y4184151D1*
X3198373Y4196364D1*
X3186160Y4202401D1*
X3168050Y4208437D1*
X3137587D1*
X3119337Y4202401D1*
X3107264Y4196364D1*
X3095050Y4184151D1*
X3089013Y4172078D1*
Y4147791D1*
X3119337Y4338762D2*
X3107264Y4332726D1*
X3095050Y4320513D1*
X3089014Y4308439D1*
Y4284153D1*
X3095050Y4271939D1*
X3107264Y4259866D1*
X3119337Y4253689D1*
X3137587Y4247653D1*
X3168050D1*
X3186160Y4253689D1*
X3198373Y4259866D1*
X3210446Y4271939D1*
X3216623Y4284153D1*
Y4308439D1*
X3210446Y4320512D1*
X3198373Y4332726D1*
X3186160Y4338762D1*
X1509763Y6270970D2*
Y6325720D1*
X1503727Y6343830D1*
X1497550Y6350006D1*
X1485477Y6356043D1*
X1467227D1*
X1455154Y6350007D1*
X1448977Y6343830D1*
X1442940Y6325720D1*
Y6270970D1*
X1570550D1*
X1442940Y6395259D2*
X1448977Y6401295D1*
X1442940Y6407472D1*
X1436763Y6401295D1*
X1442940Y6395259D1*
X1485477Y6401295D2*
X1570550D1*
X1521977Y6446688D2*
Y6519547D1*
X1509763D1*
X1497550Y6513511D1*
X1491513Y6507474D1*
X1485477Y6495261D1*
Y6477011D1*
X1491513Y6464938D1*
X1503727Y6452724D1*
X1521977Y6446688D1*
X1534050D1*
X1552300Y6452724D1*
X1564373Y6464938D1*
X1570550Y6477011D1*
Y6495261D1*
X1564373Y6507474D1*
X1552300Y6519547D1*
X1485477Y6558763D2*
Y6625586D1*
X1570550Y6558763D1*
Y6625586D1*
X1485477Y6695125D2*
X1491513Y6683052D1*
X1503727Y6670838D1*
X1521977Y6664802D1*
X1534050D1*
X1552300Y6670838D1*
X1564373Y6683052D1*
X1570550Y6695125D1*
Y6713375D1*
X1564373Y6725588D1*
X1552300Y6737661D1*
X1534050Y6743838D1*
X1521977D1*
X1503727Y6737661D1*
X1491513Y6725588D1*
X1485477Y6713375D1*
Y6695125D1*
X1503727Y6849877D2*
X1491513Y6843840D1*
X1485477Y6825590D1*
Y6807340D1*
X1491513Y6789090D1*
X1503727Y6783054D1*
X1515800Y6789090D1*
X1521977Y6801304D1*
X1528013Y6831627D1*
X1534050Y6843840D1*
X1546263Y6849877D1*
X1552300D1*
X1564373Y6843840D1*
X1570550Y6825590D1*
Y6807340D1*
X1564373Y6789090D1*
X1552300Y6783054D1*
X4742120Y4410128D2*
Y4464738D1*
X4735943Y4482988D1*
X4729907Y4489165D1*
X4717834Y4495201D1*
X4705620D1*
X4693547Y4489165D1*
X4687370Y4482988D1*
X4681333Y4464738D1*
Y4410128D1*
X4808943D1*
X4742120Y4452665D2*
X4808943Y4495201D1*
X4705760Y4534417D2*
X4699584Y4546630D1*
X4681474Y4564880D1*
X4808943D1*
Y4664882D2*
X4681474D1*
X4766407Y4604096D1*
Y4695205D1*
X2549800Y2911587D2*
Y2966196D1*
X2543623Y2984446D1*
X2537587Y2990623D1*
X2525514Y2996660D1*
X2513300D1*
X2501227Y2990623D1*
X2495050Y2984446D1*
X2489013Y2966196D1*
Y2911587D1*
X2616623D1*
X2549800Y2954123D2*
X2616623Y2996659D1*
X2531550Y3108735D2*
X2616623D1*
X2549800D2*
X2537587Y3096662D1*
X2531550Y3084448D1*
Y3066339D1*
X2537587Y3054125D1*
X2549800Y3042052D1*
X2568050Y3035875D1*
X2580123D1*
X2598373Y3042052D1*
X2610446Y3054125D1*
X2616623Y3066338D1*
Y3084448D1*
X2610446Y3096662D1*
X2598373Y3108735D1*
X2513440Y3147950D2*
X2507264Y3160164D1*
X2489154Y3178414D1*
X2616623D1*
X2570141Y5239797D2*
X2624751D1*
X2643001Y5245974D1*
X2649178Y5252010D1*
X2655215Y5264083D1*
Y5276297D1*
X2649178Y5288370D1*
X2643001Y5294547D1*
X2624751Y5300583D1*
X2570141D1*
Y5172974D1*
X2612678Y5239797D2*
X2655215Y5172974D1*
X2767290Y5258047D2*
Y5172974D1*
Y5239797D2*
X2755217Y5252010D1*
X2743003Y5258047D1*
X2724894D1*
X2712680Y5252010D1*
X2700607Y5239797D1*
X2694430Y5221547D1*
Y5209474D1*
X2700607Y5191224D1*
X2712680Y5179151D1*
X2724894Y5172974D1*
X2743003D1*
X2755217Y5179151D1*
X2767290Y5191224D1*
X2812682Y5270120D2*
Y5276156D1*
X2818719Y5288370D1*
X2824755Y5294406D1*
X2836969Y5300443D1*
X2861255D1*
X2873329Y5294406D1*
X2879365Y5288370D1*
X2885542Y5276156D1*
Y5264083D1*
X2879365Y5251870D1*
X2867292Y5233760D1*
X2806505Y5172974D1*
X2891579D1*
X5309640Y3729819D2*
Y3784428D1*
X5303463Y3802678D1*
X5297427Y3808855D1*
X5285354Y3814892D1*
X5273140D1*
X5261067Y3808855D1*
X5254890Y3802678D1*
X5248853Y3784429D1*
Y3729819D1*
X5376463D1*
X5309640Y3772355D2*
X5376463Y3814892D1*
Y3951394D2*
X5248854Y3902681D1*
X5376463Y3854107D1*
X5333927Y3872357D2*
Y3933144D1*
X5279177Y4081719D2*
X5267104Y4075683D1*
X5254890Y4063469D1*
X5248854Y4051396D1*
Y4027110D1*
X5254890Y4014896D1*
X5267104Y4002823D1*
X5279177Y3996646D1*
X5297427Y3990610D1*
X5327890D1*
X5346000Y3996646D1*
X5358213Y4002823D1*
X5370286Y4014896D1*
X5376463Y4027110D1*
Y4051396D1*
X5370286Y4063469D1*
X5358213Y4075683D1*
X5346000Y4081719D1*
X5327890D1*
Y4051396D1*
X5291390Y4120935D2*
X5376463D1*
X5315677D2*
X5297427Y4139185D1*
X5291390Y4151398D1*
Y4169508D1*
X5297427Y4181721D1*
X5315677Y4187758D1*
X5376463D1*
X5315677D2*
X5297427Y4206008D1*
X5291390Y4218221D1*
Y4236331D1*
X5297427Y4248545D1*
X5315677Y4254721D1*
X5376463D1*
X3883020Y3556246D2*
Y3610855D1*
X3876843Y3629105D1*
X3870807Y3635282D1*
X3858734Y3641319D1*
X3846520D1*
X3834447Y3635282D1*
X3828270Y3629105D1*
X3822233Y3610855D1*
Y3556246D1*
X3949843D1*
X3883020Y3598782D2*
X3949843Y3641318D1*
Y3777821D2*
X3822234Y3729107D1*
X3949843Y3680534D1*
X3907307Y3698784D2*
Y3759571D1*
X3852557Y3908146D2*
X3840484Y3902109D1*
X3828270Y3889896D1*
X3822234Y3877823D1*
Y3853536D1*
X3828270Y3841323D1*
X3840484Y3829250D1*
X3852557Y3823073D1*
X3870807Y3817036D1*
X3901270D1*
X3919380Y3823073D1*
X3931593Y3829250D1*
X3943666Y3841323D1*
X3949843Y3853536D1*
Y3877823D1*
X3943666Y3889896D1*
X3931593Y3902109D1*
X3919380Y3908146D1*
X3901270D1*
Y3877823D1*
X3864770Y3947362D2*
X3992380Y3947361D1*
X3883020Y3947362D2*
X3870947Y3959575D1*
X3864770Y3971648D1*
Y3989898D1*
X3870947Y4002112D1*
X3883020Y4014185D1*
X3901270Y4020361D1*
X3913483D1*
X3931593Y4014185D1*
X3943807Y4002111D1*
X3949843Y3989898D1*
Y3971648D1*
X3943807Y3959575D1*
X3931593Y3947361D1*
X2899800Y2911587D2*
Y2966196D1*
X2893623Y2984446D1*
X2887587Y2990623D1*
X2875514Y2996660D1*
X2863300D1*
X2851227Y2990623D1*
X2845050Y2984446D1*
X2839013Y2966196D1*
Y2911587D1*
X2966623D1*
X2899800Y2954123D2*
X2966623Y2996659D1*
X2839014Y3035875D2*
X2966623D1*
X2899800D2*
X2887587Y3048089D1*
X2881550Y3060162D1*
Y3078412D1*
X2887587Y3090485D1*
X2899800Y3102698D1*
X2918050Y3108735D1*
X2930123D1*
X2948373Y3102698D1*
X2960446Y3090485D1*
X2966623Y3078412D1*
Y3060162D1*
X2960446Y3048089D1*
X2948373Y3035875D1*
X2863440Y3147950D2*
X2857264Y3160164D1*
X2839154Y3178414D1*
X2966623D1*
X2782111Y4649140D2*
X2836721D1*
X2854971Y4655317D1*
X2861148Y4661354D1*
X2867185Y4673427D1*
Y4685640D1*
X2861148Y4697713D1*
X2854971Y4703890D1*
X2836721Y4709927D1*
X2782111D1*
Y4582317D1*
X2824648Y4649140D2*
X2867185Y4582317D1*
X2906400Y4709927D2*
Y4582317D1*
Y4649140D2*
X2918614Y4661354D1*
X2930687Y4667390D1*
X2948937D1*
X2961010Y4661354D1*
X2973223Y4649140D1*
X2979260Y4630890D1*
Y4618817D1*
X2973223Y4600567D1*
X2961010Y4588494D1*
X2948937Y4582317D1*
X2930687D1*
X2918614Y4588494D1*
X2906400Y4600567D1*
X3024652Y4679463D2*
Y4685500D1*
X3030689Y4697713D1*
X3036725Y4703750D1*
X3048939Y4709786D1*
X3073225D1*
X3085299Y4703750D1*
X3091335Y4697713D1*
X3097512Y4685500D1*
Y4673427D1*
X3091335Y4661213D1*
X3079262Y4643104D1*
X3018475Y4582317D1*
X3103549D1*
X2204800Y2916516D2*
Y2971126D1*
X2198623Y2989376D1*
X2192587Y2995553D1*
X2180514Y3001589D1*
X2168300D1*
X2156227Y2995553D1*
X2150050Y2989376D1*
X2144013Y2971126D1*
Y2916516D1*
X2271623D1*
X2204800Y2959053D2*
X2271623Y3001589D1*
X2204800Y3113805D2*
X2192587Y3101591D1*
X2186550Y3089378D1*
Y3071268D1*
X2192587Y3059055D1*
X2204800Y3046982D1*
X2223050Y3040805D1*
X2235123D1*
X2253373Y3046982D1*
X2265446Y3059055D1*
X2271623Y3071268D1*
Y3089378D1*
X2265446Y3101591D1*
X2253373Y3113805D1*
X2168440Y3153021D2*
X2162264Y3165234D1*
X2144154Y3183484D1*
X2271623D1*
X2220071Y4717120D2*
X2274681D1*
X2292931Y4723297D1*
X2299108Y4729334D1*
X2305144Y4741407D1*
Y4753620D1*
X2299108Y4765693D1*
X2292931Y4771870D1*
X2274681Y4777907D1*
X2220071D1*
Y4650297D1*
X2262608Y4717120D2*
X2305144Y4650297D1*
X2417360Y4717120D2*
X2405147Y4729334D1*
X2392933Y4735370D1*
X2374823D1*
X2362610Y4729334D1*
X2350537Y4717120D1*
X2344360Y4698870D1*
Y4686797D1*
X2350537Y4668547D1*
X2362610Y4656474D1*
X2374823Y4650297D1*
X2392933D1*
X2405147Y4656474D1*
X2417360Y4668547D1*
X2462753Y4747443D2*
Y4753480D1*
X2468789Y4765693D1*
X2474826Y4771730D1*
X2487039Y4777766D1*
X2511326D1*
X2523399Y4771730D1*
X2529435Y4765693D1*
X2535612Y4753480D1*
Y4741407D1*
X2529435Y4729193D1*
X2517362Y4711084D1*
X2456576Y4650297D1*
X2541649D1*
X1849800Y2911587D2*
Y2966196D1*
X1843623Y2984446D1*
X1837587Y2990623D1*
X1825514Y2996660D1*
X1813300D1*
X1801227Y2990623D1*
X1795050Y2984446D1*
X1789013Y2966196D1*
Y2911587D1*
X1916623D1*
X1849800Y2954123D2*
X1916623Y2996659D1*
X1789014Y3108735D2*
X1916623D1*
X1849800D2*
X1837587Y3096662D1*
X1831550Y3084448D1*
Y3066198D1*
X1837587Y3054125D1*
X1849800Y3041912D1*
X1868050Y3035875D1*
X1880123D1*
X1898373Y3041912D1*
X1910446Y3054125D1*
X1916623Y3066198D1*
Y3084448D1*
X1910446Y3096662D1*
X1898373Y3108735D1*
X1813440Y3147950D2*
X1807264Y3160164D1*
X1789154Y3178414D1*
X1916623D1*
X1721870Y4888018D2*
Y4942628D1*
X1715693Y4960878D1*
X1709657Y4967055D1*
X1697584Y4973091D1*
X1685370D1*
X1673297Y4967055D1*
X1667120Y4960878D1*
X1661083Y4942628D1*
Y4888018D1*
X1788693D1*
X1721870Y4930555D2*
X1788693Y4973091D1*
X1661084Y5085167D2*
X1788693Y5085166D1*
X1721870Y5085167D2*
X1709657Y5073094D1*
X1703620Y5060880D1*
Y5042630D1*
X1709657Y5030557D1*
X1721870Y5018344D1*
X1740120Y5012307D1*
X1752193D1*
X1770443Y5018343D1*
X1782516Y5030557D1*
X1788693Y5042630D1*
Y5060880D1*
X1782516Y5073093D1*
X1770443Y5085167D1*
X1691547Y5130559D2*
X1685510D1*
X1673297Y5136596D1*
X1667260Y5142632D1*
X1661224Y5154846D1*
Y5179132D1*
X1667260Y5191205D1*
X1673297Y5197242D1*
X1685510Y5203419D1*
X1697584D1*
X1709797Y5197242D1*
X1727907Y5185169D1*
X1788693Y5124382D1*
Y5209455D1*
X5563091Y1961842D2*
Y2016451D1*
X5556914Y2034701D1*
X5550878Y2040878D1*
X5538804Y2046915D1*
X5526591D1*
X5514518Y2040878D1*
X5508341Y2034701D1*
X5502304Y2016451D1*
Y1961842D1*
X5629914D1*
X5563091Y2004378D2*
X5629914Y2046915D1*
X5502304Y2158990D2*
X5629914D1*
X5563091D2*
X5550878Y2146917D1*
X5544841Y2134704D1*
Y2116454D1*
X5550878Y2104380D1*
X5563091Y2092167D1*
X5581341Y2086130D1*
X5593414D1*
X5611664Y2092167D1*
X5623737Y2104380D1*
X5629914Y2116453D1*
Y2134703D1*
X5623737Y2146917D1*
X5611664Y2158990D1*
X5544841Y2198206D2*
X5629914D1*
X5581341D2*
X5563091Y2204383D1*
X5550878Y2216456D1*
X5544841Y2228669D1*
Y2246919D1*
X5397030Y2980499D2*
Y3035108D1*
X5390853Y3053358D1*
X5384817Y3059535D1*
X5372744Y3065572D1*
X5360530D1*
X5348457Y3059535D1*
X5342280Y3053358D1*
X5336243Y3035109D1*
Y2980499D1*
X5463853D1*
X5397030Y3023035D2*
X5463853Y3065572D1*
X5336244Y3177647D2*
X5463853D1*
X5397030D2*
X5384817Y3165574D1*
X5378780Y3153361D1*
Y3135111D1*
X5384817Y3123037D1*
X5397030Y3110824D1*
X5415280Y3104787D1*
X5427353D1*
X5445603Y3110824D1*
X5457676Y3123037D1*
X5463853Y3135110D1*
Y3153360D1*
X5457676Y3165574D1*
X5445603Y3177647D1*
X5378780Y3216863D2*
X5463853Y3253363D1*
X5378780Y3289722D1*
X5360670Y3328938D2*
X5354494Y3341151D1*
X5336384Y3359401D1*
X5463853D1*
X5007550Y2565447D2*
X5062160D1*
X5080410Y2571624D1*
X5086587Y2577660D1*
X5092624Y2589733D1*
Y2601947D1*
X5086587Y2614020D1*
X5080410Y2620197D1*
X5062160Y2626233D1*
X5007550D1*
Y2498624D1*
X5050087Y2565447D2*
X5092624Y2498624D1*
X5204699Y2626233D2*
Y2498624D1*
Y2565447D2*
X5192626Y2577660D1*
X5180412Y2583697D1*
X5162162D1*
X5150089Y2577660D1*
X5137876Y2565447D1*
X5131839Y2547197D1*
Y2535124D1*
X5137876Y2516874D1*
X5150089Y2504801D1*
X5162162Y2498624D1*
X5180412D1*
X5192626Y2504801D1*
X5204699Y2516874D1*
X5243915Y2583697D2*
X5280415Y2498624D1*
X5316774Y2583697D1*
X5362167Y2595770D2*
Y2601806D1*
X5368203Y2614020D1*
X5374240Y2620056D1*
X5386453Y2626093D1*
X5410740D1*
X5422813Y2620056D1*
X5428849Y2614020D1*
X5435026Y2601806D1*
Y2589733D1*
X5428849Y2577520D1*
X5416776Y2559410D1*
X5355990Y2498624D1*
X5441063D1*
X2754603Y1567482D2*
Y1622091D1*
X2748426Y1640341D1*
X2742390Y1646518D1*
X2730317Y1652555D1*
X2718103D1*
X2706030Y1646518D1*
X2699853Y1640341D1*
X2693817Y1622091D1*
Y1567482D1*
X2821426D1*
X2754603Y1610018D2*
X2821426Y1652555D1*
X2693817Y1740343D2*
Y1728270D1*
X2699853Y1716057D1*
X2718103Y1710020D1*
X2821426D1*
X2736353Y1691770D2*
Y1734307D1*
Y1852419D2*
X2821426D1*
X2754603D2*
X2742390Y1840346D1*
X2736353Y1828132D1*
Y1810022D1*
X2742390Y1797809D1*
X2754603Y1785736D1*
X2772853Y1779559D1*
X2784926D1*
X2803176Y1785736D1*
X2815249Y1797809D1*
X2821426Y1810022D1*
Y1828132D1*
X2815249Y1840346D1*
X2803176Y1852419D1*
X2899800Y2302532D2*
Y2357141D1*
X2893623Y2375391D1*
X2887587Y2381568D1*
X2875514Y2387605D1*
X2863300D1*
X2851227Y2381568D1*
X2845050Y2375391D1*
X2839013Y2357141D1*
Y2302532D1*
X2966623D1*
X2899800Y2345068D2*
X2966623Y2387605D1*
X2839014Y2475393D2*
Y2463320D1*
X2845050Y2451107D1*
X2863300Y2445070D1*
X2966623D1*
X2881550Y2426820D2*
Y2469357D1*
X2839014Y2514609D2*
X2966623D1*
X2899800D2*
X2887587Y2526822D1*
X2881550Y2538896D1*
Y2557146D1*
X2887587Y2569219D1*
X2899800Y2581432D1*
X2918050Y2587469D1*
X2930123D1*
X2948373Y2581432D1*
X2960446Y2569219D1*
X2966623Y2557146D1*
Y2538896D1*
X2960446Y2526822D1*
X2948373Y2514609D1*
X2021385Y1560877D2*
X2075994D1*
X2094244Y1567054D1*
X2100421Y1573090D1*
X2106458Y1585163D1*
Y1597377D1*
X2100421Y1609450D1*
X2094244Y1615627D1*
X2075994Y1621663D1*
X2021385D1*
Y1494054D1*
X2063921Y1560877D2*
X2106458Y1494054D1*
X2194246Y1621663D2*
X2182173D1*
X2169960Y1615627D1*
X2163923Y1597377D1*
Y1494054D1*
X2145673Y1579127D2*
X2188210D1*
X2306462Y1560877D2*
X2294249Y1573090D1*
X2282035Y1579127D1*
X2263926D1*
X2251712Y1573090D1*
X2239639Y1560877D1*
X2233462Y1542627D1*
Y1530554D1*
X2239639Y1512304D1*
X2251712Y1500231D1*
X2263926Y1494054D1*
X2282035D1*
X2294249Y1500231D1*
X2306462Y1512304D1*
X1585913Y2336292D2*
Y2390901D1*
X1579736Y2409151D1*
X1573700Y2415328D1*
X1561627Y2421365D1*
X1549413D1*
X1537340Y2415328D1*
X1531163Y2409151D1*
X1525127Y2390901D1*
Y2336292D1*
X1652736D1*
X1585913Y2378828D2*
X1652736Y2421365D1*
X1525127Y2509153D2*
Y2497080D1*
X1531163Y2484867D1*
X1549413Y2478830D1*
X1652736D1*
X1567663Y2460580D2*
Y2503117D1*
X1525127Y2621229D2*
X1652736D1*
X1585913D2*
X1573700Y2609156D1*
X1567663Y2596942D1*
Y2578692D1*
X1573700Y2566619D1*
X1585913Y2554406D1*
X1604163Y2548369D1*
X1616236D1*
X1634486Y2554406D1*
X1646559Y2566619D1*
X1652736Y2578692D1*
Y2596942D1*
X1646559Y2609156D1*
X1634486Y2621229D1*
X5489100Y4579927D2*
Y4634537D1*
X5482923Y4652787D1*
X5476887Y4658964D1*
X5464814Y4665000D1*
X5452600D1*
X5440527Y4658964D1*
X5434350Y4652787D1*
X5428313Y4634537D1*
Y4579927D1*
X5555923D1*
X5489100Y4622464D2*
X5555923Y4665000D1*
X5428314Y4704216D2*
X5555923D1*
Y4777075D1*
Y4913578D2*
X5428314Y4864864D1*
X5555923Y4816291D1*
X5513387Y4834541D2*
Y4895328D1*
X5470850Y4952793D2*
X5555923D1*
X5495137D2*
X5476887Y4971043D1*
X5470850Y4983257D1*
Y5001366D1*
X5476887Y5013580D1*
X5495137Y5019616D1*
X5555923D1*
X5495137D2*
X5476887Y5037866D1*
X5470850Y5050080D1*
Y5068189D1*
X5476887Y5080403D1*
X5495137Y5086580D1*
X5555923D1*
X3668013Y4336804D2*
Y4391413D1*
X3661836Y4409663D1*
X3655800Y4415840D1*
X3643727Y4421877D1*
X3631513D1*
X3619440Y4415840D1*
X3613263Y4409663D1*
X3607227Y4391413D1*
Y4336804D1*
X3734836D1*
X3668013Y4379340D2*
X3734836Y4421877D1*
X3607227Y4461093D2*
X3734836Y4461092D1*
Y4533952D1*
Y4670454D2*
X3607227Y4621741D1*
X3734836Y4573168D1*
X3692300Y4591418D2*
Y4652204D1*
X3649763Y4709670D2*
X3777373D1*
X3668013D2*
X3655940Y4721883D1*
X3649763Y4733956D1*
Y4752206D1*
X3655940Y4764420D1*
X3668013Y4776493D1*
X3686263Y4782670D1*
X3698477D1*
X3716586Y4776493D1*
X3728800Y4764420D1*
X3734836Y4752206D1*
Y4733956D1*
X3728800Y4721883D1*
X3716586Y4709670D1*
X4507604Y5405328D2*
Y5314219D1*
X4513640Y5295969D1*
X4525854Y5283896D1*
X4544104Y5277719D1*
X4556177D1*
X4574427Y5283896D1*
X4586640Y5295969D1*
X4592677Y5314219D1*
Y5405328D1*
X4631893Y5380901D2*
X4644106Y5387078D1*
X4662356Y5405188D1*
Y5277719D1*
X3860550Y5640987D2*
X3909123Y5513377D1*
X3957696Y5640987D1*
X3996912D2*
X4002948Y5634950D1*
X4009125Y5640987D1*
X4002948Y5647164D1*
X3996912Y5640987D1*
X4002948Y5598450D2*
Y5513377D1*
X4139450Y5610664D2*
X4133414Y5622737D1*
X4121200Y5634950D1*
X4109127Y5640987D1*
X4084841D1*
X4072627Y5634950D1*
X4060554Y5622737D1*
X4054377Y5610664D1*
X4048341Y5592414D1*
Y5561950D1*
X4054377Y5543840D1*
X4060554Y5531627D1*
X4072627Y5519554D1*
X4084841Y5513377D1*
X4109127D1*
X4121200Y5519554D1*
X4133414Y5531627D1*
X4139450Y5543840D1*
X4850435Y5680660D2*
X4899008Y5553050D1*
X4947581Y5680660D1*
X5017120Y5638123D2*
X5005047Y5632087D1*
X4992833Y5619873D1*
X4986797Y5601623D1*
Y5589550D1*
X4992833Y5571300D1*
X5005047Y5559227D1*
X5017120Y5553050D1*
X5035370D1*
X5047583Y5559227D1*
X5059656Y5571300D1*
X5065833Y5589550D1*
Y5601623D1*
X5059656Y5619873D1*
X5047583Y5632087D1*
X5035370Y5638123D1*
X5017120D1*
X5196159Y5650337D2*
X5190122Y5662410D1*
X5177909Y5674623D1*
X5165835Y5680660D1*
X5141549D1*
X5129335Y5674623D1*
X5117262Y5662410D1*
X5111085Y5650337D1*
X5105049Y5632087D1*
Y5601623D1*
X5111085Y5583514D1*
X5117262Y5571300D1*
X5129335Y5559227D1*
X5141549Y5553050D1*
X5165835D1*
X5177909Y5559227D1*
X5190122Y5571300D1*
X5196159Y5583514D1*
X1481307Y4776602D2*
X1475270Y4788675D1*
X1463057Y4800888D1*
X1450984Y4806925D1*
X1426697D1*
X1414484Y4800888D1*
X1402411Y4788675D1*
X1396234Y4776602D1*
X1390197Y4758352D1*
Y4727888D1*
X1396234Y4709779D1*
X1402411Y4697565D1*
X1414484Y4685492D1*
X1426697Y4679315D1*
X1450984D1*
X1463057Y4685492D1*
X1475270Y4697565D1*
X1481307Y4709779D1*
X1409804Y4556925D2*
Y4429315D1*
X1464554D1*
X1482804Y4435492D1*
X1488840Y4441529D1*
X1494877Y4453602D1*
Y4471852D1*
X1488840Y4484065D1*
X1482804Y4490102D1*
X1464554Y4496138D1*
X1482804Y4502315D1*
X1488840Y4508352D1*
X1494877Y4520425D1*
Y4532638D1*
X1488840Y4544711D1*
X1482804Y4550888D1*
X1464554Y4556925D1*
X1409804D1*
Y4496138D2*
X1464554D1*
X1487484Y4148922D2*
X1438770Y4276532D1*
X1390197Y4148922D1*
X1408447Y4191459D2*
X1469234D1*
Y2776532D2*
X1390197D1*
Y2648922D1*
Y2715745D2*
X1438770D1*
X1563059Y2767336D2*
Y2657977D1*
X1508449Y2712586D2*
X1617809D1*
X1469234Y3026532D2*
X1390197D1*
Y2898922D1*
Y2965745D2*
X1438770D1*
X1508449Y2962657D2*
X1578642D1*
X1432734Y3276532D2*
Y3148922D1*
X1390197Y3276532D2*
X1475270D1*
X1569096Y3267336D2*
Y3157977D1*
X1514486Y3212586D2*
X1623846D1*
X1432734Y3526532D2*
Y3398922D1*
X1390197Y3526532D2*
X1475270D1*
X1514486Y3462657D2*
X1584678D1*
X5450026Y4039757D2*
D55*
X5488885Y3937669D1*
X5527743Y4039757D1*
X5559116Y4005727D2*
Y3937669D1*
Y3976527D2*
X5564057Y3991127D1*
X5573716Y4000898D1*
X5583487Y4005727D1*
X5598087D1*
X5629459Y3976527D2*
X5687747D1*
Y3986298D1*
X5682918Y3996069D1*
X5678088Y4000898D1*
X5668318Y4005727D1*
X5653718D1*
X5644059Y4000898D1*
X5634288Y3991127D1*
X5629459Y3976527D1*
Y3966869D1*
X5634288Y3952269D1*
X5644059Y3942610D1*
X5653718Y3937669D1*
X5668318D1*
X5678088Y3942610D1*
X5687747Y3952269D1*
X5757978Y4039757D2*
X5748320D1*
X5738549Y4034927D1*
X5733720Y4020327D1*
Y3937669D1*
X5719120Y4005727D2*
X5753149D1*
X5522914Y3765498D2*
X5518085Y3775157D1*
X5508314Y3784927D1*
X5498656Y3789757D1*
X5479226D1*
X5469456Y3784927D1*
X5459797Y3775157D1*
X5454856Y3765498D1*
X5450026Y3750898D1*
Y3726527D1*
X5454856Y3712040D1*
X5459797Y3702269D1*
X5469456Y3692610D1*
X5479226Y3687669D1*
X5498656D1*
X5508314Y3692610D1*
X5518085Y3702269D1*
X5522914Y3712040D1*
Y3726527D1*
X5498656D1*
X5622345Y3789757D2*
Y3687669D1*
X5554287Y3789757D1*
Y3687669D1*
X5653718Y3789757D2*
Y3687669D1*
X5687747D1*
X5702347Y3692610D1*
X5712118Y3702269D1*
X5716947Y3712040D1*
X5721776Y3726527D1*
Y3750898D1*
X5716947Y3765498D1*
X5712118Y3775157D1*
X5702347Y3784927D1*
X5687747Y3789757D1*
X5653718D1*
X5608314Y3539644D2*
X5559797D1*
X5554968Y3495957D1*
X5559797Y3500786D1*
X5574397Y3505727D1*
X5588885D1*
X5603485Y3500786D1*
X5613256Y3491127D1*
X5618085Y3476527D1*
Y3466869D1*
X5613256Y3452269D1*
X5603485Y3442498D1*
X5588885Y3437669D1*
X5574397D1*
X5559797Y3442498D1*
X5554968Y3447440D1*
X5550026Y3457098D1*
X5649457Y3539757D2*
X5688316Y3437669D1*
X5727174Y3539757D1*
X5600026Y3270215D2*
X5609797Y3275157D1*
X5624397Y3289644D1*
Y3187669D1*
X5660711Y3265386D2*
Y3270215D1*
X5665541Y3279986D1*
X5670370Y3284815D1*
X5680141Y3289644D1*
X5699570D1*
X5709228Y3284815D1*
X5714057Y3279986D1*
X5718999Y3270215D1*
Y3260557D1*
X5714057Y3250786D1*
X5704399Y3236298D1*
X5655770Y3187669D1*
X5723828D1*
X5755201Y3289757D2*
X5794059Y3187669D1*
X5832918Y3289757D1*
X5618085Y2725157D2*
X5608426Y2734927D1*
X5593826Y2739757D1*
X5574397D1*
X5559797Y2734927D1*
X5550026Y2725157D1*
Y2715498D1*
X5554968Y2705727D1*
X5559797Y2700898D1*
X5569456Y2696069D1*
X5598656Y2686298D1*
X5608426Y2681469D1*
X5613256Y2676527D1*
X5618085Y2666869D1*
Y2652269D1*
X5608426Y2642610D1*
X5593826Y2637669D1*
X5574397D1*
X5559797Y2642610D1*
X5550026Y2652269D1*
X5722345Y2715498D2*
X5717516Y2725157D1*
X5707745Y2734927D1*
X5698087Y2739757D1*
X5678657D1*
X5668887Y2734927D1*
X5659228Y2725157D1*
X5654287Y2715498D1*
X5649457Y2700898D1*
Y2676527D1*
X5654287Y2662040D1*
X5659228Y2652269D1*
X5668887Y2642610D1*
X5678657Y2637669D1*
X5698087D1*
X5707745Y2642610D1*
X5717516Y2652269D1*
X5722345Y2662040D1*
X5753718Y2739757D2*
Y2637669D1*
X5812005D1*
X4169065Y1538373D2*
D56*
Y1385242D1*
X4220109D1*
X4242009Y1392654D1*
X4256665Y1407142D1*
X4263909Y1421798D1*
X4271152Y1443529D1*
Y1480086D1*
X4263909Y1501986D1*
X4256665Y1516473D1*
X4242009Y1531129D1*
X4220109Y1538373D1*
X4169065D1*
X4077786Y1800586D2*
X4070542Y1815073D1*
X4055886Y1829729D1*
X4041399Y1836973D1*
X4012255D1*
X3997599Y1829729D1*
X3983111Y1815073D1*
X3975699Y1800586D1*
X3968455Y1778686D1*
Y1742129D1*
X3975699Y1720398D1*
X3983111Y1705742D1*
X3997599Y1691254D1*
X4012255Y1683842D1*
X4041399D1*
X4055886Y1691254D1*
X4070542Y1705742D1*
X4077786Y1720398D1*
X3811939Y2006582D2*
X3753482Y2159713D1*
X3695195Y2006582D1*
X3717095Y2057626D2*
X3790039D1*
X3500820Y5594307D2*
D55*
X3539678Y5492219D1*
X3578537Y5594307D1*
X3653597Y5586950D2*
Y5499463D1*
X3609909Y5543150D2*
X3697397D1*
X3698878Y2706563D2*
D56*
Y2553432D1*
X3764578D1*
X3786478Y2560844D1*
X3793722Y2568088D1*
X3800966Y2582576D1*
Y2604476D1*
X3793722Y2619132D1*
X3786478Y2626376D1*
X3764578Y2633619D1*
X3786478Y2641032D1*
X3793722Y2648276D1*
X3800966Y2662763D1*
Y2677419D1*
X3793722Y2691907D1*
X3786478Y2699319D1*
X3764578Y2706563D1*
X3698878D1*
Y2633619D2*
X3764578D1*
X5409176Y4501717D2*
D55*
X5448035Y4399629D1*
X5486893Y4501717D1*
X5518266Y4450617D2*
X5574420D1*
X1641594Y7046472D2*
D54*
X1635557Y7058545D1*
X1623344Y7070758D1*
X1611270Y7076795D1*
X1586984D1*
X1574770Y7070758D1*
X1562697Y7058545D1*
X1556520Y7046472D1*
X1550484Y7028222D1*
Y6997758D1*
X1556520Y6979649D1*
X1562697Y6967435D1*
X1574770Y6955362D1*
X1586984Y6949185D1*
X1611270D1*
X1623344Y6955362D1*
X1635557Y6967435D1*
X1641594Y6979649D1*
Y6997758D1*
X1611270D1*
X1765882Y7076795D2*
Y6949185D1*
X1680809Y7076795D1*
Y6949185D1*
X1805098Y7076795D2*
Y6949185D1*
X1847635D1*
X1865885Y6955362D1*
X1878098Y6967435D1*
X1884135Y6979649D1*
X1890171Y6997758D1*
Y7028222D1*
X1884135Y7046472D1*
X1878098Y7058545D1*
X1865885Y7070758D1*
X1847635Y7076795D1*
X1805098D1*
X1778950Y6709155D2*
X1730237Y6836765D1*
X1681664Y6709155D1*
X1699914Y6751692D2*
X1760700D1*
X1688437Y6542305D2*
Y6414695D1*
X1743187D1*
X1761437Y6420872D1*
X1767474Y6426909D1*
X1773510Y6438982D1*
Y6457232D1*
X1767474Y6469445D1*
X1761437Y6475482D1*
X1743187Y6481518D1*
X1761437Y6487695D1*
X1767474Y6493732D1*
X1773510Y6505805D1*
Y6518018D1*
X1767474Y6530091D1*
X1761437Y6536268D1*
X1743187Y6542305D1*
X1688437D1*
Y6481518D2*
X1743187D1*
X1809647Y6240849D2*
X1803610Y6252922D1*
X1791397Y6265135D1*
X1779324Y6271172D1*
X1755037D1*
X1742824Y6265135D1*
X1730751Y6252922D1*
X1724574Y6240849D1*
X1718537Y6222599D1*
Y6192135D1*
X1724574Y6174025D1*
X1730751Y6161812D1*
X1742824Y6149739D1*
X1755037Y6143562D1*
X1779324D1*
X1791397Y6149739D1*
X1803610Y6161812D1*
X1809647Y6174025D1*
X1701987Y6031142D2*
Y5903532D1*
X1744524D1*
X1762774Y5909709D1*
X1774987Y5921782D1*
X1781024Y5933995D1*
X1787060Y5952105D1*
Y5982569D1*
X1781024Y6000819D1*
X1774987Y6012892D1*
X1762774Y6025105D1*
X1744524Y6031142D1*
X1701987D1*
X5450026Y4289757D2*
D55*
Y4187669D1*
X5508314D1*
X5597974Y4289757D2*
Y4187669D1*
Y4241127D2*
X5588316Y4250898D1*
X5578545Y4255727D1*
X5563945D1*
X5554287Y4250898D1*
X5544516Y4241127D1*
X5539687Y4226527D1*
Y4216869D1*
X5544516Y4202269D1*
X5554287Y4192610D1*
X5563945Y4187669D1*
X5578545D1*
X5588316Y4192610D1*
X5597974Y4202269D1*
X5687635Y4255727D2*
Y4187669D1*
Y4241127D2*
X5677976Y4250898D1*
X5668205Y4255727D1*
X5653718D1*
X5643947Y4250898D1*
X5634288Y4241127D1*
X5629347Y4226527D1*
Y4216869D1*
X5634288Y4202269D1*
X5643947Y4192610D1*
X5653718Y4187669D1*
X5668205D1*
X5677976Y4192610D1*
X5687635Y4202269D1*
X5777407Y4241127D2*
X5767636Y4250898D1*
X5757866Y4255727D1*
X5743378D1*
X5733607Y4250898D1*
X5723949Y4241127D1*
X5719007Y4226527D1*
Y4216869D1*
X5723949Y4202269D1*
X5733607Y4192610D1*
X5743378Y4187669D1*
X5757866D1*
X5767636Y4192610D1*
X5777407Y4202269D1*
X5618085Y2975157D2*
X5608426Y2984927D1*
X5593826Y2989757D1*
X5574397D1*
X5559797Y2984927D1*
X5550026Y2975157D1*
Y2965498D1*
X5554968Y2955727D1*
X5559797Y2950898D1*
X5569456Y2946069D1*
X5598656Y2936298D1*
X5608426Y2931469D1*
X5613256Y2926527D1*
X5618085Y2916869D1*
Y2902269D1*
X5608426Y2892610D1*
X5593826Y2887669D1*
X5574397D1*
X5559797Y2892610D1*
X5550026Y2902269D1*
X5649457Y2989757D2*
Y2887669D1*
X5683487D1*
X5698087Y2892610D1*
X5707857Y2902269D1*
X5712687Y2912040D1*
X5717516Y2926527D1*
Y2950898D1*
X5712687Y2965498D1*
X5707857Y2975157D1*
X5698087Y2984927D1*
X5683487Y2989757D1*
X5649457D1*
X5826718Y2887669D2*
X5787747Y2989757D1*
X5748888Y2887669D1*
X5763488Y2921698D2*
X5812118D1*
M02*
