M48
METRIC,0000.00
T01C0.486
T02C1.0
T03C1.1
%
T01
X+004350Y+005800
X+004350Y+006000
X+004700Y+005750
X+005361Y+005623
X+005500Y+005250
X+004373Y+005090
X+004350Y+004650
X+004132Y+004654
X+004200Y+004050
X+004450Y+004050
X+004300Y+003709
X+004313Y+003455
X+004547Y+003360
X+004500Y+003168
X+004011Y+003652
X+003677Y+003665
X+003627Y+003877
X+003046Y+003544
X+002805Y+003877
X+002602Y+003602
X+002602Y+003405
X+002091Y+003208
X+001828Y+003060
X+001695Y+003181
X+001232Y+003375
X+001238Y+002731
X+001658Y+002473
X+001551Y+002346
X+001117Y+001965
X+002091Y+001965
X+002212Y+002092
X+002482Y+001990
X+002544Y+001838
X+002665Y+001717
X+002786Y+001990
X+002544Y+002219
X+002482Y+002473
X+002332Y+002600
X+002333Y+002923
X+002805Y+002892
X+003677Y+003060
X+003201Y+001965
X+004193Y+001506
X+002333Y+004110
X+002212Y+004656
X+002260Y+005103
X+001750Y+005150
X+001600Y+005000
X+001450Y+004750
X+001750Y+004450
X+001695Y+004300
X+001232Y+004110
X+003050Y+004550
X+002968Y+005454
X+003100Y+005700
X+002900Y+006000
X+002600Y+006100
X+003650Y+005850
X+003300Y+007284
X+003677Y+007600
X+003300Y+008000
X+003390Y+008466
X+003034Y+008800
X+003200Y+009550
X+004100Y+009000
X+003950Y+008750
X+004150Y+008000
X+004550Y+008150
X+004950Y+008100
X+004750Y+007600
X+005350Y+007600
X+005600Y+007950
T02
X+001250Y+004400
X+001600Y+004700
X+001450Y+005100
X+001750Y+005550
T03
X+001232Y+004607
X+001232Y+004861
X+001232Y+005115
X+001232Y+005369
X+001232Y+005623
X+001232Y+005877
X+001232Y+006131
X+001232Y+006385
X+001232Y+006639
X+001232Y+006893
X+005968Y+006893
X+005968Y+006639
X+005968Y+006385
X+005968Y+006131
X+005968Y+005877
X+005968Y+005623
X+005968Y+005369
X+005968Y+005115
X+005968Y+004861
X+005968Y+004607
T00
M30
