G04 DipTrace 3.0.0.2*
G04 TopMask.gbr*
%MOIN*%
G04 #@! TF.FileFunction,Soldermask,Top*
G04 #@! TF.Part,Single*
%ADD24R,0.07874X0.023622*%
%ADD32R,0.086614X0.031496*%
%ADD33R,0.049213X0.033465*%
%ADD35R,0.059055X0.066929*%
%ADD37C,0.066929*%
%ADD39C,0.074803*%
%ADD41R,0.074803X0.074803*%
%ADD44R,0.066929X0.059055*%
%FSLAX26Y26*%
G04*
G70*
G90*
G75*
G01*
G04 TopMask*
%LPD*%
D44*
X1633858Y2992126D3*
Y2917323D3*
X1299213Y2933071D3*
Y3007874D3*
X1948819Y3720472D3*
Y3795276D3*
X2244094Y3720472D3*
Y3795276D3*
X2125984Y826772D3*
Y901575D3*
D24*
X1299213Y2401575D3*
Y2375984D3*
Y2350394D3*
Y2324803D3*
Y2299213D3*
Y2273622D3*
Y2248031D3*
Y2222441D3*
X1527567D3*
X1527559Y2248031D3*
Y2273622D3*
Y2299213D3*
Y2324803D3*
Y2350394D3*
Y2375984D3*
Y2401575D3*
D41*
X485039Y1813780D3*
D39*
Y1913780D3*
Y2013780D3*
Y2113780D3*
Y2213780D3*
Y2313780D3*
Y2413780D3*
Y2513780D3*
Y2613780D3*
Y2713780D3*
D41*
X2349606D3*
D39*
Y2613780D3*
Y2513780D3*
Y2413780D3*
Y2313780D3*
Y2213780D3*
Y2113780D3*
Y2013780D3*
Y1913780D3*
Y1813780D3*
D37*
X492126Y1732283D3*
X688976Y2185039D3*
X629921Y1850394D3*
X570866Y2007874D3*
D35*
X1259843Y3464567D3*
X1334646D3*
X1259843Y3228346D3*
X1334646D3*
D44*
X1614173Y3641732D3*
Y3716535D3*
D35*
X1633858Y3326772D3*
X1708661D3*
X2106299Y3129921D3*
X2031496D3*
X2066929Y3326772D3*
X1992126D3*
X807087Y3700787D3*
X881890D3*
X964567Y3484252D3*
X889764D3*
X964567Y3267717D3*
X889764D3*
X964567Y3031496D3*
X889764D3*
X590551Y3484252D3*
X515748D3*
X627953Y3147638D3*
X553150D3*
D44*
X1771654Y826772D3*
Y901575D3*
X2244094Y1338583D3*
Y1413386D3*
D33*
X767717Y1377953D3*
Y1303150D3*
X858268Y1340551D3*
X767717Y1692913D3*
Y1618110D3*
X858268Y1655512D3*
X1102362Y1377953D3*
Y1303150D3*
X1192913Y1340551D3*
X1062992Y1692913D3*
Y1618110D3*
X1153543Y1655512D3*
X1476378Y1673228D3*
Y1598425D3*
X1566929Y1635827D3*
X1850394Y1673228D3*
Y1598425D3*
X1940945Y1635827D3*
X1850394Y1397638D3*
Y1322835D3*
X1940945Y1360236D3*
X1496063Y1397638D3*
Y1322835D3*
X1586614Y1360236D3*
D32*
X531496Y1023622D3*
Y973622D3*
Y923622D3*
Y873622D3*
Y823622D3*
Y773622D3*
Y723622D3*
X744094D3*
Y773622D3*
Y823622D3*
Y873622D3*
Y923622D3*
Y973622D3*
Y1023622D3*
X1181102D3*
Y973622D3*
Y923622D3*
Y873622D3*
Y823622D3*
Y773622D3*
Y723622D3*
X1393701D3*
Y773622D3*
Y823622D3*
Y873622D3*
Y923622D3*
Y973622D3*
Y1023622D3*
M02*
