G04 DipTrace 3.0.0.2*
G04 Bottom.gbr*
%MOMM*%
G04 #@! TF.FileFunction,Copper,L2,Bot*
G04 #@! TF.Part,Single*
G04 #@! TA.AperFunction,Conductor*
%ADD14C,0.33*%
G04 #@! TA.AperFunction,CopperBalancing*
%ADD15C,0.635*%
G04 #@! TA.AperFunction,ComponentPad*
%ADD19R,1.7X1.7*%
%ADD20C,1.7*%
%ADD21C,1.5*%
G04 #@! TA.AperFunction,ViaPad*
%ADD25C,0.5*%
%FSLAX35Y35*%
G04*
G71*
G90*
G75*
G01*
G04 Bottom*
%LPD*%
X5081677Y4147260D2*
D14*
X5132153Y4096783D1*
X5464557D1*
X2480170Y5286637D2*
X2506500Y5260307D1*
X2739110D1*
X3117123Y4882293D1*
Y4820920D1*
X3936047Y5404257D2*
X3926393Y5394603D1*
X3612587D1*
X3117123Y4899140D1*
Y4820920D1*
X5321617Y5114593D2*
X5292650Y5143560D1*
X4187090D1*
X3936047Y5394603D1*
Y5404257D1*
X5464557Y4096783D2*
X5485697D1*
X5425953Y4156527D1*
Y5040007D1*
X5351367Y5114593D1*
X5321617D1*
X2232727Y4482553D2*
X2259280Y4509107D1*
Y5162300D1*
X2383617Y5286637D1*
X2480170D1*
X4876890Y3334083D2*
X4863723Y3320917D1*
X4569667D1*
X4357880Y6492397D2*
X4365860Y6500377D1*
X4744900D1*
X3312087Y6913497D2*
Y6940910D1*
X3294120Y6958877D1*
X4357880Y6492397D2*
X4403577D1*
X4407253Y6496073D1*
X4391237Y6011333D2*
X4414740D1*
X4443433Y5982640D1*
X3941547Y5453947D2*
Y5409757D1*
X3936047Y5404257D1*
X5464557Y4096783D2*
X5418400D1*
X5416727Y4095110D1*
X4048887Y1504893D2*
X4092360D1*
X4097157Y1500097D1*
X2501733Y5368160D2*
Y5308200D1*
X2480170Y5286637D1*
X4841017Y3372837D2*
Y3369957D1*
X4876890Y3334083D1*
X2312903Y4424777D2*
X2290503D1*
X2232727Y4482553D1*
X3114913Y4765923D2*
Y4818710D1*
X3117123Y4820920D1*
X4744900Y6500377D2*
X4749177D1*
X4779323Y6470230D1*
X5364420Y5152870D2*
X5359893D1*
X5321617Y5114593D1*
X5697080Y2734783D2*
Y2731903D1*
X5732953Y2696030D1*
X2316347Y3159683D2*
Y3156803D1*
X2352220Y3120930D1*
X4060460Y2801040D2*
X4344943Y3085523D1*
X5827720D1*
X5968000Y2945243D1*
Y2957000D1*
X5697150Y4899807D2*
X5787813Y4809143D1*
Y3371653D1*
X3990217Y6533930D2*
X3991200Y6532947D1*
X4192363D1*
Y6100380D1*
X4256623D1*
Y5533830D1*
X4356307Y5434147D1*
X5452210D1*
X5697150Y5189207D1*
Y4899807D1*
X3959880Y6497053D2*
Y6503593D1*
X3990217Y6533930D1*
X3965173Y2813453D2*
X4048047D1*
X4060460Y2801040D1*
X5798587Y3328950D2*
Y3360880D1*
X5787813Y3371653D1*
X5713507Y4844320D2*
Y4883450D1*
X5697150Y4899807D1*
X5968000Y3211000D2*
X5660073D1*
X4050923D1*
X3889860Y3049937D1*
X3863890Y3023967D1*
X3854433Y3014510D1*
X5559077Y4825460D2*
X5660073Y4724463D1*
Y3211000D1*
X4112543Y6055060D2*
X4108337D1*
Y5518170D1*
X4308227Y5318280D1*
X5326687D1*
X5559077Y5085890D1*
Y4825460D1*
X4112543Y6055060D2*
Y6006960D1*
X4108960Y6003377D1*
X3872297Y3023967D2*
X3863890D1*
X3899627Y3049937D2*
X3889860D1*
X3753823Y5211420D2*
X3982177Y4983067D1*
X4497300D1*
X4003417Y4101517D2*
X4093697Y4191797D1*
X4332673D1*
X4497300Y4356423D1*
Y4983067D1*
X3607813Y2830543D2*
X3346197Y3092160D1*
Y3272017D1*
X3684787Y6297587D2*
X3694440Y6307240D1*
X4051697D1*
X3633663Y6304727D2*
X3677647D1*
X3684787Y6297587D1*
X4051697Y6307240D2*
Y6304013D1*
X4085103Y6270607D1*
X3756730Y5259470D2*
Y5214327D1*
X3753823Y5211420D1*
X4497300Y4983067D2*
X4445620D1*
X4443463Y4985223D1*
X3346197Y3272017D2*
Y3361690D1*
X3346567Y3362060D1*
X3552843Y2769563D2*
Y2775573D1*
X3607813Y2830543D1*
X3960787Y4134497D2*
X3970437D1*
X4003417Y4101517D1*
X3609903Y6547693D2*
Y6531573D1*
X3508867Y6430537D1*
Y6113183D1*
X3701327Y5920723D1*
Y5780077D1*
X3371250Y5450000D1*
X3659040Y6549740D2*
X3611950D1*
X3609903Y6547693D1*
X4871667Y1366197D2*
X4911167Y1326697D1*
X5481723D1*
X5532507D1*
X5533300Y1327490D1*
X4816093Y1367750D2*
X4870113D1*
X4871667Y1366197D1*
X1774000Y6132350D2*
X1745380Y6103730D1*
Y2594617D1*
X1734783Y6167967D2*
X1738383D1*
X1774000Y6132350D1*
X1798150Y2533877D2*
Y2541847D1*
X1745380Y2594617D1*
X2322530Y2474117D2*
X2305853Y2457440D1*
Y1818940D1*
X2256693Y1822810D2*
X2301983D1*
X2305853Y1818940D1*
X2301680Y2527040D2*
Y2494967D1*
X2322530Y2474117D1*
X5406873Y2129023D2*
X4461640D1*
X4383467Y2207197D1*
X4085517Y2505147D1*
X2635693D1*
X2512623Y2628217D1*
Y3711567D1*
X2747217Y3946160D1*
Y4011093D1*
X4323250Y2288070D2*
X4383467Y2227853D1*
Y2207197D1*
X5406873Y2129023D2*
Y2137880D1*
X5448810Y2179817D1*
X2747217Y4011093D2*
Y4059673D1*
X2750397Y4062853D1*
X2577113Y5069693D2*
X2955110Y4691697D1*
Y3937970D1*
X3217980Y3675100D1*
Y2711237D1*
X3311447Y2617770D1*
X4351250D1*
X4560057Y2408963D1*
Y2327227D1*
X4594057Y2378310D2*
Y2361227D1*
X4560057Y2327227D1*
X2519290Y5078493D2*
X2568313D1*
X2577113Y5069693D1*
X3302280Y4095830D2*
X3528783Y3869327D1*
Y3120497D1*
X3561350Y3087930D1*
X3793083D1*
X3818537Y3122017D2*
Y3113383D1*
X3793083Y3087930D1*
X3249163Y4099230D2*
X3298880D1*
X3302280Y4095830D1*
X4353263Y3739803D2*
X4253393Y3839673D1*
X3663370D1*
X4311893Y3691223D2*
Y3698433D1*
X4353263Y3739803D1*
X3663370Y3839673D2*
Y3846977D1*
X3698080Y3881687D1*
X3224450Y2345890D2*
X3238490Y2331850D1*
X3661293D1*
X3224450Y2345890D2*
X3246827D1*
X3265533Y2364597D1*
X3658287Y2392633D2*
Y2334857D1*
X3661293Y2331850D1*
X3740777Y6382760D2*
X3744320Y6379217D1*
Y6781793D1*
X3614047Y6912067D1*
X3562640D1*
X3607943D1*
X3612380Y6907630D1*
X3687243Y6388747D2*
X3734790D1*
X3740777Y6382760D1*
X3487690Y5906597D2*
Y5909650D1*
X3093560D1*
Y6343203D1*
X3050517D1*
X3107487D1*
X3110427Y6340263D1*
X3487690Y5904290D2*
X3523707Y5868273D1*
X3917263Y4769623D2*
X3793883Y4893003D1*
X3549787D1*
X3596757D1*
X3600410Y4889350D1*
X3917263Y4769623D2*
X3918323D1*
X3947243Y4740703D1*
X2037793Y3839337D2*
X2384347Y3492783D1*
Y3471743D1*
X3735893Y3512067D2*
X3773807Y3474153D1*
X4565240D1*
X4862070Y3770983D1*
Y4261743D1*
X4969797Y4369470D1*
X5201210D1*
X5308623Y4262057D1*
Y4244443D1*
X2037793Y3839337D2*
Y3890613D1*
X2034370Y3894037D1*
X2347367Y3526467D2*
Y3508723D1*
X2384347Y3471743D1*
X3696290Y3541433D2*
X3706527D1*
X3735893Y3512067D1*
X3503833Y6727470D2*
X3487540Y6743763D1*
X3402167D1*
Y6053493D1*
X3408887D1*
X3401143Y6103183D2*
Y6061237D1*
X3408887Y6053493D1*
X3469673Y6756990D2*
X3474313D1*
X3503833Y6727470D1*
D25*
X3854433Y3014510D3*
D3*
X3549787Y4893003D3*
X3917263Y4769623D3*
X3663370Y3839673D3*
X3224450Y2345890D3*
X3050517Y6343203D3*
X4353263Y3739803D3*
X3661293Y2331850D3*
X3487690Y5906597D3*
X1774000Y6132350D3*
X1745380Y2594617D3*
X2322530Y2474117D3*
X2305853Y1818940D3*
X2747217Y4011093D3*
X5406873Y2129023D3*
X2577113Y5069693D3*
X4560057Y2327227D3*
X2037793Y3839337D3*
X3753823Y5211420D3*
X4003417Y4101517D3*
X4497300Y4983067D3*
X4060460Y2801040D3*
X3899627Y3049937D3*
X5464557Y4096783D3*
X5081677Y4147260D3*
X5697150Y4899807D3*
X5559077Y4825460D3*
X5787813Y3371653D3*
X3990217Y6533930D3*
X4112543Y6055060D3*
X3117123Y4820920D3*
X2480170Y5286637D3*
X4871667Y1366197D3*
X5481723Y1326697D3*
X3936047Y5404257D3*
X5321617Y5114593D3*
X2232727Y4482553D3*
X3740777Y6382760D3*
X3562640Y6912067D3*
X4569667Y3320917D3*
X4876890Y3334083D3*
X5600897Y4781260D3*
X5308623Y4244443D3*
X2384347Y3471743D3*
X3735893Y3512067D3*
X3302280Y4095830D3*
X3793083Y3087930D3*
X3408887Y6053493D3*
X3503833Y6727470D3*
X3346197Y3272017D3*
X3607813Y2830543D3*
X4357880Y6492397D3*
X4744900Y6500377D3*
X3684787Y6297587D3*
X4051697Y6307240D3*
X4391237Y6011333D3*
X4048887Y1504893D3*
X3312087Y6913497D3*
X2256693Y1822810D3*
X1798150Y2533877D3*
X4097157Y1500097D3*
X5533300Y1327490D3*
X4816093Y1367750D3*
X4594057Y2378310D3*
X5448810Y2179817D3*
X5111933Y4110000D3*
X5416727Y4095110D3*
X5713507Y4844320D3*
X5339450Y4273103D3*
X3960787Y4134497D3*
X3698080Y3881687D3*
X3249163Y4099230D3*
X4311893Y3691223D3*
X3818537Y3122017D3*
X3609903Y6547693D3*
X3965173Y2813453D3*
X3552843Y2769563D3*
X3346567Y3362060D3*
X2347367Y3526467D3*
X2034370Y3894037D3*
X2312903Y4424777D3*
X2750397Y4062853D3*
X2519290Y5078493D3*
X2501733Y5368160D3*
X1734783Y6167967D3*
X3294120Y6958877D3*
X3110427Y6340263D3*
X4443433Y5982640D3*
X4779323Y6470230D3*
X4407253Y6496073D3*
X3959880Y6497053D3*
X3687243Y6388747D3*
X3633663Y6304727D3*
X4085103Y6270607D3*
X4108960Y6003377D3*
X3523707Y5868273D3*
X3401143Y6103183D3*
X3612380Y6907630D3*
X3469673Y6756990D3*
X3114913Y4765923D3*
X3600410Y4889350D3*
X3947243Y4740703D3*
X3756730Y5259470D3*
X3941547Y5453947D3*
X4443463Y4985223D3*
X3265533Y2364597D3*
X3658287Y2392633D3*
X5364420Y5152870D3*
X5798587Y3328950D3*
X4841017Y3372837D3*
X4525817Y3340920D3*
X3696290Y3541433D3*
X2301680Y2527040D3*
X3659040Y6549740D3*
X5732953Y2696030D3*
X5697080Y2734783D3*
X2352220Y3120930D3*
X2316347Y3159683D3*
X1104100Y7639083D2*
D15*
X6095933D1*
X1104100Y7575917D2*
X6095933D1*
X1104100Y7512750D2*
X6095933D1*
X1104100Y7449583D2*
X6095933D1*
X1104100Y7386417D2*
X2474323D1*
X3010650D2*
X6095933D1*
X1104100Y7323250D2*
X2474323D1*
X3062987D2*
X6095933D1*
X1104100Y7260083D2*
X2474323D1*
X3079360D2*
X6095933D1*
X1104100Y7196917D2*
X2474323D1*
X3071050D2*
X6095933D1*
X1104100Y7133750D2*
X2474323D1*
X3033470D2*
X6095933D1*
X1104100Y7070583D2*
X6095933D1*
X1104100Y7007417D2*
X2508803D1*
X3075640D2*
X3502850D1*
X3663260D2*
X6095933D1*
X1104100Y6944250D2*
X2476307D1*
X3075640D2*
X3451877D1*
X3730730D2*
X6095933D1*
X1104100Y6881083D2*
X2471470D1*
X3075640D2*
X3451503D1*
X3793857D2*
X6095933D1*
X1104100Y6817917D2*
X2491563D1*
X3075640D2*
X3327603D1*
X3844707D2*
X6095933D1*
X1104100Y6754750D2*
X2552707D1*
X3075640D2*
X3295607D1*
X3851407D2*
X6095933D1*
X1104100Y6691583D2*
X3295110D1*
X3851407D2*
X6095933D1*
X1104100Y6628417D2*
X3295110D1*
X3851407D2*
X3928993D1*
X4230917D2*
X6095933D1*
X1104100Y6565250D2*
X3295110D1*
X4294170D2*
X6095933D1*
X1104100Y6502083D2*
X3295110D1*
X4299503D2*
X6095933D1*
X1104100Y6438917D2*
X2991377D1*
X3163820D2*
X3295110D1*
X4299503D2*
X6095933D1*
X1104100Y6375750D2*
X2939783D1*
X3220127D2*
X3295110D1*
X4299503D2*
X6095933D1*
X1104100Y6312583D2*
X2939287D1*
X3222483D2*
X3295110D1*
X4299503D2*
X6095933D1*
X1104100Y6249417D2*
X1655520D1*
X1813947D2*
X2986417D1*
X3200653D2*
X3295110D1*
X4299503D2*
X6095933D1*
X1104100Y6186250D2*
X1620670D1*
X1875463D2*
X2986417D1*
X3200653D2*
X3295110D1*
X3616010D2*
X4009237D1*
X4315623D2*
X6095933D1*
X1104100Y6123083D2*
X1628730D1*
X1889230D2*
X2986417D1*
X3200653D2*
X3287297D1*
X3647760D2*
X4020647D1*
X4361140D2*
X6095933D1*
X1104100Y6059917D2*
X1638280D1*
X2071670D2*
X2986417D1*
X3200653D2*
X3293373D1*
X3711010D2*
X3996960D1*
X4363747D2*
X6095933D1*
X1104100Y5996750D2*
X1638280D1*
X2108627D2*
X2986417D1*
X3774140D2*
X3993487D1*
X4363747D2*
X6095933D1*
X1104100Y5933583D2*
X1638280D1*
X2114830D2*
X2986417D1*
X3807623D2*
X4001177D1*
X4363747D2*
X6095933D1*
X1104100Y5870417D2*
X1638280D1*
X2094367D2*
X2987533D1*
X3808493D2*
X4001177D1*
X4363747D2*
X6095933D1*
X1104100Y5807250D2*
X1638280D1*
X2027020D2*
X2947720D1*
X3808493D2*
X4001177D1*
X4363747D2*
X6095933D1*
X1104100Y5744083D2*
X1638280D1*
X1852520D2*
X2938170D1*
X3801797D2*
X4001177D1*
X4363747D2*
X6095933D1*
X1104100Y5680917D2*
X1638280D1*
X1852520D2*
X2953053D1*
X3751070D2*
X4001177D1*
X4363747D2*
X6095933D1*
X1104100Y5617750D2*
X1638280D1*
X1852520D2*
X3002540D1*
X3687817D2*
X4001177D1*
X4363747D2*
X6095933D1*
X1104100Y5554583D2*
X1638280D1*
X1852520D2*
X2977733D1*
X3624690D2*
X4001177D1*
X4384707D2*
X6095933D1*
X1104100Y5491417D2*
X1638280D1*
X1852520D2*
X2946730D1*
X3561563D2*
X4004897D1*
X5543830D2*
X6095933D1*
X1104100Y5428250D2*
X1638280D1*
X1852520D2*
X2943007D1*
X3546927D2*
X4049420D1*
X5606957D2*
X6095933D1*
X1355680Y5365083D2*
X1638280D1*
X1852520D2*
X2964463D1*
X3546927D2*
X3722247D1*
X3791130D2*
X4112550D1*
X5670083D2*
X5792323D1*
X1397107Y5301917D2*
X1638280D1*
X1852520D2*
X3028833D1*
X3546927D2*
X3649693D1*
X3863807D2*
X4175800D1*
X5733337D2*
X5792323D1*
X1407647Y5238750D2*
X1638280D1*
X1852520D2*
X3641633D1*
X3875340D2*
X4240043D1*
X1393633Y5175583D2*
X1638280D1*
X1852520D2*
X2462790D1*
X2610550D2*
X3644237D1*
X3938470D2*
X5320537D1*
X1354193Y5112417D2*
X1638280D1*
X1852520D2*
X2409087D1*
X2684097D2*
X3701163D1*
X4001720D2*
X5383667D1*
X1396610Y5049250D2*
X1638280D1*
X1852520D2*
X2407600D1*
X2746357D2*
X3767143D1*
X4590583D2*
X5446917D1*
X1407647Y4986083D2*
X1638280D1*
X1852520D2*
X2366423D1*
X2809607D2*
X3486107D1*
X4612910D2*
X5452003D1*
X1394253Y4922917D2*
X1638280D1*
X1852520D2*
X2324007D1*
X2872737D2*
X3438357D1*
X4604350D2*
X5452003D1*
X1352830Y4859750D2*
X1638280D1*
X1852520D2*
X2314457D1*
X2935863D2*
X3439350D1*
X3985473D2*
X4390237D1*
X4604350D2*
X5448900D1*
X1395990Y4796583D2*
X1638280D1*
X1852520D2*
X2331323D1*
X2628533D2*
X2701410D1*
X2999117D2*
X3491937D1*
X4047487D2*
X4390237D1*
X4604350D2*
X5447290D1*
X1407647Y4733417D2*
X1638280D1*
X1852520D2*
X2388623D1*
X2571110D2*
X2764537D1*
X3053190D2*
X3804600D1*
X4062617D2*
X4390237D1*
X4604350D2*
X5493797D1*
X1394750Y4670250D2*
X1638280D1*
X1852520D2*
X2827667D1*
X3062243D2*
X3857310D1*
X4037193D2*
X4390237D1*
X4604350D2*
X5552957D1*
X1351340Y4607083D2*
X1638280D1*
X1852520D2*
X2375723D1*
X2624317D2*
X2848007D1*
X3062243D2*
X4390237D1*
X4604350D2*
X5552957D1*
X1395493Y4543917D2*
X1638280D1*
X1852520D2*
X2340503D1*
X2659417D2*
X2848007D1*
X3062243D2*
X3149383D1*
X3674547D2*
X3749407D1*
X4274573D2*
X4390237D1*
X4604350D2*
X5552957D1*
X1407647Y4480750D2*
X1638280D1*
X1852520D2*
X2335540D1*
X2664500D2*
X2848007D1*
X4274573D2*
X4390237D1*
X4604350D2*
X5552957D1*
X1395370Y4417583D2*
X1638280D1*
X1852520D2*
X2357370D1*
X2642673D2*
X2848007D1*
X4274573D2*
X4390237D1*
X4604350D2*
X4869093D1*
X5301983D2*
X5552957D1*
X1350720Y4354417D2*
X1638280D1*
X1852520D2*
X2429053D1*
X2570987D2*
X2848007D1*
X4274573D2*
X4346457D1*
X4604350D2*
X4805840D1*
X5418813D2*
X5552957D1*
X1394997Y4291250D2*
X1638280D1*
X1852520D2*
X2848007D1*
X3062243D2*
X3108827D1*
X3674547D2*
X3708853D1*
X4580540D2*
X4759330D1*
X5453540D2*
X5552957D1*
X1407647Y4228083D2*
X1638280D1*
X1852520D2*
X2848007D1*
X3062243D2*
X3897987D1*
X4517783D2*
X4754990D1*
X4977290D2*
X5193787D1*
X5445353D2*
X5552957D1*
X1395867Y4164917D2*
X1638280D1*
X1852520D2*
X2705007D1*
X2795840D2*
X2848007D1*
X3062243D2*
X3155460D1*
X3393263D2*
X3849497D1*
X4454657D2*
X4754990D1*
X4969230D2*
X5227270D1*
X5389917D2*
X5552957D1*
X1352210Y4101750D2*
X1638280D1*
X1852520D2*
X2641880D1*
X3062243D2*
X3133507D1*
X3445230D2*
X3850117D1*
X4384210D2*
X4754990D1*
X4969230D2*
X5552957D1*
X1394377Y4038583D2*
X1638280D1*
X1852520D2*
X2635057D1*
X3062243D2*
X3151863D1*
X3508357D2*
X3902080D1*
X4099080D2*
X4754990D1*
X4969230D2*
X5552957D1*
X1407647Y3975417D2*
X1638280D1*
X1852520D2*
X1955037D1*
X2113713D2*
X2627617D1*
X3066460D2*
X3273903D1*
X3571483D2*
X3635553D1*
X3760620D2*
X4754990D1*
X4969230D2*
X5552957D1*
X1396360Y3912250D2*
X1638280D1*
X1852520D2*
X1920310D1*
X2148440D2*
X2230617D1*
X2492233D2*
X2564487D1*
X3129713D2*
X3337030D1*
X4329640D2*
X4754990D1*
X4969230D2*
X5552957D1*
X1353697Y3849083D2*
X1638280D1*
X1852520D2*
X1922543D1*
X3192840D2*
X3400157D1*
X4392767D2*
X4754990D1*
X4969230D2*
X5552957D1*
X1393880Y3785917D2*
X1638280D1*
X1852520D2*
X1936060D1*
X3255970D2*
X3421737D1*
X4458747D2*
X4728200D1*
X4969230D2*
X5552957D1*
X1407647Y3722750D2*
X1638280D1*
X1852520D2*
X2005513D1*
X3313143D2*
X3421737D1*
X3635853D2*
X4200853D1*
X4467553D2*
X4664950D1*
X4956827D2*
X5552957D1*
X1396857Y3659583D2*
X1638280D1*
X1852520D2*
X2068767D1*
X3325050D2*
X3421737D1*
X3635853D2*
X4200977D1*
X4433820D2*
X4601820D1*
X4899527D2*
X5552957D1*
X1355060Y3596417D2*
X1638280D1*
X1852520D2*
X2131893D1*
X3325050D2*
X3421737D1*
X3811717D2*
X4251207D1*
X4372550D2*
X4538693D1*
X4836400D2*
X5552957D1*
X1393260Y3533250D2*
X1638280D1*
X1852520D2*
X2195023D1*
X3325050D2*
X3421737D1*
X4773147D2*
X5552957D1*
X1407523Y3470083D2*
X1638280D1*
X1852520D2*
X2247360D1*
X3369400D2*
X3421737D1*
X4710020D2*
X5552957D1*
X1397353Y3406917D2*
X1638280D1*
X1852520D2*
X2290023D1*
X3635853D2*
X3692233D1*
X4646890D2*
X5552957D1*
X1356550Y3343750D2*
X1638280D1*
X1852520D2*
X2405490D1*
X3635853D2*
X5552957D1*
X1392640Y3280583D2*
X1638280D1*
X1852520D2*
X2405490D1*
X3635853D2*
X3971657D1*
X1407523Y3217417D2*
X1638280D1*
X1852520D2*
X2405490D1*
X3635853D2*
X3758833D1*
X1397850Y3154250D2*
X1638280D1*
X1852520D2*
X2405490D1*
X1407647Y3091083D2*
X1638280D1*
X1852520D2*
X2405490D1*
X1407647Y3027917D2*
X1638280D1*
X1852520D2*
X2405490D1*
X1407647Y2964750D2*
X1638280D1*
X1852520D2*
X2405490D1*
X4373047D2*
X5792570D1*
X1407647Y2901583D2*
X1638280D1*
X1852520D2*
X2405490D1*
X4309797D2*
X5801747D1*
X1407647Y2838417D2*
X1638280D1*
X1852520D2*
X2405490D1*
X4246667D2*
X5840817D1*
X1104100Y2775250D2*
X1638280D1*
X1852520D2*
X2405490D1*
X4183540D2*
X6095933D1*
X1104100Y2712083D2*
X1638280D1*
X1852520D2*
X2405490D1*
X4393017D2*
X6095933D1*
X1104100Y2648917D2*
X1638280D1*
X1852520D2*
X2405490D1*
X4468917D2*
X6095933D1*
X1104100Y2585750D2*
X1630097D1*
X1900640D2*
X2203207D1*
X4532170D2*
X6095933D1*
X1104100Y2522583D2*
X1656883D1*
X1913167D2*
X2186093D1*
X2426873D2*
X2469363D1*
X4595297D2*
X6095933D1*
X1104100Y2459417D2*
X1711827D1*
X1884517D2*
X2198743D1*
X2437167D2*
X2532613D1*
X4673680D2*
X6095933D1*
X1104100Y2396250D2*
X2198743D1*
X2412980D2*
X3121107D1*
X3773890D2*
X4045577D1*
X4708160D2*
X6095933D1*
X1104100Y2333083D2*
X2198743D1*
X2412980D2*
X3109570D1*
X3776867D2*
X4108703D1*
X4699850D2*
X6095933D1*
X1104100Y2269917D2*
X2198743D1*
X2412980D2*
X3139583D1*
X3757643D2*
X4158687D1*
X4659417D2*
X5380563D1*
X5517040D2*
X6095933D1*
X1104100Y2206750D2*
X2198743D1*
X2412980D2*
X4179893D1*
X5561067D2*
X6095933D1*
X1104100Y2143583D2*
X2198743D1*
X2412980D2*
X4249843D1*
X5558217D2*
X6095933D1*
X1104100Y2080417D2*
X2198743D1*
X2412980D2*
X4361463D1*
X5511087D2*
X6095933D1*
X1104100Y2017250D2*
X2198743D1*
X2412980D2*
X6095933D1*
X1104100Y1954083D2*
X2198743D1*
X2412980D2*
X6095933D1*
X1104100Y1890917D2*
X2164883D1*
X2412980D2*
X6095933D1*
X1104100Y1827750D2*
X2141197D1*
X2421167D2*
X6095933D1*
X1104100Y1764583D2*
X2157817D1*
X2407027D2*
X6095933D1*
X1104100Y1701417D2*
X3633943D1*
X3859467D2*
X6095933D1*
X1104100Y1638250D2*
X3590907D1*
X3902380D2*
X6095933D1*
X1104100Y1575083D2*
X3376843D1*
X3517287D2*
X3581233D1*
X3912177D2*
X6095933D1*
X1104100Y1511917D2*
X3304660D1*
X3895680D2*
X6095933D1*
X1104100Y1448750D2*
X3282707D1*
X3611543D2*
X3654407D1*
X3838880D2*
X4736387D1*
X4949633D2*
X6095933D1*
X1104100Y1385583D2*
X3287543D1*
X3606707D2*
X4701907D1*
X5632257D2*
X6095933D1*
X1104100Y1322417D2*
X3322520D1*
X3571733D2*
X4710343D1*
X5648877D2*
X6095933D1*
X1104100Y1259250D2*
X4796663D1*
X5625063D2*
X6095933D1*
X1104100Y1196083D2*
X6095933D1*
X1104100Y1132917D2*
X6095933D1*
X1378597Y3126290D2*
X1401290D1*
Y2787710D1*
X1097803D1*
X1097750Y1097750D1*
X6102250D1*
Y2853797D1*
X6087707Y2837293D1*
X6067507Y2820040D1*
X6044857Y2806160D1*
X6020313Y2795997D1*
X5994483Y2789793D1*
X5968000Y2787710D1*
X5941517Y2789793D1*
X5915687Y2795997D1*
X5891143Y2806160D1*
X5868493Y2820040D1*
X5848293Y2837293D1*
X5831040Y2857493D1*
X5817160Y2880143D1*
X5806997Y2904687D1*
X5800793Y2930517D1*
X5798710Y2957000D1*
X5799360Y2971367D1*
X5764220Y2984733D1*
X4386693D1*
X4161430Y2759217D1*
X4153647Y2743937D1*
X4143563Y2730063D1*
X4132053Y2718503D1*
X4359157Y2718250D1*
X4374780Y2715777D1*
X4389820Y2710887D1*
X4403913Y2703707D1*
X4416707Y2694410D1*
X4557223Y2554337D1*
X4630033Y2481523D1*
X4643673Y2475687D1*
X4658297Y2466727D1*
X4671337Y2455590D1*
X4682473Y2442550D1*
X4691433Y2427927D1*
X4697997Y2412083D1*
X4702000Y2395407D1*
X4703347Y2378310D1*
X4702000Y2361213D1*
X4697997Y2344537D1*
X4691433Y2328693D1*
X4679993Y2308563D1*
X4670697Y2295770D1*
X4661027Y2285403D1*
X4653243Y2270123D1*
X4643160Y2256250D1*
X4631033Y2244123D1*
X4617160Y2234040D1*
X4609520Y2229780D1*
X5351507Y2229813D1*
X5360393Y2244057D1*
X5371530Y2257097D1*
X5384570Y2268233D1*
X5399193Y2277193D1*
X5415037Y2283757D1*
X5431713Y2287760D1*
X5448810Y2289107D1*
X5465907Y2287760D1*
X5482583Y2283757D1*
X5498427Y2277193D1*
X5513050Y2268233D1*
X5526090Y2257097D1*
X5537227Y2244057D1*
X5546187Y2229433D1*
X5552750Y2213590D1*
X5556753Y2196913D1*
X5558100Y2179817D1*
X5556753Y2162720D1*
X5552750Y2146043D1*
X5546187Y2130200D1*
X5537227Y2115577D1*
X5526090Y2102537D1*
X5513050Y2091400D1*
X5507843Y2087200D1*
X5500060Y2071920D1*
X5489977Y2058047D1*
X5477850Y2045920D1*
X5463977Y2035837D1*
X5448697Y2028053D1*
X5432387Y2022753D1*
X5415447Y2020070D1*
X5398300D1*
X5381360Y2022753D1*
X5364593Y2028263D1*
X4453733Y2028543D1*
X4438110Y2031017D1*
X4423070Y2035907D1*
X4408977Y2043087D1*
X4396183Y2052383D1*
X4319257Y2128867D1*
X4298330Y2130740D1*
X4274027Y2136577D1*
X4250933Y2146140D1*
X4229623Y2159203D1*
X4210613Y2175433D1*
X4194383Y2194443D1*
X4181320Y2215753D1*
X4171757Y2238847D1*
X4165920Y2263150D1*
X4164120Y2284017D1*
X4043753Y2404370D1*
X3766900Y2404357D1*
X3767240Y2384060D1*
X3764630Y2367483D1*
X3769237Y2348947D1*
X3770583Y2331850D1*
X3769237Y2314753D1*
X3765233Y2298077D1*
X3758670Y2282233D1*
X3749710Y2267610D1*
X3738573Y2254570D1*
X3725533Y2243433D1*
X3710910Y2234473D1*
X3695067Y2227910D1*
X3678390Y2223907D1*
X3661293Y2222560D1*
X3644197Y2223907D1*
X3627520Y2227910D1*
X3619013Y2231090D1*
X3230583Y2231370D1*
X3214960Y2233843D1*
X3190677Y2241950D1*
X3174833Y2248513D1*
X3160210Y2257473D1*
X3147170Y2268610D1*
X3136033Y2281650D1*
X3127073Y2296273D1*
X3120510Y2312117D1*
X3116507Y2328793D1*
X3115160Y2345890D1*
X3116507Y2362987D1*
X3120510Y2379663D1*
X3127073Y2395507D1*
X3132213Y2404417D1*
X2627787Y2404667D1*
X2612163Y2407140D1*
X2597123Y2412030D1*
X2583030Y2419210D1*
X2570237Y2428507D1*
X2441353Y2556947D1*
X2431083Y2568973D1*
X2422820Y2582460D1*
X2416767Y2597070D1*
X2413073Y2612450D1*
X2411833Y2628217D1*
Y3366033D1*
X2392920Y3362790D1*
X2375773D1*
X2358833Y3365473D1*
X2342523Y3370773D1*
X2327243Y3378557D1*
X2313370Y3388640D1*
X2301243Y3400767D1*
X2291160Y3414640D1*
X2283203Y3430390D1*
X2265827Y3449480D1*
X2257160Y3463837D1*
X2246397Y3484643D1*
X2244297Y3490337D1*
X1995970Y3738367D1*
X1980690Y3746150D1*
X1966817Y3756233D1*
X1954690Y3768360D1*
X1944607Y3782233D1*
X1936823Y3797513D1*
X1931523Y3813823D1*
X1928840Y3830763D1*
Y3847910D1*
X1930430Y3860263D1*
X1926427Y3876940D1*
X1925080Y3894037D1*
X1926427Y3911133D1*
X1930430Y3927810D1*
X1936993Y3943653D1*
X1945953Y3958277D1*
X1957090Y3971317D1*
X1970130Y3982453D1*
X1984753Y3991413D1*
X2000597Y3997977D1*
X2017273Y4001980D1*
X2034370Y4003327D1*
X2051467Y4001980D1*
X2068143Y3997977D1*
X2083987Y3991413D1*
X2098610Y3982453D1*
X2111650Y3971317D1*
X2122787Y3958277D1*
X2131747Y3943653D1*
X2138310Y3927810D1*
X2142313Y3911133D1*
X2143660Y3894037D1*
X2142350Y3877240D1*
X2202110Y3817560D1*
X2204063Y3837720D1*
X2209900Y3862023D1*
X2219463Y3885117D1*
X2232527Y3906427D1*
X2248757Y3925437D1*
X2267767Y3941667D1*
X2289077Y3954730D1*
X2312170Y3964293D1*
X2336473Y3970130D1*
X2361393Y3972090D1*
X2386313Y3970130D1*
X2410617Y3964293D1*
X2433710Y3954730D1*
X2455020Y3941667D1*
X2474030Y3925437D1*
X2490260Y3906427D1*
X2503323Y3885117D1*
X2512887Y3862023D1*
X2514570Y3856050D1*
X2641567Y3983050D1*
X2638263Y4002520D1*
Y4019667D1*
X2640947Y4036607D1*
X2642453Y4045757D1*
X2641107Y4062853D1*
X2642453Y4079950D1*
X2646457Y4096627D1*
X2653020Y4112470D1*
X2661980Y4127093D1*
X2673117Y4140133D1*
X2686157Y4151270D1*
X2700780Y4160230D1*
X2716623Y4166793D1*
X2733300Y4170797D1*
X2750397Y4172143D1*
X2767493Y4170797D1*
X2784170Y4166793D1*
X2800013Y4160230D1*
X2814637Y4151270D1*
X2827677Y4140133D1*
X2838813Y4127093D1*
X2847773Y4112470D1*
X2854320Y4096720D1*
Y4649990D1*
X2639077Y4865193D1*
X2637230Y4843297D1*
X2631393Y4818993D1*
X2621830Y4795900D1*
X2608767Y4774590D1*
X2592537Y4755580D1*
X2573527Y4739350D1*
X2552217Y4726287D1*
X2529123Y4716723D1*
X2504820Y4710887D1*
X2479900Y4708927D1*
X2454980Y4710887D1*
X2430677Y4716723D1*
X2407583Y4726287D1*
X2386273Y4739350D1*
X2367263Y4755580D1*
X2351033Y4774590D1*
X2337970Y4795900D1*
X2328407Y4818993D1*
X2322570Y4843297D1*
X2320610Y4868217D1*
X2322570Y4893137D1*
X2328407Y4917440D1*
X2337970Y4940533D1*
X2351033Y4961843D1*
X2367263Y4980853D1*
X2386273Y4997083D1*
X2407583Y5010147D1*
X2427790Y5018647D1*
X2418320Y5036670D1*
X2413020Y5052980D1*
X2410337Y5069920D1*
Y5087067D1*
X2413020Y5104007D1*
X2418320Y5120317D1*
X2426103Y5135597D1*
X2436187Y5149470D1*
X2448313Y5161597D1*
X2462187Y5171680D1*
X2477467Y5179463D1*
X2493777Y5184763D1*
X2510717Y5187447D1*
X2527863D1*
X2544803Y5184763D1*
X2561570Y5179253D1*
X2585687Y5178647D1*
X2602627Y5175963D1*
X2618937Y5170663D1*
X2634217Y5162880D1*
X2648090Y5152797D1*
X2660217Y5140670D1*
X2670300Y5126797D1*
X2678257Y5111047D1*
X3031750Y4757153D1*
X3041047Y4744360D1*
X3048227Y4730267D1*
X3053117Y4715227D1*
X3055590Y4699603D1*
X3055900Y4501197D1*
Y3979677D1*
X3294620Y3740557D1*
X3303917Y3727763D1*
X3311097Y3713670D1*
X3315987Y3698630D1*
X3318460Y3683007D1*
X3318770Y3484600D1*
Y3467857D1*
X3337993Y3471013D1*
X3355140D1*
X3372080Y3468330D1*
X3388390Y3463030D1*
X3403670Y3455247D1*
X3417543Y3445163D1*
X3428010Y3434837D1*
X3427993Y3827553D1*
X3264490Y3991080D1*
X3249163Y3989940D1*
X3232067Y3991287D1*
X3215390Y3995290D1*
X3199547Y4001853D1*
X3184923Y4010813D1*
X3171883Y4021950D1*
X3160747Y4034990D1*
X3151787Y4049613D1*
X3145223Y4065457D1*
X3141220Y4082133D1*
X3139873Y4099230D1*
X3141220Y4116327D1*
X3145223Y4133003D1*
X3151787Y4148847D1*
X3160747Y4163470D1*
X3171883Y4176510D1*
X3184923Y4187647D1*
X3199547Y4196607D1*
X3215390Y4203170D1*
X3232067Y4207173D1*
X3249163Y4208520D1*
X3266260Y4207173D1*
X3282453Y4203307D1*
X3302280Y4205120D1*
X3319377Y4203773D1*
X3336053Y4199770D1*
X3351897Y4193207D1*
X3366520Y4184247D1*
X3379560Y4173110D1*
X3390697Y4160070D1*
X3399657Y4145447D1*
X3403423Y4137183D1*
X3600703Y3939893D1*
X3604893Y3938790D1*
X3614977Y3952663D1*
X3627103Y3964790D1*
X3640977Y3974873D1*
X3656257Y3982657D1*
X3672567Y3987957D1*
X3689507Y3990640D1*
X3706653D1*
X3723593Y3987957D1*
X3739903Y3982657D1*
X3755183Y3974873D1*
X3769057Y3964790D1*
X3781183Y3952663D1*
X3790370Y3940463D1*
X4261300Y3940153D1*
X4276923Y3937680D1*
X4291963Y3932790D1*
X4306057Y3925610D1*
X4318850Y3916313D1*
X4394733Y3840873D1*
X4410367Y3832990D1*
X4424240Y3822907D1*
X4436367Y3810780D1*
X4446450Y3796907D1*
X4454233Y3781627D1*
X4459533Y3765317D1*
X4462217Y3748377D1*
Y3731230D1*
X4459533Y3714290D1*
X4454233Y3697980D1*
X4446450Y3682700D1*
X4436367Y3668827D1*
X4424240Y3656700D1*
X4412180Y3647830D1*
X4405080Y3634120D1*
X4394997Y3620247D1*
X4382870Y3608120D1*
X4368997Y3598037D1*
X4353717Y3590253D1*
X4337407Y3584953D1*
X4320467Y3582270D1*
X4303320D1*
X4286380Y3584953D1*
X4270070Y3590253D1*
X4254790Y3598037D1*
X4240917Y3608120D1*
X4228790Y3620247D1*
X4218707Y3634120D1*
X4210923Y3649400D1*
X4205623Y3665710D1*
X4202940Y3682650D1*
Y3699797D1*
X4205623Y3716737D1*
X4213013Y3737583D1*
X4158143Y3738883D1*
X3705193Y3738703D1*
X3688883Y3733403D1*
X3671943Y3730720D1*
X3654797D1*
X3637857Y3733403D1*
X3629567Y3735743D1*
X3629573Y3628100D1*
X3646673Y3638810D1*
X3662517Y3645373D1*
X3679193Y3649377D1*
X3696290Y3650723D1*
X3713387Y3649377D1*
X3730063Y3645373D1*
X3745907Y3638810D1*
X3760530Y3629850D1*
X3773570Y3618713D1*
X3779500Y3612280D1*
X3792997Y3605253D1*
X3806870Y3595170D1*
X3818997Y3583043D1*
X3825260Y3574883D1*
X4523530Y3574943D1*
X4761360Y3812813D1*
X4761590Y4269650D1*
X4764063Y4285273D1*
X4768953Y4300313D1*
X4776133Y4314407D1*
X4785430Y4327200D1*
X4898527Y4440740D1*
X4910553Y4451010D1*
X4924040Y4459273D1*
X4938650Y4465327D1*
X4954030Y4469020D1*
X4969797Y4470260D1*
X5209117Y4469950D1*
X5224740Y4467477D1*
X5239780Y4462587D1*
X5253873Y4455407D1*
X5266667Y4446110D1*
X5331150Y4382070D1*
X5348023Y4382057D1*
X5364963Y4379373D1*
X5381273Y4374073D1*
X5396553Y4366290D1*
X5410427Y4356207D1*
X5422553Y4344080D1*
X5432637Y4330207D1*
X5440420Y4314927D1*
X5445720Y4298617D1*
X5448403Y4281677D1*
Y4264530D1*
X5445720Y4247590D1*
X5440420Y4231280D1*
X5432637Y4216000D1*
X5422553Y4202127D1*
X5410427Y4190000D1*
X5397040Y4180203D1*
X5385903Y4167163D1*
X5372863Y4156027D1*
X5358240Y4147067D1*
X5342397Y4140503D1*
X5325720Y4136500D1*
X5308623Y4135153D1*
X5291527Y4136500D1*
X5274850Y4140503D1*
X5259007Y4147067D1*
X5244383Y4156027D1*
X5231343Y4167163D1*
X5220207Y4180203D1*
X5211247Y4194827D1*
X5204683Y4210670D1*
X5200660Y4227513D1*
X5159390Y4268750D1*
X5011577Y4268680D1*
X4962753Y4219887D1*
X4962550Y3763077D1*
X4960077Y3747453D1*
X4955187Y3732413D1*
X4948007Y3718320D1*
X4938710Y3705527D1*
X4798637Y3565010D1*
X4630697Y3397513D1*
X4617903Y3388217D1*
X4603810Y3381037D1*
X4588770Y3376147D1*
X4573147Y3373673D1*
X4374740Y3373363D1*
X3765900Y3373673D1*
X3750277Y3376147D1*
X3735237Y3381037D1*
X3721143Y3388217D1*
X3708350Y3397513D1*
X3694070Y3411097D1*
X3678790Y3418880D1*
X3664917Y3428963D1*
X3652683Y3441220D1*
X3639187Y3448247D1*
X3629550Y3454987D1*
X3629573Y3188810D1*
X3731883Y3188720D1*
X3747560Y3205120D1*
X3761433Y3215203D1*
X3776713Y3222987D1*
X3793023Y3228287D1*
X3809963Y3230970D1*
X3827110D1*
X3844050Y3228287D1*
X3860360Y3222987D1*
X3875640Y3215203D1*
X3889513Y3205120D1*
X3896250Y3198830D1*
X3985467Y3287640D1*
X3998260Y3296937D1*
X4012353Y3304117D1*
X4027393Y3309007D1*
X4043017Y3311480D1*
X4241423Y3311790D1*
X5559420D1*
X5559073Y4680290D1*
X5543793Y4688073D1*
X5529920Y4698157D1*
X5517793Y4710283D1*
X5507710Y4724157D1*
X5503763Y4731203D1*
X5488100Y4742357D1*
X5475973Y4754483D1*
X5465890Y4768357D1*
X5458107Y4783637D1*
X5452807Y4799947D1*
X5450123Y4816887D1*
Y4834033D1*
X5452807Y4850973D1*
X5458317Y4867740D1*
X5458287Y5044113D1*
X5284963Y5217467D1*
X4300320Y5217800D1*
X4284697Y5220273D1*
X4269657Y5225163D1*
X4255563Y5232343D1*
X4242770Y5241640D1*
X4102253Y5381713D1*
X4031697Y5452713D1*
X4022400Y5465507D1*
X4015220Y5479600D1*
X4010330Y5494640D1*
X4007857Y5510263D1*
X4007547Y5708670D1*
Y5962547D1*
X4002690Y5977863D1*
X4000007Y5994803D1*
Y6011950D1*
X4002690Y6028890D1*
X4004600Y6037963D1*
X4003253Y6055060D1*
X4004600Y6072157D1*
X4008603Y6088833D1*
X4015167Y6104677D1*
X4024127Y6119300D1*
X4035263Y6132340D1*
X4048303Y6143477D1*
X4062927Y6152437D1*
X4078770Y6159000D1*
X4085103Y6161317D1*
X4068007Y6162663D1*
X4051330Y6166667D1*
X4035487Y6173230D1*
X4020863Y6182190D1*
X4007823Y6193327D1*
X3996593Y6206507D1*
X3744987Y6206450D1*
X3726610Y6196617D1*
X3710300Y6191317D1*
X3693360Y6188633D1*
X3676213D1*
X3659273Y6191317D1*
X3644630Y6196000D1*
X3625090Y6195773D1*
X3609630Y6198163D1*
X3609657Y6154833D1*
X3777967Y5986180D1*
X3787263Y5973387D1*
X3794443Y5959293D1*
X3799333Y5944253D1*
X3801807Y5928630D1*
X3802117Y5780077D1*
X3800877Y5764310D1*
X3797183Y5748930D1*
X3791130Y5734320D1*
X3782867Y5720833D1*
X3772597Y5708807D1*
X3540460Y5476670D1*
X3540540Y5280710D1*
X3201960D1*
Y5303407D1*
X3182033Y5293597D1*
X3156770Y5285387D1*
X3130533Y5281233D1*
X3103967D1*
X3077730Y5285387D1*
X3052467Y5293597D1*
X3028797Y5305657D1*
X3007303Y5321270D1*
X2988520Y5340053D1*
X2972907Y5361547D1*
X2960847Y5385217D1*
X2952637Y5410480D1*
X2948483Y5436717D1*
Y5463283D1*
X2952637Y5489520D1*
X2960847Y5514783D1*
X2972907Y5538453D1*
X2988520Y5559947D1*
X3007303Y5578730D1*
X3028797Y5594343D1*
X3037810Y5599393D1*
X3014117Y5613820D1*
X2993917Y5631073D1*
X2976663Y5651273D1*
X2962783Y5673923D1*
X2952620Y5698467D1*
X2946417Y5724297D1*
X2944333Y5750780D1*
X2946417Y5777263D1*
X2952620Y5803093D1*
X2962783Y5827637D1*
X2976663Y5850287D1*
X2993917Y5870487D1*
X2998913Y5875103D1*
X2994010Y5893883D1*
X2992770Y5909650D1*
Y6250343D1*
X2979540Y6260100D1*
X2967413Y6272227D1*
X2957330Y6286100D1*
X2949547Y6301380D1*
X2944247Y6317690D1*
X2941563Y6334630D1*
Y6351777D1*
X2944247Y6368717D1*
X2949547Y6385027D1*
X2957330Y6400307D1*
X2967413Y6414180D1*
X2979540Y6426307D1*
X2993413Y6436390D1*
X3008693Y6444173D1*
X3025003Y6449473D1*
X3041943Y6452157D1*
X3059090D1*
X3076030Y6449473D1*
X3085517Y6446693D1*
X3101853Y6449217D1*
X3119000D1*
X3135940Y6446533D1*
X3152250Y6441233D1*
X3167530Y6433450D1*
X3181403Y6423367D1*
X3193530Y6411240D1*
X3203613Y6397367D1*
X3211397Y6382087D1*
X3216697Y6365777D1*
X3219380Y6348837D1*
Y6331690D1*
X3216697Y6314750D1*
X3211397Y6298440D1*
X3203613Y6283160D1*
X3194300Y6270260D1*
X3194350Y6010450D1*
X3308493Y6010440D1*
X3302617Y6027980D1*
X3299933Y6044920D1*
X3299930Y6061967D1*
X3294873Y6077670D1*
X3292190Y6094610D1*
Y6111757D1*
X3294873Y6128697D1*
X3301420Y6147717D1*
X3301687Y6751670D1*
X3304160Y6767293D1*
X3309050Y6782333D1*
X3316230Y6796427D1*
X3325527Y6809220D1*
X3336710Y6820403D1*
X3349503Y6829700D1*
X3363597Y6836880D1*
X3378637Y6841770D1*
X3394260Y6844243D1*
X3404277Y6844553D1*
X3420057Y6854367D1*
X3435900Y6860930D1*
X3452577Y6864933D1*
X3463543Y6866040D1*
X3456370Y6886553D1*
X3453687Y6903493D1*
Y6920640D1*
X3456370Y6937580D1*
X3461670Y6953890D1*
X3469453Y6969170D1*
X3479537Y6983043D1*
X3491663Y6995170D1*
X3505537Y7005253D1*
X3520817Y7013037D1*
X3537127Y7018337D1*
X3554067Y7021020D1*
X3571213D1*
X3588153Y7018337D1*
X3596947Y7015810D1*
X3612380Y7016920D1*
X3629477Y7015573D1*
X3646153Y7011570D1*
X3661997Y7005007D1*
X3676620Y6996047D1*
X3689660Y6984910D1*
X3700797Y6971870D1*
X3707710Y6960903D1*
X3820960Y6847250D1*
X3830257Y6834457D1*
X3837437Y6820363D1*
X3842327Y6805323D1*
X3844800Y6789700D1*
X3845110Y6591293D1*
Y6415303D1*
X3847107Y6407977D1*
X3895640Y6408637D1*
X3882600Y6419773D1*
X3871463Y6432813D1*
X3862503Y6447437D1*
X3855940Y6463280D1*
X3851937Y6479957D1*
X3850590Y6497053D1*
X3851937Y6514150D1*
X3855940Y6530827D1*
X3862503Y6546670D1*
X3871463Y6561293D1*
X3882600Y6574333D1*
X3892840Y6583547D1*
X3901800Y6598170D1*
X3912937Y6611210D1*
X3925977Y6622347D1*
X3940600Y6631307D1*
X3956443Y6637870D1*
X3973120Y6641873D1*
X3990217Y6643220D1*
X4007313Y6641873D1*
X4023990Y6637870D1*
X4034627Y6633707D1*
X4200270Y6633427D1*
X4215893Y6630953D1*
X4230933Y6626063D1*
X4245027Y6618883D1*
X4257820Y6609587D1*
X4269003Y6598403D1*
X4278300Y6585610D1*
X4285480Y6571517D1*
X4290370Y6556477D1*
X4292843Y6540853D1*
X4293153Y6342447D1*
Y6194240D1*
X4309287Y6186317D1*
X4322080Y6177020D1*
X4333263Y6165837D1*
X4342560Y6153043D1*
X4349740Y6138950D1*
X4354630Y6123910D1*
X4357103Y6108287D1*
X4357413Y5909880D1*
Y5575637D1*
X4398140Y5534853D1*
X5460117Y5534627D1*
X5475740Y5532153D1*
X5490780Y5527263D1*
X5504873Y5520083D1*
X5517667Y5510787D1*
X5658183Y5370713D1*
X5773790Y5254663D1*
X5783087Y5241870D1*
X5790267Y5227777D1*
X5795157Y5212737D1*
X5797630Y5197113D1*
X5797940Y4998707D1*
X5798293Y4941160D1*
X5803387Y4949480D1*
X5799233Y4975717D1*
Y5002283D1*
X5803387Y5028520D1*
X5811597Y5053783D1*
X5821550Y5073693D1*
X5798710Y5073710D1*
Y5412290D1*
X6102197D1*
X6102250Y7702250D1*
X1097750D1*
Y5346177D1*
X1112293Y5362707D1*
X1132493Y5379960D1*
X1155143Y5393840D1*
X1179687Y5404003D1*
X1205517Y5410207D1*
X1232000Y5412290D1*
X1258483Y5410207D1*
X1284313Y5404003D1*
X1308857Y5393840D1*
X1331507Y5379960D1*
X1351707Y5362707D1*
X1368960Y5342507D1*
X1382840Y5319857D1*
X1393003Y5295313D1*
X1399207Y5269483D1*
X1401290Y5243000D1*
X1399207Y5216517D1*
X1393003Y5190687D1*
X1382840Y5166143D1*
X1368960Y5143493D1*
X1351707Y5123293D1*
X1343890Y5116070D1*
X1360730Y5098947D1*
X1376343Y5077453D1*
X1388403Y5053783D1*
X1396613Y5028520D1*
X1400767Y5002283D1*
Y4975717D1*
X1396613Y4949480D1*
X1388403Y4924217D1*
X1376343Y4900547D1*
X1360730Y4879053D1*
X1343890Y4862070D1*
X1360730Y4844947D1*
X1376343Y4823453D1*
X1388403Y4799783D1*
X1396613Y4774520D1*
X1400767Y4748283D1*
Y4721717D1*
X1396613Y4695480D1*
X1388403Y4670217D1*
X1376343Y4646547D1*
X1360730Y4625053D1*
X1343890Y4608070D1*
X1360730Y4590947D1*
X1376343Y4569453D1*
X1388403Y4545783D1*
X1396613Y4520520D1*
X1400767Y4494283D1*
Y4467717D1*
X1396613Y4441480D1*
X1388403Y4416217D1*
X1376343Y4392547D1*
X1360730Y4371053D1*
X1343890Y4354070D1*
X1360730Y4336947D1*
X1376343Y4315453D1*
X1388403Y4291783D1*
X1396613Y4266520D1*
X1400767Y4240283D1*
Y4213717D1*
X1396613Y4187480D1*
X1388403Y4162217D1*
X1376343Y4138547D1*
X1360730Y4117053D1*
X1343890Y4100070D1*
X1360730Y4082947D1*
X1376343Y4061453D1*
X1388403Y4037783D1*
X1396613Y4012520D1*
X1400767Y3986283D1*
Y3959717D1*
X1396613Y3933480D1*
X1388403Y3908217D1*
X1376343Y3884547D1*
X1360730Y3863053D1*
X1343890Y3846070D1*
X1360730Y3828947D1*
X1376343Y3807453D1*
X1388403Y3783783D1*
X1396613Y3758520D1*
X1400767Y3732283D1*
Y3705717D1*
X1396613Y3679480D1*
X1388403Y3654217D1*
X1376343Y3630547D1*
X1360730Y3609053D1*
X1343890Y3592070D1*
X1360730Y3574947D1*
X1376343Y3553453D1*
X1388403Y3529783D1*
X1396613Y3504520D1*
X1400767Y3478283D1*
Y3451717D1*
X1396613Y3425480D1*
X1388403Y3400217D1*
X1376343Y3376547D1*
X1360730Y3355053D1*
X1343890Y3338070D1*
X1360730Y3320947D1*
X1376343Y3299453D1*
X1388403Y3275783D1*
X1396613Y3250520D1*
X1400767Y3224283D1*
Y3197717D1*
X1396613Y3171480D1*
X1388403Y3146217D1*
X1378450Y3126307D1*
X2512460Y7419290D2*
X2819290D1*
Y7396593D1*
X2839217Y7406403D1*
X2864480Y7414613D1*
X2890717Y7418767D1*
X2917283D1*
X2943520Y7414613D1*
X2968783Y7406403D1*
X2992453Y7394343D1*
X3013947Y7378730D1*
X3032730Y7359947D1*
X3048343Y7338453D1*
X3060403Y7314783D1*
X3068613Y7289520D1*
X3072767Y7263283D1*
Y7236717D1*
X3068613Y7210480D1*
X3060403Y7185217D1*
X3048343Y7161547D1*
X3032730Y7140053D1*
X3013947Y7121270D1*
X2992453Y7105657D1*
X2968783Y7093597D1*
X2943520Y7085387D1*
X2917283Y7081233D1*
X2890717D1*
X2864480Y7085387D1*
X2839217Y7093597D1*
X2819307Y7103550D1*
X2819290Y7080710D1*
X2480710D1*
Y7419290D1*
X2512460D1*
X2762460Y7069290D2*
X3069290D1*
Y6730710D1*
X2730710D1*
Y6753407D1*
X2710783Y6743597D1*
X2685520Y6735387D1*
X2659283Y6731233D1*
X2632717D1*
X2606480Y6735387D1*
X2581217Y6743597D1*
X2557547Y6755657D1*
X2536053Y6771270D1*
X2517270Y6790053D1*
X2501657Y6811547D1*
X2489597Y6835217D1*
X2481387Y6860480D1*
X2477233Y6886717D1*
Y6913283D1*
X2481387Y6939520D1*
X2489597Y6964783D1*
X2501657Y6988453D1*
X2517270Y7009947D1*
X2536053Y7028730D1*
X2557547Y7044343D1*
X2581217Y7056403D1*
X2606480Y7064613D1*
X2632717Y7068767D1*
X2659283D1*
X2685520Y7064613D1*
X2710783Y7056403D1*
X2730693Y7046450D1*
X2730710Y7069290D1*
X2762460D1*
X3361383Y4569290D2*
X3668213D1*
Y4230710D1*
X3329633D1*
Y4253407D1*
X3309707Y4243597D1*
X3284443Y4235387D1*
X3258207Y4231233D1*
X3231640D1*
X3205403Y4235387D1*
X3180140Y4243597D1*
X3156470Y4255657D1*
X3134977Y4271270D1*
X3116193Y4290053D1*
X3100580Y4311547D1*
X3088520Y4335217D1*
X3080310Y4360480D1*
X3076157Y4386717D1*
Y4413283D1*
X3080310Y4439520D1*
X3088520Y4464783D1*
X3100580Y4488453D1*
X3116193Y4509947D1*
X3134977Y4528730D1*
X3156470Y4544343D1*
X3180140Y4556403D1*
X3205403Y4564613D1*
X3231640Y4568767D1*
X3258207D1*
X3284443Y4564613D1*
X3309707Y4556403D1*
X3329617Y4546450D1*
X3329633Y4569290D1*
X3361383D1*
X3961383D2*
X4268213D1*
Y4292593D1*
X4291017Y4292587D1*
X4396547Y4398210D1*
X4396510Y4882407D1*
X3974270Y4882587D1*
X3958647Y4885060D1*
X3943607Y4889950D1*
X3935743Y4893640D1*
X3959087Y4870593D1*
X3974367Y4862810D1*
X3988240Y4852727D1*
X4000367Y4840600D1*
X4006630Y4832440D1*
X4018220Y4823807D1*
X4030347Y4811680D1*
X4040430Y4797807D1*
X4048213Y4782527D1*
X4053513Y4766217D1*
X4056197Y4749277D1*
Y4732130D1*
X4053513Y4715190D1*
X4048213Y4698880D1*
X4040430Y4683600D1*
X4030347Y4669727D1*
X4018220Y4657600D1*
X4004347Y4647517D1*
X3989067Y4639733D1*
X3972757Y4634433D1*
X3955817Y4631750D1*
X3938670D1*
X3921730Y4634433D1*
X3905420Y4639733D1*
X3890140Y4647517D1*
X3876267Y4657600D1*
X3864140Y4669727D1*
X3857877Y4677887D1*
X3846287Y4686520D1*
X3834160Y4698647D1*
X3824077Y4712520D1*
X3816120Y4728270D1*
X3752070Y4792280D1*
X3650027Y4791973D1*
X3634183Y4785410D1*
X3617507Y4781407D1*
X3600410Y4780060D1*
X3583313Y4781407D1*
X3566883Y4785060D1*
X3549787Y4783713D1*
X3532690Y4785060D1*
X3516013Y4789063D1*
X3500170Y4795627D1*
X3485547Y4804587D1*
X3472507Y4815723D1*
X3461370Y4828763D1*
X3452410Y4843387D1*
X3445847Y4859230D1*
X3441843Y4875907D1*
X3440497Y4893003D1*
X3441843Y4910100D1*
X3445847Y4926777D1*
X3452410Y4942620D1*
X3461370Y4957243D1*
X3472507Y4970283D1*
X3485547Y4981420D1*
X3500170Y4990380D1*
X3516013Y4996943D1*
X3532690Y5000947D1*
X3549787Y5002293D1*
X3566883Y5000947D1*
X3583313Y4997293D1*
X3600410Y4998640D1*
X3617507Y4997293D1*
X3632537Y4993757D1*
X3801790Y4993483D1*
X3817413Y4991010D1*
X3832453Y4986120D1*
X3840317Y4982430D1*
X3712000Y5110450D1*
X3696720Y5118233D1*
X3682847Y5128317D1*
X3670720Y5140443D1*
X3660637Y5154317D1*
X3652853Y5169597D1*
X3647553Y5185907D1*
X3644870Y5202847D1*
Y5219993D1*
X3648890Y5241677D1*
X3647440Y5259470D1*
X3648787Y5276567D1*
X3652790Y5293243D1*
X3659353Y5309087D1*
X3668313Y5323710D1*
X3679450Y5336750D1*
X3692490Y5347887D1*
X3707113Y5356847D1*
X3722957Y5363410D1*
X3739633Y5367413D1*
X3756730Y5368760D1*
X3773827Y5367413D1*
X3790503Y5363410D1*
X3806347Y5356847D1*
X3820970Y5347887D1*
X3834010Y5336750D1*
X3845147Y5323710D1*
X3854107Y5309087D1*
X3860670Y5293243D1*
X3864673Y5276567D1*
X3866020Y5259470D1*
X3864750Y5243007D1*
X4023903Y5083880D1*
X4396290Y5083857D1*
X4417950Y5091493D1*
X4434890Y5094177D1*
X4452037D1*
X4468977Y5091493D1*
X4474493Y5089937D1*
X4488727Y5092020D1*
X4505873D1*
X4522813Y5089337D1*
X4539123Y5084037D1*
X4554403Y5076253D1*
X4568277Y5066170D1*
X4580403Y5054043D1*
X4590487Y5040170D1*
X4598270Y5024890D1*
X4603570Y5008580D1*
X4606253Y4991640D1*
Y4974493D1*
X4603570Y4957553D1*
X4598060Y4940787D1*
X4597780Y4348517D1*
X4595307Y4332893D1*
X4590417Y4317853D1*
X4583237Y4303760D1*
X4573940Y4290967D1*
X4433867Y4150450D1*
X4398130Y4115157D1*
X4385337Y4105860D1*
X4371243Y4098680D1*
X4356203Y4093790D1*
X4340580Y4091317D1*
X4142173Y4091007D1*
X4135353D1*
X4104387Y4059693D1*
X4096603Y4044413D1*
X4086520Y4030540D1*
X4074393Y4018413D1*
X4060520Y4008330D1*
X4045240Y4000547D1*
X4028930Y3995247D1*
X4011990Y3992563D1*
X3994843D1*
X3977903Y3995247D1*
X3961593Y4000547D1*
X3946313Y4008330D1*
X3932440Y4018413D1*
X3917470Y4034143D1*
X3903683Y4041310D1*
X3889810Y4051393D1*
X3877683Y4063520D1*
X3867600Y4077393D1*
X3859817Y4092673D1*
X3854517Y4108983D1*
X3851833Y4125923D1*
Y4143070D1*
X3854517Y4160010D1*
X3859817Y4176320D1*
X3867600Y4191600D1*
X3877683Y4205473D1*
X3889810Y4217600D1*
X3903683Y4227683D1*
X3918963Y4235467D1*
X3929627Y4239173D1*
X3921780Y4249160D1*
X3897237Y4238997D1*
X3871407Y4232793D1*
X3844923Y4230710D1*
X3818440Y4232793D1*
X3792610Y4238997D1*
X3768067Y4249160D1*
X3745417Y4263040D1*
X3725217Y4280293D1*
X3707963Y4300493D1*
X3694083Y4323143D1*
X3683920Y4347687D1*
X3677717Y4373517D1*
X3675633Y4400000D1*
X3677717Y4426483D1*
X3683920Y4452313D1*
X3694083Y4476857D1*
X3707963Y4499507D1*
X3725217Y4519707D1*
X3745417Y4536960D1*
X3768067Y4550840D1*
X3792610Y4561003D1*
X3818440Y4567207D1*
X3844923Y4569290D1*
X3871407Y4567207D1*
X3897237Y4561003D1*
X3921780Y4550840D1*
X3929617Y4546450D1*
X3929633Y4569290D1*
X3961383D1*
X2108800Y5937503D2*
X2104890Y5912813D1*
X2097163Y5889043D1*
X2085817Y5866770D1*
X2071127Y5846550D1*
X2053450Y5828873D1*
X2033230Y5814183D1*
X2010957Y5802837D1*
X1987187Y5795110D1*
X1962497Y5791200D1*
X1937503D1*
X1912813Y5795110D1*
X1889043Y5802837D1*
X1866770Y5814183D1*
X1846153Y5829240D1*
X1846523Y2635970D1*
X1875430Y2611157D1*
X1886567Y2598117D1*
X1895527Y2583493D1*
X1902090Y2567650D1*
X1906093Y2550973D1*
X1907440Y2533877D1*
X1906093Y2516780D1*
X1902090Y2500103D1*
X1895527Y2484260D1*
X1886567Y2469637D1*
X1875430Y2456597D1*
X1862390Y2445460D1*
X1847767Y2436500D1*
X1831923Y2429937D1*
X1815247Y2425933D1*
X1798150Y2424587D1*
X1781053Y2425933D1*
X1764377Y2429937D1*
X1748533Y2436500D1*
X1733910Y2445460D1*
X1720870Y2456597D1*
X1709733Y2469637D1*
X1700773Y2484260D1*
X1695150Y2497557D1*
X1681140Y2506200D1*
X1668100Y2517337D1*
X1656963Y2530377D1*
X1648003Y2545000D1*
X1641440Y2560843D1*
X1637437Y2577520D1*
X1636090Y2594617D1*
X1637437Y2611713D1*
X1641440Y2628390D1*
X1644620Y2636897D1*
X1644627Y6104687D1*
X1633813Y6126143D1*
X1628513Y6142453D1*
X1625830Y6159393D1*
Y6176540D1*
X1628513Y6193480D1*
X1633813Y6209790D1*
X1641597Y6225070D1*
X1651680Y6238943D1*
X1663807Y6251070D1*
X1677680Y6261153D1*
X1692960Y6268937D1*
X1709270Y6274237D1*
X1726210Y6276920D1*
X1743357D1*
X1760297Y6274237D1*
X1776607Y6268937D1*
X1791887Y6261153D1*
X1805760Y6251070D1*
X1817887Y6238943D1*
X1825530Y6228723D1*
X1838240Y6220767D1*
X1851280Y6209630D1*
X1862417Y6196590D1*
X1871377Y6181967D1*
X1877940Y6166123D1*
X1881943Y6149447D1*
X1883290Y6132350D1*
X1881943Y6115253D1*
X1877940Y6098577D1*
X1874957Y6090497D1*
X1900777Y6101493D1*
X1925080Y6107330D1*
X1950000Y6109290D1*
X1974920Y6107330D1*
X1999223Y6101493D1*
X2022317Y6091930D1*
X2043627Y6078867D1*
X2062637Y6062637D1*
X2078867Y6043627D1*
X2091930Y6022317D1*
X2101493Y5999223D1*
X2107330Y5974920D1*
X2109290Y5950000D1*
X2108800Y5937503D1*
X2658800Y4487503D2*
X2654890Y4462813D1*
X2647163Y4439043D1*
X2635817Y4416770D1*
X2621127Y4396550D1*
X2603450Y4378873D1*
X2583230Y4364183D1*
X2560957Y4352837D1*
X2537187Y4345110D1*
X2512497Y4341200D1*
X2487503D1*
X2462813Y4345110D1*
X2439043Y4352837D1*
X2416770Y4364183D1*
X2396550Y4378873D1*
X2378873Y4396550D1*
X2364183Y4416770D1*
X2352837Y4439043D1*
X2345110Y4462813D1*
X2341200Y4487503D1*
Y4512497D1*
X2345110Y4537187D1*
X2352837Y4560957D1*
X2364183Y4583230D1*
X2378873Y4603450D1*
X2396550Y4621127D1*
X2416770Y4635817D1*
X2439043Y4647163D1*
X2462813Y4654890D1*
X2487503Y4658800D1*
X2512497D1*
X2537187Y4654890D1*
X2560957Y4647163D1*
X2583230Y4635817D1*
X2603450Y4621127D1*
X2621127Y4603450D1*
X2635817Y4583230D1*
X2647163Y4560957D1*
X2654890Y4537187D1*
X2658800Y4512497D1*
Y4487503D1*
X3905473Y1570393D2*
X3901563Y1545703D1*
X3893837Y1521933D1*
X3882490Y1499660D1*
X3867800Y1479440D1*
X3850123Y1461763D1*
X3829903Y1447073D1*
X3807630Y1435727D1*
X3783860Y1428000D1*
X3759170Y1424090D1*
X3734177D1*
X3709487Y1428000D1*
X3685717Y1435727D1*
X3663443Y1447073D1*
X3643223Y1461763D1*
X3625547Y1479440D1*
X3610857Y1499660D1*
X3599510Y1521933D1*
X3591783Y1545703D1*
X3587873Y1570393D1*
Y1595387D1*
X3591783Y1620077D1*
X3599510Y1643847D1*
X3610857Y1666120D1*
X3625547Y1686340D1*
X3643223Y1704017D1*
X3663443Y1718707D1*
X3685717Y1730053D1*
X3709487Y1737780D1*
X3734177Y1741690D1*
X3759170D1*
X3783860Y1737780D1*
X3807630Y1730053D1*
X3829903Y1718707D1*
X3850123Y1704017D1*
X3867800Y1686340D1*
X3882490Y1666120D1*
X3893837Y1643847D1*
X3901563Y1620077D1*
X3905473Y1595387D1*
Y1570393D1*
X3605907Y1416667D2*
X3601997Y1391977D1*
X3594270Y1368207D1*
X3582923Y1345933D1*
X3568233Y1325713D1*
X3550557Y1308037D1*
X3530337Y1293347D1*
X3508063Y1282000D1*
X3484293Y1274273D1*
X3459603Y1270363D1*
X3434610D1*
X3409920Y1274273D1*
X3386150Y1282000D1*
X3363877Y1293347D1*
X3343657Y1308037D1*
X3325980Y1325713D1*
X3311290Y1345933D1*
X3299943Y1368207D1*
X3292217Y1391977D1*
X3288307Y1416667D1*
Y1441660D1*
X3292217Y1466350D1*
X3299943Y1490120D1*
X3311290Y1512393D1*
X3325980Y1532613D1*
X3343657Y1550290D1*
X3363877Y1564980D1*
X3386150Y1576327D1*
X3409920Y1584053D1*
X3434610Y1587963D1*
X3459603D1*
X3484293Y1584053D1*
X3508063Y1576327D1*
X3530337Y1564980D1*
X3550557Y1550290D1*
X3568233Y1532613D1*
X3582923Y1512393D1*
X3594270Y1490120D1*
X3601997Y1466350D1*
X3605907Y1441660D1*
Y1416667D1*
X2431483Y2465543D2*
X2428800Y2448603D1*
X2423500Y2432293D1*
X2415717Y2417013D1*
X2406610Y2404377D1*
X2406823Y1860763D1*
X2412123Y1844453D1*
X2414807Y1827513D1*
Y1810367D1*
X2412123Y1793427D1*
X2406823Y1777117D1*
X2399040Y1761837D1*
X2388957Y1747963D1*
X2376830Y1735837D1*
X2362957Y1725753D1*
X2347677Y1717970D1*
X2331367Y1712670D1*
X2314427Y1709987D1*
X2297280D1*
X2280340Y1712670D1*
X2273017Y1714737D1*
X2256693Y1713520D1*
X2239597Y1714867D1*
X2222920Y1718870D1*
X2207077Y1725433D1*
X2192453Y1734393D1*
X2179413Y1745530D1*
X2168277Y1758570D1*
X2159317Y1773193D1*
X2152753Y1789037D1*
X2148750Y1805713D1*
X2147403Y1822810D1*
X2148750Y1839907D1*
X2152753Y1856583D1*
X2159317Y1872427D1*
X2168277Y1887050D1*
X2179413Y1900090D1*
X2192453Y1911227D1*
X2205117Y1919090D1*
X2205377Y2465380D1*
X2200710Y2485217D1*
X2195410Y2501527D1*
X2192727Y2518467D1*
Y2535613D1*
X2195410Y2552553D1*
X2200710Y2568863D1*
X2208493Y2584143D1*
X2218577Y2598017D1*
X2230703Y2610143D1*
X2244577Y2620227D1*
X2259857Y2628010D1*
X2276167Y2633310D1*
X2293107Y2635993D1*
X2310253D1*
X2327193Y2633310D1*
X2343503Y2628010D1*
X2358783Y2620227D1*
X2372657Y2610143D1*
X2384783Y2598017D1*
X2394867Y2584143D1*
X2402650Y2568863D1*
X2407950Y2552553D1*
X2410947Y2538357D1*
X2419907Y2523733D1*
X2426470Y2507890D1*
X2430473Y2491213D1*
X2431820Y2474117D1*
X2431483Y2465543D1*
X4846910Y1472617D2*
X4863093Y1475150D1*
X4880240D1*
X4897180Y1472467D1*
X4913490Y1467167D1*
X4928770Y1459383D1*
X4942643Y1449300D1*
X4954770Y1437173D1*
X4962077Y1427453D1*
X5439900Y1427667D1*
X5456210Y1432967D1*
X5473150Y1435650D1*
X5490297D1*
X5505757Y1433260D1*
X5524727Y1436443D1*
X5541873D1*
X5558813Y1433760D1*
X5575123Y1428460D1*
X5590403Y1420677D1*
X5604277Y1410593D1*
X5616403Y1398467D1*
X5626487Y1384593D1*
X5634270Y1369313D1*
X5639570Y1353003D1*
X5642253Y1336063D1*
Y1318917D1*
X5639570Y1301977D1*
X5634270Y1285667D1*
X5626487Y1270387D1*
X5616403Y1256513D1*
X5604277Y1244387D1*
X5590403Y1234303D1*
X5575123Y1226520D1*
X5558813Y1221220D1*
X5541873Y1218537D1*
X5524727D1*
X5509267Y1220927D1*
X5490297Y1217743D1*
X5473150D1*
X5456210Y1220427D1*
X5439443Y1225937D1*
X4903260Y1226217D1*
X4887637Y1228690D1*
X4872597Y1233580D1*
X4858503Y1240760D1*
X4845710Y1250057D1*
X4835250Y1260077D1*
X4816093Y1258460D1*
X4798997Y1259807D1*
X4782320Y1263810D1*
X4766477Y1270373D1*
X4751853Y1279333D1*
X4738813Y1290470D1*
X4727677Y1303510D1*
X4718717Y1318133D1*
X4712153Y1333977D1*
X4708150Y1350653D1*
X4706803Y1367750D1*
X4708150Y1384847D1*
X4712153Y1401523D1*
X4718717Y1417367D1*
X4727677Y1431990D1*
X4738813Y1445030D1*
X4751853Y1456167D1*
X4766477Y1465127D1*
X4782320Y1471690D1*
X4798997Y1475693D1*
X4816093Y1477040D1*
X4833190Y1475693D1*
X4846673Y1472593D1*
D19*
X1232000Y2957000D3*
D20*
Y3211000D3*
Y3465000D3*
Y3719000D3*
Y3973000D3*
Y4227000D3*
Y4481000D3*
Y4735000D3*
Y4989000D3*
Y5243000D3*
D19*
X5968000D3*
D20*
Y4989000D3*
Y4735000D3*
Y4481000D3*
Y4227000D3*
Y3973000D3*
Y3719000D3*
Y3465000D3*
Y3211000D3*
Y2957000D3*
D19*
X3367623Y5750780D3*
D20*
X3113623D3*
D19*
X2650000Y7250000D3*
D20*
X2904000D3*
D19*
X3371250Y5450000D3*
D20*
X3117250D3*
D19*
X2900000Y6900000D3*
D20*
X2646000D3*
D19*
X3498923Y4400000D3*
D20*
X3244923D3*
D19*
X4098923D3*
D20*
X3844923D3*
D19*
X3047217Y2897373D3*
D20*
X2793217D3*
D19*
X2797217Y3197373D3*
D20*
X3051217D3*
D21*
X1950000Y5950000D3*
X2479900Y4868217D3*
X2361393Y3812800D3*
X2500000Y4500000D3*
X3746673Y1582890D3*
X3447107Y1429163D3*
X4323250Y2288070D3*
M02*
