G04 DipTrace 3.0.0.2*
G04 Bottom.gbr*
%MOMM*%
G04 #@! TF.FileFunction,Copper,L2,Bot*
G04 #@! TF.Part,Single*
G04 #@! TA.AperFunction,Conductor*
%ADD13C,0.33*%
G04 #@! TA.AperFunction,CopperBalancing*
%ADD14C,0.635*%
G04 #@! TA.AperFunction,ComponentPad*
%ADD18R,1.7X1.7*%
%ADD19C,1.7*%
%ADD20C,1.5*%
G04 #@! TA.AperFunction,ViaPad*
%ADD24C,1.016*%
%FSLAX35Y35*%
G04*
G71*
G90*
G75*
G01*
G04 Bottom*
%LPD*%
X5081677Y4147260D2*
D13*
X5132153Y4096783D1*
X5464557D1*
X2480170Y5286637D2*
X2506500Y5260307D1*
X2739110D1*
X3117123Y4882293D1*
Y4820920D1*
X3936047Y5404257D2*
X3926393Y5394603D1*
X3612587D1*
X3117123Y4899140D1*
Y4820920D1*
X5321617Y5114593D2*
X5292650Y5143560D1*
X4187090D1*
X3936047Y5394603D1*
Y5404257D1*
X5464557Y4096783D2*
X5485697D1*
X5425953Y4156527D1*
Y5040007D1*
X5351367Y5114593D1*
X5321617D1*
X2232727Y4482553D2*
X2259280Y4509107D1*
Y5162300D1*
X2383617Y5286637D1*
X2480170D1*
X4110880Y6246900D2*
X3628467Y6729313D1*
Y6946947D1*
X4876890Y3334083D2*
X4863723Y3320917D1*
X4569667D1*
X4871667Y1366197D2*
X4911167Y1326697D1*
X5481723D1*
X3753823Y5211420D2*
X3982177Y4983067D1*
X4497300D1*
X4003417Y4101517D2*
X4093697Y4191797D1*
X4332673D1*
X4497300Y4356423D1*
Y4983067D1*
X3629857Y3340363D2*
X3625413Y3344807D1*
X3502670D1*
Y3125360D1*
X3542507Y3085523D1*
X5827720D1*
X5968000Y2945243D1*
Y2957000D1*
X5697150Y4899807D2*
X5787813Y4809143D1*
Y3371653D1*
X3540413Y5994167D2*
X3554897Y6008650D1*
Y6100380D1*
X3690073D1*
X3844563Y5945890D1*
Y5883130D1*
X4293547Y5434147D1*
X5452210D1*
X5697150Y5189207D1*
Y4899807D1*
X3648277Y3215173D2*
X3652450Y3211000D1*
X5660073D1*
X5968000D1*
X5559077Y4825460D2*
X5660073Y4724463D1*
Y3211000D1*
X3675590Y5907267D2*
X4264577Y5318280D1*
X5326687D1*
X5559077Y5085890D1*
Y4825460D1*
X1774000Y6132350D2*
X1745380Y6103730D1*
Y2594617D1*
X2322530Y2474117D2*
X2305853Y2457440D1*
Y1818940D1*
X5406873Y2129023D2*
X4461640D1*
X4383467Y2207197D1*
X4085517Y2505147D1*
X2635693D1*
X2512623Y2628217D1*
Y3711567D1*
X2747217Y3946160D1*
Y4011093D1*
X4323250Y2288070D2*
X4383467Y2227853D1*
Y2207197D1*
X2577113Y5069693D2*
X2955110Y4691697D1*
Y3937970D1*
X3217980Y3675100D1*
Y2711237D1*
X3311447Y2617770D1*
X4351250D1*
X4560057Y2408963D1*
Y2327227D1*
X4353263Y3739803D2*
X4253393Y3839673D1*
X3663370D1*
X3224450Y2345890D2*
X3238490Y2331850D1*
X3661293D1*
X4004350Y6010990D2*
X3974913D1*
Y6148657D1*
X3777890Y6345680D1*
X3090153D1*
X3917263Y4769623D2*
X3793883Y4893003D1*
X3549787D1*
X2037793Y3839337D2*
X2384347Y3492783D1*
Y3471743D1*
X3353890Y3519620D2*
X3425707Y3591440D1*
X4682523D1*
X4862070Y3770983D1*
Y4261740D1*
X4969797Y4369470D1*
X5201210D1*
X5308623Y4262057D1*
Y4244443D1*
D24*
X3549787Y4893003D3*
X3917263Y4769623D3*
X3663370Y3839673D3*
X3224450Y2345890D3*
X3090153Y6345680D3*
X4353263Y3739803D3*
X3661293Y2331850D3*
X4004350Y6010990D3*
X1774000Y6132350D3*
X1745380Y2594617D3*
X2322530Y2474117D3*
X2305853Y1818940D3*
X2747217Y4011093D3*
X5406873Y2129023D3*
X2577113Y5069693D3*
X4560057Y2327227D3*
X2037793Y3839337D3*
X3753823Y5211420D3*
X4003417Y4101517D3*
X4497300Y4983067D3*
X3629857Y3340363D3*
X3648277Y3215173D3*
X5464557Y4096783D3*
X5081677Y4147260D3*
X5697150Y4899807D3*
X5559077Y4825460D3*
X5787813Y3371653D3*
X3540413Y5994167D3*
X3675590Y5907267D3*
X3117123Y4820920D3*
X2480170Y5286637D3*
X4871667Y1366197D3*
X5481723Y1326697D3*
X3936047Y5404257D3*
X5321617Y5114593D3*
X2232727Y4482553D3*
X3628467Y6946947D3*
X4110880Y6246900D3*
X4569667Y3320917D3*
X4876890Y3334083D3*
X5539610Y4306500D3*
X5308623Y4244443D3*
X2384347Y3471743D3*
X3353890Y3519620D3*
X1104100Y7639083D2*
D14*
X6095932D1*
X1104100Y7575917D2*
X6095932D1*
X1104100Y7512750D2*
X6095932D1*
X1104100Y7449583D2*
X6095932D1*
X1104100Y7386417D2*
X2491314D1*
X2978032D2*
X6095932D1*
X1104100Y7323250D2*
X2491314D1*
X3043889D2*
X6095932D1*
X1104100Y7260083D2*
X2491314D1*
X3062244D2*
X6095932D1*
X1104100Y7196917D2*
X2491314D1*
X3053066D2*
X6095932D1*
X1104100Y7133750D2*
X2491314D1*
X3008666D2*
X6095932D1*
X1104100Y7070583D2*
X6095932D1*
X1104100Y7007417D2*
X2531746D1*
X3058647D2*
X6095932D1*
X1104100Y6944250D2*
X2493919D1*
X3058647D2*
X6095932D1*
X1104100Y6881083D2*
X2488586D1*
X3058647D2*
X6095932D1*
X1104100Y6817917D2*
X2511406D1*
X3058647D2*
X6095932D1*
X1104100Y6754750D2*
X2593882D1*
X2698111D2*
X2741398D1*
X3058647D2*
X6095932D1*
X1104100Y6691583D2*
X6095932D1*
X1104100Y6628417D2*
X6095932D1*
X1104100Y6565250D2*
X6095932D1*
X1104100Y6502083D2*
X6095932D1*
X1104100Y6438917D2*
X3011345D1*
X3169028D2*
X6095932D1*
X1104100Y6375750D2*
X2969549D1*
X3872613D2*
X6095932D1*
X1104100Y6312583D2*
X2970417D1*
X3935741D2*
X6095932D1*
X1104100Y6249417D2*
X1752135D1*
X1795888D2*
X3015438D1*
X3164935D2*
X3749408D1*
X3998993D2*
X6095932D1*
X1104100Y6186250D2*
X1662590D1*
X1885386D2*
X3812536D1*
X4056168D2*
X6095932D1*
X1104100Y6123083D2*
X1649939D1*
X1898036D2*
X3467875D1*
X3792122D2*
X3875664D1*
X4064973D2*
X6095932D1*
X1104100Y6059917D2*
X1655272D1*
X2046740D2*
X3436001D1*
X4118180D2*
X6095932D1*
X1104100Y5996750D2*
X1655272D1*
X2090768D2*
X3416033D1*
X4127977D2*
X6095932D1*
X1104100Y5933583D2*
X1655272D1*
X2097714D2*
X3432652D1*
X4099824D2*
X6095932D1*
X1104100Y5870417D2*
X1655272D1*
X2074273D2*
X3557048D1*
X3982126D2*
X6095932D1*
X1104100Y5807250D2*
X1655272D1*
X1835528D2*
X3002787D1*
X3529936D2*
X3606409D1*
X4045254D2*
X6095932D1*
X1104100Y5744083D2*
X1655272D1*
X1835528D2*
X2965084D1*
X3529936D2*
X3713938D1*
X4108382D2*
X6095932D1*
X1104100Y5680917D2*
X1655272D1*
X1835528D2*
X2959751D1*
X3529936D2*
X3777189D1*
X4171634D2*
X6095932D1*
X1104100Y5617750D2*
X1655272D1*
X1835528D2*
X2982695D1*
X3529936D2*
X3840317D1*
X4234762D2*
X6095932D1*
X1104100Y5554583D2*
X1655272D1*
X1835528D2*
X3000183D1*
X3529936D2*
X3903445D1*
X4297889D2*
X6095932D1*
X1104100Y5491417D2*
X1655272D1*
X1835528D2*
X2964340D1*
X3529936D2*
X3966697D1*
X5519768D2*
X6095932D1*
X1104100Y5428250D2*
X1655272D1*
X1835528D2*
X2960123D1*
X3529936D2*
X4029825D1*
X5582896D2*
X6095932D1*
X1329389Y5365083D2*
X1655272D1*
X1835528D2*
X2984432D1*
X3529936D2*
X4092953D1*
X5646024D2*
X5809314D1*
X1378750Y5301917D2*
X1655272D1*
X1835528D2*
X3075341D1*
X3159106D2*
X3212635D1*
X3529936D2*
X3671646D1*
X3836026D2*
X4156081D1*
X5709276D2*
X5809314D1*
X1390532Y5238750D2*
X1655272D1*
X1835528D2*
X3632578D1*
X3875094D2*
X4231983D1*
X5771040D2*
X5809314D1*
X1374905Y5175583D2*
X1655272D1*
X1835528D2*
X2518476D1*
X2635727D2*
X3634935D1*
X3914409D2*
X5344598D1*
X1327528Y5112417D2*
X1655272D1*
X1835528D2*
X2460681D1*
X2693522D2*
X3683056D1*
X3977661D2*
X5407726D1*
X1378254Y5049250D2*
X1655272D1*
X1835528D2*
X2454480D1*
X2722296D2*
X3791204D1*
X4601499D2*
X5468993D1*
X5787287D2*
X5821871D1*
X1390656Y4986083D2*
X1655272D1*
X1835528D2*
X2393832D1*
X2785548D2*
X3470728D1*
X3628783D2*
X3854332D1*
X4621715D2*
X5468993D1*
X1375525Y4922917D2*
X1655272D1*
X1835528D2*
X2342238D1*
X2848676D2*
X3429180D1*
X4605220D2*
X5468993D1*
X1325668Y4859750D2*
X1655272D1*
X1835528D2*
X2331572D1*
X2628286D2*
X2662206D1*
X2911804D2*
X3430172D1*
X3999861D2*
X4407229D1*
X4587360D2*
X5439724D1*
X1377634Y4796583D2*
X1655272D1*
X1835528D2*
X2350548D1*
X2609186D2*
X2725471D1*
X2975056D2*
X3475316D1*
X3624318D2*
X3765531D1*
X4038556D2*
X4407229D1*
X4587360D2*
X5438235D1*
X1390656Y4733417D2*
X1655272D1*
X1835528D2*
X2427939D1*
X2531796D2*
X2788599D1*
X3034091D2*
X3798522D1*
X4036076D2*
X4407229D1*
X4587360D2*
X5478791D1*
X1376145Y4670250D2*
X1655272D1*
X1835528D2*
X2851727D1*
X3045253D2*
X3847139D1*
X3987459D2*
X4407229D1*
X4587360D2*
X5569948D1*
X1323807Y4607083D2*
X1655272D1*
X1835528D2*
X2399909D1*
X2600009D2*
X2864997D1*
X3045253D2*
X4407229D1*
X4587360D2*
X5569948D1*
X1377014Y4543917D2*
X1655272D1*
X1835528D2*
X2358361D1*
X2641681D2*
X2864997D1*
X3045253D2*
X3188822D1*
X3301113D2*
X3340172D1*
X3657556D2*
X3788724D1*
X3901014D2*
X3940262D1*
X4257582D2*
X4407229D1*
X4587360D2*
X5569948D1*
X1390656Y4480750D2*
X1655272D1*
X1835528D2*
X2352656D1*
X2647386D2*
X2864997D1*
X3045253D2*
X3109447D1*
X3657556D2*
X3709473D1*
X4257582D2*
X4407229D1*
X4587360D2*
X5569948D1*
X1376765Y4417583D2*
X1655272D1*
X1835528D2*
X2377709D1*
X2622333D2*
X2864997D1*
X3045253D2*
X3087379D1*
X4257582D2*
X4407229D1*
X4587360D2*
X4893152D1*
X5277923D2*
X5493178D1*
X1323063Y4354417D2*
X1655272D1*
X1835528D2*
X2864997D1*
X3045253D2*
X3093324D1*
X3657556D2*
X3693238D1*
X4257582D2*
X4370518D1*
X4587360D2*
X4829900D1*
X5358042D2*
X5425337D1*
X1376393Y4291250D2*
X1655272D1*
X1835528D2*
X2864997D1*
X3045253D2*
X3132020D1*
X3657556D2*
X3731921D1*
X4257582D2*
X4307266D1*
X4556974D2*
X4777314D1*
X1390656Y4228083D2*
X1655272D1*
X1835528D2*
X2864997D1*
X3045253D2*
X4005145D1*
X4493722D2*
X4771981D1*
X4953229D2*
X5185352D1*
X1377386Y4164917D2*
X1655272D1*
X1835528D2*
X2864997D1*
X3045253D2*
X3897492D1*
X4430595D2*
X4771981D1*
X4952237D2*
X5214993D1*
X5402318D2*
X5569948D1*
X1324924Y4101750D2*
X1655272D1*
X1835528D2*
X2665195D1*
X2829204D2*
X2864957D1*
X3045253D2*
X3879013D1*
X4128473D2*
X4771981D1*
X4952237D2*
X5569948D1*
X1375773Y4038583D2*
X1655272D1*
X1835528D2*
X2626004D1*
X3045253D2*
X3897120D1*
X4109746D2*
X4771981D1*
X4952237D2*
X5569948D1*
X1390656Y3975417D2*
X1655272D1*
X1835528D2*
X2628236D1*
X3045253D2*
X4771981D1*
X4952237D2*
X5569948D1*
X1378006Y3912250D2*
X1655272D1*
X1835528D2*
X1938542D1*
X2137029D2*
X2253314D1*
X2469536D2*
X2588549D1*
X2830196D2*
X2869096D1*
X3105652D2*
X3563869D1*
X4301610D2*
X4771981D1*
X4952237D2*
X5569948D1*
X1326908Y3849083D2*
X1655272D1*
X1835528D2*
X1913737D1*
X2161834D2*
X2217471D1*
X2774882D2*
X2919195D1*
X3168780D2*
X3539313D1*
X4404426D2*
X4771981D1*
X4952237D2*
X5569948D1*
X1375153Y3785917D2*
X1655272D1*
X1835528D2*
X1926140D1*
X2711754D2*
X2982323D1*
X3231908D2*
X3551839D1*
X4468298D2*
X4752262D1*
X4952237D2*
X5569948D1*
X1390532Y3722750D2*
X1655272D1*
X1835528D2*
X2012708D1*
X2648626D2*
X3045575D1*
X3293176D2*
X3640516D1*
X3686250D2*
X4230123D1*
X4476483D2*
X4689010D1*
X4936858D2*
X5569948D1*
X1378626Y3659583D2*
X1655272D1*
X1835528D2*
X2092703D1*
X2602737D2*
X3108703D1*
X3308058D2*
X3370641D1*
X4875467D2*
X5569948D1*
X1328768Y3596417D2*
X1655272D1*
X1835528D2*
X2155955D1*
X2602737D2*
X3127927D1*
X4812339D2*
X5569948D1*
X1374533Y3533250D2*
X1655272D1*
X1835528D2*
X2219083D1*
X2602737D2*
X3127927D1*
X4749087D2*
X5569948D1*
X1390532Y3470083D2*
X1655272D1*
X1835528D2*
X2259887D1*
X2602737D2*
X3127927D1*
X3467429D2*
X5569948D1*
X1379122Y3406917D2*
X1655272D1*
X1835528D2*
X2279234D1*
X2602737D2*
X3127927D1*
X3395495D2*
X3440106D1*
X3733707D2*
X5569948D1*
X1330505Y3343750D2*
X1655272D1*
X1835528D2*
X2422481D1*
X2602737D2*
X2638561D1*
X2955832D2*
X3002787D1*
X3308058D2*
X3412561D1*
X3754295D2*
X5569948D1*
X1373789Y3280583D2*
X1655272D1*
X1835528D2*
X2422481D1*
X2602737D2*
X2638561D1*
X3308058D2*
X3412561D1*
X1390532Y3217417D2*
X1655272D1*
X1835528D2*
X2422481D1*
X2602737D2*
X2638561D1*
X3308058D2*
X3412561D1*
X1379618Y3154250D2*
X1655272D1*
X1835528D2*
X2422481D1*
X2602737D2*
X2638561D1*
X3308058D2*
X3412561D1*
X1390656Y3091083D2*
X1655272D1*
X1835528D2*
X2422481D1*
X2602737D2*
X2638561D1*
X3308058D2*
X3419878D1*
X1390656Y3027917D2*
X1655272D1*
X1835528D2*
X2422481D1*
X2602737D2*
X2708480D1*
X3308058D2*
X3475316D1*
X1390656Y2964750D2*
X1655272D1*
X1835528D2*
X2422481D1*
X2602737D2*
X2650313D1*
X3308058D2*
X5809562D1*
X1390656Y2901583D2*
X1655272D1*
X1835528D2*
X2422481D1*
X2602737D2*
X2634545D1*
X3308058D2*
X5819856D1*
X1390656Y2838417D2*
X1655272D1*
X1835528D2*
X2422481D1*
X2602737D2*
X2646369D1*
X3308058D2*
X5866116D1*
X1104100Y2775250D2*
X1655272D1*
X1835528D2*
X2422481D1*
X2602737D2*
X2695829D1*
X3308058D2*
X6095932D1*
X1104100Y2712083D2*
X1655272D1*
X1835528D2*
X2422481D1*
X2602737D2*
X3127927D1*
X3341917D2*
X6095932D1*
X1104100Y2648917D2*
X1634189D1*
X1856612D2*
X2422481D1*
X2616752D2*
X3155460D1*
X4444857D2*
X6095932D1*
X1104100Y2585750D2*
X1621290D1*
X1869511D2*
X2277622D1*
X2367341D2*
X2434140D1*
X4508109D2*
X6095932D1*
X1104100Y2522583D2*
X1645475D1*
X1845326D2*
X2208541D1*
X2436546D2*
X2493423D1*
X4571237D2*
X6095932D1*
X1104100Y2459417D2*
X2198991D1*
X2446096D2*
X2556675D1*
X4633249D2*
X6095932D1*
X1104100Y2396250D2*
X2215734D1*
X2417694D2*
X3111308D1*
X3766573D2*
X4069637D1*
X4662270D2*
X6095932D1*
X1104100Y2333083D2*
X2215734D1*
X2395990D2*
X3100766D1*
X3785673D2*
X4132765D1*
X4684347D2*
X6095932D1*
X1104100Y2269917D2*
X2215734D1*
X2395990D2*
X3127679D1*
X3768185D2*
X4175801D1*
X4669712D2*
X6095932D1*
X1104100Y2206750D2*
X2215734D1*
X2395990D2*
X4200109D1*
X5502157D2*
X6095932D1*
X1104100Y2143583D2*
X2215734D1*
X2395990D2*
X4322272D1*
X5530434D2*
X6095932D1*
X1104100Y2080417D2*
X2215734D1*
X2395990D2*
X4385400D1*
X5520885D2*
X6095932D1*
X1104100Y2017250D2*
X2215734D1*
X2395990D2*
X5362457D1*
X5451307D2*
X6095932D1*
X1104100Y1954083D2*
X2215734D1*
X2395990D2*
X6095932D1*
X1104100Y1890917D2*
X2205937D1*
X2405788D2*
X6095932D1*
X1104100Y1827750D2*
X2181752D1*
X2429972D2*
X6095932D1*
X1104100Y1764583D2*
X2194650D1*
X2417074D2*
X6095932D1*
X1104100Y1701417D2*
X2287916D1*
X2323684D2*
X3661600D1*
X3831809D2*
X6095932D1*
X1104100Y1638250D2*
X3609262D1*
X3884147D2*
X6095932D1*
X1104100Y1575083D2*
X3598224D1*
X3895061D2*
X6095932D1*
X1104100Y1511917D2*
X3325000D1*
X3569252D2*
X3616951D1*
X3876334D2*
X6095932D1*
X1104100Y1448750D2*
X3299823D1*
X3594429D2*
X3692854D1*
X3800431D2*
X4780911D1*
X4962407D2*
X6095932D1*
X1104100Y1385583D2*
X3305280D1*
X3588847D2*
X4748789D1*
X5590462D2*
X6095932D1*
X1104100Y1322417D2*
X3346704D1*
X3547548D2*
X4755610D1*
X5606089D2*
X6095932D1*
X1104100Y1259250D2*
X4815266D1*
X5585005D2*
X6095932D1*
X1104100Y1196083D2*
X6095932D1*
X1104100Y1132917D2*
X6095932D1*
X1345244Y3109290D2*
X1384290D1*
Y2804710D1*
X1097731D1*
X1097750Y1097750D1*
X6102250D1*
Y2885052D1*
X6091205Y2867486D1*
X6075685Y2849315D1*
X6057514Y2833795D1*
X6037138Y2821309D1*
X6015060Y2812164D1*
X5991823Y2806585D1*
X5968000Y2804710D1*
X5944177Y2806585D1*
X5920940Y2812164D1*
X5898862Y2821309D1*
X5878486Y2833795D1*
X5860315Y2849315D1*
X5844795Y2867486D1*
X5832309Y2887862D1*
X5823164Y2909940D1*
X5817585Y2933177D1*
X5815710Y2957000D1*
X5817206Y2977623D1*
X5792903Y3001844D1*
X3535933Y3001992D1*
X3516614Y3005834D1*
X3498726Y3014081D1*
X3483258Y3026275D1*
X3482682Y3026898D1*
X3438956Y3070943D1*
X3428013Y3087320D1*
X3421195Y3105800D1*
X3418880Y3125360D1*
X3418913Y3126207D1*
X3419138Y3351381D1*
X3422981Y3370699D1*
X3431227Y3388587D1*
X3443422Y3404055D1*
X3458890Y3416249D1*
X3476777Y3424496D1*
X3496096Y3428338D1*
X3551411Y3428597D1*
X3568155Y3441052D1*
X3584666Y3449464D1*
X3602289Y3455190D1*
X3620591Y3458089D1*
X3639122D1*
X3657424Y3455190D1*
X3675048Y3449464D1*
X3691559Y3441052D1*
X3706550Y3430160D1*
X3719653Y3417057D1*
X3730545Y3402065D1*
X3738958Y3385554D1*
X3744684Y3367931D1*
X3747583Y3349629D1*
Y3331098D1*
X3744684Y3312796D1*
X3738760Y3294745D1*
X5576426Y3294790D1*
X5576102Y4194190D1*
X5558083Y4189864D1*
X5539610Y4188410D1*
X5521137Y4189864D1*
X5503118Y4194190D1*
X5485998Y4201281D1*
X5470198Y4210963D1*
X5456108Y4222998D1*
X5444073Y4237088D1*
X5434391Y4252888D1*
X5427300Y4270008D1*
X5422974Y4288027D1*
X5421520Y4306500D1*
X5422974Y4324973D1*
X5427300Y4342992D1*
X5434391Y4360112D1*
X5444073Y4375912D1*
X5456108Y4390002D1*
X5470198Y4402037D1*
X5485998Y4411719D1*
X5503118Y4418810D1*
X5521137Y4423136D1*
X5539610Y4424590D1*
X5558083Y4423136D1*
X5576340Y4418723D1*
X5576283Y4689731D1*
X5549811Y4707734D1*
X5531509Y4710633D1*
X5513886Y4716359D1*
X5497375Y4724772D1*
X5482383Y4735664D1*
X5469280Y4748767D1*
X5458388Y4763758D1*
X5449976Y4780269D1*
X5444250Y4797892D1*
X5441351Y4816195D1*
Y4834725D1*
X5444250Y4853028D1*
X5449976Y4870651D1*
X5458388Y4887162D1*
X5469280Y4902153D1*
X5475304Y4908670D1*
X5475287Y5051307D1*
X5291897Y5234573D1*
X4258003Y5234748D1*
X4238684Y5238591D1*
X4220797Y5246837D1*
X4205328Y5259032D1*
X4204752Y5259654D1*
X3675195Y5789165D1*
X3657117Y5790631D1*
X3639098Y5794956D1*
X3621978Y5802048D1*
X3606178Y5811730D1*
X3592088Y5823764D1*
X3580053Y5837855D1*
X3570371Y5853655D1*
X3563280Y5870775D1*
X3561264Y5877921D1*
X3540413Y5876077D1*
X3521940Y5877531D1*
X3503922Y5881856D1*
X3486802Y5888948D1*
X3471002Y5898630D1*
X3456911Y5910664D1*
X3444877Y5924755D1*
X3435194Y5940555D1*
X3428103Y5957675D1*
X3423777Y5975693D1*
X3422323Y5994167D1*
X3423777Y6012640D1*
X3428103Y6030658D1*
X3435194Y6047778D1*
X3444877Y6063578D1*
X3456911Y6077669D1*
X3471152Y6089804D1*
X3472138Y6113488D1*
X3477485Y6132445D1*
X3487109Y6149631D1*
X3500479Y6164095D1*
X3516857Y6175038D1*
X3535336Y6181855D1*
X3554897Y6184170D1*
X3555744Y6184137D1*
X3696647Y6183912D1*
X3715966Y6180069D1*
X3733854Y6171823D1*
X3749322Y6159629D1*
X3749898Y6159006D1*
X3886731Y6022220D1*
X3891165Y6044379D1*
X3891123Y6114053D1*
X3743163Y6261910D1*
X3173276Y6261890D1*
X3159565Y6250143D1*
X3143765Y6240461D1*
X3126645Y6233370D1*
X3108627Y6229044D1*
X3090153Y6227590D1*
X3071680Y6229044D1*
X3053662Y6233370D1*
X3036542Y6240461D1*
X3020742Y6250143D1*
X3006651Y6262178D1*
X2994617Y6276268D1*
X2984934Y6292068D1*
X2977843Y6309188D1*
X2973517Y6327207D1*
X2972063Y6345680D1*
X2973517Y6364153D1*
X2977843Y6382172D1*
X2984934Y6399292D1*
X2994617Y6415092D1*
X3006651Y6429182D1*
X3020742Y6441217D1*
X3036542Y6450899D1*
X3053662Y6457990D1*
X3071680Y6462316D1*
X3090153Y6463770D1*
X3108627Y6462316D1*
X3126645Y6457990D1*
X3143765Y6450899D1*
X3159565Y6441217D1*
X3173363Y6429453D1*
X3784464Y6429212D1*
X3803783Y6425369D1*
X3821670Y6417123D1*
X3837139Y6404929D1*
X3837714Y6404306D1*
X4038628Y6203074D1*
X4049571Y6186697D1*
X4056388Y6168217D1*
X4058704Y6148657D1*
X4058670Y6147809D1*
X4058704Y6115790D1*
X4073762Y6106527D1*
X4087852Y6094492D1*
X4099887Y6080402D1*
X4109569Y6064602D1*
X4116660Y6047482D1*
X4120986Y6029463D1*
X4122440Y6010990D1*
X4120986Y5992517D1*
X4116660Y5974498D1*
X4109569Y5957378D1*
X4099887Y5941578D1*
X4087852Y5927488D1*
X4073762Y5915453D1*
X4057962Y5905771D1*
X4040842Y5898680D1*
X4022823Y5894354D1*
X4004350Y5892900D1*
X3985877Y5894354D1*
X3967858Y5898680D1*
X3950738Y5905771D1*
X3934938Y5915453D1*
X3928311Y5920678D1*
X3948713Y5897477D1*
X4328357Y5517834D1*
X5458784Y5517679D1*
X5478103Y5513836D1*
X5495990Y5505590D1*
X5511459Y5493395D1*
X5512034Y5492773D1*
X5760865Y5243624D1*
X5771808Y5227247D1*
X5778625Y5208767D1*
X5780940Y5189207D1*
X5780907Y5188359D1*
X5780940Y4982956D1*
X5792687Y4969218D1*
X5802369Y4953418D1*
X5809460Y4936298D1*
X5813786Y4918280D1*
X5815224Y4900205D1*
X5851528Y4863561D1*
X5862471Y4847183D1*
X5862890Y4846273D1*
X5862471Y4847183D1*
X5862890Y4846273D1*
X5884040Y4861916D1*
X5869096Y4873198D1*
X5852198Y4890096D1*
X5838151Y4909429D1*
X5827302Y4930721D1*
X5819918Y4953449D1*
X5816179Y4977051D1*
Y5000949D1*
X5819918Y5024551D1*
X5827302Y5047279D1*
X5838151Y5068571D1*
X5852198Y5087904D1*
X5854766Y5090683D1*
X5815710Y5090710D1*
Y5395290D1*
X6102269D1*
X6102250Y7702250D1*
X1097750D1*
Y5314923D1*
X1108795Y5332514D1*
X1124315Y5350685D1*
X1142486Y5366205D1*
X1162862Y5378691D1*
X1184940Y5387836D1*
X1208177Y5393415D1*
X1232000Y5395290D1*
X1255823Y5393415D1*
X1279060Y5387836D1*
X1301138Y5378691D1*
X1321514Y5366205D1*
X1339685Y5350685D1*
X1355205Y5332514D1*
X1367691Y5312138D1*
X1376836Y5290060D1*
X1382415Y5266823D1*
X1384290Y5243000D1*
X1382415Y5219177D1*
X1376836Y5195940D1*
X1367691Y5173862D1*
X1355205Y5153486D1*
X1339685Y5135315D1*
X1321514Y5119795D1*
X1315960Y5116084D1*
X1330904Y5104802D1*
X1347802Y5087904D1*
X1361849Y5068571D1*
X1372698Y5047279D1*
X1380082Y5024551D1*
X1383821Y5000949D1*
Y4977051D1*
X1380082Y4953449D1*
X1372698Y4930721D1*
X1361849Y4909429D1*
X1347802Y4890096D1*
X1330904Y4873198D1*
X1315960Y4862084D1*
X1330904Y4850802D1*
X1347802Y4833904D1*
X1361849Y4814571D1*
X1372698Y4793279D1*
X1380082Y4770551D1*
X1383821Y4746949D1*
Y4723051D1*
X1380082Y4699449D1*
X1372698Y4676721D1*
X1361849Y4655429D1*
X1347802Y4636096D1*
X1330904Y4619198D1*
X1315960Y4608084D1*
X1330904Y4596802D1*
X1347802Y4579904D1*
X1361849Y4560571D1*
X1372698Y4539279D1*
X1380082Y4516551D1*
X1383821Y4492949D1*
Y4469051D1*
X1380082Y4445449D1*
X1372698Y4422721D1*
X1361849Y4401429D1*
X1347802Y4382096D1*
X1330904Y4365198D1*
X1315960Y4354084D1*
X1330904Y4342802D1*
X1347802Y4325904D1*
X1361849Y4306571D1*
X1372698Y4285279D1*
X1380082Y4262551D1*
X1383821Y4238949D1*
Y4215051D1*
X1380082Y4191449D1*
X1372698Y4168721D1*
X1361849Y4147429D1*
X1347802Y4128096D1*
X1330904Y4111198D1*
X1315960Y4100084D1*
X1330904Y4088802D1*
X1347802Y4071904D1*
X1361849Y4052571D1*
X1372698Y4031279D1*
X1380082Y4008551D1*
X1383821Y3984949D1*
Y3961051D1*
X1380082Y3937449D1*
X1372698Y3914721D1*
X1361849Y3893429D1*
X1347802Y3874096D1*
X1330904Y3857198D1*
X1315960Y3846084D1*
X1330904Y3834802D1*
X1347802Y3817904D1*
X1361849Y3798571D1*
X1372698Y3777279D1*
X1380082Y3754551D1*
X1383821Y3730949D1*
Y3707051D1*
X1380082Y3683449D1*
X1372698Y3660721D1*
X1361849Y3639429D1*
X1347802Y3620096D1*
X1330904Y3603198D1*
X1315960Y3592084D1*
X1330904Y3580802D1*
X1347802Y3563904D1*
X1361849Y3544571D1*
X1372698Y3523279D1*
X1380082Y3500551D1*
X1383821Y3476949D1*
Y3453051D1*
X1380082Y3429449D1*
X1372698Y3406721D1*
X1361849Y3385429D1*
X1347802Y3366096D1*
X1330904Y3349198D1*
X1315960Y3338084D1*
X1330904Y3326802D1*
X1347802Y3309904D1*
X1361849Y3290571D1*
X1372698Y3269279D1*
X1380082Y3246551D1*
X1383821Y3222949D1*
Y3199051D1*
X1380082Y3175449D1*
X1372698Y3152721D1*
X1361849Y3131429D1*
X1347802Y3112096D1*
X1345234Y3109317D1*
X3250710Y5852290D2*
X3523540D1*
Y5297710D1*
X3218960D1*
Y5336777D1*
X3206764Y5326795D1*
X3186388Y5314309D1*
X3164310Y5305164D1*
X3141073Y5299585D1*
X3117250Y5297710D1*
X3093427Y5299585D1*
X3070190Y5305164D1*
X3048112Y5314309D1*
X3027736Y5326795D1*
X3009565Y5342315D1*
X2994045Y5360486D1*
X2981559Y5380862D1*
X2972414Y5402940D1*
X2966835Y5426177D1*
X2964960Y5450000D1*
X2966835Y5473823D1*
X2972414Y5497060D1*
X2981559Y5519138D1*
X2994045Y5539514D1*
X3009565Y5557685D1*
X3027736Y5573205D1*
X3030338Y5574944D1*
X3009565Y5592315D1*
X2994045Y5610486D1*
X2981559Y5630862D1*
X2972414Y5652940D1*
X2966835Y5676177D1*
X2964960Y5700000D1*
X2966835Y5723823D1*
X2972414Y5747060D1*
X2981559Y5769138D1*
X2994045Y5789514D1*
X3009565Y5807685D1*
X3027736Y5823205D1*
X3048112Y5835691D1*
X3070190Y5844836D1*
X3093427Y5850415D1*
X3117250Y5852290D1*
X3141073Y5850415D1*
X3164310Y5844836D1*
X3186388Y5835691D1*
X3206764Y5823205D1*
X3218933Y5813234D1*
X3218960Y5852290D1*
X3250710D1*
X2529460Y7402290D2*
X2802290D1*
Y7363222D1*
X2814486Y7373205D1*
X2834862Y7385691D1*
X2856940Y7394836D1*
X2880177Y7400415D1*
X2904000Y7402290D1*
X2927823Y7400415D1*
X2951060Y7394836D1*
X2973138Y7385691D1*
X2993514Y7373205D1*
X3011685Y7357685D1*
X3027205Y7339514D1*
X3039691Y7319138D1*
X3048836Y7297060D1*
X3054415Y7273823D1*
X3056290Y7250000D1*
X3054415Y7226177D1*
X3048836Y7202940D1*
X3039691Y7180862D1*
X3027205Y7160486D1*
X3011685Y7142315D1*
X2993514Y7126795D1*
X2973138Y7114309D1*
X2951060Y7105164D1*
X2927823Y7099585D1*
X2904000Y7097710D1*
X2880177Y7099585D1*
X2856940Y7105164D1*
X2834862Y7114309D1*
X2814486Y7126795D1*
X2802317Y7136766D1*
X2802290Y7097710D1*
X2497710D1*
Y7402290D1*
X2529460D1*
X2779460Y7052290D2*
X3052290D1*
Y6747710D1*
X2747710D1*
Y6786777D1*
X2735514Y6776795D1*
X2715138Y6764309D1*
X2693060Y6755164D1*
X2669823Y6749585D1*
X2646000Y6747710D1*
X2622177Y6749585D1*
X2598940Y6755164D1*
X2576862Y6764309D1*
X2556486Y6776795D1*
X2538315Y6792315D1*
X2522795Y6810486D1*
X2510309Y6830862D1*
X2501164Y6852940D1*
X2495585Y6876177D1*
X2493710Y6900000D1*
X2495585Y6923823D1*
X2501164Y6947060D1*
X2510309Y6969138D1*
X2522795Y6989514D1*
X2538315Y7007685D1*
X2556486Y7023205D1*
X2576862Y7035691D1*
X2598940Y7044836D1*
X2622177Y7050415D1*
X2646000Y7052290D1*
X2669823Y7050415D1*
X2693060Y7044836D1*
X2715138Y7035691D1*
X2735514Y7023205D1*
X2747683Y7013234D1*
X2747710Y7052290D1*
X2779460D1*
X3378384Y4552290D2*
X3651214D1*
Y4247710D1*
X3346634D1*
Y4286777D1*
X3334437Y4276795D1*
X3314062Y4264309D1*
X3291984Y4255164D1*
X3268747Y4249585D1*
X3244923Y4247710D1*
X3221100Y4249585D1*
X3197863Y4255164D1*
X3175785Y4264309D1*
X3155410Y4276795D1*
X3137238Y4292315D1*
X3121718Y4310486D1*
X3109232Y4330862D1*
X3100087Y4352940D1*
X3094508Y4376177D1*
X3092633Y4400000D1*
X3094508Y4423823D1*
X3100087Y4447060D1*
X3109232Y4469138D1*
X3121718Y4489514D1*
X3137238Y4507685D1*
X3155410Y4523205D1*
X3175785Y4535691D1*
X3197863Y4544836D1*
X3221100Y4550415D1*
X3244923Y4552290D1*
X3268747Y4550415D1*
X3291984Y4544836D1*
X3314062Y4535691D1*
X3334437Y4523205D1*
X3346606Y4513234D1*
X3346634Y4552290D1*
X3378384D1*
X3978384D2*
X4251214D1*
Y4275593D1*
X4297963Y4275587D1*
X4413478Y4391099D1*
X4413510Y4899274D1*
X3975603Y4899535D1*
X3956284Y4903377D1*
X3938396Y4911624D1*
X3922928Y4923818D1*
X3922352Y4924441D1*
X3753408Y5093338D1*
X3735350Y5094784D1*
X3717332Y5099110D1*
X3700212Y5106201D1*
X3684412Y5115883D1*
X3670321Y5127918D1*
X3658287Y5142008D1*
X3648604Y5157808D1*
X3641513Y5174928D1*
X3637187Y5192947D1*
X3635733Y5211420D1*
X3637187Y5229893D1*
X3641513Y5247912D1*
X3648604Y5265032D1*
X3658287Y5280832D1*
X3670321Y5294922D1*
X3684412Y5306957D1*
X3700212Y5316639D1*
X3717332Y5323730D1*
X3735350Y5328056D1*
X3753823Y5329510D1*
X3772297Y5328056D1*
X3790315Y5323730D1*
X3807435Y5316639D1*
X3823235Y5306957D1*
X3837326Y5294922D1*
X3849360Y5280832D1*
X3859042Y5265032D1*
X3866134Y5247912D1*
X3870459Y5229893D1*
X3871898Y5211818D1*
X4016969Y5066771D1*
X4414150Y5066857D1*
X4427888Y5078603D1*
X4443688Y5088286D1*
X4460808Y5095377D1*
X4478827Y5099703D1*
X4497300Y5101157D1*
X4515773Y5099703D1*
X4533792Y5095377D1*
X4550912Y5088286D1*
X4566712Y5078603D1*
X4580802Y5066569D1*
X4592837Y5052478D1*
X4602519Y5036678D1*
X4609610Y5019558D1*
X4613936Y5001540D1*
X4615390Y4983067D1*
X4613936Y4964593D1*
X4609610Y4946575D1*
X4602519Y4929455D1*
X4592837Y4913655D1*
X4581073Y4899857D1*
X4580832Y4349849D1*
X4576989Y4330531D1*
X4568743Y4312643D1*
X4556549Y4297175D1*
X4555926Y4296599D1*
X4387091Y4128082D1*
X4370713Y4117139D1*
X4352234Y4110321D1*
X4332673Y4108006D1*
X4331826Y4108040D1*
X4128407Y4108006D1*
X4121143Y4092251D1*
X4118244Y4073949D1*
X4112518Y4056326D1*
X4104105Y4039815D1*
X4093213Y4024823D1*
X4080110Y4011720D1*
X4065119Y4000828D1*
X4048608Y3992416D1*
X4030984Y3986690D1*
X4012682Y3983791D1*
X3994151D1*
X3975849Y3986690D1*
X3958226Y3992416D1*
X3941715Y4000828D1*
X3926723Y4011720D1*
X3913620Y4024823D1*
X3902728Y4039815D1*
X3894316Y4056326D1*
X3888590Y4073949D1*
X3885691Y4092251D1*
Y4110782D1*
X3888590Y4129084D1*
X3894316Y4146708D1*
X3902728Y4163219D1*
X3913620Y4178210D1*
X3926723Y4191313D1*
X3941715Y4202205D1*
X3958226Y4210618D1*
X3975849Y4216344D1*
X3994151Y4219243D1*
X4003019Y4219591D1*
X4031077Y4247674D1*
X3946634Y4247710D1*
Y4286777D1*
X3934437Y4276795D1*
X3914062Y4264309D1*
X3891984Y4255164D1*
X3868747Y4249585D1*
X3844923Y4247710D1*
X3821100Y4249585D1*
X3797863Y4255164D1*
X3775785Y4264309D1*
X3755410Y4276795D1*
X3737238Y4292315D1*
X3721718Y4310486D1*
X3709232Y4330862D1*
X3700087Y4352940D1*
X3694508Y4376177D1*
X3692633Y4400000D1*
X3694508Y4423823D1*
X3700087Y4447060D1*
X3709232Y4469138D1*
X3721718Y4489514D1*
X3737238Y4507685D1*
X3755410Y4523205D1*
X3775785Y4535691D1*
X3797863Y4544836D1*
X3821100Y4550415D1*
X3844923Y4552290D1*
X3868747Y4550415D1*
X3891984Y4544836D1*
X3914062Y4535691D1*
X3934437Y4523205D1*
X3946606Y4513234D1*
X3946634Y4552290D1*
X3978384D1*
X3134147Y2745083D2*
X2894927D1*
Y2784150D1*
X2882730Y2774168D1*
X2862355Y2761682D1*
X2840277Y2752537D1*
X2817040Y2746958D1*
X2793217Y2745083D1*
X2769393Y2746958D1*
X2746156Y2752537D1*
X2724078Y2761682D1*
X2703703Y2774168D1*
X2685531Y2789688D1*
X2670011Y2807860D1*
X2657525Y2828235D1*
X2648380Y2850313D1*
X2642802Y2873550D1*
X2640927Y2897373D1*
X2642802Y2921197D1*
X2648380Y2944434D1*
X2657525Y2966512D1*
X2670011Y2986887D1*
X2685531Y3005059D1*
X2703703Y3020579D1*
X2724078Y3033065D1*
X2746156Y3042210D1*
X2756362Y3045088D1*
X2644927Y3045083D1*
Y3349663D1*
X2949507D1*
Y3310596D1*
X2961703Y3320579D1*
X2982078Y3333065D1*
X3004156Y3342210D1*
X3027393Y3347788D1*
X3051217Y3349663D1*
X3075040Y3347788D1*
X3098277Y3342210D1*
X3120355Y3333065D1*
X3134245Y3324912D1*
X3134190Y3640544D1*
X2891395Y3883552D1*
X2880452Y3899930D1*
X2873635Y3918410D1*
X2871320Y3937970D1*
X2871353Y3938817D1*
X2871320Y4656934D1*
X2615226Y4912187D1*
X2620438Y4890476D1*
X2622190Y4868217D1*
X2620438Y4845958D1*
X2615226Y4824247D1*
X2606681Y4803618D1*
X2595015Y4784581D1*
X2580514Y4767602D1*
X2563536Y4753102D1*
X2544498Y4741435D1*
X2523870Y4732891D1*
X2502159Y4727678D1*
X2479900Y4725927D1*
X2457641Y4727678D1*
X2435930Y4732891D1*
X2415302Y4741435D1*
X2396264Y4753102D1*
X2379286Y4767602D1*
X2364785Y4784581D1*
X2353119Y4803618D1*
X2344574Y4824247D1*
X2339362Y4845958D1*
X2337610Y4868217D1*
X2339362Y4890476D1*
X2344574Y4912187D1*
X2353119Y4932815D1*
X2364785Y4951853D1*
X2379286Y4968831D1*
X2396264Y4983332D1*
X2415302Y4994998D1*
X2435930Y5003542D1*
X2457641Y5008755D1*
X2475059Y5010316D1*
X2468012Y5024502D1*
X2462286Y5042126D1*
X2459387Y5060428D1*
Y5078959D1*
X2462286Y5097261D1*
X2468012Y5114884D1*
X2476425Y5131395D1*
X2487317Y5146387D1*
X2500420Y5159490D1*
X2515411Y5170382D1*
X2531922Y5178794D1*
X2549546Y5184520D1*
X2567848Y5187419D1*
X2586379D1*
X2604681Y5184520D1*
X2622304Y5178794D1*
X2638815Y5170382D1*
X2653807Y5159490D1*
X2666910Y5146387D1*
X2677802Y5131395D1*
X2686214Y5114884D1*
X2691940Y5097261D1*
X2694839Y5078959D1*
X2695188Y5070091D1*
X3018825Y4746114D1*
X3029768Y4729737D1*
X3036585Y4711257D1*
X3038900Y4691697D1*
X3038867Y4690849D1*
X3038900Y3972733D1*
X3281695Y3729518D1*
X3292638Y3713140D1*
X3299455Y3694660D1*
X3301770Y3675100D1*
X3301737Y3674253D1*
X3301770Y3625615D1*
X3317398Y3631930D1*
X3335417Y3636256D1*
X3353492Y3637694D1*
X3376454Y3659227D1*
X3393640Y3668851D1*
X3412597Y3674198D1*
X3425707Y3675230D1*
X4254307D1*
X4244162Y3694612D1*
X4238436Y3712236D1*
X4235537Y3730538D1*
X4235189Y3739405D1*
X4218682Y3755887D1*
X3746510Y3755883D1*
X3732782Y3744137D1*
X3716982Y3734454D1*
X3699862Y3727363D1*
X3681843Y3723037D1*
X3663370Y3721583D1*
X3644897Y3723037D1*
X3626878Y3727363D1*
X3609758Y3734454D1*
X3593958Y3744137D1*
X3579868Y3756171D1*
X3567833Y3770262D1*
X3558151Y3786062D1*
X3551060Y3803182D1*
X3546734Y3821200D1*
X3545280Y3839673D1*
X3546734Y3858147D1*
X3551060Y3876165D1*
X3558151Y3893285D1*
X3567833Y3909085D1*
X3579868Y3923176D1*
X3593958Y3935210D1*
X3609758Y3944892D1*
X3626878Y3951984D1*
X3644897Y3956309D1*
X3663370Y3957763D1*
X3681843Y3956309D1*
X3699862Y3951984D1*
X3716982Y3944892D1*
X3732782Y3935210D1*
X3746580Y3923446D1*
X4259967Y3923205D1*
X4279286Y3919362D1*
X4297174Y3911116D1*
X4312642Y3898922D1*
X4313218Y3898299D1*
X4353597Y3857967D1*
X4371737Y3856439D1*
X4389755Y3852114D1*
X4406875Y3845022D1*
X4422675Y3835340D1*
X4436766Y3823306D1*
X4448800Y3809215D1*
X4458482Y3793415D1*
X4465574Y3776295D1*
X4469899Y3758277D1*
X4471353Y3739803D1*
X4469899Y3721330D1*
X4465574Y3703312D1*
X4458482Y3686192D1*
X4452000Y3675180D1*
X4647958Y3675230D1*
X4778239Y3805650D1*
X4778538Y4268314D1*
X4782381Y4287633D1*
X4790627Y4305520D1*
X4802821Y4320989D1*
X4915378Y4433184D1*
X4931756Y4444127D1*
X4950235Y4450945D1*
X4969795Y4453260D1*
X5207784Y4453002D1*
X5227103Y4449159D1*
X5244990Y4440913D1*
X5260458Y4428718D1*
X5261034Y4428096D1*
X5328249Y4360928D1*
X5345115Y4356754D1*
X5362235Y4349662D1*
X5378035Y4339980D1*
X5392126Y4327946D1*
X5404160Y4313855D1*
X5413842Y4298055D1*
X5420934Y4280935D1*
X5425259Y4262917D1*
X5426713Y4244443D1*
X5425259Y4225970D1*
X5420934Y4207952D1*
X5413842Y4190832D1*
X5404160Y4175032D1*
X5392126Y4160941D1*
X5378035Y4148907D1*
X5362235Y4139224D1*
X5345115Y4132133D1*
X5327097Y4127807D1*
X5308623Y4126353D1*
X5290150Y4127807D1*
X5272132Y4132133D1*
X5255012Y4139224D1*
X5239212Y4148907D1*
X5225121Y4160941D1*
X5213087Y4175032D1*
X5203404Y4190832D1*
X5196313Y4207952D1*
X5191987Y4225970D1*
X5190533Y4244443D1*
X5191702Y4260507D1*
X5166500Y4285683D1*
X5004385Y4285680D1*
X4945822Y4226996D1*
X4945602Y3764409D1*
X4941759Y3745091D1*
X4933513Y3727203D1*
X4921319Y3711735D1*
X4736940Y3527725D1*
X4720563Y3516782D1*
X4702083Y3509965D1*
X4682523Y3507650D1*
X3471434D1*
X3468717Y3492052D1*
X3462991Y3474429D1*
X3454578Y3457918D1*
X3443686Y3442927D1*
X3430583Y3429824D1*
X3415592Y3418932D1*
X3399081Y3410519D1*
X3381458Y3404793D1*
X3363155Y3401894D1*
X3344625D1*
X3326322Y3404793D1*
X3308699Y3410519D1*
X3301758Y3413719D1*
X3301770Y2745792D1*
X3346247Y2701467D1*
X4357824Y2701302D1*
X4377143Y2697459D1*
X4395030Y2689213D1*
X4410499Y2677019D1*
X4411074Y2676396D1*
X4623771Y2463381D1*
X4634714Y2447003D1*
X4641532Y2428524D1*
X4643628Y2414536D1*
X4660745Y2388929D1*
X4669158Y2372418D1*
X4674884Y2354794D1*
X4677783Y2336492D1*
Y2317961D1*
X4674884Y2299659D1*
X4669158Y2282036D1*
X4660745Y2265525D1*
X4649853Y2250533D1*
X4636750Y2237430D1*
X4621759Y2226538D1*
X4605248Y2218126D1*
X4588984Y2212783D1*
X5323727Y2212813D1*
X5337462Y2224560D1*
X5353262Y2234242D1*
X5370382Y2241334D1*
X5388400Y2245659D1*
X5406873Y2247113D1*
X5425347Y2245659D1*
X5443365Y2241334D1*
X5460485Y2234242D1*
X5476285Y2224560D1*
X5490376Y2212526D1*
X5502410Y2198435D1*
X5512092Y2182635D1*
X5519184Y2165515D1*
X5523509Y2147497D1*
X5524963Y2129023D1*
X5523509Y2110550D1*
X5519184Y2092532D1*
X5512092Y2075412D1*
X5502410Y2059612D1*
X5490376Y2045521D1*
X5476285Y2033487D1*
X5460485Y2023804D1*
X5443365Y2016713D1*
X5425347Y2012387D1*
X5406873Y2010933D1*
X5388400Y2012387D1*
X5370382Y2016713D1*
X5353262Y2023804D1*
X5337462Y2033487D1*
X5323664Y2045251D1*
X4455066Y2045491D1*
X4435747Y2049334D1*
X4417860Y2057580D1*
X4402391Y2069775D1*
X4401816Y2070398D1*
X4326374Y2145792D1*
X4300991Y2147532D1*
X4279280Y2152744D1*
X4258652Y2161289D1*
X4239614Y2172955D1*
X4222636Y2187456D1*
X4208135Y2204434D1*
X4196469Y2223472D1*
X4187924Y2244100D1*
X4182712Y2265811D1*
X4181082Y2291166D1*
X4050864Y2421302D1*
X3738375Y2421356D1*
X3751090Y2408543D1*
X3761982Y2393552D1*
X3770394Y2377041D1*
X3776120Y2359418D1*
X3779019Y2341115D1*
Y2322585D1*
X3776120Y2304282D1*
X3770394Y2286659D1*
X3761982Y2270148D1*
X3751090Y2255157D1*
X3737987Y2242054D1*
X3722995Y2231162D1*
X3706484Y2222749D1*
X3688861Y2217023D1*
X3670559Y2214124D1*
X3652028D1*
X3633726Y2217023D1*
X3616102Y2222749D1*
X3599591Y2231162D1*
X3584600Y2242054D1*
X3578084Y2248077D1*
X3290587Y2248060D1*
X3269641Y2236789D1*
X3252018Y2231063D1*
X3233715Y2228164D1*
X3215185D1*
X3196882Y2231063D1*
X3179259Y2236789D1*
X3162748Y2245202D1*
X3147757Y2256094D1*
X3134654Y2269197D1*
X3123762Y2284188D1*
X3115349Y2300699D1*
X3109623Y2318322D1*
X3106724Y2336625D1*
Y2355155D1*
X3109623Y2373458D1*
X3115349Y2391081D1*
X3123762Y2407592D1*
X3133734Y2421417D1*
X2629119Y2421615D1*
X2609801Y2425457D1*
X2591913Y2433704D1*
X2576445Y2445898D1*
X2575869Y2446521D1*
X2448909Y2573799D1*
X2437966Y2590177D1*
X2431148Y2608656D1*
X2428833Y2628217D1*
X2428866Y2629064D1*
X2428833Y3362311D1*
X2411914Y3356916D1*
X2393612Y3354017D1*
X2375081D1*
X2356779Y3356916D1*
X2339156Y3362642D1*
X2322645Y3371055D1*
X2307653Y3381947D1*
X2294550Y3395050D1*
X2283658Y3410041D1*
X2275246Y3426552D1*
X2269520Y3444176D1*
X2266621Y3462478D1*
Y3481009D1*
X2267831Y3490821D1*
X2037361Y3721271D1*
X2019320Y3722701D1*
X2001302Y3727026D1*
X1984182Y3734118D1*
X1968382Y3743800D1*
X1954291Y3755834D1*
X1942257Y3769925D1*
X1932574Y3785725D1*
X1925483Y3802845D1*
X1921157Y3820863D1*
X1919703Y3839337D1*
X1921157Y3857810D1*
X1925483Y3875828D1*
X1932574Y3892948D1*
X1942257Y3908748D1*
X1954291Y3922839D1*
X1968382Y3934873D1*
X1984182Y3944556D1*
X2001302Y3951647D1*
X2019320Y3955973D1*
X2037793Y3957427D1*
X2056267Y3955973D1*
X2074285Y3951647D1*
X2091405Y3944556D1*
X2107205Y3934873D1*
X2121296Y3922839D1*
X2133330Y3908748D1*
X2143012Y3892948D1*
X2150104Y3875828D1*
X2154429Y3857810D1*
X2155868Y3839735D1*
X2225695Y3769933D1*
X2220855Y3790541D1*
X2219103Y3812800D1*
X2220855Y3835059D1*
X2226068Y3856770D1*
X2234612Y3877398D1*
X2246278Y3896436D1*
X2260779Y3913414D1*
X2277757Y3927915D1*
X2296795Y3939581D1*
X2317423Y3948126D1*
X2339134Y3953338D1*
X2361393Y3955090D1*
X2383652Y3953338D1*
X2405363Y3948126D1*
X2425992Y3939581D1*
X2445029Y3927915D1*
X2462008Y3913414D1*
X2476508Y3896436D1*
X2488175Y3877398D1*
X2496719Y3856770D1*
X2501932Y3835059D1*
X2503370Y3820780D1*
X2641311Y3958752D1*
X2634906Y3974602D1*
X2630581Y3992620D1*
X2629127Y4011093D1*
X2630581Y4029567D1*
X2634906Y4047585D1*
X2641998Y4064705D1*
X2651680Y4080505D1*
X2663714Y4094596D1*
X2677805Y4106630D1*
X2693605Y4116312D1*
X2710725Y4123404D1*
X2728743Y4127729D1*
X2747217Y4129183D1*
X2765690Y4127729D1*
X2783708Y4123404D1*
X2800828Y4116312D1*
X2816628Y4106630D1*
X2830719Y4094596D1*
X2842753Y4080505D1*
X2852436Y4064705D1*
X2859527Y4047585D1*
X2863853Y4029567D1*
X2865307Y4011093D1*
X2863853Y3992620D1*
X2859527Y3974602D1*
X2852436Y3957482D1*
X2842753Y3941682D1*
X2828352Y3925403D1*
X2821874Y3908120D1*
X2810931Y3891743D1*
X2596429Y3676875D1*
X2596414Y2662949D1*
X2670357Y2588981D1*
X3221952Y2588937D1*
X3154266Y2656819D1*
X3143323Y2673197D1*
X3136505Y2691676D1*
X3134190Y2711237D1*
X3134223Y2712084D1*
X3134190Y2745095D1*
X2091851Y5938836D2*
X2088359Y5916783D1*
X2081459Y5895548D1*
X2071322Y5875654D1*
X2058198Y5857590D1*
X2042410Y5841802D1*
X2024346Y5828678D1*
X2004452Y5818541D1*
X1983217Y5811641D1*
X1961164Y5808149D1*
X1938836D1*
X1916783Y5811641D1*
X1895548Y5818541D1*
X1875654Y5828678D1*
X1857590Y5841802D1*
X1841802Y5857590D1*
X1829139Y5874964D1*
X1829170Y2677831D1*
X1840917Y2664028D1*
X1850599Y2648228D1*
X1857690Y2631108D1*
X1862016Y2613090D1*
X1863470Y2594617D1*
X1862016Y2576143D1*
X1857690Y2558125D1*
X1850599Y2541005D1*
X1840917Y2525205D1*
X1828882Y2511114D1*
X1814792Y2499080D1*
X1798992Y2489398D1*
X1781872Y2482306D1*
X1763853Y2477981D1*
X1745380Y2476527D1*
X1726907Y2477981D1*
X1708888Y2482306D1*
X1691768Y2489398D1*
X1675968Y2499080D1*
X1661878Y2511114D1*
X1649843Y2525205D1*
X1640161Y2541005D1*
X1633070Y2558125D1*
X1628744Y2576143D1*
X1627290Y2594617D1*
X1628744Y2613090D1*
X1633070Y2631108D1*
X1640161Y2648228D1*
X1649843Y2664028D1*
X1661607Y2677826D1*
X1661590Y6096137D1*
X1657364Y6113877D1*
X1655910Y6132350D1*
X1657364Y6150823D1*
X1661690Y6168842D1*
X1668781Y6185962D1*
X1678463Y6201762D1*
X1690498Y6215852D1*
X1704588Y6227887D1*
X1720388Y6237569D1*
X1737508Y6244660D1*
X1755527Y6248986D1*
X1774000Y6250440D1*
X1792473Y6248986D1*
X1810492Y6244660D1*
X1827612Y6237569D1*
X1843412Y6227887D1*
X1857502Y6215852D1*
X1869537Y6201762D1*
X1879219Y6185962D1*
X1886310Y6168842D1*
X1890636Y6150823D1*
X1892090Y6132350D1*
X1890636Y6113877D1*
X1886310Y6095858D1*
X1879219Y6078738D1*
X1875654Y6071322D1*
X1895548Y6081459D1*
X1916783Y6088359D1*
X1938836Y6091851D1*
X1961164D1*
X1983217Y6088359D1*
X2004452Y6081459D1*
X2024346Y6071322D1*
X2042410Y6058198D1*
X2058198Y6042410D1*
X2071322Y6024346D1*
X2081459Y6004452D1*
X2088359Y5983217D1*
X2091851Y5961164D1*
Y5938836D1*
X2641851Y4488836D2*
X2638359Y4466783D1*
X2631459Y4445548D1*
X2621322Y4425654D1*
X2608198Y4407590D1*
X2592410Y4391802D1*
X2574346Y4378678D1*
X2554452Y4368541D1*
X2533217Y4361641D1*
X2511164Y4358149D1*
X2488836D1*
X2466783Y4361641D1*
X2445548Y4368541D1*
X2425654Y4378678D1*
X2407590Y4391802D1*
X2391802Y4407590D1*
X2378678Y4425654D1*
X2368541Y4445548D1*
X2361641Y4466783D1*
X2358149Y4488836D1*
Y4511164D1*
X2361641Y4533217D1*
X2368541Y4554452D1*
X2378678Y4574346D1*
X2391802Y4592410D1*
X2407590Y4608198D1*
X2425654Y4621322D1*
X2445548Y4631459D1*
X2466783Y4638359D1*
X2488836Y4641851D1*
X2511164D1*
X2533217Y4638359D1*
X2554452Y4631459D1*
X2574346Y4621322D1*
X2592410Y4608198D1*
X2608198Y4592410D1*
X2621322Y4574346D1*
X2631459Y4554452D1*
X2638359Y4533217D1*
X2641851Y4511164D1*
Y4488836D1*
X3888525Y1571726D2*
X3885032Y1549673D1*
X3878132Y1528438D1*
X3867996Y1508544D1*
X3854871Y1490480D1*
X3839083Y1474692D1*
X3821020Y1461568D1*
X3801125Y1451431D1*
X3779890Y1444531D1*
X3757837Y1441039D1*
X3735509D1*
X3713456Y1444531D1*
X3692221Y1451431D1*
X3672327Y1461568D1*
X3654263Y1474692D1*
X3638475Y1490480D1*
X3625351Y1508544D1*
X3615215Y1528438D1*
X3608315Y1549673D1*
X3604822Y1571726D1*
Y1594054D1*
X3608315Y1616107D1*
X3615215Y1637342D1*
X3625351Y1657236D1*
X3638475Y1675300D1*
X3654263Y1691088D1*
X3672327Y1704212D1*
X3692221Y1714349D1*
X3713456Y1721249D1*
X3735509Y1724741D1*
X3757837D1*
X3779890Y1721249D1*
X3801125Y1714349D1*
X3821020Y1704212D1*
X3839083Y1691088D1*
X3854871Y1675300D1*
X3867996Y1657236D1*
X3878132Y1637342D1*
X3885032Y1616107D1*
X3888525Y1594054D1*
Y1571726D1*
X3588958Y1417999D2*
X3585465Y1395946D1*
X3578565Y1374711D1*
X3568429Y1354817D1*
X3555305Y1336753D1*
X3539517Y1320965D1*
X3521453Y1307841D1*
X3501559Y1297705D1*
X3480324Y1290805D1*
X3458271Y1287312D1*
X3435943D1*
X3413890Y1290805D1*
X3392655Y1297705D1*
X3372760Y1307841D1*
X3354697Y1320965D1*
X3338909Y1336753D1*
X3325784Y1354817D1*
X3315648Y1374711D1*
X3308748Y1395946D1*
X3305255Y1417999D1*
Y1440327D1*
X3308748Y1462380D1*
X3315648Y1483615D1*
X3325784Y1503510D1*
X3338909Y1521573D1*
X3354697Y1537361D1*
X3372760Y1550486D1*
X3392655Y1560622D1*
X3413890Y1567522D1*
X3435943Y1571015D1*
X3458271D1*
X3480324Y1567522D1*
X3501559Y1560622D1*
X3521453Y1550486D1*
X3539517Y1537361D1*
X3555305Y1521573D1*
X3568429Y1503510D1*
X3578565Y1483615D1*
X3585465Y1462380D1*
X3588958Y1440327D1*
Y1417999D1*
X3632996Y4809231D2*
X3619198Y4797467D1*
X3603398Y4787784D1*
X3586278Y4780693D1*
X3568260Y4776367D1*
X3549787Y4774913D1*
X3531313Y4776367D1*
X3513295Y4780693D1*
X3496175Y4787784D1*
X3480375Y4797467D1*
X3466284Y4809501D1*
X3454250Y4823592D1*
X3444568Y4839392D1*
X3437476Y4856512D1*
X3433151Y4874530D1*
X3431697Y4893003D1*
X3433151Y4911477D1*
X3437476Y4929495D1*
X3444568Y4946615D1*
X3454250Y4962415D1*
X3466284Y4976506D1*
X3480375Y4988540D1*
X3496175Y4998222D1*
X3513295Y5005314D1*
X3531313Y5009639D1*
X3549787Y5011093D1*
X3568260Y5009639D1*
X3586278Y5005314D1*
X3603398Y4998222D1*
X3619198Y4988540D1*
X3632996Y4976776D1*
X3800457Y4976535D1*
X3819776Y4972693D1*
X3837664Y4964446D1*
X3853132Y4952252D1*
X3853708Y4951629D1*
X3917590Y4887794D1*
X3935737Y4886259D1*
X3953755Y4881934D1*
X3970875Y4874842D1*
X3986675Y4865160D1*
X4000766Y4853126D1*
X4012800Y4839035D1*
X4022482Y4823235D1*
X4029574Y4806115D1*
X4033899Y4788097D1*
X4035353Y4769623D1*
X4033899Y4751150D1*
X4029574Y4733132D1*
X4022482Y4716012D1*
X4012800Y4700212D1*
X4000766Y4686121D1*
X3986675Y4674087D1*
X3970875Y4664404D1*
X3953755Y4657313D1*
X3935737Y4652987D1*
X3917263Y4651533D1*
X3898790Y4652987D1*
X3880772Y4657313D1*
X3863652Y4664404D1*
X3847852Y4674087D1*
X3833761Y4686121D1*
X3821727Y4700212D1*
X3812044Y4716012D1*
X3804953Y4733132D1*
X3800627Y4751150D1*
X3799189Y4769225D1*
X3759179Y4809210D1*
X3633025Y4809213D1*
X2440256Y2464851D2*
X2437357Y2446549D1*
X2431631Y2428926D1*
X2423218Y2412415D1*
X2412326Y2397423D1*
X2399223Y2384320D1*
X2389623Y2377030D1*
X2389643Y1902187D1*
X2401390Y1888352D1*
X2411072Y1872552D1*
X2418164Y1855432D1*
X2422489Y1837413D1*
X2423943Y1818940D1*
X2422489Y1800467D1*
X2418164Y1782448D1*
X2411072Y1765328D1*
X2401390Y1749528D1*
X2389356Y1735438D1*
X2375265Y1723403D1*
X2359465Y1713721D1*
X2342345Y1706630D1*
X2324327Y1702304D1*
X2305853Y1700850D1*
X2287380Y1702304D1*
X2269362Y1706630D1*
X2252242Y1713721D1*
X2236442Y1723403D1*
X2222351Y1735438D1*
X2210317Y1749528D1*
X2200634Y1765328D1*
X2193543Y1782448D1*
X2189217Y1800467D1*
X2187763Y1818940D1*
X2189217Y1837413D1*
X2193543Y1855432D1*
X2200634Y1872552D1*
X2210317Y1888352D1*
X2222081Y1902150D1*
X2221842Y2412415D1*
X2213429Y2428926D1*
X2207703Y2446549D1*
X2204804Y2464851D1*
Y2483382D1*
X2207703Y2501684D1*
X2213429Y2519308D1*
X2221842Y2535819D1*
X2232734Y2550810D1*
X2245837Y2563913D1*
X2260828Y2574805D1*
X2277339Y2583218D1*
X2294962Y2588944D1*
X2313265Y2591843D1*
X2331795D1*
X2350098Y2588944D1*
X2367721Y2583218D1*
X2384232Y2574805D1*
X2399223Y2563913D1*
X2412326Y2550810D1*
X2423218Y2535819D1*
X2431631Y2519308D1*
X2437357Y2501684D1*
X2440256Y2483382D1*
Y2464851D1*
X4881184Y1248500D2*
X4862401Y1248471D1*
X4844099Y1251370D1*
X4826476Y1257096D1*
X4809965Y1265508D1*
X4794973Y1276400D1*
X4781870Y1289503D1*
X4770978Y1304495D1*
X4762566Y1321006D1*
X4756840Y1338629D1*
X4753941Y1356931D1*
Y1375462D1*
X4756840Y1393764D1*
X4762566Y1411388D1*
X4770978Y1427899D1*
X4781870Y1442890D1*
X4794973Y1455993D1*
X4809965Y1466885D1*
X4826476Y1475298D1*
X4844099Y1481024D1*
X4862401Y1483923D1*
X4880932D1*
X4899234Y1481024D1*
X4916858Y1475298D1*
X4933369Y1466885D1*
X4948360Y1455993D1*
X4961463Y1442890D1*
X4972355Y1427899D1*
X4981106Y1410470D1*
X5398455Y1410487D1*
X5412312Y1422233D1*
X5428112Y1431916D1*
X5445232Y1439007D1*
X5463250Y1443333D1*
X5481723Y1444787D1*
X5500197Y1443333D1*
X5518215Y1439007D1*
X5535335Y1431916D1*
X5551135Y1422233D1*
X5565226Y1410199D1*
X5577260Y1396108D1*
X5586942Y1380308D1*
X5594034Y1363188D1*
X5598359Y1345170D1*
X5599813Y1326697D1*
X5598359Y1308223D1*
X5594034Y1290205D1*
X5586942Y1273085D1*
X5577260Y1257285D1*
X5565226Y1243194D1*
X5551135Y1231160D1*
X5535335Y1221478D1*
X5518215Y1214386D1*
X5500197Y1210061D1*
X5481723Y1208607D1*
X5463250Y1210061D1*
X5445232Y1214386D1*
X5428112Y1221478D1*
X5412312Y1231160D1*
X5398514Y1242924D1*
X4904593Y1243165D1*
X4885274Y1247007D1*
X4884334Y1247354D1*
X4885274Y1247007D1*
X4884334Y1247354D1*
D18*
X1232000Y2957000D3*
D19*
Y3211000D3*
Y3465000D3*
Y3719000D3*
Y3973000D3*
Y4227000D3*
Y4481000D3*
Y4735000D3*
Y4989000D3*
Y5243000D3*
D18*
X5968000D3*
D19*
Y4989000D3*
Y4735000D3*
Y4481000D3*
Y4227000D3*
Y3973000D3*
Y3719000D3*
Y3465000D3*
Y3211000D3*
Y2957000D3*
D18*
X3371250Y5700000D3*
D19*
X3117250D3*
D18*
X2650000Y7250000D3*
D19*
X2904000D3*
D18*
X3371250Y5450000D3*
D19*
X3117250D3*
D18*
X2900000Y6900000D3*
D19*
X2646000D3*
D18*
X3498923Y4400000D3*
D19*
X3244923D3*
D18*
X4098923D3*
D19*
X3844923D3*
D18*
X3047217Y2897373D3*
D19*
X2793217D3*
D18*
X2797217Y3197373D3*
D19*
X3051217D3*
D20*
X1950000Y5950000D3*
X2479900Y4868217D3*
X2361393Y3812800D3*
X2500000Y4500000D3*
X3746673Y1582890D3*
X3447107Y1429163D3*
X4323250Y2288070D3*
M02*
