G04 DipTrace 3.0.0.2*
G04 Bottom.gbr*
%MOIN*%
G04 #@! TF.FileFunction,Copper,L2,Bot*
G04 #@! TF.Part,Single*
G04 #@! TA.AperFunction,Conductor*
%ADD13C,0.012992*%
G04 #@! TA.AperFunction,CopperBalancing*
%ADD14C,0.025*%
G04 #@! TA.AperFunction,ComponentPad*
%ADD18R,0.066929X0.066929*%
%ADD19C,0.066929*%
%ADD20C,0.059055*%
G04 #@! TA.AperFunction,ViaPad*
%ADD24C,0.04*%
%FSLAX26Y26*%
G04*
G70*
G90*
G75*
G01*
G04 Bottom*
%LPD*%
X2000660Y1632780D2*
D13*
X2020533Y1612907D1*
X2151400D1*
X976445Y2081353D2*
X986811Y2070987D1*
X1078390D1*
X1227214Y1922163D1*
Y1898000D1*
X1549625Y2127660D2*
X1545824Y2123860D1*
X1422278D1*
X1227214Y1928795D1*
Y1898000D1*
X2095125Y2013619D2*
X2083720Y2025024D1*
X1648461D1*
X1549625Y2123860D1*
Y2127660D1*
X2151400Y1612907D2*
X2159723D1*
X2136202Y1636428D1*
Y1984255D1*
X2106837Y2013619D1*
X2095125D1*
X879026Y1764785D2*
X889480Y1775239D1*
Y2032402D1*
X938432Y2081353D1*
X976445D1*
X1920035Y1312631D2*
X1914852Y1307448D1*
X1799081D1*
X1715701Y2556062D2*
X1718843Y2559203D1*
X1868071D1*
X1917979Y537873D2*
X1933530Y522322D1*
X2158159D1*
X1477883Y2051740D2*
X1567786Y1961837D1*
X1770591D1*
X1576148Y1614770D2*
X1611692Y1650314D1*
X1705777D1*
X1770591Y1715127D1*
Y1961837D1*
X1420399Y1114387D2*
X1317400Y1217386D1*
Y1288196D1*
X1450703Y2479365D2*
X1454504Y2483165D1*
X1595156D1*
X1598606Y1102772D2*
X1710608Y1214773D1*
X2294378D1*
X2349606Y1159545D1*
Y1164173D1*
X2242972Y1929058D2*
X2278667Y1893364D1*
Y1327423D1*
X1570951Y2572413D2*
X1571339Y2572026D1*
X1650537D1*
Y2401724D1*
X1675836D1*
Y2178673D1*
X1715081Y2139428D1*
X2146539D1*
X2242972Y2042995D1*
Y1929058D1*
X1573175Y1243063D2*
X1594285Y1264173D1*
X2228375D1*
X2349606D1*
X2188613Y1899787D2*
X2228375Y1860025D1*
Y1264173D1*
X1619112Y2383882D2*
X1582232D1*
Y2207731D1*
X1696152Y2093811D1*
X2097121D1*
X2188613Y2002319D1*
Y1899787D1*
X1456986Y2535377D2*
X1450681Y2541681D1*
Y2693458D1*
X1422853Y2721286D1*
X1402614D1*
X698425Y2414311D2*
X687157Y2403043D1*
Y1021503D1*
X914382Y974062D2*
X907816Y967496D1*
Y716118D1*
X2128690Y838198D2*
X1756551D1*
X1725774Y868975D1*
X1608471Y986278D1*
X1037675D1*
X989222Y1034731D1*
Y1461247D1*
X1081581Y1553606D1*
Y1579171D1*
X1702067Y900815D2*
X1725774Y877108D1*
Y868975D1*
X1014612Y1995942D2*
X1163429Y1847125D1*
Y1550382D1*
X1266921Y1446890D1*
Y1067416D1*
X1303719Y1030618D1*
X1713091D1*
X1795298Y948411D1*
Y916231D1*
X1276661Y1611066D2*
X1389285Y1498442D1*
Y1228542D1*
X1402106Y1215720D1*
X1493340D1*
X1377316Y2645391D2*
X1395025Y2627682D1*
Y2417707D1*
X1359608Y2382290D1*
X1346958D1*
X1713883Y1472364D2*
X1674564Y1511682D1*
X1442272D1*
X1269469Y923579D2*
X1274996Y918051D1*
X1441454D1*
X1515801Y2300756D2*
Y2326634D1*
X1217937D1*
Y2498299D1*
X1216596D1*
X1542230Y1877804D2*
X1493655Y1926379D1*
X1397554D1*
X802281Y1511550D2*
X938719Y1375112D1*
Y1366828D1*
X1470824Y1382703D2*
X1485751Y1367777D1*
X1797339D1*
X1914201Y1484639D1*
Y1677852D1*
X1956613Y1720264D1*
X2047720D1*
X2090009Y1677975D1*
Y1671041D1*
D24*
X1397554Y1926379D3*
X1542230Y1877804D3*
X1442272Y1511682D3*
X1269469Y923579D3*
X1216596Y2498299D3*
X1713883Y1472364D3*
X1441454Y918051D3*
X1515801Y2300756D3*
X698425Y2414311D3*
X687157Y1021503D3*
X914382Y974062D3*
X907816Y716118D3*
X1081581Y1579171D3*
X2128690Y838198D3*
X1014612Y1995942D3*
X1795298Y916231D3*
X802281Y1511550D3*
X1477883Y2051740D3*
X1576148Y1614770D3*
X1770591Y1961837D3*
X1598606Y1102772D3*
X1573175Y1243063D3*
X2151400Y1612907D3*
X2000660Y1632780D3*
X2242972Y1929058D3*
X2188613Y1899787D3*
X2278667Y1327423D3*
X1570951Y2572413D3*
X1619112Y2383882D3*
X1227214Y1898000D3*
X976445Y2081353D3*
X1917979Y537873D3*
X2158159Y522322D3*
X1549625Y2127660D3*
X2095125Y2013619D3*
X879026Y1764785D3*
X1456986Y2535377D3*
X1402614Y2721286D3*
X1799081Y1307448D3*
X1920035Y1312631D3*
X2180949Y1695472D3*
X2090009Y1671041D3*
X938719Y1366828D3*
X1470824Y1382703D3*
X1276661Y1611066D3*
X1493340Y1215720D3*
X1346958Y2382290D3*
X1377316Y2645391D3*
X1317400Y1288196D3*
X1420399Y1114387D3*
X1715701Y2556062D3*
X1868071Y2559203D3*
X1450703Y2479365D3*
X1595156Y2483165D3*
X1728833Y2366667D3*
X1594050Y592478D3*
X1308848Y2711121D3*
X434685Y3007513D2*
D14*
X2399974D1*
X434685Y2982644D2*
X2399974D1*
X434685Y2957776D2*
X2399974D1*
X434685Y2932907D2*
X2399974D1*
X434685Y2908038D2*
X980832D1*
X1172454D2*
X2399974D1*
X434685Y2883169D2*
X980832D1*
X1198382D2*
X2399974D1*
X434685Y2858301D2*
X980832D1*
X1205608D2*
X2399974D1*
X434685Y2833432D2*
X980832D1*
X1201995D2*
X2399974D1*
X434685Y2808563D2*
X980832D1*
X1184514D2*
X2399974D1*
X434685Y2783694D2*
X2399974D1*
X434685Y2758825D2*
X996751D1*
X1204192D2*
X1372678D1*
X1432560D2*
X2399974D1*
X434685Y2733957D2*
X981858D1*
X1204192D2*
X1355394D1*
X1459319D2*
X2399974D1*
X434685Y2709088D2*
X979759D1*
X1204192D2*
X1355247D1*
X1482219D2*
X2399974D1*
X434685Y2684219D2*
X988743D1*
X1204192D2*
X1349240D1*
X1486175D2*
X2399974D1*
X434685Y2659350D2*
X1021214D1*
X1062248D2*
X1079290D1*
X1204192D2*
X1330491D1*
X1486175D2*
X2399974D1*
X434685Y2634482D2*
X1329612D1*
X1486175D2*
X2399974D1*
X434685Y2609613D2*
X1345139D1*
X1486175D2*
X1540550D1*
X1601360D2*
X2399974D1*
X434685Y2584744D2*
X1359543D1*
X1486175D2*
X1523606D1*
X1683440D2*
X2399974D1*
X434685Y2559875D2*
X1359543D1*
X1499016D2*
X1523703D1*
X1686028D2*
X2399974D1*
X434685Y2535007D2*
X1185568D1*
X1247648D2*
X1359543D1*
X1505999D2*
X1540843D1*
X1601067D2*
X1615081D1*
X1686028D2*
X2399974D1*
X434685Y2510138D2*
X1169114D1*
X1264055D2*
X1359543D1*
X1686028D2*
X2399974D1*
X434685Y2485269D2*
X1169455D1*
X1263714D2*
X1359543D1*
X1686028D2*
X2399974D1*
X434685Y2460400D2*
X689816D1*
X707042D2*
X1182444D1*
X1253411D2*
X1359543D1*
X1686028D2*
X2399974D1*
X434685Y2435531D2*
X654563D1*
X742278D2*
X1182444D1*
X1253411D2*
X1359543D1*
X1686028D2*
X2399974D1*
X434685Y2410663D2*
X649583D1*
X747259D2*
X1182444D1*
X1253411D2*
X1307639D1*
X1710100D2*
X2399974D1*
X434685Y2385794D2*
X651682D1*
X805803D2*
X1182444D1*
X1253411D2*
X1298118D1*
X1711320D2*
X2399974D1*
X434685Y2360925D2*
X651682D1*
X823138D2*
X1182444D1*
X1253411D2*
X1303147D1*
X1711320D2*
X2399974D1*
X434685Y2336056D2*
X651682D1*
X825871D2*
X1182444D1*
X1711320D2*
X2399974D1*
X434685Y2311188D2*
X651682D1*
X816643D2*
X1186252D1*
X1711320D2*
X2399974D1*
X434685Y2286319D2*
X651682D1*
X722648D2*
X1167648D1*
X1388274D2*
X1469114D1*
X1711320D2*
X2399974D1*
X434685Y2261450D2*
X651682D1*
X722648D2*
X1163450D1*
X1388274D2*
X1488450D1*
X1711320D2*
X2399974D1*
X434685Y2236581D2*
X651682D1*
X722648D2*
X1170042D1*
X1388274D2*
X1546751D1*
X1711320D2*
X2399974D1*
X434685Y2211713D2*
X651682D1*
X722648D2*
X1194163D1*
X1388274D2*
X1546751D1*
X1711320D2*
X2399974D1*
X434685Y2186844D2*
X651682D1*
X722648D2*
X1181175D1*
X1389739D2*
X1554222D1*
X1716790D2*
X2399974D1*
X434685Y2161975D2*
X651682D1*
X722648D2*
X1167063D1*
X1389739D2*
X1578831D1*
X2173138D2*
X2399974D1*
X434685Y2137106D2*
X651682D1*
X722648D2*
X1165403D1*
X1389739D2*
X1603732D1*
X2197991D2*
X2399974D1*
X523382Y2112238D2*
X651682D1*
X722648D2*
X1174974D1*
X1389739D2*
X1628587D1*
X2222844D2*
X2287131D1*
X542815Y2087369D2*
X651682D1*
X722648D2*
X1210764D1*
X1243743D2*
X1264816D1*
X1389739D2*
X1445530D1*
X1510247D2*
X1653440D1*
X2247747D2*
X2287131D1*
X547454Y2062500D2*
X651682D1*
X722648D2*
X1430148D1*
X1525627D2*
X1683323D1*
X2272063D2*
X2287131D1*
X541302Y2037631D2*
X651682D1*
X722648D2*
X991526D1*
X1037688D2*
X1431076D1*
X1541106D2*
X2104172D1*
X522648Y2012762D2*
X651682D1*
X722648D2*
X968772D1*
X1060442D2*
X1450022D1*
X1566008D2*
X2129026D1*
X542619Y1987894D2*
X651682D1*
X722648D2*
X966331D1*
X1071770D2*
X1492600D1*
X1811614D2*
X2153147D1*
X2278459D2*
X2292075D1*
X547503Y1963025D2*
X651682D1*
X722648D2*
X942454D1*
X1096672D2*
X1366428D1*
X1428655D2*
X1517454D1*
X1819572D2*
X2153147D1*
X541546Y1938156D2*
X651682D1*
X722648D2*
X922142D1*
X1121526D2*
X1350071D1*
X1813079D2*
X2153147D1*
X521916Y1913287D2*
X651682D1*
X722648D2*
X917942D1*
X1034759D2*
X1048113D1*
X1146379D2*
X1350462D1*
X1574748D2*
X1735130D1*
X1806047D2*
X2141623D1*
X542375Y1888419D2*
X651682D1*
X722648D2*
X925412D1*
X1027239D2*
X1073020D1*
X1171282D2*
X1368235D1*
X1426896D2*
X1482492D1*
X1589983D2*
X1735130D1*
X1806047D2*
X2141038D1*
X547503Y1863550D2*
X651682D1*
X722648D2*
X955882D1*
X996770D2*
X1097874D1*
X1194524D2*
X1495480D1*
X1589007D2*
X1735130D1*
X1806047D2*
X2157004D1*
X541790Y1838681D2*
X651682D1*
X722648D2*
X1122727D1*
X1198919D2*
X1514622D1*
X1569866D2*
X1735130D1*
X1806047D2*
X2192894D1*
X521184Y1813812D2*
X651682D1*
X722648D2*
X944846D1*
X1023626D2*
X1127951D1*
X1198919D2*
X1735130D1*
X1806047D2*
X2192894D1*
X542131Y1788944D2*
X651682D1*
X722648D2*
X928488D1*
X1040031D2*
X1127951D1*
X1198919D2*
X1255442D1*
X1299651D2*
X1315029D1*
X1439983D2*
X1491623D1*
X1535832D2*
X1551285D1*
X1676214D2*
X1735130D1*
X1806047D2*
X2192894D1*
X547503Y1764075D2*
X651682D1*
X722648D2*
X926243D1*
X1042278D2*
X1127951D1*
X1198919D2*
X1224192D1*
X1439983D2*
X1460423D1*
X1676214D2*
X1735130D1*
X1806047D2*
X2192894D1*
X542034Y1739206D2*
X651682D1*
X722648D2*
X936106D1*
X1032415D2*
X1127951D1*
X1198919D2*
X1215504D1*
X1676214D2*
X1735130D1*
X1806047D2*
X1926438D1*
X2077923D2*
X2162668D1*
X520891Y1714337D2*
X651682D1*
X722648D2*
X1127951D1*
X1198919D2*
X1217844D1*
X1439983D2*
X1454031D1*
X1676214D2*
X1720676D1*
X1806047D2*
X1901535D1*
X2109466D2*
X2135959D1*
X541887Y1689469D2*
X651682D1*
X722648D2*
X1127951D1*
X1198919D2*
X1233079D1*
X1439983D2*
X1469260D1*
X1676214D2*
X1695774D1*
X1794084D2*
X1880832D1*
X547503Y1664600D2*
X651682D1*
X722648D2*
X1127951D1*
X1198919D2*
X1576828D1*
X1769182D2*
X1878732D1*
X1950091D2*
X2041476D1*
X542278Y1639731D2*
X651682D1*
X722648D2*
X1127951D1*
X1198919D2*
X1237571D1*
X1315764D2*
X1534446D1*
X1744328D2*
X1878732D1*
X1949699D2*
X2053147D1*
X2126896D2*
X2192894D1*
X521623Y1614862D2*
X651682D1*
X722648D2*
X1049290D1*
X1113860D2*
X1127936D1*
X1198919D2*
X1227806D1*
X1325480D2*
X1527171D1*
X1625383D2*
X1878732D1*
X1949699D2*
X2192894D1*
X541643Y1589993D2*
X651682D1*
X722648D2*
X1033860D1*
X1198919D2*
X1232736D1*
X1346867D2*
X1534299D1*
X1618010D2*
X1878732D1*
X1949699D2*
X2192894D1*
X547503Y1565125D2*
X651682D1*
X722648D2*
X1034739D1*
X1198919D2*
X1267014D1*
X1371722D2*
X1878732D1*
X1949699D2*
X2192894D1*
X542522Y1540256D2*
X651682D1*
X722648D2*
X763206D1*
X841350D2*
X887131D1*
X972259D2*
X1019114D1*
X1114251D2*
X1129566D1*
X1222698D2*
X1298312D1*
X1693547D2*
X1878732D1*
X1949699D2*
X2192894D1*
X522404Y1515387D2*
X651682D1*
X722648D2*
X753440D1*
X851115D2*
X873020D1*
X1092474D2*
X1149290D1*
X1247551D2*
X1323215D1*
X1734026D2*
X1878732D1*
X1949699D2*
X2192894D1*
X541399Y1490518D2*
X651682D1*
X722648D2*
X758323D1*
X1067619D2*
X1174143D1*
X1272404D2*
X1348068D1*
X1759172D2*
X1870970D1*
X1949699D2*
X2192894D1*
X547454Y1465650D2*
X651682D1*
X722648D2*
X792404D1*
X1042766D2*
X1199046D1*
X1296526D2*
X1353831D1*
X1451286D2*
X1665403D1*
X1762395D2*
X1846067D1*
X1943644D2*
X2192894D1*
X542766Y1440781D2*
X651682D1*
X722648D2*
X823899D1*
X1024699D2*
X1223899D1*
X1302386D2*
X1353831D1*
X1424748D2*
X1677268D1*
X1750480D2*
X1821214D1*
X1919475D2*
X2192894D1*
X523138Y1415912D2*
X651682D1*
X722648D2*
X848802D1*
X1024699D2*
X1231467D1*
X1302386D2*
X1353831D1*
X1505852D2*
X1796360D1*
X1894622D2*
X2192894D1*
X541155Y1391043D2*
X651682D1*
X722648D2*
X873655D1*
X1024699D2*
X1231467D1*
X1302386D2*
X1353831D1*
X1869719D2*
X2192894D1*
X547454Y1366175D2*
X651682D1*
X722648D2*
X889719D1*
X1024699D2*
X1231467D1*
X1302386D2*
X1353831D1*
X1844866D2*
X2192894D1*
X542962Y1341306D2*
X651682D1*
X722648D2*
X897336D1*
X1024699D2*
X1231467D1*
X1302386D2*
X1353831D1*
X1424748D2*
X1447142D1*
X1819524D2*
X2192894D1*
X523820Y1316437D2*
X651682D1*
X722648D2*
X953732D1*
X1024699D2*
X1038803D1*
X1163714D2*
X1182199D1*
X1424748D2*
X2192894D1*
X540862Y1291568D2*
X651682D1*
X722648D2*
X953732D1*
X1024699D2*
X1038803D1*
X1424748D2*
X1573411D1*
X547454Y1266699D2*
X651682D1*
X722648D2*
X953732D1*
X1024699D2*
X1038803D1*
X1424748D2*
X1530638D1*
X543156Y1241831D2*
X651682D1*
X722648D2*
X953732D1*
X1024699D2*
X1038803D1*
X547503Y1216962D2*
X651682D1*
X722648D2*
X953732D1*
X1024699D2*
X1038803D1*
X547503Y1192093D2*
X651682D1*
X722648D2*
X953732D1*
X1024699D2*
X1066331D1*
X547503Y1167224D2*
X651682D1*
X722648D2*
X953732D1*
X1024699D2*
X1043430D1*
X1712199D2*
X2287228D1*
X547503Y1142356D2*
X651682D1*
X722648D2*
X953732D1*
X1024699D2*
X1037223D1*
X1687346D2*
X2291282D1*
X547503Y1117487D2*
X651682D1*
X722648D2*
X953732D1*
X1024699D2*
X1041878D1*
X1662444D2*
X2309495D1*
X434685Y1092618D2*
X651682D1*
X722648D2*
X953732D1*
X1024699D2*
X1061350D1*
X1646476D2*
X2399974D1*
X434685Y1067749D2*
X651682D1*
X722648D2*
X953732D1*
X1024699D2*
X1231467D1*
X1631682D2*
X2399974D1*
X434685Y1042881D2*
X643382D1*
X730950D2*
X953732D1*
X1030218D2*
X1242307D1*
X1749944D2*
X2399974D1*
X434685Y1018012D2*
X638303D1*
X736028D2*
X896702D1*
X932024D2*
X958323D1*
X1774846D2*
X2399974D1*
X434685Y993143D2*
X647824D1*
X726507D2*
X869504D1*
X959270D2*
X981663D1*
X1799699D2*
X2399974D1*
X434685Y968274D2*
X865744D1*
X963030D2*
X1006564D1*
X1824114D2*
X2399974D1*
X434685Y943406D2*
X872336D1*
X951848D2*
X1224924D1*
X1482903D2*
X1602219D1*
X1835539D2*
X2399974D1*
X434685Y918537D2*
X872336D1*
X943303D2*
X1220774D1*
X1490423D2*
X1627072D1*
X1844231D2*
X2399974D1*
X434685Y893668D2*
X872336D1*
X943303D2*
X1231370D1*
X1483538D2*
X1644016D1*
X1838470D2*
X2399974D1*
X434685Y868799D2*
X872336D1*
X943303D2*
X1653587D1*
X2166203D2*
X2399974D1*
X434685Y843930D2*
X872336D1*
X943303D2*
X1701682D1*
X2177336D2*
X2399974D1*
X434685Y819062D2*
X872336D1*
X943303D2*
X1726535D1*
X2173576D2*
X2399974D1*
X434685Y794193D2*
X872336D1*
X943303D2*
X2111203D1*
X2146184D2*
X2399974D1*
X434685Y769324D2*
X872336D1*
X943303D2*
X2399974D1*
X434685Y744455D2*
X868479D1*
X947160D2*
X2399974D1*
X434685Y719587D2*
X858958D1*
X956682D2*
X2399974D1*
X434685Y694718D2*
X864035D1*
X951604D2*
X2399974D1*
X434685Y669849D2*
X900755D1*
X914836D2*
X1441575D1*
X1508587D2*
X2399974D1*
X434685Y644980D2*
X1420970D1*
X1529192D2*
X2399974D1*
X434685Y620112D2*
X1416623D1*
X1533488D2*
X2399974D1*
X434685Y595243D2*
X1309055D1*
X1405218D2*
X1423996D1*
X1526115D2*
X2399974D1*
X434685Y570374D2*
X1299143D1*
X1415130D2*
X1453879D1*
X1496232D2*
X1882248D1*
X1953703D2*
X2399974D1*
X434685Y545505D2*
X1301291D1*
X1412932D2*
X1869602D1*
X2200970D2*
X2399974D1*
X434685Y520636D2*
X1317600D1*
X1396672D2*
X1872287D1*
X2207122D2*
X2399974D1*
X434685Y495768D2*
X1895774D1*
X2198820D2*
X2399974D1*
X434685Y470899D2*
X2399974D1*
X434685Y446030D2*
X2399974D1*
X529623Y1224130D2*
X544996D1*
Y1104217D1*
X432177D1*
X432185Y432185D1*
X2402461D1*
Y1135848D1*
X2398113Y1128932D1*
X2392003Y1121777D1*
X2384848Y1115667D1*
X2376825Y1110752D1*
X2368134Y1107151D1*
X2358986Y1104954D1*
X2349606Y1104217D1*
X2340227Y1104954D1*
X2331079Y1107151D1*
X2322387Y1110752D1*
X2314365Y1115667D1*
X2307210Y1121777D1*
X2301100Y1128932D1*
X2296185Y1136954D1*
X2292584Y1145646D1*
X2290387Y1154794D1*
X2289650Y1164173D1*
X2290239Y1172293D1*
X2280671Y1181828D1*
X1724211Y1181785D1*
X1645097Y1102610D1*
X1644526Y1095499D1*
X1642823Y1088404D1*
X1640031Y1081664D1*
X1636219Y1075445D1*
X1631482Y1069896D1*
X1625933Y1065159D1*
X1623598Y1063598D1*
X1715678Y1063505D1*
X1723285Y1061992D1*
X1730327Y1058745D1*
X1736417Y1053945D1*
X1736643Y1053699D1*
X1820382Y969835D1*
X1824690Y963387D1*
X1827375Y956112D1*
X1828199Y950605D1*
X1834938Y940524D1*
X1838251Y934022D1*
X1840505Y927084D1*
X1841647Y919879D1*
Y912583D1*
X1840505Y905378D1*
X1838251Y898440D1*
X1834938Y891938D1*
X1830651Y886037D1*
X1825492Y880878D1*
X1819591Y876591D1*
X1813089Y873278D1*
X1806686Y871175D1*
X2095955Y871186D1*
X2101364Y875811D1*
X2107583Y879623D1*
X2114323Y882415D1*
X2121417Y884118D1*
X2128690Y884690D1*
X2135963Y884118D1*
X2143058Y882415D1*
X2149798Y879623D1*
X2156017Y875811D1*
X2161566Y871073D1*
X2166303Y865525D1*
X2170115Y859306D1*
X2172907Y852566D1*
X2174610Y845471D1*
X2175182Y838198D1*
X2174610Y830925D1*
X2172907Y823831D1*
X2170115Y817091D1*
X2166303Y810871D1*
X2161566Y805323D1*
X2156017Y800585D1*
X2149798Y796773D1*
X2143058Y793982D1*
X2135963Y792278D1*
X2128690Y791706D1*
X2121417Y792278D1*
X2114323Y793982D1*
X2107583Y796773D1*
X2101364Y800585D1*
X2095930Y805217D1*
X1753963Y805311D1*
X1746357Y806824D1*
X1739315Y810071D1*
X1733224Y814871D1*
X1732999Y815117D1*
X1703297Y844801D1*
X1693303Y845486D1*
X1684756Y847537D1*
X1676635Y850902D1*
X1669139Y855493D1*
X1662455Y861203D1*
X1656745Y867887D1*
X1652154Y875383D1*
X1648789Y883504D1*
X1646738Y892051D1*
X1646094Y902034D1*
X1594828Y953269D1*
X1471802Y953290D1*
X1476807Y948245D1*
X1481094Y942344D1*
X1484407Y935843D1*
X1486661Y928904D1*
X1487803Y921699D1*
Y914403D1*
X1486661Y907198D1*
X1484407Y900260D1*
X1481094Y893759D1*
X1476807Y887857D1*
X1471648Y882698D1*
X1465747Y878411D1*
X1459245Y875098D1*
X1452307Y872844D1*
X1445102Y871702D1*
X1437806D1*
X1430601Y872844D1*
X1423663Y875098D1*
X1417161Y878411D1*
X1411260Y882698D1*
X1408694Y885070D1*
X1295507Y885063D1*
X1287260Y880626D1*
X1280322Y878371D1*
X1273117Y877230D1*
X1265820D1*
X1258615Y878371D1*
X1251677Y880626D1*
X1245176Y883938D1*
X1239274Y888226D1*
X1234115Y893385D1*
X1229828Y899286D1*
X1226516Y905787D1*
X1224261Y912726D1*
X1223119Y919930D1*
Y927227D1*
X1224261Y934432D1*
X1226516Y941370D1*
X1229828Y947871D1*
X1233753Y953314D1*
X1035087Y953391D1*
X1027480Y954904D1*
X1020438Y958151D1*
X1014348Y962951D1*
X1014122Y963197D1*
X964138Y1013307D1*
X959829Y1019755D1*
X957144Y1027030D1*
X956234Y1034731D1*
X956247Y1035064D1*
X956234Y1323744D1*
X949572Y1321621D1*
X942367Y1320479D1*
X935071D1*
X927866Y1321621D1*
X920928Y1323875D1*
X914427Y1327188D1*
X908525Y1331475D1*
X903366Y1336634D1*
X899079Y1342535D1*
X895766Y1349037D1*
X893512Y1355975D1*
X892370Y1363180D1*
Y1370476D1*
X892846Y1374339D1*
X802110Y1465067D1*
X795008Y1465630D1*
X787913Y1467333D1*
X781173Y1470125D1*
X774954Y1473937D1*
X769406Y1478675D1*
X764668Y1484223D1*
X760856Y1490442D1*
X758064Y1497182D1*
X756361Y1504277D1*
X755789Y1511550D1*
X756361Y1518823D1*
X758064Y1525917D1*
X760856Y1532657D1*
X764668Y1538877D1*
X769406Y1544425D1*
X774954Y1549163D1*
X781173Y1552975D1*
X787913Y1555766D1*
X795008Y1557470D1*
X802281Y1558042D1*
X809554Y1557470D1*
X816648Y1555766D1*
X823388Y1552975D1*
X829608Y1549163D1*
X835156Y1544425D1*
X839894Y1538877D1*
X843706Y1532657D1*
X846497Y1525917D1*
X848201Y1518823D1*
X848766Y1511706D1*
X876257Y1484226D1*
X874353Y1492339D1*
X873663Y1501102D1*
X874353Y1509866D1*
X876404Y1518413D1*
X879769Y1526534D1*
X884361Y1534030D1*
X890071Y1540714D1*
X896755Y1546424D1*
X904251Y1551016D1*
X912371Y1554381D1*
X920919Y1556432D1*
X929682Y1557122D1*
X938446Y1556432D1*
X946993Y1554381D1*
X955114Y1551016D1*
X962610Y1546424D1*
X969294Y1540714D1*
X975004Y1534030D1*
X979596Y1526534D1*
X982961Y1518413D1*
X985012Y1509866D1*
X985579Y1504244D1*
X1039886Y1558563D1*
X1037365Y1564803D1*
X1035661Y1571898D1*
X1035089Y1579171D1*
X1035661Y1586444D1*
X1037365Y1593538D1*
X1040156Y1600278D1*
X1043969Y1606497D1*
X1048706Y1612046D1*
X1054255Y1616783D1*
X1060474Y1620596D1*
X1067214Y1623387D1*
X1074308Y1625091D1*
X1081581Y1625663D1*
X1088854Y1625091D1*
X1095949Y1623387D1*
X1102689Y1620596D1*
X1108908Y1616783D1*
X1114457Y1612046D1*
X1119194Y1606497D1*
X1123007Y1600278D1*
X1125798Y1593538D1*
X1127501Y1586444D1*
X1128073Y1579171D1*
X1127501Y1571898D1*
X1125798Y1564803D1*
X1123007Y1558063D1*
X1119194Y1551844D1*
X1113525Y1545434D1*
X1110974Y1538630D1*
X1106665Y1532182D1*
X1022217Y1447589D1*
X1022210Y1048406D1*
X1051322Y1019283D1*
X1268486Y1019266D1*
X1241837Y1045992D1*
X1237529Y1052440D1*
X1234844Y1059715D1*
X1233933Y1067416D1*
X1233946Y1067749D1*
X1233933Y1080747D1*
X1139735Y1080741D1*
Y1096122D1*
X1134933Y1092192D1*
X1126911Y1087277D1*
X1118219Y1083676D1*
X1109071Y1081479D1*
X1099692Y1080741D1*
X1090312Y1081479D1*
X1081164Y1083676D1*
X1072472Y1087277D1*
X1064450Y1092192D1*
X1057295Y1098302D1*
X1051185Y1105457D1*
X1046270Y1113479D1*
X1042669Y1122171D1*
X1040472Y1131319D1*
X1039735Y1140698D1*
X1040472Y1150077D1*
X1042669Y1159226D1*
X1046270Y1167917D1*
X1051185Y1175940D1*
X1057295Y1183094D1*
X1064450Y1189205D1*
X1072472Y1194119D1*
X1081164Y1197720D1*
X1085181Y1198853D1*
X1041310Y1198852D1*
Y1318765D1*
X1161223D1*
Y1303385D1*
X1166025Y1307315D1*
X1174047Y1312230D1*
X1182739Y1315831D1*
X1191887Y1318028D1*
X1201266Y1318765D1*
X1210646Y1318028D1*
X1219794Y1315831D1*
X1228486Y1312230D1*
X1233954Y1309021D1*
X1233933Y1433285D1*
X1138345Y1528958D1*
X1134037Y1535406D1*
X1131353Y1542681D1*
X1130441Y1550382D1*
X1130454Y1550715D1*
X1130441Y1833438D1*
X1029617Y1933932D1*
X1031668Y1925385D1*
X1032358Y1916621D1*
X1031668Y1907857D1*
X1029617Y1899310D1*
X1026252Y1891189D1*
X1021660Y1883693D1*
X1015950Y1877009D1*
X1009266Y1871299D1*
X1001770Y1866707D1*
X993650Y1863343D1*
X985102Y1861291D1*
X976339Y1860601D1*
X967575Y1861291D1*
X959028Y1863343D1*
X950907Y1866707D1*
X943411Y1871299D1*
X936727Y1877009D1*
X931017Y1883693D1*
X926425Y1891189D1*
X923060Y1899310D1*
X921009Y1907857D1*
X920319Y1916621D1*
X921009Y1925385D1*
X923060Y1933932D1*
X926425Y1942052D1*
X931017Y1949549D1*
X936727Y1956232D1*
X943411Y1961942D1*
X950907Y1966534D1*
X959028Y1969899D1*
X967575Y1971950D1*
X974433Y1972566D1*
X971659Y1978151D1*
X969404Y1985089D1*
X968262Y1992294D1*
Y1999591D1*
X969404Y2006795D1*
X971659Y2013734D1*
X974971Y2020235D1*
X979259Y2026136D1*
X984417Y2031295D1*
X990319Y2035583D1*
X996820Y2038895D1*
X1003759Y2041150D1*
X1010963Y2042291D1*
X1018260D1*
X1025465Y2041150D1*
X1032403Y2038895D1*
X1038904Y2035583D1*
X1044806Y2031295D1*
X1049965Y2026136D1*
X1054252Y2020235D1*
X1057564Y2013734D1*
X1059819Y2006795D1*
X1060961Y1999591D1*
X1061097Y1996098D1*
X1188513Y1868549D1*
X1192822Y1862101D1*
X1195505Y1854825D1*
X1196417Y1847125D1*
X1196404Y1846791D1*
X1196417Y1564068D1*
X1292005Y1468314D1*
X1296314Y1461866D1*
X1298997Y1454591D1*
X1299909Y1446890D1*
X1299896Y1446556D1*
X1299909Y1331314D1*
X1306547Y1333403D1*
X1313752Y1334545D1*
X1321049D1*
X1328253Y1333403D1*
X1335192Y1331148D1*
X1341693Y1327836D1*
X1347594Y1323549D1*
X1352753Y1318390D1*
X1356304Y1313591D1*
X1356297Y1484841D1*
X1276500Y1564575D1*
X1269388Y1565146D1*
X1262294Y1566849D1*
X1255554Y1569640D1*
X1249335Y1573453D1*
X1243786Y1578190D1*
X1239049Y1583739D1*
X1235236Y1589958D1*
X1232445Y1596698D1*
X1230741Y1603793D1*
X1230169Y1611066D1*
X1230741Y1618339D1*
X1232445Y1625433D1*
X1235236Y1632173D1*
X1239049Y1638392D1*
X1243786Y1643941D1*
X1249335Y1648678D1*
X1255554Y1652491D1*
X1262294Y1655282D1*
X1269388Y1656986D1*
X1276661Y1657558D1*
X1283934Y1656986D1*
X1291029Y1655282D1*
X1297769Y1652491D1*
X1303988Y1648678D1*
X1309537Y1643941D1*
X1314274Y1638392D1*
X1318087Y1632173D1*
X1320878Y1625433D1*
X1322581Y1618339D1*
X1323147Y1611222D1*
X1401117Y1533264D1*
X1404659Y1539009D1*
X1409396Y1544558D1*
X1414945Y1549295D1*
X1421164Y1553108D1*
X1427904Y1555899D1*
X1434999Y1557602D1*
X1442272Y1558175D1*
X1449545Y1557602D1*
X1456639Y1555899D1*
X1463379Y1553108D1*
X1469598Y1549295D1*
X1475031Y1544664D1*
X1677152Y1544570D1*
X1684759Y1543056D1*
X1691801Y1539810D1*
X1697891Y1535009D1*
X1698117Y1534764D1*
X1714014Y1518885D1*
X1721156Y1518283D1*
X1728251Y1516580D1*
X1734991Y1513789D1*
X1741210Y1509976D1*
X1746759Y1505239D1*
X1751496Y1499690D1*
X1755308Y1493471D1*
X1758100Y1486731D1*
X1759803Y1479636D1*
X1760375Y1472364D1*
X1759803Y1465091D1*
X1758100Y1457996D1*
X1755308Y1451256D1*
X1751496Y1445037D1*
X1746759Y1439488D1*
X1741210Y1434751D1*
X1734991Y1430938D1*
X1728251Y1428147D1*
X1721156Y1426444D1*
X1713883Y1425871D1*
X1706610Y1426444D1*
X1699516Y1428147D1*
X1692776Y1430938D1*
X1686556Y1434751D1*
X1681008Y1439488D1*
X1676270Y1445037D1*
X1672458Y1451256D1*
X1669667Y1457996D1*
X1667963Y1465091D1*
X1667398Y1472207D1*
X1660899Y1478696D1*
X1475004Y1478694D1*
X1469598Y1474070D1*
X1463379Y1470257D1*
X1456639Y1467466D1*
X1449545Y1465762D1*
X1442272Y1465190D1*
X1434999Y1465762D1*
X1427904Y1467466D1*
X1422265Y1469751D1*
X1422273Y1248686D1*
X1460554Y1248709D1*
X1466013Y1253333D1*
X1472232Y1257146D1*
X1478972Y1259937D1*
X1486067Y1261640D1*
X1493340Y1262213D1*
X1500613Y1261640D1*
X1507707Y1259937D1*
X1514448Y1257146D1*
X1520667Y1253333D1*
X1526921Y1247831D1*
X1527967Y1253916D1*
X1530222Y1260854D1*
X1533534Y1267356D1*
X1537822Y1273257D1*
X1542980Y1278416D1*
X1548882Y1282703D1*
X1555383Y1286016D1*
X1562322Y1288270D1*
X1569526Y1289412D1*
X1573245Y1289552D1*
X1579308Y1293566D1*
X1586584Y1296251D1*
X1594285Y1297161D1*
X1594618Y1297148D1*
X2195408Y1297161D1*
X2195316Y1651256D1*
X2188222Y1649552D1*
X2180949Y1648980D1*
X2173676Y1649552D1*
X2166581Y1651256D1*
X2159841Y1654047D1*
X2153622Y1657860D1*
X2148073Y1662597D1*
X2143336Y1668146D1*
X2139524Y1674365D1*
X2136732Y1681105D1*
X2135029Y1688199D1*
X2134457Y1695472D1*
X2135029Y1702745D1*
X2136732Y1709840D1*
X2139524Y1716580D1*
X2143336Y1722799D1*
X2148073Y1728348D1*
X2153622Y1733085D1*
X2159841Y1736898D1*
X2166581Y1739689D1*
X2173676Y1741392D1*
X2180949Y1741965D1*
X2188222Y1741392D1*
X2195409Y1739655D1*
X2195387Y1846350D1*
X2184965Y1853438D1*
X2177760Y1854580D1*
X2170822Y1856835D1*
X2164320Y1860147D1*
X2158419Y1864434D1*
X2153260Y1869593D1*
X2148972Y1875495D1*
X2145660Y1881996D1*
X2143406Y1888934D1*
X2142264Y1896139D1*
Y1903436D1*
X2143406Y1910640D1*
X2145660Y1917579D1*
X2148972Y1924080D1*
X2153260Y1929982D1*
X2155631Y1932547D1*
X2155625Y1988703D1*
X2083424Y2060856D1*
X1693564Y2060924D1*
X1685958Y2062437D1*
X1678916Y2065684D1*
X1672825Y2070484D1*
X1672600Y2070730D1*
X1557148Y2186307D1*
X1552840Y2192755D1*
X1550156Y2200030D1*
X1549244Y2207731D1*
X1549257Y2208064D1*
X1549244Y2268424D1*
X1543127Y2263143D1*
X1536908Y2259331D1*
X1530168Y2256539D1*
X1523073Y2254836D1*
X1515801Y2254264D1*
X1508528Y2254836D1*
X1501433Y2256539D1*
X1494693Y2259331D1*
X1488474Y2263143D1*
X1482925Y2267881D1*
X1478188Y2273429D1*
X1474375Y2279648D1*
X1471584Y2286388D1*
X1469860Y2293667D1*
X1385772Y2293646D1*
X1385793Y2205606D1*
X1387220Y2205626D1*
Y2085713D1*
X1267307D1*
Y2101093D1*
X1262505Y2097163D1*
X1254483Y2092248D1*
X1245791Y2088647D1*
X1236643Y2086450D1*
X1227264Y2085713D1*
X1217885Y2086450D1*
X1208736Y2088647D1*
X1200045Y2092248D1*
X1192022Y2097163D1*
X1184867Y2103273D1*
X1178757Y2110428D1*
X1173843Y2118450D1*
X1170241Y2127142D1*
X1168045Y2136290D1*
X1167307Y2145669D1*
X1168045Y2155049D1*
X1170241Y2164197D1*
X1173843Y2172888D1*
X1178757Y2180911D1*
X1184867Y2188066D1*
X1192022Y2194176D1*
X1200045Y2199091D1*
X1208736Y2202692D1*
X1217217Y2204755D1*
X1207308Y2207064D1*
X1198617Y2210665D1*
X1190594Y2215580D1*
X1183440Y2221690D1*
X1177329Y2228845D1*
X1172415Y2236867D1*
X1168814Y2245559D1*
X1166617Y2254707D1*
X1165879Y2264087D1*
X1166617Y2273466D1*
X1168814Y2282614D1*
X1172415Y2291306D1*
X1177329Y2299328D1*
X1183440Y2306483D1*
X1188818Y2311192D1*
X1186563Y2316440D1*
X1185050Y2324046D1*
X1184949Y2439134D1*
Y2464281D1*
X1178983Y2470972D1*
X1175171Y2477192D1*
X1172379Y2483932D1*
X1170676Y2491026D1*
X1170104Y2498299D1*
X1170676Y2505572D1*
X1172379Y2512667D1*
X1175171Y2519407D1*
X1178983Y2525626D1*
X1183720Y2531175D1*
X1189269Y2535912D1*
X1195488Y2539724D1*
X1202228Y2542516D1*
X1209323Y2544219D1*
X1216596Y2544791D1*
X1223869Y2544219D1*
X1230963Y2542516D1*
X1237703Y2539724D1*
X1243923Y2535912D1*
X1249471Y2531175D1*
X1254209Y2525626D1*
X1258021Y2519407D1*
X1260812Y2512667D1*
X1262516Y2505572D1*
X1263088Y2498299D1*
X1262516Y2491026D1*
X1260812Y2483932D1*
X1258021Y2477192D1*
X1254209Y2470972D1*
X1250913Y2466984D1*
X1250925Y2359579D1*
X1306365Y2359622D1*
X1302741Y2367923D1*
X1301038Y2375017D1*
X1300466Y2382290D1*
X1301038Y2389563D1*
X1302741Y2396657D1*
X1305533Y2403398D1*
X1309345Y2409617D1*
X1314083Y2415165D1*
X1319631Y2419903D1*
X1325850Y2423715D1*
X1332591Y2426507D1*
X1339685Y2428210D1*
X1346958Y2428782D1*
X1354231Y2428210D1*
X1358100Y2427416D1*
X1362037Y2442707D1*
Y2601448D1*
X1356209Y2603966D1*
X1349990Y2607778D1*
X1344441Y2612516D1*
X1339703Y2618064D1*
X1335891Y2624283D1*
X1333100Y2631024D1*
X1331396Y2638118D1*
X1330824Y2645391D1*
X1331396Y2652664D1*
X1333100Y2659759D1*
X1335891Y2666499D1*
X1339703Y2672718D1*
X1344441Y2678266D1*
X1349990Y2683004D1*
X1356209Y2686816D1*
X1362949Y2689608D1*
X1367512Y2690807D1*
X1362974Y2696993D1*
X1359661Y2703495D1*
X1357407Y2710433D1*
X1356265Y2717638D1*
Y2724934D1*
X1357407Y2732139D1*
X1359661Y2739077D1*
X1362974Y2745579D1*
X1367261Y2751480D1*
X1372420Y2756639D1*
X1378322Y2760927D1*
X1384823Y2764239D1*
X1391761Y2766493D1*
X1398966Y2767635D1*
X1406262D1*
X1413467Y2766493D1*
X1420406Y2764239D1*
X1426907Y2760927D1*
X1432808Y2756639D1*
X1437967Y2751480D1*
X1440089Y2749413D1*
X1446180Y2744613D1*
X1475765Y2714882D1*
X1480073Y2708434D1*
X1482759Y2701159D1*
X1483669Y2693458D1*
X1483656Y2693125D1*
X1483669Y2573487D1*
X1489861Y2568252D1*
X1494598Y2562703D1*
X1498411Y2556484D1*
X1501202Y2549744D1*
X1502906Y2542650D1*
X1503478Y2535377D1*
X1502906Y2528104D1*
X1501202Y2521009D1*
X1499276Y2516147D1*
X1562365Y2516154D1*
X1567829Y2520778D1*
X1574049Y2524591D1*
X1578224Y2526493D1*
X1570951Y2525921D1*
X1563678Y2526493D1*
X1556584Y2528197D1*
X1549844Y2530988D1*
X1543625Y2534801D1*
X1538076Y2539538D1*
X1533339Y2545087D1*
X1529526Y2551306D1*
X1526735Y2558046D1*
X1525031Y2565140D1*
X1524459Y2572413D1*
X1525031Y2579686D1*
X1526735Y2586781D1*
X1529526Y2593521D1*
X1533339Y2599740D1*
X1538076Y2605289D1*
X1543625Y2610026D1*
X1549844Y2613839D1*
X1556584Y2616630D1*
X1563678Y2618333D1*
X1570951Y2618906D1*
X1578224Y2618333D1*
X1585319Y2616630D1*
X1592059Y2613839D1*
X1598278Y2610026D1*
X1604088Y2605005D1*
X1653125Y2604913D1*
X1660731Y2603400D1*
X1667773Y2600154D1*
X1673864Y2595353D1*
X1678664Y2589262D1*
X1681911Y2582220D1*
X1683424Y2574614D1*
X1683525Y2459526D1*
X1683537Y2433802D1*
X1690812Y2431117D1*
X1697260Y2426808D1*
X1702524Y2421114D1*
X1706314Y2414349D1*
X1708419Y2406885D1*
X1708824Y2401724D1*
Y2192301D1*
X1728752Y2172409D1*
X2149127Y2172315D1*
X2156734Y2170802D1*
X2163776Y2167555D1*
X2169866Y2162755D1*
X2170092Y2162509D1*
X2268056Y2064419D1*
X2272365Y2057971D1*
X2275050Y2050696D1*
X2275961Y2042995D1*
X2275948Y2042661D1*
X2275961Y1961794D1*
X2280585Y1956385D1*
X2284398Y1950165D1*
X2287189Y1943425D1*
X2288892Y1936331D1*
X2289458Y1929214D1*
X2303751Y1914787D1*
X2308059Y1908340D1*
X2308224Y1907982D1*
X2308059Y1908340D1*
X2308224Y1907982D1*
X2316551Y1914140D1*
X2310668Y1918581D1*
X2304014Y1925235D1*
X2298484Y1932846D1*
X2294214Y1941228D1*
X2291306Y1950177D1*
X2289835Y1959469D1*
Y1968878D1*
X2291306Y1978169D1*
X2294214Y1987118D1*
X2298484Y1995500D1*
X2304014Y2003112D1*
X2305026Y2004206D1*
X2289650Y2004217D1*
Y2124130D1*
X2402469D1*
X2402461Y3032382D1*
X432185D1*
Y2092490D1*
X436533Y2099415D1*
X442643Y2106570D1*
X449798Y2112680D1*
X457820Y2117594D1*
X466512Y2121196D1*
X475660Y2123392D1*
X485039Y2124130D1*
X494419Y2123392D1*
X503567Y2121196D1*
X512259Y2117594D1*
X520281Y2112680D1*
X527436Y2106570D1*
X533546Y2099415D1*
X538461Y2091392D1*
X542062Y2082701D1*
X544259Y2073552D1*
X544996Y2064173D1*
X544259Y2054794D1*
X542062Y2045646D1*
X538461Y2036954D1*
X533546Y2028932D1*
X527436Y2021777D1*
X520281Y2015667D1*
X518094Y2014206D1*
X523978Y2009765D1*
X530631Y2003112D1*
X536161Y1995500D1*
X540432Y1987118D1*
X543340Y1978169D1*
X544811Y1968878D1*
Y1959469D1*
X543340Y1950177D1*
X540432Y1941228D1*
X536161Y1932846D1*
X530631Y1925235D1*
X523978Y1918581D1*
X518094Y1914206D1*
X523978Y1909765D1*
X530631Y1903112D1*
X536161Y1895500D1*
X540432Y1887118D1*
X543340Y1878169D1*
X544811Y1868878D1*
Y1859469D1*
X543340Y1850177D1*
X540432Y1841228D1*
X536161Y1832846D1*
X530631Y1825235D1*
X523978Y1818581D1*
X518094Y1814206D1*
X523978Y1809765D1*
X530631Y1803112D1*
X536161Y1795500D1*
X540432Y1787118D1*
X543340Y1778169D1*
X544811Y1768878D1*
Y1759469D1*
X543340Y1750177D1*
X540432Y1741228D1*
X536161Y1732846D1*
X530631Y1725235D1*
X523978Y1718581D1*
X518094Y1714206D1*
X523978Y1709765D1*
X530631Y1703112D1*
X536161Y1695500D1*
X540432Y1687118D1*
X543340Y1678169D1*
X544811Y1668878D1*
Y1659469D1*
X543340Y1650177D1*
X540432Y1641228D1*
X536161Y1632846D1*
X530631Y1625235D1*
X523978Y1618581D1*
X518094Y1614206D1*
X523978Y1609765D1*
X530631Y1603112D1*
X536161Y1595500D1*
X540432Y1587118D1*
X543340Y1578169D1*
X544811Y1568878D1*
Y1559469D1*
X543340Y1550177D1*
X540432Y1541228D1*
X536161Y1532846D1*
X530631Y1525235D1*
X523978Y1518581D1*
X518094Y1514206D1*
X523978Y1509765D1*
X530631Y1503112D1*
X536161Y1495500D1*
X540432Y1487118D1*
X543340Y1478169D1*
X544811Y1468878D1*
Y1459469D1*
X543340Y1450177D1*
X540432Y1441228D1*
X536161Y1432846D1*
X530631Y1425235D1*
X523978Y1418581D1*
X518094Y1414206D1*
X523978Y1409765D1*
X530631Y1403112D1*
X536161Y1395500D1*
X540432Y1387118D1*
X543340Y1378169D1*
X544811Y1368878D1*
Y1359469D1*
X543340Y1350177D1*
X540432Y1341228D1*
X536161Y1332846D1*
X530631Y1325235D1*
X523978Y1318581D1*
X518094Y1314206D1*
X523978Y1309765D1*
X530631Y1303112D1*
X536161Y1295500D1*
X540432Y1287118D1*
X543340Y1278169D1*
X544811Y1268878D1*
Y1259469D1*
X543340Y1250177D1*
X540432Y1241228D1*
X536161Y1232846D1*
X530631Y1225235D1*
X529619Y1224140D1*
X995850Y2914287D2*
X1103264D1*
Y2898907D1*
X1108066Y2902837D1*
X1116088Y2907752D1*
X1124780Y2911353D1*
X1133928Y2913550D1*
X1143307Y2914287D1*
X1152686Y2913550D1*
X1161835Y2911353D1*
X1170526Y2907752D1*
X1178549Y2902837D1*
X1185703Y2896727D1*
X1191814Y2889572D1*
X1196728Y2881550D1*
X1200329Y2872858D1*
X1202526Y2863710D1*
X1203264Y2854331D1*
X1202526Y2844951D1*
X1200329Y2835803D1*
X1196728Y2827112D1*
X1191814Y2819089D1*
X1185703Y2811934D1*
X1178549Y2805824D1*
X1170526Y2800909D1*
X1161835Y2797308D1*
X1152686Y2795112D1*
X1143307Y2794374D1*
X1133928Y2795112D1*
X1124780Y2797308D1*
X1116088Y2800909D1*
X1108066Y2805824D1*
X1103274Y2809751D1*
X1103264Y2794374D1*
X983350D1*
Y2914287D1*
X995850D1*
X1094276Y2776492D2*
X1201689D1*
Y2656579D1*
X1081776D1*
Y2671959D1*
X1076974Y2668029D1*
X1068951Y2663114D1*
X1060260Y2659513D1*
X1051112Y2657316D1*
X1041732Y2656579D1*
X1032353Y2657316D1*
X1023205Y2659513D1*
X1014513Y2663114D1*
X1006491Y2668029D1*
X999336Y2674139D1*
X993226Y2681294D1*
X988311Y2689316D1*
X984710Y2698008D1*
X982513Y2707156D1*
X981776Y2716535D1*
X982513Y2725915D1*
X984710Y2735063D1*
X988311Y2743755D1*
X993226Y2751777D1*
X999336Y2758932D1*
X1006491Y2765042D1*
X1014513Y2769957D1*
X1023205Y2773558D1*
X1032353Y2775755D1*
X1041732Y2776492D1*
X1051112Y2775755D1*
X1060260Y2773558D1*
X1068951Y2769957D1*
X1076974Y2765042D1*
X1081765Y2761115D1*
X1081776Y2776492D1*
X1094276D1*
X1330072Y1792240D2*
X1437486D1*
Y1672327D1*
X1317572D1*
Y1687707D1*
X1312770Y1683777D1*
X1304748Y1678862D1*
X1296056Y1675261D1*
X1286908Y1673064D1*
X1277529Y1672327D1*
X1268150Y1673064D1*
X1259001Y1675261D1*
X1250310Y1678862D1*
X1242287Y1683777D1*
X1235133Y1689887D1*
X1229022Y1697042D1*
X1224108Y1705064D1*
X1220507Y1713756D1*
X1218310Y1722904D1*
X1217572Y1732283D1*
X1218310Y1741663D1*
X1220507Y1750811D1*
X1224108Y1759503D1*
X1229022Y1767525D1*
X1235133Y1774680D1*
X1242287Y1780790D1*
X1250310Y1785705D1*
X1259001Y1789306D1*
X1268150Y1791503D1*
X1277529Y1792240D1*
X1286908Y1791503D1*
X1296056Y1789306D1*
X1304748Y1785705D1*
X1312770Y1780790D1*
X1317562Y1776864D1*
X1317572Y1792240D1*
X1330072D1*
X1566293D2*
X1673706D1*
Y1683304D1*
X1692112Y1683302D1*
X1737589Y1728780D1*
X1737602Y1928848D1*
X1565198Y1928950D1*
X1557592Y1930463D1*
X1550550Y1933710D1*
X1544459Y1938510D1*
X1544234Y1938756D1*
X1477719Y2005251D1*
X1470610Y2005820D1*
X1463516Y2007524D1*
X1456776Y2010315D1*
X1450556Y2014127D1*
X1445008Y2018865D1*
X1440270Y2024413D1*
X1436458Y2030633D1*
X1433667Y2037373D1*
X1431963Y2044467D1*
X1431391Y2051740D1*
X1431963Y2059013D1*
X1433667Y2066108D1*
X1436458Y2072848D1*
X1440270Y2079067D1*
X1445008Y2084615D1*
X1450556Y2089353D1*
X1456776Y2093165D1*
X1463516Y2095957D1*
X1470610Y2097660D1*
X1477883Y2098232D1*
X1485156Y2097660D1*
X1492251Y2095957D1*
X1498991Y2093165D1*
X1505210Y2089353D1*
X1510759Y2084615D1*
X1515496Y2079067D1*
X1519308Y2072848D1*
X1522100Y2066108D1*
X1523803Y2059013D1*
X1524369Y2051896D1*
X1581484Y1994791D1*
X1737854Y1994825D1*
X1743264Y1999450D1*
X1749483Y2003262D1*
X1756223Y2006054D1*
X1763318Y2007757D1*
X1770591Y2008329D1*
X1777864Y2007757D1*
X1784958Y2006054D1*
X1791698Y2003262D1*
X1797917Y1999450D1*
X1803466Y1994713D1*
X1808203Y1989164D1*
X1812016Y1982945D1*
X1814807Y1976205D1*
X1816510Y1969110D1*
X1817083Y1961837D1*
X1816510Y1954564D1*
X1814807Y1947470D1*
X1812016Y1940730D1*
X1808203Y1934510D1*
X1803572Y1929077D1*
X1803478Y1712539D1*
X1801965Y1704933D1*
X1798718Y1697891D1*
X1793917Y1691801D1*
X1793672Y1691575D1*
X1727201Y1625230D1*
X1720753Y1620921D1*
X1713478Y1618236D1*
X1705777Y1617325D1*
X1705444Y1617339D1*
X1625357Y1617325D1*
X1622497Y1611122D1*
X1621356Y1603917D1*
X1619101Y1596979D1*
X1615789Y1590478D1*
X1611501Y1584576D1*
X1606343Y1579417D1*
X1600441Y1575130D1*
X1593940Y1571818D1*
X1587001Y1569563D1*
X1579797Y1568421D1*
X1572500D1*
X1565295Y1569563D1*
X1558357Y1571818D1*
X1551856Y1575130D1*
X1545954Y1579417D1*
X1540795Y1584576D1*
X1536508Y1590478D1*
X1533196Y1596979D1*
X1530941Y1603917D1*
X1529799Y1611122D1*
Y1618419D1*
X1530941Y1625623D1*
X1533196Y1632562D1*
X1536508Y1639063D1*
X1540795Y1644965D1*
X1545954Y1650123D1*
X1551856Y1654411D1*
X1558357Y1657723D1*
X1565295Y1659978D1*
X1572500Y1661119D1*
X1575992Y1661256D1*
X1587038Y1672312D1*
X1553793Y1672327D1*
Y1687707D1*
X1548991Y1683777D1*
X1540969Y1678862D1*
X1532277Y1675261D1*
X1523129Y1673064D1*
X1513749Y1672327D1*
X1504370Y1673064D1*
X1495222Y1675261D1*
X1486530Y1678862D1*
X1478508Y1683777D1*
X1471353Y1689887D1*
X1465243Y1697042D1*
X1460328Y1705064D1*
X1456727Y1713756D1*
X1454530Y1722904D1*
X1453793Y1732283D1*
X1454530Y1741663D1*
X1456727Y1750811D1*
X1460328Y1759503D1*
X1465243Y1767525D1*
X1471353Y1774680D1*
X1478508Y1780790D1*
X1486530Y1785705D1*
X1495222Y1789306D1*
X1504370Y1791503D1*
X1513749Y1792240D1*
X1523129Y1791503D1*
X1532277Y1789306D1*
X1540969Y1785705D1*
X1548991Y1780790D1*
X1553782Y1776864D1*
X1553793Y1792240D1*
X1566293D1*
X823563Y2338125D2*
X822189Y2329442D1*
X819472Y2321081D1*
X815482Y2313249D1*
X810314Y2306138D1*
X804098Y2299923D1*
X796987Y2294755D1*
X789155Y2290764D1*
X780794Y2288047D1*
X772112Y2286673D1*
X763322D1*
X754639Y2288047D1*
X746278Y2290764D1*
X738446Y2294755D1*
X731335Y2299923D1*
X725119Y2306138D1*
X720134Y2312978D1*
X720146Y1054264D1*
X724770Y1048829D1*
X728583Y1042610D1*
X731374Y1035870D1*
X733077Y1028776D1*
X733650Y1021503D1*
X733077Y1014230D1*
X731374Y1007135D1*
X728583Y1000395D1*
X724770Y994176D1*
X720033Y988627D1*
X714484Y983890D1*
X708265Y980077D1*
X701525Y977286D1*
X694430Y975583D1*
X687157Y975010D1*
X679885Y975583D1*
X672790Y977286D1*
X666050Y980077D1*
X659831Y983890D1*
X654282Y988627D1*
X649545Y994176D1*
X645732Y1000395D1*
X642941Y1007135D1*
X641238Y1014230D1*
X640665Y1021503D1*
X641238Y1028776D1*
X642941Y1035870D1*
X645732Y1042610D1*
X649545Y1048829D1*
X654176Y1054262D1*
X654169Y2400054D1*
X652505Y2407038D1*
X651933Y2414311D1*
X652505Y2421584D1*
X654209Y2428678D1*
X657000Y2435419D1*
X660812Y2441638D1*
X665550Y2447186D1*
X671098Y2451924D1*
X677318Y2455736D1*
X684058Y2458528D1*
X691152Y2460231D1*
X698425Y2460803D1*
X705698Y2460231D1*
X712793Y2458528D1*
X719533Y2455736D1*
X725752Y2451924D1*
X731301Y2447186D1*
X736038Y2441638D1*
X739850Y2435419D1*
X742642Y2428678D1*
X744345Y2421584D1*
X744917Y2414311D1*
X744345Y2407038D1*
X742642Y2399944D1*
X739850Y2393203D1*
X738446Y2390285D1*
X746278Y2394276D1*
X754639Y2396992D1*
X763322Y2398366D1*
X772112D1*
X780794Y2396992D1*
X789155Y2394276D1*
X796987Y2390285D1*
X804098Y2385117D1*
X810314Y2378902D1*
X815482Y2371790D1*
X819472Y2363958D1*
X822189Y2355597D1*
X823563Y2346915D1*
Y2338125D1*
X1040098Y1767259D2*
X1038724Y1758576D1*
X1036008Y1750215D1*
X1032017Y1742383D1*
X1026849Y1735272D1*
X1020634Y1729056D1*
X1013522Y1723888D1*
X1005690Y1719898D1*
X997329Y1717181D1*
X988647Y1715807D1*
X979857D1*
X971175Y1717181D1*
X962814Y1719898D1*
X954982Y1723888D1*
X947870Y1729056D1*
X941655Y1735272D1*
X936487Y1742383D1*
X932496Y1750215D1*
X929780Y1758576D1*
X928406Y1767259D1*
Y1776049D1*
X929780Y1784731D1*
X932496Y1793092D1*
X936487Y1800924D1*
X941655Y1808035D1*
X947870Y1814251D1*
X954982Y1819419D1*
X962814Y1823409D1*
X971175Y1826126D1*
X979857Y1827500D1*
X988647D1*
X997329Y1826126D1*
X1005690Y1823409D1*
X1013522Y1819419D1*
X1020634Y1814251D1*
X1026849Y1808035D1*
X1032017Y1800924D1*
X1036008Y1793092D1*
X1038724Y1784731D1*
X1040098Y1776049D1*
Y1767259D1*
X1530915Y618790D2*
X1529541Y610108D1*
X1526824Y601747D1*
X1522833Y593915D1*
X1517665Y586803D1*
X1511450Y580588D1*
X1504339Y575420D1*
X1496507Y571429D1*
X1488146Y568713D1*
X1479463Y567339D1*
X1470673D1*
X1461991Y568713D1*
X1453630Y571429D1*
X1445798Y575420D1*
X1438686Y580588D1*
X1432471Y586803D1*
X1427303Y593915D1*
X1423312Y601747D1*
X1420596Y610108D1*
X1419222Y618790D1*
Y627580D1*
X1420596Y636262D1*
X1423312Y644623D1*
X1427303Y652455D1*
X1432471Y659567D1*
X1438686Y665782D1*
X1445798Y670950D1*
X1453630Y674941D1*
X1461991Y677657D1*
X1470673Y679031D1*
X1479463D1*
X1488146Y677657D1*
X1496507Y674941D1*
X1504339Y670950D1*
X1511450Y665782D1*
X1517665Y659567D1*
X1522833Y652455D1*
X1526824Y644623D1*
X1529541Y636262D1*
X1530915Y627580D1*
Y618790D1*
X1412975Y558268D2*
X1411601Y549585D1*
X1408885Y541224D1*
X1404894Y533392D1*
X1399726Y526281D1*
X1393510Y520066D1*
X1386399Y514898D1*
X1378567Y510907D1*
X1370206Y508190D1*
X1361524Y506816D1*
X1352734D1*
X1344051Y508190D1*
X1335690Y510907D1*
X1327858Y514898D1*
X1320747Y520066D1*
X1314531Y526281D1*
X1309364Y533392D1*
X1305373Y541224D1*
X1302656Y549585D1*
X1301282Y558268D1*
Y567058D1*
X1302656Y575740D1*
X1305373Y584101D1*
X1309364Y591933D1*
X1314531Y599045D1*
X1320747Y605260D1*
X1327858Y610428D1*
X1335690Y614419D1*
X1344051Y617135D1*
X1352734Y618509D1*
X1361524D1*
X1370206Y617135D1*
X1378567Y614419D1*
X1386399Y610428D1*
X1393510Y605260D1*
X1399726Y599045D1*
X1404894Y591933D1*
X1408885Y584101D1*
X1411601Y575740D1*
X1412975Y567058D1*
Y558268D1*
X1430314Y1893398D2*
X1424881Y1888766D1*
X1418661Y1884954D1*
X1411921Y1882163D1*
X1404827Y1880459D1*
X1397554Y1879887D1*
X1390281Y1880459D1*
X1383186Y1882163D1*
X1376446Y1884954D1*
X1370227Y1888766D1*
X1364678Y1893504D1*
X1359941Y1899052D1*
X1356129Y1905272D1*
X1353337Y1912012D1*
X1351634Y1919106D1*
X1351062Y1926379D1*
X1351634Y1933652D1*
X1353337Y1940747D1*
X1356129Y1947487D1*
X1359941Y1953706D1*
X1364678Y1959255D1*
X1370227Y1963992D1*
X1376446Y1967804D1*
X1383186Y1970596D1*
X1390281Y1972299D1*
X1397554Y1972871D1*
X1404827Y1972299D1*
X1411921Y1970596D1*
X1418661Y1967804D1*
X1424881Y1963992D1*
X1430314Y1959361D1*
X1496243Y1959266D1*
X1503849Y1957753D1*
X1510891Y1954507D1*
X1516982Y1949706D1*
X1517207Y1949461D1*
X1542358Y1924328D1*
X1549503Y1923724D1*
X1556597Y1922021D1*
X1563337Y1919230D1*
X1569556Y1915417D1*
X1575105Y1910680D1*
X1579843Y1905131D1*
X1583655Y1898912D1*
X1586446Y1892172D1*
X1588150Y1885077D1*
X1588722Y1877804D1*
X1588150Y1870531D1*
X1586446Y1863437D1*
X1583655Y1856697D1*
X1579843Y1850478D1*
X1575105Y1844929D1*
X1569556Y1840192D1*
X1563337Y1836379D1*
X1556597Y1833588D1*
X1549503Y1831885D1*
X1542230Y1831312D1*
X1534957Y1831885D1*
X1527862Y1833588D1*
X1521122Y1836379D1*
X1514903Y1840192D1*
X1509354Y1844929D1*
X1504617Y1850478D1*
X1500804Y1856697D1*
X1498013Y1863437D1*
X1496310Y1870531D1*
X1495744Y1877648D1*
X1479992Y1893390D1*
X1430324Y1893391D1*
X960731Y970413D2*
X959589Y963209D1*
X957335Y956270D1*
X954022Y949769D1*
X949735Y943867D1*
X944576Y938709D1*
X940797Y935839D1*
X940804Y748892D1*
X945429Y743445D1*
X949241Y737226D1*
X952033Y730486D1*
X953736Y723391D1*
X954308Y716118D1*
X953736Y708845D1*
X952033Y701751D1*
X949241Y695010D1*
X945429Y688791D1*
X940692Y683243D1*
X935143Y678505D1*
X928924Y674693D1*
X922184Y671902D1*
X915089Y670198D1*
X907816Y669626D1*
X900543Y670198D1*
X893449Y671902D1*
X886709Y674693D1*
X880490Y678505D1*
X874941Y683243D1*
X870203Y688791D1*
X866391Y695010D1*
X863600Y701751D1*
X861896Y708845D1*
X861324Y716118D1*
X861896Y723391D1*
X863600Y730486D1*
X866391Y737226D1*
X870203Y743445D1*
X874835Y748878D1*
X874741Y949769D1*
X871429Y956270D1*
X869175Y963209D1*
X868033Y970413D1*
Y977710D1*
X869175Y984915D1*
X871429Y991853D1*
X874741Y998354D1*
X879029Y1004256D1*
X884188Y1009415D1*
X890089Y1013702D1*
X896591Y1017014D1*
X903529Y1019269D1*
X910734Y1020411D1*
X918030D1*
X925235Y1019269D1*
X932173Y1017014D1*
X938675Y1013702D1*
X944576Y1009415D1*
X949735Y1004256D1*
X954022Y998354D1*
X957335Y991853D1*
X959589Y984915D1*
X960731Y977710D1*
Y970413D1*
X1921726Y491535D2*
X1914331Y491524D1*
X1907126Y492665D1*
X1900188Y494920D1*
X1893686Y498232D1*
X1887785Y502520D1*
X1882626Y507678D1*
X1878339Y513580D1*
X1875026Y520081D1*
X1872772Y527020D1*
X1871630Y534224D1*
Y541521D1*
X1872772Y548726D1*
X1875026Y555664D1*
X1878339Y562165D1*
X1882626Y568067D1*
X1887785Y573226D1*
X1893686Y577513D1*
X1900188Y580825D1*
X1907126Y583080D1*
X1914331Y584222D1*
X1921627D1*
X1928832Y583080D1*
X1935770Y580825D1*
X1942272Y577513D1*
X1948173Y573226D1*
X1953332Y568067D1*
X1957619Y562165D1*
X1961066Y555303D1*
X2125375Y555310D1*
X2130832Y559934D1*
X2137051Y563747D1*
X2143791Y566538D1*
X2150886Y568241D1*
X2158159Y568814D1*
X2165432Y568241D1*
X2172526Y566538D1*
X2179266Y563747D1*
X2185486Y559934D1*
X2191034Y555197D1*
X2195772Y549648D1*
X2199584Y543429D1*
X2202375Y536689D1*
X2204079Y529594D1*
X2204651Y522322D1*
X2204079Y515049D1*
X2202375Y507954D1*
X2199584Y501214D1*
X2195772Y494995D1*
X2191034Y489446D1*
X2185486Y484709D1*
X2179266Y480896D1*
X2172526Y478105D1*
X2165432Y476402D1*
X2158159Y475829D1*
X2150886Y476402D1*
X2143791Y478105D1*
X2137051Y480896D1*
X2130832Y484709D1*
X2125399Y489340D1*
X1930942Y489434D1*
X1923336Y490948D1*
X1922966Y491084D1*
X1923336Y490948D1*
X1922966Y491084D1*
X2136358Y1667392D2*
X2135217Y1660188D1*
X2132962Y1653249D1*
X2129650Y1646748D1*
X2125362Y1640846D1*
X2120203Y1635688D1*
X2114302Y1631400D1*
X2107801Y1628088D1*
X2100862Y1625833D1*
X2093657Y1624692D1*
X2086361D1*
X2079156Y1625833D1*
X2072218Y1628088D1*
X2065717Y1631400D1*
X2059815Y1635688D1*
X2054656Y1640846D1*
X2050369Y1646748D1*
X2047056Y1653249D1*
X2044802Y1660188D1*
X2043660Y1667392D1*
Y1674689D1*
X2043978Y1677365D1*
X2034055Y1687277D1*
X1970230Y1687276D1*
X1947173Y1664172D1*
X1947088Y1482051D1*
X1945575Y1474445D1*
X1942328Y1467403D1*
X1937528Y1461312D1*
X1937282Y1461087D1*
X1818762Y1342693D1*
X1812315Y1338385D1*
X1805039Y1335699D1*
X1797339Y1334789D1*
X1797005Y1334802D1*
X1483163Y1334890D1*
X1475556Y1336403D1*
X1470824Y1336211D1*
X1463551Y1336783D1*
X1456457Y1338487D1*
X1449717Y1341278D1*
X1443497Y1345091D1*
X1437949Y1349828D1*
X1433211Y1355377D1*
X1429399Y1361596D1*
X1426608Y1368336D1*
X1424904Y1375430D1*
X1424332Y1382703D1*
X1424904Y1389976D1*
X1426608Y1397071D1*
X1429399Y1403811D1*
X1433211Y1410030D1*
X1437949Y1415579D1*
X1443497Y1420316D1*
X1449717Y1424129D1*
X1456457Y1426920D1*
X1463551Y1428623D1*
X1470824Y1429196D1*
X1478097Y1428623D1*
X1485192Y1426920D1*
X1491932Y1424129D1*
X1498151Y1420316D1*
X1503699Y1415579D1*
X1508437Y1410030D1*
X1512249Y1403811D1*
X1513664Y1400741D1*
X1783651Y1400765D1*
X1881218Y1498308D1*
X1881314Y1680440D1*
X1882827Y1688046D1*
X1886073Y1695088D1*
X1890874Y1701178D1*
X1891119Y1701404D1*
X1935189Y1745348D1*
X1941636Y1749656D1*
X1948912Y1752341D1*
X1956613Y1753252D1*
X1956946Y1753239D1*
X2050308Y1753151D1*
X2057915Y1751638D1*
X2064957Y1748391D1*
X2071047Y1743591D1*
X2071273Y1743345D1*
X2097736Y1716900D1*
X2104377Y1715257D1*
X2111117Y1712466D1*
X2117336Y1708654D1*
X2122885Y1703916D1*
X2127622Y1698367D1*
X2131434Y1692148D1*
X2134226Y1685408D1*
X2135929Y1678314D1*
X2136501Y1671041D1*
X2136358Y1667392D1*
D18*
X485039Y1164173D3*
D19*
Y1264173D3*
Y1364173D3*
Y1464173D3*
Y1564173D3*
Y1664173D3*
Y1764173D3*
Y1864173D3*
Y1964173D3*
Y2064173D3*
D18*
X2349606D3*
D19*
Y1964173D3*
Y1864173D3*
Y1764173D3*
Y1664173D3*
Y1564173D3*
Y1464173D3*
Y1364173D3*
Y1264173D3*
Y1164173D3*
D18*
X1325836Y2264087D3*
D19*
X1225836D3*
D18*
X1043307Y2854331D3*
D19*
X1143307D3*
D18*
X1327264Y2145669D3*
D19*
X1227264D3*
D18*
X1141732Y2716535D3*
D19*
X1041732D3*
D18*
X1377529Y1732283D3*
D19*
X1277529D3*
D18*
X1613749D3*
D19*
X1513749D3*
D18*
X1199692Y1140698D3*
D19*
X1099692D3*
D18*
X1101266Y1258808D3*
D19*
X1201266D3*
D20*
X767717Y2342520D3*
X976339Y1916621D3*
X929682Y1501102D3*
X984252Y1771654D3*
X1475068Y623185D3*
X1357129Y562663D3*
X1702067Y900815D3*
M02*
