M48
METRIC,0000.00
T01C1.1
%
T01
X+001232Y+002957
X+001232Y+003211
X+001232Y+003465
X+001232Y+003719
X+001232Y+003973
X+001232Y+004227
X+001232Y+004481
X+001232Y+004735
X+001232Y+004989
X+001232Y+005243
X+001950Y+005950
X+002646Y+006900
X+002900Y+006900
X+002904Y+007250
X+002650Y+007250
X+003114Y+005751
X+003368Y+005751
X+003371Y+005450
X+003117Y+005450
X+002480Y+004868
X+002500Y+004500
X+002361Y+003813
X+002797Y+003197
X+003051Y+003197
X+003047Y+002897
X+002793Y+002897
X+003245Y+004400
X+003499Y+004400
X+003845Y+004400
X+004099Y+004400
X+005968Y+004481
X+005968Y+004227
X+005968Y+003973
X+005968Y+003719
X+005968Y+003465
X+005968Y+003211
X+005968Y+002957
X+004323Y+002288
X+003747Y+001583
X+003447Y+001429
X+005968Y+004735
X+005968Y+004989
X+005968Y+005243
T00
M30
