M48
INCH
T01C0.0191
T02C0.0394
T03C0.0433
%
T03
X+004850Y+011642
X+004850Y+012642
X+004850Y+013642
X+004850Y+014642
X+004850Y+015642
X+004850Y+016642
X+004850Y+017642
X+004850Y+018642
X+004850Y+019642
X+004850Y+020642
X+023496Y+020642
X+023496Y+019642
X+023496Y+018642
X+023496Y+017642
X+023496Y+016642
X+023496Y+015642
X+023496Y+014642
X+023496Y+013642
X+023496Y+012642
X+023496Y+011642
X+013258Y+022641
X+012258Y+022641
X+010433Y+028543
X+011433Y+028543
X+013273Y+021457
X+012273Y+021457
X+011417Y+027165
X+010417Y+027165
X+013775Y+017323
X+012775Y+017323
X+016137Y+017323
X+015137Y+017323
X+011997Y+011407
X+010997Y+011407
X+011013Y+012588
X+012013Y+012588
T02
X+007677Y+023425
X+009763Y+019166
X+009297Y+015011
X+009843Y+017717
X+014751Y+006232
X+013571Y+005627
X+017021Y+009008
T01
X+013976Y+019264
X+015422Y+018778
X+014423Y+015117
X+012695Y+009236
X+012166Y+024983
X+017139Y+014724
X+014415Y+009181
X+015158Y+023008
X+006984Y+024143
X+006872Y+010215
X+009144Y+009741
X+009078Y+007161
X+010816Y+015792
X+021287Y+008382
X+010146Y+019959
X+017953Y+009162
X+008023Y+015115
X+014779Y+020517
X+015761Y+016148
X+017706Y+019618
X+015986Y+011028
X+015732Y+012431
X+021514Y+016129
X+020007Y+016328
X+022430Y+019291
X+021886Y+018998
X+022787Y+013274
X+015710Y+025724
X+016191Y+023839
X+012272Y+018980
X+009764Y+020814
X+019180Y+005379
X+021582Y+005223
X+015496Y+021277
X+020951Y+020136
X+008790Y+017648
X+014570Y+025354
X+014026Y+027213
X+017991Y+013074
X+019200Y+013126
X+021809Y+016955
X+020900Y+016710
X+009387Y+013668
X+014708Y+013827
X+012767Y+016111
X+014933Y+012157
X+013470Y+023823
X+013773Y+026454
X+013174Y+012882
X+014204Y+011144
X+017157Y+025561
X+018681Y+025592
X+014507Y+024794
X+015952Y+024832
X+017288Y+023667
X+015940Y+005925
X+013088Y+027111
T00
M30
