M48
METRIC,0000.00
T01C0.486
T02C1.0
T03C1.1
%
T03
X+001232Y+002957
X+001232Y+003211
X+001232Y+003465
X+001232Y+003719
X+001232Y+003973
X+001232Y+004227
X+001232Y+004481
X+001232Y+004735
X+001232Y+004989
X+001232Y+005243
X+005968Y+005243
X+005968Y+004989
X+005968Y+004735
X+005968Y+004481
X+005968Y+004227
X+005968Y+003973
X+005968Y+003719
X+005968Y+003465
X+005968Y+003211
X+005968Y+002957
X+003371Y+005700
X+003117Y+005700
X+002650Y+007250
X+002904Y+007250
X+003371Y+005450
X+003117Y+005450
X+002900Y+006900
X+002646Y+006900
X+003499Y+004400
X+003245Y+004400
X+004099Y+004400
X+003845Y+004400
X+003047Y+002897
X+002793Y+002897
X+002797Y+003197
X+003051Y+003197
T02
X+001950Y+005950
X+002480Y+004868
X+002361Y+003813
X+002500Y+004500
X+003747Y+001583
X+003447Y+001429
X+004323Y+002288
T01
X+003550Y+004893
X+003917Y+004770
X+003663Y+003840
X+003224Y+002346
X+003090Y+006346
X+004353Y+003740
X+003661Y+002332
X+004004Y+006011
X+001774Y+006132
X+001745Y+002595
X+002323Y+002474
X+002306Y+001819
X+002747Y+004011
X+005407Y+002129
X+002577Y+005070
X+004560Y+002327
X+002038Y+003839
X+003754Y+005211
X+004003Y+004102
X+004497Y+004983
X+003630Y+003340
X+003648Y+003215
X+005465Y+004097
X+005082Y+004147
X+005697Y+004900
X+005559Y+004825
X+005788Y+003372
X+003540Y+005994
X+003676Y+005907
X+003117Y+004821
X+002480Y+005287
X+004872Y+001366
X+005482Y+001327
X+003936Y+005404
X+005322Y+005115
X+002233Y+004483
X+003628Y+006947
X+004111Y+006247
X+004570Y+003321
X+004877Y+003334
X+005540Y+004307
X+005309Y+004244
X+002384Y+003472
X+003354Y+003520
T00
M30
