M48
METRIC,0000.00
T01C0.25
T02C1.1
%
T02
X+001232Y+002957
X+001232Y+003211
X+001232Y+003465
X+001232Y+003719
X+001232Y+003973
X+001232Y+004227
X+001232Y+004481
X+001232Y+004735
X+001232Y+004989
X+001232Y+005243
X+005968Y+005243
X+005968Y+004989
X+005968Y+004735
X+005968Y+004481
X+005968Y+004227
X+005968Y+003973
X+005968Y+003719
X+005968Y+003465
X+005968Y+003211
X+005968Y+002957
X+003368Y+005751
X+003114Y+005751
X+002650Y+007250
X+002904Y+007250
X+003371Y+005450
X+003117Y+005450
X+002900Y+006900
X+002646Y+006900
X+003499Y+004400
X+003245Y+004400
X+004099Y+004400
X+003845Y+004400
X+003047Y+002897
X+002793Y+002897
X+002797Y+003197
X+003051Y+003197
X+001950Y+005950
X+002480Y+004868
X+002361Y+003813
X+002500Y+004500
X+003747Y+001583
X+003447Y+001429
X+004323Y+002288
T01
X+003550Y+004893
X+003917Y+004770
X+003663Y+003840
X+003224Y+002346
X+003051Y+006343
X+004353Y+003740
X+003661Y+002332
X+003488Y+005907
X+001774Y+006132
X+001745Y+002595
X+002323Y+002474
X+002306Y+001819
X+002747Y+004011
X+005407Y+002129
X+002577Y+005070
X+004560Y+002327
X+002038Y+003839
X+003754Y+005211
X+004003Y+004102
X+004497Y+004983
X+004060Y+002801
X+003900Y+003050
X+005465Y+004097
X+005082Y+004147
X+005697Y+004900
X+005559Y+004825
X+005788Y+003372
X+003990Y+006534
X+004113Y+006055
X+003117Y+004821
X+002480Y+005287
X+004872Y+001366
X+005482Y+001327
X+003936Y+005404
X+005322Y+005115
X+002233Y+004483
X+003741Y+006383
X+003563Y+006912
X+004570Y+003321
X+004877Y+003334
X+005601Y+004781
X+005309Y+004244
X+002384Y+003472
X+003736Y+003512
X+003302Y+004096
X+003793Y+003088
X+003409Y+006053
X+003504Y+006727
X+003346Y+003272
X+003608Y+002831
X+004358Y+006492
X+004745Y+006500
X+003685Y+006298
X+004052Y+006307
X+004391Y+006011
X+004049Y+001505
X+003312Y+006913
X+002257Y+001823
X+001798Y+002534
X+004097Y+001500
X+005533Y+001327
X+004816Y+001368
X+004594Y+002378
X+005449Y+002180
X+005112Y+004110
X+005417Y+004095
X+005714Y+004844
X+005339Y+004273
X+003961Y+004134
X+003698Y+003882
X+003249Y+004099
X+004312Y+003691
X+003819Y+003122
X+003610Y+006548
X+003965Y+002813
X+003553Y+002770
X+003347Y+003362
X+002347Y+003526
X+002034Y+003894
X+002313Y+004425
X+002750Y+004063
X+002519Y+005078
X+002502Y+005368
X+001735Y+006168
X+003294Y+006959
X+003110Y+006340
X+004443Y+005983
X+004779Y+006470
X+004407Y+006496
X+003960Y+006497
X+003687Y+006389
X+003634Y+006305
X+004085Y+006271
X+004109Y+006003
X+003524Y+005868
X+003401Y+006103
X+003612Y+006908
X+003470Y+006757
X+003115Y+004766
X+003600Y+004889
X+003947Y+004741
X+003757Y+005259
X+003942Y+005454
X+004443Y+004985
X+003266Y+002365
X+003658Y+002393
X+005364Y+005153
X+005799Y+003329
X+004841Y+003373
X+004526Y+003341
X+003696Y+003541
X+002302Y+002527
X+003659Y+006550
X+005733Y+002696
X+005697Y+002735
X+002352Y+003121
X+002316Y+003160
X+003854Y+003015
T00
M30
