G04 DipTrace 3.0.0.2*
G04 Top.gbr*
%MOMM*%
G04 #@! TF.FileFunction,Copper,L1,Top*
G04 #@! TF.Part,Single*
G04 #@! TA.AperFunction,CopperBalancing*
%ADD14C,0.33*%
%ADD15C,0.635*%
%ADD16R,2.0X0.6*%
%ADD17R,1.3X1.5*%
%ADD18R,1.5X1.3*%
G04 #@! TA.AperFunction,ComponentPad*
%ADD19R,1.7X1.7*%
%ADD20C,1.7*%
%ADD21C,1.5*%
%ADD22R,0.6X2.0*%
%ADD23R,0.4X1.8*%
%ADD24R,1.8X0.4*%
G04 #@! TA.AperFunction,ViaPad*
%ADD25C,0.5*%
%FSLAX35Y35*%
G04*
G71*
G90*
G75*
G01*
G04 Top*
%LPD*%
X2200000Y4290000D2*
D14*
X2030000Y4460000D1*
X2000000D1*
X2200000Y5140000D2*
X2080000Y5260000D1*
X2000000D1*
X3267827Y6288030D2*
X3198797Y6219000D1*
X2890000D1*
X3741933Y4821727D2*
X3689207Y4769000D1*
X3361250D1*
X3846800Y3788030D2*
X3777770Y3719000D1*
X3488923D1*
X3387113Y2281413D2*
X3322073Y2216373D1*
X3037217D1*
X4157980Y5371500D2*
X4187510Y5401030D1*
X4349517D1*
X4872283Y2081447D2*
X4870430Y2079593D1*
Y1892350D1*
X4872053Y1893973D1*
X5474157D1*
X3037217Y2216373D2*
X2497217D1*
X2948923Y3719000D2*
X3488923D1*
X2821250Y4769000D2*
X3114913D1*
X3144110D1*
X3361250D1*
X4022900Y1915413D2*
X4005340Y1932973D1*
X3521780D1*
X3387113Y2067640D1*
Y2281413D1*
X5162180Y5177247D2*
X5163687Y5175740D1*
Y4864317D1*
X5346720D1*
X5968000Y3973000D2*
X5844217Y4096783D1*
X5464557D1*
X5081677Y4147260D2*
X5068443Y4160493D1*
X4911353D1*
X2200000Y5140000D2*
X2350000Y5290000D1*
Y6219000D1*
X2890000D2*
X2350000D1*
X3144110Y4769000D2*
X3117123Y4795987D1*
Y4820920D1*
X2350000Y5290000D2*
X2353363Y5286637D1*
X2480170D1*
X2200000Y4290000D2*
X2310977D1*
X2346227Y4254750D1*
Y4097693D1*
X2724920Y3719000D1*
X2948923D1*
X5474157Y1893973D2*
X5530063Y1949880D1*
Y2443247D1*
X4911353Y3061957D1*
Y3334083D1*
Y3360417D1*
Y4160493D1*
X4022900Y1915413D2*
X4031770Y1924283D1*
X4186347D1*
Y2380990D1*
X4870827Y3065470D1*
X4907840D1*
X4911353Y3061957D1*
X2497217Y2216373D2*
X2496783Y2215940D1*
X2285263D1*
X2021777Y2479427D1*
Y3421840D1*
X4157980Y5371500D2*
X4125223Y5404257D1*
X3936047D1*
X5321617Y5114593D2*
X5258963Y5177247D1*
X5162180D1*
X2200000Y4290000D2*
X2232727Y4322727D1*
Y4461273D1*
Y4482553D1*
X4876890Y3334083D2*
X4911353D1*
X4569667Y3320917D2*
X4579187Y3330437D1*
Y3481210D1*
X4876890Y3334083D2*
X4903223Y3360417D1*
X4911353D1*
X4183383Y3094343D2*
Y3159343D1*
Y2964343D2*
X4186277Y2967237D1*
X4357933D1*
Y3078277D1*
X4341867Y3094343D1*
X4183383D1*
X3603383Y3289343D2*
X3604737Y3290697D1*
X3817223D1*
X3846800Y3320273D1*
Y3788030D1*
X4569667Y3320917D2*
X4357933Y3109183D1*
Y3078277D1*
X3870697Y6715980D2*
X3871077Y6716360D1*
Y6879937D1*
X3883927Y6867087D1*
X4006017D1*
X4000697Y6861767D1*
Y6715980D1*
X4066073Y6650603D1*
X4179497D1*
X4337703Y6492397D1*
X4357880D1*
X4744900Y6500377D2*
X4788790Y6456487D1*
Y5498913D1*
X4904497Y5383207D1*
X5135910D1*
X5162180Y5356937D1*
Y5177247D1*
X3900410Y2687610D2*
X3920463Y2667557D1*
X4153240D1*
X4183383Y2697700D1*
Y2964343D1*
X4779323Y6470230D2*
X4788790D1*
Y6456487D1*
X3114913Y4765923D2*
Y4769000D1*
X4407253Y6496073D2*
X4361557D1*
X4357880Y6492397D1*
X4443433Y5982640D2*
X4419930D1*
X4391237Y6011333D1*
X3936047Y5404257D2*
Y5448447D1*
X3941547Y5453947D1*
X5416727Y4095110D2*
X5462883D1*
X5464557Y4096783D1*
X5111933Y4110000D2*
Y4117003D1*
X5081677Y4147260D1*
X2312903Y4424777D2*
X2269223D1*
X2232727Y4461273D1*
X4048887Y1504893D2*
X4092360D1*
X4097157Y1500097D1*
X2480170Y5286637D2*
Y5346597D1*
X2501733Y5368160D1*
X4841017Y3372837D2*
Y3369957D1*
X4876890Y3334083D1*
X4525817Y3340920D2*
X4549663D1*
X4569667Y3320917D1*
X5321617Y5114593D2*
X5326143D1*
X5364420Y5152870D1*
X3294120Y6958877D2*
Y6931463D1*
X3312087Y6913497D1*
X5732953Y2696030D2*
Y2698910D1*
X5697080Y2734783D1*
X2352220Y3120930D2*
X2316347Y3159683D1*
X5697150Y4899807D2*
X5602640Y4994317D1*
X5346720D1*
X5787813Y3371653D2*
X5739637Y3323477D1*
Y3014563D1*
X5797200Y2957000D1*
X5968000D1*
X4060460Y2801040D2*
X4016583D1*
Y3002227D1*
X4043700Y3029343D1*
X4183383D1*
X3990217Y6533930D2*
X3935697Y6588450D1*
Y6715980D1*
X3959880Y6497053D2*
Y6503593D1*
X3990217Y6533930D1*
X4060460Y2801040D2*
X3977587D1*
X3965173Y2813453D1*
X5697150Y4899807D2*
Y4860677D1*
X5713507Y4844320D1*
X5798587Y3328950D2*
Y3360880D1*
X5787813Y3371653D1*
X3854433Y3014510D2*
X3804267Y2964343D1*
X3603403D1*
X5559077Y4825460D2*
X5455220Y4929317D1*
X5346720D1*
X4112543Y6055060D2*
X4031603Y6136000D1*
X4000697D1*
X4108960Y6003377D2*
Y6051477D1*
X4112543Y6055060D1*
X5559077Y4825460D2*
Y4823080D1*
X5600897Y4781260D1*
X3854433Y3014510D2*
X3864200D1*
X3899627Y3049937D1*
X3267827Y6478030D2*
X3262797Y6473000D1*
X2890000D1*
X3741933Y5011727D2*
X3730660Y5023000D1*
X3361250D1*
X3846800Y3978030D2*
X3841770Y3973000D1*
X3488923D1*
X3387113Y2471413D2*
X3386073Y2470373D1*
X3037217D1*
X4766720Y4864317D2*
Y4929317D1*
Y4994317D2*
Y4929317D1*
X5346740Y4539317D2*
X5343283Y4535860D1*
X5234267D1*
X5100330D1*
X5038887Y4597303D1*
Y4856250D1*
X4965820Y4929317D1*
X4766720D1*
X4497300Y4983067D2*
X4551050Y4929317D1*
X4766720D1*
X3741933Y5011727D2*
X3753823Y5023617D1*
Y5211420D1*
X4003417Y4101517D2*
X3879930Y3978030D1*
X3846800D1*
X4766720Y4994317D2*
X4628593Y5132443D1*
Y6404970D1*
X4559443Y6474120D1*
X4192960Y6840603D1*
X4179497D1*
X4766720Y4994317D2*
X4949650Y5177247D1*
X4972180D1*
X3710410Y2687610D2*
Y2620417D1*
X3561407Y2471413D1*
X3387113D1*
X4872283Y1541447D2*
X4870430Y1543300D1*
Y1718853D1*
X4885310Y1703973D1*
X5474157D1*
X5234267Y4535860D2*
X5244807Y4525320D1*
Y4394470D1*
X5196530D1*
Y3719000D1*
Y2948140D1*
X5674477Y2470193D1*
Y1731543D1*
X5646907Y1703973D1*
X5474157D1*
X5968000Y3719000D2*
X5196530D1*
X3603383Y3354343D2*
X3599440Y3358287D1*
X3436127D1*
Y3214790D1*
X3412423Y3238493D1*
X3426573Y3224343D1*
X3603383D1*
X3604620Y3223107D1*
X3879983D1*
X4003417Y3346540D1*
Y4068537D1*
Y4101517D1*
X3740697Y6135980D2*
X3675697D1*
X3610697D1*
X3267827Y6478030D2*
X3290020Y6455837D1*
X3362763D1*
X3433110Y6385490D1*
Y6251230D1*
X3548360Y6135980D1*
X3610697D1*
X4179497Y6840603D2*
X4069477Y6950623D1*
X3986737D1*
X3980313Y6957047D1*
X3819670D1*
X3805697Y6943073D1*
Y6715980D1*
X3346197Y3272017D2*
X3379720Y3238493D1*
X3412423D1*
X3607813Y2830543D2*
X3710410Y2727947D1*
Y2687610D1*
X3675697Y6135980D2*
X3684787Y6145070D1*
Y6297587D1*
X4051697Y6307240D2*
X4085493Y6341037D1*
X4447573D1*
X4559443Y6452907D1*
Y6474120D1*
X3960787Y4134497D2*
X4003417Y4068537D1*
X3633663Y6304727D2*
X3677647D1*
X3684787Y6297587D1*
X4085103Y6270607D2*
Y6273833D1*
X4051697Y6307240D1*
X3753823Y5211420D2*
Y5256563D1*
X3756730Y5259470D1*
X4443463Y4985223D2*
X4495143D1*
X4497300Y4983067D1*
X3552843Y2769563D2*
Y2775573D1*
X3607813Y2830543D1*
X3346197Y3272017D2*
Y3361690D1*
X3346567Y3362060D1*
X2821250Y5350000D2*
Y5150000D1*
X3117250Y5450000D2*
X3017250Y5350000D1*
X2821250D1*
X3371250Y5450000D2*
X3361250Y5440000D1*
Y5150000D1*
X3609903Y6547693D2*
X3656993D1*
X3659040Y6549740D1*
X3740697Y6715980D2*
Y6564090D1*
X3734083Y6557477D1*
X3666777D1*
X3659040Y6549740D1*
X2350000Y6600000D2*
Y6800000D1*
X2550000D1*
X2646000Y6896000D1*
Y6900000D1*
X2350000Y6990000D2*
X2610000Y7250000D1*
X2650000D1*
X2900000Y6900000D2*
X2890000Y6890000D1*
Y6600000D1*
X3935697Y6135980D2*
Y6352663D1*
X3818923Y6469437D1*
X3545720D1*
X3372970Y6642187D1*
X3324887D1*
X3318460Y6635760D1*
X3177097D1*
X3141337Y6600000D1*
X2890000D1*
X4745283Y2081447D2*
Y1541447D1*
X4741913Y1538077D1*
Y1384717D1*
X4761193Y1365437D1*
X4870907D1*
X4986093D1*
X4999283Y1378627D1*
Y1541447D1*
Y2081447D2*
Y2274270D1*
X4805870D1*
X4745283Y2213683D1*
Y2081447D1*
X4871667Y1366197D2*
X4870907Y1365437D1*
X5968000Y4227000D2*
X6103600Y4091400D1*
Y4042623D1*
X6114223Y4032000D1*
Y2614087D1*
X5986770Y2486633D1*
X5960220D1*
X5848697Y2375110D1*
Y1451077D1*
X5724317Y1326697D1*
X5490430D1*
X5481723D1*
X5533300Y1327490D2*
X5490430Y1326697D1*
X4871667Y1366197D2*
X4817647D1*
X4816093Y1367750D1*
X4491283Y1541447D2*
X4618283D1*
X1774000Y6132350D2*
X2114650Y6473000D1*
X2350000D1*
X1745380Y2594617D2*
X2596040Y1743957D1*
X3746673D1*
X4618283D1*
Y1541447D1*
X3746673Y1582890D2*
Y1743957D1*
X1734783Y6167967D2*
X1738383D1*
X1774000Y6132350D1*
X1798150Y2533877D2*
Y2541847D1*
X1745380Y2594617D1*
X5126283Y1541447D2*
X5253283D1*
X2322530Y2474117D2*
X2326273Y2470373D1*
X2497217D1*
X2305853Y1818940D2*
X2852320Y1272473D1*
X3447107D1*
Y1276863D1*
X5117920D1*
Y1351863D1*
X5126283Y1343500D1*
Y1541447D1*
X3447107Y1429163D2*
Y1276863D1*
X2256693Y1822810D2*
X2301983D1*
X2305853Y1818940D1*
X2322530Y2474117D2*
Y2506190D1*
X2301680Y2527040D1*
X5253283Y2081447D2*
X5126283D1*
X2948923Y3973000D2*
X2943627Y3978297D1*
X2747217D1*
Y4011093D1*
X5406873Y2129023D2*
X5359297Y2081447D1*
X5253283D1*
X2747217Y4011093D2*
Y4059673D1*
X2750397Y4062853D1*
X5406873Y2129023D2*
Y2137880D1*
X5448810Y2179817D1*
X4618283Y2081447D2*
X4491283D1*
X4618283D2*
X4560057Y2139673D1*
Y2327227D1*
X2577113Y5069693D2*
X2623807Y5023000D1*
X2821250D1*
X2519290Y5078493D2*
X2568313D1*
X2577113Y5069693D1*
X4594057Y2378310D2*
Y2361227D1*
X4560057Y2327227D1*
X2000000Y5450000D2*
X1800000D1*
X2350000Y6346000D2*
X2196000D1*
X2000000Y6150000D1*
Y5450000D1*
X1950000Y5950000D2*
X2000000Y6150000D1*
X1826553Y4944690D2*
X2200000D1*
Y4950000D1*
X2479900D1*
Y4868217D1*
X2507683Y4896000D1*
X2821250D1*
X1232000Y4735000D2*
X1248863Y4718137D1*
X1620620D1*
X1893230Y4123447D2*
X1916677Y4100000D1*
X2200000D1*
X2497217Y2343373D2*
X2253200D1*
X2205403Y2391170D1*
Y3812800D1*
Y4100000D1*
X2200000D1*
X2361393Y3812800D2*
X2205403D1*
X3488923Y4100000D2*
X3498923Y4110000D1*
Y4400000D1*
X3488923Y4100000D2*
X3484753Y4095830D1*
X3302280D1*
X3818537Y3122017D2*
Y3113383D1*
X3793083Y3087930D1*
X3302280Y4095830D2*
X3252563D1*
X3249163Y4099230D1*
X4183383Y3224343D2*
X4010827D1*
X3920277Y3133793D1*
X3830313D1*
X3818537Y3122017D1*
X3047217Y2897373D2*
X3037217Y2887373D1*
Y2597373D1*
X3047217Y2897373D2*
X3350350D1*
X3482320Y3029343D1*
X3603383D1*
X4183383Y3354343D2*
X4098923Y3438803D1*
Y4400000D1*
X2948923Y4500000D2*
X2998923Y4550000D1*
X3698923D1*
X3844923Y4404000D1*
Y4400000D1*
X3051217Y3197373D2*
X3089247Y3159343D1*
X3603383D1*
X2497217Y2997373D2*
X2597217Y3097373D1*
Y3197373D1*
X2797217D1*
X4349517Y5591030D2*
X4206673Y5733873D1*
X4202147D1*
X4349517Y5591030D2*
X4386337Y5554210D1*
X4504007D1*
X4529710Y5528507D1*
Y5136537D1*
X4516860Y5149387D1*
X4349787D1*
X4336937Y5136537D1*
Y4905210D1*
X4442830Y4799317D1*
X4766720D1*
X4157980Y5181500D2*
X4141650Y5165170D1*
Y4944627D1*
X4351960Y4734317D1*
X4766720D1*
X3663370Y3839673D2*
X3657043Y3846000D1*
X3488923D1*
X4353263Y3739803D2*
X4378937Y3765477D1*
Y3877330D1*
X4311893Y3691223D2*
X4308288Y3694828D1*
X4353263Y3739803D1*
X3698080Y3881687D2*
Y3874383D1*
X3663370Y3839673D1*
X3037217Y2343373D2*
X3039733Y2345890D1*
X3224450D1*
X3830010Y2333620D2*
X3828240Y2331850D1*
X3661293D1*
X3658287Y2392633D2*
Y2334857D1*
X3661293Y2331850D1*
X3265533Y2364597D2*
X3243157D1*
X3224450Y2345890D1*
X3740777Y6382760D2*
X3805697Y6317840D1*
Y6135980D1*
X3562640Y6912067D2*
X3224707Y7250000D1*
X2904000D1*
X3612380Y6907630D2*
X3567077D1*
X3562640Y6912067D1*
X3687243Y6388747D2*
X3734790D1*
X3740777Y6382760D1*
X2821250Y5540000D2*
X2871250Y5590000D1*
Y5750780D1*
X3113623D1*
X2948923Y4100000D2*
Y4310000D1*
X2958923Y4300000D1*
X3148923D1*
X3244923Y4396000D1*
Y4400000D1*
X2497217Y2597373D2*
Y2807373D1*
X2507217Y2797373D1*
X2697217D1*
X2793217Y2893373D1*
Y2897373D1*
X4020010Y2333620D2*
X4022900Y2330730D1*
Y2105413D1*
X4020010Y2333620D2*
X4759833Y3073443D1*
Y4027710D1*
X4489950Y4297593D1*
Y4612457D1*
X4498090Y4604317D1*
X4766720D1*
X4579187Y3671210D2*
X4568937Y3681460D1*
Y3877330D1*
X4766720Y4669317D2*
X4765750Y4670287D1*
X4387140D1*
Y4136947D1*
X4568937Y3955150D1*
Y3877330D1*
X2890000Y6346000D2*
X3050517D1*
Y6343203D1*
X3487690Y5906597D2*
X3660413Y5733873D1*
X4012147D1*
X3110427Y6340263D2*
X3053457D1*
X3523707Y5868273D2*
Y5870580D1*
X3487690Y5906597D1*
X3361250Y4896000D2*
X3364247Y4893003D1*
X3549787D1*
X3917263Y4769623D2*
X3951650Y4804010D1*
Y4944627D1*
X3600410Y4889350D2*
X3553440D1*
X3549787Y4893003D1*
X3947243Y4740703D2*
X3946183D1*
X3917263Y4769623D1*
X1232000Y4481000D2*
X1589553Y4123447D1*
X1703230D1*
X2000000Y4650000D2*
X1931863Y4718137D1*
X1810620D1*
X2000000Y4650000D2*
X2350000D1*
X2500000Y4500000D1*
X2550000Y4450000D1*
X2593310D1*
X2631507Y4411803D1*
Y3945597D1*
X2731103Y3846000D1*
X2948923D1*
X1232000Y4989000D2*
X1276310Y4944690D1*
X1636553D1*
X1232000Y5243000D2*
X1439000Y5450000D1*
X1610000D1*
X1232000Y4227000D2*
X1608637Y3850363D1*
X1685287D1*
X1875287D2*
X1886313Y3839337D1*
X2037793D1*
X2021777Y3823320D1*
Y3611840D1*
X5346720Y4604317D2*
X5504387D1*
X5577760Y4530943D1*
Y4344650D1*
X5539610Y4306500D1*
X5370680D1*
X5363140Y4298960D1*
X5308623Y4244443D1*
X3735893Y3512067D2*
X3695570Y3471743D1*
X2384347D1*
X5339450Y4273103D2*
X5363140Y4298960D1*
X2347367Y3526467D2*
Y3508723D1*
X2384347Y3471743D1*
X2037793Y3839337D2*
Y3890613D1*
X2034370Y3894037D1*
X3696290Y3541433D2*
X3706527D1*
X3735893Y3512067D1*
X4911353Y4350493D2*
X4782413Y4479433D1*
Y4517780D1*
X4766720Y4533473D1*
Y4539317D1*
X3408887Y6053493D2*
X3367623Y6012230D1*
Y5750780D1*
X3610697Y6715980D2*
X3607383Y6719293D1*
X3527093D1*
Y6727470D1*
X3503833D1*
X3469673Y6756990D2*
X3527093Y6719293D1*
X3408887Y6053493D2*
Y6095440D1*
X3401143Y6103183D1*
D25*
X3854433Y3014510D3*
D3*
X3549787Y4893003D3*
X3917263Y4769623D3*
X3663370Y3839673D3*
X3224450Y2345890D3*
X3050517Y6343203D3*
X4353263Y3739803D3*
X3661293Y2331850D3*
X3487690Y5906597D3*
X1774000Y6132350D3*
X1745380Y2594617D3*
X2322530Y2474117D3*
X2305853Y1818940D3*
X2747217Y4011093D3*
X5406873Y2129023D3*
X2577113Y5069693D3*
X4560057Y2327227D3*
X2037793Y3839337D3*
X3753823Y5211420D3*
X4003417Y4101517D3*
X4497300Y4983067D3*
X4060460Y2801040D3*
X3899627Y3049937D3*
X5464557Y4096783D3*
X5081677Y4147260D3*
X5697150Y4899807D3*
X5559077Y4825460D3*
X5787813Y3371653D3*
X3990217Y6533930D3*
X4112543Y6055060D3*
X3117123Y4820920D3*
X2480170Y5286637D3*
X4871667Y1366197D3*
X5481723Y1326697D3*
X3936047Y5404257D3*
X5321617Y5114593D3*
X2232727Y4482553D3*
X3740777Y6382760D3*
X3562640Y6912067D3*
X4569667Y3320917D3*
X4876890Y3334083D3*
X5600897Y4781260D3*
X5308623Y4244443D3*
X2384347Y3471743D3*
X3735893Y3512067D3*
X3302280Y4095830D3*
X3793083Y3087930D3*
X3408887Y6053493D3*
X3503833Y6727470D3*
X3346197Y3272017D3*
X3607813Y2830543D3*
X4357880Y6492397D3*
X4744900Y6500377D3*
X3684787Y6297587D3*
X4051697Y6307240D3*
X4391237Y6011333D3*
X4048887Y1504893D3*
X3312087Y6913497D3*
X2256693Y1822810D3*
X1798150Y2533877D3*
X4097157Y1500097D3*
X5533300Y1327490D3*
X4816093Y1367750D3*
X4594057Y2378310D3*
X5448810Y2179817D3*
X5111933Y4110000D3*
X5416727Y4095110D3*
X5713507Y4844320D3*
X5339450Y4273103D3*
X3960787Y4134497D3*
X3698080Y3881687D3*
X3249163Y4099230D3*
X4311893Y3691223D3*
X3818537Y3122017D3*
X3609903Y6547693D3*
X3965173Y2813453D3*
X3552843Y2769563D3*
X3346567Y3362060D3*
X2347367Y3526467D3*
X2034370Y3894037D3*
X2312903Y4424777D3*
X2750397Y4062853D3*
X2519290Y5078493D3*
X2501733Y5368160D3*
X1734783Y6167967D3*
X3294120Y6958877D3*
X3110427Y6340263D3*
X4443433Y5982640D3*
X4779323Y6470230D3*
X4407253Y6496073D3*
X3959880Y6497053D3*
X3687243Y6388747D3*
X3633663Y6304727D3*
X4085103Y6270607D3*
X4108960Y6003377D3*
X3523707Y5868273D3*
X3401143Y6103183D3*
X3612380Y6907630D3*
X3469673Y6756990D3*
X3114913Y4765923D3*
X3600410Y4889350D3*
X3947243Y4740703D3*
X3756730Y5259470D3*
X3941547Y5453947D3*
X4443463Y4985223D3*
X3265533Y2364597D3*
X3658287Y2392633D3*
X5364420Y5152870D3*
X5798587Y3328950D3*
X4841017Y3372837D3*
X4525817Y3340920D3*
X3696290Y3541433D3*
X2301680Y2527040D3*
X3659040Y6549740D3*
X5732953Y2696030D3*
X5697080Y2734783D3*
X2352220Y3120930D3*
X2316347Y3159683D3*
X1104100Y7639083D2*
D15*
X6095933D1*
X1104100Y7575917D2*
X6095933D1*
X1104100Y7512750D2*
X6095933D1*
X1104100Y7449583D2*
X6095933D1*
X1104100Y7386417D2*
X2474323D1*
X3010650D2*
X6095933D1*
X1104100Y7323250D2*
X2474323D1*
X3300243D2*
X6095933D1*
X1104100Y7260083D2*
X2471223D1*
X3363497D2*
X6095933D1*
X1104100Y7196917D2*
X2408093D1*
X3426623D2*
X6095933D1*
X1104100Y7133750D2*
X2184357D1*
X3033470D2*
X3192170D1*
X3489753D2*
X6095933D1*
X1104100Y7070583D2*
X2184357D1*
X2579420D2*
X3255300D1*
X3553003D2*
X6095933D1*
X1104100Y7007417D2*
X2184357D1*
X3075640D2*
X3318427D1*
X3663260D2*
X3721750D1*
X4161463D2*
X6095933D1*
X1104100Y6944250D2*
X2184357D1*
X3075640D2*
X3381553D1*
X4345143D2*
X6095933D1*
X1104100Y6881083D2*
X2184357D1*
X3075640D2*
X3444807D1*
X4345143D2*
X6095933D1*
X1104100Y6817917D2*
X2184357D1*
X3075640D2*
X3372627D1*
X4364490D2*
X6095933D1*
X1104100Y6754750D2*
X2184357D1*
X3075640D2*
X3354020D1*
X4427617D2*
X6095933D1*
X1104100Y6691583D2*
X2159303D1*
X2540600D2*
X2699303D1*
X4490870D2*
X6095933D1*
X1104100Y6628417D2*
X2159303D1*
X2540600D2*
X2699303D1*
X4553997D2*
X6095933D1*
X1104100Y6565250D2*
X2067773D1*
X2540600D2*
X2699303D1*
X4617127D2*
X6095933D1*
X1104100Y6502083D2*
X1994850D1*
X2540600D2*
X2699303D1*
X4345143D2*
X4382567D1*
X4680377D2*
X6095933D1*
X1104100Y6438917D2*
X1931720D1*
X2540600D2*
X2699303D1*
X4729863D2*
X6095933D1*
X1104100Y6375750D2*
X1868593D1*
X2540600D2*
X2699303D1*
X4735693D2*
X6095933D1*
X1104100Y6312583D2*
X1805340D1*
X2540600D2*
X2699303D1*
X4735693D2*
X6095933D1*
X1104100Y6249417D2*
X1655520D1*
X2540600D2*
X2699303D1*
X4735693D2*
X6095933D1*
X1104100Y6186250D2*
X1620670D1*
X2540600D2*
X2699303D1*
X4160967D2*
X4521453D1*
X4735693D2*
X6095933D1*
X1104100Y6123083D2*
X1628730D1*
X2121897D2*
X2159450D1*
X2540600D2*
X2699303D1*
X3080600D2*
X3287297D1*
X4204377D2*
X4521453D1*
X4735693D2*
X6095933D1*
X1104100Y6059917D2*
X1685783D1*
X2107140D2*
X3272537D1*
X4228063D2*
X4521453D1*
X4735693D2*
X6095933D1*
X1104100Y5996750D2*
X1791327D1*
X2108627D2*
X3260507D1*
X4224343D2*
X4521453D1*
X4735693D2*
X6095933D1*
X1104100Y5933583D2*
X1785250D1*
X2114830D2*
X3260507D1*
X3617743D2*
X4018540D1*
X4199413D2*
X4521453D1*
X4735693D2*
X6095933D1*
X1104100Y5870417D2*
X1805713D1*
X2107140D2*
X2987533D1*
X3672687D2*
X3856563D1*
X4357793D2*
X4521453D1*
X4735693D2*
X6095933D1*
X1104100Y5807250D2*
X1872933D1*
X2107140D2*
X2781407D1*
X4357793D2*
X4521453D1*
X4735693D2*
X6095933D1*
X1104100Y5744083D2*
X1892900D1*
X2107140D2*
X2764167D1*
X4357793D2*
X4521453D1*
X4735693D2*
X6095933D1*
X1104100Y5680917D2*
X1892900D1*
X2107140D2*
X2655647D1*
X4735693D2*
X6095933D1*
X1104100Y5617750D2*
X1892900D1*
X2107140D2*
X2655647D1*
X3546927D2*
X3856563D1*
X4735693D2*
X6095933D1*
X1104100Y5554583D2*
X1454353D1*
X2165680D2*
X2655647D1*
X3546927D2*
X4183863D1*
X4735693D2*
X6095933D1*
X1104100Y5491417D2*
X1331570D1*
X2165680D2*
X2655647D1*
X3546927D2*
X3992370D1*
X4735693D2*
X6095933D1*
X1104100Y5428250D2*
X1268443D1*
X2165680D2*
X2655647D1*
X3546927D2*
X3992370D1*
X4735693D2*
X6095933D1*
X2165680Y5365083D2*
X2655647D1*
X3546927D2*
X3722247D1*
X3791130D2*
X3992370D1*
X4735693D2*
X5792323D1*
X2165680Y5301917D2*
X2655647D1*
X3546927D2*
X3649693D1*
X3863807D2*
X3992370D1*
X4735693D2*
X4816507D1*
X5317857D2*
X5792323D1*
X1407647Y5238750D2*
X1834363D1*
X2365603D2*
X2630593D1*
X3011890D2*
X3170590D1*
X3551890D2*
X3641633D1*
X3870380D2*
X3992370D1*
X4735693D2*
X4816507D1*
X5317857D2*
X5792323D1*
X1393633Y5175583D2*
X1834363D1*
X2365603D2*
X2462790D1*
X3011890D2*
X3170590D1*
X3551890D2*
X3644237D1*
X3863437D2*
X3992370D1*
X4735693D2*
X4799143D1*
X5317857D2*
X5792323D1*
X1354193Y5112417D2*
X1834363D1*
X2365603D2*
X2409087D1*
X3011890D2*
X3170590D1*
X3907587D2*
X3992370D1*
X5317857D2*
X5792323D1*
X1396610Y5049250D2*
X1480897D1*
X1982247D2*
X2034413D1*
X3011890D2*
X3170590D1*
X5696503D2*
X5803483D1*
X3011890Y4986083D2*
X3170590D1*
X3011890Y4922917D2*
X3170590D1*
X3011890Y4859750D2*
X3170590D1*
X2165680Y4796583D2*
X2331323D1*
X3011890D2*
X3170590D1*
X2571110Y4733417D2*
X2630593D1*
X3011890D2*
X3170590D1*
X4062617D2*
X4204077D1*
X5705557D2*
X5792323D1*
X2478590Y4670250D2*
X2630593D1*
X3011890D2*
X3170590D1*
X3551890D2*
X3857310D1*
X4037193D2*
X4267207D1*
X5587237D2*
X5805220D1*
X1351340Y4607083D2*
X1465020D1*
X2624317D2*
X2783267D1*
X3790633D2*
X4279980D1*
X5650490D2*
X5848630D1*
X1395493Y4543917D2*
X1834363D1*
X2165680D2*
X2307263D1*
X2659417D2*
X2783267D1*
X5683977D2*
X5804477D1*
X1407647Y4480750D2*
X1834363D1*
X2165680D2*
X2335540D1*
X2711383D2*
X2783267D1*
X5684843D2*
X5792323D1*
X1444233Y4417583D2*
X1834363D1*
X2738420D2*
X2783267D1*
X4597033D2*
X4696577D1*
X5684843D2*
X5804723D1*
X1507487Y4354417D2*
X1834363D1*
X2365603D2*
X2429053D1*
X2738667D2*
X2783267D1*
X4597033D2*
X4745690D1*
X5684843D2*
X5849250D1*
X1570613Y4291250D2*
X2034413D1*
X2365603D2*
X2524430D1*
X2738667D2*
X2783267D1*
X4645157D2*
X4745690D1*
X5669590D2*
X5804973D1*
X2365603Y4228083D2*
X2524430D1*
X2738667D2*
X2783267D1*
X3225830D2*
X3391850D1*
X4205987D2*
X4279980D1*
X4708283D2*
X4745690D1*
X5609190D2*
X5792323D1*
X2365603Y4164917D2*
X2524430D1*
X4205987D2*
X4279980D1*
X5389917D2*
X5804103D1*
X2365603Y4101750D2*
X2524430D1*
X4205987D2*
X4286430D1*
X5303597D2*
X5847760D1*
X2365603Y4038583D2*
X2524430D1*
X4205987D2*
X4336660D1*
X5303597D2*
X5805593D1*
X2365603Y3975417D2*
X2524430D1*
X3139510D2*
X3298333D1*
X4866910D2*
X5089480D1*
X5303597D2*
X5792323D1*
X2492233Y3912250D2*
X2530133D1*
X3139510D2*
X3298333D1*
X4866910D2*
X5089480D1*
X5303597D2*
X5803610D1*
X1353697Y3849083D2*
X1461053D1*
X2522867D2*
X2579123D1*
X3139510D2*
X3298333D1*
X4866910D2*
X5089480D1*
X5303597D2*
X5846273D1*
X1393880Y3785917D2*
X1524303D1*
X2524727D2*
X2642377D1*
X3139510D2*
X3298333D1*
X4866910D2*
X5089480D1*
X1407647Y3722750D2*
X1529637D1*
X2499177D2*
X2758337D1*
X3139510D2*
X3298333D1*
X4866910D2*
X5089480D1*
X1396857Y3659583D2*
X1856190D1*
X2411370D2*
X2758337D1*
X3139510D2*
X3298333D1*
X4866910D2*
X5089480D1*
X1355060Y3596417D2*
X1856190D1*
X2437663D2*
X3595497D1*
X4205987D2*
X4251207D1*
X4372550D2*
X4413553D1*
X4866910D2*
X5089480D1*
X5303597D2*
X5844907D1*
X1393260Y3533250D2*
X1856190D1*
X4205987D2*
X4413553D1*
X4866910D2*
X5089480D1*
X5303597D2*
X5806710D1*
X1407523Y3470083D2*
X1856190D1*
X4216530D2*
X4413553D1*
X4866910D2*
X5089480D1*
X5303597D2*
X5733907D1*
X1397353Y3406917D2*
X1856190D1*
X4363993D2*
X4413553D1*
X4866910D2*
X5089480D1*
X5303597D2*
X5674253D1*
X1356550Y3343750D2*
X1856190D1*
X2312523D2*
X2621540D1*
X3142610D2*
X3232480D1*
X4363993D2*
X4413553D1*
X4866910D2*
X5089480D1*
X5303597D2*
X5634563D1*
X1392640Y3280583D2*
X1856190D1*
X2312523D2*
X2534103D1*
X4363993D2*
X4652670D1*
X4866910D2*
X5089480D1*
X5303597D2*
X5632580D1*
X1407523Y3217417D2*
X2098283D1*
X2312523D2*
X2492183D1*
X4363993D2*
X4652670D1*
X4866910D2*
X5089480D1*
X5303597D2*
X5632580D1*
X1397850Y3154250D2*
X2098283D1*
X2312523D2*
X2490073D1*
X4363993D2*
X4652670D1*
X4866910D2*
X5089480D1*
X5303597D2*
X5632580D1*
X1407647Y3091083D2*
X2098283D1*
X4363993D2*
X4628610D1*
X4866910D2*
X5089480D1*
X5303597D2*
X5632580D1*
X1407647Y3027917D2*
X2098283D1*
X4363993D2*
X4565483D1*
X4856120D2*
X5089480D1*
X5303597D2*
X5632580D1*
X1407647Y2964750D2*
X2098283D1*
X4363993D2*
X4502353D1*
X4799937D2*
X5089480D1*
X5328773D2*
X5645727D1*
X1407647Y2901583D2*
X2098283D1*
X4363993D2*
X4439103D1*
X4736810D2*
X5100767D1*
X5391900D2*
X5703770D1*
X1407647Y2838417D2*
X2098283D1*
X4169527D2*
X4375973D1*
X4673680D2*
X5157447D1*
X5455153D2*
X5840817D1*
X1104100Y2775250D2*
X2098283D1*
X4172997D2*
X4312847D1*
X4610430D2*
X5220573D1*
X5518280D2*
X6007130D1*
X1104100Y2712083D2*
X2098283D1*
X2757270D2*
X2930110D1*
X4130333D2*
X4249593D1*
X4547300D2*
X5283703D1*
X5581407D2*
X6007130D1*
X1104100Y2648917D2*
X1644233D1*
X1846567D2*
X2098283D1*
X2687817D2*
X2846517D1*
X4056043D2*
X4186467D1*
X4484173D2*
X5346953D1*
X5644537D2*
X6000187D1*
X1104100Y2585750D2*
X1630097D1*
X1903120D2*
X2098283D1*
X2687817D2*
X2846517D1*
X4056043D2*
X4123340D1*
X4420920D2*
X5410083D1*
X5707787D2*
X5935817D1*
X1104100Y2522583D2*
X1656883D1*
X1966250D2*
X2098283D1*
X2687817D2*
X2846517D1*
X3761363D2*
X4060087D1*
X4357793D2*
X5473210D1*
X5766947D2*
X5847390D1*
X1104100Y2459417D2*
X1711827D1*
X2029377D2*
X2098283D1*
X2687817D2*
X2846517D1*
X4294663D2*
X4514510D1*
X4673680D2*
X5536463D1*
X1104100Y2396250D2*
X1794923D1*
X2687817D2*
X2846517D1*
X4708160D2*
X5567343D1*
X6037690D2*
X6095933D1*
X1104100Y2333083D2*
X1858050D1*
X2687817D2*
X2846517D1*
X5087423D2*
X5567343D1*
X5955833D2*
X6095933D1*
X1104100Y2269917D2*
X1921180D1*
X2687817D2*
X2846517D1*
X5106397D2*
X5380563D1*
X5517040D2*
X5567343D1*
X5955833D2*
X6095933D1*
X1104100Y2206750D2*
X1984430D1*
X2687817D2*
X2846517D1*
X3552757D2*
X3674373D1*
X5955833D2*
X6095933D1*
X1104100Y2143583D2*
X2047560D1*
X2687817D2*
X2846517D1*
X3552757D2*
X3857310D1*
X4188500D2*
X4249843D1*
X5955833D2*
X6095933D1*
X1104100Y2080417D2*
X2110687D1*
X2408393D2*
X3857310D1*
X4188500D2*
X4370640D1*
X5511087D2*
X5567343D1*
X5955833D2*
X6095933D1*
X1104100Y2017250D2*
X2173940D1*
X2471643D2*
X3857310D1*
X4188500D2*
X4370640D1*
X5955833D2*
X6095933D1*
X1104100Y1954083D2*
X2237067D1*
X2534773D2*
X3857310D1*
X4188500D2*
X4370640D1*
X5955833D2*
X6095933D1*
X1104100Y1890917D2*
X2164883D1*
X2597900D2*
X3857310D1*
X4188500D2*
X4638160D1*
X4852397D2*
X5308507D1*
X5955833D2*
X6095933D1*
X1104100Y1827750D2*
X2141197D1*
X4852397D2*
X5308507D1*
X5955833D2*
X6095933D1*
X1104100Y1764583D2*
X2157817D1*
X5955833D2*
X6095933D1*
X1104100Y1701417D2*
X2274520D1*
X5955833D2*
X6095933D1*
X1104100Y1638250D2*
X2337650D1*
X2635357D2*
X3590907D1*
X3902380D2*
X4370640D1*
X5955833D2*
X6095933D1*
X1104100Y1575083D2*
X2400900D1*
X2698607D2*
X3376843D1*
X3517287D2*
X3581233D1*
X3912177D2*
X4370640D1*
X5639823D2*
X5741597D1*
X5955833D2*
X6095933D1*
X1104100Y1511917D2*
X2464030D1*
X2761737D2*
X3304660D1*
X3895680D2*
X4370640D1*
X5373917D2*
X5741597D1*
X5955833D2*
X6095933D1*
X1104100Y1448750D2*
X2527157D1*
X2824863D2*
X3282707D1*
X3611543D2*
X3654407D1*
X3838880D2*
X4370640D1*
X5373917D2*
X5697570D1*
X5955833D2*
X6095933D1*
X1104100Y1385583D2*
X2590410D1*
X2887990D2*
X3287543D1*
X3606707D2*
X4370640D1*
X5931650D2*
X6095933D1*
X1104100Y1322417D2*
X2653537D1*
X5231167D2*
X5366177D1*
X5868893D2*
X6095933D1*
X1104100Y1259250D2*
X2716667D1*
X5223477D2*
X5389370D1*
X5805767D2*
X6095933D1*
X1104100Y1196083D2*
X2780290D1*
X5184533D2*
X6095933D1*
X1104100Y1132917D2*
X6095933D1*
X2681507Y2696657D2*
Y2102083D1*
X2380403D1*
X2637763Y1844770D1*
X3863627Y1844747D1*
X3863610Y2174280D1*
X3680720Y2174330D1*
Y2224310D1*
X3661293Y2222560D1*
X3644197Y2223907D1*
X3627520Y2227910D1*
X3611677Y2234473D1*
X3597053Y2243433D1*
X3584013Y2254570D1*
X3572877Y2267610D1*
X3563917Y2282233D1*
X3557353Y2298077D1*
X3553350Y2314753D1*
X3552003Y2331850D1*
X3553350Y2348947D1*
X3554347Y2358860D1*
X3551317Y2370637D1*
X3546403Y2367203D1*
Y2132123D1*
X3227823D1*
Y2236673D1*
X3221537Y2236713D1*
X3221507Y2102083D1*
X2852927D1*
Y2711663D1*
X2936393D1*
X2936427Y2727970D1*
X2877927Y2728083D1*
Y2750780D1*
X2858000Y2740970D1*
X2832737Y2732760D1*
X2806500Y2728607D1*
X2779933D1*
X2771943Y2729550D1*
X2756460Y2715833D1*
X2742973Y2707570D1*
X2728363Y2701517D1*
X2712983Y2697823D1*
X2697217Y2696583D1*
X2681467D1*
X2312927Y2635757D2*
Y2711663D1*
X2337857D1*
X2337927Y3146663D1*
X2496553D1*
X2496737Y3205280D1*
X2499210Y3220903D1*
X2504100Y3235943D1*
X2511280Y3250037D1*
X2520577Y3262830D1*
X2531760Y3274013D1*
X2544553Y3283310D1*
X2558647Y3290490D1*
X2573687Y3295380D1*
X2589310Y3297853D1*
X2627850Y3298163D1*
X2627927Y3366663D1*
X2966507D1*
Y3343967D1*
X2986433Y3353777D1*
X3011697Y3361987D1*
X3037933Y3366140D1*
X3064500D1*
X3090737Y3361987D1*
X3116000Y3353777D1*
X3139670Y3341717D1*
X3161163Y3326103D1*
X3179947Y3307320D1*
X3195560Y3285827D1*
X3208393Y3260063D1*
X3237453Y3260133D1*
X3237243Y3280590D1*
X3239927Y3297530D1*
X3245437Y3314297D1*
X3238623Y3344963D1*
X3237277Y3362060D1*
X3237657Y3371000D1*
X2426170Y3370773D1*
X2409860Y3365473D1*
X2392920Y3362790D1*
X2375773D1*
X2358833Y3365473D1*
X2342523Y3370773D1*
X2327243Y3378557D1*
X2313370Y3388640D1*
X2306180Y3395423D1*
X2306193Y2636190D1*
X2312950Y2635673D1*
X3133213Y4199283D2*
Y3604710D1*
X2764633D1*
Y3745227D1*
X2723197Y3745520D1*
X2707573Y3747993D1*
X2692533Y3752883D1*
X2678440Y3760063D1*
X2665647Y3769360D1*
X2560237Y3874327D1*
X2549967Y3886353D1*
X2541703Y3899840D1*
X2535650Y3914450D1*
X2531957Y3929830D1*
X2530717Y3945597D1*
Y4343587D1*
X2512497Y4341200D1*
X2487503D1*
X2462813Y4345110D1*
X2439043Y4352837D1*
X2416770Y4364183D1*
X2396550Y4378873D1*
X2378873Y4396550D1*
X2364183Y4416770D1*
X2359290Y4425510D1*
Y3972097D1*
X2386313Y3970130D1*
X2410617Y3964293D1*
X2433710Y3954730D1*
X2455020Y3941667D1*
X2474030Y3925437D1*
X2490260Y3906427D1*
X2503323Y3885117D1*
X2512887Y3862023D1*
X2518723Y3837720D1*
X2520683Y3812800D1*
X2518723Y3787880D1*
X2512887Y3763577D1*
X2503323Y3740483D1*
X2490260Y3719173D1*
X2474030Y3700163D1*
X2455020Y3683933D1*
X2433710Y3670870D1*
X2410617Y3661307D1*
X2386313Y3655470D1*
X2361393Y3653510D1*
X2336473Y3655470D1*
X2312170Y3661307D1*
X2306167Y3663520D1*
X2306193Y3627633D1*
X2321853Y3632737D1*
X2338793Y3635420D1*
X2355940D1*
X2372880Y3632737D1*
X2389190Y3627437D1*
X2404470Y3619653D1*
X2418343Y3609570D1*
X2430470Y3597443D1*
X2440553Y3583570D1*
X2446387Y3572520D1*
X3591467Y3572533D1*
X3598913Y3591050D1*
X3607220Y3604697D1*
X3304633Y3604710D1*
Y3986577D1*
X3285183Y3987887D1*
X3268990Y3991753D1*
X3249163Y3989940D1*
X3232067Y3991287D1*
X3215390Y3995290D1*
X3199547Y4001853D1*
X3184923Y4010813D1*
X3171883Y4021950D1*
X3160747Y4034990D1*
X3151787Y4049613D1*
X3145223Y4065457D1*
X3141220Y4082133D1*
X3139873Y4099230D1*
X3141220Y4116327D1*
X3145223Y4133003D1*
X3151787Y4148847D1*
X3160747Y4163470D1*
X3171883Y4176510D1*
X3184923Y4187647D1*
X3199547Y4196607D1*
X3215390Y4203170D1*
X3232067Y4207173D1*
X3249163Y4208520D1*
X3266260Y4207173D1*
X3282453Y4203307D1*
X3302280Y4205120D1*
X3304657Y4205027D1*
X3304633Y4214290D1*
X3398273D1*
X3382463Y4230710D1*
X3329633D1*
Y4253407D1*
X3309707Y4243597D1*
X3284443Y4235387D1*
X3258207Y4231233D1*
X3231640D1*
X3223650Y4232177D1*
X3208167Y4218460D1*
X3194680Y4210197D1*
X3180070Y4204143D1*
X3164690Y4200450D1*
X3148923Y4199210D1*
X3133173D1*
X2764633Y4171123D2*
Y4214290D1*
X2789563D1*
X2789633Y4649290D1*
X2983157Y4649550D1*
X2998923Y4650790D1*
X3706830Y4650480D1*
X3722453Y4648007D1*
X3737493Y4643117D1*
X3751587Y4635937D1*
X3764380Y4626640D1*
X3823600Y4567860D1*
X3844923Y4569290D1*
X3871407Y4567207D1*
X3897237Y4561003D1*
X3921780Y4550840D1*
X3929617Y4546450D1*
X3929633Y4569290D1*
X4268213D1*
Y4230710D1*
X4199630D1*
X4199713Y3480613D1*
X4221670Y3458593D1*
X4357673Y3458633D1*
Y2860053D1*
X4152463D1*
X4161430Y2842863D1*
X4166730Y2826553D1*
X4169413Y2809613D1*
Y2792467D1*
X4166730Y2775527D1*
X4161430Y2759217D1*
X4153647Y2743937D1*
X4143563Y2730063D1*
X4131437Y2717937D1*
X4117563Y2707853D1*
X4102283Y2700070D1*
X4085973Y2694770D1*
X4069033Y2692087D1*
X4049720Y2692343D1*
X4049700Y2528320D1*
X3760800D1*
X3725467Y2492933D1*
X4036787Y2492910D1*
X4659007Y3115153D1*
X4659043Y3332033D1*
X4419897Y3331920D1*
Y3653260D1*
X4412180Y3647830D1*
X4405080Y3634120D1*
X4394997Y3620247D1*
X4382870Y3608120D1*
X4368997Y3598037D1*
X4353717Y3590253D1*
X4337407Y3584953D1*
X4320467Y3582270D1*
X4303320D1*
X4286380Y3584953D1*
X4270070Y3590253D1*
X4254790Y3598037D1*
X4240917Y3608120D1*
X4228790Y3620247D1*
X4218707Y3634120D1*
X4210923Y3649400D1*
X4205623Y3665710D1*
X4202940Y3682650D1*
Y3699797D1*
X4205623Y3716737D1*
X4210923Y3733047D1*
X4218707Y3748327D1*
X4229630Y3763113D1*
X4229647Y4036620D1*
X4344863D1*
X4310500Y4071490D1*
X4301203Y4084283D1*
X4294023Y4098377D1*
X4289133Y4113417D1*
X4286660Y4129040D1*
X4286350Y4327447D1*
Y4657913D1*
X4158353Y4785387D1*
X4050707Y4785337D1*
X4049397Y4779560D1*
X4055187Y4757800D1*
X4056533Y4740703D1*
X4055187Y4723607D1*
X4051183Y4706930D1*
X4044620Y4691087D1*
X4035660Y4676463D1*
X4024523Y4663423D1*
X4011483Y4652287D1*
X3996860Y4643327D1*
X3981017Y4636763D1*
X3964340Y4632760D1*
X3947243Y4631413D1*
X3930147Y4632760D1*
X3913470Y4636763D1*
X3897627Y4643327D1*
X3883003Y4652287D1*
X3869963Y4663423D1*
X3862000Y4672437D1*
X3582643D1*
Y4781503D1*
X3566883Y4785060D1*
X3545533Y4783880D1*
X3545540Y4654710D1*
X3176960D1*
Y5264290D1*
X3260427D1*
X3260460Y5280597D1*
X3201960Y5280710D1*
Y5303407D1*
X3182033Y5293597D1*
X3156770Y5285387D1*
X3130533Y5281233D1*
X3103967D1*
X3092367Y5282607D1*
X3076493Y5268460D1*
X3063007Y5260197D1*
X3048397Y5254143D1*
X3033017Y5250450D1*
X3017250Y5249210D1*
X3005467D1*
X3005540Y4781710D1*
Y4654710D1*
X2636960D1*
Y4795227D1*
X2621447Y4795210D1*
X2608767Y4774590D1*
X2592537Y4755580D1*
X2573527Y4739350D1*
X2552217Y4726287D1*
X2529123Y4716723D1*
X2504820Y4710887D1*
X2479900Y4708927D1*
X2454980Y4710887D1*
X2430677Y4716723D1*
X2422930Y4719580D1*
X2483973Y4658567D1*
X2512497Y4658800D1*
X2537187Y4654890D1*
X2560957Y4647163D1*
X2583230Y4635817D1*
X2603450Y4621127D1*
X2621127Y4603450D1*
X2635817Y4583230D1*
X2647163Y4560957D1*
X2654890Y4537187D1*
X2656653Y4528320D1*
X2687030Y4498820D1*
X2708147Y4477260D1*
X2717443Y4464467D1*
X2724623Y4450373D1*
X2729513Y4435333D1*
X2731987Y4419710D1*
X2732297Y4221303D1*
Y4170577D1*
X2750397Y4172143D1*
X2764663Y4171133D1*
X2636960Y5161097D2*
Y5264290D1*
X2661890D1*
X2661960Y5689290D1*
X2770480D1*
X2770770Y5758687D1*
X2773243Y5774310D1*
X2778133Y5789350D1*
X2785313Y5803443D1*
X2794610Y5816237D1*
X2805793Y5827420D1*
X2818587Y5836717D1*
X2832680Y5843897D1*
X2847720Y5848787D1*
X2863343Y5851260D1*
X2977537Y5851570D1*
X2993917Y5870487D1*
X3014117Y5887740D1*
X3036767Y5901620D1*
X3061310Y5911783D1*
X3087140Y5917987D1*
X3113623Y5920070D1*
X3140107Y5917987D1*
X3165937Y5911783D1*
X3190480Y5901620D1*
X3198317Y5897230D1*
X3198333Y5920070D1*
X3266920D1*
X3267143Y6020137D1*
X3269617Y6035760D1*
X3274507Y6050800D1*
X3281687Y6064893D1*
X3291633Y6078390D1*
X3293200Y6086087D1*
X3291853Y6103183D1*
X3293200Y6120280D1*
X3297863Y6138750D1*
X3108537Y6138740D1*
Y6230990D1*
X3093330Y6232320D1*
X3075427Y6236773D1*
X3074290Y6231690D1*
Y6104710D1*
X2705710D1*
Y6714290D1*
X2789177D1*
X2789210Y6730597D1*
X2730710Y6730710D1*
Y6753407D1*
X2710783Y6743597D1*
X2685520Y6735387D1*
X2659283Y6731233D1*
X2632717D1*
X2624727Y6732177D1*
X2609243Y6718460D1*
X2595757Y6710197D1*
X2581147Y6704143D1*
X2565767Y6700450D1*
X2550000Y6699210D1*
X2534250D1*
X2534167Y6231710D1*
X2534290Y6104710D1*
X2165710D1*
Y6173197D1*
X2100730Y6108193D1*
X2101493Y5999223D1*
X2107330Y5974920D1*
X2109290Y5950000D1*
X2107330Y5925080D1*
X2100767Y5898807D1*
X2100790Y5599213D1*
X2159290Y5599290D1*
Y5289310D1*
X2359290Y5289290D1*
Y5050797D1*
X2413693Y5050790D1*
X2410337Y5069920D1*
Y5087067D1*
X2413020Y5104007D1*
X2418320Y5120317D1*
X2426103Y5135597D1*
X2436187Y5149470D1*
X2448313Y5161597D1*
X2462187Y5171680D1*
X2477467Y5179463D1*
X2493777Y5184763D1*
X2510717Y5187447D1*
X2527863D1*
X2544803Y5184763D1*
X2561570Y5179253D1*
X2585687Y5178647D1*
X2602627Y5175963D1*
X2618937Y5170663D1*
X2636977Y5161033D1*
X3545463Y5137290D2*
X3545540Y5123770D1*
X3582633Y5123790D1*
X3582643Y5161017D1*
X3652963D1*
X3652853Y5169597D1*
X3647553Y5185907D1*
X3644870Y5202847D1*
Y5219993D1*
X3648890Y5241677D1*
X3647440Y5259470D1*
X3648787Y5276567D1*
X3652790Y5293243D1*
X3659353Y5309087D1*
X3668313Y5323710D1*
X3679450Y5336750D1*
X3692490Y5347887D1*
X3707113Y5356847D1*
X3722957Y5363410D1*
X3739633Y5367413D1*
X3756730Y5368760D1*
X3773827Y5367413D1*
X3790503Y5363410D1*
X3806347Y5356847D1*
X3820970Y5347887D1*
X3834010Y5336750D1*
X3845147Y5323710D1*
X3854107Y5309087D1*
X3860670Y5293243D1*
X3864673Y5276567D1*
X3866020Y5259470D1*
X3864673Y5242373D1*
X3861767Y5228517D1*
X3863113Y5211420D1*
X3861767Y5194323D1*
X3857763Y5177647D1*
X3854583Y5169140D1*
X3868393Y5161017D1*
X3901223D1*
Y5103843D1*
X3998687Y5103917D1*
X3998690Y5520790D1*
X4190207D1*
X4190227Y5574567D1*
X3862857Y5574583D1*
Y5632997D1*
X3652507Y5633393D1*
X3636883Y5635867D1*
X3621843Y5640757D1*
X3607750Y5647937D1*
X3594957Y5657233D1*
X3536963Y5714783D1*
X3536913Y5619313D1*
X3540540Y5619290D1*
Y5280710D1*
X3462033D1*
X3462710Y5264290D1*
X3545540D1*
Y5123770D1*
X2990840Y6714290D2*
X3074290D1*
Y6700770D1*
X3099723Y6700790D1*
X3117853Y6717300D1*
X3131340Y6725563D1*
X3145950Y6731617D1*
X3161330Y6735310D1*
X3177097Y6736550D1*
X3289587D1*
X3309120Y6741737D1*
X3324887Y6742977D1*
X3361293D1*
X3360720Y6765563D1*
X3363403Y6782503D1*
X3368703Y6798813D1*
X3376487Y6814093D1*
X3386570Y6827967D1*
X3398697Y6840093D1*
X3412570Y6850177D1*
X3427850Y6857960D1*
X3444160Y6863260D1*
X3463543Y6866040D1*
X3461497Y6870713D1*
X3182937Y7149230D1*
X3040037Y7149210D1*
X3023707Y7130293D1*
X3003507Y7113040D1*
X2980857Y7099160D1*
X2956313Y7088997D1*
X2930483Y7082793D1*
X2904000Y7080710D1*
X2877517Y7082793D1*
X2851687Y7088997D1*
X2827143Y7099160D1*
X2819307Y7103550D1*
X2819290Y7080710D1*
X2583273D1*
X2509293Y7006757D1*
X2517270Y7009947D1*
X2536053Y7028730D1*
X2557547Y7044343D1*
X2581217Y7056403D1*
X2606480Y7064613D1*
X2632717Y7068767D1*
X2659283D1*
X2685520Y7064613D1*
X2710783Y7056403D1*
X2730693Y7046450D1*
X2730710Y7069290D1*
X3069290D1*
Y6730710D1*
X2990783D1*
X5474633Y2043263D2*
X5573703D1*
X5573687Y2428430D1*
X5119890Y2882683D1*
X5110593Y2895477D1*
X5103413Y2909570D1*
X5098523Y2924610D1*
X5096050Y2940233D1*
X5095740Y3138640D1*
X5096050Y4402377D1*
X5098523Y4418000D1*
X5103813Y4433910D1*
X5084563Y4436310D1*
X5075880Y4438113D1*
X5070643Y4436283D1*
Y4011203D1*
X4860573D1*
X4860313Y3065537D1*
X4857840Y3049913D1*
X4852950Y3034873D1*
X4845770Y3020780D1*
X4836473Y3007987D1*
X4696400Y2867470D1*
X4265363Y2436437D1*
X4286063Y2442960D1*
X4310753Y2446870D1*
X4335747D1*
X4360437Y2442960D1*
X4384207Y2435233D1*
X4406480Y2423887D1*
X4426700Y2409197D1*
X4444377Y2391520D1*
X4459617Y2370320D1*
X4466870Y2384330D1*
X4476953Y2398203D1*
X4489737Y2410850D1*
X4496680Y2427927D1*
X4505640Y2442550D1*
X4516777Y2455590D1*
X4529817Y2466727D1*
X4544440Y2475687D1*
X4560283Y2482250D1*
X4576960Y2486253D1*
X4594057Y2487600D1*
X4611153Y2486253D1*
X4627830Y2482250D1*
X4643673Y2475687D1*
X4658297Y2466727D1*
X4671337Y2455590D1*
X4682473Y2442550D1*
X4691433Y2427927D1*
X4697997Y2412083D1*
X4702000Y2395407D1*
X4703347Y2378310D1*
X4702000Y2361213D1*
X4697997Y2344537D1*
X4691433Y2328693D1*
X4679993Y2308563D1*
X4670697Y2295770D1*
X4660817Y2284947D1*
X4668643Y2279140D1*
X4734600Y2345540D1*
X4746627Y2355810D1*
X4760113Y2364073D1*
X4774723Y2370127D1*
X4790103Y2373820D1*
X4805870Y2375060D1*
X5007190Y2374750D1*
X5022813Y2372277D1*
X5037853Y2367387D1*
X5051947Y2360207D1*
X5064740Y2350910D1*
X5075923Y2339727D1*
X5085220Y2326933D1*
X5092400Y2312840D1*
X5097290Y2297800D1*
X5099763Y2282177D1*
X5100073Y2265713D1*
X5367573Y2265737D1*
Y2252963D1*
X5384570Y2268233D1*
X5399193Y2277193D1*
X5415037Y2283757D1*
X5431713Y2287760D1*
X5448810Y2289107D1*
X5465907Y2287760D1*
X5482583Y2283757D1*
X5498427Y2277193D1*
X5513050Y2268233D1*
X5526090Y2257097D1*
X5537227Y2244057D1*
X5546187Y2229433D1*
X5552750Y2213590D1*
X5556753Y2196913D1*
X5558100Y2179817D1*
X5556753Y2162720D1*
X5552750Y2146043D1*
X5546187Y2130200D1*
X5537227Y2115577D1*
X5526090Y2102537D1*
X5513050Y2091400D1*
X5507843Y2087200D1*
X5500060Y2071920D1*
X5489977Y2058047D1*
X5474507Y2043283D1*
X5314867Y1804733D2*
Y1897157D1*
X4846057D1*
X4846073Y1816657D1*
X4862523Y1819333D1*
X4878337D1*
X4893960Y1816860D1*
X4909000Y1811970D1*
X4923170Y1804740D1*
X5314803Y1804763D1*
X5314990Y1853263D1*
X5633447Y1603107D2*
Y1554683D1*
X5367667D1*
X5367573Y1357157D1*
X5227057D1*
X5226763Y1335593D1*
X5224290Y1319970D1*
X5219183Y1304490D1*
X5218400Y1268957D1*
X5215927Y1253333D1*
X5211037Y1238293D1*
X5203857Y1224200D1*
X5194560Y1211407D1*
X5183377Y1200223D1*
X5170583Y1190927D1*
X5156490Y1183747D1*
X5141450Y1178857D1*
X5125827Y1176383D1*
X4927420Y1176073D1*
X3476470D1*
X3462873Y1172923D1*
X3447107Y1171683D1*
X2844413Y1171993D1*
X2828790Y1174467D1*
X2813750Y1179357D1*
X2799657Y1186537D1*
X2786863Y1195833D1*
X2646347Y1335907D1*
X2268107Y1714150D1*
X2248120Y1713857D1*
X2231180Y1716540D1*
X2214870Y1721840D1*
X2199590Y1729623D1*
X2185717Y1739707D1*
X2173590Y1751833D1*
X2163507Y1765707D1*
X2155723Y1780987D1*
X2150423Y1797297D1*
X2147740Y1814237D1*
Y1831383D1*
X2150423Y1848323D1*
X2155723Y1864633D1*
X2163507Y1879913D1*
X2173590Y1893787D1*
X2185717Y1905913D1*
X2199590Y1915997D1*
X2214870Y1923780D1*
X2231180Y1929080D1*
X2248120Y1931763D1*
X2265833Y1931697D1*
X1768903Y2428553D1*
X1748533Y2436500D1*
X1733910Y2445460D1*
X1720870Y2456597D1*
X1709733Y2469637D1*
X1700773Y2484260D1*
X1695150Y2497557D1*
X1681140Y2506200D1*
X1668100Y2517337D1*
X1656963Y2530377D1*
X1648003Y2545000D1*
X1641440Y2560843D1*
X1637437Y2577520D1*
X1636090Y2594617D1*
X1637437Y2611713D1*
X1641440Y2628390D1*
X1648003Y2644233D1*
X1656963Y2658857D1*
X1668100Y2671897D1*
X1681140Y2683033D1*
X1695763Y2691993D1*
X1711607Y2698557D1*
X1728283Y2702560D1*
X1745380Y2703907D1*
X1762477Y2702560D1*
X1779153Y2698557D1*
X1794997Y2691993D1*
X1809620Y2683033D1*
X1822660Y2671897D1*
X1833797Y2658857D1*
X1842757Y2644233D1*
X1846523Y2635970D1*
X1875430Y2611157D1*
X1886567Y2598117D1*
X1890980Y2591510D1*
X2105613Y2376923D1*
X2104613Y2391170D1*
Y3272603D1*
X1862487Y3272550D1*
Y3691123D1*
X1535997Y3691073D1*
Y3780493D1*
X1393630Y3922830D1*
X1382840Y3896143D1*
X1368960Y3873493D1*
X1351707Y3853293D1*
X1343890Y3846070D1*
X1360730Y3828947D1*
X1376343Y3807453D1*
X1388403Y3783783D1*
X1396613Y3758520D1*
X1400767Y3732283D1*
Y3705717D1*
X1396613Y3679480D1*
X1388403Y3654217D1*
X1376343Y3630547D1*
X1360730Y3609053D1*
X1343890Y3592070D1*
X1360730Y3574947D1*
X1376343Y3553453D1*
X1388403Y3529783D1*
X1396613Y3504520D1*
X1400767Y3478283D1*
Y3451717D1*
X1396613Y3425480D1*
X1388403Y3400217D1*
X1376343Y3376547D1*
X1360730Y3355053D1*
X1343890Y3338070D1*
X1360730Y3320947D1*
X1376343Y3299453D1*
X1388403Y3275783D1*
X1396613Y3250520D1*
X1400767Y3224283D1*
Y3197717D1*
X1396613Y3171480D1*
X1388403Y3146217D1*
X1378450Y3126307D1*
X1401290Y3126290D1*
Y2787710D1*
X1097803D1*
X1097750Y1097750D1*
X6102250D1*
Y2459650D1*
X6052227Y2409993D1*
X6039433Y2400697D1*
X6025340Y2393517D1*
X6009360Y2388440D1*
X5986587Y2370463D1*
X5949493Y2333367D1*
X5949177Y1443170D1*
X5946703Y1427547D1*
X5941813Y1412507D1*
X5934633Y1398413D1*
X5925337Y1385620D1*
X5795587Y1255427D1*
X5783560Y1245157D1*
X5770073Y1236893D1*
X5755463Y1230840D1*
X5740083Y1227147D1*
X5724317Y1225907D1*
X5573627D1*
X5558813Y1221220D1*
X5541873Y1218537D1*
X5524727D1*
X5509267Y1220927D1*
X5490297Y1217743D1*
X5473150D1*
X5456210Y1220427D1*
X5439900Y1225727D1*
X5424620Y1233510D1*
X5410747Y1243593D1*
X5398620Y1255720D1*
X5388537Y1269593D1*
X5380753Y1284873D1*
X5375453Y1301183D1*
X5372770Y1318123D1*
Y1335270D1*
X5375453Y1352210D1*
X5380753Y1368520D1*
X5388537Y1383800D1*
X5398620Y1397673D1*
X5410747Y1409800D1*
X5424620Y1419883D1*
X5439900Y1427667D1*
X5456210Y1432967D1*
X5473150Y1435650D1*
X5490297D1*
X5505757Y1433260D1*
X5524727Y1436443D1*
X5541873D1*
X5558813Y1433760D1*
X5577283Y1427463D1*
X5682543Y1427487D1*
X5748023Y1492943D1*
X5747907Y1662537D1*
X5712363Y1627333D1*
X5699570Y1618037D1*
X5685477Y1610857D1*
X5670437Y1605967D1*
X5654813Y1603493D1*
X5633387Y1603183D1*
X4338787Y6552267D2*
Y6501313D1*
X4094537D1*
X4087593Y6484313D1*
X4078633Y6469690D1*
X4067497Y6456650D1*
X4057257Y6447437D1*
X4049993Y6435350D1*
X4069727Y6440587D1*
X4085493Y6441827D1*
X4405847D1*
X4427607Y6463610D1*
X4338823Y6552200D1*
X4351333Y5740320D2*
X4508807D1*
Y5654867D1*
X4527863Y5652123D1*
X4527803Y6278793D1*
X4513030Y6264397D1*
X4500237Y6255100D1*
X4486143Y6247920D1*
X4471103Y6243030D1*
X4455480Y6240557D1*
X4189977Y6240247D1*
X4182480Y6220990D1*
X4173520Y6206367D1*
X4162383Y6193327D1*
X4149343Y6182190D1*
X4136093Y6174000D1*
X4154367Y6156030D1*
X4169647Y6148247D1*
X4183520Y6138163D1*
X4195647Y6126037D1*
X4205730Y6112163D1*
X4213513Y6096883D1*
X4218813Y6080573D1*
X4221497Y6063633D1*
Y6046487D1*
X4218813Y6029547D1*
X4216903Y6020473D1*
X4218250Y6003377D1*
X4216903Y5986280D1*
X4212900Y5969603D1*
X4206337Y5953760D1*
X4197377Y5939137D1*
X4186240Y5926097D1*
X4173200Y5914960D1*
X4158577Y5906000D1*
X4142733Y5899437D1*
X4126057Y5895433D1*
X4108960Y5894087D1*
X4091863Y5895433D1*
X4075187Y5899437D1*
X4059343Y5906000D1*
X4044720Y5914960D1*
X4031680Y5926097D1*
X4020543Y5939137D1*
X4011583Y5953760D1*
X4007930Y5961710D1*
X3582070Y5961690D1*
X3600987Y5945553D1*
X3612123Y5932513D1*
X3622950Y5913840D1*
X3702170Y5834657D1*
X3862943Y5834663D1*
X3862857Y5893163D1*
X4351437D1*
Y5740243D1*
X4182190Y2214147D2*
Y1844710D1*
X4626190Y1844437D1*
X4642733Y1841703D1*
X4644493Y1858947D1*
Y1897270D1*
X4376993Y1897157D1*
Y2138133D1*
X4360437Y2133180D1*
X4335747Y2129270D1*
X4310753D1*
X4286063Y2133180D1*
X4262293Y2140907D1*
X4240020Y2152253D1*
X4219800Y2166943D1*
X4202123Y2184620D1*
X4187433Y2204840D1*
X4182203Y2214177D1*
X2335603Y4800710D2*
X2040710D1*
Y4843993D1*
X1975890Y4843900D1*
X1975843Y4808680D1*
X1991617Y4799277D1*
X2159290Y4799290D1*
Y4750797D1*
X2357907Y4750480D1*
X2374450Y4747747D1*
X2351033Y4774590D1*
X2337970Y4795900D1*
X2335743Y4800737D1*
X2040710Y5045407D2*
X2040700Y5110710D1*
X1840710D1*
Y5290717D1*
X1460710Y5290710D1*
Y5329280D1*
X1399507Y5267970D1*
X1401290Y5243000D1*
X1399207Y5216517D1*
X1393003Y5190687D1*
X1382840Y5166143D1*
X1368960Y5143493D1*
X1351707Y5123293D1*
X1343890Y5116070D1*
X1360730Y5098947D1*
X1376343Y5077453D1*
X1388403Y5053783D1*
X1391477Y5045453D1*
X1487273Y5045480D1*
X1487263Y5103980D1*
X1975843D1*
Y5045563D1*
X2040743Y5045480D1*
X2040833Y5099290D1*
X2159303Y4439290D2*
X2352730D1*
X2345110Y4462813D1*
X2341200Y4487503D1*
Y4512497D1*
X2341610Y4515943D1*
X2308147Y4549317D1*
X2159377Y4549210D1*
X2159290Y4439303D1*
X2040710Y4282717D2*
Y4310697D1*
X1840710Y4310710D1*
Y4558830D1*
X1471330Y4558847D1*
Y4617260D1*
X1353847Y4617347D1*
X1343890Y4608070D1*
X1360730Y4590947D1*
X1376343Y4569453D1*
X1388403Y4545783D1*
X1396613Y4520520D1*
X1400767Y4494283D1*
Y4467717D1*
X1399393Y4456117D1*
X1572763Y4282773D1*
X2040667Y4282737D1*
X4752067Y4201203D2*
X4752063Y4367270D1*
X4705773Y4413977D1*
X4696477Y4426770D1*
X4692207Y4434547D1*
X4592430Y4435027D1*
Y4503623D1*
X4590740Y4485457D1*
Y4339233D1*
X4752137Y4177943D1*
X4752090Y4309783D1*
X5856110Y4608070D2*
X5839270Y4625053D1*
X5823657Y4646547D1*
X5811597Y4670217D1*
X5803387Y4695480D1*
X5799233Y4721717D1*
Y4748283D1*
X5803387Y4774520D1*
X5806693Y4787217D1*
X5796610Y4773343D1*
X5784483Y4761217D1*
X5770610Y4751133D1*
X5755330Y4743350D1*
X5739020Y4738050D1*
X5722080Y4735367D1*
X5700303Y4735913D1*
X5689313Y4717020D1*
X5678177Y4703980D1*
X5665137Y4692843D1*
X5650513Y4683883D1*
X5634670Y4677320D1*
X5617993Y4673317D1*
X5600897Y4671970D1*
X5583800Y4673317D1*
X5576403Y4674787D1*
X5654400Y4596400D1*
X5663697Y4583607D1*
X5670877Y4569513D1*
X5675767Y4554473D1*
X5678240Y4538850D1*
X5678550Y4344650D1*
X5677310Y4328883D1*
X5673617Y4313503D1*
X5667563Y4298893D1*
X5659300Y4285407D1*
X5649030Y4273380D1*
X5605067Y4229860D1*
X5592273Y4220563D1*
X5578180Y4213383D1*
X5563140Y4208493D1*
X5547517Y4206020D1*
X5425383Y4205710D1*
X5410427Y4190000D1*
X5397040Y4180203D1*
X5385903Y4167163D1*
X5372863Y4156027D1*
X5358240Y4147067D1*
X5342397Y4140503D1*
X5325720Y4136500D1*
X5308623Y4135153D1*
X5297287Y4135817D1*
X5297320Y3819870D1*
X5831903Y3819790D1*
X5848293Y3838707D1*
X5856110Y3845930D1*
X5838900Y3863493D1*
X5823980Y3884020D1*
X5812297Y3906547D1*
X5804113Y3930567D1*
X5799613Y3955540D1*
X5798893Y3980907D1*
X5801977Y4006097D1*
X5808790Y4030540D1*
X5819177Y4053693D1*
X5832910Y4075030D1*
X5849680Y4094077D1*
X5856080Y4099977D1*
X5839270Y4117053D1*
X5823657Y4138547D1*
X5811597Y4162217D1*
X5803387Y4187480D1*
X5799233Y4213717D1*
Y4240283D1*
X5803387Y4266520D1*
X5811597Y4291783D1*
X5823657Y4315453D1*
X5839270Y4336947D1*
X5856110Y4353930D1*
X5839270Y4371053D1*
X5823657Y4392547D1*
X5811597Y4416217D1*
X5803387Y4441480D1*
X5799233Y4467717D1*
Y4494283D1*
X5803387Y4520520D1*
X5811597Y4545783D1*
X5823657Y4569453D1*
X5839270Y4590947D1*
X5856110Y4607930D1*
Y3592070D2*
X5839270Y3609053D1*
X5832037Y3618230D1*
X5297407Y3618210D1*
X5297320Y2989867D1*
X5751117Y2535650D1*
X5760413Y2522857D1*
X5767593Y2508763D1*
X5772483Y2493723D1*
X5774957Y2478100D1*
X5775267Y2444023D1*
X5894763Y2563273D1*
X5907557Y2572570D1*
X5921650Y2579750D1*
X5937630Y2584827D1*
X5960403Y2602803D1*
X6013460Y2655860D1*
X6013433Y2794043D1*
X5994483Y2789793D1*
X5968000Y2787710D1*
X5941517Y2789793D1*
X5915687Y2795997D1*
X5891143Y2806160D1*
X5868493Y2820040D1*
X5848293Y2837293D1*
X5832037Y2856230D1*
X5789293Y2856520D1*
X5773670Y2858993D1*
X5758630Y2863883D1*
X5744537Y2871063D1*
X5731743Y2880360D1*
X5668367Y2943293D1*
X5658097Y2955320D1*
X5649833Y2968807D1*
X5643780Y2983417D1*
X5640087Y2998797D1*
X5638847Y3014563D1*
X5639157Y3331383D1*
X5641630Y3347007D1*
X5646520Y3362047D1*
X5653700Y3376140D1*
X5662997Y3388933D1*
X5686843Y3413477D1*
X5694627Y3428757D1*
X5704710Y3442630D1*
X5716837Y3454757D1*
X5730710Y3464840D1*
X5745990Y3472623D1*
X5762300Y3477923D1*
X5779240Y3480607D1*
X5799417Y3480247D1*
X5803387Y3504520D1*
X5811597Y3529783D1*
X5823657Y3553453D1*
X5839270Y3574947D1*
X5856110Y3591930D1*
X3905473Y1570393D2*
X3901563Y1545703D1*
X3893837Y1521933D1*
X3882490Y1499660D1*
X3867800Y1479440D1*
X3850123Y1461763D1*
X3829903Y1447073D1*
X3807630Y1435727D1*
X3783860Y1428000D1*
X3759170Y1424090D1*
X3734177D1*
X3709487Y1428000D1*
X3685717Y1435727D1*
X3663443Y1447073D1*
X3643223Y1461763D1*
X3625547Y1479440D1*
X3610857Y1499660D1*
X3599510Y1521933D1*
X3591783Y1545703D1*
X3587873Y1570393D1*
Y1595387D1*
X3591783Y1620077D1*
X3599253Y1643160D1*
X2624137Y1643167D1*
X2894100Y1373230D1*
X3297937Y1373263D1*
X3292217Y1391977D1*
X3288307Y1416667D1*
Y1441660D1*
X3292217Y1466350D1*
X3299943Y1490120D1*
X3311290Y1512393D1*
X3325980Y1532613D1*
X3343657Y1550290D1*
X3363877Y1564980D1*
X3386150Y1576327D1*
X3409920Y1584053D1*
X3434610Y1587963D1*
X3459603D1*
X3484293Y1584053D1*
X3508063Y1576327D1*
X3530337Y1564980D1*
X3550557Y1550290D1*
X3568233Y1532613D1*
X3582923Y1512393D1*
X3594270Y1490120D1*
X3601997Y1466350D1*
X3605907Y1441660D1*
Y1416667D1*
X3601997Y1391977D1*
X3597737Y1377603D1*
X4376910Y1377653D1*
X4376993Y1643280D1*
X3894110Y1643167D1*
X3901563Y1620077D1*
X3905473Y1595387D1*
Y1570393D1*
X2042813Y6543657D2*
X2055407Y6554540D1*
X2068893Y6562803D1*
X2083503Y6568857D1*
X2098883Y6572550D1*
X2114650Y6573790D1*
X2165710Y6573643D1*
Y6714290D1*
X2190640D1*
X2190710Y7139290D1*
X2356777D1*
X2480700Y7263237D1*
X2480710Y7419290D1*
X2819290D1*
Y7396593D1*
X2839217Y7406403D1*
X2864480Y7414613D1*
X2890717Y7418767D1*
X2917283D1*
X2943520Y7414613D1*
X2968783Y7406403D1*
X2992453Y7394343D1*
X3013947Y7378730D1*
X3032730Y7359947D1*
X3039963Y7350770D1*
X3232613Y7350480D1*
X3248237Y7348007D1*
X3263277Y7343117D1*
X3277370Y7335937D1*
X3290163Y7326640D1*
X3430680Y7186567D1*
X3600900Y7016343D1*
X3620953Y7016583D1*
X3637893Y7013900D1*
X3654203Y7008600D1*
X3669483Y7000817D1*
X3683357Y6990733D1*
X3695483Y6978607D1*
X3706827Y6962483D1*
X3712580Y6981643D1*
X3719760Y6995737D1*
X3729057Y7008530D1*
X3754213Y7033687D1*
X3767007Y7042983D1*
X3781100Y7050163D1*
X3796140Y7055053D1*
X3811763Y7057527D1*
X3980313Y7057837D1*
X3996080Y7056597D1*
X4015727Y7051380D1*
X4077383Y7051103D1*
X4093007Y7048630D1*
X4108047Y7043740D1*
X4122140Y7036560D1*
X4134933Y7027263D1*
X4172757Y6989883D1*
X4338787Y6989893D1*
Y6837220D1*
X4705233Y6470427D1*
X4714530Y6457633D1*
X4721710Y6443540D1*
X4726600Y6428500D1*
X4729073Y6412877D1*
X4729383Y6214470D1*
Y5174037D1*
X4766777Y5136800D1*
X4822877Y5193010D1*
X4822890Y5336537D1*
X5311470D1*
Y5098583D1*
X5521010Y5098607D1*
Y5095010D1*
X5610547Y5094797D1*
X5626170Y5092323D1*
X5641210Y5087433D1*
X5655303Y5080253D1*
X5668097Y5070957D1*
X5738973Y5000777D1*
X5754253Y4992993D1*
X5768127Y4982910D1*
X5780253Y4970783D1*
X5790337Y4956910D1*
X5798120Y4941630D1*
X5803420Y4925320D1*
X5806103Y4908380D1*
X5806693Y4901423D1*
X5814477Y4886143D1*
X5819777Y4869833D1*
X5822460Y4852893D1*
Y4835747D1*
X5818587Y4814580D1*
X5831040Y4834507D1*
X5848293Y4854707D1*
X5856110Y4861930D1*
X5839270Y4879053D1*
X5823657Y4900547D1*
X5811597Y4924217D1*
X5803387Y4949480D1*
X5799233Y4975717D1*
Y5002283D1*
X5803387Y5028520D1*
X5811597Y5053783D1*
X5821550Y5073693D1*
X5798710Y5073710D1*
Y5412290D1*
X6102197D1*
X6102250Y7702250D1*
X1097750D1*
Y5346177D1*
X1112293Y5362707D1*
X1132493Y5379960D1*
X1155143Y5393840D1*
X1179687Y5404003D1*
X1205517Y5410207D1*
X1232000Y5412290D1*
X1256883Y5410393D1*
X1373543Y5526640D1*
X1386337Y5535937D1*
X1400430Y5543117D1*
X1415470Y5548007D1*
X1431093Y5550480D1*
X1460703Y5550790D1*
X1460710Y5609290D1*
X1899130D1*
X1899210Y5799127D1*
X1877683Y5808070D1*
X1856373Y5821133D1*
X1837363Y5837363D1*
X1821133Y5856373D1*
X1808070Y5877683D1*
X1798507Y5900777D1*
X1792670Y5925080D1*
X1790710Y5950000D1*
X1792670Y5974920D1*
X1798507Y5999223D1*
X1808070Y6022317D1*
X1812393Y6030033D1*
X1791097Y6024407D1*
X1774000Y6023060D1*
X1756903Y6024407D1*
X1740227Y6028410D1*
X1724383Y6034973D1*
X1709760Y6043933D1*
X1696720Y6055070D1*
X1683253Y6071593D1*
X1670543Y6079550D1*
X1657503Y6090687D1*
X1646367Y6103727D1*
X1637407Y6118350D1*
X1630843Y6134193D1*
X1626840Y6150870D1*
X1625493Y6167967D1*
X1626840Y6185063D1*
X1630843Y6201740D1*
X1637407Y6217583D1*
X1646367Y6232207D1*
X1657503Y6245247D1*
X1670543Y6256383D1*
X1685167Y6265343D1*
X1701010Y6271907D1*
X1717687Y6275910D1*
X1734783Y6277257D1*
X1751880Y6275910D1*
X1770410Y6271223D1*
X2049193Y6549640D1*
X2061987Y6558937D1*
X2076080Y6566117D1*
X2091120Y6571007D1*
X2106743Y6573480D1*
X2165623Y6573790D1*
X2165833Y6587290D1*
X2497217Y2216373D2*
D14*
X2681383D1*
X2853050D2*
X3221383D1*
X2764757Y3719000D2*
X3133090D1*
X3304757D2*
X3488923D1*
X2637083Y4769000D2*
X3005417D1*
X3177083D2*
X3545417D1*
X2350000Y6219000D2*
X2534167D1*
X2705833D2*
X3074167D1*
X5162180Y5177247D2*
X5311347D1*
X5314990Y1893973D2*
X5474157D1*
X3900410Y2687610D2*
X4049577D1*
X3998813Y5371500D2*
X4157980D1*
X3863733Y1915413D2*
X4182067D1*
X4420020Y3481210D2*
X4579187D1*
X1840833Y5260000D2*
X2000000D1*
X2200000Y5140000D2*
X2359167D1*
X2040833Y4290000D2*
X2359167D1*
X1840833Y4460000D2*
X2159167D1*
X1862610Y3421840D2*
X2021777D1*
X4752187Y4160493D2*
X5070520D1*
X3387113Y2281413D2*
X3546280D1*
X5798833Y3973000D2*
X5968000D1*
X4183383Y2964343D2*
X4357550D1*
X4183383Y3094343D2*
X4357550D1*
X4183383Y3159343D2*
X4357550D1*
D16*
X2497217Y2597373D3*
Y2470373D3*
Y2343373D3*
Y2216373D3*
X3037217D3*
Y2343373D3*
Y2470373D3*
Y2597373D3*
X2948923Y4100000D3*
Y3973000D3*
Y3846000D3*
Y3719000D3*
X3488923D3*
Y3846000D3*
Y3973000D3*
Y4100000D3*
X2821250Y5150000D3*
Y5023000D3*
Y4896000D3*
Y4769000D3*
X3361250D3*
Y4896000D3*
Y5023000D3*
Y5150000D3*
X2350000Y6600000D3*
Y6473000D3*
Y6346000D3*
Y6219000D3*
X2890000D3*
Y6346000D3*
Y6473000D3*
Y6600000D3*
D17*
X4972180Y5177247D3*
X5162180D3*
D18*
X5474157Y1893973D3*
Y1703973D3*
D17*
X3710410Y2687610D3*
X3900410D3*
D18*
X4179497Y6840603D3*
Y6650603D3*
X4349517Y5591030D3*
Y5401030D3*
X4157980Y5181500D3*
Y5371500D3*
X4022900Y2105413D3*
Y1915413D3*
X4579187Y3671210D3*
Y3481210D3*
X2000000Y5450000D3*
Y5260000D3*
X2200000Y4950000D3*
Y5140000D3*
Y4100000D3*
Y4290000D3*
X2000000Y4650000D3*
Y4460000D3*
X2021777Y3611840D3*
Y3421840D3*
X4911353Y4350493D3*
Y4160493D3*
X3387113Y2281413D3*
Y2471413D3*
X3846800Y3788030D3*
Y3978030D3*
X3741933Y4821727D3*
Y5011727D3*
X3267827Y6288030D3*
Y6478030D3*
D19*
X1232000Y2957000D3*
D20*
Y3211000D3*
Y3465000D3*
Y3719000D3*
Y3973000D3*
Y4227000D3*
Y4481000D3*
Y4735000D3*
Y4989000D3*
Y5243000D3*
D19*
X5968000D3*
D20*
Y4989000D3*
Y4735000D3*
Y4481000D3*
Y4227000D3*
Y3973000D3*
Y3719000D3*
Y3465000D3*
Y3211000D3*
Y2957000D3*
D19*
X3367623Y5750780D3*
D20*
X3113623D3*
D19*
X2650000Y7250000D3*
D20*
X2904000D3*
D19*
X3371250Y5450000D3*
D20*
X3117250D3*
D19*
X2900000Y6900000D3*
D20*
X2646000D3*
D19*
X3498923Y4400000D3*
D20*
X3244923D3*
D19*
X4098923D3*
D20*
X3844923D3*
D19*
X3047217Y2897373D3*
D20*
X2793217D3*
D19*
X2797217Y3197373D3*
D20*
X3051217D3*
D21*
X1950000Y5950000D3*
X2479900Y4868217D3*
X2361393Y3812800D3*
X2500000Y4500000D3*
X3746673Y1582890D3*
X3447107Y1429163D3*
X4323250Y2288070D3*
D18*
X2497217Y2997373D3*
Y2807373D3*
X2948923Y4500000D3*
Y4310000D3*
X2821250Y5350000D3*
Y5540000D3*
X2350000Y6800000D3*
Y6990000D3*
D17*
X4020010Y2333620D3*
X3830010D3*
X4568937Y3877330D3*
X4378937D3*
X4141650Y4944627D3*
X3951650D3*
X4202147Y5733873D3*
X4012147D3*
X1893230Y4123447D3*
X1703230D3*
X1810620Y4718137D3*
X1620620D3*
X1800000Y5450000D3*
X1610000D3*
X1826553Y4944690D3*
X1636553D3*
X1875287Y3850363D3*
X1685287D3*
D22*
X4491283Y1541447D3*
X4618283D3*
X4745283D3*
X4872283D3*
X4999283D3*
X5126283D3*
X5253283D3*
Y2081447D3*
X5126283D3*
X4999283D3*
X4872283D3*
X4745283D3*
X4618283D3*
X4491283D3*
D23*
X3610697Y6135980D3*
X3675697D3*
X3740697D3*
X3805697D3*
X3870697D3*
X3935697D3*
X4000697Y6136000D3*
Y6715980D3*
X3935697D3*
X3870697D3*
X3805697D3*
X3740697D3*
X3675697D3*
X3610697D3*
D24*
X4766720Y4994317D3*
Y4929317D3*
Y4864317D3*
Y4799317D3*
Y4734317D3*
Y4669317D3*
Y4604317D3*
Y4539317D3*
X5346740D3*
X5346720Y4604317D3*
Y4669317D3*
Y4734317D3*
Y4799317D3*
Y4864317D3*
Y4929317D3*
Y4994317D3*
X3603383Y3354343D3*
Y3289343D3*
Y3224343D3*
Y3159343D3*
Y3094343D3*
Y3029343D3*
X3603403Y2964343D3*
X4183383D3*
Y3029343D3*
Y3094343D3*
Y3159343D3*
Y3224343D3*
Y3289343D3*
Y3354343D3*
M02*
