G04 DipTrace 3.0.0.2*
G04 Top.gbr*
%MOIN*%
G04 #@! TF.FileFunction,Copper,L1,Top*
G04 #@! TF.Part,Single*
G04 #@! TA.AperFunction,CopperBalancing*
%ADD13C,0.012992*%
%ADD14C,0.025*%
%ADD15R,0.07874X0.023622*%
%ADD16R,0.051181X0.059055*%
%ADD17R,0.059055X0.051181*%
G04 #@! TA.AperFunction,ComponentPad*
%ADD18R,0.066929X0.066929*%
%ADD19C,0.066929*%
%ADD20C,0.059055*%
%ADD21R,0.023622X0.07874*%
%ADD22R,0.015748X0.070866*%
%ADD23R,0.070866X0.015748*%
G04 #@! TA.AperFunction,ViaPad*
%ADD24C,0.04*%
%FSLAX26Y26*%
G04*
G70*
G90*
G75*
G01*
G04 Top*
%LPD*%
X866142Y1688976D2*
D13*
X799213Y1755906D1*
X787402D1*
X866142Y2023622D2*
X818898Y2070866D1*
X787402D1*
X1286546Y2475602D2*
X1259369Y2448425D1*
X1137795D1*
X1473202Y1898318D2*
X1452444Y1877559D1*
X1323327D1*
X1514488Y1491350D2*
X1487311Y1464173D1*
X1373592D1*
X1333509Y898194D2*
X1307903Y872588D1*
X1195755D1*
X1637000Y2114764D2*
X1648626Y2126390D1*
X1712408D1*
X1918222Y819467D2*
X1917492Y818738D1*
Y745020D1*
X1918131Y745659D1*
X2155180D1*
X1195755Y872588D2*
X983156D1*
X1160993Y1464173D2*
X1373592D1*
X1110728Y1877559D2*
X1237839D1*
X1323327D1*
X1583819Y754100D2*
X1576906Y761013D1*
X1386528D1*
X1333509Y814031D1*
Y898194D1*
X2032354Y2038286D2*
X2032948Y2037693D1*
Y1915085D1*
X2105008D1*
X2349606Y1564173D2*
X2300873Y1612907D1*
X2151400D1*
X2000660Y1632780D2*
X1995450Y1637990D1*
X1933604D1*
X866142Y2023622D2*
X925197Y2082677D1*
Y2448425D1*
X1137795D2*
X925197D1*
X1237839Y1877559D2*
X1227214Y1888184D1*
Y1898000D1*
X925197Y2082677D2*
X926521Y2081353D1*
X976445D1*
X866142Y1688976D2*
X909833D1*
X923711Y1675098D1*
Y1613265D1*
X1072803Y1464173D1*
X1160993D1*
X2155180Y745659D2*
X2177190Y767669D1*
Y961908D1*
X1933604Y1205495D1*
Y1312631D1*
Y1322999D1*
Y1637990D1*
X1583819Y754100D2*
X1587311Y757592D1*
X1648168D1*
Y937398D1*
X1917648Y1206878D1*
X1932220D1*
X1933604Y1205495D1*
X983156Y872588D2*
X982986Y872417D1*
X899710D1*
X795975Y976152D1*
Y1347181D1*
X1637000Y2114764D2*
X1624104Y2127660D1*
X1549625D1*
X2095125Y2013619D2*
X2070458Y2038286D1*
X2032354D1*
X866142Y1688976D2*
X879026Y1701861D1*
Y1764785D1*
X1920035Y1312631D2*
X1933604D1*
X1799081Y1307448D2*
X1802829Y1311196D1*
Y1370555D1*
X1920035Y1312631D2*
X1930403Y1322999D1*
X1933604D1*
X1647001Y1218245D2*
Y1243836D1*
Y1167064D2*
X1648140Y1168203D1*
X1715722D1*
Y1211920D1*
X1709396Y1218245D1*
X1647001D1*
X1418655Y1295017D2*
X1419188Y1295550D1*
X1502844D1*
X1514488Y1307194D1*
Y1491350D1*
X1799081Y1307448D2*
X1715722Y1224088D1*
Y1211920D1*
X1523896Y2644087D2*
X1524046Y2644236D1*
Y2708636D1*
X1529105Y2703577D1*
X1577172D1*
X1575077Y2701483D1*
Y2644087D1*
X1600816Y2618348D1*
X1645471D1*
X1707757Y2556062D1*
X1715701D1*
X1868071Y2559203D2*
X1885350Y2541924D1*
Y2164927D1*
X1930904Y2119373D1*
X2022012D1*
X2032354Y2109030D1*
Y2038286D1*
X1535594Y1058114D2*
X1543490Y1050219D1*
X1635134D1*
X1647001Y1062087D1*
Y1167064D1*
X1868222Y819467D2*
Y606869D1*
X1866895Y605542D1*
Y545164D1*
X1874486Y537573D1*
X1917680D1*
X1963029D1*
X1968222Y542766D1*
Y606869D1*
Y819467D2*
Y895382D1*
X1892075D1*
X1868222Y871529D1*
Y819467D1*
X1917979Y537873D2*
X1917680Y537573D1*
X2349606Y1664173D2*
X2402992Y1610787D1*
Y1591584D1*
X2407175Y1587402D1*
Y1029168D1*
X2356996Y978990D1*
X2346543D1*
X2302636Y935083D1*
Y571290D1*
X2253668Y522322D1*
X2158159D1*
X1327264Y2145669D2*
X1323327Y2141732D1*
Y2027559D1*
X1327264Y2145669D2*
X1353908Y2172314D1*
X1445621D1*
X1473449Y2200142D1*
Y2336752D1*
X1488629Y2351932D1*
X1521517D1*
X1523896Y2354311D1*
Y2415740D1*
X1286546Y2550406D2*
X1284566Y2548425D1*
X1137795D1*
X1473202Y1973121D2*
X1468764Y1977559D1*
X1323327D1*
X1514488Y1566154D2*
X1512508Y1564173D1*
X1373592D1*
X1333509Y972997D2*
X1333100Y972588D1*
X1195755D1*
X1876661Y1915085D2*
Y1940676D1*
Y1966266D2*
Y1940676D1*
X2105016Y1787133D2*
X2103655Y1785772D1*
X2060735D1*
X2008004D1*
X1983814Y1809962D1*
Y1911909D1*
X1955047Y1940676D1*
X1876661D1*
X1770591Y1961837D2*
X1791752Y1940676D1*
X1876661D1*
X1473202Y1973121D2*
X1477883Y1977802D1*
Y2051740D1*
X1576148Y1614770D2*
X1527531Y1566154D1*
X1514488D1*
X1876661Y1966266D2*
X1822281Y2020647D1*
Y2521642D1*
X1795056Y2548866D1*
X1650772Y2693151D1*
X1645471D1*
X1876661Y1966266D2*
X1948681Y2038286D1*
X1957551D1*
X1460791Y1058114D2*
Y1031660D1*
X1402129Y972997D1*
X1333509D1*
X1918222Y606869D2*
X1917492Y607598D1*
Y676714D1*
X1923350Y670856D1*
X2155180D1*
X2060735Y1785772D2*
X2064885Y1781622D1*
Y1730106D1*
X2045878D1*
Y1464173D1*
Y1160685D1*
X2234046Y972517D1*
Y681710D1*
X2223192Y670856D1*
X2155180D1*
X2349606Y1464173D2*
X2045878D1*
X1418655Y1320608D2*
X1417102Y1322160D1*
X1352806D1*
Y1265665D1*
X1343474Y1274997D1*
X1349045Y1269427D1*
X1418655D1*
X1419142Y1268940D1*
X1527552D1*
X1576148Y1317535D1*
Y1614770D1*
X1472715Y2415740D2*
X1447125D1*
X1421534D1*
X1286546Y2550406D2*
X1295283Y2541668D1*
X1364668D1*
X1387436Y2518900D1*
Y2425297D1*
X1396992Y2415740D1*
X1421534D1*
X1645471Y2693151D2*
X1602156Y2736466D1*
X1569581D1*
X1567052Y2738995D1*
X1503807D1*
X1498306Y2733493D1*
Y2644087D1*
X1317400Y1288196D2*
X1330598Y1274997D1*
X1343474D1*
X1420399Y1114387D2*
X1460791Y1073995D1*
Y1058114D1*
X1447125Y2415740D2*
X1450703Y2419319D1*
Y2479365D1*
X1595156Y2483165D2*
X1608462Y2496471D1*
X1751013D1*
X1795056Y2540514D1*
Y2548866D1*
X2242972Y1929058D2*
X2205764Y1966266D1*
X2105008D1*
X2278667Y1327423D2*
X2259699Y1308455D1*
Y1186836D1*
X2282362Y1164173D1*
X2349606D1*
X1598606Y1102772D2*
X1581332D1*
Y1181979D1*
X1592008Y1192655D1*
X1647001D1*
X1570951Y2572413D2*
X1549487Y2593878D1*
Y2644087D1*
X2188613Y1899787D2*
X2147724Y1940676D1*
X2105008D1*
X1573175Y1243063D2*
X1497176Y1167064D1*
X1418663D1*
X1619112Y2383882D2*
X1587245Y2415748D1*
X1575077D1*
X1456986Y2535377D2*
X1498306Y2494056D1*
Y2415740D1*
X1402614Y2721286D2*
X1269570Y2854331D1*
X1143307D1*
X1647001Y1320608D2*
X1613749Y1353860D1*
Y1732283D1*
X925197Y2598425D2*
Y2677165D1*
X1003937D1*
X1041732Y2714961D1*
Y2716535D1*
X925197Y2751969D2*
X1027559Y2854331D1*
X1043307D1*
X1110728Y2106299D2*
Y2027559D1*
X1227264Y2145669D2*
X1187894Y2106299D1*
X1110728D1*
X1141732Y2716535D2*
X1137795Y2712598D1*
Y2598425D1*
X1549487Y2415740D2*
Y2501049D1*
X1473449Y2577087D1*
X1382375D1*
X1344428Y2615034D1*
X1309010D1*
X1306480Y2612504D1*
X1250825D1*
X1236747Y2598425D1*
X1137795D1*
X1768222Y606869D2*
X1818222D1*
X698425Y2414311D2*
X832539Y2548425D1*
X925197D1*
X687157Y1021503D2*
X1022063Y686597D1*
X1475068D1*
X1818222D1*
Y606869D1*
X1475068Y623185D2*
Y686597D1*
X2018222Y606869D2*
X2068222D1*
X914382Y974062D2*
X915856Y972588D1*
X983156D1*
X907816Y716118D2*
X1122961Y500974D1*
X1357129D1*
Y502702D1*
X2014929D1*
Y532230D1*
X2018222Y528937D1*
Y606869D1*
X1357129Y562663D2*
Y502702D1*
X2068222Y819467D2*
X2018222D1*
X1160993Y1564173D2*
X1158908Y1566259D1*
X1081581D1*
Y1579171D1*
X2128690Y838198D2*
X2109959Y819467D1*
X2068222D1*
X1818222D2*
X1768222D1*
X1818222D2*
X1795298Y842391D1*
Y916231D1*
X1014612Y1995942D2*
X1032995Y1977559D1*
X1110728D1*
X787402Y2145669D2*
X708661D1*
X925197Y2498425D2*
X864567D1*
X787402Y2421260D1*
Y2145669D1*
X767717Y2342520D2*
X787402Y2421260D1*
X719115Y1946728D2*
X866142D1*
Y1948819D1*
X976339D1*
Y1916621D1*
X987277Y1927559D1*
X1110728D1*
X485039Y1864173D2*
X491678Y1857534D1*
X638039D1*
X745366Y1623404D2*
X754597Y1614173D1*
X866142D1*
X983156Y922588D2*
X887087D1*
X868269Y941406D1*
Y1501102D1*
Y1614173D1*
X866142D1*
X929682Y1501102D2*
X868269D1*
X1373592Y1614173D2*
X1377529Y1618110D1*
Y1732283D1*
X1493340Y1215720D2*
X1490815Y1218245D1*
X1418655D1*
X1373592Y1614173D2*
X1370484Y1611066D1*
X1276661D1*
X1199692Y1140698D2*
X1195755Y1136761D1*
Y1022588D1*
X1199692Y1140698D2*
X1319035D1*
X1370992Y1192655D1*
X1418655D1*
X1201266Y1258808D2*
X1216239Y1243836D1*
X1418655D1*
X1160993Y1771654D2*
X1180678Y1791339D1*
X1456269D1*
X1513749Y1733858D1*
Y1732283D1*
X1346958Y2382290D2*
X1325836Y2361168D1*
Y2264087D1*
X1421534Y2644087D2*
X1420230Y2645391D1*
X1377316D1*
X983156Y1180068D2*
X1022526Y1219438D1*
Y1258808D1*
X1101266D1*
X1712408Y2201193D2*
X1656171Y2257430D1*
X1654388D1*
X1712408Y2201193D2*
X1726904Y2186697D1*
X1773231D1*
X1783350Y2176577D1*
Y2022259D1*
X1778291Y2027318D1*
X1712514D1*
X1707455Y2022259D1*
Y1931185D1*
X1749146Y1889495D1*
X1876661D1*
X1637000Y2039961D2*
X1630571Y2033531D1*
Y1946703D1*
X1713370Y1863904D1*
X1876661D1*
X1442272Y1511682D2*
X1439781Y1514173D1*
X1373592D1*
X1713883Y1472364D2*
X1723991Y1482471D1*
Y1526508D1*
X1195755Y922588D2*
X1196745Y923579D1*
X1269469D1*
X1507878Y918748D2*
X1507181Y918051D1*
X1441454D1*
X1110728Y2181102D2*
X1130413Y2200787D1*
Y2264087D1*
X1225836D1*
X1160993Y1614173D2*
Y1696850D1*
X1164930Y1692913D1*
X1239734D1*
X1277529Y1730709D1*
Y1732283D1*
X983156Y1022588D2*
Y1105265D1*
X987093Y1101328D1*
X1061896D1*
X1099692Y1139123D1*
Y1140698D1*
X1582681Y918748D2*
X1583819Y917610D1*
Y828903D1*
X1582681Y918748D2*
X1873950Y1210017D1*
Y1585713D1*
X1767697Y1691966D1*
Y1815928D1*
X1770902Y1812723D1*
X1876661D1*
X1802829Y1445358D2*
X1798794Y1449394D1*
Y1526508D1*
X1876661Y1838314D2*
X1876280Y1838696D1*
X1727220D1*
Y1628719D1*
X1798794Y1557146D1*
Y1526508D1*
X1137795Y2498425D2*
X1216596Y2498299D1*
X1515801Y2300756D2*
X1559126Y2257430D1*
X1579585D1*
X1323327Y1927559D2*
X1324507Y1926379D1*
X1397554D1*
X1542230Y1877804D2*
X1555768Y1891343D1*
Y1946703D1*
X485039Y1764173D2*
X625808Y1623404D1*
X670563D1*
X787402Y1830709D2*
X760576Y1857534D1*
X712843D1*
X787402Y1830709D2*
X925197D1*
X984252Y1771654D1*
X1003937Y1751969D1*
X1020988D1*
X1036026Y1736930D1*
Y1553385D1*
X1075238Y1514173D1*
X1160993D1*
X485039Y1964173D2*
X502484Y1946728D1*
X644312D1*
X485039Y2064173D2*
X566535Y2145669D1*
X633858D1*
X485039Y1664173D2*
X633322Y1515891D1*
X663499D1*
X738302D2*
X742643Y1511550D1*
X802281D1*
X795975Y1505244D1*
Y1421984D1*
X2180949Y1695472D2*
X2195969Y1710492D1*
Y1783836D1*
X2167081Y1812723D1*
X2105008D1*
X2090009Y1671041D2*
X2114441Y1695472D1*
X2180949D1*
X1470824Y1382703D2*
X1454949Y1366828D1*
X938719D1*
X1933604Y1712793D2*
X1882840Y1763556D1*
Y1778654D1*
X1876661Y1784832D1*
Y1787133D1*
D24*
X1397554Y1926379D3*
X1542230Y1877804D3*
X1442272Y1511682D3*
X1269469Y923579D3*
X1216596Y2498299D3*
X1713883Y1472364D3*
X1441454Y918051D3*
X1515801Y2300756D3*
X698425Y2414311D3*
X687157Y1021503D3*
X914382Y974062D3*
X907816Y716118D3*
X1081581Y1579171D3*
X2128690Y838198D3*
X1014612Y1995942D3*
X1795298Y916231D3*
X802281Y1511550D3*
X1477883Y2051740D3*
X1576148Y1614770D3*
X1770591Y1961837D3*
X1598606Y1102772D3*
X1573175Y1243063D3*
X2151400Y1612907D3*
X2000660Y1632780D3*
X2242972Y1929058D3*
X2188613Y1899787D3*
X2278667Y1327423D3*
X1570951Y2572413D3*
X1619112Y2383882D3*
X1227214Y1898000D3*
X976445Y2081353D3*
X1917979Y537873D3*
X2158159Y522322D3*
X1549625Y2127660D3*
X2095125Y2013619D3*
X879026Y1764785D3*
X1456986Y2535377D3*
X1402614Y2721286D3*
X1799081Y1307448D3*
X1920035Y1312631D3*
X2180949Y1695472D3*
X2090009Y1671041D3*
X938719Y1366828D3*
X1470824Y1382703D3*
X1276661Y1611066D3*
X1493340Y1215720D3*
X1346958Y2382290D3*
X1377316Y2645391D3*
X1317400Y1288196D3*
X1420399Y1114387D3*
X1715701Y2556062D3*
X1868071Y2559203D3*
X1450703Y2479365D3*
X1595156Y2483165D3*
X1728833Y2366667D3*
X1594050Y592478D3*
X1308848Y2711121D3*
X434685Y3007513D2*
D14*
X2399974D1*
X434685Y2982644D2*
X2399974D1*
X434685Y2957776D2*
X2399974D1*
X434685Y2932907D2*
X2399974D1*
X434685Y2908038D2*
X980832D1*
X1172454D2*
X2399974D1*
X434685Y2883169D2*
X980832D1*
X1288079D2*
X2399974D1*
X434685Y2858301D2*
X980832D1*
X1314739D2*
X2399974D1*
X434685Y2833432D2*
X957542D1*
X1339592D2*
X2399974D1*
X434685Y2808563D2*
X932639D1*
X1184514D2*
X1266184D1*
X1364495D2*
X2399974D1*
X434685Y2783694D2*
X866672D1*
X1006047D2*
X1291087D1*
X1389348D2*
X2399974D1*
X434685Y2758825D2*
X866672D1*
X983732D2*
X996751D1*
X1204192D2*
X1315940D1*
X1432560D2*
X1474484D1*
X1628948D2*
X2399974D1*
X434685Y2733957D2*
X866672D1*
X1204192D2*
X1340794D1*
X1449846D2*
X1462866D1*
X1703996D2*
X2399974D1*
X434685Y2709088D2*
X866672D1*
X1204192D2*
X1355247D1*
X1449992D2*
X1462807D1*
X1703996D2*
X2399974D1*
X434685Y2684219D2*
X866672D1*
X1204192D2*
X1349240D1*
X1708831D2*
X2399974D1*
X434685Y2659350D2*
X866672D1*
X1062248D2*
X1079290D1*
X1204192D2*
X1330491D1*
X1733684D2*
X2399974D1*
X434685Y2634482D2*
X856858D1*
X993547D2*
X1069455D1*
X1206144D2*
X1223655D1*
X1758587D2*
X2399974D1*
X434685Y2609613D2*
X856858D1*
X993547D2*
X1069455D1*
X1783440D2*
X2399974D1*
X434685Y2584744D2*
X856858D1*
X993547D2*
X1069455D1*
X1808294D2*
X2399974D1*
X434685Y2559875D2*
X794846D1*
X993547D2*
X1069455D1*
X1618206D2*
X1734934D1*
X1833196D2*
X2399974D1*
X434685Y2535007D2*
X769992D1*
X993547D2*
X1069455D1*
X1601067D2*
X1740403D1*
X1854924D2*
X2399974D1*
X434685Y2510138D2*
X745139D1*
X993547D2*
X1069455D1*
X1857756D2*
X2399974D1*
X434685Y2485269D2*
X720236D1*
X993547D2*
X1069455D1*
X1857756D2*
X2399974D1*
X434685Y2460400D2*
X689816D1*
X993547D2*
X1069455D1*
X1638176D2*
X1786790D1*
X1857756D2*
X2399974D1*
X434685Y2435531D2*
X654563D1*
X993547D2*
X1069455D1*
X1206144D2*
X1228050D1*
X1616594D2*
X1786790D1*
X1857756D2*
X2399974D1*
X434685Y2410663D2*
X649583D1*
X825920D2*
X856858D1*
X993547D2*
X1069455D1*
X1206144D2*
X1307639D1*
X1659612D2*
X1786790D1*
X1857756D2*
X2399974D1*
X434685Y2385794D2*
X659202D1*
X822894D2*
X1298118D1*
X1668059D2*
X1786790D1*
X1857756D2*
X2399974D1*
X434685Y2360925D2*
X712327D1*
X823138D2*
X1290354D1*
X1662054D2*
X1786790D1*
X1857756D2*
X2399974D1*
X434685Y2336056D2*
X709592D1*
X825871D2*
X1290354D1*
X1553850D2*
X1786790D1*
X1857756D2*
X2399974D1*
X434685Y2311188D2*
X718772D1*
X822894D2*
X1186252D1*
X1708976D2*
X1786790D1*
X1857756D2*
X2399974D1*
X434685Y2286319D2*
X751927D1*
X822894D2*
X1103538D1*
X1708976D2*
X1786790D1*
X1857756D2*
X2399974D1*
X434685Y2261450D2*
X751927D1*
X822894D2*
X1094944D1*
X1708976D2*
X1786790D1*
X1857756D2*
X2399974D1*
X434685Y2236581D2*
X751927D1*
X822894D2*
X1094944D1*
X1508928D2*
X1525022D1*
X1770940D2*
X1786790D1*
X1857756D2*
X2399974D1*
X434685Y2211713D2*
X751927D1*
X822894D2*
X1052219D1*
X1508928D2*
X1525022D1*
X1857756D2*
X2399974D1*
X434685Y2186844D2*
X579270D1*
X845940D2*
X1052219D1*
X1506144D2*
X1653879D1*
X1857756D2*
X2399974D1*
X434685Y2161975D2*
X533714D1*
X845940D2*
X1052219D1*
X1484416D2*
X1578488D1*
X1857756D2*
X2399974D1*
X434685Y2137106D2*
X508860D1*
X845940D2*
X1052219D1*
X1389739D2*
X1578488D1*
X1857756D2*
X2399974D1*
X845940Y2112238D2*
X1052219D1*
X1389739D2*
X1578488D1*
X1857756D2*
X2287131D1*
X557366Y2087369D2*
X728879D1*
X845940D2*
X1052219D1*
X1243743D2*
X1264816D1*
X1389739D2*
X1445530D1*
X1510247D2*
X1578488D1*
X1857756D2*
X1902951D1*
X2086955D2*
X2287131D1*
X547454Y2062500D2*
X728879D1*
X924651D2*
X1042356D1*
X1179094D2*
X1254954D1*
X1391692D2*
X1430148D1*
X1525627D2*
X1578488D1*
X1857756D2*
X1902951D1*
X2086955D2*
X2287131D1*
X541302Y2037631D2*
X728879D1*
X924651D2*
X991526D1*
X1179094D2*
X1254954D1*
X1391692D2*
X1431076D1*
X1524699D2*
X1578488D1*
X1857756D2*
X1898899D1*
X2086955D2*
X2287131D1*
X522648Y2012762D2*
X807639D1*
X924651D2*
X968772D1*
X1179094D2*
X1254954D1*
X1391692D2*
X1414671D1*
X1531731D2*
X1578488D1*
X2086955D2*
X2287131D1*
X542619Y1987894D2*
X589719D1*
X773675D2*
X807639D1*
X924651D2*
X966331D1*
X1179094D2*
X1254954D1*
X2233294D2*
X2292063D1*
X1179094Y1963025D2*
X1254954D1*
X1981828D2*
X2040598D1*
X1179094Y1938156D2*
X1254954D1*
X2006682D2*
X2040598D1*
X773675Y1913287D2*
X807639D1*
X1179094D2*
X1254954D1*
X2019280D2*
X2040598D1*
X2289202D2*
X2312718D1*
X774651Y1888419D2*
X925412D1*
X1027239D2*
X1042356D1*
X1179094D2*
X1254954D1*
X1591106D2*
X1639719D1*
X2019280D2*
X2040598D1*
X2268059D2*
X2292259D1*
X930656Y1863550D2*
X955882D1*
X996770D2*
X1042356D1*
X1179094D2*
X1254954D1*
X1391692D2*
X1414671D1*
X1589007D2*
X1664572D1*
X2019280D2*
X2040598D1*
X2220256D2*
X2287131D1*
X966350Y1838681D2*
X1514622D1*
X1569866D2*
X1689622D1*
X2019280D2*
X2040598D1*
X2189934D2*
X2292844D1*
X521184Y1813812D2*
X583470D1*
X1023626D2*
X1102463D1*
X1482951D2*
X1691722D1*
X2215130D2*
X2313499D1*
X542131Y1788944D2*
X728879D1*
X845940D2*
X917844D1*
X1040031D2*
X1102463D1*
X1535832D2*
X1551285D1*
X1676214D2*
X1691735D1*
X1941106D2*
X1955882D1*
X2231047D2*
X2292503D1*
X547503Y1764075D2*
X728879D1*
X845940D2*
X926243D1*
X1058000D2*
X1102463D1*
X1676214D2*
X1691735D1*
X2231438D2*
X2287131D1*
X559123Y1739206D2*
X728879D1*
X1071428D2*
X1102463D1*
X1676214D2*
X1691735D1*
X1803167D2*
X1858079D1*
X1992131D2*
X2011692D1*
X2231438D2*
X2292600D1*
X584026Y1714337D2*
X728879D1*
X924651D2*
X1000559D1*
X1071476D2*
X1102463D1*
X1676214D2*
X1691735D1*
X1803167D2*
X1875071D1*
X1992131D2*
X2010423D1*
X2231438D2*
X2313791D1*
X608879Y1689469D2*
X807639D1*
X924651D2*
X1000559D1*
X1071476D2*
X1102463D1*
X1676214D2*
X1691735D1*
X1819328D2*
X1875071D1*
X1992131D2*
X2010423D1*
X2229534D2*
X2292747D1*
X924651Y1664600D2*
X1000559D1*
X1071476D2*
X1102463D1*
X1259123D2*
X1342063D1*
X1649211D2*
X1691722D1*
X1844182D2*
X1875071D1*
X1992131D2*
X2010423D1*
X2218206D2*
X2287131D1*
X924651Y1639731D2*
X1000559D1*
X1071476D2*
X1092648D1*
X1649211D2*
X1691722D1*
X1992131D2*
X2010423D1*
X2126896D2*
X2292356D1*
X924651Y1614862D2*
X1000559D1*
X1649211D2*
X1694798D1*
X1992131D2*
X2010423D1*
X2081340D2*
X2313010D1*
X924651Y1589993D2*
X1000559D1*
X1649211D2*
X1716819D1*
X1992131D2*
X2010423D1*
X2081340D2*
X2292991D1*
X924651Y1565125D2*
X1000559D1*
X1229339D2*
X1267014D1*
X1286320D2*
X1305247D1*
X1649211D2*
X1669407D1*
X1909416D2*
X2010423D1*
X2081340D2*
X2287180D1*
X542522Y1540256D2*
X559836D1*
X972259D2*
X1003294D1*
X1229339D2*
X1305247D1*
X1649211D2*
X1669407D1*
X1909416D2*
X2010423D1*
X2081340D2*
X2292112D1*
X522404Y1515387D2*
X584690D1*
X986370D2*
X1024875D1*
X1229339D2*
X1305247D1*
X1649211D2*
X1669407D1*
X1909416D2*
X2010423D1*
X2081340D2*
X2312278D1*
X541399Y1490518D2*
X608908D1*
X987199D2*
X1049778D1*
X1229339D2*
X1305247D1*
X1649211D2*
X1668576D1*
X1909416D2*
X2010423D1*
X547454Y1465650D2*
X608908D1*
X975579D2*
X1092648D1*
X1229339D2*
X1305247D1*
X1649211D2*
X1665345D1*
X1909416D2*
X2010423D1*
X542766Y1440781D2*
X737474D1*
X903752D2*
X1092648D1*
X1229339D2*
X1305247D1*
X1441936D2*
X1455979D1*
X1649211D2*
X1677268D1*
X1909416D2*
X2010423D1*
X523138Y1415912D2*
X737474D1*
X903752D2*
X1435764D1*
X1505852D2*
X1540696D1*
X1649211D2*
X1744310D1*
X1909416D2*
X2010423D1*
X2081340D2*
X2311546D1*
X541155Y1391043D2*
X737474D1*
X1519084D2*
X1540696D1*
X1649211D2*
X1744310D1*
X1909416D2*
X2010423D1*
X2081340D2*
X2293528D1*
X547454Y1366175D2*
X737474D1*
X1516790D2*
X1540696D1*
X1650579D2*
X1744310D1*
X1909416D2*
X2010423D1*
X2081340D2*
X2250462D1*
X542962Y1341306D2*
X737474D1*
X1494475D2*
X1540696D1*
X1711419D2*
X1744310D1*
X1909416D2*
X2010423D1*
X2081340D2*
X2231810D1*
X523820Y1316437D2*
X737474D1*
X1483098D2*
X1525900D1*
X1711419D2*
X1838499D1*
X1909416D2*
X2010423D1*
X2081340D2*
X2225218D1*
X540862Y1291568D2*
X832786D1*
X1711419D2*
X1838499D1*
X1909416D2*
X2010423D1*
X2081340D2*
X2224240D1*
X547454Y1266699D2*
X832786D1*
X1711419D2*
X1838499D1*
X1909416D2*
X2010423D1*
X2081340D2*
X2224240D1*
X543156Y1241831D2*
X832786D1*
X1711419D2*
X1838499D1*
X1909416D2*
X2010423D1*
X2081340D2*
X2224240D1*
X547503Y1216962D2*
X832786D1*
X1711419D2*
X1831760D1*
X1909416D2*
X2010423D1*
X2081340D2*
X2224240D1*
X547503Y1192093D2*
X832786D1*
X1711419D2*
X1806907D1*
X1904143D2*
X2010423D1*
X2081340D2*
X2224240D1*
X547503Y1167224D2*
X832786D1*
X1711419D2*
X1782004D1*
X1880315D2*
X2010423D1*
X2088470D2*
X2230686D1*
X547503Y1142356D2*
X832786D1*
X1711419D2*
X1757151D1*
X1855412D2*
X2015988D1*
X2113323D2*
X2255051D1*
X547503Y1117487D2*
X832786D1*
X1645207D2*
X1732298D1*
X1830559D2*
X2039963D1*
X2138226D2*
X2309495D1*
X434685Y1092618D2*
X832786D1*
X1646476D2*
X1707395D1*
X1805706D2*
X2064816D1*
X2163079D2*
X2371702D1*
X434685Y1067749D2*
X832786D1*
X1041692D2*
X1160276D1*
X1631682D2*
X1682542D1*
X1780803D2*
X2089671D1*
X2187932D2*
X2371702D1*
X434685Y1042881D2*
X643382D1*
X730950D2*
X832786D1*
X1051507D2*
X1127415D1*
X1590178D2*
X1657688D1*
X1755950D2*
X2114572D1*
X2212835D2*
X2371702D1*
X434685Y1018012D2*
X638303D1*
X739787D2*
X832786D1*
X1051507D2*
X1127415D1*
X1590178D2*
X1632835D1*
X1731096D2*
X2139427D1*
X2237688D2*
X2346896D1*
X434685Y993143D2*
X647824D1*
X764642D2*
X832786D1*
X1051507D2*
X1127415D1*
X1471428D2*
X1607932D1*
X1706194D2*
X2164280D1*
X2262298D2*
X2311546D1*
X434685Y968274D2*
X691232D1*
X789543D2*
X832786D1*
X1051507D2*
X1127415D1*
X1681340D2*
X2189134D1*
X2269524D2*
X2286692D1*
X434685Y943406D2*
X716135D1*
X814396D2*
X832786D1*
X1051507D2*
X1127415D1*
X1740959D2*
X1755051D1*
X1835539D2*
X2198558D1*
X2360100D2*
X2399974D1*
X434685Y918537D2*
X740988D1*
X1051507D2*
X1127415D1*
X1844231D2*
X1866087D1*
X1994182D2*
X2198558D1*
X2338127D2*
X2399974D1*
X434685Y893668D2*
X765843D1*
X1051507D2*
X1127415D1*
X2003703D2*
X2198558D1*
X2338127D2*
X2399974D1*
X434685Y868799D2*
X790744D1*
X889007D2*
X914816D1*
X1051507D2*
X1127415D1*
X1392034D2*
X1453294D1*
X2166203D2*
X2198558D1*
X2338127D2*
X2399974D1*
X434685Y843930D2*
X815598D1*
X1051507D2*
X1127415D1*
X1264104D2*
X1525315D1*
X1642327D2*
X1727415D1*
X2177336D2*
X2198558D1*
X2338127D2*
X2399974D1*
X434685Y819062D2*
X840451D1*
X938714D2*
X1525315D1*
X1642327D2*
X1727415D1*
X2173576D2*
X2198558D1*
X2338127D2*
X2399974D1*
X434685Y794193D2*
X865354D1*
X963615D2*
X1525315D1*
X1642327D2*
X1727415D1*
X2338127D2*
X2399974D1*
X434685Y769324D2*
X890207D1*
X988470D2*
X1525315D1*
X1642327D2*
X1727415D1*
X2338127D2*
X2399974D1*
X434685Y744455D2*
X868479D1*
X1013323D2*
X1525315D1*
X1642327D2*
X1832736D1*
X1903703D2*
X2096652D1*
X2338127D2*
X2399974D1*
X434685Y719587D2*
X858958D1*
X1038226D2*
X1525315D1*
X1642327D2*
X1832736D1*
X1903703D2*
X2096652D1*
X2338127D2*
X2399974D1*
X434685Y694718D2*
X864035D1*
X2338127D2*
X2399974D1*
X434685Y669849D2*
X900755D1*
X2338127D2*
X2399974D1*
X434685Y644980D2*
X929807D1*
X1028068D2*
X1420970D1*
X1529192D2*
X1727415D1*
X2246135D2*
X2267160D1*
X2338127D2*
X2399974D1*
X434685Y620112D2*
X954710D1*
X1052971D2*
X1416623D1*
X1533488D2*
X1727415D1*
X2213714D2*
X2267160D1*
X2338127D2*
X2399974D1*
X434685Y595243D2*
X979563D1*
X1077824D2*
X1309055D1*
X1405218D2*
X1423996D1*
X1526115D2*
X1727415D1*
X2109026D2*
X2267160D1*
X2338127D2*
X2399974D1*
X434685Y570374D2*
X1004416D1*
X1102678D2*
X1299143D1*
X1415130D2*
X1453879D1*
X1496232D2*
X1727415D1*
X2109026D2*
X2252610D1*
X2338079D2*
X2399974D1*
X434685Y545505D2*
X1029319D1*
X1127580D2*
X1301291D1*
X1412932D2*
X1727415D1*
X2325970D2*
X2399974D1*
X434685Y520636D2*
X1054172D1*
X2052630D2*
X2109202D1*
X2301115D2*
X2399974D1*
X434685Y495768D2*
X1079026D1*
X2049651D2*
X2117503D1*
X2275726D2*
X2399974D1*
X434685Y470899D2*
X1106955D1*
X2026164D2*
X2399974D1*
X434685Y446030D2*
X2399974D1*
X1039218Y1060891D2*
X1049018D1*
Y834285D1*
X921001D1*
X1035760Y719552D1*
X1527753Y719585D1*
X1527799Y862709D1*
X1455795Y862728D1*
Y873812D1*
X1448727Y872131D1*
X1441454Y871559D1*
X1434181Y872131D1*
X1427087Y873835D1*
X1420346Y876626D1*
X1414127Y880438D1*
X1408579Y885176D1*
X1403841Y890724D1*
X1400029Y896944D1*
X1397238Y903684D1*
X1395534Y910778D1*
X1394962Y918051D1*
X1395534Y925324D1*
X1397238Y932419D1*
X1400510Y940017D1*
X1389482Y940009D1*
X1389529Y846112D1*
X1277490D1*
Y877781D1*
X1269469Y877087D1*
X1261622Y877773D1*
X1261617Y834285D1*
X1129892D1*
Y1060891D1*
X1162753D1*
X1162766Y1080743D1*
X1139735Y1080741D1*
Y1096122D1*
X1134933Y1092192D1*
X1126911Y1087277D1*
X1118219Y1083676D1*
X1109071Y1081479D1*
X1099692Y1080741D1*
X1090312Y1081479D1*
X1088959Y1081749D1*
X1081286Y1074640D1*
X1074521Y1070850D1*
X1067056Y1068745D1*
X1061896Y1068340D1*
X1039192D1*
X917320Y884285D2*
X917294Y889608D1*
X884499Y889701D1*
X876892Y891214D1*
X869850Y894461D1*
X863760Y899261D1*
X863534Y899507D1*
X843185Y919982D1*
X838877Y926429D1*
X836192Y933705D1*
X835281Y941406D1*
X835294Y941739D1*
X835281Y1295068D1*
X739955Y1295098D1*
Y1459891D1*
X611416Y1459871D1*
Y1491268D1*
X544636Y1557924D1*
X543340Y1550177D1*
X540432Y1541228D1*
X536161Y1532846D1*
X530631Y1525235D1*
X523978Y1518581D1*
X518094Y1514206D1*
X523978Y1509765D1*
X530631Y1503112D1*
X536161Y1495500D1*
X540432Y1487118D1*
X543340Y1478169D1*
X544811Y1468878D1*
Y1459469D1*
X543340Y1450177D1*
X540432Y1441228D1*
X536161Y1432846D1*
X530631Y1425235D1*
X523978Y1418581D1*
X518094Y1414206D1*
X523978Y1409765D1*
X530631Y1403112D1*
X536161Y1395500D1*
X540432Y1387118D1*
X543340Y1378169D1*
X544811Y1368878D1*
Y1359469D1*
X543340Y1350177D1*
X540432Y1341228D1*
X536161Y1332846D1*
X530631Y1325235D1*
X523978Y1318581D1*
X518094Y1314206D1*
X523978Y1309765D1*
X530631Y1303112D1*
X536161Y1295500D1*
X540432Y1287118D1*
X543340Y1278169D1*
X544811Y1268878D1*
Y1259469D1*
X543340Y1250177D1*
X540432Y1241228D1*
X536161Y1232846D1*
X530631Y1225235D1*
X529619Y1224140D1*
X544996Y1224130D1*
Y1104217D1*
X432177D1*
X432185Y432185D1*
X2402461D1*
Y977840D1*
X2378420Y953906D1*
X2371972Y949597D1*
X2364697Y946912D1*
X2361765Y946361D1*
X2352192Y937986D1*
X2335584Y921378D1*
X2335524Y568702D1*
X2334010Y561096D1*
X2330764Y554054D1*
X2325963Y547963D1*
X2325718Y547738D1*
X2275092Y497238D1*
X2268644Y492929D1*
X2261369Y490244D1*
X2253668Y489333D1*
X2253335Y489346D1*
X2190924Y489333D1*
X2185486Y484709D1*
X2179266Y480896D1*
X2172526Y478105D1*
X2165432Y476402D1*
X2158159Y475829D1*
X2150886Y476402D1*
X2143791Y478105D1*
X2137051Y480896D1*
X2130832Y484709D1*
X2125283Y489446D1*
X2120546Y494995D1*
X2116734Y501214D1*
X2113942Y507954D1*
X2112239Y515049D1*
X2111667Y522322D1*
X2112239Y529594D1*
X2113942Y536689D1*
X2116734Y543429D1*
X2120546Y549648D1*
X2125283Y555197D1*
X2130832Y559934D1*
X2137051Y563747D1*
X2143791Y566538D1*
X2150886Y568241D1*
X2158159Y568814D1*
X2165432Y568241D1*
X2172526Y566538D1*
X2179266Y563747D1*
X2185486Y559934D1*
X2190919Y555303D1*
X2240043Y555310D1*
X2269668Y584974D1*
X2269749Y937671D1*
X2271262Y945277D1*
X2274509Y952319D1*
X2279310Y958409D1*
X2279555Y958635D1*
X2325119Y1004073D1*
X2331567Y1008382D1*
X2338843Y1011067D1*
X2341774Y1011618D1*
X2351348Y1019993D1*
X2374169Y1042815D1*
X2374186Y1109491D1*
X2368134Y1107151D1*
X2358986Y1104954D1*
X2349606Y1104217D1*
X2340227Y1104954D1*
X2331079Y1107151D1*
X2322387Y1110752D1*
X2314365Y1115667D1*
X2307210Y1121777D1*
X2301100Y1128932D1*
X2299577Y1131210D1*
X2279774Y1131286D1*
X2272168Y1132799D1*
X2265126Y1136046D1*
X2259035Y1140846D1*
X2258810Y1141092D1*
X2234615Y1165412D1*
X2230307Y1171860D1*
X2227622Y1179135D1*
X2226711Y1186836D1*
X2226724Y1187169D1*
X2226812Y1311043D1*
X2228325Y1318650D1*
X2231572Y1325692D1*
X2231791Y1326020D1*
X2231572Y1325692D1*
X2232175Y1327423D1*
X2232747Y1334696D1*
X2234450Y1341790D1*
X2237241Y1348530D1*
X2241054Y1354749D1*
X2245791Y1360298D1*
X2251340Y1365035D1*
X2257559Y1368848D1*
X2264299Y1371639D1*
X2271394Y1373343D1*
X2278667Y1373915D1*
X2285940Y1373343D1*
X2290220Y1372433D1*
X2292584Y1382701D1*
X2296185Y1391392D1*
X2301100Y1399415D1*
X2307210Y1406570D1*
X2314365Y1412680D1*
X2316551Y1414140D1*
X2310668Y1418581D1*
X2304014Y1425235D1*
X2299577Y1431210D1*
X2078854Y1431185D1*
X2078866Y1174378D1*
X2259130Y993941D1*
X2263438Y987493D1*
X2266123Y980218D1*
X2267034Y972517D1*
X2267021Y972184D1*
X2266933Y679122D1*
X2265420Y671516D1*
X2262173Y664474D1*
X2257373Y658383D1*
X2257127Y658157D1*
X2244615Y645772D1*
X2238168Y641463D1*
X2230892Y638778D1*
X2223192Y637867D1*
X2222858Y637881D1*
X2211228Y637867D1*
X2211199Y618773D1*
X2106543D1*
X2106525Y541007D1*
X2051202D1*
X2051109Y526349D1*
X2049596Y518743D1*
X2048534Y515954D1*
X2047816Y500114D1*
X2046303Y492508D1*
X2043056Y485466D1*
X2038256Y479375D1*
X2032165Y474575D1*
X2025123Y471328D1*
X2017517Y469815D1*
X1902429Y469714D1*
X1367323Y469600D1*
X1359717Y468087D1*
X1169629Y467986D1*
X1120373Y468087D1*
X1112766Y469600D1*
X1105724Y472846D1*
X1099634Y477647D1*
X1099408Y477892D1*
X907631Y669651D1*
X900543Y670198D1*
X893449Y671902D1*
X886709Y674693D1*
X880490Y678505D1*
X874941Y683243D1*
X870203Y688791D1*
X866391Y695010D1*
X863600Y701751D1*
X861896Y708845D1*
X861324Y716118D1*
X861896Y723391D1*
X863600Y730486D1*
X866391Y737226D1*
X870203Y743445D1*
X874941Y748993D1*
X880490Y753731D1*
X886709Y757543D1*
X893449Y760335D1*
X900081Y761946D1*
X686995Y975012D1*
X679885Y975583D1*
X672790Y977286D1*
X666050Y980077D1*
X659831Y983890D1*
X654282Y988627D1*
X649545Y994176D1*
X645732Y1000395D1*
X642941Y1007135D1*
X641238Y1014230D1*
X640665Y1021503D1*
X641238Y1028776D1*
X642941Y1035870D1*
X645732Y1042610D1*
X649545Y1048829D1*
X654282Y1054378D1*
X659831Y1059115D1*
X666050Y1062928D1*
X672790Y1065719D1*
X679885Y1067423D1*
X687157Y1067995D1*
X694430Y1067423D1*
X701525Y1065719D1*
X708265Y1062928D1*
X714484Y1059115D1*
X720033Y1054378D1*
X724770Y1048829D1*
X728583Y1042610D1*
X731374Y1035870D1*
X733077Y1028776D1*
X733643Y1021659D1*
X917294Y838005D1*
Y889285D1*
X1217055Y1652476D2*
X1226856D1*
Y1425870D1*
X1095131D1*
Y1481192D1*
X1072650Y1481286D1*
X1065043Y1482799D1*
X1058001Y1486046D1*
X1051911Y1490846D1*
X1051685Y1491092D1*
X1010942Y1531961D1*
X1006634Y1538408D1*
X1003950Y1545684D1*
X1003038Y1553385D1*
X1003051Y1553718D1*
X1003038Y1718864D1*
X993016Y1716324D1*
X984252Y1715634D1*
X975488Y1716324D1*
X966941Y1718375D1*
X958820Y1721740D1*
X951324Y1726332D1*
X944640Y1732042D1*
X938930Y1738726D1*
X934339Y1746222D1*
X930974Y1754343D1*
X928923Y1762890D1*
X928232Y1771654D1*
X928916Y1780366D1*
X911518Y1797735D1*
X843409Y1797720D1*
X843421Y1741064D1*
X922161Y1741059D1*
Y1562091D1*
X901214D1*
X901257Y1549378D1*
X908244Y1552858D1*
X916605Y1555575D1*
X925287Y1556949D1*
X934077D1*
X942760Y1555575D1*
X951121Y1552858D1*
X958953Y1548867D1*
X966064Y1543699D1*
X972280Y1537484D1*
X977448Y1530373D1*
X981438Y1522541D1*
X984155Y1514180D1*
X985529Y1505497D1*
Y1496707D1*
X984155Y1488025D1*
X981438Y1479664D1*
X977448Y1471832D1*
X972280Y1464720D1*
X966064Y1458505D1*
X958953Y1453337D1*
X951121Y1449346D1*
X942760Y1446630D1*
X934077Y1445256D1*
X925287D1*
X916605Y1446630D1*
X908244Y1449346D1*
X901236Y1452875D1*
X901257Y1394315D1*
X905844Y1399703D1*
X911392Y1404441D1*
X917612Y1408253D1*
X924352Y1411045D1*
X931446Y1412748D1*
X938719Y1413320D1*
X945992Y1412748D1*
X953087Y1411045D1*
X959827Y1408253D1*
X966046Y1404441D1*
X971479Y1399810D1*
X1427635Y1399816D1*
X1431184Y1406996D1*
X1435471Y1412898D1*
X1440630Y1418056D1*
X1446531Y1422344D1*
X1453033Y1425656D1*
X1459971Y1427911D1*
X1467176Y1429052D1*
X1474472D1*
X1481677Y1427911D1*
X1488615Y1425656D1*
X1495117Y1422344D1*
X1501018Y1418056D1*
X1506177Y1412898D1*
X1510465Y1406996D1*
X1513777Y1400495D1*
X1516031Y1393556D1*
X1517173Y1386352D1*
Y1379055D1*
X1516031Y1371850D1*
X1513777Y1364912D1*
X1510465Y1358411D1*
X1506177Y1352509D1*
X1501018Y1347350D1*
X1495117Y1343063D1*
X1488615Y1339751D1*
X1480572Y1337276D1*
X1480580Y1301898D1*
X1513917Y1301928D1*
X1543207Y1331247D1*
X1543008Y1439268D1*
X1458469D1*
Y1468105D1*
X1449545Y1465762D1*
X1442272Y1465190D1*
X1439465Y1465301D1*
X1439454Y1425870D1*
X1307730D1*
Y1576504D1*
X1300954Y1571425D1*
X1294453Y1568113D1*
X1287514Y1565858D1*
X1280310Y1564717D1*
X1273013D1*
X1265808Y1565858D1*
X1258870Y1568113D1*
X1252369Y1571425D1*
X1246467Y1575713D1*
X1241308Y1580871D1*
X1237021Y1586773D1*
X1233709Y1593274D1*
X1231454Y1600213D1*
X1230312Y1607417D1*
Y1614714D1*
X1231454Y1621919D1*
X1233709Y1628857D1*
X1237021Y1635358D1*
X1241308Y1641260D1*
X1246467Y1646419D1*
X1252369Y1650706D1*
X1258870Y1654018D1*
X1265808Y1656273D1*
X1273013Y1657415D1*
X1280310D1*
X1287514Y1656273D1*
X1294453Y1654018D1*
X1300954Y1650706D1*
X1307724Y1645615D1*
X1307730Y1652476D1*
X1344596D1*
X1344541Y1672358D1*
X1317572Y1672327D1*
Y1687707D1*
X1312770Y1683777D1*
X1304748Y1678862D1*
X1296056Y1675261D1*
X1286908Y1673064D1*
X1277529Y1672327D1*
X1268150Y1673064D1*
X1266797Y1673335D1*
X1259123Y1666226D1*
X1252358Y1662436D1*
X1244894Y1660331D1*
X1239734Y1659925D1*
X1217029D1*
X1095131Y1623673D2*
Y1652476D1*
X1104946D1*
X1104974Y1823736D1*
X1175518Y1823921D1*
X1180678Y1824327D1*
X1458857Y1824226D1*
X1466463Y1822713D1*
X1473505Y1819466D1*
X1479596Y1814665D1*
X1479822Y1814420D1*
X1502970Y1791290D1*
X1513749Y1792240D1*
X1523129Y1791503D1*
X1532277Y1789306D1*
X1540969Y1785705D1*
X1548991Y1780790D1*
X1553782Y1776864D1*
X1553793Y1792240D1*
X1673706D1*
Y1672327D1*
X1646705D1*
X1646738Y1367488D1*
X1659276Y1354986D1*
X1708927Y1354974D1*
Y1132698D1*
X1634190D1*
X1638247Y1127064D1*
X1641559Y1120563D1*
X1643814Y1113625D1*
X1644955Y1106420D1*
Y1099123D1*
X1643814Y1091919D1*
X1641559Y1084980D1*
X1638247Y1078479D1*
X1633959Y1072577D1*
X1628801Y1067419D1*
X1622899Y1063131D1*
X1616398Y1059819D1*
X1609459Y1057564D1*
X1602255Y1056423D1*
X1594958D1*
X1587684Y1057584D1*
X1587677Y1002094D1*
X1477865D1*
X1440303Y964520D1*
X1448727Y963971D1*
X1455807Y962272D1*
X1455795Y974768D1*
X1592073D1*
X1840990Y1223709D1*
X1840962Y1318465D1*
X1746810Y1318472D1*
X1746759Y1439488D1*
X1741210Y1434751D1*
X1734991Y1430938D1*
X1728251Y1428147D1*
X1721156Y1426444D1*
X1713883Y1425871D1*
X1706610Y1426444D1*
X1699516Y1428147D1*
X1692776Y1430938D1*
X1686556Y1434751D1*
X1681008Y1439488D1*
X1676270Y1445037D1*
X1672458Y1451256D1*
X1669667Y1457996D1*
X1667963Y1465091D1*
X1667391Y1472364D1*
X1667963Y1479636D1*
X1669667Y1486731D1*
X1671903Y1492266D1*
X1671908Y1582528D1*
X1726743D1*
X1702136Y1607295D1*
X1697828Y1613743D1*
X1695144Y1621018D1*
X1694232Y1628719D1*
X1694245Y1629052D1*
X1693980Y1837217D1*
X1690043Y1840577D1*
X1639946Y1890676D1*
X1588757Y1890684D1*
X1588150Y1885077D1*
X1588722Y1877804D1*
X1588150Y1870531D1*
X1586446Y1863437D1*
X1583655Y1856697D1*
X1579843Y1850478D1*
X1575105Y1844929D1*
X1569556Y1840192D1*
X1563337Y1836379D1*
X1556597Y1833588D1*
X1549503Y1831885D1*
X1542230Y1831312D1*
X1534957Y1831885D1*
X1527862Y1833588D1*
X1521122Y1836379D1*
X1514903Y1840192D1*
X1508144Y1846239D1*
X1417182Y1846235D1*
Y1884232D1*
X1408407Y1881172D1*
X1401202Y1880030D1*
X1393906D1*
X1389176Y1880680D1*
X1389189Y1839256D1*
X1257465D1*
Y2065862D1*
X1290325D1*
X1290339Y2085714D1*
X1267307Y2085713D1*
Y2101093D1*
X1262505Y2097163D1*
X1254483Y2092248D1*
X1245791Y2088647D1*
X1236643Y2086450D1*
X1227264Y2085713D1*
X1217885Y2086450D1*
X1215197Y2086986D1*
X1207283Y2079612D1*
X1200518Y2075822D1*
X1193054Y2073717D1*
X1187894Y2073311D1*
X1166751D1*
X1166748Y2065852D1*
X1176591Y2065862D1*
Y1839256D1*
X1044866D1*
Y1894577D1*
X1027867Y1894571D1*
X1024104Y1887350D1*
X1018936Y1880239D1*
X1012720Y1874024D1*
X1005609Y1868856D1*
X997777Y1864865D1*
X989416Y1862148D1*
X980734Y1860774D1*
X971944D1*
X963261Y1862148D1*
X954900Y1864865D1*
X947068Y1868856D1*
X939957Y1874024D1*
X933741Y1880239D1*
X928573Y1887350D1*
X924583Y1895182D1*
X922160Y1902501D1*
X922161Y1896736D1*
X810122D1*
Y1913777D1*
X771171Y1913740D1*
X771198Y1890709D1*
X764899D1*
X768277Y1889612D1*
X775552Y1886927D1*
X780276Y1883978D1*
X793882Y1882791D1*
X843421D1*
Y1863699D1*
X927785Y1863596D1*
X935391Y1862083D1*
X942433Y1858836D1*
X948524Y1854035D1*
X948749Y1853790D1*
X975558Y1827000D1*
X984252Y1827673D1*
X993016Y1826983D1*
X1001563Y1824932D1*
X1009684Y1821567D1*
X1017180Y1816975D1*
X1023864Y1811265D1*
X1029573Y1804581D1*
X1034165Y1797085D1*
X1037530Y1788965D1*
X1039738Y1779104D1*
X1044315Y1775295D1*
X1061110Y1758354D1*
X1065419Y1751907D1*
X1068102Y1744631D1*
X1069014Y1736930D1*
X1069001Y1736597D1*
X1069014Y1623894D1*
X1074308Y1625091D1*
X1081581Y1625663D1*
X1088854Y1625091D1*
X1095139Y1623615D1*
X1044866Y2031199D2*
Y2065862D1*
X1054681D1*
X1054709Y2233185D1*
X1097433D1*
X1097526Y2266675D1*
X1099039Y2274281D1*
X1102286Y2281323D1*
X1107087Y2287413D1*
X1113177Y2292214D1*
X1120219Y2295461D1*
X1127825Y2296974D1*
X1175774Y2297075D1*
X1180244Y2303025D1*
X1186898Y2309678D1*
X1194509Y2315209D1*
X1202891Y2319479D1*
X1211840Y2322387D1*
X1221131Y2323858D1*
X1230541D1*
X1239832Y2322387D1*
X1248781Y2319479D1*
X1257163Y2315209D1*
X1264774Y2309678D1*
X1265869Y2308667D1*
X1265879Y2324043D1*
X1292882D1*
X1292949Y2363756D1*
X1294462Y2371362D1*
X1297709Y2378404D1*
X1300466Y2382290D1*
X1301038Y2389563D1*
X1302741Y2396657D1*
X1305533Y2403398D1*
X1309345Y2409617D1*
X1314083Y2415165D1*
X1319631Y2419903D1*
X1325516Y2423526D1*
X1230526Y2423520D1*
Y2453940D1*
X1223869Y2452379D1*
X1216596Y2451807D1*
X1209323Y2452379D1*
X1203671Y2453676D1*
X1203657Y2410122D1*
X1071933D1*
Y2636728D1*
X1104794D1*
X1104807Y2656580D1*
X1081776Y2656579D1*
Y2671959D1*
X1076974Y2668029D1*
X1068951Y2663114D1*
X1060260Y2659513D1*
X1051112Y2657316D1*
X1041732Y2656579D1*
X1032353Y2657316D1*
X1031000Y2657587D1*
X1023327Y2650478D1*
X1016562Y2646688D1*
X1009097Y2644583D1*
X1003937Y2644177D1*
X981232D1*
X981217Y2636719D1*
X991059Y2636728D1*
Y2410122D1*
X859335D1*
Y2446558D1*
X820394Y2407600D1*
X820390Y2361543D1*
X822189Y2355597D1*
X823563Y2346915D1*
Y2338125D1*
X822189Y2329442D1*
X820382Y2323549D1*
X820390Y2197773D1*
X843421Y2197752D1*
Y2075713D1*
X922161Y2075705D1*
Y1981789D1*
X970324Y1981807D1*
X968692Y1988669D1*
X968119Y1995942D1*
X968692Y2003215D1*
X970395Y2010310D1*
X973186Y2017050D1*
X976999Y2023269D1*
X981736Y2028818D1*
X987285Y2033555D1*
X993504Y2037367D1*
X1000244Y2040159D1*
X1007339Y2041862D1*
X1014612Y2042434D1*
X1021885Y2041862D1*
X1028979Y2040159D1*
X1035719Y2037367D1*
X1041938Y2033555D1*
X1044858Y2031247D1*
X1389163Y2015862D2*
X1389189Y2010539D1*
Y2015862D1*
Y2010539D1*
X1417223Y2010547D1*
X1417182Y2025203D1*
X1439692D1*
X1436458Y2030633D1*
X1433667Y2037373D1*
X1431963Y2044467D1*
X1431391Y2051740D1*
X1431963Y2059013D1*
X1433667Y2066108D1*
X1436458Y2072848D1*
X1440270Y2079067D1*
X1445008Y2084615D1*
X1450556Y2089353D1*
X1456776Y2093165D1*
X1463516Y2095957D1*
X1470610Y2097660D1*
X1477883Y2098232D1*
X1485156Y2097660D1*
X1492251Y2095957D1*
X1498991Y2093165D1*
X1505210Y2089353D1*
X1510759Y2084615D1*
X1515496Y2079067D1*
X1519308Y2072848D1*
X1522100Y2066108D1*
X1523803Y2059013D1*
X1524375Y2051740D1*
X1523803Y2044467D1*
X1522100Y2037373D1*
X1519308Y2030633D1*
X1516028Y2025207D1*
X1529222Y2025203D1*
Y2002694D1*
X1580979Y2002723D1*
X1580980Y2166846D1*
X1656381D1*
X1656388Y2201404D1*
X1527503Y2201411D1*
Y2242378D1*
X1515671Y2254234D1*
X1506416Y2255256D1*
X1506336Y2197554D1*
X1504823Y2189948D1*
X1501576Y2182906D1*
X1496776Y2176815D1*
X1496530Y2176589D1*
X1467045Y2147230D1*
X1460597Y2142921D1*
X1453322Y2140238D1*
X1445621Y2139325D1*
X1445287Y2139339D1*
X1387173Y2139325D1*
X1387220Y2085713D1*
X1356312D1*
X1356315Y2065902D1*
X1389189Y2065862D1*
Y2015862D1*
X859335Y2581362D2*
Y2636728D1*
X869150D1*
X869177Y2804051D1*
X930652D1*
X983350Y2856874D1*
Y2914287D1*
X1103264D1*
Y2898907D1*
X1108066Y2902837D1*
X1116088Y2907752D1*
X1124780Y2911353D1*
X1133928Y2913550D1*
X1143307Y2914287D1*
X1152686Y2913550D1*
X1161835Y2911353D1*
X1170526Y2907752D1*
X1178549Y2902837D1*
X1185703Y2896727D1*
X1191814Y2889572D1*
X1193336Y2887294D1*
X1272157Y2887218D1*
X1279764Y2885705D1*
X1286806Y2882458D1*
X1292896Y2877657D1*
X1293122Y2877412D1*
X1402794Y2767759D1*
X1409887Y2767206D1*
X1416982Y2765503D1*
X1423722Y2762711D1*
X1429941Y2758899D1*
X1435490Y2754161D1*
X1440227Y2748613D1*
X1444039Y2742394D1*
X1446831Y2735654D1*
X1448534Y2728559D1*
X1449106Y2721286D1*
X1448534Y2714013D1*
X1446500Y2706022D1*
X1465352Y2706012D1*
X1465419Y2736081D1*
X1466932Y2743688D1*
X1470178Y2750730D1*
X1474979Y2756820D1*
X1475224Y2757046D1*
X1482383Y2764079D1*
X1488831Y2768387D1*
X1496106Y2771072D1*
X1503807Y2771983D1*
X1504140Y2771970D1*
X1569640Y2771882D1*
X1577247Y2770369D1*
X1579730Y2769445D1*
X1604744Y2769353D1*
X1612350Y2767840D1*
X1619392Y2764593D1*
X1625483Y2759793D1*
X1625709Y2759547D1*
X1640018Y2745256D1*
X1701491Y2745234D1*
Y2689031D1*
X1847365Y2543066D1*
X1851673Y2536618D1*
X1854358Y2529343D1*
X1855269Y2521642D1*
X1855256Y2521308D1*
X1855269Y2034289D1*
X1876647Y2012933D1*
X1905436Y2041693D1*
X1905469Y2094306D1*
X2084437D1*
Y2000623D1*
X2166933Y2000633D1*
Y1999217D1*
X2208352Y1999154D1*
X2215958Y1997640D1*
X2223000Y1994394D1*
X2229091Y1989593D1*
X2229316Y1989348D1*
X2243142Y1975541D1*
X2250245Y1974978D1*
X2257340Y1973274D1*
X2264080Y1970483D1*
X2270299Y1966671D1*
X2275848Y1961933D1*
X2280585Y1956385D1*
X2284398Y1950165D1*
X2287189Y1943425D1*
X2288892Y1936331D1*
X2289465Y1929058D1*
X2288892Y1921785D1*
X2287189Y1914690D1*
X2284398Y1907950D1*
X2280585Y1901731D1*
X2275848Y1896182D1*
X2270299Y1891445D1*
X2264080Y1887633D1*
X2257340Y1884841D1*
X2250245Y1883138D1*
X2242972Y1882566D1*
X2235699Y1883138D1*
X2232273Y1883820D1*
X2228253Y1875495D1*
X2223966Y1869593D1*
X2218807Y1864434D1*
X2212906Y1860147D1*
X2206404Y1856835D1*
X2199466Y1854580D1*
X2192261Y1853438D1*
X2184965D1*
X2177760Y1854580D1*
X2170822Y1856835D1*
X2166921Y1858690D1*
X2167081Y1845711D1*
X2174782Y1844801D1*
X2182058Y1842115D1*
X2188505Y1837807D1*
X2221052Y1805260D1*
X2225361Y1798812D1*
X2228046Y1791537D1*
X2228957Y1783836D1*
X2228944Y1783503D1*
X2228856Y1707904D1*
X2227343Y1700298D1*
X2227219Y1699966D1*
X2227343Y1700298D1*
X2227298Y1691824D1*
X2226156Y1684619D1*
X2223902Y1677681D1*
X2220589Y1671180D1*
X2216302Y1665278D1*
X2211143Y1660119D1*
X2205241Y1655832D1*
X2198740Y1652520D1*
X2191802Y1650265D1*
X2184597Y1649123D1*
X2177301D1*
X2170096Y1650265D1*
X2163157Y1652520D1*
X2156656Y1655832D1*
X2150755Y1660119D1*
X2148189Y1662491D1*
X2135685Y1662484D1*
X2134226Y1656673D1*
X2131434Y1649933D1*
X2127622Y1643714D1*
X2122885Y1638165D1*
X2117336Y1633428D1*
X2111117Y1629615D1*
X2104377Y1626824D1*
X2097282Y1625121D1*
X2090009Y1624549D1*
X2082736Y1625121D1*
X2078840Y1625923D1*
X2078866Y1497147D1*
X2299541Y1497161D1*
X2304014Y1503112D1*
X2310668Y1509765D1*
X2316551Y1514140D1*
X2309958Y1519197D1*
X2304656Y1524496D1*
X2300058Y1530413D1*
X2296232Y1536860D1*
X2293241Y1543732D1*
X2291131Y1550924D1*
X2289936Y1558323D1*
X2289672Y1565814D1*
X2290345Y1573278D1*
X2291944Y1580601D1*
X2294444Y1587667D1*
X2297806Y1594365D1*
X2301978Y1600592D1*
X2306894Y1606251D1*
X2312478Y1611251D1*
X2316520Y1614173D1*
X2310668Y1618581D1*
X2304014Y1625235D1*
X2298484Y1632846D1*
X2294214Y1641228D1*
X2291306Y1650177D1*
X2289835Y1659469D1*
Y1668878D1*
X2291306Y1678169D1*
X2294214Y1687118D1*
X2298484Y1695500D1*
X2304014Y1703112D1*
X2310668Y1709765D1*
X2316551Y1714140D1*
X2310668Y1718581D1*
X2304014Y1725235D1*
X2298484Y1732846D1*
X2294214Y1741228D1*
X2291306Y1750177D1*
X2289835Y1759469D1*
Y1768878D1*
X2291306Y1778169D1*
X2294214Y1787118D1*
X2298484Y1795500D1*
X2304014Y1803112D1*
X2310668Y1809765D1*
X2316551Y1814140D1*
X2310668Y1818581D1*
X2304014Y1825235D1*
X2298484Y1832846D1*
X2294214Y1841228D1*
X2291306Y1850177D1*
X2289835Y1859469D1*
Y1868878D1*
X2291306Y1878169D1*
X2294214Y1887118D1*
X2298484Y1895500D1*
X2304014Y1903112D1*
X2310668Y1909765D1*
X2316551Y1914140D1*
X2310668Y1918581D1*
X2304014Y1925235D1*
X2298484Y1932846D1*
X2294214Y1941228D1*
X2291306Y1950177D1*
X2289835Y1959469D1*
Y1968878D1*
X2291306Y1978169D1*
X2294214Y1987118D1*
X2298484Y1995500D1*
X2304014Y2003112D1*
X2305026Y2004206D1*
X2289650Y2004217D1*
Y2124130D1*
X2402469D1*
X2402461Y3032382D1*
X432185D1*
Y2092490D1*
X436533Y2099415D1*
X442643Y2106570D1*
X449798Y2112680D1*
X457820Y2117594D1*
X466512Y2121196D1*
X475660Y2123392D1*
X485039Y2124130D1*
X494419Y2123392D1*
X497106Y2122857D1*
X545112Y2170753D1*
X551559Y2175062D1*
X558835Y2177747D1*
X566535Y2178657D1*
X566869Y2178644D1*
X581819Y2178657D1*
X581776Y2201689D1*
X754382D1*
X754413Y2288101D1*
X746278Y2290764D1*
X738446Y2294755D1*
X731335Y2299923D1*
X725119Y2306138D1*
X719951Y2313249D1*
X715961Y2321081D1*
X713244Y2329442D1*
X711870Y2338125D1*
Y2346915D1*
X713244Y2355597D1*
X715961Y2363958D1*
X719951Y2371790D1*
X721336Y2373861D1*
X712793Y2370094D1*
X705698Y2368391D1*
X698425Y2367819D1*
X691152Y2368391D1*
X684058Y2370094D1*
X677318Y2372886D1*
X671098Y2376698D1*
X665550Y2381436D1*
X660812Y2386984D1*
X657000Y2393203D1*
X654209Y2399944D1*
X652505Y2407038D1*
X651933Y2414311D1*
X652505Y2421584D1*
X654209Y2428678D1*
X657000Y2435419D1*
X660812Y2441638D1*
X665550Y2447186D1*
X671098Y2451924D1*
X677318Y2455736D1*
X684058Y2458528D1*
X691152Y2460231D1*
X698269Y2460797D1*
X811115Y2573509D1*
X817563Y2577818D1*
X824839Y2580503D1*
X832539Y2581413D1*
X832873Y2581400D1*
X859346Y2581413D1*
X859383Y2586728D1*
X1170810Y2636728D2*
X1203657D1*
Y2631406D1*
X1223098Y2631413D1*
X1231436Y2639192D1*
X1238201Y2642982D1*
X1245665Y2645087D1*
X1250825Y2645492D1*
X1296386Y2645512D1*
X1303850Y2647617D1*
X1309010Y2648022D1*
X1330934D1*
X1332109Y2656244D1*
X1334364Y2663182D1*
X1337676Y2669684D1*
X1341963Y2675585D1*
X1347122Y2680744D1*
X1353024Y2685031D1*
X1359525Y2688344D1*
X1367512Y2690807D1*
X1362974Y2696993D1*
X1359661Y2703495D1*
X1357407Y2710433D1*
X1356265Y2717638D1*
X1356129Y2721130D1*
X1255924Y2821324D1*
X1193349Y2821343D1*
X1188899Y2815392D1*
X1182245Y2808739D1*
X1174634Y2803209D1*
X1166252Y2798938D1*
X1157303Y2796030D1*
X1148012Y2794559D1*
X1138602D1*
X1129311Y2796030D1*
X1120362Y2798938D1*
X1111980Y2803209D1*
X1104369Y2808739D1*
X1103274Y2809751D1*
X1103264Y2794374D1*
X1014251D1*
X981245Y2761364D1*
X981217Y2710155D1*
X981961Y2711831D1*
Y2721240D1*
X983432Y2730531D1*
X986340Y2739480D1*
X990610Y2747862D1*
X996140Y2755474D1*
X1002794Y2762127D1*
X1010406Y2767657D1*
X1018787Y2771928D1*
X1027736Y2774836D1*
X1037028Y2776307D1*
X1046437D1*
X1055728Y2774836D1*
X1064677Y2771928D1*
X1073059Y2767657D1*
X1080671Y2762127D1*
X1081765Y2761115D1*
X1081776Y2776492D1*
X1201689D1*
Y2656579D1*
X1170781D1*
X1170783Y2636768D1*
X2009634Y1982314D2*
X1939273Y1982266D1*
X1938587Y1973630D1*
X1957635Y1973563D1*
X1965241Y1972050D1*
X1972283Y1968803D1*
X1978374Y1964003D1*
X1978600Y1963757D1*
X2008898Y1933333D1*
X2013206Y1926886D1*
X2015890Y1919610D1*
X2016802Y1911909D1*
X2016789Y1911576D1*
X2016802Y1823579D1*
X2033004Y1818760D1*
X2043112D1*
X2043083Y1975042D1*
Y1982241D1*
X1980272Y1982276D1*
X1972283Y1968803D1*
X1978374Y1964003D1*
X2151592Y797741D2*
X2201064D1*
X2201058Y958907D1*
X2020794Y1139261D1*
X2016486Y1145709D1*
X2013801Y1152984D1*
X2012890Y1160685D1*
X2012903Y1161018D1*
X2012991Y1732694D1*
X2014504Y1740301D1*
X2017751Y1747343D1*
X2021062Y1751820D1*
X2005416Y1752885D1*
X1997810Y1754398D1*
X1990768Y1757644D1*
X1990440Y1757864D1*
X1990768Y1757644D1*
X1990440Y1757864D1*
X1989623Y1752375D1*
Y1585907D1*
X1906938Y1585713D1*
X1906837Y1207429D1*
X1905324Y1199823D1*
X1902077Y1192781D1*
X1897277Y1186690D1*
X1897031Y1186465D1*
X1634770Y924184D1*
X1634764Y880969D1*
X1639839Y880986D1*
Y719571D1*
X1820810Y719484D1*
X1828416Y717971D1*
X1833542Y715797D1*
X1835234Y719369D1*
Y753597D1*
X1729919Y753605D1*
Y852189D1*
X1723505Y849059D1*
X1715144Y846343D1*
X1706462Y844969D1*
X1697672D1*
X1688990Y846343D1*
X1680629Y849059D1*
X1672797Y853050D1*
X1665685Y858218D1*
X1659470Y864433D1*
X1654302Y871545D1*
X1650311Y879377D1*
X1647594Y887738D1*
X1646220Y896420D1*
Y905210D1*
X1647594Y913892D1*
X1650311Y922253D1*
X1654302Y930085D1*
X1659470Y937197D1*
X1665685Y943412D1*
X1672797Y948580D1*
X1680629Y952571D1*
X1688990Y955287D1*
X1697672Y956661D1*
X1706462D1*
X1715144Y955287D1*
X1723505Y952571D1*
X1731337Y948580D1*
X1738449Y943412D1*
X1744664Y937197D1*
X1749832Y930085D1*
X1750545Y928811D1*
X1753873Y937339D1*
X1757685Y943558D1*
X1762423Y949106D1*
X1767971Y953844D1*
X1774190Y957656D1*
X1780930Y960448D1*
X1788025Y962151D1*
X1795298Y962723D1*
X1802571Y962151D1*
X1809665Y960448D1*
X1816406Y957656D1*
X1822625Y953844D1*
X1828173Y949106D1*
X1832911Y943558D1*
X1836723Y937339D1*
X1839514Y930598D1*
X1841218Y923504D1*
X1841790Y916231D1*
X1841218Y908958D1*
X1839514Y901864D1*
X1836723Y895123D1*
X1832911Y888904D1*
X1830003Y885335D1*
X1838829Y886505D1*
X1843138Y892953D1*
X1870651Y920466D1*
X1877098Y924774D1*
X1884374Y927458D1*
X1892075Y928370D1*
X1892408Y928357D1*
X1970810Y928269D1*
X1978416Y926756D1*
X1985458Y923509D1*
X1991549Y918709D1*
X1996349Y912618D1*
X1999596Y905576D1*
X2001109Y897970D1*
X2001210Y885373D1*
X2106525Y885329D1*
Y879030D1*
X2114323Y882415D1*
X2121417Y884118D1*
X2128690Y884690D1*
X2135963Y884118D1*
X2143058Y882415D1*
X2149798Y879623D1*
X2156017Y875811D1*
X2161566Y871073D1*
X2166303Y865525D1*
X2170115Y859306D1*
X2172907Y852566D1*
X2174610Y845471D1*
X2175182Y838198D1*
X2174610Y830925D1*
X2172907Y823831D1*
X2170115Y817091D1*
X2166303Y810871D1*
X2161566Y805323D1*
X2156017Y800585D1*
X2151526Y797741D1*
X2099160Y703840D2*
Y753605D1*
X1901203D1*
X1901210Y705356D1*
X1907298Y708088D1*
X1914904Y709601D1*
X1922652Y709297D1*
X1930117Y707192D1*
X1935056Y704622D1*
X1948350Y703844D1*
X2099181D1*
X2099209Y722938D1*
X1701491Y2595791D2*
Y2566265D1*
X1617029D1*
X1615168Y2558046D1*
X1612377Y2551306D1*
X1608564Y2545087D1*
X1603827Y2539538D1*
X1598278Y2534801D1*
X1592059Y2530988D1*
X1587883Y2529085D1*
X1595156Y2529657D1*
X1603298Y2529052D1*
X1608461Y2529459D1*
X1737416D1*
X1752580Y2544692D1*
X1701469Y2595802D1*
X1706927Y2253276D2*
X1768428D1*
Y2219633D1*
X1778391Y2219280D1*
X1785856Y2217175D1*
X1788551Y2215896D1*
X1789293Y2220647D1*
Y2488079D1*
X1772437Y2471387D1*
X1765990Y2467079D1*
X1758714Y2464395D1*
X1751013Y2463483D1*
X1750680Y2463496D1*
X1637293Y2463483D1*
X1632769Y2455839D1*
X1628031Y2450290D1*
X1622483Y2445552D1*
X1616264Y2441740D1*
X1610366Y2439260D1*
X1619238Y2430408D1*
X1626385Y2429802D1*
X1633479Y2428098D1*
X1640219Y2425307D1*
X1646438Y2421495D1*
X1651987Y2416757D1*
X1656724Y2411209D1*
X1660537Y2404990D1*
X1663328Y2398249D1*
X1665031Y2391155D1*
X1665604Y2383882D1*
X1665031Y2376609D1*
X1663328Y2369514D1*
X1660537Y2362774D1*
X1656724Y2356555D1*
X1651987Y2351007D1*
X1646438Y2346269D1*
X1640219Y2342457D1*
X1633479Y2339665D1*
X1626385Y2337962D1*
X1619112Y2337390D1*
X1611839Y2337962D1*
X1604744Y2339665D1*
X1598004Y2342457D1*
X1591785Y2346269D1*
X1586236Y2351007D1*
X1583661Y2353811D1*
X1556875Y2353526D1*
X1556033Y2346861D1*
X1553857Y2340505D1*
X1550129Y2334331D1*
X1551154Y2330950D1*
X1555441Y2325049D1*
X1558753Y2318547D1*
X1560486Y2313462D1*
X1706471Y2313450D1*
Y2253734D1*
X810130Y2018783D2*
X731382D1*
Y2089652D1*
X581776Y2089650D1*
Y2112647D1*
X572184Y2104665D1*
X543769Y2076249D1*
X544811Y2068878D1*
Y2059469D1*
X543340Y2050177D1*
X540432Y2041228D1*
X536161Y2032846D1*
X530631Y2025235D1*
X523978Y2018581D1*
X518094Y2014206D1*
X523978Y2009765D1*
X530631Y2003112D1*
X536161Y1995500D1*
X540432Y1987118D1*
X542906Y1979710D1*
X592181Y1979717D1*
X592230Y2002748D1*
X771198D1*
Y1979749D1*
X810083Y1979717D1*
X810171Y2000902D1*
X810122Y1996736D1*
Y2000902D1*
Y1647100D2*
Y1703818D1*
X731382Y1703823D1*
Y1801508D1*
X585957Y1801514D1*
Y1824512D1*
X530080Y1824546D1*
X523978Y1818581D1*
X518094Y1814206D1*
X523978Y1809765D1*
X530631Y1803112D1*
X536161Y1795500D1*
X540432Y1787118D1*
X543340Y1778169D1*
X544811Y1768878D1*
Y1759469D1*
X543723Y1752106D1*
X618471Y1677394D1*
X618480Y1679424D1*
X797449D1*
Y1647148D1*
X810114Y1647161D1*
X810122Y1666894D1*
X1877631Y1660710D2*
X1877584Y1722184D1*
X1857756Y1742133D1*
X1853448Y1748580D1*
X1852226Y1751303D1*
X1851087Y1752766D1*
X1814736D1*
Y1779768D1*
X1800636Y1779735D1*
X1800685Y1705625D1*
X1877581Y1628734D1*
X1877594Y1690072D1*
X1342566Y2508690D2*
Y2428573D1*
X1350606Y2428639D1*
X1354469Y2428163D1*
X1354448Y2505228D1*
X1342566Y2502488D1*
X1342517Y2498323D1*
X1530915Y618790D2*
X1529541Y610108D1*
X1526824Y601747D1*
X1522833Y593915D1*
X1517665Y586803D1*
X1511450Y580588D1*
X1504339Y575420D1*
X1496507Y571429D1*
X1488146Y568713D1*
X1479463Y567339D1*
X1470673D1*
X1461991Y568713D1*
X1453630Y571429D1*
X1445798Y575420D1*
X1438686Y580588D1*
X1432471Y586803D1*
X1427303Y593915D1*
X1423312Y601747D1*
X1420596Y610108D1*
X1419222Y618790D1*
Y627580D1*
X1420596Y636262D1*
X1423312Y644623D1*
X1427303Y652455D1*
X1428077Y653613D1*
X1019475Y653710D1*
X1016516Y654092D1*
X1136612Y533976D1*
X1309045Y533962D1*
X1305373Y541224D1*
X1302656Y549585D1*
X1301282Y558268D1*
Y567058D1*
X1302656Y575740D1*
X1305373Y584101D1*
X1309364Y591933D1*
X1314531Y599045D1*
X1320747Y605260D1*
X1327858Y610428D1*
X1335690Y614419D1*
X1344051Y617135D1*
X1352734Y618509D1*
X1361524D1*
X1370206Y617135D1*
X1378567Y614419D1*
X1386399Y610428D1*
X1393510Y605260D1*
X1399726Y599045D1*
X1404894Y591933D1*
X1408885Y584101D1*
X1411601Y575740D1*
X1412975Y567058D1*
Y558268D1*
X1411601Y549585D1*
X1408885Y541224D1*
X1406177Y535686D1*
X1835302Y535690D1*
X1834266Y540395D1*
X1829919Y541055D1*
X1729919Y541007D1*
Y653654D1*
X1522079Y653609D1*
X1526824Y644623D1*
X1529541Y636262D1*
X1530915Y627580D1*
Y618790D1*
X1938587Y1907698D2*
X1938571Y1764875D1*
X1982240D1*
X1958730Y1788538D1*
X1954421Y1794986D1*
X1951736Y1802261D1*
X1950825Y1809962D1*
X1950839Y1810295D1*
X1950825Y1898293D1*
X1941394Y1907677D1*
X1938538Y1906310D1*
X1938587Y1834589D1*
Y1764907D1*
X917343Y872588D2*
D13*
X1048970D1*
X1129941D2*
X1261568D1*
X1095180Y1464173D2*
X1226807D1*
X1307778D2*
X1439406D1*
X1044915Y1877559D2*
X1176542D1*
X1257513D2*
X1389140D1*
X859383Y2448425D2*
X991010D1*
X1071982D2*
X1203609D1*
X2032354Y2038286D2*
X2084388D1*
X2099209Y745659D2*
X2155180D1*
X1535594Y1058114D2*
X1587629D1*
X1581029Y2114764D2*
X1637000D1*
X1527848Y754100D2*
X1639790D1*
X1746858Y1370555D2*
X1802829D1*
X731430Y2070866D2*
X843373D1*
X810171Y2023622D2*
X922113D1*
X810171Y1688976D2*
X922113D1*
X731430Y1755906D2*
X843373D1*
X740004Y1347181D2*
X795975D1*
X1877633Y1637990D2*
X1989575D1*
X1333509Y898194D2*
X1389480D1*
X1286546Y2475602D2*
X1342517D1*
X2289698Y1564173D2*
X2349606D1*
X2043131Y1915085D2*
X2105008D1*
X1418655Y1295017D2*
X1480531D1*
X1647001Y1167064D2*
X1708878D1*
X1647001Y1218245D2*
X1708878D1*
X1647001Y1243836D2*
X1708878D1*
D15*
X983156Y1022588D3*
Y972588D3*
Y922588D3*
Y872588D3*
X1195755D3*
Y922588D3*
Y972588D3*
Y1022588D3*
X1160993Y1614173D3*
Y1564173D3*
Y1514173D3*
Y1464173D3*
X1373592D3*
Y1514173D3*
Y1564173D3*
Y1614173D3*
X1110728Y2027559D3*
Y1977559D3*
Y1927559D3*
Y1877559D3*
X1323327D3*
Y1927559D3*
Y1977559D3*
Y2027559D3*
X925197Y2598425D3*
Y2548425D3*
Y2498425D3*
Y2448425D3*
X1137795D3*
Y2498425D3*
Y2548425D3*
Y2598425D3*
D16*
X1957551Y2038286D3*
X2032354D3*
D17*
X2155180Y745659D3*
Y670856D3*
D16*
X1460791Y1058114D3*
X1535594D3*
D17*
X1645471Y2693151D3*
Y2618348D3*
X1712408Y2201193D3*
Y2126390D3*
X1637000Y2039961D3*
Y2114764D3*
X1583819Y828903D3*
Y754100D3*
X1802829Y1445358D3*
Y1370555D3*
X787402Y2145669D3*
Y2070866D3*
X866142Y1948819D3*
Y2023622D3*
Y1614173D3*
Y1688976D3*
X787402Y1830709D3*
Y1755906D3*
X795975Y1421984D3*
Y1347181D3*
X1933604Y1712793D3*
Y1637990D3*
X1333509Y898194D3*
Y972997D3*
X1514488Y1491350D3*
Y1566154D3*
X1473202Y1898318D3*
Y1973121D3*
X1286546Y2475602D3*
Y2550406D3*
D18*
X485039Y1164173D3*
D19*
Y1264173D3*
Y1364173D3*
Y1464173D3*
Y1564173D3*
Y1664173D3*
Y1764173D3*
Y1864173D3*
Y1964173D3*
Y2064173D3*
D18*
X2349606D3*
D19*
Y1964173D3*
Y1864173D3*
Y1764173D3*
Y1664173D3*
Y1564173D3*
Y1464173D3*
Y1364173D3*
Y1264173D3*
Y1164173D3*
D18*
X1325836Y2264087D3*
D19*
X1225836D3*
D18*
X1043307Y2854331D3*
D19*
X1143307D3*
D18*
X1327264Y2145669D3*
D19*
X1227264D3*
D18*
X1141732Y2716535D3*
D19*
X1041732D3*
D18*
X1377529Y1732283D3*
D19*
X1277529D3*
D18*
X1613749D3*
D19*
X1513749D3*
D18*
X1199692Y1140698D3*
D19*
X1099692D3*
D18*
X1101266Y1258808D3*
D19*
X1201266D3*
D20*
X767717Y2342520D3*
X976339Y1916621D3*
X929682Y1501102D3*
X984252Y1771654D3*
X1475068Y623185D3*
X1357129Y562663D3*
X1702067Y900815D3*
D17*
X983156Y1180068D3*
Y1105265D3*
X1160993Y1771654D3*
Y1696850D3*
X1110728Y2106299D3*
Y2181102D3*
X925197Y2677165D3*
Y2751969D3*
D16*
X1582681Y918748D3*
X1507878D3*
X1798794Y1526508D3*
X1723991D3*
X1630571Y1946703D3*
X1555768D3*
X1654388Y2257430D3*
X1579585D3*
X745366Y1623404D3*
X670563D3*
X712843Y1857534D3*
X638039D3*
X708661Y2145669D3*
X633858D3*
X719115Y1946728D3*
X644312D3*
X738302Y1515891D3*
X663499D3*
D21*
X1768222Y606869D3*
X1818222D3*
X1868222D3*
X1918222D3*
X1968222D3*
X2018222D3*
X2068222D3*
Y819467D3*
X2018222D3*
X1968222D3*
X1918222D3*
X1868222D3*
X1818222D3*
X1768222D3*
D22*
X1421534Y2415740D3*
X1447125D3*
X1472715D3*
X1498306D3*
X1523896D3*
X1549487D3*
X1575077Y2415748D3*
Y2644087D3*
X1549487D3*
X1523896D3*
X1498306D3*
X1472715D3*
X1447125D3*
X1421534D3*
D23*
X1876661Y1966266D3*
Y1940676D3*
Y1915085D3*
Y1889495D3*
Y1863904D3*
Y1838314D3*
Y1812723D3*
Y1787133D3*
X2105016D3*
X2105008Y1812723D3*
Y1838314D3*
Y1863904D3*
Y1889495D3*
Y1915085D3*
Y1940676D3*
Y1966266D3*
X1418655Y1320608D3*
Y1295017D3*
Y1269427D3*
Y1243836D3*
Y1218245D3*
Y1192655D3*
X1418663Y1167064D3*
X1647001D3*
Y1192655D3*
Y1218245D3*
Y1243836D3*
Y1269427D3*
Y1295017D3*
Y1320608D3*
M02*
