G04 DipTrace 3.0.0.2*
G04 Top.gbr*
%MOMM*%
G04 #@! TF.FileFunction,Copper,L1,Top*
G04 #@! TF.Part,Single*
G04 #@! TA.AperFunction,CopperBalancing*
%ADD13C,0.33*%
%ADD14C,0.635*%
%ADD15R,2.0X0.6*%
%ADD16R,1.3X1.5*%
%ADD17R,1.5X1.3*%
G04 #@! TA.AperFunction,ComponentPad*
%ADD18R,1.7X1.7*%
%ADD19C,1.7*%
%ADD20C,1.5*%
%ADD21R,0.6X2.0*%
%ADD22R,0.4X1.8*%
%ADD23R,1.8X0.4*%
G04 #@! TA.AperFunction,ViaPad*
%ADD24C,1.016*%
%FSLAX35Y35*%
G04*
G71*
G90*
G75*
G01*
G04 Top*
%LPD*%
X2200000Y4290000D2*
D13*
X2030000Y4460000D1*
X2000000D1*
X2200000Y5140000D2*
X2080000Y5260000D1*
X2000000D1*
X3267827Y6288030D2*
X3198797Y6219000D1*
X2890000D1*
X3741933Y4821727D2*
X3689207Y4769000D1*
X3361250D1*
X3846800Y3788030D2*
X3777770Y3719000D1*
X3488923D1*
X3387113Y2281413D2*
X3322073Y2216373D1*
X3037217D1*
X4157980Y5371500D2*
X4187510Y5401030D1*
X4349517D1*
X4872283Y2081447D2*
X4870430Y2079593D1*
Y1892350D1*
X4872053Y1893973D1*
X5474157D1*
X3037217Y2216373D2*
X2497217D1*
X2948923Y3719000D2*
X3488923D1*
X2821250Y4769000D2*
X3144110D1*
X3361250D1*
X4022900Y1915413D2*
X4005340Y1932973D1*
X3521780D1*
X3387113Y2067640D1*
Y2281413D1*
X5162180Y5177247D2*
X5163687Y5175740D1*
Y4864317D1*
X5346720D1*
X5968000Y3973000D2*
X5844217Y4096783D1*
X5464557D1*
X5081677Y4147260D2*
X5068443Y4160493D1*
X4911353D1*
X2200000Y5140000D2*
X2350000Y5290000D1*
Y6219000D1*
X2890000D2*
X2350000D1*
X3144110Y4769000D2*
X3117123Y4795987D1*
Y4820920D1*
X2350000Y5290000D2*
X2353363Y5286637D1*
X2480170D1*
X2200000Y4290000D2*
X2310977D1*
X2346227Y4254750D1*
Y4097693D1*
X2724920Y3719000D1*
X2948923D1*
X5474157Y1893973D2*
X5530063Y1949880D1*
Y2443247D1*
X4911353Y3061957D1*
Y3334083D1*
Y3360417D1*
Y4160493D1*
X4022900Y1915413D2*
X4031770Y1924283D1*
X4186347D1*
Y2380990D1*
X4870827Y3065470D1*
X4907840D1*
X4911353Y3061957D1*
X2497217Y2216373D2*
X2496783Y2215940D1*
X2285263D1*
X2021777Y2479427D1*
Y3421840D1*
X4157980Y5371500D2*
X4125223Y5404257D1*
X3936047D1*
X5321617Y5114593D2*
X5258963Y5177247D1*
X5162180D1*
X2200000Y4290000D2*
X2232727Y4322727D1*
Y4482553D1*
X4876890Y3334083D2*
X4911353D1*
X4569667Y3320917D2*
X4579187Y3330437D1*
Y3481210D1*
X4876890Y3334083D2*
X4903223Y3360417D1*
X4911353D1*
X4183383Y3094343D2*
Y3159343D1*
Y2964343D2*
X4186277Y2967237D1*
X4357933D1*
Y3078277D1*
X4341867Y3094343D1*
X4183383D1*
X3603383Y3289343D2*
X3604737Y3290697D1*
X3817223D1*
X3846800Y3320273D1*
Y3788030D1*
X4569667Y3320917D2*
X4357933Y3109183D1*
Y3078277D1*
X3870697Y6715980D2*
X3871077Y6716360D1*
Y6879937D1*
X3883927Y6867087D1*
X4006017D1*
X4000697Y6861767D1*
Y6715980D1*
X4066073Y6650603D1*
X4179497D1*
X4337703Y6492397D1*
X4357880D1*
X4744900Y6500377D2*
X4788790Y6456487D1*
Y5498913D1*
X4904497Y5383207D1*
X5135910D1*
X5162180Y5356937D1*
Y5177247D1*
X3900410Y2687610D2*
X3920463Y2667557D1*
X4153240D1*
X4183383Y2697700D1*
Y2964343D1*
X4745283Y2081447D2*
Y1541447D1*
X4741913Y1538077D1*
Y1384717D1*
X4761193Y1365437D1*
X4870907D1*
X4986093D1*
X4999283Y1378627D1*
Y1541447D1*
Y2081447D2*
Y2274270D1*
X4805870D1*
X4745283Y2213683D1*
Y2081447D1*
X4871667Y1366197D2*
X4870907Y1365437D1*
X5968000Y4227000D2*
X6103600Y4091400D1*
Y4042623D1*
X6114223Y4032000D1*
Y2614087D1*
X5986770Y2486633D1*
X5960220D1*
X5848697Y2375110D1*
Y1451077D1*
X5724317Y1326697D1*
X5481723D1*
X3371250Y5450000D2*
X3361250Y5440000D1*
Y5150000D1*
X3371250Y5450000D2*
X3438927Y5517677D1*
X3671877D1*
X3742560Y5588360D1*
Y5935350D1*
X3781117Y5973907D1*
X3864653D1*
X3870697Y5979950D1*
Y6135980D1*
X3267827Y6478030D2*
X3262797Y6473000D1*
X2890000D1*
X3741933Y5011727D2*
X3730660Y5023000D1*
X3361250D1*
X3846800Y3978030D2*
X3841770Y3973000D1*
X3488923D1*
X3387113Y2471413D2*
X3386073Y2470373D1*
X3037217D1*
X4766720Y4864317D2*
Y4929317D1*
Y4994317D2*
Y4929317D1*
X5346740Y4539317D2*
X5343283Y4535860D1*
X5234267D1*
X5100330D1*
X5038887Y4597303D1*
Y4856250D1*
X4965820Y4929317D1*
X4766720D1*
X4497300Y4983067D2*
X4551050Y4929317D1*
X4766720D1*
X3741933Y5011727D2*
X3753823Y5023617D1*
Y5211420D1*
X4003417Y4101517D2*
X3879930Y3978030D1*
X3846800D1*
X4766720Y4994317D2*
X4628593Y5132443D1*
Y6404970D1*
X4559443Y6474120D1*
X4192960Y6840603D1*
X4179497D1*
X4766720Y4994317D2*
X4949650Y5177247D1*
X4972180D1*
X3710410Y2687610D2*
Y2620417D1*
X3561407Y2471413D1*
X3387113D1*
X4872283Y1541447D2*
X4870430Y1543300D1*
Y1718853D1*
X4885310Y1703973D1*
X5474157D1*
X5234267Y4535860D2*
X5244807Y4525320D1*
Y4394470D1*
X5196530D1*
Y3719000D1*
Y2948140D1*
X5674477Y2470193D1*
Y1731543D1*
X5646907Y1703973D1*
X5474157D1*
X5968000Y3719000D2*
X5196530D1*
X3603383Y3354343D2*
X3599440Y3358287D1*
X3436127D1*
Y3214790D1*
X3412423Y3238493D1*
X3426573Y3224343D1*
X3603383D1*
X3604620Y3223107D1*
X3879983D1*
X4003417Y3346540D1*
Y4101517D1*
X3740697Y6135980D2*
X3675697D1*
X3610697D1*
X3267827Y6478030D2*
X3290020Y6455837D1*
X3466257D1*
X3524087Y6398007D1*
Y6160253D1*
X3548360Y6135980D1*
X3610697D1*
X4179497Y6840603D2*
X4069477Y6950623D1*
X3986737D1*
X3980313Y6957047D1*
X3819670D1*
X3805697Y6943073D1*
Y6715980D1*
X3346197Y3272017D2*
X3379720Y3238493D1*
X3412423D1*
X3607813Y2830543D2*
X3710410Y2727943D1*
Y2687610D1*
X3675697Y6135980D2*
X3684787Y6145070D1*
Y6297587D1*
X4051697Y6307240D2*
X4085490Y6341037D1*
X4447573D1*
X4559443Y6452907D1*
Y6474120D1*
X5697150Y4899807D2*
X5602640Y4994317D1*
X5346720D1*
X5787813Y3371653D2*
X5739637Y3323477D1*
Y3014563D1*
X5797200Y2957000D1*
X5968000D1*
X4060460Y2801040D2*
X4016583D1*
Y3002227D1*
X4043700Y3029343D1*
X4183383D1*
X3990217Y6533930D2*
X3935697Y6588450D1*
Y6715980D1*
X5559077Y4825460D2*
X5455220Y4929317D1*
X5346720D1*
X3995863Y3157380D2*
X3802827Y2964343D1*
X3603403D1*
X4112543Y6055060D2*
X4031603Y6136000D1*
X4000697D1*
X3700743Y6439857D2*
X3805697Y6334903D1*
Y6135980D1*
X3562640Y6912067D2*
X3224707Y7250000D1*
X2904000D1*
X4183383Y3354343D2*
X4098923Y3438803D1*
Y4400000D1*
X2350000Y6600000D2*
Y6800000D1*
X2550000D1*
X2646000Y6896000D1*
Y6900000D1*
X2350000Y6990000D2*
X2610000Y7250000D1*
X2650000D1*
X2821250Y5350000D2*
Y5150000D1*
X3117250Y5450000D2*
X3017250Y5350000D1*
X2821250D1*
X2900000Y6900000D2*
X2890000Y6890000D1*
Y6600000D1*
X3935697Y6135980D2*
X3909630Y6162047D1*
Y6378730D1*
X3742560Y6545800D1*
X3511233D1*
X3414847Y6642187D1*
X3324887D1*
X3318460Y6635760D1*
X3177097D1*
X3141337Y6600000D1*
X2890000D1*
X4491283Y1541447D2*
X4618283D1*
X1774000Y6132350D2*
X2114650Y6473000D1*
X2350000D1*
X1745380Y2594617D2*
X2596040Y1743957D1*
X3746673D1*
X4618283D1*
Y1541447D1*
X3746673Y1582890D2*
Y1743957D1*
X5126283Y1541447D2*
X5253283D1*
X2322530Y2474117D2*
X2326273Y2470373D1*
X2497217D1*
X2305853Y1818940D2*
X2852320Y1272473D1*
X3447107D1*
Y1276863D1*
X5117920D1*
Y1351863D1*
X5126283Y1343500D1*
Y1541447D1*
X3447107Y1429163D2*
Y1276863D1*
X5253283Y2081447D2*
X5126283D1*
X2948923Y3973000D2*
X2943627Y3978297D1*
X2747217D1*
Y4011093D1*
X5406873Y2129023D2*
X5359297Y2081447D1*
X5253283D1*
X4618283D2*
X4491283D1*
X4618283D2*
X4560057Y2139673D1*
Y2327227D1*
X2577113Y5069693D2*
X2623807Y5023000D1*
X2821250D1*
X2000000Y5450000D2*
X1800000D1*
X2350000Y6346000D2*
X2196000D1*
X2000000Y6150000D1*
Y5450000D1*
X1950000Y5950000D2*
X2000000Y6150000D1*
X1826553Y4944690D2*
X2200000D1*
Y4950000D1*
X2479900D1*
Y4868217D1*
X2507683Y4896000D1*
X2821250D1*
X1232000Y4735000D2*
X1248863Y4718137D1*
X1620620D1*
X1893230Y4123447D2*
X1916677Y4100000D1*
X2200000D1*
X2497217Y2343373D2*
X2253200D1*
X2205403Y2391170D1*
Y3812800D1*
Y4100000D1*
X2200000D1*
X2361393Y3812800D2*
X2205403D1*
X3488923Y4100000D2*
X3498923Y4110000D1*
Y4400000D1*
X3793083Y3087930D2*
X3786670Y3094343D1*
X3603383D1*
X3488923Y4100000D2*
X3481030Y4092107D1*
X3242720D1*
X3047217Y2897373D2*
X3037217Y2887373D1*
Y2597373D1*
X3047217Y2897373D2*
X3350350D1*
X3482320Y3029343D1*
X3603383D1*
X3051217Y3197373D2*
X3089247Y3159343D1*
X3603383D1*
X2948923Y4500000D2*
X2998923Y4550000D1*
X3698923D1*
X3844923Y4404000D1*
Y4400000D1*
X3421273Y6051017D2*
X3367623Y5997367D1*
Y5750780D1*
X3610697Y6715980D2*
X3607383Y6719293D1*
X3498383D1*
X2497217Y2997373D2*
X2597217Y3097373D1*
Y3197373D1*
X2797217D1*
X4349517Y5591030D2*
X4206673Y5733873D1*
X4202147D1*
X4349517Y5591030D2*
X4386337Y5554210D1*
X4504007D1*
X4529710Y5528507D1*
Y5136537D1*
X4516860Y5149387D1*
X4349787D1*
X4336937Y5136537D1*
Y4905210D1*
X4442830Y4799317D1*
X4766720D1*
X4157980Y5181500D2*
X4141650Y5165170D1*
Y4944627D1*
X4351960Y4734317D1*
X4766720D1*
X3663370Y3839673D2*
X3657043Y3846000D1*
X3488923D1*
X4353263Y3739803D2*
X4378937Y3765477D1*
Y3877330D1*
X3037217Y2343373D2*
X3039733Y2345890D1*
X3224450D1*
X3830010Y2333620D2*
X3828240Y2331850D1*
X3661293D1*
X2821250Y5540000D2*
X2871250Y5590000D1*
Y5750780D1*
X3113623D1*
X2948923Y4100000D2*
Y4310000D1*
X2958923Y4300000D1*
X3148923D1*
X3244923Y4396000D1*
Y4400000D1*
X2497217Y2597373D2*
Y2807373D1*
X2507217Y2797373D1*
X2697217D1*
X2793217Y2893373D1*
Y2897373D1*
X4020010Y2333620D2*
X4022900Y2330730D1*
Y2105413D1*
X4020010Y2333620D2*
X4759833Y3073443D1*
Y4027710D1*
X4489950Y4297593D1*
Y4612457D1*
X4498090Y4604317D1*
X4766720D1*
X4579187Y3671210D2*
X4568937Y3681460D1*
Y3877330D1*
X4766720Y4669317D2*
X4765750Y4670287D1*
X4387140D1*
Y4136947D1*
X4568937Y3955150D1*
Y3877330D1*
X2890000Y6346000D2*
X3090153Y6345680D1*
X3850133Y5843920D2*
X3960180Y5733873D1*
X4012147D1*
X3361250Y4896000D2*
X3364247Y4893003D1*
X3549787D1*
X3917263Y4769623D2*
X3951650Y4804010D1*
Y4944627D1*
X1232000Y4481000D2*
X1589553Y4123447D1*
X1703230D1*
X2000000Y4650000D2*
X1931863Y4718137D1*
X1810620D1*
X2000000Y4650000D2*
X2350000D1*
X2500000Y4500000D1*
X2550000Y4450000D1*
X2593310D1*
X2631507Y4411803D1*
Y3945597D1*
X2731103Y3846000D1*
X2948923D1*
X1232000Y4989000D2*
X1276310Y4944690D1*
X1636553D1*
X1232000Y5243000D2*
X1439000Y5450000D1*
X1610000D1*
X1232000Y4227000D2*
X1608637Y3850363D1*
X1685287D1*
X1875287D2*
X1886313Y3839337D1*
X2037793D1*
X2021777Y3823320D1*
Y3611840D1*
X5539610Y4306500D2*
X5577760Y4344650D1*
Y4530943D1*
X5504387Y4604317D1*
X5346720D1*
X5308623Y4244443D2*
X5370680Y4306500D1*
X5539610D1*
X3735893Y3512067D2*
X3695567Y3471743D1*
X2384347D1*
X4911353Y4350493D2*
X4782413Y4479433D1*
Y4517780D1*
X4766720Y4533473D1*
Y4539317D1*
D24*
X3549787Y4893003D3*
X3917263Y4769623D3*
X3663370Y3839673D3*
X3224450Y2345890D3*
X3090153Y6345680D3*
X4353263Y3739803D3*
X3661293Y2331850D3*
X3850133Y5843920D3*
X1774000Y6132350D3*
X1745380Y2594617D3*
X2322530Y2474117D3*
X2305853Y1818940D3*
X2747217Y4011093D3*
X5406873Y2129023D3*
X2577113Y5069693D3*
X4560057Y2327227D3*
X2037793Y3839337D3*
X3753823Y5211420D3*
X4003417Y4101517D3*
X4497300Y4983067D3*
X4060460Y2801040D3*
X3995863Y3157380D3*
X5464557Y4096783D3*
X5081677Y4147260D3*
X5697150Y4899807D3*
X5559077Y4825460D3*
X5787813Y3371653D3*
X3990217Y6533930D3*
X4112543Y6055060D3*
X3117123Y4820920D3*
X2480170Y5286637D3*
X4871667Y1366197D3*
X5481723Y1326697D3*
X3936047Y5404257D3*
X5321617Y5114593D3*
X2232727Y4482553D3*
X3700743Y6439857D3*
X3562640Y6912067D3*
X4569667Y3320917D3*
X4876890Y3334083D3*
X5539610Y4306500D3*
X5308623Y4244443D3*
X2384347Y3471743D3*
X3735893Y3512067D3*
X3242720Y4092107D3*
X3793083Y3087930D3*
X3421273Y6051017D3*
X3498383Y6719293D3*
X3346197Y3272017D3*
X3607813Y2830543D3*
X4357880Y6492397D3*
X4744900Y6500377D3*
X3684787Y6297587D3*
X4051697Y6307240D3*
X4391237Y6011333D3*
X4048887Y1504893D3*
X3324473Y6886247D3*
X1104100Y7639083D2*
D14*
X6095933D1*
X1104100Y7575917D2*
X6095933D1*
X1104100Y7512750D2*
X6095933D1*
X1104100Y7449583D2*
X6095933D1*
X1104100Y7386417D2*
X2491313D1*
X2978033D2*
X6095933D1*
X1104100Y7323250D2*
X2491313D1*
X3271720D2*
X6095933D1*
X1104100Y7260083D2*
X2491313D1*
X3339437D2*
X6095933D1*
X1104100Y7196917D2*
X2432157D1*
X3402563D2*
X6095933D1*
X1104100Y7133750D2*
X2368903D1*
X3008667D2*
X3216107D1*
X3465817D2*
X6095933D1*
X1104100Y7070583D2*
X2201347D1*
X2555360D2*
X3279360D1*
X3528943D2*
X6095933D1*
X1104100Y7007417D2*
X2201347D1*
X2498680D2*
X2531747D1*
X3058647D2*
X3342487D1*
X3638703D2*
X3745190D1*
X4137527D2*
X6095933D1*
X1104100Y6944250D2*
X2201347D1*
X3058647D2*
X3405617D1*
X3682610D2*
X3715680D1*
X4328150D2*
X6095933D1*
X1104100Y6881083D2*
X2201347D1*
X3058647D2*
X3442327D1*
X3682980D2*
X3715530D1*
X4328150D2*
X6095933D1*
X1104100Y6817917D2*
X2201347D1*
X3058647D2*
X3427070D1*
X4340430D2*
X6095933D1*
X1104100Y6754750D2*
X2201347D1*
X2698110D2*
X2741397D1*
X3058647D2*
X3379447D1*
X4403557D2*
X6095933D1*
X1104100Y6691583D2*
X2176420D1*
X2523610D2*
X2716417D1*
X3063607D2*
X3108083D1*
X4466810D2*
X6095933D1*
X1104100Y6628417D2*
X2176420D1*
X2523610D2*
X2716417D1*
X4529937D2*
X6095933D1*
X1104100Y6565250D2*
X2176420D1*
X2523610D2*
X2716417D1*
X4593067D2*
X6095933D1*
X1104100Y6502083D2*
X2018910D1*
X2523610D2*
X2716417D1*
X4110243D2*
X4406733D1*
X4656317D2*
X6095933D1*
X1104100Y6438917D2*
X1955780D1*
X2523610D2*
X2716417D1*
X4066710D2*
X4420623D1*
X4711507D2*
X6095933D1*
X1104100Y6375750D2*
X1892653D1*
X2523610D2*
X2716417D1*
X4718700D2*
X6095933D1*
X1104100Y6312583D2*
X1829400D1*
X2523610D2*
X2716417D1*
X4718700D2*
X6095933D1*
X1104100Y6249417D2*
X1752133D1*
X2523610D2*
X2716417D1*
X4160967D2*
X4538447D1*
X4718700D2*
X6095933D1*
X1104100Y6186250D2*
X1662590D1*
X2523610D2*
X2716417D1*
X3063607D2*
X3119247D1*
X4106150D2*
X4538447D1*
X4718700D2*
X6095933D1*
X1104100Y6123083D2*
X1649940D1*
X2097837D2*
X2176420D1*
X2523610D2*
X2716417D1*
X3063607D2*
X3321403D1*
X4215413D2*
X4538447D1*
X4718700D2*
X6095933D1*
X1104100Y6059917D2*
X1674373D1*
X2090150D2*
X3297220D1*
X4236870D2*
X4538447D1*
X4718700D2*
X6095933D1*
X1104100Y5996750D2*
X1809310D1*
X2090770D2*
X3277500D1*
X4221617D2*
X4538447D1*
X4718700D2*
X6095933D1*
X1104100Y5933583D2*
X1802363D1*
X2097713D2*
X3277500D1*
X3946780D2*
X4538447D1*
X4718700D2*
X6095933D1*
X1104100Y5870417D2*
X1825680D1*
X2090150D2*
X3013080D1*
X4340800D2*
X4538447D1*
X4718700D2*
X6095933D1*
X1104100Y5807250D2*
X1909893D1*
X2090150D2*
X2802987D1*
X4340800D2*
X4538447D1*
X4718700D2*
X6095933D1*
X1104100Y5744083D2*
X1909893D1*
X2090150D2*
X2781157D1*
X4340800D2*
X4538447D1*
X4718700D2*
X6095933D1*
X1104100Y5680917D2*
X1909893D1*
X2090150D2*
X2781157D1*
X3832677D2*
X3873557D1*
X4498187D2*
X4538447D1*
X4718700D2*
X6095933D1*
X1104100Y5617750D2*
X1909893D1*
X2090150D2*
X2672637D1*
X3832677D2*
X3873557D1*
X4718700D2*
X6095933D1*
X1104100Y5554583D2*
X1471347D1*
X2148687D2*
X2672637D1*
X3825607D2*
X4200853D1*
X4718700D2*
X6095933D1*
X1104100Y5491417D2*
X1355633D1*
X2148687D2*
X2672637D1*
X3770417D2*
X4009360D1*
X4718700D2*
X6095933D1*
X1104100Y5428250D2*
X1292503D1*
X2148687D2*
X2672637D1*
X3529937D2*
X4009360D1*
X4718700D2*
X6095933D1*
X2148687Y5365083D2*
X2672637D1*
X3529937D2*
X4009360D1*
X4718700D2*
X5809313D1*
X1415710Y5301917D2*
X1851353D1*
X2148687D2*
X2672637D1*
X3159107D2*
X3212633D1*
X3529937D2*
X3671647D1*
X3836027D2*
X4009360D1*
X4718700D2*
X4833497D1*
X5300867D2*
X5809313D1*
X1390533Y5238750D2*
X1851353D1*
X2348613D2*
X2647583D1*
X2994900D2*
X3187583D1*
X3534897D2*
X3632577D1*
X3875093D2*
X4009360D1*
X4718700D2*
X4833497D1*
X5300867D2*
X5809313D1*
X1374907Y5175583D2*
X1851353D1*
X2348613D2*
X2518477D1*
X2994900D2*
X3187583D1*
X3534897D2*
X3634933D1*
X3872737D2*
X4009360D1*
X4718700D2*
X4823203D1*
X5300867D2*
X5809313D1*
X1327527Y5112417D2*
X2051403D1*
X2348613D2*
X2460680D1*
X2994900D2*
X3187583D1*
X3534897D2*
X3593263D1*
X3890597D2*
X4009360D1*
X5300867D2*
X5809313D1*
X1378253Y5049250D2*
X1497887D1*
X1965133D2*
X2051403D1*
X2348613D2*
X2454480D1*
X2994900D2*
X3187583D1*
X5672567D2*
X5821840D1*
X2994900Y4986083D2*
X3187583D1*
X5033843D2*
X5183120D1*
X2994900Y4922917D2*
X3187583D1*
X5096973D2*
X5183120D1*
X1965133Y4859750D2*
X2051403D1*
X2994900D2*
X3187583D1*
X5128970D2*
X5183120D1*
X5814573D2*
X5874303D1*
X1967613Y4796583D2*
X2350547D1*
X2609187D2*
X2647583D1*
X2994900D2*
X3187583D1*
X4041410D2*
X4164887D1*
X5128970D2*
X5183120D1*
X5760870D2*
X5822337D1*
X2363867Y4733417D2*
X2427940D1*
X2531797D2*
X2647583D1*
X2994900D2*
X3187583D1*
X3534897D2*
X3593263D1*
X4036077D2*
X4228013D1*
X5128970D2*
X5183120D1*
X5639450D2*
X5809313D1*
X2454530Y4670250D2*
X3847140D1*
X3987460D2*
X4291640D1*
X5128970D2*
X5183120D1*
X5562433D2*
X5823823D1*
X1323807Y4607083D2*
X1482013D1*
X2600010D2*
X2800257D1*
X3766697D2*
X4296973D1*
X5626430D2*
X5876287D1*
X1377013Y4543917D2*
X1851353D1*
X2148687D2*
X2331323D1*
X2641680D2*
X2800257D1*
X3901013D2*
X3940263D1*
X4257583D2*
X4297007D1*
X4930410D2*
X4967940D1*
X5666860D2*
X5822957D1*
X1390657Y4480750D2*
X1851353D1*
X2148687D2*
X2352657D1*
X2687320D2*
X2800257D1*
X4257583D2*
X4297007D1*
X5667853D2*
X5809313D1*
X1420173Y4417583D2*
X1851353D1*
X2721427D2*
X2800257D1*
X4257583D2*
X4297007D1*
X4580043D2*
X4719520D1*
X5060013D2*
X5109697D1*
X5667853D2*
X5823203D1*
X1483427Y4354417D2*
X1851353D1*
X2348613D2*
X2541420D1*
X2721550D2*
X2800257D1*
X4257583D2*
X4297007D1*
X4580043D2*
X4762680D1*
X5060013D2*
X5106473D1*
X5667853D2*
X5877030D1*
X1546553Y4291250D2*
X2051403D1*
X2348613D2*
X2541420D1*
X2721550D2*
X2800257D1*
X4257583D2*
X4297007D1*
X4621093D2*
X4762680D1*
X5060013D2*
X5106473D1*
X5663017D2*
X5823577D1*
X2348613Y4228083D2*
X2541420D1*
X2721550D2*
X2800257D1*
X3198173D2*
X3408840D1*
X4188997D2*
X4296973D1*
X4684223D2*
X4762680D1*
X5060013D2*
X5106473D1*
X5634243D2*
X5809313D1*
X2348613Y4164917D2*
X2541420D1*
X2721550D2*
X2775327D1*
X4188997D2*
X4296973D1*
X5060013D2*
X5106473D1*
X5402317D2*
X5822583D1*
X2348613Y4101750D2*
X2541420D1*
X4188997D2*
X4304787D1*
X5060013D2*
X5106473D1*
X5286603D2*
X5875047D1*
X2348613Y4038583D2*
X2541420D1*
X4188997D2*
X4360720D1*
X5060013D2*
X5106473D1*
X5286603D2*
X5824197D1*
X2348613Y3975417D2*
X2541420D1*
X3122520D2*
X3218217D1*
X3267253D2*
X3315327D1*
X4188997D2*
X4240293D1*
X4849917D2*
X5106473D1*
X5286603D2*
X5809437D1*
X1378007Y3912250D2*
X1421983D1*
X2469537D2*
X2548367D1*
X3122520D2*
X3315327D1*
X4188997D2*
X4240293D1*
X4849917D2*
X5106473D1*
X5286603D2*
X5821963D1*
X1326907Y3849083D2*
X1485113D1*
X2505380D2*
X2603183D1*
X3122520D2*
X3315327D1*
X4188997D2*
X4240293D1*
X4849917D2*
X5106473D1*
X5286603D2*
X5873187D1*
X1375153Y3785917D2*
X1546627D1*
X2507487D2*
X2666437D1*
X3122520D2*
X3315327D1*
X4188997D2*
X4238183D1*
X4849917D2*
X5106473D1*
X1390533Y3722750D2*
X1546627D1*
X2477970D2*
X2775327D1*
X3122520D2*
X3315327D1*
X4188997D2*
X4229977D1*
X4849917D2*
X5106473D1*
X1378627Y3659583D2*
X1873183D1*
X2295530D2*
X2775327D1*
X3122520D2*
X3315327D1*
X3662517D2*
X3698187D1*
X4188997D2*
X4260260D1*
X4849917D2*
X5106473D1*
X1328770Y3596417D2*
X1873183D1*
X2295530D2*
X3646840D1*
X3824863D2*
X3913367D1*
X4188997D2*
X4430547D1*
X4849917D2*
X5106473D1*
X5286603D2*
X5871327D1*
X1374533Y3533250D2*
X1873183D1*
X3858473D2*
X3913367D1*
X4188997D2*
X4430547D1*
X4849917D2*
X5106473D1*
X5286603D2*
X5825560D1*
X1390533Y3470083D2*
X1873183D1*
X3852647D2*
X3913367D1*
X4192470D2*
X4430547D1*
X4849917D2*
X5106473D1*
X5286603D2*
X5716173D1*
X1379123Y3406917D2*
X1873183D1*
X3795967D2*
X3913367D1*
X4347003D2*
X4430547D1*
X4849917D2*
X5106473D1*
X5286603D2*
X5668797D1*
X1330503Y3343750D2*
X1873183D1*
X3767070D2*
X3875787D1*
X4347003D2*
X4669787D1*
X4849917D2*
X5106473D1*
X5286603D2*
X5652053D1*
X1373790Y3280583D2*
X2115277D1*
X4347003D2*
X4669787D1*
X4849917D2*
X5106473D1*
X5286603D2*
X5649570D1*
X1390533Y3217417D2*
X2115277D1*
X4347003D2*
X4669787D1*
X4849917D2*
X5106473D1*
X5286603D2*
X5649570D1*
X1379617Y3154250D2*
X2115277D1*
X4347003D2*
X4669787D1*
X4849917D2*
X5106473D1*
X5286603D2*
X5649570D1*
X1390657Y3091083D2*
X2115277D1*
X4347003D2*
X4652670D1*
X4849917D2*
X5106473D1*
X5286603D2*
X5649570D1*
X1390657Y3027917D2*
X2115277D1*
X4347003D2*
X4589543D1*
X4836523D2*
X5106473D1*
X5286603D2*
X5649570D1*
X1390657Y2964750D2*
X2115277D1*
X4347003D2*
X4526290D1*
X4776000D2*
X5106473D1*
X5304713D2*
X5665943D1*
X1390657Y2901583D2*
X2115277D1*
X4347003D2*
X4463163D1*
X4712747D2*
X5120610D1*
X5367840D2*
X5727830D1*
X1390657Y2838417D2*
X2115277D1*
X4178827D2*
X4400037D1*
X4649620D2*
X5181507D1*
X5431093D2*
X5866117D1*
X1104100Y2775250D2*
X2115277D1*
X4182050D2*
X4336783D1*
X4586493D2*
X5244633D1*
X5494220D2*
X6024123D1*
X1104100Y2712083D2*
X2115277D1*
X2645897D2*
X2947100D1*
X4144473D2*
X4273657D1*
X4523240D2*
X5307763D1*
X5557347D2*
X6024123D1*
X1104100Y2648917D2*
X1634190D1*
X1856613D2*
X2115277D1*
X2670827D2*
X2863633D1*
X4039053D2*
X4210527D1*
X4460113D2*
X5371013D1*
X5620600D2*
X6024123D1*
X1104100Y2585750D2*
X1621290D1*
X1879060D2*
X2115277D1*
X2670827D2*
X2863633D1*
X4039053D2*
X4147400D1*
X4396983D2*
X5434143D1*
X5683727D2*
X5961117D1*
X1104100Y2522583D2*
X1645473D1*
X1942190D2*
X2115277D1*
X2670827D2*
X2863633D1*
X3737427D2*
X4084147D1*
X4333733D2*
X5497270D1*
X5746237D2*
X5871327D1*
X1104100Y2459417D2*
X1755730D1*
X2005440D2*
X2115277D1*
X2670827D2*
X2863633D1*
X4270603D2*
X5560400D1*
X5764590D2*
X5808197D1*
X1104100Y2396250D2*
X1818983D1*
X2068567D2*
X2115277D1*
X2670827D2*
X2863633D1*
X4422037D2*
X4457830D1*
X4662270D2*
X5584337D1*
X5994653D2*
X6095933D1*
X1104100Y2333083D2*
X1882110D1*
X2670827D2*
X2863633D1*
X4684347D2*
X4739860D1*
X5065223D2*
X5584337D1*
X5938843D2*
X6095933D1*
X1104100Y2269917D2*
X1945240D1*
X2670827D2*
X2863633D1*
X5089407D2*
X5584337D1*
X5938843D2*
X6095933D1*
X1104100Y2206750D2*
X2008490D1*
X2258077D2*
X2323633D1*
X2670827D2*
X2863633D1*
X3535767D2*
X3691367D1*
X5502157D2*
X5584337D1*
X5938843D2*
X6095933D1*
X1104100Y2143583D2*
X2071620D1*
X2670827D2*
X2863633D1*
X3210823D2*
X3874300D1*
X4171510D2*
X4387633D1*
X5530433D2*
X5584337D1*
X5938843D2*
X6095933D1*
X1104100Y2080417D2*
X2134747D1*
X2384333D2*
X3874300D1*
X4171510D2*
X4387633D1*
X5520883D2*
X5584337D1*
X5938843D2*
X6095933D1*
X1104100Y2017250D2*
X2198000D1*
X2447583D2*
X3874300D1*
X4171510D2*
X4387633D1*
X5938843D2*
X6095933D1*
X1104100Y1954083D2*
X2261127D1*
X2510713D2*
X3874300D1*
X4171510D2*
X4387633D1*
X5938843D2*
X6095933D1*
X1104100Y1890917D2*
X2205937D1*
X2573840D2*
X3874300D1*
X4171510D2*
X4655150D1*
X4835407D2*
X5325497D1*
X5938843D2*
X6095933D1*
X1104100Y1827750D2*
X2181753D1*
X2637093D2*
X3874300D1*
X4171510D2*
X4655150D1*
X4835407D2*
X5325497D1*
X5938843D2*
X6095933D1*
X1104100Y1764583D2*
X2194650D1*
X5938843D2*
X6095933D1*
X1104100Y1701417D2*
X2287917D1*
X5938843D2*
X6095933D1*
X1104100Y1638250D2*
X2361710D1*
X2611293D2*
X3609263D1*
X3884147D2*
X4387633D1*
X5705183D2*
X5758587D1*
X5938843D2*
X6095933D1*
X1104100Y1575083D2*
X2424963D1*
X2674547D2*
X3598223D1*
X3895060D2*
X4387633D1*
X5622833D2*
X5758587D1*
X5938843D2*
X6095933D1*
X1104100Y1511917D2*
X2488090D1*
X2737673D2*
X3325000D1*
X3569253D2*
X3616950D1*
X3876333D2*
X4387633D1*
X5356927D2*
X5758587D1*
X5938843D2*
X6095933D1*
X1104100Y1448750D2*
X2551217D1*
X2800803D2*
X3299823D1*
X3594430D2*
X3692853D1*
X3800430D2*
X4387633D1*
X5356927D2*
X5721630D1*
X5938720D2*
X6095933D1*
X1104100Y1385583D2*
X2614470D1*
X2864053D2*
X3305280D1*
X3588847D2*
X4387633D1*
X5907963D2*
X6095933D1*
X1104100Y1322417D2*
X2677597D1*
X5213680D2*
X5357373D1*
X5844833D2*
X6095933D1*
X1104100Y1259250D2*
X2740727D1*
X5206113D2*
X5378457D1*
X5780343D2*
X6095933D1*
X1104100Y1196083D2*
X2811667D1*
X5146457D2*
X6095933D1*
X1104100Y1132917D2*
X6095933D1*
X2639613Y2694663D2*
X2664507D1*
Y2119083D1*
X2339343D1*
X2630830Y1827663D1*
X3880493Y1827747D1*
X3880610Y2191280D1*
X3697720Y2191330D1*
Y2219483D1*
X3679767Y2215213D1*
X3661293Y2213760D1*
X3642820Y2215213D1*
X3624800Y2219540D1*
X3607680Y2226630D1*
X3591883Y2236313D1*
X3577790Y2248347D1*
X3565757Y2262440D1*
X3556073Y2278237D1*
X3548983Y2295357D1*
X3544657Y2313377D1*
X3543203Y2331850D1*
X3544657Y2350323D1*
X3548983Y2368343D1*
X3557297Y2387643D1*
X3529283Y2387623D1*
X3529403Y2149123D1*
X3244823D1*
Y2229563D1*
X3224450Y2227800D1*
X3204520Y2229543D1*
X3204507Y2119083D1*
X2869927D1*
Y2694663D1*
X2953393D1*
X2953427Y2745087D1*
X2894927Y2745083D1*
Y2784150D1*
X2882730Y2774167D1*
X2862353Y2761683D1*
X2840277Y2752537D1*
X2817040Y2746957D1*
X2793217Y2745083D1*
X2769393Y2746957D1*
X2765957Y2747643D1*
X2746467Y2729587D1*
X2729283Y2719960D1*
X2710323Y2714613D1*
X2697217Y2713583D1*
X2639547D1*
X2329993Y2246083D2*
X2329927Y2259603D1*
X2246627Y2259840D1*
X2227307Y2263683D1*
X2209420Y2271930D1*
X2193950Y2284123D1*
X2193377Y2284747D1*
X2141690Y2336753D1*
X2130747Y2353130D1*
X2123927Y2371610D1*
X2121613Y2391170D1*
X2121647Y2392017D1*
X2121613Y3289473D1*
X1879487Y3289550D1*
Y3708123D1*
X1552997Y3708073D1*
Y3787820D1*
X1383377Y3957127D1*
X1380083Y3937450D1*
X1372697Y3914720D1*
X1361850Y3893430D1*
X1347803Y3874097D1*
X1330903Y3857197D1*
X1315960Y3846083D1*
X1330903Y3834803D1*
X1347803Y3817903D1*
X1361850Y3798570D1*
X1372697Y3777280D1*
X1380083Y3754550D1*
X1383820Y3730950D1*
Y3707050D1*
X1380083Y3683450D1*
X1372697Y3660720D1*
X1361850Y3639430D1*
X1347803Y3620097D1*
X1330903Y3603197D1*
X1315960Y3592083D1*
X1330903Y3580803D1*
X1347803Y3563903D1*
X1361850Y3544570D1*
X1372697Y3523280D1*
X1380083Y3500550D1*
X1383820Y3476950D1*
Y3453050D1*
X1380083Y3429450D1*
X1372697Y3406720D1*
X1361850Y3385430D1*
X1347803Y3366097D1*
X1330903Y3349197D1*
X1315960Y3338083D1*
X1330903Y3326803D1*
X1347803Y3309903D1*
X1361850Y3290570D1*
X1372697Y3269280D1*
X1380083Y3246550D1*
X1383820Y3222950D1*
Y3199050D1*
X1380083Y3175450D1*
X1372697Y3152720D1*
X1361850Y3131430D1*
X1347803Y3112097D1*
X1345233Y3109317D1*
X1384290Y3109290D1*
Y2804710D1*
X1097730D1*
X1097750Y1097750D1*
X6102250D1*
Y2483713D1*
X6041187Y2422920D1*
X6024810Y2411977D1*
X6006330Y2405157D1*
X5998883Y2403757D1*
X5974567Y2382483D1*
X5932383Y2340300D1*
X5932230Y1444503D1*
X5928387Y1425183D1*
X5920140Y1407297D1*
X5907947Y1391827D1*
X5907323Y1391253D1*
X5778733Y1262983D1*
X5762357Y1252040D1*
X5743877Y1245220D1*
X5724317Y1242907D1*
X5723470Y1242940D1*
X5564947Y1242907D1*
X5551133Y1231160D1*
X5535337Y1221477D1*
X5518217Y1214387D1*
X5500197Y1210060D1*
X5481723Y1208607D1*
X5463250Y1210060D1*
X5445230Y1214387D1*
X5428110Y1221477D1*
X5412313Y1231160D1*
X5398220Y1243193D1*
X5386187Y1257287D1*
X5376503Y1273083D1*
X5369413Y1290203D1*
X5365087Y1308223D1*
X5363633Y1326697D1*
X5365087Y1345170D1*
X5369413Y1363190D1*
X5376503Y1380310D1*
X5386187Y1396107D1*
X5398220Y1410200D1*
X5412313Y1422233D1*
X5428110Y1431917D1*
X5445230Y1439007D1*
X5463250Y1443333D1*
X5481723Y1444787D1*
X5500197Y1443333D1*
X5518217Y1439007D1*
X5535337Y1431917D1*
X5551133Y1422233D1*
X5564933Y1410470D1*
X5689710Y1410487D1*
X5764957Y1485833D1*
X5765163Y2381683D1*
X5769007Y2401003D1*
X5777253Y2418890D1*
X5789447Y2434360D1*
X5790070Y2434933D1*
X5905803Y2550347D1*
X5922180Y2561290D1*
X5940660Y2568110D1*
X5948107Y2569510D1*
X5972423Y2590783D1*
X6030390Y2648750D1*
X6030433Y2818107D1*
X6015060Y2812163D1*
X5991823Y2806583D1*
X5968000Y2804710D1*
X5944177Y2806583D1*
X5920940Y2812163D1*
X5898863Y2821310D1*
X5878487Y2833793D1*
X5860313Y2849313D1*
X5844793Y2867487D1*
X5840927Y2873273D1*
X5790627Y2873467D1*
X5771307Y2877310D1*
X5753420Y2885557D1*
X5737950Y2897750D1*
X5737377Y2898373D1*
X5675923Y2960147D1*
X5664980Y2976523D1*
X5658160Y2995003D1*
X5655847Y3014563D1*
X5655880Y3015410D1*
X5656103Y3330050D1*
X5659947Y3349370D1*
X5668193Y3367257D1*
X5668750Y3368090D1*
X5668193Y3367257D1*
X5669723Y3371653D1*
X5671177Y3390127D1*
X5675503Y3408147D1*
X5682593Y3425267D1*
X5692277Y3441063D1*
X5704310Y3455157D1*
X5718403Y3467190D1*
X5734200Y3476873D1*
X5751320Y3483963D1*
X5769340Y3488290D1*
X5787813Y3489743D1*
X5806287Y3488290D1*
X5817160Y3485980D1*
X5823163Y3512060D1*
X5832310Y3534137D1*
X5844793Y3554513D1*
X5860313Y3572687D1*
X5878487Y3588207D1*
X5884040Y3591917D1*
X5869097Y3603197D1*
X5852197Y3620097D1*
X5840927Y3635273D1*
X5280290Y3635210D1*
X5280320Y2982920D1*
X5738190Y2524610D1*
X5749133Y2508233D1*
X5755953Y2489753D1*
X5758267Y2470193D1*
X5758233Y2469347D1*
X5758010Y1724970D1*
X5754167Y1705650D1*
X5745920Y1687763D1*
X5733727Y1672293D1*
X5733103Y1671720D1*
X5701323Y1640260D1*
X5684947Y1629317D1*
X5666467Y1622497D1*
X5646907Y1620183D1*
X5646060Y1620217D1*
X5616520Y1620183D1*
X5616447Y1571683D1*
X5350620D1*
X5350573Y1374157D1*
X5210053D1*
X5209817Y1336927D1*
X5205973Y1317607D1*
X5203277Y1310523D1*
X5201453Y1270290D1*
X5197610Y1250970D1*
X5189363Y1233083D1*
X5177170Y1217613D1*
X5161700Y1205420D1*
X5143813Y1197173D1*
X5124493Y1193330D1*
X4832170Y1193073D1*
X3473000Y1192783D1*
X3453680Y1188940D1*
X2970857Y1188683D1*
X2845747Y1188940D1*
X2826427Y1192783D1*
X2808540Y1201030D1*
X2793070Y1213223D1*
X2792497Y1213847D1*
X2305383Y1700913D1*
X2287380Y1702303D1*
X2269360Y1706630D1*
X2252240Y1713720D1*
X2236443Y1723403D1*
X2222350Y1735437D1*
X2210317Y1749530D1*
X2200633Y1765327D1*
X2193543Y1782447D1*
X2189217Y1800467D1*
X2187763Y1818940D1*
X2189217Y1837413D1*
X2193543Y1855433D1*
X2200633Y1872553D1*
X2210317Y1888350D1*
X2222350Y1902443D1*
X2236443Y1914477D1*
X2252240Y1924160D1*
X2269360Y1931250D1*
X2286207Y1935343D1*
X1744967Y2476530D1*
X1726907Y2477980D1*
X1708887Y2482307D1*
X1691767Y2489397D1*
X1675970Y2499080D1*
X1661877Y2511113D1*
X1649843Y2525207D1*
X1640160Y2541003D1*
X1633070Y2558123D1*
X1628743Y2576143D1*
X1627290Y2594617D1*
X1628743Y2613090D1*
X1633070Y2631110D1*
X1640160Y2648230D1*
X1649843Y2664027D1*
X1661877Y2678120D1*
X1675970Y2690153D1*
X1691767Y2699837D1*
X1708887Y2706927D1*
X1726907Y2711253D1*
X1745380Y2712707D1*
X1763853Y2711253D1*
X1781873Y2706927D1*
X1798993Y2699837D1*
X1814790Y2690153D1*
X1828883Y2678120D1*
X1840917Y2664027D1*
X1850600Y2648230D1*
X1857690Y2631110D1*
X1862017Y2613090D1*
X1863453Y2595013D1*
X2329927Y2128533D1*
Y2258783D1*
X3091320Y4197290D2*
X3116213D1*
Y3621710D1*
X2781633D1*
Y3762227D1*
X2724530Y3762467D1*
X2705210Y3766310D1*
X2687323Y3774557D1*
X2671853Y3786750D1*
X2671280Y3787373D1*
X2567793Y3891180D1*
X2556850Y3907557D1*
X2550033Y3926037D1*
X2547717Y3945597D1*
X2547750Y3946443D1*
X2547717Y4365913D1*
X2522260Y4359463D1*
X2500000Y4357710D1*
X2477740Y4359463D1*
X2456030Y4364673D1*
X2435403Y4373220D1*
X2416363Y4384883D1*
X2399387Y4399387D1*
X2384883Y4416363D1*
X2373220Y4435403D1*
X2364673Y4456030D1*
X2359463Y4477740D1*
X2357710Y4500000D1*
X2359447Y4522130D1*
X2315257Y4566247D1*
X2142260Y4566210D1*
X2142290Y4422303D1*
X2342290Y4422290D1*
Y3967710D1*
X2289083D1*
X2289193Y3935420D1*
X2306940Y3944260D1*
X2328177Y3951160D1*
X2350230Y3954650D1*
X2372557D1*
X2394610Y3951160D1*
X2415847Y3944260D1*
X2435740Y3934123D1*
X2453803Y3920997D1*
X2469590Y3905210D1*
X2482717Y3887147D1*
X2492853Y3867253D1*
X2499753Y3846017D1*
X2503243Y3823963D1*
Y3801637D1*
X2499753Y3779583D1*
X2492853Y3758347D1*
X2482717Y3738453D1*
X2469590Y3720390D1*
X2453803Y3704603D1*
X2435740Y3691477D1*
X2415847Y3681340D1*
X2394610Y3674440D1*
X2372557Y3670950D1*
X2350230D1*
X2328177Y3674440D1*
X2306940Y3681340D1*
X2289140Y3690303D1*
X2289193Y3541560D1*
X2300843Y3555247D1*
X2314937Y3567280D1*
X2330733Y3576963D1*
X2347853Y3584053D1*
X2365873Y3588380D1*
X2384347Y3589833D1*
X2402820Y3588380D1*
X2420840Y3584053D1*
X2437960Y3576963D1*
X2453757Y3567280D1*
X2467557Y3555517D1*
X3626193Y3555533D1*
X3635207Y3573770D1*
X3646097Y3588760D1*
X3659200Y3601863D1*
X3674190Y3612753D1*
X3690703Y3621167D1*
X3708327Y3626893D1*
X3726627Y3629793D1*
X3745160D1*
X3763460Y3626893D1*
X3781083Y3621167D1*
X3797597Y3612753D1*
X3812587Y3601863D1*
X3825690Y3588760D1*
X3836580Y3573770D1*
X3844993Y3557257D1*
X3850720Y3539633D1*
X3853620Y3521333D1*
Y3502800D1*
X3850720Y3484500D1*
X3844993Y3466877D1*
X3836580Y3450363D1*
X3825690Y3435373D1*
X3812587Y3422270D1*
X3797597Y3411380D1*
X3781083Y3402967D1*
X3760653Y3396680D1*
X3760673Y3306820D1*
X3845350Y3306897D1*
X3919747Y3381367D1*
X3919240Y3655740D1*
X3704510D1*
Y3728987D1*
X3681843Y3723037D1*
X3663370Y3721583D1*
X3656240Y3721863D1*
X3656213Y3621710D1*
X3321633D1*
Y4004320D1*
X3304423Y3991420D1*
X3287910Y3983007D1*
X3270287Y3977280D1*
X3251987Y3974380D1*
X3233453D1*
X3215153Y3977280D1*
X3197530Y3983007D1*
X3181017Y3991420D1*
X3166027Y4002310D1*
X3152923Y4015413D1*
X3142033Y4030403D1*
X3133620Y4046917D1*
X3127893Y4064540D1*
X3124993Y4082840D1*
Y4101373D1*
X3127893Y4119673D1*
X3133620Y4137297D1*
X3142033Y4153810D1*
X3152923Y4168800D1*
X3166027Y4181903D1*
X3181017Y4192793D1*
X3197530Y4201207D1*
X3215153Y4206933D1*
X3233453Y4209833D1*
X3251987D1*
X3270287Y4206933D1*
X3287910Y4201207D1*
X3304423Y4192793D1*
X3321620Y4179863D1*
X3321633Y4197290D1*
X3415273D1*
X3415133Y4247790D1*
X3346633Y4247710D1*
Y4286777D1*
X3334437Y4276793D1*
X3314060Y4264310D1*
X3291983Y4255163D1*
X3268747Y4249583D1*
X3244923Y4247710D1*
X3221100Y4249583D1*
X3217663Y4250270D1*
X3198173Y4232213D1*
X3180990Y4222587D1*
X3162030Y4217240D1*
X3148923Y4216210D1*
X3091253D1*
X2781633Y4124130D2*
Y4197290D1*
X2806563D1*
X2806633Y4632290D1*
X2985817Y4632760D1*
X2998923Y4633790D1*
X3705497Y4633533D1*
X3724817Y4629690D1*
X3742703Y4621443D1*
X3758173Y4609250D1*
X3758747Y4608627D1*
X3817543Y4549877D1*
X3844923Y4552290D1*
X3868747Y4550417D1*
X3891983Y4544837D1*
X3914060Y4535690D1*
X3934437Y4523207D1*
X3946607Y4513233D1*
X3946633Y4552290D1*
X4251213D1*
Y4247710D1*
X4182630D1*
X4182713Y3473420D1*
X4214560Y3441663D1*
X4340673Y3441633D1*
Y2877053D1*
X4150843D1*
X4161147Y2862743D1*
X4169560Y2846230D1*
X4175287Y2828607D1*
X4178187Y2810307D1*
Y2791773D1*
X4175287Y2773473D1*
X4169560Y2755850D1*
X4161147Y2739337D1*
X4150257Y2724347D1*
X4137153Y2711243D1*
X4122163Y2700353D1*
X4105650Y2691940D1*
X4088027Y2686213D1*
X4069727Y2683313D1*
X4051193D1*
X4032717Y2686263D1*
X4032700Y2545320D1*
X3753777D1*
X3658370Y2449880D1*
X3679767Y2448487D1*
X3697750Y2444170D1*
X3697720Y2475910D1*
X4043867D1*
X4676113Y3108220D1*
X4676043Y3348900D1*
X4436897Y3348920D1*
X4436767Y3656300D1*
X4422673Y3644267D1*
X4406877Y3634583D1*
X4389757Y3627493D1*
X4371737Y3623167D1*
X4353263Y3621713D1*
X4334790Y3623167D1*
X4316770Y3627493D1*
X4299650Y3634583D1*
X4283853Y3644267D1*
X4269760Y3656300D1*
X4257727Y3670393D1*
X4248043Y3686190D1*
X4240953Y3703310D1*
X4236627Y3721330D1*
X4235173Y3739803D1*
X4236627Y3758277D1*
X4240953Y3776297D1*
X4246633Y3790357D1*
X4246647Y4019620D1*
X4385927D1*
X4323427Y4082530D1*
X4312483Y4098907D1*
X4305667Y4117387D1*
X4303350Y4136947D1*
X4303383Y4137793D1*
X4302710Y4666530D1*
X4292710Y4675067D1*
X4165463Y4802317D1*
X4035443Y4802337D1*
X4033900Y4788097D1*
X4035353Y4769623D1*
X4033900Y4751150D1*
X4029573Y4733130D1*
X4022483Y4716010D1*
X4012800Y4700213D1*
X4000767Y4686120D1*
X3986673Y4674087D1*
X3970877Y4664403D1*
X3953757Y4657313D1*
X3935737Y4652987D1*
X3917263Y4651533D1*
X3898790Y4652987D1*
X3880770Y4657313D1*
X3863650Y4664403D1*
X3847853Y4674087D1*
X3830687Y4689447D1*
X3599643Y4689437D1*
Y4785950D1*
X3577353Y4778177D1*
X3559053Y4775277D1*
X3540520D1*
X3528507Y4776927D1*
X3528540Y4671710D1*
X3193960D1*
Y5247290D1*
X3277427D1*
X3277460Y5297713D1*
X3218960Y5297710D1*
Y5336777D1*
X3206763Y5326793D1*
X3186387Y5314310D1*
X3164310Y5305163D1*
X3141073Y5299583D1*
X3117250Y5297710D1*
X3093427Y5299583D1*
X3086600Y5300943D1*
X3066500Y5282213D1*
X3049317Y5272587D1*
X3030357Y5267240D1*
X3017250Y5266210D1*
X2963547D1*
X2963540Y5247263D1*
X2988540Y5247290D1*
Y4671710D1*
X2653960D1*
Y4812227D1*
X2610783Y4812210D1*
X2601223Y4793870D1*
X2588097Y4775807D1*
X2572310Y4760020D1*
X2554247Y4746893D1*
X2534353Y4736757D1*
X2513117Y4729857D1*
X2491063Y4726367D1*
X2468737D1*
X2446683Y4729857D1*
X2425447Y4736757D1*
X2405553Y4746893D1*
X2387490Y4760020D1*
X2371703Y4775807D1*
X2358577Y4793870D1*
X2348440Y4813763D1*
X2342287Y4832353D1*
X2342290Y4817710D1*
X2057710D1*
Y4860993D1*
X1958773Y4860900D1*
X1958843Y4802400D1*
X1942843D1*
X1951423Y4799613D1*
X1969903Y4792793D1*
X1981900Y4785303D1*
X2016460Y4782290D1*
X2142290D1*
Y4733797D1*
X2356573Y4733533D1*
X2375893Y4729690D1*
X2393780Y4721443D1*
X2409250Y4709250D1*
X2409823Y4708627D1*
X2477917Y4640580D1*
X2500000Y4642290D1*
X2522260Y4640537D1*
X2543970Y4635327D1*
X2564597Y4626780D1*
X2583637Y4615117D1*
X2600613Y4600613D1*
X2615117Y4583637D1*
X2626780Y4564597D1*
X2635327Y4543970D1*
X2640933Y4518923D1*
X2652560Y4509250D1*
X2695220Y4466220D1*
X2706163Y4449843D1*
X2712980Y4431363D1*
X2715297Y4411803D1*
X2715263Y4410957D1*
X2715297Y4124690D1*
X2728743Y4127730D1*
X2747217Y4129183D1*
X2765690Y4127730D1*
X2781653Y4123983D1*
X2653960Y5159247D2*
Y5247290D1*
X2678890D1*
X2678960Y5672290D1*
X2787480D1*
X2787717Y5757353D1*
X2791560Y5776673D1*
X2799807Y5794560D1*
X2812000Y5810030D1*
X2827470Y5822223D1*
X2845357Y5830470D1*
X2864677Y5834313D1*
X2986467Y5834570D1*
X2997820Y5849683D1*
X3014720Y5866583D1*
X3034053Y5880630D1*
X3055343Y5891477D1*
X3078073Y5898863D1*
X3101673Y5902600D1*
X3125573D1*
X3149173Y5898863D1*
X3171903Y5891477D1*
X3193193Y5880630D1*
X3212527Y5866583D1*
X3215307Y5864013D1*
X3215333Y5903070D1*
X3283920D1*
X3284090Y6003940D1*
X3287933Y6023260D1*
X3296180Y6041147D1*
X3303183Y6051017D1*
X3304637Y6069490D1*
X3308963Y6087510D1*
X3316053Y6104630D1*
X3325737Y6120427D1*
X3337770Y6134520D1*
X3351863Y6146553D1*
X3366810Y6155757D1*
X3125537Y6155740D1*
Y6233007D1*
X3108627Y6229043D1*
X3090153Y6227590D1*
X3071680Y6229043D1*
X3057323Y6232337D1*
X3057290Y6121710D1*
X2722710D1*
Y6697290D1*
X2806177D1*
X2806210Y6747713D1*
X2747710Y6747710D1*
Y6786777D1*
X2735513Y6776793D1*
X2715137Y6764310D1*
X2693060Y6755163D1*
X2669823Y6749583D1*
X2646000Y6747710D1*
X2622177Y6749583D1*
X2618740Y6750270D1*
X2599250Y6732213D1*
X2582067Y6722587D1*
X2563107Y6717240D1*
X2550000Y6716210D1*
X2492330D1*
X2492290Y6697267D1*
X2517290Y6697290D1*
Y6121710D1*
X2182710D1*
Y6214257D1*
X2083800Y6115303D1*
X2083790Y5998320D1*
X2088360Y5983217D1*
X2091850Y5961163D1*
Y5938837D1*
X2088360Y5916783D1*
X2083770Y5901813D1*
X2083790Y5582343D1*
X2142290Y5582290D1*
Y5272310D1*
X2342290Y5272290D1*
Y5033743D1*
X2464623Y5033790D1*
X2460477Y5051220D1*
X2459023Y5069693D1*
X2460477Y5088167D1*
X2464803Y5106187D1*
X2471893Y5123307D1*
X2481577Y5139103D1*
X2493610Y5153197D1*
X2507703Y5165230D1*
X2523500Y5174913D1*
X2540620Y5182003D1*
X2558640Y5186330D1*
X2577113Y5187783D1*
X2595587Y5186330D1*
X2613607Y5182003D1*
X2630727Y5174913D1*
X2646523Y5165230D1*
X2653940Y5159367D1*
X3528473Y5120290D2*
X3528540Y5106770D1*
Y5120290D1*
Y5106770D1*
X3599747Y5106790D1*
X3599643Y5144017D1*
X3656817D1*
X3648603Y5157807D1*
X3641513Y5174927D1*
X3637187Y5192947D1*
X3635733Y5211420D1*
X3637187Y5229893D1*
X3641513Y5247913D1*
X3648603Y5265033D1*
X3658287Y5280830D1*
X3670320Y5294923D1*
X3684413Y5306957D1*
X3700210Y5316640D1*
X3717330Y5323730D1*
X3735350Y5328057D1*
X3753823Y5329510D1*
X3772297Y5328057D1*
X3790317Y5323730D1*
X3807437Y5316640D1*
X3823233Y5306957D1*
X3837327Y5294923D1*
X3849360Y5280830D1*
X3859043Y5265033D1*
X3866133Y5247913D1*
X3870460Y5229893D1*
X3871913Y5211420D1*
X3870460Y5192947D1*
X3866133Y5174927D1*
X3859043Y5157807D1*
X3850710Y5144027D1*
X3884223Y5144017D1*
Y5086843D1*
X4015687Y5086917D1*
X4015690Y5503790D1*
X4207207D1*
X4207227Y5591567D1*
X3879857Y5591583D1*
Y5695640D1*
X3849803Y5725753D1*
X3826297Y5728350D1*
X3826093Y5581787D1*
X3822250Y5562467D1*
X3814003Y5544580D1*
X3801810Y5529110D1*
X3801187Y5528537D1*
X3726293Y5453963D1*
X3709917Y5443020D1*
X3691437Y5436203D1*
X3671877Y5433887D1*
X3671030Y5433920D1*
X3523420Y5433887D1*
X3523540Y5297710D1*
X3445033D1*
X3445040Y5247390D1*
X3528540Y5247290D1*
Y5120290D1*
X2182710Y6556660D2*
Y6697290D1*
X2207640D1*
X2207710Y7122290D1*
X2363857D1*
X2497710Y7256460D1*
Y7402290D1*
X2802290D1*
Y7363223D1*
X2814487Y7373207D1*
X2834863Y7385690D1*
X2856940Y7394837D1*
X2880177Y7400417D1*
X2904000Y7402290D1*
X2927823Y7400417D1*
X2951060Y7394837D1*
X2973137Y7385690D1*
X2993513Y7373207D1*
X3011687Y7357687D1*
X3027207Y7339513D1*
X3031073Y7333727D1*
X3231280Y7333533D1*
X3250600Y7329690D1*
X3268487Y7321443D1*
X3283957Y7309250D1*
X3284530Y7308627D1*
X3563097Y7030107D1*
X3581113Y7028703D1*
X3599133Y7024377D1*
X3616253Y7017287D1*
X3632050Y7007603D1*
X3646143Y6995570D1*
X3658177Y6981477D1*
X3667860Y6965680D1*
X3674950Y6948560D1*
X3679277Y6930540D1*
X3680730Y6912067D1*
X3679277Y6893593D1*
X3674110Y6873297D1*
X3721993Y6873270D1*
X3722163Y6949647D1*
X3726007Y6968967D1*
X3734253Y6986853D1*
X3746447Y7002323D1*
X3747070Y7002897D1*
X3765253Y7020760D1*
X3781630Y7031703D1*
X3800110Y7038523D1*
X3819670Y7040837D1*
X3820517Y7040803D1*
X3986887Y7040580D1*
X4006207Y7036737D1*
X4012513Y7034390D1*
X4076050Y7034157D1*
X4095370Y7030313D1*
X4113257Y7022067D1*
X4128727Y7009873D1*
X4129300Y7009250D1*
X4165647Y6972950D1*
X4321787Y6972893D1*
Y6830140D1*
X4692307Y6459387D1*
X4703250Y6443010D1*
X4710070Y6424530D1*
X4712383Y6404970D1*
X4712350Y6404123D1*
X4712383Y5167093D1*
X4766683Y5112850D1*
X4839807Y5185900D1*
X4839890Y5319537D1*
X5294470D1*
Y5081583D1*
X5504010Y5081607D1*
Y5078010D1*
X5609213Y5077850D1*
X5628533Y5074007D1*
X5646420Y5065760D1*
X5661890Y5053567D1*
X5662463Y5052943D1*
X5697580Y5017873D1*
X5715623Y5016443D1*
X5733643Y5012117D1*
X5750763Y5005027D1*
X5766560Y4995343D1*
X5780653Y4983310D1*
X5792687Y4969217D1*
X5802370Y4953420D1*
X5809460Y4936300D1*
X5813787Y4918280D1*
X5815240Y4899807D1*
X5813787Y4881333D1*
X5809460Y4863313D1*
X5802370Y4846193D1*
X5792687Y4830397D1*
X5780653Y4816303D1*
X5766560Y4804270D1*
X5750763Y4794587D1*
X5733643Y4787497D1*
X5715623Y4783170D1*
X5697150Y4781717D1*
X5678677Y4783170D1*
X5669973Y4784903D1*
X5659763Y4763757D1*
X5648873Y4748767D1*
X5635770Y4735663D1*
X5620780Y4724773D1*
X5604267Y4716360D1*
X5586643Y4710633D1*
X5568343Y4707733D1*
X5549810D1*
X5531510Y4710633D1*
X5513887Y4716360D1*
X5503980Y4721073D1*
X5504387Y4688107D1*
X5523947Y4685793D1*
X5542427Y4678973D1*
X5558803Y4668030D1*
X5641473Y4585360D1*
X5652417Y4568983D1*
X5659237Y4550503D1*
X5661550Y4530943D1*
X5661517Y4530097D1*
X5661293Y4338077D1*
X5657450Y4318757D1*
X5657137Y4317913D1*
X5657450Y4318757D1*
X5657337Y4297233D1*
X5654437Y4278933D1*
X5648710Y4261310D1*
X5640297Y4244797D1*
X5629407Y4229807D1*
X5616303Y4216703D1*
X5601313Y4205813D1*
X5584800Y4197400D1*
X5567177Y4191673D1*
X5548877Y4188773D1*
X5530343D1*
X5512043Y4191673D1*
X5494420Y4197400D1*
X5477907Y4205813D1*
X5462917Y4216703D1*
X5456400Y4222727D1*
X5424640Y4222710D1*
X5420933Y4207950D1*
X5413843Y4190830D1*
X5404160Y4175033D1*
X5392127Y4160940D1*
X5378033Y4148907D1*
X5362237Y4139223D1*
X5345117Y4132133D1*
X5327097Y4127807D1*
X5308623Y4126353D1*
X5290150Y4127807D1*
X5280253Y4129843D1*
X5280320Y3802753D1*
X5840833Y3802790D1*
X5852197Y3817903D1*
X5869097Y3834803D1*
X5884040Y3845917D1*
X5867293Y3858760D1*
X5853827Y3872220D1*
X5842147Y3887250D1*
X5832430Y3903623D1*
X5824833Y3921080D1*
X5819473Y3939347D1*
X5816437Y3958140D1*
X5815767Y3977167D1*
X5817477Y3996127D1*
X5821537Y4014727D1*
X5827887Y4032673D1*
X5836427Y4049687D1*
X5847023Y4065503D1*
X5859510Y4079877D1*
X5873693Y4092577D1*
X5883960Y4100000D1*
X5869097Y4111197D1*
X5852197Y4128097D1*
X5838150Y4147430D1*
X5827303Y4168720D1*
X5819917Y4191450D1*
X5816180Y4215050D1*
Y4238950D1*
X5819917Y4262550D1*
X5827303Y4285280D1*
X5838150Y4306570D1*
X5852197Y4325903D1*
X5869097Y4342803D1*
X5884040Y4353917D1*
X5869097Y4365197D1*
X5852197Y4382097D1*
X5838150Y4401430D1*
X5827303Y4422720D1*
X5819917Y4445450D1*
X5816180Y4469050D1*
Y4492950D1*
X5819917Y4516550D1*
X5827303Y4539280D1*
X5838150Y4560570D1*
X5852197Y4579903D1*
X5869097Y4596803D1*
X5884040Y4607917D1*
X5869097Y4619197D1*
X5852197Y4636097D1*
X5838150Y4655430D1*
X5827303Y4676720D1*
X5819917Y4699450D1*
X5816180Y4723050D1*
Y4746950D1*
X5819917Y4770550D1*
X5827303Y4793280D1*
X5838150Y4814570D1*
X5852197Y4833903D1*
X5869097Y4850803D1*
X5884040Y4861917D1*
X5869097Y4873197D1*
X5852197Y4890097D1*
X5838150Y4909430D1*
X5827303Y4930720D1*
X5819917Y4953450D1*
X5816180Y4977050D1*
Y5000950D1*
X5819917Y5024550D1*
X5827303Y5047280D1*
X5838150Y5068570D1*
X5852197Y5087903D1*
X5854767Y5090683D1*
X5815710Y5090710D1*
Y5395290D1*
X6102270D1*
X6102250Y7702250D1*
X1097750D1*
Y5314923D1*
X1108793Y5332513D1*
X1124313Y5350687D1*
X1142487Y5366207D1*
X1162863Y5378690D1*
X1184940Y5387837D1*
X1208177Y5393417D1*
X1232000Y5395290D1*
X1255823Y5393417D1*
X1262650Y5392057D1*
X1384583Y5513713D1*
X1400960Y5524657D1*
X1419440Y5531477D1*
X1439000Y5533790D1*
X1439847Y5533757D1*
X1477820Y5533790D1*
X1477710Y5592290D1*
X1916130D1*
X1916210Y5811777D1*
X1895547Y5818540D1*
X1875653Y5828677D1*
X1857590Y5841803D1*
X1841803Y5857590D1*
X1828677Y5875653D1*
X1818540Y5895547D1*
X1811640Y5916783D1*
X1808150Y5938837D1*
Y5961163D1*
X1811640Y5983217D1*
X1818540Y6004453D1*
X1828677Y6024347D1*
X1832193Y6029607D1*
X1810493Y6020040D1*
X1792473Y6015713D1*
X1774000Y6014260D1*
X1755527Y6015713D1*
X1737507Y6020040D1*
X1720387Y6027130D1*
X1704590Y6036813D1*
X1690497Y6048847D1*
X1678463Y6062940D1*
X1668780Y6078737D1*
X1661690Y6095857D1*
X1657363Y6113877D1*
X1655910Y6132350D1*
X1657363Y6150823D1*
X1661690Y6168843D1*
X1668780Y6185963D1*
X1678463Y6201760D1*
X1690497Y6215853D1*
X1704590Y6227887D1*
X1720387Y6237570D1*
X1737507Y6244660D1*
X1755527Y6248987D1*
X1773603Y6250423D1*
X2060233Y6536713D1*
X2076610Y6547657D1*
X2095090Y6554477D1*
X2114650Y6556790D1*
X2115497Y6556757D1*
X2182740Y6556790D1*
X2182833Y6570290D1*
X2973857Y6697290D2*
X3057290D1*
Y6683770D1*
X3106670Y6683790D1*
X3127847Y6703547D1*
X3145030Y6713173D1*
X3163990Y6718520D1*
X3177097Y6719550D1*
X3292820Y6719600D1*
X3311780Y6724947D1*
X3324887Y6725977D1*
X3380573D1*
X3383557Y6746860D1*
X3389283Y6764483D1*
X3397697Y6780997D1*
X3408587Y6795987D1*
X3421690Y6809090D1*
X3436680Y6819980D1*
X3453193Y6828393D1*
X3473480Y6834650D1*
X3461953Y6850363D1*
X3453540Y6866877D1*
X3447813Y6884500D1*
X3444913Y6902800D1*
X3444567Y6911670D1*
X3190047Y7166163D1*
X3031107Y7166210D1*
X3019803Y7151097D1*
X3002903Y7134197D1*
X2983570Y7120150D1*
X2962280Y7109303D1*
X2939550Y7101917D1*
X2915950Y7098180D1*
X2892050D1*
X2868450Y7101917D1*
X2845720Y7109303D1*
X2824430Y7120150D1*
X2805097Y7134197D1*
X2802317Y7136767D1*
X2802290Y7097710D1*
X2576197D1*
X2492363Y7013863D1*
X2492290Y6883793D1*
X2494180Y6888050D1*
Y6911950D1*
X2497917Y6935550D1*
X2505303Y6958280D1*
X2516150Y6979570D1*
X2530197Y6998903D1*
X2547097Y7015803D1*
X2566430Y7029850D1*
X2587720Y7040697D1*
X2610450Y7048083D1*
X2634050Y7051820D1*
X2657950D1*
X2681550Y7048083D1*
X2704280Y7040697D1*
X2725570Y7029850D1*
X2744903Y7015803D1*
X2747683Y7013233D1*
X2747710Y7052290D1*
X3052290D1*
Y6747710D1*
X2973783D1*
X2973790Y6697390D1*
X5104470Y5035077D2*
X4925753Y5034957D1*
X4924010Y5013020D1*
X4972393Y5012850D1*
X4991713Y5009007D1*
X5009600Y5000760D1*
X5025070Y4988567D1*
X5025643Y4987943D1*
X5102600Y4910667D1*
X5113543Y4894290D1*
X5120360Y4875810D1*
X5122677Y4856250D1*
X5122643Y4855403D1*
X5122677Y4631890D1*
X5163830Y4619650D1*
X5189503D1*
X5189430Y5016607D1*
Y5034893D1*
X5029890Y5034980D1*
X5009600Y5000760D1*
X5025070Y4988567D1*
X5465043Y2026263D2*
X5590703D1*
X5590687Y2435623D1*
X5132817Y2893723D1*
X5121873Y2910100D1*
X5115053Y2928580D1*
X5112740Y2948140D1*
X5112773Y2948987D1*
X5112997Y4401043D1*
X5116840Y4420363D1*
X5125087Y4438250D1*
X5133497Y4449623D1*
X5093757Y4452327D1*
X5074437Y4456170D1*
X5056550Y4464417D1*
X5055717Y4464973D1*
X5056550Y4464417D1*
X5055717Y4464973D1*
X5053643Y4451033D1*
Y4028203D1*
X4843623Y4027710D1*
X4843367Y3066870D1*
X4839523Y3047550D1*
X4831277Y3029663D1*
X4819083Y3014193D1*
X4818460Y3013620D1*
X4152317Y2347427D1*
X4152300Y2237660D1*
X4165190Y2237703D1*
Y1827710D1*
X4624857Y1827490D1*
X4644177Y1823647D1*
X4657197Y1818123D1*
X4661493Y1827197D1*
Y1914137D1*
X4393993Y1914157D1*
Y2164560D1*
X4377703Y2156610D1*
X4356467Y2149710D1*
X4334413Y2146220D1*
X4312087D1*
X4290033Y2149710D1*
X4268797Y2156610D1*
X4248903Y2166747D1*
X4230840Y2179873D1*
X4215053Y2195660D1*
X4201927Y2213723D1*
X4191790Y2233617D1*
X4184890Y2254853D1*
X4181400Y2276907D1*
Y2299233D1*
X4184890Y2321287D1*
X4191790Y2342523D1*
X4201927Y2362417D1*
X4215053Y2380480D1*
X4230840Y2396267D1*
X4248903Y2409393D1*
X4268797Y2419530D1*
X4290033Y2426430D1*
X4312087Y2429920D1*
X4334413D1*
X4356467Y2426430D1*
X4377703Y2419530D1*
X4397597Y2409393D1*
X4415660Y2396267D1*
X4431447Y2380480D1*
X4444573Y2362417D1*
X4446383Y2359180D1*
X4454837Y2380840D1*
X4464520Y2396637D1*
X4476553Y2410730D1*
X4490647Y2422763D1*
X4506443Y2432447D1*
X4523563Y2439537D1*
X4541583Y2443863D1*
X4560057Y2445317D1*
X4578530Y2443863D1*
X4596550Y2439537D1*
X4613670Y2432447D1*
X4629467Y2422763D1*
X4643560Y2410730D1*
X4655593Y2396637D1*
X4665277Y2380840D1*
X4672367Y2363720D1*
X4676693Y2345700D1*
X4678147Y2327227D1*
X4676693Y2308753D1*
X4672367Y2290733D1*
X4665277Y2273613D1*
X4655593Y2257817D1*
X4648207Y2248750D1*
X4670627Y2251723D1*
X4681570Y2268100D1*
X4751453Y2337983D1*
X4767830Y2348927D1*
X4786310Y2355743D1*
X4805870Y2358060D1*
X4806717Y2358027D1*
X5005857Y2357803D1*
X5025177Y2353960D1*
X5043063Y2345713D1*
X5058533Y2333520D1*
X5070727Y2318050D1*
X5078973Y2300163D1*
X5082817Y2280843D1*
X5083073Y2248847D1*
X5350573Y2248737D1*
Y2232737D1*
X5370380Y2241333D1*
X5388400Y2245660D1*
X5406873Y2247113D1*
X5425347Y2245660D1*
X5443367Y2241333D1*
X5460487Y2234243D1*
X5476283Y2224560D1*
X5490377Y2212527D1*
X5502410Y2198433D1*
X5512093Y2182637D1*
X5519183Y2165517D1*
X5523510Y2147497D1*
X5524963Y2129023D1*
X5523510Y2110550D1*
X5519183Y2092530D1*
X5512093Y2075410D1*
X5502410Y2059613D1*
X5490377Y2045520D1*
X5476283Y2033487D1*
X5464877Y2026263D1*
X5331867Y1787753D2*
Y1914157D1*
X4829057D1*
X4829073Y1791603D1*
X4844537Y1798543D1*
X4863857Y1802387D1*
X4883537Y1801613D1*
X4902497Y1796267D1*
X4915043Y1789740D1*
X4948810Y1787763D1*
X5331920D1*
X5331990Y1836263D1*
X4321787Y6593310D2*
Y6518313D1*
X4107253D1*
X4102527Y6497437D1*
X4095437Y6480317D1*
X4085753Y6464520D1*
X4073720Y6450427D1*
X4059627Y6438393D1*
X4043830Y6428710D1*
X4033223Y6423877D1*
X4051697Y6425330D1*
X4072377Y6423793D1*
X4085490Y6424827D1*
X4413037D1*
X4451553Y6463517D1*
X4321730Y6593337D1*
X4335593Y5723320D2*
X4491807D1*
Y5637867D1*
X4517113Y5636970D1*
X4536073Y5631623D1*
X4542920Y5628377D1*
X4544803Y5640443D1*
Y6319720D1*
X4501990Y6277323D1*
X4485613Y6266380D1*
X4467133Y6259563D1*
X4447573Y6257247D1*
X4446727Y6257280D1*
X4158723Y6257247D1*
X4147233Y6237830D1*
X4135200Y6223737D1*
X4121107Y6211703D1*
X4105310Y6202020D1*
X4090330Y6195720D1*
X4112863Y6173237D1*
X4131017Y6171697D1*
X4149037Y6167370D1*
X4166157Y6160280D1*
X4181953Y6150597D1*
X4196047Y6138563D1*
X4208080Y6124470D1*
X4217763Y6108673D1*
X4224853Y6091553D1*
X4229180Y6073533D1*
X4230633Y6055060D1*
X4229180Y6036587D1*
X4224853Y6018567D1*
X4217763Y6001447D1*
X4208080Y5985650D1*
X4196047Y5971557D1*
X4181953Y5959523D1*
X4166157Y5949840D1*
X4149037Y5942750D1*
X4131017Y5938423D1*
X4112543Y5936970D1*
X4094070Y5938423D1*
X4076050Y5942750D1*
X4058930Y5949840D1*
X4043133Y5959523D1*
X4029040Y5971557D1*
X4022500Y5978680D1*
X3954463Y5977957D1*
X3952323Y5961027D1*
X3946797Y5944883D1*
X3937327Y5929200D1*
X3939930Y5920613D1*
X3950820Y5905623D1*
X3959233Y5889110D1*
X3963633Y5876193D1*
X4334437Y5876163D1*
Y5724483D1*
X2057730Y5127710D2*
X1857710D1*
Y5307717D1*
X1477710Y5307710D1*
Y5366123D1*
X1453347Y5345850D1*
X1381173Y5273673D1*
X1383820Y5254950D1*
Y5231050D1*
X1380083Y5207450D1*
X1372697Y5184720D1*
X1361850Y5163430D1*
X1347803Y5144097D1*
X1330903Y5127197D1*
X1315960Y5116083D1*
X1330903Y5104803D1*
X1347803Y5087903D1*
X1361850Y5068570D1*
X1372697Y5047280D1*
X1378980Y5028463D1*
X1504140Y5028480D1*
X1504263Y5086980D1*
X1958843D1*
Y5028563D1*
X2057610Y5028480D1*
X2057833Y5082290D1*
X2057710Y5071710D1*
Y5082290D1*
Y4183633D2*
Y4327697D1*
X1857710Y4327710D1*
Y4575830D1*
X1488330Y4575847D1*
Y4634260D1*
X1346403Y4634347D1*
X1330903Y4619197D1*
X1315960Y4608083D1*
X1330903Y4596803D1*
X1347803Y4579903D1*
X1361850Y4560570D1*
X1372697Y4539280D1*
X1380083Y4516550D1*
X1383820Y4492950D1*
Y4469050D1*
X1381057Y4450350D1*
X1570917Y4260580D1*
X1570940Y4265737D1*
X2025520D1*
Y4183757D1*
X2057690Y4183790D1*
X2057710Y4233910D1*
X4769183Y4218203D2*
X4769063Y4374347D1*
X4718700Y4425017D1*
X4707757Y4441393D1*
X4704653Y4448310D1*
X4701760Y4452027D1*
X4609430D1*
Y4520610D1*
X4573617Y4520527D1*
X4573740Y4332287D1*
X4769057Y4136983D1*
X4769090Y4292783D1*
X3410117Y6372073D2*
Y6168577D1*
X3430540Y6168743D1*
X3440350Y6167533D1*
X3440297Y6363280D1*
X3410117Y6356320D1*
X3409993Y6345740D1*
X3888523Y1571727D2*
X3885033Y1549673D1*
X3878133Y1528437D1*
X3867997Y1508543D1*
X3854870Y1490480D1*
X3839083Y1474693D1*
X3821020Y1461567D1*
X3801127Y1451430D1*
X3779890Y1444530D1*
X3757837Y1441040D1*
X3735510D1*
X3713457Y1444530D1*
X3692220Y1451430D1*
X3672327Y1461567D1*
X3654263Y1474693D1*
X3638477Y1490480D1*
X3625350Y1508543D1*
X3615213Y1528437D1*
X3608313Y1549673D1*
X3604823Y1571727D1*
Y1594053D1*
X3608313Y1616107D1*
X3615213Y1637343D1*
X3625350Y1657237D1*
X3627317Y1660177D1*
X2589467Y1660423D1*
X2581950Y1661393D1*
X2886993Y1356300D1*
X3324973Y1356263D1*
X3315647Y1374710D1*
X3308747Y1395947D1*
X3305257Y1418000D1*
Y1440327D1*
X3308747Y1462380D1*
X3315647Y1483617D1*
X3325783Y1503510D1*
X3338910Y1521573D1*
X3354697Y1537360D1*
X3372760Y1550487D1*
X3392653Y1560623D1*
X3413890Y1567523D1*
X3435943Y1571013D1*
X3458270D1*
X3480323Y1567523D1*
X3501560Y1560623D1*
X3521453Y1550487D1*
X3539517Y1537360D1*
X3555303Y1521573D1*
X3568430Y1503510D1*
X3578567Y1483617D1*
X3585467Y1462380D1*
X3588957Y1440327D1*
Y1418000D1*
X3585467Y1395947D1*
X3578567Y1374710D1*
X3571690Y1360643D1*
X4661667Y1360653D1*
X4659037Y1372603D1*
X4647993Y1374280D1*
X4393993Y1374157D1*
Y1660280D1*
X3866080Y1660167D1*
X3878133Y1637343D1*
X3885033Y1616107D1*
X3888523Y1594053D1*
Y1571727D1*
X4924010Y4845553D2*
X4923970Y4482783D1*
X5034890D1*
X4975173Y4542887D1*
X4964230Y4559263D1*
X4957410Y4577743D1*
X4955097Y4597303D1*
X4955130Y4598150D1*
X4955097Y4821663D1*
X4931140Y4845500D1*
X4923887Y4842027D1*
X4924010Y4659857D1*
Y4482863D1*
X2330050Y2216373D2*
D13*
X2664383D1*
X2870050D2*
X3204383D1*
X2781757Y3719000D2*
X3116090D1*
X3321757D2*
X3656090D1*
X2654083Y4769000D2*
X2988417D1*
X3194083D2*
X3528417D1*
X2182833Y6219000D2*
X2517167D1*
X2722833D2*
X3057167D1*
X5162180Y5177247D2*
X5294347D1*
X5331990Y1893973D2*
X5474157D1*
X3900410Y2687610D2*
X4032577D1*
X4015813Y5371500D2*
X4157980D1*
X3880733Y1915413D2*
X4165067D1*
X4437020Y3481210D2*
X4579187D1*
X1857833Y5260000D2*
X2142167D1*
X2057833Y5140000D2*
X2342167D1*
X2057833Y4290000D2*
X2342167D1*
X1857833Y4460000D2*
X2142167D1*
X1879610Y3421840D2*
X2021777D1*
X4769187Y4160493D2*
X5053520D1*
X3387113Y2281413D2*
X3529280D1*
X3267827Y6288030D2*
X3409993D1*
X5815833Y3973000D2*
X5968000D1*
X5189553Y4864317D2*
X5346720D1*
X3603383Y3289343D2*
X3760550D1*
X4183383Y2964343D2*
X4340550D1*
X4183383Y3094343D2*
X4340550D1*
X4183383Y3159343D2*
X4340550D1*
D15*
X2497217Y2597373D3*
Y2470373D3*
Y2343373D3*
Y2216373D3*
X3037217D3*
Y2343373D3*
Y2470373D3*
Y2597373D3*
X2948923Y4100000D3*
Y3973000D3*
Y3846000D3*
Y3719000D3*
X3488923D3*
Y3846000D3*
Y3973000D3*
Y4100000D3*
X2821250Y5150000D3*
Y5023000D3*
Y4896000D3*
Y4769000D3*
X3361250D3*
Y4896000D3*
Y5023000D3*
Y5150000D3*
X2350000Y6600000D3*
Y6473000D3*
Y6346000D3*
Y6219000D3*
X2890000D3*
Y6346000D3*
Y6473000D3*
Y6600000D3*
D16*
X4972180Y5177247D3*
X5162180D3*
D17*
X5474157Y1893973D3*
Y1703973D3*
D16*
X3710410Y2687610D3*
X3900410D3*
D17*
X4179497Y6840603D3*
Y6650603D3*
X4349517Y5591030D3*
Y5401030D3*
X4157980Y5181500D3*
Y5371500D3*
X4022900Y2105413D3*
Y1915413D3*
X4579187Y3671210D3*
Y3481210D3*
X2000000Y5450000D3*
Y5260000D3*
X2200000Y4950000D3*
Y5140000D3*
Y4100000D3*
Y4290000D3*
X2000000Y4650000D3*
Y4460000D3*
X2021777Y3611840D3*
Y3421840D3*
X4911353Y4350493D3*
Y4160493D3*
X3387113Y2281413D3*
Y2471413D3*
X3846800Y3788030D3*
Y3978030D3*
X3741933Y4821727D3*
Y5011727D3*
X3267827Y6288030D3*
Y6478030D3*
D18*
X1232000Y2957000D3*
D19*
Y3211000D3*
Y3465000D3*
Y3719000D3*
Y3973000D3*
Y4227000D3*
Y4481000D3*
Y4735000D3*
Y4989000D3*
Y5243000D3*
D18*
X5968000D3*
D19*
Y4989000D3*
Y4735000D3*
Y4481000D3*
Y4227000D3*
Y3973000D3*
Y3719000D3*
Y3465000D3*
Y3211000D3*
Y2957000D3*
D18*
X3367623Y5750780D3*
D19*
X3113623D3*
D18*
X2650000Y7250000D3*
D19*
X2904000D3*
D18*
X3371250Y5450000D3*
D19*
X3117250D3*
D18*
X2900000Y6900000D3*
D19*
X2646000D3*
D18*
X3498923Y4400000D3*
D19*
X3244923D3*
D18*
X4098923D3*
D19*
X3844923D3*
D18*
X3047217Y2897373D3*
D19*
X2793217D3*
D18*
X2797217Y3197373D3*
D19*
X3051217D3*
D20*
X1950000Y5950000D3*
X2479900Y4868217D3*
X2361393Y3812800D3*
X2500000Y4500000D3*
X3746673Y1582890D3*
X3447107Y1429163D3*
X4323250Y2288070D3*
D17*
X2497217Y2997373D3*
Y2807373D3*
X2948923Y4500000D3*
Y4310000D3*
X2821250Y5350000D3*
Y5540000D3*
X2350000Y6800000D3*
Y6990000D3*
D16*
X4020010Y2333620D3*
X3830010D3*
X4568937Y3877330D3*
X4378937D3*
X4141650Y4944627D3*
X3951650D3*
X4202147Y5733873D3*
X4012147D3*
X1893230Y4123447D3*
X1703230D3*
X1810620Y4718137D3*
X1620620D3*
X1800000Y5450000D3*
X1610000D3*
X1826553Y4944690D3*
X1636553D3*
X1875287Y3850363D3*
X1685287D3*
D21*
X4491283Y1541447D3*
X4618283D3*
X4745283D3*
X4872283D3*
X4999283D3*
X5126283D3*
X5253283D3*
Y2081447D3*
X5126283D3*
X4999283D3*
X4872283D3*
X4745283D3*
X4618283D3*
X4491283D3*
D22*
X3610697Y6135980D3*
X3675697D3*
X3740697D3*
X3805697D3*
X3870697D3*
X3935697D3*
X4000697Y6136000D3*
Y6715980D3*
X3935697D3*
X3870697D3*
X3805697D3*
X3740697D3*
X3675697D3*
X3610697D3*
D23*
X4766720Y4994317D3*
Y4929317D3*
Y4864317D3*
Y4799317D3*
Y4734317D3*
Y4669317D3*
Y4604317D3*
Y4539317D3*
X5346740D3*
X5346720Y4604317D3*
Y4669317D3*
Y4734317D3*
Y4799317D3*
Y4864317D3*
Y4929317D3*
Y4994317D3*
X3603383Y3354343D3*
Y3289343D3*
Y3224343D3*
Y3159343D3*
Y3094343D3*
Y3029343D3*
X3603403Y2964343D3*
X4183383D3*
Y3029343D3*
Y3094343D3*
Y3159343D3*
Y3224343D3*
Y3289343D3*
Y3354343D3*
M02*
