G04 DipTrace 3.0.0.2*
G04 TopAssy.gbr*
%MOMM*%
G04 #@! TF.FileFunction,Drawing,Top*
G04 #@! TF.Part,Single*
%ADD10C,0.25*%
%ADD47C,0.07843*%
%FSLAX35Y35*%
G04*
G71*
G90*
G75*
G01*
G04 TopAssy*
%LPD*%
X1080008Y2732000D2*
D10*
Y5468000D1*
X6119992D2*
Y2732000D1*
X982730Y3847285D2*
D47*
X1033774D1*
Y3869185D1*
X1031303Y3876485D1*
X1028889Y3878900D1*
X1024059Y3881314D1*
X1016759D1*
X1011874Y3878900D1*
X1009459Y3876485D1*
X1007045Y3869185D1*
X1004574Y3876485D1*
X1002159Y3878900D1*
X997330Y3881314D1*
X992445D1*
X987616Y3878900D1*
X985145Y3876485D1*
X982730Y3869185D1*
Y3847285D1*
X1007045D2*
Y3869185D1*
X982730Y3911600D2*
X985145Y3906715D1*
X990030Y3901886D1*
X994859Y3899415D1*
X1002159Y3897000D1*
X1014345D1*
X1021589Y3899415D1*
X1026474Y3901886D1*
X1031303Y3906715D1*
X1033774Y3911600D1*
Y3921315D1*
X1031303Y3926144D1*
X1026474Y3931030D1*
X1021589Y3933444D1*
X1014345Y3935859D1*
X1002159D1*
X994859Y3933444D1*
X990030Y3931030D1*
X985145Y3926144D1*
X982730Y3921315D1*
Y3911600D1*
X1033774Y3990460D2*
X982730Y3970974D1*
X1033774Y3951545D1*
X1016759Y3958845D2*
Y3983160D1*
X1007045Y4006146D2*
Y4027990D1*
X1004574Y4035290D1*
X1002159Y4037761D1*
X997330Y4040175D1*
X992445D1*
X987616Y4037761D1*
X985145Y4035290D1*
X982730Y4027990D1*
Y4006146D1*
X1033774D1*
X1007045Y4023161D2*
X1033774Y4040175D1*
X982730Y4055861D2*
X1033774D1*
Y4072876D1*
X1031303Y4080176D1*
X1026474Y4085061D1*
X1021589Y4087476D1*
X1014345Y4089891D1*
X1002159D1*
X994859Y4087476D1*
X990030Y4085061D1*
X985145Y4080176D1*
X982730Y4072876D1*
Y4055861D1*
Y4186514D2*
Y4154956D1*
X1033774Y4154955D1*
Y4186514D1*
X1007045Y4154955D2*
Y4174385D1*
X982730Y4202200D2*
X1033774D1*
Y4219215D1*
X1031303Y4226515D1*
X1026474Y4231400D1*
X1021589Y4233815D1*
X1014345Y4236229D1*
X1002159D1*
X994859Y4233815D1*
X990030Y4231400D1*
X985145Y4226515D1*
X982730Y4219215D1*
Y4202200D1*
X994859Y4288360D2*
X990030Y4285945D1*
X985145Y4281060D1*
X982730Y4276230D1*
Y4266516D1*
X985145Y4261630D1*
X990030Y4256801D1*
X994859Y4254330D1*
X1002159Y4251916D1*
X1014345D1*
X1021589Y4254330D1*
X1026474Y4256801D1*
X1031303Y4261630D1*
X1033774Y4266516D1*
Y4276230D1*
X1031303Y4281060D1*
X1026474Y4285945D1*
X1021589Y4288360D1*
X1014345D1*
Y4276230D1*
X982730Y4335604D2*
Y4304046D1*
X1033774D1*
Y4335604D1*
X1007045Y4304046D2*
Y4323475D1*
X6217270Y4352715D2*
X6166226D1*
Y4330815D1*
X6168697Y4323515D1*
X6171111Y4321100D1*
X6175941Y4318686D1*
X6183241D1*
X6188126Y4321100D1*
X6190541Y4323515D1*
X6192955Y4330815D1*
X6195426Y4323515D1*
X6197841Y4321100D1*
X6202670Y4318686D1*
X6207555D1*
X6212384Y4321100D1*
X6214855Y4323515D1*
X6217270Y4330815D1*
Y4352715D1*
X6192955D2*
Y4330815D1*
X6217270Y4288400D2*
X6214855Y4293285D1*
X6209970Y4298114D1*
X6205141Y4300585D1*
X6197841Y4303000D1*
X6185655D1*
X6178411Y4300585D1*
X6173526Y4298114D1*
X6168697Y4293285D1*
X6166226Y4288400D1*
Y4278685D1*
X6168697Y4273856D1*
X6173526Y4268970D1*
X6178411Y4266556D1*
X6185655Y4264141D1*
X6197841D1*
X6205141Y4266556D1*
X6209970Y4268970D1*
X6214855Y4273856D1*
X6217270Y4278685D1*
Y4288400D1*
X6166226Y4209540D2*
X6217270Y4229026D1*
X6166226Y4248455D1*
X6183241Y4241155D2*
Y4216840D1*
X6192955Y4193854D2*
Y4172010D1*
X6195426Y4164710D1*
X6197841Y4162239D1*
X6202670Y4159825D1*
X6207555D1*
X6212384Y4162239D1*
X6214855Y4164710D1*
X6217270Y4172010D1*
Y4193854D1*
X6166226D1*
X6192955Y4176839D2*
X6166226Y4159825D1*
X6217270Y4144139D2*
X6166226D1*
Y4127124D1*
X6168697Y4119824D1*
X6173526Y4114939D1*
X6178411Y4112524D1*
X6185655Y4110109D1*
X6197841D1*
X6205141Y4112524D1*
X6209970Y4114939D1*
X6214855Y4119824D1*
X6217270Y4127124D1*
Y4144139D1*
Y4013486D2*
Y4045044D1*
X6166226Y4045045D1*
Y4013486D1*
X6192955Y4045045D2*
Y4025615D1*
X6217270Y3997800D2*
X6166226D1*
Y3980785D1*
X6168697Y3973485D1*
X6173526Y3968600D1*
X6178411Y3966185D1*
X6185655Y3963771D1*
X6197841D1*
X6205141Y3966185D1*
X6209970Y3968600D1*
X6214855Y3973485D1*
X6217270Y3980785D1*
Y3997800D1*
X6205141Y3911640D2*
X6209970Y3914055D1*
X6214855Y3918940D1*
X6217270Y3923770D1*
Y3933484D1*
X6214855Y3938370D1*
X6209970Y3943199D1*
X6205141Y3945670D1*
X6197841Y3948084D1*
X6185655D1*
X6178411Y3945670D1*
X6173526Y3943199D1*
X6168697Y3938370D1*
X6166226Y3933484D1*
Y3923770D1*
X6168697Y3918940D1*
X6173526Y3914055D1*
X6178411Y3911640D1*
X6185655D1*
Y3923770D1*
X6217270Y3864396D2*
Y3895954D1*
X6166226D1*
Y3864396D1*
X6192955Y3895954D2*
Y3876525D1*
M02*
