G04 DipTrace 3.0.0.2*
G04 TopMask.gbr*
%MOMM*%
G04 #@! TF.FileFunction,Soldermask,Top*
G04 #@! TF.Part,Single*
%ADD15R,2.0X0.6*%
%ADD21R,0.6X2.0*%
%ADD29C,1.216*%
%ADD33R,0.8X2.2*%
%ADD34C,1.7*%
%ADD36C,1.9*%
%ADD38R,1.9X1.9*%
%ADD40R,1.7X1.5*%
%ADD42R,1.5X1.7*%
%ADD44R,2.2X0.8*%
%FSLAX35Y35*%
G04*
G71*
G90*
G75*
G01*
G04 TopMask*
%LPD*%
D29*
X3549787Y4893003D3*
X3917263Y4769623D3*
X3663370Y3839673D3*
X3224450Y2345890D3*
X3090153Y6345680D3*
X4353263Y3739803D3*
X3661293Y2331850D3*
X4004350Y6010990D3*
X1774000Y6132350D3*
X1745380Y2594617D3*
X2322530Y2474117D3*
X2305853Y1818940D3*
X2747217Y4011093D3*
X5406873Y2129023D3*
X2577113Y5069693D3*
X4560057Y2327227D3*
X2037793Y3839337D3*
X3753823Y5211420D3*
X4003417Y4101517D3*
X4497300Y4983067D3*
X3629857Y3340363D3*
X3648277Y3215173D3*
X5464557Y4096783D3*
X5081677Y4147260D3*
X5697150Y4899807D3*
X5559077Y4825460D3*
X5787813Y3371653D3*
X3540413Y5994167D3*
X3675590Y5907267D3*
X3117123Y4820920D3*
X2480170Y5286637D3*
X4871667Y1366197D3*
X5481723Y1326697D3*
X3936047Y5404257D3*
X5321617Y5114593D3*
X2232727Y4482553D3*
X3628467Y6946947D3*
X4110880Y6246900D3*
X4569667Y3320917D3*
X4876890Y3334083D3*
X5539610Y4306500D3*
X5308623Y4244443D3*
X2384347Y3471743D3*
X3353890Y3519620D3*
D44*
X2497217Y2597373D3*
Y2470373D3*
Y2343373D3*
Y2216373D3*
X3037217D3*
Y2343373D3*
Y2470373D3*
Y2597373D3*
X2948923Y4100000D3*
Y3973000D3*
Y3846000D3*
Y3719000D3*
X3488923D3*
Y3846000D3*
Y3973000D3*
Y4100000D3*
X2821250Y5150000D3*
Y5023000D3*
Y4896000D3*
Y4769000D3*
X3361250D3*
Y4896000D3*
Y5023000D3*
Y5150000D3*
X2350000Y6600000D3*
Y6473000D3*
Y6346000D3*
Y6219000D3*
X2890000D3*
Y6346000D3*
Y6473000D3*
Y6600000D3*
D42*
X4972180Y5177247D3*
X5162180D3*
D40*
X5474157Y1893973D3*
Y1703973D3*
D42*
X3689397Y2744510D3*
X3499397D3*
D40*
X4269457Y6590000D3*
Y6400000D3*
X4349517Y5591030D3*
Y5401030D3*
X4157980Y5181500D3*
Y5371500D3*
X4022900Y2105413D3*
Y1915413D3*
X4579187Y3671210D3*
Y3481210D3*
X2000000Y5450000D3*
Y5260000D3*
X2200000Y4950000D3*
Y5140000D3*
Y4100000D3*
Y4290000D3*
X2000000Y4650000D3*
Y4460000D3*
X2021777Y3611840D3*
Y3421840D3*
X4911353Y4350493D3*
Y4160493D3*
X3387113Y2281413D3*
Y2471413D3*
X3846800Y3788030D3*
Y3978030D3*
X3741933Y4821727D3*
Y5011727D3*
X3267827Y6288030D3*
Y6478030D3*
D38*
X1232000Y2957000D3*
D36*
Y3211000D3*
Y3465000D3*
Y3719000D3*
Y3973000D3*
Y4227000D3*
Y4481000D3*
Y4735000D3*
Y4989000D3*
Y5243000D3*
D38*
X5968000D3*
D36*
Y4989000D3*
Y4735000D3*
Y4481000D3*
Y4227000D3*
Y3973000D3*
Y3719000D3*
Y3465000D3*
Y3211000D3*
Y2957000D3*
D38*
X3371250Y5700000D3*
D36*
X3117250D3*
D38*
X2650000Y7250000D3*
D36*
X2904000D3*
D38*
X3371250Y5450000D3*
D36*
X3117250D3*
D38*
X2900000Y6900000D3*
D36*
X2646000D3*
D38*
X3498923Y4400000D3*
D36*
X3244923D3*
D38*
X4098923D3*
D36*
X3844923D3*
D38*
X3047217Y2897373D3*
D36*
X2793217D3*
D38*
X2797217Y3197373D3*
D36*
X3051217D3*
D34*
X1950000Y5950000D3*
X2479900Y4868217D3*
X2361393Y3812800D3*
X2500000Y4500000D3*
X3746673Y1582890D3*
X3447107Y1429163D3*
X4323250Y2288070D3*
D40*
X2497217Y2997373D3*
Y2807373D3*
X2948923Y4500000D3*
Y4310000D3*
X2821250Y5350000D3*
Y5540000D3*
X2350000Y6800000D3*
Y6990000D3*
D42*
X4020010Y2333620D3*
X3830010D3*
X4568937Y3877330D3*
X4378937D3*
X4141650Y4944627D3*
X3951650D3*
X4202147Y5733873D3*
X4012147D3*
X1893230Y4123447D3*
X1703230D3*
X1810620Y4718137D3*
X1620620D3*
X1800000Y5450000D3*
X1610000D3*
X1826553Y4944690D3*
X1636553D3*
X1875287Y3850363D3*
X1685287D3*
D33*
X4491283Y1541447D3*
X4618283D3*
X4745283D3*
X4872283D3*
X4999283D3*
X5126283D3*
X5253283D3*
Y2081447D3*
X5126283D3*
X4999283D3*
X4872283D3*
X4745283D3*
X4618283D3*
X4491283D3*
D21*
X3536577Y6200000D3*
X3601577D3*
X3666577D3*
X3731577D3*
X3796577D3*
X3861577D3*
X3926577Y6200020D3*
Y6780000D3*
X3861577D3*
X3796577D3*
X3731577D3*
X3666577D3*
X3601577D3*
X3536577D3*
D15*
X4766720Y4994317D3*
Y4929317D3*
Y4864317D3*
Y4799317D3*
Y4734317D3*
Y4669317D3*
Y4604317D3*
Y4539317D3*
X5346740D3*
X5346720Y4604317D3*
Y4669317D3*
Y4734317D3*
Y4799317D3*
Y4864317D3*
Y4929317D3*
Y4994317D3*
X3394123Y3348067D3*
Y3283067D3*
Y3218067D3*
Y3153067D3*
Y3088067D3*
Y3023067D3*
X3394143Y2958067D3*
X3974123D3*
Y3023067D3*
Y3088067D3*
Y3153067D3*
Y3218067D3*
Y3283067D3*
Y3348067D3*
M02*
