G04 DipTrace 3.0.0.2*
G04 TopMask.gbr*
%MOIN*%
G04 #@! TF.FileFunction,Soldermask,Top*
G04 #@! TF.Part,Single*
%ADD15R,0.07874X0.023622*%
%ADD21R,0.023622X0.07874*%
%ADD29C,0.047874*%
%ADD33R,0.031496X0.086614*%
%ADD34C,0.066929*%
%ADD36C,0.074803*%
%ADD38R,0.074803X0.074803*%
%ADD40R,0.066929X0.059055*%
%ADD42R,0.059055X0.066929*%
%ADD44R,0.086614X0.031496*%
%FSLAX26Y26*%
G04*
G70*
G90*
G75*
G01*
G04 TopMask*
%LPD*%
D29*
X1397554Y1926379D3*
X1542230Y1877804D3*
X1442272Y1511682D3*
X1269469Y923579D3*
X1216596Y2498299D3*
X1713883Y1472364D3*
X1441454Y918051D3*
X1515801Y2300756D3*
X698425Y2414311D3*
X687157Y1021503D3*
X914382Y974062D3*
X907816Y716118D3*
X1081581Y1579171D3*
X2128690Y838198D3*
X1014612Y1995942D3*
X1795298Y916231D3*
X802281Y1511550D3*
X1477883Y2051740D3*
X1576148Y1614770D3*
X1770591Y1961837D3*
X1598606Y1102772D3*
X1573175Y1243063D3*
X2151400Y1612907D3*
X2000660Y1632780D3*
X2242972Y1929058D3*
X2188613Y1899787D3*
X2278667Y1327423D3*
X1570951Y2572413D3*
X1619112Y2383882D3*
X1227214Y1898000D3*
X976445Y2081353D3*
X1917979Y537873D3*
X2158159Y522322D3*
X1549625Y2127660D3*
X2095125Y2013619D3*
X879026Y1764785D3*
X1456986Y2535377D3*
X1402614Y2721286D3*
X1799081Y1307448D3*
X1920035Y1312631D3*
X2180949Y1695472D3*
X2090009Y1671041D3*
X938719Y1366828D3*
X1470824Y1382703D3*
X1276661Y1611066D3*
X1493340Y1215720D3*
X1346958Y2382290D3*
X1377316Y2645391D3*
X1317400Y1288196D3*
X1420399Y1114387D3*
X1715701Y2556062D3*
X1868071Y2559203D3*
X1450703Y2479365D3*
X1595156Y2483165D3*
X1728833Y2366667D3*
X1594050Y592478D3*
X1308848Y2711121D3*
D44*
X983156Y1022588D3*
Y972588D3*
Y922588D3*
Y872588D3*
X1195755D3*
Y922588D3*
Y972588D3*
Y1022588D3*
X1160993Y1614173D3*
Y1564173D3*
Y1514173D3*
Y1464173D3*
X1373592D3*
Y1514173D3*
Y1564173D3*
Y1614173D3*
X1110728Y2027559D3*
Y1977559D3*
Y1927559D3*
Y1877559D3*
X1323327D3*
Y1927559D3*
Y1977559D3*
Y2027559D3*
X925197Y2598425D3*
Y2548425D3*
Y2498425D3*
Y2448425D3*
X1137795D3*
Y2498425D3*
Y2548425D3*
Y2598425D3*
D42*
X1957551Y2038286D3*
X2032354D3*
D40*
X2155180Y745659D3*
Y670856D3*
D42*
X1460791Y1058114D3*
X1535594D3*
D40*
X1645471Y2693151D3*
Y2618348D3*
X1712408Y2201193D3*
Y2126390D3*
X1637000Y2039961D3*
Y2114764D3*
X1583819Y828903D3*
Y754100D3*
X1802829Y1445358D3*
Y1370555D3*
X787402Y2145669D3*
Y2070866D3*
X866142Y1948819D3*
Y2023622D3*
Y1614173D3*
Y1688976D3*
X787402Y1830709D3*
Y1755906D3*
X795975Y1421984D3*
Y1347181D3*
X1933604Y1712793D3*
Y1637990D3*
X1333509Y898194D3*
Y972997D3*
X1514488Y1491350D3*
Y1566154D3*
X1473202Y1898318D3*
Y1973121D3*
X1286546Y2475602D3*
Y2550406D3*
D38*
X485039Y1164173D3*
D36*
Y1264173D3*
Y1364173D3*
Y1464173D3*
Y1564173D3*
Y1664173D3*
Y1764173D3*
Y1864173D3*
Y1964173D3*
Y2064173D3*
D38*
X2349606D3*
D36*
Y1964173D3*
Y1864173D3*
Y1764173D3*
Y1664173D3*
Y1564173D3*
Y1464173D3*
Y1364173D3*
Y1264173D3*
Y1164173D3*
D38*
X1325836Y2264087D3*
D36*
X1225836D3*
D38*
X1043307Y2854331D3*
D36*
X1143307D3*
D38*
X1327264Y2145669D3*
D36*
X1227264D3*
D38*
X1141732Y2716535D3*
D36*
X1041732D3*
D38*
X1377529Y1732283D3*
D36*
X1277529D3*
D38*
X1613749D3*
D36*
X1513749D3*
D38*
X1199692Y1140698D3*
D36*
X1099692D3*
D38*
X1101266Y1258808D3*
D36*
X1201266D3*
D34*
X767717Y2342520D3*
X976339Y1916621D3*
X929682Y1501102D3*
X984252Y1771654D3*
X1475068Y623185D3*
X1357129Y562663D3*
X1702067Y900815D3*
D40*
X983156Y1180068D3*
Y1105265D3*
X1160993Y1771654D3*
Y1696850D3*
X1110728Y2106299D3*
Y2181102D3*
X925197Y2677165D3*
Y2751969D3*
D42*
X1582681Y918748D3*
X1507878D3*
X1798794Y1526508D3*
X1723991D3*
X1630571Y1946703D3*
X1555768D3*
X1654388Y2257430D3*
X1579585D3*
X745366Y1623404D3*
X670563D3*
X712843Y1857534D3*
X638039D3*
X708661Y2145669D3*
X633858D3*
X719115Y1946728D3*
X644312D3*
X738302Y1515891D3*
X663499D3*
D33*
X1768222Y606869D3*
X1818222D3*
X1868222D3*
X1918222D3*
X1968222D3*
X2018222D3*
X2068222D3*
Y819467D3*
X2018222D3*
X1968222D3*
X1918222D3*
X1868222D3*
X1818222D3*
X1768222D3*
D21*
X1421534Y2415740D3*
X1447125D3*
X1472715D3*
X1498306D3*
X1523896D3*
X1549487D3*
X1575077Y2415748D3*
Y2644087D3*
X1549487D3*
X1523896D3*
X1498306D3*
X1472715D3*
X1447125D3*
X1421534D3*
D15*
X1876661Y1966266D3*
Y1940676D3*
Y1915085D3*
Y1889495D3*
Y1863904D3*
Y1838314D3*
Y1812723D3*
Y1787133D3*
X2105016D3*
X2105008Y1812723D3*
Y1838314D3*
Y1863904D3*
Y1889495D3*
Y1915085D3*
Y1940676D3*
Y1966266D3*
X1418655Y1320608D3*
Y1295017D3*
Y1269427D3*
Y1243836D3*
Y1218245D3*
Y1192655D3*
X1418663Y1167064D3*
X1647001D3*
Y1192655D3*
Y1218245D3*
Y1243836D3*
Y1269427D3*
Y1295017D3*
Y1320608D3*
M02*
