G04 DipTrace 3.0.0.2*
G04 TopPaste.gbr*
%MOIN*%
G04 #@! TF.FileFunction,Paste,Top*
G04 #@! TF.Part,Single*
%ADD33R,0.043307X0.051181*%
%ADD35R,0.070866X0.015748*%
%ADD37R,0.051181X0.043307*%
%ADD39R,0.003937X0.049213*%
%FSLAX26Y26*%
G04*
G70*
G90*
G75*
G01*
G04 TopPaste*
%LPD*%
D39*
X1968504Y2224409D3*
X1948819D3*
X1929134D3*
X1909449D3*
X1888123D3*
X1968504Y2051181D3*
X1948819D3*
X1929134D3*
X1909449D3*
X1889764D3*
X1220472Y1850394D3*
X1200787D3*
X1181102D3*
X1161417D3*
X1140092D3*
X1220472Y1677165D3*
X1200787D3*
X1181102D3*
X1161417D3*
X1141732D3*
D37*
X1830709Y1082677D3*
Y1157480D3*
D35*
X1476378Y1811024D3*
Y1761024D3*
Y1711024D3*
Y1661024D3*
X1688976D3*
Y1711024D3*
Y1761024D3*
Y1811024D3*
X1200787Y2657480D3*
Y2607480D3*
Y2557480D3*
Y2507480D3*
X1413386D3*
Y2557480D3*
Y2607480D3*
Y2657480D3*
D37*
X1220472Y2874016D3*
Y2799213D3*
D33*
X1003937Y2795276D3*
X1078740D3*
D37*
X1102362Y570866D3*
Y645669D3*
D33*
X1318898Y1988189D3*
X1393701D3*
D37*
X2106299Y2110236D3*
Y2185039D3*
X1318898Y1732283D3*
Y1807087D3*
X1968504Y1157480D3*
Y1082677D3*
Y1259843D3*
Y1334646D3*
X944882Y748031D3*
Y822835D3*
X1259843Y748031D3*
Y822835D3*
D33*
X1633858Y2559055D3*
X1559055D3*
D37*
X1102362Y748031D3*
Y822835D3*
D35*
X1653543Y669291D3*
Y719291D3*
Y769291D3*
Y819291D3*
X1440945D3*
Y769291D3*
Y719291D3*
Y669291D3*
D37*
X1988189Y787402D3*
Y712598D3*
X2145669Y708661D3*
Y783465D3*
X1988189Y610236D3*
Y535433D3*
X1535433Y2066929D3*
Y1992126D3*
X787402Y748031D3*
Y822835D3*
D33*
X2027559Y1712598D3*
X1952756D3*
D37*
X1909449Y1515748D3*
Y1590551D3*
X1633858Y2814961D3*
Y2740157D3*
D33*
X787402Y2283465D3*
X712598D3*
X787402Y2007874D3*
X712598D3*
X767717Y1811024D3*
X692913D3*
X787402Y1555118D3*
X712598D3*
D37*
X964567D3*
Y1629921D3*
Y1771654D3*
Y1846457D3*
Y2027559D3*
Y1952756D3*
Y2224409D3*
Y2149606D3*
D33*
X1279528Y2362205D3*
X1354331D3*
X1555118Y1496063D3*
X1629921D3*
X1515748Y964567D3*
X1590551D3*
M02*
