G04 DipTrace 3.0.0.2*
G04 TopPaste.gbr*
%MOIN*%
G04 #@! TF.FileFunction,Paste,Top*
G04 #@! TF.Part,Single*
%ADD22R,0.015748X0.070866*%
%ADD23R,0.070866X0.015748*%
%ADD31R,0.062992X0.007874*%
%ADD32R,0.007874X0.062992*%
%ADD41R,0.051181X0.043307*%
%ADD43R,0.043307X0.051181*%
%FSLAX26Y26*%
G04*
G70*
G90*
G75*
G01*
G04 TopPaste*
%LPD*%
D23*
X983156Y1022588D3*
Y972588D3*
Y922588D3*
Y872588D3*
X1195755D3*
Y922588D3*
Y972588D3*
Y1022588D3*
X1160993Y1614173D3*
Y1564173D3*
Y1514173D3*
Y1464173D3*
X1373592D3*
Y1514173D3*
Y1564173D3*
Y1614173D3*
X1110728Y2027559D3*
Y1977559D3*
Y1927559D3*
Y1877559D3*
X1323327D3*
Y1927559D3*
Y1977559D3*
Y2027559D3*
X925197Y2598425D3*
Y2548425D3*
Y2498425D3*
Y2448425D3*
X1137795D3*
Y2498425D3*
Y2548425D3*
Y2598425D3*
D43*
X1957551Y2038286D3*
X2032354D3*
D41*
X2155180Y745659D3*
Y670856D3*
D43*
X1460791Y1058114D3*
X1535594D3*
D41*
X1645471Y2693151D3*
Y2618348D3*
X1712408Y2201193D3*
Y2126390D3*
X1637000Y2039961D3*
Y2114764D3*
X1583819Y828903D3*
Y754100D3*
X1802829Y1445358D3*
Y1370555D3*
X787402Y2145669D3*
Y2070866D3*
X866142Y1948819D3*
Y2023622D3*
Y1614173D3*
Y1688976D3*
X787402Y1830709D3*
Y1755906D3*
X795975Y1421984D3*
Y1347181D3*
X1933604Y1712793D3*
Y1637990D3*
X1333509Y898194D3*
Y972997D3*
X1514488Y1491350D3*
Y1566154D3*
X1473202Y1898318D3*
Y1973121D3*
X1286546Y2475602D3*
Y2550406D3*
X983156Y1180068D3*
Y1105265D3*
X1160993Y1771654D3*
Y1696850D3*
X1110728Y2106299D3*
Y2181102D3*
X925197Y2677165D3*
Y2751969D3*
D43*
X1582681Y918748D3*
X1507878D3*
X1798794Y1526508D3*
X1723991D3*
X1630571Y1946703D3*
X1555768D3*
X1654388Y2257430D3*
X1579585D3*
X745366Y1623404D3*
X670563D3*
X712843Y1857534D3*
X638039D3*
X708661Y2145669D3*
X633858D3*
X719115Y1946728D3*
X644312D3*
X738302Y1515891D3*
X663499D3*
D22*
X1768222Y606869D3*
X1818222D3*
X1868222D3*
X1918222D3*
X1968222D3*
X2018222D3*
X2068222D3*
Y819467D3*
X2018222D3*
X1968222D3*
X1918222D3*
X1868222D3*
X1818222D3*
X1768222D3*
D32*
X1421534Y2415740D3*
X1447125D3*
X1472715D3*
X1498306D3*
X1523896D3*
X1549487D3*
X1575077Y2415748D3*
Y2644087D3*
X1549487D3*
X1523896D3*
X1498306D3*
X1472715D3*
X1447125D3*
X1421534D3*
D31*
X1876661Y1966266D3*
Y1940676D3*
Y1915085D3*
Y1889495D3*
Y1863904D3*
Y1838314D3*
Y1812723D3*
Y1787133D3*
X2105016D3*
X2105008Y1812723D3*
Y1838314D3*
Y1863904D3*
Y1889495D3*
Y1915085D3*
Y1940676D3*
Y1966266D3*
X1418655Y1320608D3*
Y1295017D3*
Y1269427D3*
Y1243836D3*
Y1218245D3*
Y1192655D3*
X1418663Y1167064D3*
X1647001D3*
Y1192655D3*
Y1218245D3*
Y1243836D3*
Y1269427D3*
Y1295017D3*
Y1320608D3*
M02*
