G04 DipTrace 3.0.0.2*
G04 TopSilk.gbr*
%MOIN*%
G04 #@! TF.FileFunction,Legend,Top*
G04 #@! TF.Part,Single*
%ADD10C,0.009843*%
%ADD44C,0.00772*%
%ADD45C,0.006176*%
%FSLAX26Y26*%
G04*
G70*
G90*
G75*
G01*
G04 TopSilk*
%LPD*%
X435038Y1114153D2*
D10*
X535039D1*
Y2114193D1*
X435038D1*
Y1114153D1*
X2399608Y2114193D2*
X2299606D1*
Y1114153D1*
X2399608D1*
Y2114193D1*
X1979134Y2187797D2*
X1879134D1*
Y2087794D1*
X1979134D1*
Y2187797D1*
X1975594Y2111539D2*
G02X1975594Y2161541I-4974J25001D01*
G01*
X1231102Y1813781D2*
X1131102D1*
Y1713778D1*
X1231102D1*
Y1813781D1*
X1227562Y1737524D2*
G02X1227562Y1787525I-4974J25001D01*
G01*
X1483858Y2174409D2*
X1683858D1*
Y2274409D1*
X1483858D1*
Y2174409D1*
X1531489Y1834451D2*
Y1637596D1*
X1633865Y1834451D2*
Y1637596D1*
X1531489D2*
X1633865D1*
X1562983Y1834451D2*
X1531489D1*
X1602372D2*
X1633865D1*
X1562983D2*
G03X1602372Y1834451I19694J9D01*
G01*
X1255898Y2680907D2*
Y2484053D1*
X1358275Y2680907D2*
Y2484053D1*
X1255898D2*
X1358275D1*
X1287392Y2680907D2*
X1255898D1*
X1326781D2*
X1358275D1*
X1287392D2*
G03X1326781Y2680907I19694J9D01*
G01*
X1367323Y2964961D2*
X1467323D1*
Y2764961D1*
X1367323D1*
Y2964961D1*
X962577Y2769705D2*
Y2820846D1*
X1277538Y1962618D2*
Y2013760D1*
X2131870Y2068877D2*
X2080728D1*
X1344469Y1690924D2*
X1293327D1*
X1942933Y1198840D2*
X1994075D1*
X1598432Y645864D2*
Y842719D1*
X1496056Y645864D2*
Y842719D1*
X1598432D2*
X1496056D1*
X1566939Y645864D2*
X1598432D1*
X1527550D2*
X1496056D1*
X1566939D2*
G03X1527550Y645864I-19694J-9D01*
G01*
X2171240Y667302D2*
X2120098D1*
X1935020Y1474388D2*
X1883878D1*
X1608287Y2856320D2*
X1659429D1*
X990138Y1513759D2*
X938996D1*
X990138Y1730294D2*
X938996D1*
Y2068919D2*
X990138D1*
X938996Y2265769D2*
X990138D1*
X1238168Y2336634D2*
Y2387776D1*
X1513759Y1470492D2*
Y1521634D1*
X1474388Y938996D2*
Y990138D1*
X455828Y2225979D2*
D44*
Y2187732D1*
X453452Y2180547D1*
X451020Y2178171D1*
X446267Y2175739D1*
X441458D1*
X436705Y2178171D1*
X434328Y2180547D1*
X431897Y2187732D1*
Y2192486D1*
X471267Y2216362D2*
X476076Y2218794D1*
X483261Y2225924D1*
Y2175739D1*
X2364566Y2225979D2*
Y2187732D1*
X2362190Y2180547D1*
X2359758Y2178171D1*
X2355005Y2175739D1*
X2350196D1*
X2345443Y2178171D1*
X2343067Y2180547D1*
X2340635Y2187732D1*
Y2192486D1*
X2382438Y2213985D2*
Y2216362D1*
X2384814Y2221171D1*
X2387191Y2223547D1*
X2391999Y2225924D1*
X2401561D1*
X2406314Y2223547D1*
X2408691Y2221171D1*
X2411122Y2216362D1*
Y2211609D1*
X2408691Y2206800D1*
X2403937Y2199671D1*
X2380006Y2175739D1*
X2413499D1*
X1856151Y1996395D2*
X1805911Y1977216D1*
X1856151Y1958093D1*
X1839404Y1965278D2*
Y1989210D1*
X1805911Y2011834D2*
X1856151D1*
Y2028581D1*
X1853719Y2035766D1*
X1848966Y2040574D1*
X1844157Y2042951D1*
X1837028Y2045327D1*
X1825034Y2045328D1*
X1817849Y2042951D1*
X1813096Y2040574D1*
X1808287Y2035766D1*
X1805911Y2028581D1*
Y2011834D1*
X1813096Y2094260D2*
X1808287Y2089507D1*
X1805911Y2082322D1*
Y2072760D1*
X1808287Y2065575D1*
X1813096Y2060767D1*
X1817849D1*
X1822658Y2063199D1*
X1825034Y2065575D1*
X1827411Y2070328D1*
X1832219Y2084698D1*
X1834596Y2089507D1*
X1837028Y2091883D1*
X1841781Y2094260D1*
X1848966D1*
X1853719Y2089507D1*
X1856151Y2082322D1*
Y2072760D1*
X1853719Y2065575D1*
X1848966Y2060767D1*
X1815528Y2109699D2*
X1813096Y2114508D1*
X1805966Y2121693D1*
X1856151D1*
X1805966Y2151502D2*
X1808343Y2144317D1*
X1815528Y2139509D1*
X1827466Y2137132D1*
X1834651D1*
X1846589Y2139509D1*
X1853774Y2144317D1*
X1856151Y2151502D1*
Y2156255D1*
X1853774Y2163440D1*
X1846589Y2168194D1*
X1834651Y2170625D1*
X1827466D1*
X1815528Y2168194D1*
X1808343Y2163440D1*
X1805966Y2156255D1*
Y2151502D1*
X1815528Y2168194D2*
X1846589Y2139509D1*
X1815528Y2186065D2*
X1813096Y2190873D1*
X1805966Y2198058D1*
X1856151D1*
X1805966Y2242182D2*
Y2218306D1*
X1827466Y2215929D1*
X1825089Y2218306D1*
X1822657Y2225491D1*
Y2232621D1*
X1825089Y2239806D1*
X1829843Y2244614D1*
X1837028Y2246991D1*
X1841781D1*
X1848966Y2244614D1*
X1853774Y2239806D1*
X1856151Y2232621D1*
Y2225491D1*
X1853774Y2218306D1*
X1851342Y2215929D1*
X1846589Y2213497D1*
X1831058Y2262430D2*
Y2290065D1*
X1815528Y2305504D2*
X1813096Y2310312D1*
X1805966Y2317497D1*
X1856151D1*
X1108119Y1611629D2*
X1057879Y1592451D1*
X1108119Y1573328D1*
X1091373Y1580513D2*
Y1604444D1*
X1057879Y1627069D2*
X1108119Y1627068D1*
Y1643815D1*
X1105687Y1651000D1*
X1100934Y1655809D1*
X1096126Y1658185D1*
X1088996Y1660562D1*
X1077003D1*
X1069818Y1658185D1*
X1065064Y1655809D1*
X1060256Y1651000D1*
X1057879Y1643815D1*
Y1627069D1*
X1065064Y1709494D2*
X1060256Y1704741D1*
X1057879Y1697556D1*
Y1687995D1*
X1060256Y1680810D1*
X1065064Y1676001D1*
X1069818D1*
X1074626Y1678433D1*
X1077003Y1680810D1*
X1079379Y1685563D1*
X1084188Y1699933D1*
X1086564Y1704741D1*
X1088996Y1707118D1*
X1093749Y1709494D1*
X1100934D1*
X1105687Y1704741D1*
X1108119Y1697556D1*
Y1687995D1*
X1105687Y1680810D1*
X1100934Y1676001D1*
X1067496Y1724934D2*
X1065064Y1729742D1*
X1057935Y1736927D1*
X1108119D1*
X1057935Y1766736D2*
X1060311Y1759551D1*
X1067496Y1754743D1*
X1079434Y1752366D1*
X1086619D1*
X1098558Y1754743D1*
X1105743Y1759551D1*
X1108119Y1766736D1*
Y1771490D1*
X1105743Y1778675D1*
X1098558Y1783428D1*
X1086619Y1785860D1*
X1079434D1*
X1067496Y1783428D1*
X1060311Y1778675D1*
X1057935Y1771490D1*
Y1766736D1*
X1067496Y1783428D2*
X1098558Y1754743D1*
X1067496Y1801299D2*
X1065064Y1806107D1*
X1057935Y1813292D1*
X1108119D1*
X1057935Y1857417D2*
Y1833540D1*
X1079434Y1831164D1*
X1077058Y1833540D1*
X1074626Y1840725D1*
Y1847855D1*
X1077058Y1855040D1*
X1081811Y1859848D1*
X1088996Y1862225D1*
X1093749D1*
X1100934Y1859848D1*
X1105743Y1855040D1*
X1108119Y1847855D1*
Y1840725D1*
X1105743Y1833540D1*
X1103311Y1831164D1*
X1098558Y1828732D1*
X1083027Y1877664D2*
Y1905299D1*
X1069873Y1923170D2*
X1067496D1*
X1062688Y1925547D1*
X1060311Y1927923D1*
X1057935Y1932732D1*
Y1942293D1*
X1060311Y1947047D1*
X1062688Y1949423D1*
X1067496Y1951855D1*
X1072249D1*
X1077058Y1949423D1*
X1084188Y1944670D1*
X1108119Y1920738D1*
Y1954232D1*
X1732205Y1072307D2*
Y1093807D1*
X1729773Y1100992D1*
X1727396Y1103424D1*
X1722643Y1105800D1*
X1717835D1*
X1713081Y1103424D1*
X1710650Y1100992D1*
X1708273Y1093807D1*
Y1072307D1*
X1758513D1*
X1732205Y1089054D2*
X1758513Y1105800D1*
X1725020Y1121239D2*
X1758513D1*
X1739390D2*
X1732205Y1123671D1*
X1727396Y1128424D1*
X1725020Y1133233D1*
Y1140418D1*
X1717890Y1155857D2*
X1715458Y1160666D1*
X1708328Y1167851D1*
X1758513D1*
X1571358Y2347633D2*
Y2309386D1*
X1568981Y2302201D1*
X1566549Y2299824D1*
X1561796Y2297393D1*
X1556988D1*
X1552235Y2299824D1*
X1549858Y2302201D1*
X1547426Y2309386D1*
Y2314139D1*
X1591606Y2347577D2*
X1617859D1*
X1603544Y2328454D1*
X1610729D1*
X1615482Y2326077D1*
X1617859Y2323701D1*
X1620290Y2316516D1*
Y2311763D1*
X1617859Y2304578D1*
X1613105Y2299769D1*
X1605920Y2297393D1*
X1598735D1*
X1591606Y2299769D1*
X1589229Y2302201D1*
X1586797Y2306954D1*
X1459176Y1857434D2*
X1439997Y1907674D1*
X1420874Y1857434D1*
X1428059Y1874181D2*
X1451990D1*
X1474615Y1907674D2*
Y1857434D1*
X1491361D1*
X1498546Y1859866D1*
X1503355Y1864619D1*
X1505732Y1869427D1*
X1508108Y1876557D1*
Y1888551D1*
X1505732Y1895736D1*
X1503355Y1900489D1*
X1498546Y1905297D1*
X1491361Y1907674D1*
X1474615D1*
X1552232Y1900489D2*
X1549856Y1905242D1*
X1542671Y1907619D1*
X1537917D1*
X1530732Y1905242D1*
X1525924Y1898057D1*
X1523547Y1886119D1*
Y1874181D1*
X1525924Y1864619D1*
X1530732Y1859810D1*
X1537917Y1857434D1*
X1540294D1*
X1547424Y1859810D1*
X1552232Y1864619D1*
X1554609Y1871804D1*
Y1874181D1*
X1552232Y1881366D1*
X1547424Y1886119D1*
X1540294Y1888495D1*
X1537917D1*
X1530732Y1886119D1*
X1525924Y1881366D1*
X1523547Y1874181D1*
X1572480Y1895680D2*
Y1898057D1*
X1574857Y1902865D1*
X1577233Y1905242D1*
X1582042Y1907619D1*
X1591603D1*
X1596356Y1905242D1*
X1598733Y1902865D1*
X1601165Y1898057D1*
Y1893304D1*
X1598733Y1888495D1*
X1593980Y1881366D1*
X1570048Y1857434D1*
X1603541D1*
X1623789Y1907619D2*
X1650042D1*
X1635727Y1888495D1*
X1642912D1*
X1647666Y1886119D1*
X1650042Y1883742D1*
X1652474Y1876557D1*
Y1871804D1*
X1650042Y1864619D1*
X1645289Y1859810D1*
X1638104Y1857434D1*
X1630919D1*
X1623789Y1859810D1*
X1621413Y1862242D1*
X1618981Y1866995D1*
X1667913Y1882526D2*
X1695548D1*
X1713419Y1895680D2*
Y1898057D1*
X1715796Y1902865D1*
X1718172Y1905242D1*
X1722981Y1907619D1*
X1732542D1*
X1737296Y1905242D1*
X1739672Y1902865D1*
X1742104Y1898057D1*
Y1893304D1*
X1739672Y1888495D1*
X1734919Y1881366D1*
X1710987Y1857434D1*
X1744481D1*
X1194335Y2703891D2*
X1175156Y2754131D1*
X1156033Y2703891D1*
X1163218Y2720637D2*
X1187150D1*
X1209774Y2754131D2*
Y2703891D1*
X1226521D1*
X1233706Y2706322D1*
X1238514Y2711076D1*
X1240891Y2715884D1*
X1243267Y2723014D1*
Y2735007D1*
X1240891Y2742192D1*
X1238514Y2746946D1*
X1233706Y2751754D1*
X1226521Y2754131D1*
X1209774D1*
X1287392Y2746946D2*
X1285015Y2751699D1*
X1277830Y2754075D1*
X1273077D1*
X1265892Y2751699D1*
X1261083Y2744514D1*
X1258707Y2732575D1*
Y2720637D1*
X1261083Y2711076D1*
X1265892Y2706267D1*
X1273077Y2703891D1*
X1275453D1*
X1282583Y2706267D1*
X1287392Y2711076D1*
X1289768Y2718261D1*
Y2720637D1*
X1287392Y2727822D1*
X1282583Y2732575D1*
X1275453Y2734952D1*
X1273077D1*
X1265892Y2732575D1*
X1261083Y2727822D1*
X1258707Y2720637D1*
X1307639Y2742137D2*
Y2744514D1*
X1310016Y2749322D1*
X1312392Y2751699D1*
X1317201Y2754075D1*
X1326763D1*
X1331516Y2751699D1*
X1333892Y2749322D1*
X1336324Y2744514D1*
Y2739760D1*
X1333892Y2734952D1*
X1329139Y2727822D1*
X1305207Y2703891D1*
X1338701D1*
X1358948Y2754075D2*
X1385202D1*
X1370887Y2734952D1*
X1378072D1*
X1382825Y2732575D1*
X1385202Y2730199D1*
X1387633Y2723014D1*
Y2718261D1*
X1385202Y2711076D1*
X1380448Y2706267D1*
X1373263Y2703891D1*
X1366078D1*
X1358948Y2706267D1*
X1356572Y2708699D1*
X1354140Y2713452D1*
X1403073Y2728983D2*
X1430707D1*
X1446147Y2744514D2*
X1450955Y2746946D1*
X1458140Y2754075D1*
Y2703891D1*
X1403634Y3038184D2*
Y2999937D1*
X1401258Y2992752D1*
X1398826Y2990376D1*
X1394072Y2987944D1*
X1389264D1*
X1384511Y2990376D1*
X1382134Y2992752D1*
X1379702Y2999937D1*
Y3004690D1*
X1443005Y2987944D2*
Y3038128D1*
X1419073Y3004690D1*
X1454943D1*
X1299134Y2806151D2*
Y2827651D1*
X1296702Y2834836D1*
X1294325Y2837268D1*
X1289572Y2839645D1*
X1284764D1*
X1280011Y2837268D1*
X1277579Y2834836D1*
X1275202Y2827651D1*
Y2806151D1*
X1325442D1*
X1299134Y2822898D2*
X1325442Y2839645D1*
X1284819Y2855084D2*
X1282387Y2859892D1*
X1275257Y2867077D1*
X1325442D1*
X1037673Y2886088D2*
X1035296Y2890841D1*
X1030488Y2895650D1*
X1025734Y2898026D1*
X1016173D1*
X1011364Y2895650D1*
X1006611Y2890841D1*
X1004179Y2886088D1*
X1001803Y2878903D1*
Y2866909D1*
X1004179Y2859780D1*
X1006611Y2854971D1*
X1011364Y2850218D1*
X1016173Y2847786D1*
X1025734D1*
X1030488Y2850218D1*
X1035296Y2854971D1*
X1037673Y2859780D1*
X1053112Y2888409D2*
X1057920Y2890841D1*
X1065105Y2897971D1*
Y2847786D1*
X1023543Y567055D2*
Y588555D1*
X1021111Y595740D1*
X1018735Y598172D1*
X1013982Y600548D1*
X1009173D1*
X1004420Y598172D1*
X1001988Y595740D1*
X999612Y588555D1*
Y567055D1*
X1049852D1*
X1023543Y583802D2*
X1049852Y600548D1*
X1011605Y618419D2*
X1009229D1*
X1004420Y620796D1*
X1002043Y623172D1*
X999667Y627981D1*
Y637543D1*
X1002043Y642296D1*
X1004420Y644672D1*
X1009229Y647104D1*
X1013982D1*
X1018790Y644672D1*
X1025920Y639919D1*
X1049852Y615987D1*
Y649481D1*
X1341883Y2079001D2*
X1339507Y2083755D1*
X1334698Y2088563D1*
X1329945Y2090940D1*
X1320384D1*
X1315575Y2088563D1*
X1310822Y2083755D1*
X1308390Y2079001D1*
X1306013Y2071816D1*
Y2059823D1*
X1308390Y2052693D1*
X1310822Y2047885D1*
X1315575Y2043131D1*
X1320384Y2040700D1*
X1329945D1*
X1334698Y2043131D1*
X1339507Y2047885D1*
X1341883Y2052693D1*
X1359754Y2078946D2*
Y2081323D1*
X1362131Y2086131D1*
X1364508Y2088508D1*
X1369316Y2090884D1*
X1378878D1*
X1383631Y2088508D1*
X1386008Y2086131D1*
X1388439Y2081323D1*
Y2076570D1*
X1386008Y2071761D1*
X1381254Y2064631D1*
X1357323Y2040700D1*
X1390816D1*
X2053789Y2025261D2*
X2003549Y2006082D1*
X2053789Y1986959D1*
X2037042Y1994144D2*
Y2018076D1*
X2003549Y2040700D2*
X2053789D1*
Y2057446D1*
X2051357Y2064632D1*
X2046604Y2069440D1*
X2041795Y2071817D1*
X2034665Y2074193D1*
X2022672D1*
X2015487Y2071817D1*
X2010734Y2069440D1*
X2005925Y2064632D1*
X2003549Y2057447D1*
Y2040700D1*
X2015487Y2125502D2*
X2010734Y2123126D1*
X2005925Y2118317D1*
X2003549Y2113564D1*
Y2104003D1*
X2005925Y2099194D1*
X2010734Y2094441D1*
X2015487Y2092009D1*
X2022672Y2089632D1*
X2034665D1*
X2041795Y2092009D1*
X2046604Y2094441D1*
X2051357Y2099194D1*
X2053789Y2104002D1*
Y2113564D1*
X2051357Y2118317D1*
X2046604Y2123126D1*
X2041795Y2125502D1*
X2013166Y2140942D2*
X2010734Y2145750D1*
X2003604Y2152935D1*
X2053789D1*
X2015487Y2204244D2*
X2010734Y2201868D1*
X2005925Y2197059D1*
X2003549Y2192306D1*
Y2182744D1*
X2005925Y2177936D1*
X2010734Y2173183D1*
X2015487Y2170751D1*
X2022672Y2168374D1*
X2034665D1*
X2041795Y2170751D1*
X2046604Y2173183D1*
X2051357Y2177936D1*
X2053789Y2182744D1*
Y2192306D1*
X2051357Y2197059D1*
X2046604Y2201868D1*
X2041795Y2204244D1*
X2020295Y2248368D2*
X2053789D1*
X2027480D2*
X2022672Y2243615D1*
X2020295Y2238807D1*
Y2231677D1*
X2022672Y2226869D1*
X2027480Y2222115D1*
X2034665Y2219683D1*
X2039419D1*
X2046604Y2222115D1*
X2051357Y2226869D1*
X2053789Y2231677D1*
Y2238807D1*
X2051357Y2243615D1*
X2046604Y2248368D1*
X2020295Y2263808D2*
X2070535D1*
X2027480D2*
X2022727Y2268616D1*
X2020295Y2273369D1*
Y2280554D1*
X2022727Y2285363D1*
X2027480Y2290116D1*
X2034665Y2292548D1*
X2039474D1*
X2046604Y2290116D1*
X2051412Y2285363D1*
X2053789Y2280554D1*
Y2273369D1*
X2051412Y2268616D1*
X2046604Y2263808D1*
X1325442Y1360967D2*
X1275202Y1341789D1*
X1325442Y1322666D1*
X1308695Y1329851D2*
X1308696Y1353782D1*
X1275202Y1376407D2*
X1325442D1*
Y1393153D1*
X1323010Y1400338D1*
X1318257Y1405147D1*
X1313449Y1407523D1*
X1306319Y1409900D1*
X1294325D1*
X1287140Y1407523D1*
X1282387Y1405147D1*
X1277579Y1400338D1*
X1275202Y1393153D1*
Y1376407D1*
X1287140Y1461209D2*
X1282387Y1458833D1*
X1277579Y1454024D1*
X1275202Y1449271D1*
Y1439709D1*
X1277579Y1434901D1*
X1282387Y1430148D1*
X1287140Y1427716D1*
X1294325Y1425339D1*
X1306319D1*
X1313449Y1427716D1*
X1318257Y1430148D1*
X1323010Y1434901D1*
X1325442Y1439709D1*
Y1449271D1*
X1323010Y1454024D1*
X1318257Y1458833D1*
X1313449Y1461209D1*
X1287196Y1479080D2*
X1284819D1*
X1280011Y1481457D1*
X1277634Y1483833D1*
X1275257Y1488642D1*
Y1498203D1*
X1277634Y1502957D1*
X1280011Y1505333D1*
X1284819Y1507765D1*
X1289572D1*
X1294381Y1505333D1*
X1301510Y1500580D1*
X1325442Y1476648D1*
Y1510142D1*
X1287140Y1561451D2*
X1282387Y1559074D1*
X1277579Y1554266D1*
X1275202Y1549513D1*
Y1539951D1*
X1277579Y1535143D1*
X1282387Y1530389D1*
X1287140Y1527958D1*
X1294325Y1525581D1*
X1306319D1*
X1313449Y1527958D1*
X1318257Y1530389D1*
X1323010Y1535143D1*
X1325442Y1539951D1*
Y1549513D1*
X1323010Y1554266D1*
X1318257Y1559074D1*
X1313449Y1561451D1*
X1291949Y1605575D2*
X1325442D1*
X1299134D2*
X1294325Y1600822D1*
X1291949Y1596013D1*
Y1588884D1*
X1294325Y1584075D1*
X1299134Y1579322D1*
X1306319Y1576890D1*
X1311072D1*
X1318257Y1579322D1*
X1323010Y1584075D1*
X1325442Y1588884D1*
Y1596013D1*
X1323010Y1600822D1*
X1318257Y1605575D1*
X1291949Y1621014D2*
X1342189D1*
X1299134D2*
X1294381Y1625823D1*
X1291949Y1630576D1*
Y1637761D1*
X1294381Y1642569D1*
X1299134Y1647323D1*
X1306319Y1649754D1*
X1311127D1*
X1318257Y1647323D1*
X1323066Y1642569D1*
X1325442Y1637761D1*
Y1630576D1*
X1323066Y1625823D1*
X1318257Y1621014D1*
X2035172Y1069561D2*
X2030419Y1067184D1*
X2025610Y1062376D1*
X2023234Y1057623D1*
Y1048061D1*
X2025610Y1043253D1*
X2030419Y1038500D1*
X2035172Y1036068D1*
X2042357Y1033691D1*
X2054350D1*
X2061480Y1036068D1*
X2066289Y1038500D1*
X2071042Y1043253D1*
X2073474Y1048061D1*
Y1057623D1*
X2071042Y1062376D1*
X2066289Y1067184D1*
X2061480Y1069561D1*
X2039980Y1085000D2*
X2073474D1*
X2054350D2*
X2047165Y1087432D1*
X2042357Y1092185D1*
X2039980Y1096994D1*
Y1104179D1*
X2054350Y1119618D2*
Y1148303D1*
X2049542D1*
X2044734Y1145926D1*
X2042357Y1143550D1*
X2039980Y1138741D1*
Y1131556D1*
X2042357Y1126803D1*
X2047165Y1121995D1*
X2054350Y1119618D1*
X2059104D1*
X2066289Y1121995D1*
X2071042Y1126803D1*
X2073474Y1131556D1*
Y1138741D1*
X2071042Y1143550D1*
X2066289Y1148303D1*
X2023234Y1182865D2*
Y1178112D1*
X2025610Y1173304D1*
X2032795Y1170927D1*
X2073474D1*
X2039980Y1163742D2*
Y1180489D1*
X2047165Y1238722D2*
Y1260222D1*
X2044734Y1267407D1*
X2042357Y1269839D1*
X2037604Y1272216D1*
X2032795D1*
X2028042Y1269839D1*
X2025610Y1267407D1*
X2023234Y1260222D1*
Y1238722D1*
X2073474D1*
X2047165Y1255469D2*
X2073474Y1272216D1*
X2039980Y1287655D2*
X2073474D1*
X2054350D2*
X2047165Y1290087D1*
X2042357Y1294840D1*
X2039980Y1299648D1*
Y1306833D1*
X2035227Y1324705D2*
X2032851D1*
X2028042Y1327081D1*
X2025666Y1329458D1*
X2023289Y1334266D1*
Y1343828D1*
X2025666Y1348581D1*
X2028042Y1350958D1*
X2032851Y1353389D1*
X2037604D1*
X2042412Y1350958D1*
X2049542Y1346204D1*
X2073474Y1322273D1*
Y1355766D1*
X866063Y744220D2*
Y765720D1*
X863631Y772905D1*
X861255Y775337D1*
X856501Y777714D1*
X851693D1*
X846940Y775337D1*
X844508Y772905D1*
X842131Y765720D1*
Y744220D1*
X892371D1*
X866063Y760967D2*
X892371Y777713D1*
X842187Y797961D2*
Y824214D1*
X861310Y809899D1*
Y817084D1*
X863686Y821838D1*
X866063Y824214D1*
X873248Y826646D1*
X878001D1*
X885186Y824214D1*
X889995Y819461D1*
X892371Y812276D1*
Y805091D1*
X889995Y797961D1*
X887563Y795585D1*
X882810Y793153D1*
X1181024Y743032D2*
Y764532D1*
X1178592Y771717D1*
X1176215Y774149D1*
X1171462Y776525D1*
X1166654D1*
X1161900Y774149D1*
X1159469Y771717D1*
X1157092Y764532D1*
Y743032D1*
X1207332D1*
X1181024Y759779D2*
X1207332Y776525D1*
Y815896D2*
X1157147D1*
X1190585Y791964D1*
Y827834D1*
X1555244Y2637874D2*
X1576744D1*
X1583929Y2640306D1*
X1586360Y2642682D1*
X1588737Y2647436D1*
Y2652244D1*
X1586360Y2656997D1*
X1583929Y2659429D1*
X1576744Y2661806D1*
X1555244D1*
Y2611566D1*
X1571990Y2637874D2*
X1588737Y2611566D1*
X1632861Y2661750D2*
X1608985D1*
X1606608Y2640251D1*
X1608985Y2642627D1*
X1616170Y2645059D1*
X1623300D1*
X1630485Y2642627D1*
X1635293Y2637874D1*
X1637670Y2630689D1*
Y2625936D1*
X1635293Y2618751D1*
X1630485Y2613942D1*
X1623300Y2611566D1*
X1616170D1*
X1608985Y2613942D1*
X1606608Y2616374D1*
X1604176Y2621127D1*
X1023543Y744220D2*
Y765720D1*
X1021111Y772905D1*
X1018735Y775337D1*
X1013982Y777714D1*
X1009173D1*
X1004420Y775337D1*
X1001988Y772905D1*
X999612Y765720D1*
Y744220D1*
X1049852D1*
X1023543Y760967D2*
X1049852Y777713D1*
Y802714D2*
X999667Y826646D1*
Y793153D1*
X1516781Y915942D2*
Y880072D1*
X1519158Y872887D1*
X1523966Y868133D1*
X1531151Y865702D1*
X1535904D1*
X1543089Y868133D1*
X1547898Y872887D1*
X1550274Y880072D1*
Y915942D1*
X1565714Y906325D2*
X1570522Y908757D1*
X1577707Y915886D1*
Y865702D1*
X1909370Y681354D2*
Y702854D1*
X1906938Y710039D1*
X1904562Y712471D1*
X1899808Y714848D1*
X1895000D1*
X1890247Y712471D1*
X1887815Y710039D1*
X1885438Y702854D1*
Y681354D1*
X1935678D1*
X1909370Y698101D2*
X1935678Y714848D1*
X1909370Y756595D2*
X1904562Y754219D1*
X1902185Y747034D1*
Y739849D1*
X1904562Y732664D1*
X1909370Y730287D1*
X1914123Y732664D1*
X1916555Y737472D1*
X1918932Y749410D1*
X1921308Y754219D1*
X1926117Y756595D1*
X1928493D1*
X1933247Y754219D1*
X1935678Y747034D1*
Y739849D1*
X1933247Y732663D1*
X1928493Y730287D1*
X1902185Y772034D2*
X1935678D1*
X1916555D2*
X1909370Y774466D1*
X1904562Y779219D1*
X1902185Y784028D1*
Y791213D1*
X1895055Y806652D2*
X1892623Y811461D1*
X1885494Y818646D1*
X1935678D1*
X2054857Y717931D2*
X2050104Y715554D1*
X2045295Y710746D1*
X2042919Y705993D1*
Y696431D1*
X2045295Y691623D1*
X2050104Y686869D1*
X2054857Y684438D1*
X2062042Y682061D1*
X2074035D1*
X2081165Y684438D1*
X2085974Y686869D1*
X2090727Y691623D1*
X2093159Y696431D1*
Y705993D1*
X2090727Y710746D1*
X2085974Y715554D1*
X2081165Y717931D1*
X2066850Y759678D2*
X2062042Y757302D1*
X2059665Y750117D1*
Y742932D1*
X2062042Y735747D1*
X2066850Y733370D1*
X2071604Y735747D1*
X2074035Y740555D1*
X2076412Y752493D1*
X2078789Y757302D1*
X2083597Y759678D1*
X2085974D1*
X2090727Y757302D1*
X2093159Y750117D1*
Y742932D1*
X2090727Y735747D1*
X2085974Y733370D1*
X2059665Y775118D2*
X2093159D1*
X2074035D2*
X2066850Y777549D1*
X2062042Y782303D1*
X2059665Y787111D1*
Y794296D1*
X1909370Y493439D2*
Y514939D1*
X1906938Y522124D1*
X1904562Y524556D1*
X1899808Y526932D1*
X1895000D1*
X1890247Y524556D1*
X1887815Y522124D1*
X1885438Y514939D1*
Y493439D1*
X1935678D1*
X1909370Y510186D2*
X1935678Y526932D1*
X1909370Y568680D2*
X1904562Y566303D1*
X1902185Y559118D1*
Y551933D1*
X1904562Y544748D1*
X1909370Y542372D1*
X1914123Y544748D1*
X1916555Y549557D1*
X1918932Y561495D1*
X1921308Y566303D1*
X1926117Y568680D1*
X1928493D1*
X1933247Y566303D1*
X1935678Y559118D1*
Y551933D1*
X1933247Y544748D1*
X1928493Y542372D1*
X1902185Y584119D2*
X1935678D1*
X1916555D2*
X1909370Y586551D1*
X1904562Y591304D1*
X1902185Y596113D1*
Y603298D1*
X1897432Y621169D2*
X1895055D1*
X1890247Y623545D1*
X1887870Y625922D1*
X1885494Y630730D1*
Y640292D1*
X1887870Y645045D1*
X1890247Y647422D1*
X1895055Y649854D1*
X1899808D1*
X1904617Y647422D1*
X1911747Y642669D1*
X1935678Y618737D1*
Y652230D1*
X1456614Y1988342D2*
Y2009842D1*
X1454182Y2017027D1*
X1451806Y2019459D1*
X1447053Y2021836D1*
X1442244D1*
X1437491Y2019459D1*
X1435059Y2017027D1*
X1432682Y2009842D1*
Y1988342D1*
X1482922D1*
X1456614Y2005089D2*
X1482922Y2021836D1*
X1432738Y2049213D2*
X1435114Y2042083D1*
X1439868Y2039651D1*
X1444676D1*
X1449429Y2042083D1*
X1451861Y2046837D1*
X1454238Y2056398D1*
X1456614Y2063583D1*
X1461423Y2068336D1*
X1466176Y2070713D1*
X1473361D1*
X1478114Y2068336D1*
X1480546Y2065960D1*
X1482922Y2058775D1*
Y2049213D1*
X1480546Y2042083D1*
X1478114Y2039651D1*
X1473361Y2037275D1*
X1466176D1*
X1461423Y2039651D1*
X1456614Y2044460D1*
X1454238Y2051590D1*
X1451861Y2061151D1*
X1449429Y2065960D1*
X1444676Y2068336D1*
X1439868D1*
X1435114Y2065960D1*
X1432738Y2058775D1*
Y2049213D1*
X708583Y745436D2*
Y766936D1*
X706151Y774121D1*
X703774Y776553D1*
X699021Y778929D1*
X694213D1*
X689459Y776553D1*
X687028Y774121D1*
X684651Y766936D1*
Y745436D1*
X734891D1*
X708583Y762183D2*
X734891Y778929D1*
X691836Y823054D2*
X687083Y820677D1*
X684706Y813492D1*
Y808739D1*
X687083Y801554D1*
X694268Y796745D1*
X706206Y794369D1*
X718144D1*
X727706Y796745D1*
X732514Y801554D1*
X734891Y808739D1*
Y811115D1*
X732514Y818245D1*
X727706Y823054D1*
X720521Y825430D1*
X718144D1*
X710959Y823054D1*
X706206Y818245D1*
X703830Y811115D1*
Y808739D1*
X706206Y801554D1*
X710959Y796745D1*
X718144Y794369D1*
X1950133Y1791417D2*
X1971633D1*
X1978818Y1793849D1*
X1981250Y1796226D1*
X1983626Y1800979D1*
Y1805787D1*
X1981250Y1810541D1*
X1978818Y1812972D1*
X1971633Y1815349D1*
X1950133D1*
Y1765109D1*
X1966879Y1791417D2*
X1983626Y1765109D1*
X2030182Y1798602D2*
X2027750Y1791417D1*
X2022997Y1786609D1*
X2015812Y1784232D1*
X2013435D1*
X2006250Y1786609D1*
X2001497Y1791417D1*
X1999065Y1798602D1*
Y1800979D1*
X2001497Y1808164D1*
X2006250Y1812917D1*
X2013435Y1815294D1*
X2015812D1*
X2022997Y1812917D1*
X2027750Y1808164D1*
X2030182Y1798602D1*
Y1786609D1*
X2027750Y1774671D1*
X2022997Y1767486D1*
X2015812Y1765109D1*
X2011059D1*
X2003874Y1767486D1*
X2001497Y1772294D1*
X1818636Y1538734D2*
X1813883Y1536357D1*
X1809075Y1531549D1*
X1806698Y1526796D1*
Y1517234D1*
X1809075Y1512426D1*
X1813883Y1507672D1*
X1818636Y1505241D1*
X1825821Y1502864D1*
X1837815D1*
X1844945Y1505241D1*
X1849753Y1507672D1*
X1854506Y1512426D1*
X1856938Y1517234D1*
Y1526796D1*
X1854506Y1531549D1*
X1849753Y1536357D1*
X1844945Y1538734D1*
X1806754Y1558982D2*
Y1585235D1*
X1825877Y1570920D1*
Y1578105D1*
X1828253Y1582858D1*
X1830630Y1585235D1*
X1837815Y1587666D1*
X1842568D1*
X1849753Y1585235D1*
X1854562Y1580481D1*
X1856938Y1573296D1*
Y1566111D1*
X1854562Y1558981D1*
X1852130Y1556605D1*
X1847377Y1554173D1*
X1543046Y2777724D2*
X1538293Y2775347D1*
X1533484Y2770539D1*
X1531108Y2765786D1*
Y2756224D1*
X1533484Y2751416D1*
X1538293Y2746663D1*
X1543046Y2744231D1*
X1550231Y2741854D1*
X1562224D1*
X1569354Y2744231D1*
X1574163Y2746663D1*
X1578916Y2751416D1*
X1581348Y2756224D1*
Y2765786D1*
X1578916Y2770539D1*
X1574163Y2775347D1*
X1569354Y2777724D1*
X1581348Y2817095D2*
X1531163D1*
X1564601Y2793163D1*
Y2829033D1*
X695071Y2362283D2*
X716571D1*
X723756Y2364715D1*
X726187Y2367092D1*
X728564Y2371845D1*
Y2376654D1*
X726187Y2381407D1*
X723756Y2383839D1*
X716571Y2386215D1*
X695071D1*
Y2335975D1*
X711817Y2362283D2*
X728564Y2335975D1*
X744003Y2376598D2*
X748812Y2379030D1*
X755997Y2386160D1*
Y2335975D1*
X785806Y2386160D2*
X778621Y2383783D1*
X773813Y2376598D1*
X771436Y2364660D1*
Y2357475D1*
X773813Y2345537D1*
X778621Y2338352D1*
X785806Y2335975D1*
X790559D1*
X797744Y2338352D1*
X802497Y2345537D1*
X804929Y2357475D1*
Y2364660D1*
X802497Y2376598D1*
X797744Y2383783D1*
X790559Y2386160D1*
X785806D1*
X802497Y2376598D2*
X773813Y2345537D1*
X705821Y2086693D2*
X727320D1*
X734505Y2089125D1*
X736937Y2091501D1*
X739314Y2096255D1*
Y2101063D1*
X736937Y2105816D1*
X734505Y2108248D1*
X727320Y2110625D1*
X705821D1*
Y2060385D1*
X722567Y2086693D2*
X739314Y2060385D1*
X754753Y2101008D2*
X759562Y2103440D1*
X766747Y2110569D1*
Y2060385D1*
X782186Y2101008D2*
X786994Y2103440D1*
X794179Y2110569D1*
Y2060385D1*
X675386Y1889843D2*
X696885D1*
X704071Y1892274D1*
X706502Y1894651D1*
X708879Y1899404D1*
Y1904213D1*
X706502Y1908966D1*
X704071Y1911398D1*
X696885Y1913774D1*
X675386D1*
Y1863534D1*
X692132Y1889843D2*
X708879Y1863534D1*
X724318Y1904157D2*
X729127Y1906589D1*
X736312Y1913719D1*
Y1863534D1*
X754183Y1901781D2*
Y1904157D1*
X756559Y1908966D1*
X758936Y1911342D1*
X763744Y1913719D1*
X773306D1*
X778059Y1911342D1*
X780436Y1908966D1*
X782868Y1904157D1*
Y1899404D1*
X780436Y1894596D1*
X775683Y1887466D1*
X751751Y1863534D1*
X785244D1*
X695071Y1633937D2*
X716571D1*
X723756Y1636369D1*
X726187Y1638745D1*
X728564Y1643499D1*
Y1648307D1*
X726187Y1653060D1*
X723756Y1655492D1*
X716571Y1657869D1*
X695071D1*
Y1607629D1*
X711817Y1633937D2*
X728564Y1607629D1*
X744003Y1648252D2*
X748812Y1650684D1*
X755997Y1657813D1*
Y1607629D1*
X776244Y1657813D2*
X802497D1*
X788183Y1638690D1*
X795368D1*
X800121Y1636314D1*
X802497Y1633937D1*
X804929Y1626752D1*
Y1621999D1*
X802497Y1614814D1*
X797744Y1610005D1*
X790559Y1607629D1*
X783374D1*
X776244Y1610005D1*
X773868Y1612437D1*
X771436Y1617190D1*
X873755Y1578104D2*
X869001Y1575727D1*
X864193Y1570919D1*
X861816Y1566166D1*
Y1556604D1*
X864193Y1551796D1*
X869001Y1547042D1*
X873755Y1544611D1*
X880940Y1542234D1*
X892933D1*
X900063Y1544611D1*
X904871Y1547042D1*
X909624Y1551796D1*
X912056Y1556604D1*
Y1566166D1*
X909625Y1570919D1*
X904871Y1575727D1*
X900063Y1578104D1*
X861872Y1622228D2*
Y1598352D1*
X883371Y1595975D1*
X880995Y1598352D1*
X878563Y1605537D1*
Y1612666D1*
X880995Y1619851D1*
X885748Y1624660D1*
X892933Y1627036D1*
X897686D1*
X904871Y1624660D1*
X909680Y1619851D1*
X912056Y1612666D1*
Y1605537D1*
X909680Y1598352D1*
X907248Y1595975D1*
X902495Y1593543D1*
X873755Y1795855D2*
X869001Y1793479D1*
X864193Y1788670D1*
X861816Y1783917D1*
Y1774355D1*
X864193Y1769547D1*
X869001Y1764794D1*
X873755Y1762362D1*
X880940Y1759985D1*
X892933D1*
X900063Y1762362D1*
X904871Y1764794D1*
X909624Y1769547D1*
X912056Y1774355D1*
Y1783917D1*
X909625Y1788670D1*
X904871Y1793479D1*
X900063Y1795855D1*
X869001Y1839979D2*
X864248Y1837603D1*
X861872Y1830418D1*
Y1825665D1*
X864248Y1818480D1*
X871433Y1813671D1*
X883371Y1811295D1*
X895310Y1811294D1*
X904871Y1813671D1*
X909680Y1818480D1*
X912056Y1825665D1*
Y1828041D1*
X909680Y1835171D1*
X904871Y1839979D1*
X897686Y1842356D1*
X895310D1*
X888125Y1839979D1*
X883371Y1835171D1*
X880995Y1828041D1*
Y1825665D1*
X883371Y1818480D1*
X888125Y1813671D1*
X895310Y1811294D1*
X873755Y1991511D2*
X869001Y1989134D1*
X864193Y1984326D1*
X861816Y1979573D1*
Y1970011D1*
X864193Y1965202D1*
X869001Y1960449D1*
X873755Y1958017D1*
X880940Y1955641D1*
X892933D1*
X900063Y1958017D1*
X904871Y1960449D1*
X909624Y1965202D1*
X912056Y1970011D1*
Y1979572D1*
X909625Y1984326D1*
X904871Y1989134D1*
X900063Y1991511D1*
X912056Y2016512D2*
X861872Y2040443D1*
Y2006950D1*
X873755Y2188389D2*
X869001Y2186012D1*
X864193Y2181204D1*
X861816Y2176451D1*
Y2166889D1*
X864193Y2162081D1*
X869001Y2157327D1*
X873755Y2154895D1*
X880940Y2152519D1*
X892933D1*
X900063Y2154895D1*
X904871Y2157327D1*
X909624Y2162081D1*
X912056Y2166889D1*
Y2176451D1*
X909625Y2181204D1*
X904871Y2186012D1*
X900063Y2188389D1*
X861872Y2215766D2*
X864248Y2208636D1*
X869001Y2206205D1*
X873810D1*
X878563Y2208636D1*
X880995Y2213390D1*
X883371Y2222951D1*
X885748Y2230136D1*
X890557Y2234889D1*
X895310Y2237266D1*
X902495D1*
X907248Y2234889D1*
X909680Y2232513D1*
X912056Y2225328D1*
Y2215766D1*
X909680Y2208636D1*
X907248Y2206205D1*
X902495Y2203828D1*
X895310D1*
X890557Y2206205D1*
X885748Y2211013D1*
X883371Y2218143D1*
X880995Y2227704D1*
X878563Y2232513D1*
X873810Y2234889D1*
X869001D1*
X864248Y2232513D1*
X861872Y2225328D1*
Y2215766D1*
X1220206Y2414715D2*
X1201028Y2464955D1*
X1181905Y2414715D1*
X1189090Y2431462D2*
X1213021D1*
X1235646Y2464955D2*
Y2414715D1*
X1252392D1*
X1259577Y2417147D1*
X1264386Y2421900D1*
X1266762Y2426709D1*
X1269139Y2433839D1*
Y2445832D1*
X1266762Y2453017D1*
X1264386Y2457770D1*
X1259577Y2462579D1*
X1252392Y2464955D1*
X1235646D1*
X1320448Y2453017D2*
X1318072Y2457770D1*
X1313263Y2462579D1*
X1308510Y2464955D1*
X1298948D1*
X1294140Y2462579D1*
X1289387Y2457770D1*
X1286955Y2453017D1*
X1284578Y2445832D1*
Y2433839D1*
X1286955Y2426709D1*
X1289387Y2421900D1*
X1294140Y2417147D1*
X1298948Y2414715D1*
X1308510D1*
X1313263Y2417147D1*
X1318072Y2421900D1*
X1320448Y2426709D1*
X1364572Y2448209D2*
Y2414715D1*
Y2441024D2*
X1359819Y2445832D1*
X1355011Y2448209D1*
X1347881D1*
X1343073Y2445832D1*
X1338319Y2441024D1*
X1335888Y2433839D1*
Y2429085D1*
X1338319Y2421900D1*
X1343073Y2417147D1*
X1347881Y2414715D1*
X1355011D1*
X1359819Y2417147D1*
X1364572Y2421900D1*
X1380012Y2448209D2*
Y2397969D1*
Y2441024D2*
X1384820Y2445777D1*
X1389573Y2448209D1*
X1396758D1*
X1401567Y2445777D1*
X1406320Y2441024D1*
X1408752Y2433839D1*
Y2429030D1*
X1406320Y2421900D1*
X1401567Y2417092D1*
X1396758Y2414715D1*
X1389573D1*
X1384820Y2417092D1*
X1380012Y2421900D1*
X1424191Y2455338D2*
X1428999Y2457770D1*
X1436185Y2464900D1*
Y2414715D1*
X1485047Y1548574D2*
X1465869Y1598814D1*
X1446745Y1548574D1*
X1453930Y1565320D2*
X1477862D1*
X1500486Y1598814D2*
Y1548574D1*
X1517233D1*
X1524418Y1551005D1*
X1529227Y1555759D1*
X1531603Y1560567D1*
X1533980Y1567697D1*
Y1579690D1*
X1531603Y1586875D1*
X1529227Y1591629D1*
X1524418Y1596437D1*
X1517233Y1598814D1*
X1500486D1*
X1585289Y1586875D2*
X1582912Y1591629D1*
X1578104Y1596437D1*
X1573351Y1598814D1*
X1563789D1*
X1558981Y1596437D1*
X1554227Y1591629D1*
X1551796Y1586875D1*
X1549419Y1579690D1*
Y1567697D1*
X1551796Y1560567D1*
X1554227Y1555759D1*
X1558981Y1551005D1*
X1563789Y1548574D1*
X1573351D1*
X1578104Y1551005D1*
X1582912Y1555759D1*
X1585289Y1560567D1*
X1629413Y1582067D2*
Y1548574D1*
Y1574882D2*
X1624660Y1579690D1*
X1619851Y1582067D1*
X1612722D1*
X1607913Y1579690D1*
X1603160Y1574882D1*
X1600728Y1567697D1*
Y1562944D1*
X1603160Y1555759D1*
X1607913Y1551005D1*
X1612722Y1548574D1*
X1619851D1*
X1624660Y1551005D1*
X1629413Y1555759D1*
X1644852Y1582067D2*
Y1531827D1*
Y1574882D2*
X1649661Y1579635D1*
X1654414Y1582067D1*
X1661599D1*
X1666407Y1579635D1*
X1671161Y1574882D1*
X1673592Y1567697D1*
Y1562888D1*
X1671161Y1555759D1*
X1666407Y1550950D1*
X1661599Y1548574D1*
X1654414D1*
X1649661Y1550950D1*
X1644852Y1555759D1*
X1691464Y1586820D2*
Y1589197D1*
X1693840Y1594005D1*
X1696217Y1596382D1*
X1701025Y1598758D1*
X1710587D1*
X1715340Y1596382D1*
X1717717Y1594005D1*
X1720148Y1589197D1*
Y1584444D1*
X1717717Y1579635D1*
X1712963Y1572505D1*
X1689032Y1548574D1*
X1722525D1*
X1448616Y1067318D2*
X1443807Y1064941D1*
X1439054Y1060133D1*
X1436622Y1055379D1*
X1434246Y1048194D1*
Y1036201D1*
X1436622Y1029071D1*
X1439054Y1024263D1*
X1443807Y1019509D1*
X1448616Y1017078D1*
X1458177D1*
X1462931Y1019509D1*
X1467739Y1024263D1*
X1470116Y1029071D1*
X1472492Y1036201D1*
Y1048194D1*
X1470116Y1055379D1*
X1467739Y1060133D1*
X1462931Y1064941D1*
X1458177Y1067318D1*
X1448616D1*
X1487932Y1050571D2*
Y1000331D1*
Y1043386D2*
X1492740Y1048139D1*
X1497493Y1050571D1*
X1504678D1*
X1509487Y1048139D1*
X1514240Y1043386D1*
X1516672Y1036201D1*
Y1031392D1*
X1514240Y1024263D1*
X1509487Y1019454D1*
X1504678Y1017078D1*
X1497493D1*
X1492740Y1019454D1*
X1487932Y1024263D1*
X1567981Y1055379D2*
X1565604Y1060133D1*
X1560796Y1064941D1*
X1556043Y1067318D1*
X1546481D1*
X1541673Y1064941D1*
X1536919Y1060133D1*
X1534488Y1055379D1*
X1532111Y1048194D1*
Y1036201D1*
X1534488Y1029071D1*
X1536919Y1024263D1*
X1541673Y1019509D1*
X1546481Y1017078D1*
X1556043D1*
X1560796Y1019509D1*
X1565604Y1024263D1*
X1567981Y1029071D1*
X1612105Y1050571D2*
Y1017078D1*
Y1043386D2*
X1607352Y1048194D1*
X1602543Y1050571D1*
X1595414D1*
X1590605Y1048194D1*
X1585852Y1043386D1*
X1583420Y1036201D1*
Y1031448D1*
X1585852Y1024263D1*
X1590605Y1019509D1*
X1595414Y1017078D1*
X1602543D1*
X1607352Y1019509D1*
X1612105Y1024263D1*
X1627544Y1050571D2*
Y1000331D1*
Y1043386D2*
X1632353Y1048139D1*
X1637106Y1050571D1*
X1644291D1*
X1649099Y1048139D1*
X1653853Y1043386D1*
X1656284Y1036201D1*
Y1031392D1*
X1653853Y1024263D1*
X1649099Y1019454D1*
X1644291Y1017078D1*
X1637106D1*
X1632353Y1019454D1*
X1627544Y1024263D1*
X547322Y2097060D2*
Y2046820D1*
X564068D1*
X571253Y2049252D1*
X576062Y2054005D1*
X578439Y2058813D1*
X580815Y2065943D1*
Y2077936D1*
X578439Y2085121D1*
X576062Y2089875D1*
X571253Y2094683D1*
X564068Y2097060D1*
X547322D1*
X583192Y1978977D2*
X580815Y1983730D1*
X576007Y1988539D1*
X571253Y1990915D1*
X561692D1*
X556883Y1988539D1*
X552130Y1983730D1*
X549698Y1978977D1*
X547322Y1971792D1*
Y1959799D1*
X549698Y1952669D1*
X552130Y1947860D1*
X556883Y1943107D1*
X561692Y1940675D1*
X571253D1*
X576007Y1943107D1*
X580815Y1947860D1*
X583192Y1952669D1*
X555041Y1892490D2*
Y1842250D1*
X576596D1*
X583781Y1844682D1*
X586158Y1847059D1*
X588534Y1851812D1*
Y1858997D1*
X586158Y1863805D1*
X583781Y1866182D1*
X576596Y1868558D1*
X583781Y1870990D1*
X586158Y1873367D1*
X588534Y1878120D1*
Y1882928D1*
X586158Y1887682D1*
X583781Y1890114D1*
X576596Y1892490D1*
X555041D1*
Y1868558D2*
X576596D1*
X585624Y1731859D2*
X566445Y1782099D1*
X547322Y1731859D1*
X554507Y1748606D2*
X578439D1*
Y1191548D2*
X547322D1*
Y1141308D1*
Y1167616D2*
X566445D1*
X615378Y1187928D2*
Y1144873D1*
X593878Y1166373D2*
X636933D1*
X578439Y1289973D2*
X547322D1*
Y1239733D1*
Y1266041D2*
X566445D1*
X593878Y1264825D2*
X621513D1*
X564068Y1388398D2*
Y1338158D1*
X547322Y1388398D2*
X580815D1*
X617754Y1384778D2*
Y1341723D1*
X596254Y1363223D2*
X639309D1*
X564068Y1486823D2*
Y1436583D1*
X547322Y1486823D2*
X580815D1*
X596254Y1461676D2*
X623889D1*
X2161495Y1998634D2*
X2180618Y1948394D1*
X2199741Y1998634D1*
X2251051Y1986696D2*
X2248674Y1991449D1*
X2243866Y1996258D1*
X2239112Y1998634D1*
X2229551D1*
X2224742Y1996258D1*
X2219989Y1991449D1*
X2217557Y1986696D1*
X2215181Y1979511D1*
Y1967518D1*
X2217557Y1960388D1*
X2219989Y1955580D1*
X2224742Y1950826D1*
X2229551Y1948394D1*
X2239112D1*
X2243866Y1950826D1*
X2248674Y1955580D1*
X2251051Y1960388D1*
X2266490Y1989018D2*
X2271298Y1991449D1*
X2278483Y1998579D1*
Y1948394D1*
X2141810Y2097060D2*
X2160933Y2046820D1*
X2180056Y2097060D1*
X2231366Y2085121D2*
X2228989Y2089875D1*
X2224181Y2094683D1*
X2219427Y2097060D1*
X2209866D1*
X2205057Y2094683D1*
X2200304Y2089875D1*
X2197872Y2085121D1*
X2195496Y2077936D1*
Y2065943D1*
X2197872Y2058813D1*
X2200304Y2054005D1*
X2205057Y2049252D1*
X2209866Y2046820D1*
X2219427D1*
X2224181Y2049252D1*
X2228989Y2054005D1*
X2231366Y2058813D1*
X2249237Y2085066D2*
Y2087443D1*
X2251613Y2092251D1*
X2253990Y2094628D1*
X2258798Y2097004D1*
X2268360D1*
X2273113Y2094628D1*
X2275490Y2092251D1*
X2277922Y2087443D1*
Y2082690D1*
X2275490Y2077881D1*
X2270737Y2070751D1*
X2246805Y2046820D1*
X2280298D1*
X2129844Y1695640D2*
X2148967Y1645400D1*
X2168091Y1695640D1*
X2183530Y1678893D2*
Y1645400D1*
Y1664523D2*
X2185962Y1671708D1*
X2190715Y1676516D1*
X2195523Y1678893D1*
X2202708D1*
X2218148Y1664523D2*
X2246832D1*
Y1669331D1*
X2244456Y1674140D1*
X2242079Y1676516D1*
X2237271Y1678893D1*
X2230086D1*
X2225333Y1676516D1*
X2220524Y1671708D1*
X2218148Y1664523D1*
Y1659770D1*
X2220524Y1652585D1*
X2225333Y1647832D1*
X2230086Y1645400D1*
X2237271D1*
X2242079Y1647832D1*
X2246832Y1652585D1*
X2281395Y1695640D2*
X2276642D1*
X2271833Y1693263D1*
X2269457Y1686078D1*
Y1645400D1*
X2262272Y1678893D2*
X2279018D1*
X2177680Y1573310D2*
X2175303Y1578064D1*
X2170495Y1582872D1*
X2165742Y1585249D1*
X2156180D1*
X2151372Y1582872D1*
X2146618Y1578064D1*
X2144187Y1573310D1*
X2141810Y1566125D1*
Y1554132D1*
X2144187Y1547002D1*
X2146618Y1542194D1*
X2151372Y1537441D1*
X2156180Y1535009D1*
X2165742D1*
X2170495Y1537441D1*
X2175303Y1542194D1*
X2177680Y1547002D1*
Y1554132D1*
X2165742D1*
X2226612Y1585249D2*
Y1535009D1*
X2193119Y1585249D1*
Y1535009D1*
X2242052Y1585249D2*
Y1535009D1*
X2258798D1*
X2265983Y1537441D1*
X2270792Y1542194D1*
X2273168Y1547002D1*
X2275545Y1554132D1*
Y1566125D1*
X2273168Y1573310D1*
X2270792Y1578064D1*
X2265983Y1582872D1*
X2258798Y1585249D1*
X2242052D1*
X2209865Y1486768D2*
X2185988D1*
X2183612Y1465268D1*
X2185988Y1467645D1*
X2193174Y1470077D1*
X2200303D1*
X2207488Y1467645D1*
X2212297Y1462892D1*
X2214673Y1455707D1*
Y1450954D1*
X2212297Y1443768D1*
X2207488Y1438960D1*
X2200303Y1436583D1*
X2193174D1*
X2185988Y1438960D1*
X2183612Y1441392D1*
X2181180Y1446145D1*
X2230113Y1486823D2*
X2249236Y1436583D1*
X2268359Y1486823D1*
X2161495Y1378781D2*
X2166303Y1381213D1*
X2173488Y1388343D1*
Y1338158D1*
X2191360Y1376405D2*
Y1378781D1*
X2193736Y1383590D1*
X2196113Y1385966D1*
X2200921Y1388343D1*
X2210483D1*
X2215236Y1385966D1*
X2217613Y1383590D1*
X2220044Y1378781D1*
Y1374028D1*
X2217613Y1369220D1*
X2212859Y1362090D1*
X2188928Y1338158D1*
X2222421D1*
X2237860Y1388398D2*
X2256984Y1338158D1*
X2276107Y1388398D1*
X2167833Y1267932D2*
D45*
X2164030Y1271778D1*
X2158282Y1273680D1*
X2150633D1*
X2144885Y1271778D1*
X2141038Y1267932D1*
Y1264129D1*
X2142983Y1260282D1*
X2144885Y1258381D1*
X2148687Y1256480D1*
X2160183Y1252633D1*
X2164030Y1250732D1*
X2165931Y1248786D1*
X2167833Y1244984D1*
Y1239236D1*
X2164030Y1235433D1*
X2158282Y1233488D1*
X2150633D1*
X2144885Y1235433D1*
X2141038Y1239236D1*
X2180184Y1273680D2*
Y1233488D1*
X2193581D1*
X2199329Y1235433D1*
X2203176Y1239236D1*
X2205077Y1243083D1*
X2206979Y1248786D1*
Y1258381D1*
X2205077Y1264129D1*
X2203176Y1267932D1*
X2199329Y1271778D1*
X2193581Y1273680D1*
X2180184D1*
X2249972Y1233488D2*
X2234629Y1273680D1*
X2219330Y1233488D1*
X2225078Y1246885D2*
X2244224D1*
X2187518Y1169507D2*
X2183715Y1173353D1*
X2177967Y1175255D1*
X2170318D1*
X2164570Y1173353D1*
X2160723Y1169507D1*
Y1165704D1*
X2162669Y1161857D1*
X2164570Y1159956D1*
X2168372Y1158055D1*
X2179868Y1154208D1*
X2183715Y1152307D1*
X2185616Y1150361D1*
X2187518Y1146559D1*
Y1140811D1*
X2183715Y1137008D1*
X2177967Y1135063D1*
X2170318D1*
X2164570Y1137008D1*
X2160723Y1140811D1*
X2228565Y1165704D2*
X2226664Y1169507D1*
X2222817Y1173353D1*
X2219014Y1175255D1*
X2211365D1*
X2207518Y1173353D1*
X2203716Y1169507D1*
X2201770Y1165704D1*
X2199869Y1159956D1*
Y1150361D1*
X2201770Y1144657D1*
X2203716Y1140811D1*
X2207518Y1137008D1*
X2211365Y1135063D1*
X2219014D1*
X2222817Y1137008D1*
X2226664Y1140811D1*
X2228565Y1144657D1*
X2240916Y1175255D2*
Y1135063D1*
X2263864D1*
X2110159Y1794065D2*
D44*
Y1743825D1*
X2138844D1*
X2182968Y1794065D2*
Y1743825D1*
Y1770133D2*
X2178215Y1774942D1*
X2173406Y1777318D1*
X2166221D1*
X2161468Y1774942D1*
X2156660Y1770133D1*
X2154283Y1762948D1*
Y1758195D1*
X2156660Y1751010D1*
X2161468Y1746257D1*
X2166221Y1743825D1*
X2173406D1*
X2178215Y1746257D1*
X2182968Y1751010D1*
X2227092Y1777318D2*
Y1743825D1*
Y1770133D2*
X2222339Y1774942D1*
X2217531Y1777318D1*
X2210401D1*
X2205592Y1774942D1*
X2200839Y1770133D1*
X2198407Y1762948D1*
Y1758195D1*
X2200839Y1751010D1*
X2205592Y1746257D1*
X2210401Y1743825D1*
X2217531D1*
X2222339Y1746257D1*
X2227092Y1751010D1*
X2271272Y1770133D2*
X2266463Y1774942D1*
X2261655Y1777318D1*
X2254525D1*
X2249716Y1774942D1*
X2244963Y1770133D1*
X2242531Y1762948D1*
Y1758195D1*
X2244963Y1751010D1*
X2249716Y1746257D1*
X2254525Y1743825D1*
X2261655D1*
X2266463Y1746257D1*
X2271272Y1751010D1*
X1309162Y515071D2*
X1304408Y519880D1*
X1297223Y522257D1*
X1287662D1*
X1280477Y519880D1*
X1275668Y515071D1*
Y510318D1*
X1278100Y505510D1*
X1280477Y503133D1*
X1285230Y500757D1*
X1299600Y495948D1*
X1304408Y493572D1*
X1306785Y491140D1*
X1309162Y486387D1*
Y479202D1*
X1304408Y474448D1*
X1297223Y472017D1*
X1287662D1*
X1280477Y474448D1*
X1275668Y479202D1*
X1324601Y505510D2*
Y481578D1*
X1326977Y474448D1*
X1331786Y472017D1*
X1338971D1*
X1343724Y474448D1*
X1350909Y481578D1*
Y505510D2*
Y472017D1*
X1366348Y505510D2*
Y472017D1*
Y495948D2*
X1373533Y503133D1*
X1378342Y505510D1*
X1385472D1*
X1390280Y503133D1*
X1392657Y495948D1*
Y472017D1*
Y495948D2*
X1399842Y503133D1*
X1404650Y505510D1*
X1411780D1*
X1416588Y503133D1*
X1419020Y495948D1*
Y472017D1*
X2234358Y574127D2*
X2229605Y578935D1*
X2222420Y581312D1*
X2212859D1*
X2205674Y578935D1*
X2200865Y574127D1*
Y569373D1*
X2203297Y564565D1*
X2205674Y562188D1*
X2210427Y559812D1*
X2224797Y555003D1*
X2229605Y552627D1*
X2231982Y550195D1*
X2234358Y545442D1*
Y538257D1*
X2229605Y533504D1*
X2222420Y531072D1*
X2212859D1*
X2205674Y533504D1*
X2200865Y538257D1*
X2249798Y557380D2*
X2271297D1*
X2278483Y559812D1*
X2280914Y562188D1*
X2283291Y566942D1*
Y571750D1*
X2280914Y576503D1*
X2278483Y578935D1*
X2271297Y581312D1*
X2249798D1*
Y531072D1*
X2266544Y557380D2*
X2283291Y531072D1*
X2298730Y550195D2*
X2327415D1*
Y555003D1*
X2325039Y559812D1*
X2322662Y562188D1*
X2317853Y564565D1*
X2310668D1*
X2305915Y562188D1*
X2301107Y557380D1*
X2298730Y550195D1*
Y545442D1*
X2301107Y538257D1*
X2305915Y533504D1*
X2310668Y531072D1*
X2317853D1*
X2322662Y533504D1*
X2327415Y538257D1*
X2361978Y581312D2*
X2357224D1*
X2352416Y578935D1*
X2350039Y571750D1*
Y531072D1*
X2342854Y564565D2*
X2359601D1*
X1980829Y2715043D2*
X1978453Y2719796D1*
X1973644Y2724604D1*
X1968891Y2726981D1*
X1959330D1*
X1954521Y2724604D1*
X1949768Y2719796D1*
X1947336Y2715043D1*
X1944960Y2707858D1*
Y2695864D1*
X1947336Y2688734D1*
X1949768Y2683926D1*
X1954521Y2679173D1*
X1959330Y2676741D1*
X1968891D1*
X1973644Y2679173D1*
X1978453Y2683926D1*
X1980829Y2688734D1*
X1996269Y2701833D2*
X2023903D1*
X2039343Y2726981D2*
Y2676741D1*
X2056089D1*
X2063274Y2679173D1*
X2068083Y2683926D1*
X2070459Y2688734D1*
X2072836Y2695864D1*
Y2707858D1*
X2070459Y2715043D1*
X2068083Y2719796D1*
X2063274Y2724604D1*
X2056089Y2726981D1*
X2039343D1*
X1766726Y1239733D2*
X1747547Y1289973D1*
X1728424Y1239733D1*
X1735609Y1256480D2*
X1759541D1*
X1782165Y1264825D2*
X1809800D1*
X1825239Y1289973D2*
Y1239733D1*
X1846794D1*
X1853979Y1242165D1*
X1856356Y1244542D1*
X1858733Y1249295D1*
Y1256480D1*
X1856356Y1261288D1*
X1853979Y1263665D1*
X1846794Y1266041D1*
X1853979Y1268473D1*
X1856356Y1270850D1*
X1858733Y1275603D1*
Y1280411D1*
X1856356Y1285165D1*
X1853979Y1287596D1*
X1846794Y1289973D1*
X1825239D1*
Y1266041D2*
X1846794D1*
M02*
